<svg xmlns="http://www.w3.org/2000/svg" width="100.616" height="159.68" viewBox="0 0 100.616 159.68">
  <g id="Group_85142" data-name="Group 85142" transform="translate(129.845 -161.658)">
    <g id="Group_85099" data-name="Group 85099" transform="translate(-129.845 166.096)">
      <g id="Group_85082" data-name="Group 85082" transform="translate(3.983 78.858)">
        <path id="Path_146821" data-name="Path 146821" d="M-98.4,269.85v20.694l-27.431-15.806V254.044Z" transform="translate(125.827 -245.774)" fill="#ababab"/>
        <path id="Path_146822" data-name="Path 146822" d="M-98.151,269.918l14.341-8.27v20.694l-14.341,8.27Z" transform="translate(125.581 -245.841)" fill="#919191"/>
        <path id="Path_146823" data-name="Path 146823" d="M-84.055,261.506-111.486,245.7l-14.341,8.27L-98.4,269.776Z" transform="translate(125.827 -245.7)" fill="#e7e3e3"/>
        <path id="Path_146824" data-name="Path 146824" d="M-120.71,252.441c.674,3.738,12.055,12.061,19.483,14.383s8.089-2.238,7.415-5.976-7.241-8.651-14.669-10.973S-121.383,248.7-120.71,252.441Z" transform="translate(125.782 -245.726)" fill="#d4d0d0"/>
      </g>
      <g id="Group_85095" data-name="Group 85095">
        <g id="Group_85091" data-name="Group 85091">
          <g id="Group_85088" data-name="Group 85088">
            <path id="Path_146825" data-name="Path 146825" d="M-118.991,202.69c4.215-6.452,6.794-18.007,4.894-18.545a3.351,3.351,0,0,0-3.265.379c-1.378,1.188-1.539,2.073-1.787,4.667s-.431,5.379-.431,5.379l-5.151,11.279c-.245.428-.489.856-.755,1.272-.314.489-.714.912-1.038,1.389-.065.1-.127.179-.189.272-.443.248-1.119.632-1.444.854l-1.688,1.048c.193.328,1.132.081,1.653-.086-.013.028-.041.046-.048.078a.732.732,0,0,0,.055.41l-1.151,2.028a.346.346,0,0,0,.125.518l.347.224s-.457.623.817.787,1.053.074,1.427-.379a8.641,8.641,0,0,0,1.442-1.912c.326-.136.478-.445.719-.881a3.039,3.039,0,0,0,.277-1.2c.055-.13.086-.207.086-.207l-.061-.043c0-.053.009-.108.016-.16a2.768,2.768,0,0,1,.171-.773c.157-.363.287-.718.434-1.085a33.355,33.355,0,0,0,4.363-5.023c.009-.012.016-.025.024-.037s.032-.035.046-.053A1.124,1.124,0,0,0-118.991,202.69Z" transform="translate(129.845 -166.293)" fill="#f1bc95"/>
            <path id="Path_146826" data-name="Path 146826" d="M-112.771,189.155c.169-.35,2.666-5.913,1.205-5.909,0,0-2.175-1.751-4.138-.773s-2.2,2.212-3.265,5.17c-.28.781-.452,1.619-.693,2.42a4.5,4.5,0,0,0,.061,3.484q.737,2.006,1.574,3.973c1.009-.2.96-2.594,1.511-3.446a16.234,16.234,0,0,1,1.161-1.321A18.649,18.649,0,0,0-112.771,189.155Z" transform="translate(129.758 -166.278)" fill="#51c0ec"/>
            <g id="Group_85087" data-name="Group 85087" transform="translate(8.053)">
              <g id="Group_85083" data-name="Group 85083" transform="translate(0 79.119)">
                <path id="Path_146827" data-name="Path 146827" d="M-109.294,247.563c.076.21.147.421.227.629a2.175,2.175,0,0,1,.206,1.182,8.731,8.731,0,0,0-.135,1.617l-2.9,1.184-1.232-.106c-.071-.006-.4.373-.457.421a7.816,7.816,0,0,1-1.3.885,7.754,7.754,0,0,1-1.946.69,10.364,10.364,0,0,1-2.651.121,1.849,1.849,0,0,1-.533-.055A3.432,3.432,0,0,1-121.542,253a1.631,1.631,0,0,1,.36-1.891,10.938,10.938,0,0,1,4.481-2.521l1.078-2.621c0,.061,2.026.543,2.161.579a4.083,4.083,0,0,0,1.776.329,5.217,5.217,0,0,1,1.956-.031.287.287,0,0,1,.121.041.284.284,0,0,1,.083.117A5.876,5.876,0,0,1-109.294,247.563Z" transform="translate(121.72 -245.963)" fill="#69635c"/>
              </g>
              <path id="Path_146828" data-name="Path 146828" d="M-108.877,248.91a9.021,9.021,0,0,0-.119,1.5l-2.9,1.185-1.232-.106c-.071-.006-.4.372-.457.421a7.877,7.877,0,0,1-1.3.885,7.753,7.753,0,0,1-1.946.69,10.364,10.364,0,0,1-2.651.12,1.848,1.848,0,0,1-.533-.054,3.439,3.439,0,0,1-1.531-1.136,1.085,1.085,0,0,1-.132-.376,1.228,1.228,0,0,0,.132.981,3.432,3.432,0,0,0,1.531,1.136,1.849,1.849,0,0,0,.533.055,10.364,10.364,0,0,0,2.651-.121,7.754,7.754,0,0,0,1.946-.69,7.816,7.816,0,0,0,1.3-.885c.058-.049.386-.427.457-.421l1.232.106,2.9-1.185a8.723,8.723,0,0,1,.135-1.616A1.524,1.524,0,0,0-108.877,248.91Z" transform="translate(121.72 -166.87)" fill="#69e75c"/>
              <g id="Group_85084" data-name="Group 85084" transform="translate(0.523 79.354)">
                <path id="Path_146829" data-name="Path 146829" d="M-120.985,250.9c-.5.476-.007,1.061.478,1.285a1.937,1.937,0,0,0,.833.129,8.889,8.889,0,0,0,1.921-.23,8.05,8.05,0,0,0,1.508-.407,7.589,7.589,0,0,0,1.239-.516c.406-.274.493-.808.737-1.2.216-.346.56-.6.765-.948.12-.2.263-.762-.017-.874a6.874,6.874,0,0,1-2.193-1.941l-.982,2.386c-.027.065-.511.164-.579.187a13.638,13.638,0,0,0-1.371.565,9.967,9.967,0,0,0-1.614.947A7.42,7.42,0,0,0-120.985,250.9Z" transform="translate(121.193 -246.2)" fill="#7b746c"/>
              </g>
              <g id="Group_85085" data-name="Group 85085" transform="translate(18.621 88.138)">
                <path id="Path_146830" data-name="Path 146830" d="M-102.726,263.009a9.284,9.284,0,0,1,.567-1.44q.6-1.3,1.193-2.6a11.264,11.264,0,0,0,.5-3.238.613.613,0,0,1,.057-.214c.236-.428,1.347-.466,1.769-.455a14.272,14.272,0,0,1,1.646.1,6.279,6.279,0,0,1,1.994.6c.916.474.767,1.211.712,2.11a6.684,6.684,0,0,1-.177,1.363,7.142,7.142,0,0,1-.792,1.773H-95.5c.021,0-.15,1.188-.163,1.277a5.794,5.794,0,0,1-.566,1.827,7.656,7.656,0,0,1-.819,1.273,5.549,5.549,0,0,1-2.364,2.025,2.833,2.833,0,0,1-.607.146,3.409,3.409,0,0,1-1.056-.064,2.52,2.52,0,0,1-1.492-.685,3.058,3.058,0,0,1-.353-1.733A6.091,6.091,0,0,1-102.726,263.009Z" transform="translate(102.932 -255.062)" fill="#69635c"/>
              </g>
              <path id="Path_146831" data-name="Path 146831" d="M-94.287,257.28a6.693,6.693,0,0,1-.177,1.363,7.143,7.143,0,0,1-.792,1.773l-.239,0c.021,0-.15,1.189-.163,1.278a5.794,5.794,0,0,1-.566,1.827,7.608,7.608,0,0,1-.819,1.272,5.545,5.545,0,0,1-2.364,2.026,2.835,2.835,0,0,1-.607.146,3.41,3.41,0,0,1-1.056-.064,2.523,2.523,0,0,1-1.492-.685,2.885,2.885,0,0,1-.35-1.675c0,.182-.017.366,0,.548a3.058,3.058,0,0,0,.353,1.733,2.517,2.517,0,0,0,1.492.685,3.409,3.409,0,0,0,1.056.064,2.833,2.833,0,0,0,.607-.146,5.549,5.549,0,0,0,2.364-2.025,7.656,7.656,0,0,0,.819-1.273,5.794,5.794,0,0,0,.566-1.827c.013-.088.183-1.275.163-1.277h.239a7.142,7.142,0,0,0,.792-1.773,6.684,6.684,0,0,0,.177-1.363,6.939,6.939,0,0,0,.029-1.038C-94.267,256.988-94.277,257.13-94.287,257.28Z" transform="translate(121.553 -166.94)" fill="#69e75c"/>
              <path id="Path_146832" data-name="Path 146832" d="M-98.244,256.419a2.51,2.51,0,0,0-1.133-.31c-.354.019-.463.2-.624.493a5.258,5.258,0,0,0-.422,1.961,9.652,9.652,0,0,1-.382,1.583c-.218.737-.692,1.448-.93,2.157a5.372,5.372,0,0,0-.42,2.785.748.748,0,0,0,.1.241c.185.279.827.428,1.137.49a3.189,3.189,0,0,0,.714.051c.129,0,.621.026.708-.064a17.719,17.719,0,0,0,1.629-1.882,14.721,14.721,0,0,0,1.082-2.188,8.45,8.45,0,0,0,.493-2.224,3.842,3.842,0,0,0,.043-1.882,1.081,1.081,0,0,0-.745-.778c-.166-.049-.337-.034-.5-.081A5.556,5.556,0,0,1-98.244,256.419Z" transform="translate(121.547 -166.934)" fill="#7b746c"/>
              <path id="Path_146833" data-name="Path 146833" d="M-110.923,219.21s2.751,5.38,2.4,9.465-.258,4.478.494,6.214-2.442,12.406-2.442,12.406a3.509,3.509,0,0,1-3.678-1c-.471-.595-1.034-3.94-.984-5.747.052-1.859.221-3.715.21-5.576a7.721,7.721,0,0,0-.726-3.6,26.113,26.113,0,0,1-2.307-8.131,42.136,42.136,0,0,1,.306-11.032Z" transform="translate(121.689 -166.544)" fill="#df9876"/>
              <path id="Path_146834" data-name="Path 146834" d="M-110.385,231.764a21.818,21.818,0,0,0,.586,3.072,10.3,10.3,0,0,1,.13,2.79,24.015,24.015,0,0,1-.238,3.065,60.087,60.087,0,0,1-1.267,6.07,5.633,5.633,0,0,1-.222.737,3.918,3.918,0,0,1-2.994-1.045,24.748,24.748,0,0,1-.743-5.906c-.06-1.859.221-3.715.21-5.576a7.728,7.728,0,0,0-.726-3.606,26.126,26.126,0,0,1-2.307-8.13,42.136,42.136,0,0,1,.306-11.032l1.436,1.5a22.659,22.659,0,0,0,2.946,3.871c.753.66,1.66,1.133,2.38,1.83.063.062.093.131.15.192.163.345.414.9.7,1.615.074,1.242-.616,2.337-.723,3.58a13.43,13.43,0,0,0,.021,1.936l.155,2.6C-110.54,230.141-110.492,230.955-110.385,231.764Z" transform="translate(121.689 -166.544)" fill="#f1bc95"/>
              <path id="Path_146835" data-name="Path 146835" d="M-95.148,256.021s1.691-11.162.168-14.379-2.328-4.315-2.27-6.5-2.94-10.669-2.94-10.669a12.168,12.168,0,0,0-.256-7.48c-1.5-3.473-2.468-4.2-2.468-4.2s-2.739,1.95-8.829-.5-5.885-3.336-5.885-3.336-1.315,6.316,1.557,10.293,5.509,4.718,5.509,4.718,2.784,9.5,5.3,13.185c1.11,1.631,1.432,3.748,2.048,5.648.647,2,2.486,10.117,3.129,12.662C-100.09,255.466-99.263,259.01-95.148,256.021Z" transform="translate(121.687 -166.516)" fill="#f1bc95"/>
              <path id="Path_146836" data-name="Path 146836" d="M-103.376,215.771a12.686,12.686,0,0,0-1.426-2.29,4.961,4.961,0,0,0,2.005-.648s.966.726,2.468,4.2a12.168,12.168,0,0,1,.256,7.48s3,8.487,2.94,10.669.746,3.279,2.27,6.5-.168,14.379-.168,14.379c-.585.425-.292.332-.811.53a9.127,9.127,0,0,1,.388-2.323,42.084,42.084,0,0,0,.256-4.469,18.733,18.733,0,0,0-1.785-8.488c-.617-1.213-1.013-2.583-1.524-3.856-.313-.781-.627-1.563-.872-2.369-.858-2.826-.869-5.834-1.922-8.611a15.081,15.081,0,0,1-.874-2.868C-102.612,220.961-102.231,218.271-103.376,215.771Z" transform="translate(121.57 -166.55)" fill="#df9876"/>
              <path id="Path_146837" data-name="Path 146837" d="M-117.921,210.531s-.846,8.041-.6,10.649a21.376,21.376,0,0,0,.965,4.621,13.5,13.5,0,0,0,5.146,1.286l2.853.1.755,2.185s.718,1.105,4.521.988,5.347-2.076,5.347-2.076l-.844-4.065a13.056,13.056,0,0,0-.175-6.315,32.913,32.913,0,0,0-2.281-5.092Z" transform="translate(121.692 -166.53)" fill="#125069"/>
              <path id="Path_146838" data-name="Path 146838" d="M-104.224,230.375c3.8-.117,5.347-2.076,5.347-2.076l-.844-4.065a13.056,13.056,0,0,0-.175-6.315,32.913,32.913,0,0,0-2.281-5.092l-5.356-.779-4.922.339a27.011,27.011,0,0,0,0,5.649c.307,3.553,1.667,4.518,1.843,5.176s1.113,3.99,1.113,3.99l.755,2.185S-108.027,230.492-104.224,230.375Z" transform="translate(121.639 -166.543)" fill="#155b75"/>
              <path id="Path_146839" data-name="Path 146839" d="M-117.88,184.732a4.251,4.251,0,0,1,1.448-2.52,3.586,3.586,0,0,1,3.472-.559c.466.11.7.743.763,1.713a13.767,13.767,0,0,1-2.759-.164,3.815,3.815,0,0,0-2.535,1.118C-117.635,184.444-117.746,184.6-117.88,184.732Z" transform="translate(121.686 -166.272)" fill="#4fbbe6"/>
              <path id="Path_146840" data-name="Path 146840" d="M-119.539,196.8a58.654,58.654,0,0,0,1.61,13.468s3.495,5.92,16.006,2.494c0,0-1.134-6.829-.453-8.112.7-1.3,5.165-6.222,5.428-9.286s1.066-5.586-1.883-8.247a55.841,55.841,0,0,0-4.442-3.777,17.309,17.309,0,0,0-3.452-2.025,6.327,6.327,0,0,0-3.719-.181c-2.151.432-4.255,1.563-4.977,2.612C-116.6,185.434-119.63,188.892-119.539,196.8Z" transform="translate(121.701 -166.267)" fill="#5ed0ff"/>
              <path id="Path_146841" data-name="Path 146841" d="M-110.4,181.133a6.327,6.327,0,0,1,3.719.181,17.3,17.3,0,0,1,3.451,2.025,55.665,55.665,0,0,1,4.443,3.777c2.95,2.661,2.147,5.185,1.883,8.247s-4.731,7.988-5.428,9.285c-.681,1.285.453,8.113.453,8.113a31.7,31.7,0,0,1-3.753.789c-.106.016.189-3.518.209-3.75.287-3.33.368-7.224,1.83-10.294a14.416,14.416,0,0,1,2.842-3.762,4.912,4.912,0,0,0,1.058-2.167,15.721,15.721,0,0,0,.63-2.535,2.517,2.517,0,0,0-.047-1.115,2.839,2.839,0,0,0-.6-.926c-1.15-1.335-2.6-3.091-4.211-3.857a19.843,19.843,0,0,0-5.358-1.483,31.868,31.868,0,0,0-5.581-.477A10.1,10.1,0,0,1-110.4,181.133Z" transform="translate(121.659 -166.267)" fill="#44a6d1" style="mix-blend-mode: multiply;isolation: isolate"/>
              <path id="Path_146842" data-name="Path 146842" d="M-112.651,186.361a2.115,2.115,0,0,0,3.209,2.255c.789-.5,1.656-1.091,2.546-1.765,3.187-2.426,3.682-3.511,3.682-3.511a17.309,17.309,0,0,0-3.452-2.025,6.327,6.327,0,0,0-3.719-.181,27.349,27.349,0,0,0-2.25,5.161Z" transform="translate(121.64 -166.267)" fill="#d18d6d"/>
              <path id="Path_146843" data-name="Path 146843" d="M-107.185,186.364a9.43,9.43,0,0,0,.232-2.626c-.045-.806-.2-1.606-.19-2.413,0-.056.014-.11.018-.167a4.167,4.167,0,0,1,.505.158,17.3,17.3,0,0,1,3.451,2.025s-.494,1.084-3.681,3.511c-.252.19-.495.359-.741.536A10.541,10.541,0,0,0-107.185,186.364Z" transform="translate(121.595 -166.269)" fill="#c77752"/>
              <path id="Path_146844" data-name="Path 146844" d="M-104.211,180.236l.1,2.453a10.969,10.969,0,0,1-4.156,2.718c-2.536.89-3.255.283-3.255.283l-.17-5.3S-104.926,177.363-104.211,180.236Z" transform="translate(121.631 -166.25)" fill="#deb08a"/>
              <path id="Path_146845" data-name="Path 146845" d="M-104.171,180.236l.1,2.453a11.253,11.253,0,0,1-2.9,2.162,9.171,9.171,0,0,0,.02-1.131c-.045-.806-.2-1.606-.19-2.413a8.384,8.384,0,0,1,.545-2.294C-105.413,178.956-104.42,179.232-104.171,180.236Z" transform="translate(121.591 -166.25)" fill="#d18d6d"/>
              <path id="Path_146846" data-name="Path 146846" d="M-113.714,181.464c-.008,1.62,1.411,2.323,3.491,2.244a8.017,8.017,0,0,0,3.042-.955q.534-.284.914-.508l.219-.141a1.648,1.648,0,0,1,.183-.117c.15-.109.242-.167.242-.167,6.077-4.681,2.984-5.8,2.336-8.443a2.434,2.434,0,0,0-.216-.6,2.735,2.735,0,0,0-.245-.463,8.683,8.683,0,0,0-6.053-3.764,3.737,3.737,0,0,0-2.983,1.692,7.95,7.95,0,0,0-.921,1.545,1.241,1.241,0,0,0-.082.234C-114.373,173.908-113.707,179.924-113.714,181.464Z" transform="translate(121.652 -166.157)" fill="#f0b88f"/>
              <path id="Path_146847" data-name="Path 146847" d="M-113.785,172.033c.012.018.024.037.039.04a2.989,2.989,0,0,0,1.042.417,12.885,12.885,0,0,0,3.065.45c.448,0,1.087-.131,1.478.148a2.463,2.463,0,0,1,.771.932,3.306,3.306,0,0,1,.164.563,6.448,6.448,0,0,1,.312,2.086c-.076.708-.092,1.428-.12,2.13a7.692,7.692,0,0,0,.219,1.59,5.221,5.221,0,0,1-.363,2.376q.534-.284.914-.508a1.1,1.1,0,0,1,.219-.141,1.561,1.561,0,0,1,.183-.117c.15-.109.242-.167.242-.167,6.077-4.681,2.984-5.8,2.336-8.443a2.434,2.434,0,0,0-.216-.6,2.735,2.735,0,0,0-.245-.463,5.409,5.409,0,0,0-2.777-1.977,9.415,9.415,0,0,0-2.136-.452,7.972,7.972,0,0,0-2.879.141c-.3.091-.784.128-1.244.216a7.95,7.95,0,0,0-.921,1.545A1.241,1.241,0,0,0-113.785,172.033Z" transform="translate(121.65 -166.169)" fill="#df9876"/>
              <g id="Group_85086" data-name="Group 85086" transform="translate(7.972)">
                <path id="Path_146848" data-name="Path 146848" d="M-101.272,168.774a6.73,6.73,0,0,0-5.21-2.638,9.329,9.329,0,0,0-5.463,2.234,5.218,5.218,0,0,0-1.732,3.28,2.478,2.478,0,0,1,2.062-.339c3.461.521,5.333,1.558,5.2,3.653-.063,1.057-.037,2.117-.138,3.171-.011.114-.018.23-.026.346a4.74,4.74,0,0,0,.614-.067.716.716,0,0,1,.326.01,1.869,1.869,0,0,1,.067-.29,15.465,15.465,0,0,1,.678-1.474,3.049,3.049,0,0,1,.736-1,.9.9,0,0,1,1.36.3,2.088,2.088,0,0,1,0,1.469,3.416,3.416,0,0,1-.62.914,5.462,5.462,0,0,0-1.405,2.606c-.016.1.006.52-.053.577a10.143,10.143,0,0,0,.971-.545,7.782,7.782,0,0,0,2.9-3.413,11.139,11.139,0,0,0,.954-3.353C-99.861,172.464-100.082,170.158-101.272,168.774Z" transform="translate(113.677 -166.136)" fill="#4f2900"/>
                <path id="Path_146849" data-name="Path 146849" d="M-107.821,167.083a12.641,12.641,0,0,0-2.2.409c-.2.052-.4.1-.6.156-.168.044-.338.092-.505.149a8.556,8.556,0,0,1,4.661-1.66,6.73,6.73,0,0,1,5.209,2.638c1.19,1.384,1.411,3.69,1.23,5.436a11.137,11.137,0,0,1-.954,3.354,7.856,7.856,0,0,1-2.217,2.9c.074-.167.148-.326.205-.467.331-.816.618-1.656.87-2.5a17.265,17.265,0,0,0,.685-4.473,6.092,6.092,0,0,0-4.313-5.685A4.845,4.845,0,0,0-107.821,167.083Z" transform="translate(113.654 -166.136)" fill="#422200"/>
              </g>
            </g>
          </g>
          <g id="Group_85090" data-name="Group 85090" transform="translate(20.921 21.889)">
            <g id="Group_85089" data-name="Group 85089">
              <path id="Path_146850" data-name="Path 146850" d="M-97.529,205.9a63.85,63.85,0,0,1,.415-9.738c.422-2.324,1.057-8.566-4.553-7.177-.32.526-.613,1.071-.894,1.62a20.262,20.262,0,0,0-1.5,3.6,12.363,12.363,0,0,0-.36,3.466c0,1.187.019,2.4.1,3.568a12.6,12.6,0,0,0,.533,2.616c.212.728.527,1.424.723,2.158.09.34.109.69.2,1.023a4.625,4.625,0,0,1,.2,1.174,5.7,5.7,0,0,1-.242,1.53c-.128.477-.2.942-.286,1.43-.185,1.039-.465,2.058-.7,3.086-.169.747-.354,1.515-.515,2.251-.3,1.37-.6,2.75-1.01,4.09a.125.125,0,0,0,.04.118,3.518,3.518,0,0,1-.4.752.979.979,0,0,1-.385.358,1.474,1.474,0,0,1-.349.064,1.365,1.365,0,0,0-.59.258c-.268.191-.505.443-.785.618-.161.1-1.082.583-.793.869.462.458,1.259-.668,1.7-.258.3.278-.142.831-.37,1.01a2.639,2.639,0,0,1-.66.286c-.076.033-.175.123-.242.142-.092.027-.2-.048-.283.013s-.048.255-.151.319a2.286,2.286,0,0,0,1.824.754c.344-.079.7-.127,1.043-.182s.683-.223,1.034-.307a1.78,1.78,0,0,0,.2-.053c.432-.155.758-.683,1.036-1.019a2.334,2.334,0,0,0,.535-.945c.092-.359.136-.712.2-1.076a7.367,7.367,0,0,1,.679-2.171,60.734,60.734,0,0,0,4.031-8.175A28.766,28.766,0,0,0-97.529,205.9Z" transform="translate(108.736 -188.226)" fill="#f1bc95"/>
              <path id="Path_146851" data-name="Path 146851" d="M-97.6,199.661c.014-.131.028-.24.042-.376.269-2.583,1.045-5.3.612-7.91a3.779,3.779,0,0,0-3.334-3.142c-2.849-.25-3.848,3.518-4.379,5.551a8.2,8.2,0,0,0-.163.878,16.378,16.378,0,0,0-.311,4.271,4.84,4.84,0,0,0,.134.647A9.455,9.455,0,0,0-97.6,199.661Z" transform="translate(108.705 -188.221)" fill="#51c0ec"/>
              <path id="Path_146852" data-name="Path 146852" d="M-99.363,190.159l-.178,10.044a15.968,15.968,0,0,0,2.713-.807c.13-1.047.257-2.093.347-3.144a13.927,13.927,0,0,0-.343-4.9,3.839,3.839,0,0,0-3.447-3.121A4.411,4.411,0,0,1-99.363,190.159Z" transform="translate(108.661 -188.221)" fill="#d1b144"/>
            </g>
          </g>
        </g>
        <g id="Group_85094" data-name="Group 85094" transform="translate(13.365 24.465)">
          <g id="Group_85093" data-name="Group 85093">
            <path id="Path_146853" data-name="Path 146853" d="M-116.134,192.508a6.461,6.461,0,0,0,1.24,5.719c1.259,1.4,2.744,1.1,3.318-.656a6.463,6.463,0,0,0-1.24-5.72C-114.074,190.454-115.56,190.748-116.134,192.508Z" transform="translate(116.36 -190.821)" fill="#f4b670"/>
            <path id="Path_146854" data-name="Path 146854" d="M-115.6,192.979a5.228,5.228,0,0,0,1,4.626c1.018,1.131,2.219.893,2.684-.531a5.225,5.225,0,0,0-1-4.626C-113.932,191.317-115.133,191.555-115.6,192.979Z" transform="translate(116.355 -190.828)" fill="#ffca9c"/>
            <g id="Group_85092" data-name="Group 85092" transform="translate(1.611)">
              <path id="Path_146855" data-name="Path 146855" d="M-112.114,198.665l.633-.134a1.83,1.83,0,0,1-.926.5v0l-.522.11A1.548,1.548,0,0,0-112.114,198.665Z" transform="translate(114.719 -190.888)" fill="#d16e43"/>
              <path id="Path_146856" data-name="Path 146856" d="M-111.749,198.138l.689-.146a2.409,2.409,0,0,1-.413.534l-.633.134A2.214,2.214,0,0,0-111.749,198.138Z" transform="translate(114.712 -190.883)" fill="#eb947a"/>
              <path id="Path_146857" data-name="Path 146857" d="M-111.532,197.62l.7-.149,0,.009a2.656,2.656,0,0,1-.227.507l-.689.146a3.175,3.175,0,0,0,.212-.5Z" transform="translate(114.708 -190.879)" fill="#d16e43"/>
              <path id="Path_146858" data-name="Path 146858" d="M-111.385,197.026l.7-.149a4.087,4.087,0,0,1-.145.589l-.7.149A4.152,4.152,0,0,0-111.385,197.026Z" transform="translate(114.707 -190.873)" fill="#eb947a"/>
              <path id="Path_146859" data-name="Path 146859" d="M-111.309,196.3l.7-.149a5.058,5.058,0,0,1-.073.715l-.7.149A5.381,5.381,0,0,0-111.309,196.3Z" transform="translate(114.705 -190.867)" fill="#d16e43"/>
              <path id="Path_146860" data-name="Path 146860" d="M-111.32,195.6l.7-.15a6.1,6.1,0,0,1,.01.7l-.7.149A6.309,6.309,0,0,0-111.32,195.6Z" transform="translate(114.705 -190.861)" fill="#eb947a"/>
              <path id="Path_146861" data-name="Path 146861" d="M-111.4,194.914l.7-.149a6.356,6.356,0,0,1,.084.681l-.7.15A6.372,6.372,0,0,0-111.4,194.914Z" transform="translate(114.705 -190.855)" fill="#d16e43"/>
              <path id="Path_146862" data-name="Path 146862" d="M-111.553,194.24l.7-.149c.058.22.109.443.147.668l-.7.149C-111.446,194.683-111.495,194.461-111.553,194.24Z" transform="translate(114.707 -190.849)" fill="#eb947a"/>
              <path id="Path_146863" data-name="Path 146863" d="M-114.735,191l.743-.158v0a1.586,1.586,0,0,1,.906.115l-.706.15A1.569,1.569,0,0,0-114.735,191Z" transform="translate(114.735 -190.82)" fill="#d16e43"/>
              <path id="Path_146864" data-name="Path 146864" d="M-113.783,191.109l.706-.15a2.457,2.457,0,0,1,.551.33l-.707.15A2.4,2.4,0,0,0-113.783,191.109Z" transform="translate(114.727 -190.821)" fill="#eb947a"/>
              <path id="Path_146865" data-name="Path 146865" d="M-113.228,191.442l.707-.15a3.53,3.53,0,0,1,.409.382l-.707.15A3.1,3.1,0,0,0-113.228,191.442Z" transform="translate(114.722 -190.824)" fill="#d16e43"/>
              <path id="Path_146866" data-name="Path 146866" d="M-112.815,191.827l.707-.15.029.032a3.9,3.9,0,0,1,.35.446l-.7.149a4.233,4.233,0,0,0-.352-.445C-112.8,191.846-112.805,191.837-112.815,191.827Z" transform="translate(114.718 -190.827)" fill="#eb947a"/>
              <path id="Path_146867" data-name="Path 146867" d="M-112.43,192.308l.7-.149a5.272,5.272,0,0,1,.373.62l-.706.15A5.272,5.272,0,0,0-112.43,192.308Z" transform="translate(114.715 -190.832)" fill="#d16e43"/>
              <path id="Path_146868" data-name="Path 146868" d="M-112.056,192.935l.706-.15a6.108,6.108,0,0,1,.282.64l-.7.149A5.635,5.635,0,0,0-112.056,192.935Z" transform="translate(114.711 -190.837)" fill="#eb947a"/>
              <path id="Path_146869" data-name="Path 146869" d="M-111.769,193.58l.7-.149a6.729,6.729,0,0,1,.214.654l-.7.149A6.821,6.821,0,0,0-111.769,193.58Z" transform="translate(114.709 -190.843)" fill="#d16e43"/>
            </g>
            <path id="Path_146870" data-name="Path 146870" d="M-114.6,197.6a5.228,5.228,0,0,1-1-4.626c.316-.97.975-1.389,1.684-1.2-.8-.32-1.561.1-1.914,1.175a5.384,5.384,0,0,0,1.033,4.764c.789.876,1.685.954,2.284.315C-113.089,198.513-113.887,198.392-114.6,197.6Z" transform="translate(116.357 -190.827)" fill="#d16e43"/>
          </g>
        </g>
        <path id="Path_146871" data-name="Path 146871" d="M-112.815,191.007l6.658-6.5s2.041-1.726,2.022-2.193l-.02-.467,1.325,1.788a44.246,44.246,0,0,1-9.444,8.01C-112.784,191.77-112.815,191.007-112.815,191.007Z" transform="translate(129.694 -166.275)" fill="#ff2c38"/>
        <path id="Path_146872" data-name="Path 146872" d="M-112.156,190.374l.611-4.777v-1.829l-.731-.191a57.4,57.4,0,0,0-.951,7.556l.637.468Z" transform="translate(129.698 -166.291)" fill="#ff2c38"/>
      </g>
      <g id="Group_85096" data-name="Group 85096" transform="translate(31.413 94.665)">
        <path id="Path_146873" data-name="Path 146873" d="M-70.72,285.8v20.694l-27.431-15.806V269.992Z" transform="translate(98.151 -261.722)" fill="#ababab"/>
        <path id="Path_146874" data-name="Path 146874" d="M-70.474,285.866l14.341-8.27V298.29l-14.341,8.27Z" transform="translate(97.905 -261.789)" fill="#919191"/>
        <path id="Path_146875" data-name="Path 146875" d="M-56.379,277.454-83.81,261.648l-14.341,8.27,27.431,15.806Z" transform="translate(98.151 -261.648)" fill="#e7e3e3"/>
      </g>
      <g id="Group_85097" data-name="Group 85097" transform="translate(31.413 73.971)">
        <path id="Path_146876" data-name="Path 146876" d="M-70.72,264.919v20.694l-27.431-15.806V249.113Z" transform="translate(98.151 -240.842)" fill="#ababab"/>
        <path id="Path_146877" data-name="Path 146877" d="M-70.474,264.986l14.341-8.27V277.41l-14.341,8.27Z" transform="translate(97.905 -240.91)" fill="#bdbdbd"/>
        <path id="Path_146878" data-name="Path 146878" d="M-56.379,256.575-83.81,240.768l-14.341,8.27,27.431,15.806Z" transform="translate(98.151 -240.768)" fill="#e7e3e3"/>
        <path id="Path_146879" data-name="Path 146879" d="M-90.447,246.268c.176,3.8,6.042,9.528,13.1,12.805s12.637,2.857,12.461-.937-6.043-9.527-13.1-12.8S-90.624,242.474-90.447,246.268Z" transform="translate(98.082 -240.789)" fill="#d4d0d0"/>
      </g>
      <g id="Group_85098" data-name="Group 85098" transform="translate(58.844 101.244)">
        <path id="Path_146880" data-name="Path 146880" d="M-43.043,292.436v29.921l-27.431-15.806V276.63Z" transform="translate(70.474 -268.36)" fill="#ababab"/>
        <path id="Path_146881" data-name="Path 146881" d="M-42.8,292.5l14.341-8.27v29.922l-14.341,8.27Z" transform="translate(70.229 -268.427)" fill="#bdbdbd"/>
        <path id="Path_146882" data-name="Path 146882" d="M-28.7,284.092l-27.431-15.806-14.341,8.27,27.431,15.806Z" transform="translate(70.474 -268.286)" fill="#e7e3e3"/>
        <path id="Path_146883" data-name="Path 146883" d="M-63.332,276.156c.674,3.739,10.563,10.944,17.991,13.266s9.58-1.12,8.906-4.859-7.241-8.651-14.669-10.973S-64.005,272.418-63.332,276.156Z" transform="translate(70.411 -268.322)" fill="#d4d0d0"/>
      </g>
    </g>
    <g id="Group_85102" data-name="Group 85102" transform="translate(-118.837 263.065)">
      <g id="Group_85101" data-name="Group 85101">
        <g id="Group_85100" data-name="Group 85100">
          <path id="Path_146884" data-name="Path 146884" d="M-118.739,272.741v-8.769l1.7.982v8.769Z" transform="translate(118.739 -263.972)" fill="#4a4a4a"/>
          <path id="Path_146885" data-name="Path 146885" d="M-115.152,274.818v-8.769l1.7.982V275.8Z" transform="translate(118.707 -263.99)" fill="#4a4a4a"/>
          <path id="Path_146886" data-name="Path 146886" d="M-111.564,276.895v-8.768l1.7.981v8.769Z" transform="translate(118.675 -264.009)" fill="#4a4a4a"/>
        </g>
      </g>
    </g>
    <g id="Group_85105" data-name="Group 85105" transform="translate(-61.056 290.414)">
      <g id="Group_85104" data-name="Group 85104">
        <g id="Group_85103" data-name="Group 85103">
          <path id="Path_146887" data-name="Path 146887" d="M-60.441,300.335v-8.769l1.7.982v8.768Z" transform="translate(60.441 -291.566)" fill="#4a4a4a"/>
          <path id="Path_146888" data-name="Path 146888" d="M-56.854,302.412v-8.769l1.7.982v8.769Z" transform="translate(60.409 -291.584)" fill="#4a4a4a"/>
        </g>
      </g>
    </g>
    <g id="Group_85108" data-name="Group 85108" transform="translate(-85.432 262)">
      <g id="Group_85107" data-name="Group 85107">
        <g id="Group_85106" data-name="Group 85106">
          <path id="Path_146889" data-name="Path 146889" d="M-85.035,271.667V262.9l1.7.981v8.769Z" transform="translate(85.035 -262.898)" fill="#4a4a4a"/>
        </g>
      </g>
    </g>
    <g id="Group_85128" data-name="Group 85128" transform="translate(-103.733 161.658)">
      <g id="Group_85119" data-name="Group 85119" transform="translate(0.912)">
        <path id="Path_146890" data-name="Path 146890" d="M-98.763,196.208c.476-.007,1.411.053,2.022.1.124-.052.242-.1.371-.149a24.7,24.7,0,0,0,5.569-3.328,2.093,2.093,0,0,0,1.139-1.95c.114-1.286.247-2.567.445-3.845a12.449,12.449,0,0,1,2.1,5.84c.1.584.371,1.521.056,2.078-.638,1.133-3.542,2.024-4.691,2.555-1.087.5-2.28.608-3.116,1.589-.041.048-.081.1-.121.151l.034.083s-.083.057-.224.152a3.653,3.653,0,0,1-1.074,1.028,2.055,2.055,0,0,1-1.306.412,10.478,10.478,0,0,1-2.72.973c-.677.207-.513.443-1.689-.564s-.3-1.333-.3-1.333l-.2-.456a.815.815,0,0,1-.03-.479c.031-.159.15-.3.157-.46a.842.842,0,0,0-.083-.3.806.806,0,0,1,.256-.867,2.035,2.035,0,0,1,.908-.286,3.464,3.464,0,0,0,.571-.161.282.282,0,0,0,.151-.1c.1-.157-.632-.437-.617-.742C-101.126,195.508-99.5,196.22-98.763,196.208Z" transform="translate(102.579 -161.883)" fill="#f1bc95"/>
        <path id="Path_146891" data-name="Path 146891" d="M-82.5,184.462c.169-.35,2.666-5.914,1.205-5.909,0,0-2.176-1.752-4.138-.773s-2.2,2.211-3.266,5.17c-.279.78-.451,1.619-.692,2.419a4.51,4.51,0,0,0,.06,3.485q.739,2.006,1.575,3.973c1.008-.2.96-2.595,1.511-3.446a16.228,16.228,0,0,1,1.161-1.321A18.679,18.679,0,0,0-82.5,184.462Z" transform="translate(102.465 -161.798)" fill="#d9e5ec"/>
        <g id="Group_85118" data-name="Group 85118" transform="translate(11.03)">
          <g id="Group_85109" data-name="Group 85109" transform="translate(0 78.906)">
            <path id="Path_146892" data-name="Path 146892" d="M-79.024,242.87c.075.209.147.421.227.629a2.165,2.165,0,0,1,.205,1.182,8.765,8.765,0,0,0-.134,1.616l-2.9,1.185-1.231-.106c-.071-.006-.4.372-.457.421a7.816,7.816,0,0,1-1.3.885,7.767,7.767,0,0,1-1.946.69,10.365,10.365,0,0,1-2.651.12,1.849,1.849,0,0,1-.533-.054,3.439,3.439,0,0,1-1.531-1.136,1.631,1.631,0,0,1,.36-1.891,10.938,10.938,0,0,1,4.481-2.521l1.078-2.621c-.006.06,2.026.542,2.161.579a4.079,4.079,0,0,0,1.775.329,5.222,5.222,0,0,1,1.957-.031.292.292,0,0,1,.121.041.294.294,0,0,1,.083.117C-79.167,242.489-79.094,242.679-79.024,242.87Z" transform="translate(91.45 -241.27)" fill="#d61515"/>
          </g>
          <g id="Group_85110" data-name="Group 85110" transform="translate(0.523 79.14)">
            <path id="Path_146893" data-name="Path 146893" d="M-90.715,246.209c-.5.477-.007,1.061.478,1.285a1.953,1.953,0,0,0,.833.129,8.889,8.889,0,0,0,1.921-.231,8.124,8.124,0,0,0,1.509-.406,7.626,7.626,0,0,0,1.239-.516c.406-.274.493-.809.737-1.2.215-.347.559-.6.765-.948.12-.205.263-.762-.017-.874a6.879,6.879,0,0,1-2.194-1.942l-.981,2.387c-.027.065-.511.164-.579.187a13.64,13.64,0,0,0-1.371.565,9.967,9.967,0,0,0-1.614.947A7.552,7.552,0,0,0-90.715,246.209Z" transform="translate(90.923 -241.506)" fill="#e85238"/>
          </g>
          <g id="Group_85111" data-name="Group 85111" transform="translate(18.621 87.924)">
            <path id="Path_146894" data-name="Path 146894" d="M-72.456,258.315a9.234,9.234,0,0,1,.566-1.439l1.194-2.6a11.32,11.32,0,0,0,.5-3.237.587.587,0,0,1,.057-.214c.236-.428,1.347-.466,1.769-.456a14.28,14.28,0,0,1,1.646.1,6.279,6.279,0,0,1,1.994.6c.916.474.767,1.211.712,2.11a6.694,6.694,0,0,1-.177,1.363,7.142,7.142,0,0,1-.792,1.773l-.239,0c.021,0-.15,1.189-.163,1.278a5.82,5.82,0,0,1-.566,1.827,7.608,7.608,0,0,1-.819,1.272,5.545,5.545,0,0,1-2.364,2.026,2.833,2.833,0,0,1-.607.146,3.409,3.409,0,0,1-1.056-.064,2.52,2.52,0,0,1-1.492-.685,3.058,3.058,0,0,1-.353-1.732A6.074,6.074,0,0,1-72.456,258.315Z" transform="translate(72.663 -250.369)" fill="#d61515"/>
          </g>
          <path id="Path_146895" data-name="Path 146895" d="M-67.974,251.726a2.5,2.5,0,0,0-1.133-.31c-.354.019-.463.2-.624.493a5.235,5.235,0,0,0-.422,1.96,9.577,9.577,0,0,1-.383,1.583c-.217.736-.692,1.447-.929,2.157a5.372,5.372,0,0,0-.42,2.785.77.77,0,0,0,.1.241c.186.278.828.428,1.138.49a3.247,3.247,0,0,0,.714.051c.128,0,.621.026.708-.064a17.716,17.716,0,0,0,1.628-1.883,14.668,14.668,0,0,0,1.083-2.187,8.467,8.467,0,0,0,.493-2.224,3.83,3.83,0,0,0,.042-1.882,1.08,1.08,0,0,0-.744-.778c-.166-.05-.337-.034-.5-.081A5.727,5.727,0,0,1-67.974,251.726Z" transform="translate(91.277 -162.454)" fill="#e85238"/>
          <path id="Path_146896" data-name="Path 146896" d="M-80.653,214.517s2.751,5.38,2.4,9.464-.257,4.479.495,6.215S-80.2,242.6-80.2,242.6a3.508,3.508,0,0,1-3.678-1c-.472-.595-1.034-3.94-.984-5.747.052-1.859.221-3.715.209-5.576a7.713,7.713,0,0,0-.725-3.606,26.08,26.08,0,0,1-2.307-8.13,42.132,42.132,0,0,1,.306-11.032Z" transform="translate(91.419 -162.065)" fill="#df9876"/>
          <path id="Path_146897" data-name="Path 146897" d="M-80.115,227.07a21.833,21.833,0,0,0,.586,3.073,10.3,10.3,0,0,1,.13,2.79A23.863,23.863,0,0,1-79.638,236a59.808,59.808,0,0,1-1.266,6.07,5.634,5.634,0,0,1-.222.737,3.918,3.918,0,0,1-2.994-1.045,24.748,24.748,0,0,1-.743-5.906c-.06-1.859.221-3.715.209-5.576a7.713,7.713,0,0,0-.725-3.606,26.08,26.08,0,0,1-2.307-8.13,42.132,42.132,0,0,1,.306-11.032l1.436,1.5A22.6,22.6,0,0,0-83,212.875c.753.661,1.66,1.134,2.379,1.831.064.061.094.13.151.192.163.344.414.9.7,1.615.073,1.242-.616,2.336-.723,3.579a13.426,13.426,0,0,0,.021,1.936q.077,1.3.154,2.606C-80.27,225.447-80.222,226.262-80.115,227.07Z" transform="translate(91.419 -162.065)" fill="#f1bc95"/>
          <path id="Path_146898" data-name="Path 146898" d="M-64.879,251.328s1.692-11.162.169-14.379-2.329-4.315-2.27-6.5-2.94-10.669-2.94-10.669a12.166,12.166,0,0,0-.257-7.481c-1.5-3.472-2.467-4.2-2.467-4.2s-2.739,1.951-8.83-.5-5.884-3.335-5.884-3.335-1.315,6.316,1.557,10.293,5.509,4.717,5.509,4.717,2.783,9.5,5.295,13.186c1.111,1.631,1.433,3.747,2.049,5.648.647,2,2.485,10.117,3.128,12.661C-69.821,250.772-68.993,254.317-64.879,251.328Z" transform="translate(91.417 -162.036)" fill="#f1bc95"/>
          <path id="Path_146899" data-name="Path 146899" d="M-73.106,211.078a12.743,12.743,0,0,0-1.426-2.29,4.951,4.951,0,0,0,2.005-.649s.966.726,2.467,4.2a12.166,12.166,0,0,1,.257,7.481s3,8.487,2.94,10.669.746,3.279,2.27,6.5-.168,14.379-.168,14.379c-.584.424-.292.332-.811.53a9.168,9.168,0,0,1,.389-2.323,42.361,42.361,0,0,0,.256-4.47,18.731,18.731,0,0,0-1.785-8.487c-.617-1.213-1.013-2.583-1.524-3.857-.313-.781-.627-1.564-.872-2.369-.859-2.827-.869-5.834-1.922-8.611a15.1,15.1,0,0,1-.874-2.868C-72.342,216.267-71.961,213.577-73.106,211.078Z" transform="translate(91.3 -162.07)" fill="#df9876"/>
          <path id="Path_146900" data-name="Path 146900" d="M-87.652,205.838s-.845,8.041-.6,10.649a21.375,21.375,0,0,0,.965,4.62,13.479,13.479,0,0,0,5.146,1.286l2.853.1.755,2.185s.718,1.105,4.521.988,5.347-2.076,5.347-2.076l-.844-4.065a13.056,13.056,0,0,0-.175-6.315,32.952,32.952,0,0,0-2.281-5.093Z" transform="translate(91.422 -162.05)" fill="#3b79ca"/>
          <path id="Path_146901" data-name="Path 146901" d="M-73.954,225.682c3.8-.118,5.347-2.076,5.347-2.076l-.844-4.065a13.056,13.056,0,0,0-.175-6.315,32.952,32.952,0,0,0-2.281-5.093l-5.356-.778-4.922.339a27.011,27.011,0,0,0,0,5.649c.306,3.552,1.666,4.518,1.842,5.176s1.114,3.99,1.114,3.99l.755,2.185S-77.757,225.8-73.954,225.682Z" transform="translate(91.369 -162.063)" fill="#3f80d6"/>
          <path id="Path_146902" data-name="Path 146902" d="M-87.61,180.039a4.251,4.251,0,0,1,1.448-2.52,3.584,3.584,0,0,1,3.471-.559c.467.11.7.743.764,1.713a13.781,13.781,0,0,1-2.76-.164,3.81,3.81,0,0,0-2.534,1.118C-87.365,179.751-87.476,179.906-87.61,180.039Z" transform="translate(91.416 -161.792)" fill="#d3dfe6"/>
          <path id="Path_146903" data-name="Path 146903" d="M-89.269,192.106a58.7,58.7,0,0,0,1.609,13.469s3.5,5.919,16.007,2.494c0,0-1.135-6.829-.453-8.113.7-1.3,5.165-6.221,5.428-9.285s1.066-5.586-1.883-8.247A55.669,55.669,0,0,0-73,178.647a17.3,17.3,0,0,0-3.451-2.025,6.319,6.319,0,0,0-3.719-.181c-2.152.432-4.255,1.563-4.977,2.612C-86.331,180.74-89.36,184.2-89.269,192.106Z" transform="translate(91.431 -161.787)" fill="#f1faff"/>
          <path id="Path_146904" data-name="Path 146904" d="M-80.133,176.44a6.319,6.319,0,0,1,3.719.181,17.3,17.3,0,0,1,3.451,2.025,55.669,55.669,0,0,1,4.443,3.777c2.95,2.661,2.146,5.184,1.883,8.247s-4.731,7.988-5.428,9.285c-.682,1.285.453,8.113.453,8.113a31.486,31.486,0,0,1-3.753.788c-.106.016.189-3.517.209-3.749.287-3.33.367-7.225,1.83-10.294a14.415,14.415,0,0,1,2.842-3.762,4.91,4.91,0,0,0,1.057-2.167,15.607,15.607,0,0,0,.631-2.536,2.513,2.513,0,0,0-.047-1.114,2.855,2.855,0,0,0-.6-.926c-1.15-1.335-2.6-3.091-4.211-3.856a19.842,19.842,0,0,0-5.358-1.483,31.875,31.875,0,0,0-5.581-.477A10.1,10.1,0,0,1-80.133,176.44Z" transform="translate(91.389 -161.787)" fill="#bcc9d1" style="mix-blend-mode: multiply;isolation: isolate"/>
          <path id="Path_146905" data-name="Path 146905" d="M-82.381,181.668a2.115,2.115,0,0,0,3.209,2.255c.788-.5,1.656-1.091,2.546-1.766,3.187-2.425,3.681-3.51,3.681-3.51a17.3,17.3,0,0,0-3.451-2.025,6.319,6.319,0,0,0-3.719-.181,27.349,27.349,0,0,0-2.25,5.161Z" transform="translate(91.37 -161.787)" fill="#d18d6d"/>
          <path id="Path_146906" data-name="Path 146906" d="M-76.915,181.67a9.42,9.42,0,0,0,.232-2.625c-.045-.806-.2-1.606-.191-2.413,0-.057.015-.11.019-.167a4,4,0,0,1,.505.158,17.3,17.3,0,0,1,3.451,2.025s-.495,1.083-3.681,3.51c-.252.191-.5.36-.742.536A10.5,10.5,0,0,0-76.915,181.67Z" transform="translate(91.325 -161.789)" fill="#c77752"/>
          <path id="Path_146907" data-name="Path 146907" d="M-73.941,175.543l.1,2.453a10.962,10.962,0,0,1-4.155,2.717c-2.536.891-3.255.284-3.255.284l-.17-5.3S-74.657,172.67-73.941,175.543Z" transform="translate(91.361 -161.77)" fill="#deb08a"/>
          <g id="Group_85116" data-name="Group 85116" transform="translate(5.325 24.423)">
            <g id="Group_85113" data-name="Group 85113">
              <path id="Path_146908" data-name="Path 146908" d="M-85.851,187.988a6.461,6.461,0,0,0,1.24,5.719c1.259,1.4,2.744,1.1,3.318-.657a6.462,6.462,0,0,0-1.24-5.719C-83.791,185.934-85.277,186.227-85.851,187.988Z" transform="translate(86.077 -186.301)" fill="#f1c200"/>
              <path id="Path_146909" data-name="Path 146909" d="M-85.315,188.459a5.228,5.228,0,0,0,1,4.626c1.018,1.13,2.219.892,2.684-.531a5.224,5.224,0,0,0-1-4.626C-83.649,186.8-84.85,187.035-85.315,188.459Z" transform="translate(86.072 -186.307)" fill="#ffb13e"/>
              <g id="Group_85112" data-name="Group 85112" transform="translate(1.61)">
                <path id="Path_146910" data-name="Path 146910" d="M-81.831,194.145l.633-.134a1.831,1.831,0,0,1-.926.5v0l-.522.11A1.554,1.554,0,0,0-81.831,194.145Z" transform="translate(84.437 -186.368)" fill="#c76a00"/>
                <path id="Path_146911" data-name="Path 146911" d="M-81.466,193.618l.689-.146a2.41,2.41,0,0,1-.413.534l-.633.134A2.265,2.265,0,0,0-81.466,193.618Z" transform="translate(84.43 -186.363)" fill="#e68600"/>
                <path id="Path_146912" data-name="Path 146912" d="M-81.249,193.1l.7-.149,0,.008a2.638,2.638,0,0,1-.227.508l-.689.146a3.214,3.214,0,0,0,.212-.5Z" transform="translate(84.426 -186.358)" fill="#c76a00"/>
                <path id="Path_146913" data-name="Path 146913" d="M-81.1,192.506l.7-.149a4.089,4.089,0,0,1-.145.589l-.7.149A4.153,4.153,0,0,0-81.1,192.506Z" transform="translate(84.425 -186.353)" fill="#e68600"/>
                <path id="Path_146914" data-name="Path 146914" d="M-81.026,191.785l.7-.149a5.057,5.057,0,0,1-.073.715l-.7.149A5.384,5.384,0,0,0-81.026,191.785Z" transform="translate(84.423 -186.347)" fill="#c76a00"/>
                <path id="Path_146915" data-name="Path 146915" d="M-81.037,191.081l.7-.149a6.326,6.326,0,0,1,.01.7l-.7.149A6.321,6.321,0,0,0-81.037,191.081Z" transform="translate(84.423 -186.34)" fill="#e68600"/>
                <path id="Path_146916" data-name="Path 146916" d="M-81.122,190.394l.7-.149a6.354,6.354,0,0,1,.084.681l-.7.149A6.352,6.352,0,0,0-81.122,190.394Z" transform="translate(84.423 -186.334)" fill="#c76a00"/>
                <path id="Path_146917" data-name="Path 146917" d="M-81.27,189.72l.7-.149c.058.22.109.443.147.668l-.7.149Q-81.183,190.05-81.27,189.72Z" transform="translate(84.425 -186.328)" fill="#e68600"/>
                <path id="Path_146918" data-name="Path 146918" d="M-84.453,186.478l.744-.158v0a1.578,1.578,0,0,1,.906.115l-.706.15A1.571,1.571,0,0,0-84.453,186.478Z" transform="translate(84.453 -186.299)" fill="#c76a00"/>
                <path id="Path_146919" data-name="Path 146919" d="M-83.5,186.589l.706-.15a2.457,2.457,0,0,1,.551.33l-.708.15A2.37,2.37,0,0,0-83.5,186.589Z" transform="translate(84.445 -186.301)" fill="#e68600"/>
                <path id="Path_146920" data-name="Path 146920" d="M-82.946,186.922l.708-.15a3.446,3.446,0,0,1,.409.382l-.707.15A3.044,3.044,0,0,0-82.946,186.922Z" transform="translate(84.44 -186.303)" fill="#c76a00"/>
                <path id="Path_146921" data-name="Path 146921" d="M-82.532,187.307l.707-.15.029.032a3.9,3.9,0,0,1,.35.446l-.7.149a4.235,4.235,0,0,0-.352-.445C-82.512,187.326-82.522,187.317-82.532,187.307Z" transform="translate(84.436 -186.307)" fill="#e68600"/>
                <path id="Path_146922" data-name="Path 146922" d="M-82.147,187.788l.7-.149a5.274,5.274,0,0,1,.373.62l-.706.15A5.273,5.273,0,0,0-82.147,187.788Z" transform="translate(84.433 -186.311)" fill="#c76a00"/>
                <path id="Path_146923" data-name="Path 146923" d="M-81.773,188.415l.706-.15a6.108,6.108,0,0,1,.282.64l-.7.149A5.636,5.636,0,0,0-81.773,188.415Z" transform="translate(84.429 -186.317)" fill="#e68600"/>
                <path id="Path_146924" data-name="Path 146924" d="M-81.486,189.06l.7-.149a6.729,6.729,0,0,1,.214.654l-.7.149A6.732,6.732,0,0,0-81.486,189.06Z" transform="translate(84.427 -186.322)" fill="#c76a00"/>
              </g>
              <path id="Path_146925" data-name="Path 146925" d="M-84.314,193.084a5.228,5.228,0,0,1-1-4.626c.316-.97.975-1.389,1.684-1.2-.8-.32-1.561.094-1.914,1.175a5.381,5.381,0,0,0,1.033,4.764c.789.876,1.685.954,2.284.315C-82.806,193.993-83.6,193.872-84.314,193.084Z" transform="translate(86.074 -186.307)" fill="#c76a00"/>
            </g>
            <g id="Group_85114" data-name="Group 85114" transform="translate(1.507 2.128)">
              <path id="Path_146926" data-name="Path 146926" d="M-84.557,188.507l.474-.061.953.151.478.289-.624,3.8-.474.061.255-3.584Z" transform="translate(84.557 -188.446)" fill="#c76a00"/>
            </g>
            <g id="Group_85115" data-name="Group 85115" transform="translate(1.453 2.189)">
              <path id="Path_146927" data-name="Path 146927" d="M-84.611,188.835l.054-.327.953.151.478.289-.624,3.8-.727-.441.507-3.082Z" transform="translate(84.611 -188.508)" fill="#f1c200"/>
            </g>
          </g>
          <path id="Path_146928" data-name="Path 146928" d="M-82.532,186.486l6.658-6.5s2.041-1.727,2.022-2.193l-.02-.467,1.325,1.788a44.247,44.247,0,0,1-9.444,8.01C-82.5,187.25-82.532,186.486-82.532,186.486Z" transform="translate(91.371 -161.797)" fill="#ff2c38"/>
          <path id="Path_146929" data-name="Path 146929" d="M-81.873,185.854l.611-4.777v-1.83l-.731-.19a57.315,57.315,0,0,0-.952,7.556l.638.468Z" transform="translate(91.375 -161.812)" fill="#ff2c38"/>
          <path id="Path_146930" data-name="Path 146930" d="M-73.9,175.543l.1,2.453a11.232,11.232,0,0,1-2.9,2.162,9.172,9.172,0,0,0,.021-1.131c-.045-.806-.2-1.606-.191-2.413a8.42,8.42,0,0,1,.546-2.3C-75.143,174.262-74.15,174.539-73.9,175.543Z" transform="translate(91.321 -161.77)" fill="#d18d6d"/>
          <path id="Path_146931" data-name="Path 146931" d="M-84.579,175.3c-.341,1.583.9,2.564,2.955,2.913a8.024,8.024,0,0,0,3.174-.309q.581-.169,1-.31l.244-.092a1.34,1.34,0,0,1,.2-.077c.168-.076.271-.114.271-.114,6.909-3.333,4.112-5.063,4.021-7.783a2.447,2.447,0,0,0-.087-.629,2.783,2.783,0,0,0-.145-.5,8.682,8.682,0,0,0-5.151-4.928,3.736,3.736,0,0,0-3.267,1.043,7.92,7.92,0,0,0-1.218,1.323,1.169,1.169,0,0,0-.129.212C-83.672,167.766-84.256,173.791-84.579,175.3Z" transform="translate(91.39 -161.673)" fill="#f0b88f"/>
          <path id="Path_146932" data-name="Path 146932" d="M-82.693,166.051c.007.02.015.041.029.047a3.013,3.013,0,0,0,.935.622,12.915,12.915,0,0,0,2.906,1.07c.438.092,1.091.1,1.416.448a2.468,2.468,0,0,1,.563,1.069,3.3,3.3,0,0,1,.044.585A6.443,6.443,0,0,1-76.923,172c-.22.676-.384,1.378-.555,2.06a7.689,7.689,0,0,0-.113,1.6,5.228,5.228,0,0,1-.843,2.251q.581-.169,1-.31a1.041,1.041,0,0,1,.244-.092,1.434,1.434,0,0,1,.2-.077c.168-.076.271-.114.271-.114,6.909-3.333,4.112-5.063,4.021-7.783a2.447,2.447,0,0,0-.087-.629,2.783,2.783,0,0,0-.145-.5,5.408,5.408,0,0,0-2.312-2.506,9.4,9.4,0,0,0-2-.881,7.957,7.957,0,0,0-2.847-.454c-.316.027-.793-.037-1.262-.045a7.92,7.92,0,0,0-1.218,1.323A1.169,1.169,0,0,0-82.693,166.051Z" transform="translate(91.372 -161.683)" fill="#df9876"/>
          <g id="Group_85117" data-name="Group 85117" transform="translate(6.737)">
            <path id="Path_146933" data-name="Path 146933" d="M-84.651,175.667a3.562,3.562,0,0,0,2.128,3.666,3.547,3.547,0,0,0,2.656-.164,5.124,5.124,0,0,0,2.1-1.482,5.749,5.749,0,0,0,.748-1.373c.191-.47.468-.906.629-1.391a4.647,4.647,0,0,1,.461-1.208,15.489,15.489,0,0,1,.966-1.3,3.039,3.039,0,0,1,.927-.83.9.9,0,0,1,1.27.575,2.09,2.09,0,0,1-.3,1.437,3.433,3.433,0,0,1-.794.767,5.446,5.446,0,0,0-1.911,2.261c-.037.094-.1.51-.17.554a9.991,9.991,0,0,0,1.062-.334,7.792,7.792,0,0,0,3.543-2.743,11.177,11.177,0,0,0,1.622-3.086c.537-1.672.794-3.974-.086-5.573a6.735,6.735,0,0,0-4.556-3.653,9.331,9.331,0,0,0-5.806,1.063,5.218,5.218,0,0,0-2.369,2.853,2.48,2.48,0,0,1,2.087.092c3.28,1.222,4.9,2.621,4.342,4.645-.279,1.02-.471,2.064-.786,3.074a4.3,4.3,0,0,1-.559,1.417,3.039,3.039,0,0,1-1.228.829,2.784,2.784,0,0,1-.9.266.64.64,0,0,1-.326-.046.812.812,0,0,1-.257-.237,5.227,5.227,0,0,0-.364-.405c-.112-.111-.207-.235-.321-.345a3.219,3.219,0,0,0-.855-.485c-.315-.163-.614-.393-.913-.586a1.012,1.012,0,0,0-.479-.179c-.169-.008-.324.066-.49.071-.392.013-.363-.507-.342-.773a2.659,2.659,0,0,0-.488,1.071A6.138,6.138,0,0,0-84.651,175.667Zm2.857-.138c.333.161,1.146.227,1.19.7a.867.867,0,0,1-.353.828,1.035,1.035,0,0,1-.741.279,1.307,1.307,0,0,1-.353-.105.5.5,0,0,1-.338-.249.455.455,0,0,1,.037-.445c.076-.109.2-.19.229-.321a.423.423,0,0,0-.19-.364,1.992,1.992,0,0,0-.392-.259c-.262-.132-.343.114-.372.336l-.033.265c-.059.473-.413-.169-.482-.289-.169-.3-.38-1.374.087-1.507a.32.32,0,0,1,.261.088l.07.053A8.647,8.647,0,0,0-81.794,175.529Z" transform="translate(84.653 -161.658)" fill="#4f2900"/>
            <path id="Path_146934" data-name="Path 146934" d="M-75.838,162.433a12.68,12.68,0,0,0-2.234-.051c-.209.009-.414.02-.615.03-.173.009-.35.022-.525.042a8.551,8.551,0,0,1,4.9-.667,6.735,6.735,0,0,1,4.556,3.653c.88,1.6.623,3.9.086,5.573a11.177,11.177,0,0,1-1.622,3.086,7.857,7.857,0,0,1-2.765,2.379c.106-.148.211-.288.3-.414.492-.73.946-1.494,1.365-2.268a17.242,17.242,0,0,0,1.59-4.237,6.09,6.09,0,0,0-3.053-6.449A4.825,4.825,0,0,0-75.838,162.433Z" transform="translate(84.604 -161.658)" fill="#422200"/>
            <path id="Path_146935" data-name="Path 146935" d="M-84.272,173.78a1.9,1.9,0,0,1,.349-.635c-.021.266-.051.786.342.773.166,0,.32-.079.49-.071a1.012,1.012,0,0,1,.479.179c.3.192.6.423.913.586a3.219,3.219,0,0,1,.855.485c.114.11.209.234.321.345a5.227,5.227,0,0,1,.364.405.812.812,0,0,0,.257.237.64.64,0,0,0,.326.046,2.784,2.784,0,0,0,.9-.266,3.039,3.039,0,0,0,1.228-.829,1.687,1.687,0,0,0,.138-.225,2.2,2.2,0,0,1-.7,1.072,2.271,2.271,0,0,1-.4.228,6.537,6.537,0,0,1-1.057.386,1.315,1.315,0,0,1-.429.061c-.184-.013-.229-.074-.327-.218q-.274-.4-.576-.787a2.248,2.248,0,0,0-.286-.319,2.523,2.523,0,0,0-.407-.274l-.886-.515a1.494,1.494,0,0,0-.986-.294,2.851,2.851,0,0,1-.325.074A.62.62,0,0,1-84.272,173.78Z" transform="translate(84.649 -161.76)" fill="#703a00"/>
            <path id="Path_146936" data-name="Path 146936" d="M-79.867,179.262a3.547,3.547,0,0,1-2.656.164,3.562,3.562,0,0,1-2.128-3.666,6.206,6.206,0,0,1,.164-1.217c-.026.22-.053.44-.065.662a2.861,2.861,0,0,0,.262,1.64,3.892,3.892,0,0,0,2.876,1.87,4.266,4.266,0,0,0,3.674-1.818,7.14,7.14,0,0,0,.488-1.191,12.8,12.8,0,0,1,.586-1.381A8.622,8.622,0,0,1-75.859,173a2.618,2.618,0,0,1,1.272-.91c-.135.135-.261.279-.377.417a15.489,15.489,0,0,0-.966,1.3,4.647,4.647,0,0,0-.461,1.208c-.162.485-.438.921-.629,1.391a5.749,5.749,0,0,1-.748,1.373A5.13,5.13,0,0,1-79.867,179.262Z" transform="translate(84.653 -161.75)" fill="#422200"/>
          </g>
        </g>
      </g>
      <g id="Group_85125" data-name="Group 85125" transform="translate(0 24.317)">
        <path id="Path_146937" data-name="Path 146937" d="M-102.4,187.792c1.683-1.385,3.4-1.083,4.959.283-.36.229-1.733,1.152-1.733,1.152-1.538-.884-2.667-1.787-3.457-1.211C-102.551,187.941-102.478,187.86-102.4,187.792Z" transform="translate(103.492 -186.199)" fill="#fecb31"/>
        <g id="Group_85120" data-name="Group 85120" transform="translate(0 1.546)">
          <path id="Path_146938" data-name="Path 146938" d="M-100.189,193.9c-.019.172-.039.339-.059.5C-100.227,194.238-100.207,194.071-100.189,193.9Z" transform="translate(103.471 -187.807)" fill="#ab5300"/>
          <path id="Path_146939" data-name="Path 146939" d="M-100.081,192.686c-.029.4-.062.778-.1,1.135C-100.143,193.465-100.11,193.084-100.081,192.686Z" transform="translate(103.47 -187.796)" fill="#ab5300"/>
          <path id="Path_146940" data-name="Path 146940" d="M-99.96,189.345q0,.3,0,.6C-99.963,189.743-99.961,189.543-99.96,189.345Z" transform="translate(103.468 -187.767)" fill="#ab5300"/>
          <path id="Path_146941" data-name="Path 146941" d="M-103.413,191.919a8.527,8.527,0,0,0,2.8,5.249c1.422,1.139,1.449-8.262,1.449-8.262s-2.759-2.205-3.81-.516A5.946,5.946,0,0,0-103.413,191.919Zm2.389-3.141a5.834,5.834,0,0,1,1.033.553,42.247,42.247,0,0,1-.285,5.015,8.3,8.3,0,0,1-.977-2.864A5.439,5.439,0,0,1-101.024,188.778Z" transform="translate(103.5 -187.753)" fill="#f59c1e"/>
          <path id="Path_146942" data-name="Path 146942" d="M-102.317,188.985c.093-.15.266-.391.525-.391a3.937,3.937,0,0,1,1.808.744,5.834,5.834,0,0,0-1.033-.553,5.439,5.439,0,0,0-.23,2.7,8.3,8.3,0,0,0,.977,2.864,8.224,8.224,0,0,1-.308,1.519,6.469,6.469,0,0,1-2.006-4.083A4.917,4.917,0,0,1-102.317,188.985Z" transform="translate(103.492 -187.76)" fill="#ab5300"/>
          <path id="Path_146943" data-name="Path 146943" d="M-99.968,190.119c0,.155-.006.309-.011.464C-99.974,190.428-99.971,190.274-99.968,190.119Z" transform="translate(103.469 -187.774)" fill="#ab5300"/>
          <path id="Path_146944" data-name="Path 146944" d="M-100.042,192.092q-.015.265-.033.523Q-100.057,192.357-100.042,192.092Z" transform="translate(103.469 -187.791)" fill="#ab5300"/>
          <path id="Path_146945" data-name="Path 146945" d="M-99.983,190.745q-.009.306-.022.61Q-99.992,191.051-99.983,190.745Z" transform="translate(103.469 -187.779)" fill="#ab5300"/>
          <path id="Path_146946" data-name="Path 146946" d="M-100.005,191.376q-.013.3-.03.589Q-100.019,191.673-100.005,191.376Z" transform="translate(103.469 -187.785)" fill="#ab5300"/>
        </g>
        <path id="Path_146947" data-name="Path 146947" d="M-98.355,210.953a7.9,7.9,0,0,1,4.511-1.243,7.9,7.9,0,0,1,4.511,1.243h1.225v1.1c0,1.789-2.568,3.24-5.736,3.24s-5.736-1.451-5.736-3.24v-1.1Z" transform="translate(103.465 -186.402)" fill="#f59c1e"/>
        <path id="Path_146948" data-name="Path 146948" d="M-99.58,210.935c0,1.789,2.568,3.239,5.736,3.239s5.736-1.45,5.736-3.239-2.568-3.239-5.736-3.239S-99.58,209.146-99.58,210.935Z" transform="translate(103.465 -186.384)" fill="#fecb31"/>
        <g id="Group_85123" data-name="Group 85123" transform="translate(6.414 18.222)">
          <g id="Group_85121" data-name="Group 85121" transform="translate(0 3.059)">
            <path id="Path_146949" data-name="Path 146949" d="M-96.343,209.485a4.421,4.421,0,0,1,2.521-.695,4.421,4.421,0,0,1,2.521.695h.685V210.6c0,1-1.435,1.811-3.206,1.811s-3.206-.811-3.206-1.811v-1.116Z" transform="translate(97.028 -207.674)" fill="#f59c1e"/>
            <path id="Path_146950" data-name="Path 146950" d="M-97.028,209.475c0,1,1.435,1.811,3.206,1.811s3.206-.811,3.206-1.811-1.435-1.811-3.206-1.811S-97.028,208.475-97.028,209.475Z" transform="translate(97.028 -207.664)" fill="#fecb31"/>
          </g>
          <g id="Group_85122" data-name="Group 85122" transform="translate(1.215)">
            <path id="Path_146951" data-name="Path 146951" d="M-95.377,205.009a2.752,2.752,0,0,1,1.566-.431,2.752,2.752,0,0,1,1.566.431h.425v4.09c0,.62-.891,1.124-1.991,1.124s-1.991-.5-1.991-1.124v-4.09Z" transform="translate(95.802 -204.578)" fill="#f59c1e"/>
          </g>
        </g>
        <path id="Path_146952" data-name="Path 146952" d="M-101.874,190.756h16.019c0,14.583-5.071,16.689-8.009,16.689S-101.874,205.164-101.874,190.756Z" transform="translate(103.485 -186.233)" fill="#febc30"/>
        <path id="Path_146953" data-name="Path 146953" d="M-95.978,207.031c-2.767-1.123-5.9-4.956-5.9-16.275h1.393a5.894,5.894,0,0,1,1.847,3.048S-98.7,205.655-95.978,207.031Z" transform="translate(103.485 -186.233)" fill="#fecb31"/>
        <path id="Path_146954" data-name="Path 146954" d="M-93.178,207.413c.7-3.293.739-12.2.739-12.2l5.951-4.458h.71C-85.778,204.373-90.2,207.111-93.178,207.413Z" transform="translate(103.408 -186.233)" fill="#e6aa2b"/>
        <path id="Path_146955" data-name="Path 146955" d="M-101.874,190.716c0,2.5,3.586,4.524,8.009,4.524s8.009-2.025,8.009-4.524-3.586-4.523-8.009-4.523S-101.874,188.218-101.874,190.716Z" transform="translate(103.485 -186.193)" fill="#ffde7a"/>
        <path id="Path_146956" data-name="Path 146956" d="M-93.858,194.551c3.965,0,7.315-1.754,7.315-3.83s-3.35-3.829-7.315-3.829-7.315,1.754-7.315,3.829S-97.824,194.551-93.858,194.551Z" transform="translate(103.479 -186.199)" fill="#e3a723"/>
        <g id="Group_85124" data-name="Group 85124" transform="translate(14.415 7.688)">
          <path id="Path_146957" data-name="Path 146957" d="M-88.766,202.031a4.089,4.089,0,0,0,1.65-.8c-.016.133,1.139.638,1.757-.881a13.748,13.748,0,0,1-.22,2.024l-1.811.49Z" transform="translate(88.954 -194.006)" fill="#fecb31"/>
          <path id="Path_146958" data-name="Path 146958" d="M-87.362,202.42c.8,0,1.391-.642,1.572-1.718a5.235,5.235,0,0,0-1.915-4.741c.032-.288.069-.56.1-.858.026.014.052.02.077.035a5.906,5.906,0,0,1,2.553,5.7c-.358,2.122-2.077,3-3.843,1.976-.048-.028-.089-.067-.136-.1.066-.233.125-.491.188-.734A4.689,4.689,0,0,0-87.362,202.42Z" transform="translate(88.956 -193.96)" fill="#f59c1e"/>
          <path id="Path_146959" data-name="Path 146959" d="M-84.965,200.829a5.906,5.906,0,0,0-2.553-5.7s1.607-.75,1.646-1.177c.027.014.052.02.077.035a5.906,5.906,0,0,1,2.553,5.7,4.626,4.626,0,0,1-3.14,3.32A2.839,2.839,0,0,0-84.965,200.829Z" transform="translate(88.943 -193.95)" fill="#fecb31"/>
        </g>
        <path id="Path_146960" data-name="Path 146960" d="M-101.168,190.678c.033-1.266,1.307-2.406,3.2-3.1.651,1.224,3.4,5.929,7.3,6.571a12.66,12.66,0,0,1-3.192.4c-3.227,0-6.046-1.162-6.984-2.714A2.481,2.481,0,0,1-101.168,190.678Z" transform="translate(103.479 -186.205)" fill="#dbb18e" style="mix-blend-mode: multiply;isolation: isolate"/>
      </g>
      <g id="Group_85127" data-name="Group 85127" transform="translate(9.026 22.263)">
        <path id="Path_146961" data-name="Path 146961" d="M-88.619,201.853a5.049,5.049,0,0,0-.917-.078c-.263-.021-.526-.037-.783-.083-.231-.042-.365.072-.535.231-.191.177-.371.4-.638.408a4,4,0,0,1-.9-.077,7.381,7.381,0,0,1-1-.276,1.283,1.283,0,0,0-.776-.139c-.253.076-.24.4-.188.619a1.17,1.17,0,0,0,.2.367c.07.114.1.25.16.369.142.263.361.475.513.731a6.031,6.031,0,0,0,.363.657c.052.066.112.127.159.2.09.139.122.308.205.453a1.337,1.337,0,0,0,.31.337,2.708,2.708,0,0,0,.858.58,3.845,3.845,0,0,0,.936.331,3.861,3.861,0,0,0,.69-.085,2.778,2.778,0,0,0,.924-.241,2.2,2.2,0,0,0,.742-.721c.022-.032.572-.734.617-.589Z" transform="translate(94.393 -184.276)" fill="#f1bc95"/>
        <path id="Path_146962" data-name="Path 146962" d="M-89.464,205.52c0,.037-.007.071-.011.105,1.538.471,4.079-.123,5.725-.192,1.943-.083,3.887-.194,5.832-.25,1.361-.039,3.188.3,4.318-.622a4.341,4.341,0,0,0,1.024-1.467c1.043-2.052,2.167-4.08,3.135-6.167.336-.724.427-1.475.729-2.2s1.364-1.844.808-2.665c-.466-.689-1.54-.392-2.212-.354a6.806,6.806,0,0,1-1.892-.393c-.669-.12-1.224.5-1.594,1.066a18.154,18.154,0,0,0-2.249,4.961c-.482,1.719-.158,2.476-2.121,3.167a65.972,65.972,0,0,1-7.04,1.61c-2.745.643-3.056-.776-4.036-.259C-89.74,202.219-89.39,204.814-89.464,205.52Z" transform="translate(94.349 -184.184)" fill="#f1bc95"/>
        <g id="Group_85126" data-name="Group 85126" transform="translate(17.883)">
          <path id="Path_146963" data-name="Path 146963" d="M-69.6,196.009c.065-.114.121-.208.188-.328,1.281-2.258,3.082-4.441,3.73-7a3.778,3.778,0,0,0-1.8-4.214c-2.51-1.371-4.935,1.681-6.236,3.33a8.352,8.352,0,0,0-.5.74,16.374,16.374,0,0,0-2,3.788,4.8,4.8,0,0,0-.137.646A9.455,9.455,0,0,0-69.6,196.009Z" transform="translate(76.35 -184.12)" fill="#d9e5ec"/>
          <path id="Path_146964" data-name="Path 146964" d="M-67.407,186.582l-4.189,9.131a16.006,16.006,0,0,0,2.809.348c.538-.907,1.074-1.815,1.578-2.741a13.948,13.948,0,0,0,1.649-4.628,3.839,3.839,0,0,0-1.908-4.24A4.4,4.4,0,0,1-67.407,186.582Z" transform="translate(76.308 -184.123)" fill="#bcc9d1"/>
        </g>
      </g>
    </g>
    <g id="Group_85137" data-name="Group 85137" transform="translate(-72.976 188.563)">
      <g id="Group_85134" data-name="Group 85134">
        <path id="Path_146965" data-name="Path 146965" d="M-61.613,225.358c4.215-6.453,6.794-18.007,4.894-18.546a3.352,3.352,0,0,0-3.265.38c-1.378,1.188-1.539,2.073-1.787,4.667s-.431,5.379-.431,5.379l-5.151,11.279c-.245.428-.489.856-.755,1.272-.314.489-.714.912-1.038,1.388-.065.1-.126.18-.189.273-.443.248-1.119.632-1.444.854l-1.688,1.048c.193.327,1.132.081,1.653-.086-.013.028-.041.046-.048.078a.733.733,0,0,0,.056.41l-1.151,2.028a.346.346,0,0,0,.125.518l.347.224s-.457.623.817.787,1.053.074,1.427-.379a8.628,8.628,0,0,0,1.442-1.913c.326-.135.478-.444.719-.88a3.043,3.043,0,0,0,.277-1.2c.055-.13.086-.207.086-.207l-.061-.043c0-.053.009-.108.016-.16a2.768,2.768,0,0,1,.171-.773c.157-.363.287-.718.434-1.085a33.394,33.394,0,0,0,4.364-5.023c.008-.012.015-.026.023-.038s.032-.034.046-.052A1.123,1.123,0,0,0-61.613,225.358Z" transform="translate(72.467 -188.961)" fill="#f1bc95"/>
        <path id="Path_146966" data-name="Path 146966" d="M-55.393,211.823c.169-.35,2.666-5.914,1.205-5.909,0,0-2.175-1.752-4.138-.773s-2.2,2.211-3.265,5.17c-.28.781-.452,1.619-.693,2.42a4.5,4.5,0,0,0,.061,3.484q.737,2.006,1.574,3.973c1.009-.2.96-2.594,1.511-3.446a16.229,16.229,0,0,1,1.161-1.321A18.649,18.649,0,0,0-55.393,211.823Z" transform="translate(72.38 -188.946)" fill="#ecc851"/>
        <g id="Group_85133" data-name="Group 85133" transform="translate(8.053)">
          <g id="Group_85129" data-name="Group 85129" transform="translate(0 79.119)">
            <path id="Path_146967" data-name="Path 146967" d="M-51.916,270.231c.076.21.147.421.227.629a2.166,2.166,0,0,1,.206,1.182,8.723,8.723,0,0,0-.135,1.616l-2.9,1.185-1.232-.106c-.071-.006-.4.373-.457.421a7.817,7.817,0,0,1-1.3.885,7.753,7.753,0,0,1-1.946.69,10.411,10.411,0,0,1-2.651.121,1.849,1.849,0,0,1-.533-.055,3.439,3.439,0,0,1-1.531-1.136,1.631,1.631,0,0,1,.36-1.891,10.938,10.938,0,0,1,4.481-2.521l1.078-2.621c0,.06,2.026.543,2.161.579a4.083,4.083,0,0,0,1.776.329,5.217,5.217,0,0,1,1.956-.031.288.288,0,0,1,.121.041.284.284,0,0,1,.083.117A5.777,5.777,0,0,1-51.916,270.231Z" transform="translate(64.342 -268.631)" fill="#6da32f"/>
          </g>
          <g id="Group_85130" data-name="Group 85130" transform="translate(0.523 79.353)">
            <path id="Path_146968" data-name="Path 146968" d="M-63.607,273.571c-.5.476-.007,1.061.478,1.285a1.953,1.953,0,0,0,.833.129,8.828,8.828,0,0,0,1.921-.231,8.125,8.125,0,0,0,1.509-.406,7.588,7.588,0,0,0,1.239-.516c.406-.274.493-.808.737-1.2.216-.346.56-.6.765-.948.12-.2.263-.762-.017-.874a6.865,6.865,0,0,1-2.193-1.942l-.982,2.387c-.027.065-.511.164-.579.187a13.648,13.648,0,0,0-1.371.565,9.965,9.965,0,0,0-1.614.947A7.42,7.42,0,0,0-63.607,273.571Z" transform="translate(63.815 -268.867)" fill="#79b535"/>
          </g>
          <g id="Group_85131" data-name="Group 85131" transform="translate(18.621 88.138)">
            <path id="Path_146969" data-name="Path 146969" d="M-45.347,285.676a9.209,9.209,0,0,1,.566-1.439q.6-1.3,1.193-2.6a11.264,11.264,0,0,0,.5-3.238.613.613,0,0,1,.057-.214c.236-.428,1.347-.466,1.769-.455a14.269,14.269,0,0,1,1.646.1,6.279,6.279,0,0,1,1.994.6c.916.474.767,1.211.712,2.11a6.693,6.693,0,0,1-.177,1.363,7.142,7.142,0,0,1-.792,1.773h-.239c.021,0-.15,1.188-.163,1.277a5.794,5.794,0,0,1-.566,1.827,7.657,7.657,0,0,1-.819,1.273,5.549,5.549,0,0,1-2.364,2.025,2.833,2.833,0,0,1-.607.146,3.409,3.409,0,0,1-1.056-.064,2.526,2.526,0,0,1-1.492-.685,3.058,3.058,0,0,1-.353-1.733A6.075,6.075,0,0,1-45.347,285.676Z" transform="translate(45.554 -277.73)" fill="#6da32f"/>
          </g>
          <path id="Path_146970" data-name="Path 146970" d="M-40.866,279.087a2.51,2.51,0,0,0-1.133-.31c-.354.019-.463.2-.624.493a5.258,5.258,0,0,0-.422,1.961,9.652,9.652,0,0,1-.382,1.583c-.218.737-.692,1.447-.93,2.157a5.372,5.372,0,0,0-.42,2.785.771.771,0,0,0,.1.241c.185.279.827.428,1.137.49a3.187,3.187,0,0,0,.714.051c.129,0,.621.026.708-.064a17.816,17.816,0,0,0,1.629-1.882,14.721,14.721,0,0,0,1.082-2.188,8.458,8.458,0,0,0,.493-2.224,3.842,3.842,0,0,0,.043-1.882,1.081,1.081,0,0,0-.745-.778c-.166-.049-.337-.034-.5-.081A5.68,5.68,0,0,1-40.866,279.087Z" transform="translate(64.169 -189.602)" fill="#79b535"/>
          <path id="Path_146971" data-name="Path 146971" d="M-53.545,241.878s2.751,5.38,2.4,9.464-.257,4.479.494,6.215-2.442,12.405-2.442,12.405a3.508,3.508,0,0,1-3.678-1c-.471-.595-1.034-3.94-.984-5.747.052-1.859.221-3.715.21-5.576a7.728,7.728,0,0,0-.726-3.606,26.107,26.107,0,0,1-2.307-8.13,42.136,42.136,0,0,1,.306-11.032Z" transform="translate(64.311 -189.212)" fill="#df9876"/>
          <path id="Path_146972" data-name="Path 146972" d="M-53.007,254.431a21.8,21.8,0,0,0,.586,3.072,10.3,10.3,0,0,1,.13,2.79,24.041,24.041,0,0,1-.238,3.065,60.085,60.085,0,0,1-1.267,6.07,5.635,5.635,0,0,1-.222.737,3.918,3.918,0,0,1-2.994-1.045,24.748,24.748,0,0,1-.743-5.906c-.06-1.859.221-3.715.21-5.576a7.725,7.725,0,0,0-.726-3.606,26.134,26.134,0,0,1-2.307-8.13,42.136,42.136,0,0,1,.306-11.032l1.436,1.5a22.7,22.7,0,0,0,2.946,3.871c.753.66,1.66,1.133,2.38,1.83.063.062.093.131.15.192.163.344.414.9.7,1.615.074,1.242-.616,2.337-.723,3.58a13.429,13.429,0,0,0,.021,1.936l.155,2.6C-53.162,252.808-53.114,253.623-53.007,254.431Z" transform="translate(64.311 -189.212)" fill="#f1bc95"/>
          <path id="Path_146973" data-name="Path 146973" d="M-37.77,278.689s1.692-11.162.168-14.379-2.329-4.315-2.271-6.5-2.94-10.669-2.94-10.669a12.168,12.168,0,0,0-.256-7.48c-1.5-3.473-2.468-4.2-2.468-4.2s-2.739,1.951-8.829-.5-5.885-3.335-5.885-3.335-1.315,6.316,1.557,10.293,5.51,4.717,5.51,4.717,2.783,9.5,5.295,13.186c1.11,1.631,1.432,3.747,2.048,5.648.647,2,2.486,10.117,3.129,12.661C-42.712,278.133-41.885,281.678-37.77,278.689Z" transform="translate(64.309 -189.184)" fill="#f1bc95"/>
          <path id="Path_146974" data-name="Path 146974" d="M-46,238.439a12.687,12.687,0,0,0-1.426-2.29,4.95,4.95,0,0,0,2.005-.649s.966.727,2.468,4.2a12.168,12.168,0,0,1,.256,7.48s3,8.487,2.94,10.669.746,3.279,2.271,6.5-.168,14.379-.168,14.379c-.585.424-.292.332-.811.53a9.127,9.127,0,0,1,.388-2.323,42.1,42.1,0,0,0,.256-4.469,18.733,18.733,0,0,0-1.785-8.488c-.617-1.213-1.013-2.583-1.524-3.857-.313-.781-.627-1.563-.872-2.369-.858-2.827-.869-5.834-1.922-8.611a15.1,15.1,0,0,1-.874-2.868C-45.233,243.629-44.853,240.938-46,238.439Z" transform="translate(64.192 -189.218)" fill="#df9876"/>
          <path id="Path_146975" data-name="Path 146975" d="M-60.543,233.2s-.846,8.041-.6,10.649a21.375,21.375,0,0,0,.965,4.62,13.491,13.491,0,0,0,5.146,1.287l2.853.1.755,2.185s.718,1.105,4.521.988,5.347-2.076,5.347-2.076l-.844-4.065a13.056,13.056,0,0,0-.175-6.315,32.953,32.953,0,0,0-2.281-5.093Z" transform="translate(64.314 -189.198)" fill="#2b2f36"/>
          <path id="Path_146976" data-name="Path 146976" d="M-46.846,253.043c3.8-.117,5.347-2.076,5.347-2.076l-.844-4.065a13.056,13.056,0,0,0-.175-6.315,32.953,32.953,0,0,0-2.281-5.093l-5.356-.778-4.922.339a27.011,27.011,0,0,0,0,5.649c.307,3.552,1.667,4.518,1.843,5.176s1.113,3.99,1.113,3.99l.755,2.185S-50.649,253.16-46.846,253.043Z" transform="translate(64.261 -189.211)" fill="#353a42"/>
          <path id="Path_146977" data-name="Path 146977" d="M-60.5,207.4a4.256,4.256,0,0,1,1.448-2.52,3.586,3.586,0,0,1,3.472-.559c.466.11.7.743.763,1.713a13.767,13.767,0,0,1-2.759-.164,3.815,3.815,0,0,0-2.535,1.118C-60.257,207.112-60.368,207.268-60.5,207.4Z" transform="translate(64.308 -188.94)" fill="#e6c34f"/>
          <path id="Path_146978" data-name="Path 146978" d="M-62.161,219.468a58.654,58.654,0,0,0,1.61,13.468s3.495,5.92,16.006,2.494c0,0-1.134-6.829-.453-8.113.7-1.3,5.165-6.221,5.428-9.285s1.066-5.586-1.883-8.247a55.842,55.842,0,0,0-4.442-3.777,17.31,17.31,0,0,0-3.452-2.025,6.319,6.319,0,0,0-3.719-.181c-2.151.432-4.255,1.563-4.977,2.612C-59.223,208.1-62.251,211.56-62.161,219.468Z" transform="translate(64.323 -188.935)" fill="#ffda5e"/>
          <path id="Path_146979" data-name="Path 146979" d="M-53.025,203.8a6.319,6.319,0,0,1,3.719.181,17.3,17.3,0,0,1,3.451,2.025,55.666,55.666,0,0,1,4.443,3.777c2.95,2.661,2.147,5.184,1.883,8.247s-4.731,7.988-5.428,9.285c-.681,1.284.453,8.113.453,8.113a31.7,31.7,0,0,1-3.753.789c-.106.015.189-3.518.209-3.75.287-3.33.368-7.224,1.83-10.294a14.416,14.416,0,0,1,2.842-3.762,4.917,4.917,0,0,0,1.058-2.167,15.708,15.708,0,0,0,.63-2.536,2.513,2.513,0,0,0-.047-1.114,2.839,2.839,0,0,0-.6-.926c-1.15-1.335-2.6-3.091-4.211-3.857a19.843,19.843,0,0,0-5.358-1.483,31.87,31.87,0,0,0-5.581-.477A10.1,10.1,0,0,1-53.025,203.8Z" transform="translate(64.281 -188.935)" fill="#d1b144" style="mix-blend-mode: multiply;isolation: isolate"/>
          <path id="Path_146980" data-name="Path 146980" d="M-55.273,209.029a2.115,2.115,0,0,0,3.209,2.255c.789-.5,1.656-1.091,2.546-1.765,3.187-2.426,3.682-3.511,3.682-3.511a17.31,17.31,0,0,0-3.452-2.025,6.319,6.319,0,0,0-3.719-.181,27.35,27.35,0,0,0-2.25,5.161Z" transform="translate(64.262 -188.935)" fill="#d18d6d"/>
          <path id="Path_146981" data-name="Path 146981" d="M-49.807,209.032a9.43,9.43,0,0,0,.232-2.626c-.045-.806-.2-1.606-.19-2.413,0-.056.014-.11.018-.167a4.167,4.167,0,0,1,.505.158,17.3,17.3,0,0,1,3.451,2.025s-.494,1.084-3.681,3.51c-.252.191-.495.36-.741.536A10.542,10.542,0,0,0-49.807,209.032Z" transform="translate(64.217 -188.937)" fill="#c77752"/>
          <path id="Path_146982" data-name="Path 146982" d="M-46.833,202.9l.1,2.453a10.96,10.96,0,0,1-4.156,2.717c-2.536.891-3.255.284-3.255.284l-.17-5.3S-47.548,200.031-46.833,202.9Z" transform="translate(64.253 -188.918)" fill="#deb08a"/>
          <path id="Path_146983" data-name="Path 146983" d="M-46.793,202.9l.1,2.453a11.253,11.253,0,0,1-2.9,2.162,9.172,9.172,0,0,0,.02-1.131c-.045-.806-.2-1.606-.19-2.413a8.391,8.391,0,0,1,.545-2.3C-48.035,201.624-47.042,201.9-46.793,202.9Z" transform="translate(64.213 -188.918)" fill="#d18d6d"/>
          <path id="Path_146984" data-name="Path 146984" d="M-56.336,204.132c-.008,1.62,1.411,2.323,3.491,2.244a8.034,8.034,0,0,0,3.042-.955q.534-.284.914-.508l.219-.141a1.514,1.514,0,0,1,.183-.117c.15-.109.242-.167.242-.167,6.077-4.682,2.984-5.8,2.336-8.443a2.434,2.434,0,0,0-.216-.6,2.7,2.7,0,0,0-.245-.463,8.68,8.68,0,0,0-6.053-3.764,3.735,3.735,0,0,0-2.983,1.692,7.95,7.95,0,0,0-.921,1.545,1.241,1.241,0,0,0-.082.234C-56.995,196.576-56.329,202.592-56.336,204.132Z" transform="translate(64.274 -188.825)" fill="#f0b88f"/>
          <path id="Path_146985" data-name="Path 146985" d="M-56.407,194.7c.012.018.024.037.039.04a2.989,2.989,0,0,0,1.042.417,12.936,12.936,0,0,0,3.065.45c.448,0,1.087-.131,1.478.148a2.463,2.463,0,0,1,.771.932,3.305,3.305,0,0,1,.164.563,6.444,6.444,0,0,1,.312,2.086c-.075.708-.092,1.427-.12,2.13a7.693,7.693,0,0,0,.219,1.59,5.221,5.221,0,0,1-.363,2.376q.534-.284.914-.508a1.105,1.105,0,0,1,.219-.141,1.437,1.437,0,0,1,.183-.117c.15-.109.242-.167.242-.167,6.077-4.682,2.984-5.8,2.336-8.443a2.434,2.434,0,0,0-.216-.6,2.7,2.7,0,0,0-.245-.463,5.409,5.409,0,0,0-2.777-1.977,9.415,9.415,0,0,0-2.136-.452,7.972,7.972,0,0,0-2.879.141c-.3.091-.784.128-1.244.216a7.95,7.95,0,0,0-.921,1.545A1.241,1.241,0,0,0-56.407,194.7Z" transform="translate(64.272 -188.837)" fill="#df9876"/>
          <g id="Group_85132" data-name="Group 85132" transform="translate(7.972)">
            <path id="Path_146986" data-name="Path 146986" d="M-43.894,191.442A6.729,6.729,0,0,0-49.1,188.8a9.335,9.335,0,0,0-5.464,2.233,5.22,5.22,0,0,0-1.732,3.281,2.474,2.474,0,0,1,2.062-.339c3.461.521,5.333,1.558,5.2,3.653-.063,1.056-.037,2.116-.138,3.171-.011.114-.018.23-.026.346a5.118,5.118,0,0,0,.614-.067.72.72,0,0,1,.327.01,1.757,1.757,0,0,1,.066-.29,15.466,15.466,0,0,1,.678-1.474,3.049,3.049,0,0,1,.736-1,.9.9,0,0,1,1.36.3,2.088,2.088,0,0,1,0,1.469,3.416,3.416,0,0,1-.62.914,5.457,5.457,0,0,0-1.405,2.606c-.016.1.006.519-.053.577a10.146,10.146,0,0,0,.971-.545,7.782,7.782,0,0,0,2.9-3.413,11.137,11.137,0,0,0,.954-3.354C-42.482,195.132-42.7,192.826-43.894,191.442Z" transform="translate(56.299 -188.804)" fill="#4f2900"/>
            <path id="Path_146987" data-name="Path 146987" d="M-50.443,189.75a12.739,12.739,0,0,0-2.2.41c-.2.052-.4.1-.6.156-.168.044-.338.092-.505.149a8.556,8.556,0,0,1,4.661-1.66,6.729,6.729,0,0,1,5.209,2.638c1.19,1.384,1.412,3.69,1.23,5.436a11.137,11.137,0,0,1-.954,3.354,7.856,7.856,0,0,1-2.217,2.9c.074-.167.148-.326.205-.467.331-.817.618-1.656.87-2.5a17.273,17.273,0,0,0,.685-4.474c.08-2.684-1.877-4.775-4.313-5.684A4.831,4.831,0,0,0-50.443,189.75Z" transform="translate(56.276 -188.804)" fill="#422200"/>
          </g>
        </g>
      </g>
      <g id="Group_85136" data-name="Group 85136" transform="translate(20.921 21.889)">
        <g id="Group_85135" data-name="Group 85135">
          <path id="Path_146988" data-name="Path 146988" d="M-40.151,228.573a63.836,63.836,0,0,1,.415-9.738c.422-2.324,1.057-8.566-4.553-7.177-.32.526-.613,1.071-.894,1.619a20.3,20.3,0,0,0-1.5,3.6,12.326,12.326,0,0,0-.359,3.466c0,1.187.019,2.4.1,3.568a12.6,12.6,0,0,0,.533,2.616c.212.728.527,1.423.723,2.158.09.34.109.69.2,1.023a4.625,4.625,0,0,1,.2,1.174,5.7,5.7,0,0,1-.242,1.53c-.128.477-.2.942-.286,1.43-.185,1.039-.465,2.058-.7,3.086-.169.747-.354,1.515-.515,2.251-.3,1.37-.6,2.749-1.01,4.09a.127.127,0,0,0,.04.118,3.518,3.518,0,0,1-.4.752.986.986,0,0,1-.385.358,1.475,1.475,0,0,1-.349.064,1.365,1.365,0,0,0-.59.258c-.268.191-.505.443-.785.618-.161.1-1.082.583-.793.869.462.458,1.259-.668,1.7-.258.3.279-.142.831-.37,1.01a2.675,2.675,0,0,1-.66.286c-.076.033-.175.123-.242.142-.092.027-.2-.049-.283.013s-.048.255-.151.319a2.289,2.289,0,0,0,1.824.754c.344-.079.7-.127,1.043-.182s.683-.223,1.034-.307a2.021,2.021,0,0,0,.2-.053c.432-.155.758-.683,1.036-1.02a2.33,2.33,0,0,0,.535-.944c.092-.359.136-.712.2-1.076a7.367,7.367,0,0,1,.679-2.171,60.734,60.734,0,0,0,4.031-8.175A28.767,28.767,0,0,0-40.151,228.573Z" transform="translate(51.358 -210.894)" fill="#f1bc95"/>
          <path id="Path_146989" data-name="Path 146989" d="M-40.223,222.329c.014-.131.028-.24.042-.377.269-2.582,1.045-5.3.612-7.909A3.779,3.779,0,0,0-42.9,210.9c-2.849-.25-3.848,3.518-4.379,5.55a7.976,7.976,0,0,0-.162.879,16.336,16.336,0,0,0-.312,4.271,4.839,4.839,0,0,0,.134.647A9.459,9.459,0,0,0-40.223,222.329Z" transform="translate(51.327 -210.889)" fill="#ecc851"/>
          <path id="Path_146990" data-name="Path 146990" d="M-41.985,212.827l-.178,10.044a16.057,16.057,0,0,0,2.713-.807c.13-1.047.257-2.093.347-3.144a13.934,13.934,0,0,0-.343-4.9,3.839,3.839,0,0,0-3.447-3.12A4.406,4.406,0,0,1-41.985,212.827Z" transform="translate(51.283 -210.889)" fill="#d1b144"/>
        </g>
      </g>
    </g>
    <g id="Group_85141" data-name="Group 85141" transform="translate(-60.993 204.135)">
      <g id="Group_85140" data-name="Group 85140" transform="translate(0 8.893)">
        <g id="Group_85139" data-name="Group 85139">
          <path id="Path_146991" data-name="Path 146991" d="M-60.15,215.176a6.457,6.457,0,0,0,1.239,5.719c1.259,1.4,2.744,1.1,3.318-.657a6.458,6.458,0,0,0-1.239-5.719C-58.09,213.122-59.576,213.415-60.15,215.176Z" transform="translate(60.377 -213.489)" fill="#dadada"/>
          <path id="Path_146992" data-name="Path 146992" d="M-59.614,215.647a5.225,5.225,0,0,0,1,4.626c1.019,1.13,2.22.892,2.685-.531a5.228,5.228,0,0,0-1-4.626C-57.948,213.985-59.15,214.223-59.614,215.647Z" transform="translate(60.372 -213.495)" fill="#e8e8e8"/>
          <g id="Group_85138" data-name="Group 85138" transform="translate(1.611)">
            <path id="Path_146993" data-name="Path 146993" d="M-56.13,221.333l.632-.134a1.826,1.826,0,0,1-.926.5v0l-.523.11A1.557,1.557,0,0,0-56.13,221.333Z" transform="translate(58.736 -213.556)" fill="#b0b0b0"/>
            <path id="Path_146994" data-name="Path 146994" d="M-55.765,220.806l.688-.146a2.38,2.38,0,0,1-.413.534l-.632.134A2.265,2.265,0,0,0-55.765,220.806Z" transform="translate(58.729 -213.551)" fill="#cfcfcf"/>
            <path id="Path_146995" data-name="Path 146995" d="M-55.548,220.288l.7-.149,0,.008a2.58,2.58,0,0,1-.227.508l-.688.146a3.213,3.213,0,0,0,.211-.5Z" transform="translate(58.725 -213.546)" fill="#b0b0b0"/>
            <path id="Path_146996" data-name="Path 146996" d="M-55.4,219.694l.7-.149a3.96,3.96,0,0,1-.144.589l-.7.149A4.152,4.152,0,0,0-55.4,219.694Z" transform="translate(58.724 -213.541)" fill="#cfcfcf"/>
            <path id="Path_146997" data-name="Path 146997" d="M-55.325,218.973l.7-.149a4.913,4.913,0,0,1-.074.715l-.7.149A5.222,5.222,0,0,0-55.325,218.973Z" transform="translate(58.722 -213.535)" fill="#b0b0b0"/>
            <path id="Path_146998" data-name="Path 146998" d="M-55.336,218.27l.7-.15a6.328,6.328,0,0,1,.01.7l-.7.149A6.552,6.552,0,0,0-55.336,218.27Z" transform="translate(58.722 -213.528)" fill="#cfcfcf"/>
            <path id="Path_146999" data-name="Path 146999" d="M-55.421,217.582l.7-.149a6.618,6.618,0,0,1,.084.681l-.7.15A6.637,6.637,0,0,0-55.421,217.582Z" transform="translate(58.722 -213.522)" fill="#b0b0b0"/>
            <path id="Path_147000" data-name="Path 147000" d="M-55.57,216.908l.7-.149c.059.22.11.443.148.668l-.7.149Q-55.482,217.238-55.57,216.908Z" transform="translate(58.724 -213.516)" fill="#cfcfcf"/>
            <path id="Path_147001" data-name="Path 147001" d="M-58.752,213.666l.744-.158v0a1.574,1.574,0,0,1,.9.115l-.706.15A1.568,1.568,0,0,0-58.752,213.666Z" transform="translate(58.752 -213.487)" fill="#b0b0b0"/>
            <path id="Path_147002" data-name="Path 147002" d="M-57.8,213.777l.706-.15a2.462,2.462,0,0,1,.552.33l-.708.15A2.375,2.375,0,0,0-57.8,213.777Z" transform="translate(58.744 -213.489)" fill="#cfcfcf"/>
            <path id="Path_147003" data-name="Path 147003" d="M-57.245,214.11l.708-.15a3.525,3.525,0,0,1,.409.382l-.708.15A3.039,3.039,0,0,0-57.245,214.11Z" transform="translate(58.739 -213.491)" fill="#b0b0b0"/>
            <path id="Path_147004" data-name="Path 147004" d="M-56.832,214.495l.708-.15c.008.01.018.02.029.032a4.016,4.016,0,0,1,.35.446l-.7.149a4.226,4.226,0,0,0-.351-.445C-56.811,214.514-56.822,214.5-56.832,214.495Z" transform="translate(58.735 -213.495)" fill="#cfcfcf"/>
            <path id="Path_147005" data-name="Path 147005" d="M-56.447,214.976l.7-.149a5.266,5.266,0,0,1,.372.62l-.706.15A5.142,5.142,0,0,0-56.447,214.976Z" transform="translate(58.732 -213.499)" fill="#b0b0b0"/>
            <path id="Path_147006" data-name="Path 147006" d="M-56.073,215.6l.706-.15a5.909,5.909,0,0,1,.282.64l-.7.149A5.465,5.465,0,0,0-56.073,215.6Z" transform="translate(58.728 -213.505)" fill="#cfcfcf"/>
            <path id="Path_147007" data-name="Path 147007" d="M-55.786,216.248l.7-.149a6.231,6.231,0,0,1,.214.654l-.7.149A6.233,6.233,0,0,0-55.786,216.248Z" transform="translate(58.726 -213.51)" fill="#b0b0b0"/>
          </g>
          <path id="Path_147008" data-name="Path 147008" d="M-58.614,220.272a5.225,5.225,0,0,1-1-4.626c.316-.97.974-1.389,1.684-1.2-.8-.32-1.562.1-1.914,1.175a5.381,5.381,0,0,0,1.033,4.764c.789.876,1.684.954,2.284.315C-57.105,221.181-57.9,221.06-58.614,220.272Z" transform="translate(60.374 -213.495)" fill="#b0b0b0"/>
        </g>
      </g>
      <path id="Path_147009" data-name="Path 147009" d="M-56.832,213.674l6.659-6.5s2.041-1.727,2.021-2.193l-.019-.467,1.324,1.788a44.225,44.225,0,0,1-9.443,8.01C-56.8,214.438-56.832,213.674-56.832,213.674Z" transform="translate(60.346 -204.515)" fill="#ff2c38"/>
      <path id="Path_147010" data-name="Path 147010" d="M-56.172,213.042l.611-4.777v-1.83l-.731-.19a57.316,57.316,0,0,0-.952,7.556l.638.468Z" transform="translate(60.349 -204.53)" fill="#ff2c38"/>
    </g>
  </g>
</svg>
