<svg id="Group_79880" data-name="Group 79880" xmlns="http://www.w3.org/2000/svg" width="120" height="119.963" viewBox="0 0 120 119.963">
  <path id="Path_146810" data-name="Path 146810" d="M553.6-211.945l7.938,3.162c1.288-1.306,2.736-2.791,4.2-4.257,1.4-1.4,2.307-1.4,3.711-.011q2.617,2.6,5.213,5.214c1.272,1.287,1.272,2.243-.012,3.534-1.465,1.474-2.959,2.921-4.355,4.294l3.172,7.93c1.114,0,2.436-.014,3.758,0,1.63.021,2.354.741,2.365,2.378q.026,3.622,0,7.246c-.012,1.627-.744,2.346-2.379,2.365-1.287.016-2.574,0-3.747,0l-3.157,7.92c1.319,1.3,2.8,2.756,4.266,4.225,1.394,1.4,1.389,2.3-.01,3.712q-2.6,2.615-5.213,5.212c-1.286,1.269-2.239,1.26-3.533-.031-1.471-1.468-2.918-2.961-4.281-4.346l-7.94,3.173c0,1.708,0,3.613,0,5.519-.006,1.944-.674,2.6-2.642,2.607q-3.313.009-6.624,0c-2.109,0-2.714-.621-2.73-2.769,0-.365,0-.731,0-1.229H472.678c-2.557,0-3.068-.508-3.068-3.057,0-2.247,0-4.495,0-6.94-.48,0-.916,0-1.353,0-2.124,0-4.249.019-6.373-.006a2.032,2.032,0,0,1-2.271-2.221c-.01-.291,0-.582,0-.874V-268.9c0-2.7.466-3.158,3.215-3.158h79.734c2.535,0,3.043.516,3.043,3.081,0,2.246,0,4.491,0,6.916,1.83,0,3.6,0,5.375,0,1.959.007,2.621.665,2.621,2.625q.006,23.053,0,46.1Zm-89.934,41.858h1.568c18.413,0,36.826-.043,55.238.057a4.849,4.849,0,0,0,4.375-2.241l-3.117-7.813c-1.185,0-2.473.014-3.761,0-1.628-.022-2.349-.743-2.361-2.382q-.026-3.622,0-7.246c.011-1.631.737-2.342,2.378-2.362,1.321-.015,2.642,0,3.737,0,1.1-2.74,2.113-5.27,3.183-7.938-1.4-1.379-2.9-2.824-4.367-4.3-1.28-1.282-1.275-2.234.007-3.531,1.7-1.718,3.414-3.42,5.125-5.124,1.509-1.5,2.364-1.5,3.891.022,1.439,1.434,2.869,2.877,4.139,4.153l7.8-3.114v-56.084H463.669ZM567.528-209.2c-1.4,1.406-2.761,2.8-4.144,4.167-1.181,1.17-1.894,1.258-3.3.349a24.049,24.049,0,0,0-8.282-3.337c-1.774-.362-2.19-.889-2.195-2.728,0-1.737,0-3.475,0-5.248h-4c0,1.778,0,3.478,0,5.178,0,1.934-.387,2.422-2.252,2.809a24.163,24.163,0,0,0-8.171,3.288c-1.484.948-2.171.87-3.4-.356-1.374-1.371-2.733-2.76-4.034-4.076L524.485-206c1.407,1.4,2.8,2.761,4.168,4.144,1.145,1.155,1.256,1.883.408,3.2a24.281,24.281,0,0,0-3.446,8.635,2.048,2.048,0,0,1-2.313,1.941c-1.2.019-2.391,0-3.616,0v3.9a1.628,1.628,0,0,0,.312.085c1,.009,2,.011,3,.016,1.763.011,2.309.438,2.652,2.134a24.255,24.255,0,0,0,3.248,8.187c1.034,1.638.967,2.245-.38,3.595s-2.7,2.677-3.969,3.938l3.149,3.274c1.361-1.382,2.693-2.748,4.04-4.1,1.264-1.265,1.943-1.365,3.392-.432a24.234,24.234,0,0,0,8.285,3.335c1.774.37,2.184.889,2.189,2.735,0,1.736,0,3.473,0,5.239h4c0-1.865-.007-3.649,0-5.433.009-1.6.48-2.2,2.008-2.506a24.313,24.313,0,0,0,8.521-3.405c1.345-.866,2.079-.775,3.206.339,1.411,1.394,2.8,2.808,4.136,4.15l3.258-3.147c-1.41-1.392-2.8-2.752-4.179-4.132-1.151-1.155-1.26-1.875-.412-3.194a24.489,24.489,0,0,0,3.446-8.636c.281-1.438.921-1.928,2.435-1.943,1.155-.011,2.31,0,3.5,0v-3.874c-.115-.058-.15-.091-.185-.091-1.124-.014-2.248-.016-3.372-.035a2.074,2.074,0,0,1-2.385-2.006,24.321,24.321,0,0,0-3.4-8.521c-.89-1.38-.784-2.082.427-3.292,1.375-1.371,2.766-2.726,4.09-4.027ZM519.062-166H473.671v5.82h50.916Zm26.624-92v37.83h3.854V-258Zm-11.5,94.821-3.14,2.973h10.587Z" transform="translate(-459.608 272.054)" fill="#fe502d"/>
  <path id="Path_146811" data-name="Path 146811" d="M486.615-186.705q-8.124,0-16.248,0c-2.029,0-2.668-.65-2.668-2.7q0-13.308,0-26.616c0-2.032.645-2.667,2.7-2.667q16.309,0,32.62,0c2.03,0,2.67.648,2.671,2.7q0,13.308,0,26.615c0,2.028-.652,2.67-2.7,2.671Q494.8-186.7,486.615-186.705Zm15.025-27.9H471.8v23.834h29.841Z" transform="translate(-457.695 284.674)" fill="#fe502d"/>
  <path id="Path_146812" data-name="Path 146812" d="M500.59-240.566H470.718c-.375,0-.752.021-1.124-.016a1.991,1.991,0,0,1-1.889-1.961,1.991,1.991,0,0,1,1.842-2,6.276,6.276,0,0,1,.748-.016q30.372,0,60.742,0a4.887,4.887,0,0,1,.873.025,1.9,1.9,0,0,1,1.751,1.949,1.887,1.887,0,0,1-1.705,1.987,6.633,6.633,0,0,1-1.246.036Z" transform="translate(-457.693 278.554)" fill="#fe502d"/>
  <path id="Path_146813" data-name="Path 146813" d="M500.689-234.1h-30a7.1,7.1,0,0,1-1.248-.032,1.886,1.886,0,0,1-1.729-1.965,1.885,1.885,0,0,1,1.724-1.969,6.172,6.172,0,0,1,1.123-.031q30.121,0,60.241,0a6.283,6.283,0,0,1,1.123.03,1.889,1.889,0,0,1,1.73,1.965,1.888,1.888,0,0,1-1.726,1.969,6.859,6.859,0,0,1-1.246.033Z" transform="translate(-457.69 280.083)" fill="#fe502d"/>
  <path id="Path_146814" data-name="Path 146814" d="M500.562-227.63q-14.935,0-29.87,0a6.967,6.967,0,0,1-1.246-.033,1.885,1.885,0,0,1-1.727-1.966,1.885,1.885,0,0,1,1.726-1.967,6.283,6.283,0,0,1,1.123-.031q30.119,0,60.241,0a6.158,6.158,0,0,1,1.121.031,1.89,1.89,0,0,1,1.729,1.966,1.888,1.888,0,0,1-1.729,1.967,6.967,6.967,0,0,1-1.246.033Q515.623-227.629,500.562-227.63Z" transform="translate(-457.69 281.613)" fill="#fe502d"/>
  <path id="Path_146815" data-name="Path 146815" d="M476.088-263.968a10,10,0,0,1,9.985,10.034,10.013,10.013,0,0,1-9.94,9.956,10.027,10.027,0,0,1-10.052-10.1A10.01,10.01,0,0,1,476.088-263.968Zm-6,10.023a6.019,6.019,0,0,0,6.087,5.96,6.013,6.013,0,0,0,5.9-6.022,6.015,6.015,0,0,0-6.086-5.959A6.017,6.017,0,0,0,470.084-253.945Z" transform="translate(-458.077 273.966)" fill="#fe502d"/>
  <path id="Path_146816" data-name="Path 146816" d="M507.355-259.968h-19a6.172,6.172,0,0,1-1.123-.031,1.893,1.893,0,0,1-1.727-1.969,1.885,1.885,0,0,1,1.726-1.966,6.172,6.172,0,0,1,1.123-.031q19.121,0,38.243,0a6.287,6.287,0,0,1,1.123.03,1.89,1.89,0,0,1,1.729,1.966,1.894,1.894,0,0,1-1.727,1.97,6.171,6.171,0,0,1-1.123.031Z" transform="translate(-453.482 273.964)" fill="#fe502d"/>
  <path id="Path_146817" data-name="Path 146817" d="M507.59-257.5q9.5,0,19,0a5.71,5.71,0,0,1,1.245.048,1.885,1.885,0,0,1,1.625,1.931,1.891,1.891,0,0,1-1.591,1.961,5.265,5.265,0,0,1-1.244.054q-19.123,0-38.244,0a9.608,9.608,0,0,1-1-.016,1.992,1.992,0,0,1-1.883-1.967,1.984,1.984,0,0,1,1.85-2,10.309,10.309,0,0,1,1.124-.019Q498.03-257.5,507.59-257.5Z" transform="translate(-453.485 275.494)" fill="#fe502d"/>
  <path id="Path_146818" data-name="Path 146818" d="M507.479-251.032H526.6a6.155,6.155,0,0,1,1.121.031,1.888,1.888,0,0,1,1.727,1.967,1.893,1.893,0,0,1-1.729,1.967,6.172,6.172,0,0,1-1.123.031q-19.121,0-38.243,0a6.172,6.172,0,0,1-1.123-.031,1.892,1.892,0,0,1-1.726-1.969A1.887,1.887,0,0,1,487.235-251a6.169,6.169,0,0,1,1.123-.031Z" transform="translate(-453.482 277.024)" fill="#fe502d"/>
  <path id="Path_146819" data-name="Path 146819" d="M489.816-225.161h19a6.153,6.153,0,0,1,1.122.031,1.888,1.888,0,0,1,1.726,1.967,1.893,1.893,0,0,1-1.729,1.967,6.169,6.169,0,0,1-1.123.031q-19.121,0-38.243,0a6.169,6.169,0,0,1-1.123-.031,1.892,1.892,0,0,1-1.725-1.97,1.885,1.885,0,0,1,1.729-1.965,6.155,6.155,0,0,1,1.122-.031Z" transform="translate(-457.69 283.142)" fill="#fe502d"/>
  <path id="Path_146820" data-name="Path 146820" d="M533.425-185.86a14.009,14.009,0,0,1-13.973-14.1A14.025,14.025,0,0,1,533.4-213.843a14.031,14.031,0,0,1,14.038,14.174A14.018,14.018,0,0,1,533.425-185.86ZM535.4-190v-19.649h-3.9V-190Zm-8-17.681c-5.713,4.209-4.68,12.675,0,15.558Zm12.1,15.7c6.039-4.663,4.311-13.117,0-15.574Z" transform="translate(-445.454 285.821)" fill="#fe502d"/>
</svg>
