<svg xmlns="http://www.w3.org/2000/svg" width="131.733" height="186.563" viewBox="0 0 131.733 186.563">
  <g id="Contact_us-amico" data-name="Contact us-amico" transform="translate(-61.227 -31.333)">
    <g id="freepik--Shadows--inject-86" transform="translate(63.409 166.087)" opacity="0.19">
      <path id="Path_157486" data-name="Path 157486" d="M248.072,386.369,182.55,348.536a3.786,3.786,0,0,1,0-6.562l6.464-4.076a7.35,7.35,0,0,1,7.337,0l65.531,37.837a3.786,3.786,0,0,1,0,6.562l-6.464,4.072A7.332,7.332,0,0,1,248.072,386.369Z" transform="translate(-134.226 -335.547)" fill="#0d2380"/>
      <ellipse id="Ellipse_4768" data-name="Ellipse 4768" cx="14.219" cy="8.165" rx="14.219" ry="8.165" transform="translate(0)" fill="#0d2380" opacity="0.23"/>
    </g>
    <g id="freepik--Device--inject-86" transform="translate(110.271 31.334)">
      <path id="Path_157494" data-name="Path 157494" d="M246.618,217.214l-57.624-33.271c-4.067-2.348-7.363-8.646-7.363-14.068V46.484c0-5.421,3.3-7.911,7.363-5.564l57.624,33.271c4.067,2.348,7.363,8.646,7.363,14.068V211.65C253.981,217.067,250.685,219.561,246.618,217.214Z" transform="translate(-181.63 -36.159)" fill="#455a64"/>
      <path id="Path_157495" data-name="Path 157495" d="M256.366,65.485,198.737,32.214a4.821,4.821,0,0,0-4.593-.5h0a3.765,3.765,0,0,0-.445.263l-6.459,3.755c1.3-.78,3-.722,4.869.356l57.624,33.271C253.8,71.7,257.1,78,257.1,83.424V206.815c0,2.869-.922,4.9-2.392,5.862l6.374-3.711h0c1.626-.864,2.673-2.98,2.673-6.014V79.562C263.752,74.131,260.433,67.833,256.366,65.485Z" transform="translate(-184.741 -31.334)" fill="#37474f"/>
      <path id="Path_157496" data-name="Path 157496" d="M341.072,143.462V266.854c0,2.869-.922,4.9-2.392,5.862l6.379-3.711h0c1.626-.864,2.673-2.98,2.673-6.014V139.6l-6.637,3.853Z" transform="translate(-268.721 -91.372)" fill="#263238"/>
      <path id="Path_157497" data-name="Path 157497" d="M350.687,161.09l-6.637,3.831v2.993l6.637-3.835Z" transform="translate(-271.699 -103.289)" fill="#37474f"/>
      <path id="Path_157498" data-name="Path 157498" d="M351.084,194.036h0c-.592.343-1.074-.022-1.074-.811v-6.437a2.575,2.575,0,0,1,1.074-2.054h0c.592-.343,1.074,0,1.074.811v6.437A2.575,2.575,0,0,1,351.084,194.036Z" transform="translate(-275.004 -116.328)" fill="#37474f"/>
      <path id="Path_157499" data-name="Path 157499" d="M348.962,192.729v-6.455a2.575,2.575,0,0,1,1.074-2.054.686.686,0,0,1,.677-.062h0l-.806-.414h0a.7.7,0,0,0-.695.053,2.584,2.584,0,0,0-1.078,2.054v6.432a.966.966,0,0,0,.365.86h0l.842.445h0A.927.927,0,0,1,348.962,192.729Z" transform="translate(-273.961 -115.814)" fill="#455a64"/>
      <path id="Path_157500" data-name="Path 157500" d="M351.084,229.007h0c-.592.343-1.074,0-1.074-.811v-6.437a2.579,2.579,0,0,1,1.074-2.054h0c.592-.343,1.074,0,1.074.815v6.432A2.566,2.566,0,0,1,351.084,229.007Z" transform="translate(-275.004 -135.721)" fill="#37474f"/>
      <path id="Path_157501" data-name="Path 157501" d="M348.962,227.672v-6.437a2.579,2.579,0,0,1,1.074-2.054.7.7,0,0,1,.677-.062h0l-.806-.419h0a.673.673,0,0,0-.695.053,2.57,2.57,0,0,0-1.078,2.054v6.45a.962.962,0,0,0,.365.86h0l.842.445h0a.922.922,0,0,1-.379-.891Z" transform="translate(-273.96 -135.196)" fill="#455a64"/>
      <path id="Path_157502" data-name="Path 157502" d="M249.59,83.506,192.963,50.8a1.564,1.564,0,0,0-2.343,1.336V175.729a14.418,14.418,0,0,0,6.5,11.252l55.237,31.908a1.724,1.724,0,0,0,2.584-1.492V92.785A11.787,11.787,0,0,0,249.59,83.506Z" transform="translate(-186.615 -42.013)" fill="#39709f"/>
      <path id="Path_157503" data-name="Path 157503" d="M249.59,83.506,192.963,50.8a1.564,1.564,0,0,0-2.343,1.336V175.729a14.418,14.418,0,0,0,6.5,11.252l55.237,31.908a1.724,1.724,0,0,0,2.584-1.492V92.785A11.787,11.787,0,0,0,249.59,83.506Z" transform="translate(-186.615 -42.013)" fill="#fff" opacity="0.9"/>
      <path id="Path_157504" data-name="Path 157504" d="M233.9,70.23l.878,3.693,18.772,10.825,3.243-1.728Z" transform="translate(-210.616 -52.903)" fill="#455a64"/>
      <path id="Path_157505" data-name="Path 157505" d="M243.911,76.008c0,.615-.445.86-.962.557A2.129,2.129,0,0,1,242,74.9c0-.61.445-.86.962-.552A2.12,2.12,0,0,1,243.911,76.008Z" transform="translate(-215.108 -55.113)" fill="#263238"/>
      <path id="Path_157506" data-name="Path 157506" d="M262.011,87.647a.628.628,0,0,1-.294-.076l-9.586-5.345a.6.6,0,0,1,.584-1.051L262.3,86.52a.6.6,0,0,1-.294,1.127Z" transform="translate(-220.561 -58.934)" fill="#263238"/>
      <path id="Path_157507" data-name="Path 157507" d="M213.969,106.339c-.584-.339-1.007-.045-1.007.7a2.258,2.258,0,0,0,1.007,1.88,1.06,1.06,0,0,0,1.1,0L216,110.6a2.018,2.018,0,0,1-2.116-.1,5.394,5.394,0,0,1-2.575-4.383c0-1.653,1.109-2.227,2.637-1.336A6.032,6.032,0,0,1,216,107.007l-.931.739A3.283,3.283,0,0,0,213.969,106.339Z" transform="translate(-198.089 -71.831)" fill="#39709f"/>
      <path id="Path_157508" data-name="Path 157508" d="M227.215,115.261c0,1.666-1.127,2.227-2.673,1.336a5.5,5.5,0,0,1-2.673-4.455c0-1.666,1.127-2.227,2.673-1.336A5.47,5.47,0,0,1,227.215,115.261Zm-3.693-2.125a2.414,2.414,0,0,0,1.042,1.938c.552.321,1,0,1-.757a2.33,2.33,0,0,0-1-1.9C224,112.089,223.523,112.366,223.523,113.136Z" transform="translate(-203.945 -75.171)" fill="#39709f"/>
      <path id="Path_157509" data-name="Path 157509" d="M236.236,116.4l1.924,4.009v-2.887l1.457.842v5.617l-1.336-.775-1.915-3.973V122.1l-1.466-.846V115.62Z" transform="translate(-211.171 -78.074)" fill="#39709f"/>
      <path id="Path_157510" data-name="Path 157510" d="M250.729,124.766v1.47l-1.39-.8v4.152l-1.608-.931V124.5l-1.381-.8V122.24Z" transform="translate(-217.52 -81.745)" fill="#39709f"/>
      <path id="Path_157511" data-name="Path 157511" d="M258.584,135.6l-1.826-1.056-.249.65-1.648-.953,2.054-4.432,1.653.953,1.978,6.762-1.715-.989Zm-.4-1.559-.5-1.92-.512,1.336Z" transform="translate(-222.239 -85.943)" fill="#39709f"/>
      <path id="Path_157512" data-name="Path 157512" d="M270.039,138.709c-.584-.334-1.007-.045-1.007.7a2.267,2.267,0,0,0,1.007,1.88,1.078,1.078,0,0,0,1.1,0l.931,1.684a2.045,2.045,0,0,1-2.12-.1,5.4,5.4,0,0,1-2.575-4.388c0-1.653,1.114-2.227,2.637-1.336a6.13,6.13,0,0,1,2.058,2.227l-.931.735A3.354,3.354,0,0,0,270.039,138.709Z" transform="translate(-229.182 -89.782)" fill="#39709f"/>
      <path id="Path_157513" data-name="Path 157513" d="M282.329,143.027v1.466l-1.39-.8v4.165l-1.608-.931v-4.152l-1.381-.8V140.51Z" transform="translate(-235.044 -91.877)" fill="#39709f"/>
      <path id="Path_157514" data-name="Path 157514" d="M295.511,154.775c.4.227.7.049.7-.508v-3.238l1.613.927v3.238c0,1.492-.891,1.938-2.316,1.123a4.588,4.588,0,0,1-2.356-3.818V149.26l1.613.931v3.238a1.653,1.653,0,0,0,.748,1.345Z" transform="translate(-243.473 -96.729)" fill="#39709f"/>
      <path id="Path_157515" data-name="Path 157515" d="M306.653,159.5c-.183-.1-.3-.107-.3.062,0,.7,2.517,1.719,2.517,3.755,0,1.247-.949,1.252-2.045.619a8.139,8.139,0,0,1-2.437-2.3l.6-1.051a7.163,7.163,0,0,0,1.853,1.942c.236.138.388.138.388-.062,0-.731-2.521-1.7-2.521-3.675,0-1.123.82-1.336,2.085-.624a7.761,7.761,0,0,1,2.116,1.884l-.584,1.078a8.772,8.772,0,0,0-1.67-1.626Z" transform="translate(-249.706 -101.439)" fill="#39709f"/>
    </g>
    <g id="freepik--speech-bubble--inject-86" transform="translate(97.731 74.853)">
      <path id="Path_157516" data-name="Path 157516" d="M173.8,147.7a11.444,11.444,0,1,0-3,2.6l5.577,2.423Z" transform="translate(-153.477 -129.03)" fill="#fe502d"/>
      <path id="Path_157518" data-name="Path 157518" d="M166.672,151.288c0-.174-.125-.272-.352-.272a2.548,2.548,0,0,0-1.408.664l-.633-1.229a4.045,4.045,0,0,1,2.3-.811c1.069,0,1.88.561,1.88,1.4a2.768,2.768,0,0,1-1.016,1.746l-.8.788h1.884v1.31h-4.049v-1.074l1.8-1.866a1.216,1.216,0,0,0,.383-.655Z" transform="translate(-159.468 -140.459)" fill="#fff"/>
      <path id="Path_157519" data-name="Path 157519" d="M177.581,149.81l-1.229,2.949h.5v-.993h1.55v.993h.588v1.216h-.588v1h-1.55v-1H174.65v-1.1l1.336-3.06Z" transform="translate(-165.219 -140.553)" fill="#fff"/>
      <path id="Path_157520" data-name="Path 157520" d="M189.761,152.041v2.57H188.1v-2.094a.481.481,0,0,0-.477-.548c-.325,0-.53.254-.53.646v2H185.44V149.15H187.1v2.009a1.446,1.446,0,0,1,2.664.882Z" transform="translate(-171.202 -140.187)" fill="#fff"/>
    </g>
    <g id="freepik--Character--inject-86" transform="translate(103.896 92.545)">
      <path id="Path_157521" data-name="Path 157521" d="M258.634,209.835v55.348a3.564,3.564,0,0,1-5.345,3.091l-29.81-17.212-5.283-3.047a12.005,12.005,0,0,1-6-10.366V182.3a3.564,3.564,0,0,1,5.345-3.091l35.1,20.264a11.969,11.969,0,0,1,5.987,10.366Z" transform="translate(-192.207 -174.282)" fill="#39709f"/>
      <path id="Path_157522" data-name="Path 157522" d="M258.634,209.835v55.348a3.564,3.564,0,0,1-5.345,3.091l-29.81-17.212-5.283-3.047a12.005,12.005,0,0,1-6-10.366V182.3a3.564,3.564,0,0,1,5.345-3.091l35.1,20.264a11.969,11.969,0,0,1,5.987,10.366Z" transform="translate(-192.207 -174.282)" fill="#fff" opacity="0.5"/>
      <path id="Path_157523" data-name="Path 157523" d="M255.486,322.08s5.582,9.257,1.55,19.694L237.49,330.557Z" transform="translate(-206.231 -253.777)" fill="#263238"/>
      <circle id="Ellipse_4769" data-name="Ellipse 4769" cx="6.259" cy="6.259" r="6.259" transform="translate(44.968 31.397) rotate(-82.98)" fill="#263238"/>
      <path id="Path_157524" data-name="Path 157524" d="M284,183.976s1.92-3.118,2.508-2.891-.383,3.2-.383,3.2,2.9.606,2.365,1.336-4.089.557-4.089.557Z" transform="translate(-232.023 -175.582)" fill="#263238"/>
      <path id="Path_157525" data-name="Path 157525" d="M250.409,186.232c-1.336,10.041-9.8,10.041-9.8,10.041l-17.729-7.8a6.607,6.607,0,0,1-1.746-3.862,11.765,11.765,0,0,1,0-3.323v-.031c.566-4.223,3.724-8.762,10.6-10.156a22.536,22.536,0,0,1,4.579-.445,20.853,20.853,0,0,1,2.227.111c5.345.526,9.092,3.02,10.878,6.9a12.472,12.472,0,0,1,.891,2.74,17.294,17.294,0,0,1,.1,5.831Z" transform="translate(-197.096 -169.802)" fill="#263238"/>
      <path id="Path_157526" data-name="Path 157526" d="M180.6,249.229a9.382,9.382,0,0,0-8.718,5.916,6.254,6.254,0,0,0,6.178,0C181.564,253.34,180.6,249.229,180.6,249.229Z" transform="translate(-169.848 -213.377)" fill="#39709f"/>
      <path id="Path_157527" data-name="Path 157527" d="M180.6,249.229a9.382,9.382,0,0,0-8.718,5.916,6.254,6.254,0,0,0,6.178,0C181.564,253.34,180.6,249.229,180.6,249.229Z" transform="translate(-169.848 -213.377)" opacity="0.5"/>
      <path id="Path_157528" data-name="Path 157528" d="M177.89,243.944s-1.782-7.742-2.722-7.836-1.123,2.361-1.047,3.746l-2.227-4.793a1.207,1.207,0,0,0-1.675-.539c-2.227,1.225-6.134,4.949,2.1,14.157Z" transform="translate(-167.318 -205.139)" fill="#945959"/>
      <path id="Path_157529" data-name="Path 157529" d="M203.2,243.541l-1.336-.174a7.653,7.653,0,0,0-7.127,2.993l-7.951,10.584-6.236-11s-.748,7.484-8.718,5.916l8.557,14.4a6.584,6.584,0,0,0,10.771.788l7.323-9Z" transform="translate(-169.82 -210.09)" fill="#b7971e"/>
      <path id="Path_157530" data-name="Path 157530" d="M245.084,267.92c-1.782,4.517-1.978,5.4-.891,7.657a28.9,28.9,0,0,1,1.782,5.185s-8.259,9.257-20.014,5.791l-5.283-3.047a11.832,11.832,0,0,1-2.931-2.388l1.608-11.992a4.187,4.187,0,0,0-.187-1.875l-1.688-4.949a13.524,13.524,0,0,1,3.35-14.036l5.675-5.546,14.9,1.907,2.227.637a6.3,6.3,0,0,1,4.49,6.936C247.4,257.456,246.2,265.082,245.084,267.92Z" transform="translate(-194.733 -209.768)" fill="#826c19"/>
      <path id="Path_157532" data-name="Path 157532" d="M242.785,250.805l-2.985-2.544a2.392,2.392,0,0,0-2.33-.445l-3.608,1.243-.486-2.022a2.4,2.4,0,0,0-2.993-1.742l-1.564.445,2.646-5.069a9.493,9.493,0,0,1,3.826-3.911l1.038-.57,8.575.445s3.194,1.336,3.194,4.343l-5.314,9.8" transform="translate(-201.424 -206.147)" fill="#b7971e"/>
      <path id="Path_157533" data-name="Path 157533" d="M254.307,227.5l-8.6,6.7V212.87h8.6Z" transform="translate(-210.79 -193.215)" fill="#945959"/>
      <path id="Path_157534" data-name="Path 157534" d="M242.755,241.77l-2.615,10.4,11.043-8.642Z" transform="translate(-207.701 -209.241)" fill="#945959"/>
      <path id="Path_157535" data-name="Path 157535" d="M245.7,224.2a15.048,15.048,0,0,0,8.593-8.179V212.87h-8.6Z" transform="translate(-210.784 -193.215)" fill="#703838"/>
      <path id="Path_157536" data-name="Path 157536" d="M235.837,177.38a10.82,10.82,0,0,0-10.994,10.352c-.8,8.535-.027,15.146,4.374,15.787s14.629-2.552,16-13.6S239.013,177.38,235.837,177.38Z" transform="translate(-199.064 -173.534)" fill="#945959"/>
      <path id="Path_157537" data-name="Path 157537" d="M234.679,208.73v5.029l-2.949-.9Z" transform="translate(-203.037 -190.919)" fill="#703838"/>
      <circle id="Ellipse_4770" data-name="Ellipse 4770" cx="1.025" cy="1.025" r="1.025" transform="translate(33.896 17.655)" fill="#263238"/>
      <path id="Path_157538" data-name="Path 157538" d="M230.319,207.8a1.025,1.025,0,1,1-.3-.727,1.025,1.025,0,0,1,.3.727Z" transform="translate(-201.119 -189.832)" fill="#263238"/>
      <path id="Path_157539" data-name="Path 157539" d="M227.691,202.211l2-1.189s-.766-.8-1.532-.321A1.4,1.4,0,0,0,227.691,202.211Z" transform="translate(-200.767 -186.383)" fill="#263238"/>
      <path id="Path_157540" data-name="Path 157540" d="M235.24,223.679A4.343,4.343,0,0,0,238,222.94s.192,1.457-1.029,1.733A1.573,1.573,0,0,1,235.24,223.679Z" transform="translate(-204.984 -198.799)" fill="#703838"/>
      <path id="Path_157541" data-name="Path 157541" d="M231.31,178.328s1.225,11.782,17.248,12.152c0,0,4.842-11.711-4.726-15.515S231.31,178.328,231.31,178.328Z" transform="translate(-202.804 -171.577)" fill="#263238"/>
      <path id="Path_157542" data-name="Path 157542" d="M269.4,205.444h0l-1.969-1.14h0a2.872,2.872,0,0,0-2.927.276,9.1,9.1,0,0,0-4.116,7.127,2.881,2.881,0,0,0,1.212,2.673h0l1.933,1.114.111.062.067.04h0a2.962,2.962,0,0,0,2.78-.347,9.137,9.137,0,0,0,4.116-7.127A2.952,2.952,0,0,0,269.4,205.444Z" transform="translate(-218.93 -188.306)" fill="#b0c0d2"/>
      <ellipse id="Ellipse_4771" data-name="Ellipse 4771" cx="5.818" cy="3.359" rx="5.818" ry="3.359" transform="translate(41.73 25.527) rotate(-60)" fill="#39709f"/>
      <ellipse id="Ellipse_4772" data-name="Ellipse 4772" cx="5.818" cy="3.359" rx="5.818" ry="3.359" transform="translate(41.73 25.527) rotate(-60)" opacity="0.5"/>
      <path id="Path_157543" data-name="Path 157543" d="M274.732,211.557h0l-1.336-.78h0a1.968,1.968,0,0,0-2,.187,6.237,6.237,0,0,0-2.815,4.878,1.98,1.98,0,0,0,.829,1.822h0l1.336.762a.446.446,0,0,0,.076.045l.045.027h0a2.049,2.049,0,0,0,1.907-.241,6.236,6.236,0,0,0,2.815-4.873A2.074,2.074,0,0,0,274.732,211.557Z" transform="translate(-223.472 -191.946)" fill="#b0c0d2"/>
      <path id="Path_157544" data-name="Path 157544" d="M277.215,214.345a6.236,6.236,0,0,1-2.815,4.873c-1.559.891-2.82.169-2.82-1.626a6.21,6.21,0,0,1,2.82-4.873C275.954,211.82,277.215,212.546,277.215,214.345Z" transform="translate(-225.136 -192.917)" fill="#39709f"/>
      <path id="Path_157545" data-name="Path 157545" d="M277.215,214.345a6.236,6.236,0,0,1-2.815,4.873c-1.559.891-2.82.169-2.82-1.626a6.21,6.21,0,0,1,2.82-4.873C275.954,211.82,277.215,212.546,277.215,214.345Z" transform="translate(-225.136 -192.917)" opacity="0.3"/>
      <path id="Path_157546" data-name="Path 157546" d="M254.79,170.294a7.412,7.412,0,0,0-4.455-1.546h-.4a24.006,24.006,0,0,0-4.869.445h0v.829h.829a11.007,11.007,0,0,1,10.633,11.016v3.506a.989.989,0,0,0,1.091.984h.1l.891-.276h0a.829.829,0,0,1-.183.036,1.091,1.091,0,0,0,.944-1.1v-3.252C259.369,175.047,256.826,171.884,254.79,170.294Z" transform="translate(-210.435 -168.747)" fill="#b0c0d2"/>
      <path id="Path_157547" data-name="Path 157547" d="M249.233,230.409a2.562,2.562,0,0,1-1.065-.232l-2.784-1.287a.334.334,0,1,1,.276-.606l2.784,1.287a1.88,1.88,0,0,0,2.147-.4l2.673-2.762a.334.334,0,0,1,.472,0,.339.339,0,0,1,0,.472l-2.673,2.762A2.535,2.535,0,0,1,249.233,230.409Z" transform="translate(-210.486 -200.668)" fill="#39709f"/>
      <path id="Path_157548" data-name="Path 157548" d="M249.233,230.409a2.562,2.562,0,0,1-1.065-.232l-2.784-1.287a.334.334,0,1,1,.276-.606l2.784,1.287a1.88,1.88,0,0,0,2.147-.4l2.673-2.762a.334.334,0,0,1,.472,0,.339.339,0,0,1,0,.472l-2.673,2.762A2.535,2.535,0,0,1,249.233,230.409Z" transform="translate(-210.486 -200.668)" opacity="0.5"/>
      <path id="Path_157549" data-name="Path 157549" d="M244.061,228.381a1.3,1.3,0,1,1-1.3-1.3,1.3,1.3,0,0,1,1.3,1.3Z" transform="translate(-208.433 -201.095)" fill="#39709f"/>
      <path id="Path_157550" data-name="Path 157550" d="M244.061,228.381a1.3,1.3,0,1,1-1.3-1.3,1.3,1.3,0,0,1,1.3,1.3Z" transform="translate(-208.433 -201.095)" opacity="0.5"/>
      <path id="Path_157551" data-name="Path 157551" d="M259.375,180.954v3.252a1.091,1.091,0,0,1-.944,1.1,1.051,1.051,0,0,1-1.163-1.047v-3.31a11.711,11.711,0,0,0-12.188-11.72,24.006,24.006,0,0,1,4.869-.445h.388a7.412,7.412,0,0,1,4.455,1.546C256.831,171.906,259.375,175.069,259.375,180.954Z" transform="translate(-210.44 -168.769)" fill="#39709f"/>
      <path id="Path_157552" data-name="Path 157552" d="M259.375,180.954v3.252a1.091,1.091,0,0,1-.944,1.1,1.051,1.051,0,0,1-1.163-1.047v-3.31a11.711,11.711,0,0,0-12.188-11.72,24.006,24.006,0,0,1,4.869-.445h.388a7.412,7.412,0,0,1,4.455,1.546C256.831,171.906,259.375,175.069,259.375,180.954Z" transform="translate(-210.44 -168.769)" opacity="0.5"/>
      <path id="Path_157553" data-name="Path 157553" d="M265.585,333.41s-2.156,5.938,5.55,8.611c0,0,2.517-3.7,0-6.722A5.1,5.1,0,0,0,265.585,333.41Z" transform="translate(-221.657 -259.944)" fill="#39709f"/>
      <path id="Path_157554" data-name="Path 157554" d="M265.585,333.41s-2.156,5.938,5.55,8.611c0,0,2.517-3.7,0-6.722A5.1,5.1,0,0,0,265.585,333.41Z" transform="translate(-221.657 -259.944)" opacity="0.7"/>
      <path id="Path_157555" data-name="Path 157555" d="M261.755,334.28s-7.528,2.757-7.488,3.826,3.2.339,3.2.339l-1.154.757a7.056,7.056,0,0,0-2.7,3.287h0a1.3,1.3,0,0,0,.6,1.626l2.86,1.515a1.368,1.368,0,0,0,1.866-.6h0a2.673,2.673,0,0,1,1.564-1.336,8.62,8.62,0,0,0,5.617-6.076Z" transform="translate(-215.123 -260.542)" fill="#945959"/>
      <path id="Path_157556" data-name="Path 157556" d="M270.892,248.41s-4.009,2.227-1.88,8.989,6.125,17.253,6.125,17.253L265.93,286.39a7.047,7.047,0,0,1,4.931,2.958A6.236,6.236,0,0,1,271.48,295l11.43-14.7a10.357,10.357,0,0,0,1.621-9.724l-4.9-14.308a11.974,11.974,0,0,0-7.573-7.488Z" transform="translate(-222.003 -212.923)" fill="#b7971e"/>
    </g>
    <g id="freepik--Icons--inject-86" transform="translate(61.227 42.501)">
      <path id="Path_157557" data-name="Path 157557" d="M95.415,145.655,77.7,135.409a1.492,1.492,0,0,0-1.412-.156h0a.856.856,0,0,0-.138.08L72.3,137.592h.027a2,2,0,0,0-.793,1.835v19.707a5.418,5.418,0,0,0,2.263,4.325l17.716,10.245a1.417,1.417,0,0,0,1.559.067.08.08,0,0,0-.031.022l3.826-2.227h0a1.978,1.978,0,0,0,.815-1.849V149.98A5.37,5.37,0,0,0,95.415,145.655Z" transform="translate(-71.53 -100.068)" fill="#39709f"/>
      <path id="Path_157558" data-name="Path 157558" d="M98,147.521a4.508,4.508,0,0,0-1.63-1.866L78.653,135.409a1.492,1.492,0,0,0-1.412-.156h0a.856.856,0,0,0-.138.08l-3.853,2.258a1.443,1.443,0,0,1,1.5.111l17.716,10.245a4.588,4.588,0,0,1,1.67,1.951h0Z" transform="translate(-72.484 -100.068)" fill="#39709f"/>
      <path id="Path_157559" data-name="Path 157559" d="M120.545,187.381a1.981,1.981,0,0,1-.735,1.782l3.826-2.227h0a1.978,1.978,0,0,0,.815-1.849v-19.7a5.573,5.573,0,0,0-.633-2.459l-3.867,2.379h0a5.564,5.564,0,0,1,.592,2.374Z" transform="translate(-98.303 -115.477)" fill="#39709f"/>
      <path id="Path_157560" data-name="Path 157560" d="M98,147.521a4.508,4.508,0,0,0-1.63-1.866L78.653,135.409a1.492,1.492,0,0,0-1.412-.156h0a.856.856,0,0,0-.138.08l-3.853,2.258a1.443,1.443,0,0,1,1.5.111l17.716,10.245a4.588,4.588,0,0,1,1.67,1.951h0Z" transform="translate(-72.484 -100.068)" opacity="0.3"/>
      <path id="Path_157561" data-name="Path 157561" d="M120.545,187.381a1.981,1.981,0,0,1-.735,1.782l3.826-2.227h0a1.978,1.978,0,0,0,.815-1.849v-19.7a5.573,5.573,0,0,0-.633-2.459l-3.867,2.379h0a5.564,5.564,0,0,1,.592,2.374Z" transform="translate(-98.303 -115.477)" opacity="0.6"/>
      <path id="Path_157562" data-name="Path 157562" d="M95.1,173.139c0,2.552-1.011,3.421-2.526,2.544a3.564,3.564,0,0,1-1.693-2.227c-.445.548-1.136.584-2.107.022a6.377,6.377,0,0,1-2.851-5.252c0-2.134,1.243-2.869,2.851-1.942a4.9,4.9,0,0,1,1.9,2.036v-.842l1.679.971v4.615a1.336,1.336,0,0,0,.592,1.252c.566.33.913-.227.913-1.88a9.157,9.157,0,0,0-4.593-7.537c-2.74-1.581-4.588-.481-4.588,2.495A9.355,9.355,0,0,0,89.22,175.2a5.292,5.292,0,0,0,2.432.775l.4,1.537a6.33,6.33,0,0,1-2.829-.931,12.139,12.139,0,0,1-5.92-9.974c0-3.76,2.379-5.123,5.969-3.047A11.787,11.787,0,0,1,95.1,173.139ZM90.7,171a3.27,3.27,0,0,0-1.546-2.829c-.891-.521-1.528-.156-1.528,1.056a3.292,3.292,0,0,0,1.528,2.846C90.049,172.573,90.7,172.248,90.7,171Z" transform="translate(-78.057 -115.289)" fill="#39709f"/>
      <g id="Group_99995" data-name="Group 99995" transform="translate(5.243 47.302)" opacity="0.9">
        <path id="Path_157563" data-name="Path 157563" d="M95.1,173.139c0,2.552-1.011,3.421-2.526,2.544a3.564,3.564,0,0,1-1.693-2.227c-.445.548-1.136.584-2.107.022a6.377,6.377,0,0,1-2.851-5.252c0-2.134,1.243-2.869,2.851-1.942a4.9,4.9,0,0,1,1.9,2.036v-.842l1.679.971v4.615a1.336,1.336,0,0,0,.592,1.252c.566.33.913-.227.913-1.88a9.157,9.157,0,0,0-4.593-7.537c-2.74-1.581-4.588-.481-4.588,2.495A9.355,9.355,0,0,0,89.22,175.2a5.292,5.292,0,0,0,2.432.775l.4,1.537a6.33,6.33,0,0,1-2.829-.931,12.139,12.139,0,0,1-5.92-9.974c0-3.76,2.379-5.123,5.969-3.047A11.787,11.787,0,0,1,95.1,173.139ZM90.7,171a3.27,3.27,0,0,0-1.546-2.829c-.891-.521-1.528-.156-1.528,1.056a3.292,3.292,0,0,0,1.528,2.846C90.049,172.573,90.7,172.248,90.7,171Z" transform="translate(-83.3 -162.591)" fill="#fff"/>
      </g>
      <path id="Path_157564" data-name="Path 157564" d="M95.415,224.435,77.7,214.19a1.474,1.474,0,0,0-1.412-.151h0a.857.857,0,0,0-.138.08L72.3,216.377h.027a1.994,1.994,0,0,0-.793,1.831v19.7a5.411,5.411,0,0,0,2.263,4.325l17.716,10.246a1.408,1.408,0,0,0,1.559.067l-.031.027,3.826-2.25h0a1.943,1.943,0,0,0,.815-1.849V228.756A5.361,5.361,0,0,0,95.415,224.435Z" transform="translate(-71.53 -143.756)" fill="#39709f"/>
      <path id="Path_157565" data-name="Path 157565" d="M98,226.3a4.481,4.481,0,0,0-1.63-1.866L78.653,214.19a1.475,1.475,0,0,0-1.412-.151h0a.856.856,0,0,0-.138.08l-3.853,2.258a1.439,1.439,0,0,1,1.5.107l17.716,10.246a4.575,4.575,0,0,1,1.67,1.956h0Z" transform="translate(-72.484 -143.756)" fill="#39709f"/>
      <path id="Path_157566" data-name="Path 157566" d="M120.545,266.157a2.053,2.053,0,0,1-.735,1.8l3.826-2.25h0a1.943,1.943,0,0,0,.815-1.849v-19.7a5.555,5.555,0,0,0-.633-2.454l-3.867,2.379h0a5.546,5.546,0,0,1,.592,2.37Z" transform="translate(-98.303 -159.164)" fill="#39709f"/>
      <path id="Path_157567" data-name="Path 157567" d="M98,226.3a4.481,4.481,0,0,0-1.63-1.866L78.653,214.19a1.475,1.475,0,0,0-1.412-.151h0a.856.856,0,0,0-.138.08l-3.853,2.258a1.439,1.439,0,0,1,1.5.107l17.716,10.246a4.575,4.575,0,0,1,1.67,1.956h0Z" transform="translate(-72.484 -143.756)" opacity="0.3"/>
      <path id="Path_157568" data-name="Path 157568" d="M120.545,266.157a2.053,2.053,0,0,1-.735,1.8l3.826-2.25h0a1.943,1.943,0,0,0,.815-1.849v-19.7a5.555,5.555,0,0,0-.633-2.454l-3.867,2.379h0a5.546,5.546,0,0,1,.592,2.37Z" transform="translate(-98.303 -159.164)" opacity="0.6"/>
      <path id="Path_157569" data-name="Path 157569" d="M86.732,248.65l-4.272-6.94v9.4Z" transform="translate(-77.591 -159.164)" fill="#39709f"/>
      <path id="Path_157570" data-name="Path 157570" d="M100.96,259.279l4.263,7.381v-9.39Z" transform="translate(-87.85 -167.793)" fill="#39709f"/>
      <path id="Path_157571" data-name="Path 157571" d="M83.91,241l4.388,7.127a.28.28,0,0,1,.049.053.125.125,0,0,1,0,.053l1.305,2.12,1.1-.521a.306.306,0,0,1,.058-.049.334.334,0,0,1,.143-.045l4.455-2.089Z" transform="translate(-78.395 -158.771)" fill="#39709f"/>
      <path id="Path_157572" data-name="Path 157572" d="M90.5,260.347l-1.194.561a.334.334,0,0,1-.147.031.356.356,0,0,1-.307-.169l-1.305-2.12-4.285,2.477,11.533,6.655Z" transform="translate(-78.035 -168.558)" fill="#39709f"/>
      <g id="Group_99996" data-name="Group 99996" transform="translate(4.869 82.229)" opacity="0.9">
        <path id="Path_157573" data-name="Path 157573" d="M86.732,248.65l-4.272-6.94v9.4Z" transform="translate(-82.46 -241.394)" fill="#fff"/>
        <path id="Path_157574" data-name="Path 157574" d="M100.96,259.279l4.263,7.381v-9.39Z" transform="translate(-92.719 -250.022)" fill="#fff"/>
        <path id="Path_157575" data-name="Path 157575" d="M83.91,241l4.388,7.127a.28.28,0,0,1,.049.053.125.125,0,0,1,0,.053l1.305,2.12,1.1-.521a.306.306,0,0,1,.058-.049.334.334,0,0,1,.143-.045l4.455-2.089Z" transform="translate(-83.264 -241)" fill="#fff"/>
        <path id="Path_157576" data-name="Path 157576" d="M90.5,260.347l-1.194.561a.334.334,0,0,1-.147.031.356.356,0,0,1-.307-.169l-1.305-2.12-4.285,2.477,11.533,6.655Z" transform="translate(-82.904 -250.788)" fill="#fff"/>
      </g>
      <path id="Path_157577" data-name="Path 157577" d="M95.415,66.915,77.7,56.67a1.474,1.474,0,0,0-1.412-.151h0a.856.856,0,0,0-.138.08L72.3,58.857h.027a1.989,1.989,0,0,0-.793,1.831v19.7a5.418,5.418,0,0,0,2.263,4.325L91.509,94.957a1.408,1.408,0,0,0,1.559.067l-.031.022,3.826-2.227h0a1.943,1.943,0,0,0,.815-1.849V71.223A5.31,5.31,0,0,0,95.415,66.915Z" transform="translate(-71.53 -56.404)" fill="#39709f"/>
      <path id="Path_157578" data-name="Path 157578" d="M98,68.768a4.5,4.5,0,0,0-1.63-1.871L78.653,56.67a1.474,1.474,0,0,0-1.412-.151h0a.856.856,0,0,0-.138.08L73.25,58.857a1.439,1.439,0,0,1,1.5.107L92.463,69.209a4.575,4.575,0,0,1,1.67,1.956h0Z" transform="translate(-72.484 -56.404)" fill="#39709f"/>
      <path id="Path_157579" data-name="Path 157579" d="M120.545,108.589a1.981,1.981,0,0,1-.735,1.782l3.826-2.227h0a1.943,1.943,0,0,0,.815-1.849V86.614a5.555,5.555,0,0,0-.633-2.454l-3.867,2.379h0a5.546,5.546,0,0,1,.592,2.37Z" transform="translate(-98.303 -71.796)" fill="#39709f"/>
      <path id="Path_157580" data-name="Path 157580" d="M98,68.768a4.5,4.5,0,0,0-1.63-1.871L78.653,56.67a1.474,1.474,0,0,0-1.412-.151h0a.856.856,0,0,0-.138.08L73.25,58.857a1.439,1.439,0,0,1,1.5.107L92.463,69.209a4.575,4.575,0,0,1,1.67,1.956h0Z" transform="translate(-72.484 -56.404)" opacity="0.3"/>
      <path id="Path_157581" data-name="Path 157581" d="M120.545,108.589a1.981,1.981,0,0,1-.735,1.782l3.826-2.227h0a1.943,1.943,0,0,0,.815-1.849V86.614a5.555,5.555,0,0,0-.633-2.454l-3.867,2.379h0a5.546,5.546,0,0,1,.592,2.37Z" transform="translate(-98.303 -71.796)" opacity="0.6"/>
      <path id="Path_157582" data-name="Path 157582" d="M94.708,97.577c-.682-1.123-1.368-2.227-2.049-3.359a1.746,1.746,0,0,0-1.074-.891c-.33-.067-.659-.143-1-.241a.615.615,0,0,1-.29-.249,28.161,28.161,0,0,1-2.642-6.058.334.334,0,0,1,.036-.272c.209-.209.445-.4.659-.588a1.171,1.171,0,0,0,.169-1.18c-.33-1.189-.646-2.379-.976-3.564A1.951,1.951,0,0,0,86.271,79.7a3.6,3.6,0,0,0-2.183.08c-.272.1-.414.347-.419.771.116.815.192,1.621.347,2.45a35.43,35.43,0,0,0,7.929,16.482,1.27,1.27,0,0,0,.993.57,2.993,2.993,0,0,0,1.884-.726C95.221,98.967,95.181,98.334,94.708,97.577Z" transform="translate(-78.262 -69.248)" fill="#39709f"/>
      <path id="Path_157583" data-name="Path 157583" d="M104.4,98.506a9.461,9.461,0,0,0-1.038-3.671,10.846,10.846,0,0,0-1.67-2.454c-.174-.2-.321-.258-.41-.111s0,.356.169.548l.174.2a9.386,9.386,0,0,1,2.227,5.047,1.782,1.782,0,0,0,.04.405,1.082,1.082,0,0,0,.263.405c.094.067.2,0,.276,0C104.409,98.693,104.413,98.6,104.4,98.506Z" transform="translate(-88.012 -76.248)" fill="#39709f"/>
      <path id="Path_157584" data-name="Path 157584" d="M99.079,97.455a3.764,3.764,0,0,1,.967,2.227,1.417,1.417,0,0,0,.138.361c.272.223.405.147.405-.134a4.9,4.9,0,0,0-1.252-2.855c-.169-.174-.307-.227-.388-.08A.445.445,0,0,0,99.079,97.455Z" transform="translate(-86.722 -78.855)" fill="#39709f"/>
      <g id="Group_99997" data-name="Group 99997" transform="translate(5.408 10.317)" opacity="0.9">
        <path id="Path_157585" data-name="Path 157585" d="M94.708,97.577c-.682-1.123-1.368-2.227-2.049-3.359a1.746,1.746,0,0,0-1.074-.891c-.33-.067-.659-.143-1-.241a.615.615,0,0,1-.29-.249,28.161,28.161,0,0,1-2.642-6.058.334.334,0,0,1,.036-.272c.209-.209.445-.4.659-.588a1.171,1.171,0,0,0,.169-1.18c-.33-1.189-.646-2.379-.976-3.564A1.951,1.951,0,0,0,86.271,79.7a3.6,3.6,0,0,0-2.183.08c-.272.1-.414.347-.419.771.116.815.192,1.621.347,2.45a35.43,35.43,0,0,0,7.929,16.482,1.27,1.27,0,0,0,.993.57,2.993,2.993,0,0,0,1.884-.726C95.221,98.967,95.181,98.334,94.708,97.577Z" transform="translate(-83.67 -79.564)" fill="#fff"/>
        <path id="Path_157586" data-name="Path 157586" d="M104.4,98.506a9.461,9.461,0,0,0-1.038-3.671,10.846,10.846,0,0,0-1.67-2.454c-.174-.2-.321-.258-.41-.111s0,.356.169.548l.174.2a9.386,9.386,0,0,1,2.227,5.047,1.782,1.782,0,0,0,.04.405,1.082,1.082,0,0,0,.263.405c.094.067.2,0,.276,0C104.409,98.693,104.413,98.6,104.4,98.506Z" transform="translate(-93.419 -86.565)" fill="#fff"/>
        <path id="Path_157587" data-name="Path 157587" d="M99.079,97.455a3.764,3.764,0,0,1,.967,2.227,1.417,1.417,0,0,0,.138.361c.272.223.405.147.405-.134a4.9,4.9,0,0,0-1.252-2.855c-.169-.174-.307-.227-.388-.08A.445.445,0,0,0,99.079,97.455Z" transform="translate(-92.13 -89.171)" fill="#fff"/>
      </g>
    </g>
  </g>
</svg>
