<svg xmlns="http://www.w3.org/2000/svg" width="371.563" height="305.264" viewBox="0 0 371.563 305.264">
  <g id="Group_100039" data-name="Group 100039" transform="translate(-136 -6873.455)">
    <g id="Group_98317" data-name="Group 98317" transform="translate(-49 6266.432)">
      <g id="Group_79816" data-name="Group 79816" transform="translate(-835 -504.934)">
        <g id="Group_79776" data-name="Group 79776" transform="translate(98.502)">
          <g id="Group_79644" data-name="Group 79644" transform="translate(921.498 1137.647)">
            <path id="Path_145968" data-name="Path 145968" d="M61.969,0A61.969,61.969,0,1,1,0,61.969,61.969,61.969,0,0,1,61.969,0Z" transform="translate(238.103 150.33)" fill="#fe502d" opacity="0.444" style="mix-blend-mode: multiply;isolation: isolate"/>
            <path id="Path_145969" data-name="Path 145969" d="M42.343,0A42.343,42.343,0,1,1,0,42.343,42.344,42.344,0,0,1,42.343,0Z" transform="translate(34.622 16.168)" fill="#fe502d" opacity="0.444" style="mix-blend-mode: multiply;isolation: isolate"/>
            <rect id="Rectangle_34812" data-name="Rectangle 34812" width="371.563" height="278.672" transform="translate(0 0.451)" fill="none"/>
            <path id="Path_145967" data-name="Path 145967" d="M139.787,0A139.787,139.787,0,1,1,0,139.787,139.787,139.787,0,0,1,139.787,0Z" transform="translate(45.995)" fill="#0d2380"/>
            <path id="Path_145971" data-name="Path 145971" d="M11.642,0A11.642,11.642,0,1,1,0,11.642,11.642,11.642,0,0,1,11.642,0Z" transform="translate(45.995 232.768)" fill="#fe502d" opacity="0.444" style="mix-blend-mode: multiply;isolation: isolate"/>
            <g id="Group_78276" data-name="Group 78276" transform="translate(267.348 193.764)">
              <g id="Group_53306" data-name="Group 53306" transform="translate(0)">
                <path id="Path_99200" data-name="Path 99200" d="M415.9,51.028a.842.842,0,1,1-.842-.8A.824.824,0,0,1,415.9,51.028Z" transform="translate(-414.214 -50.224)" fill="#fff"/>
                <path id="Path_99201" data-name="Path 99201" d="M424.343,51.028a.842.842,0,1,1-.841-.8A.823.823,0,0,1,424.343,51.028Z" transform="translate(-415.087 -50.224)" fill="#fff"/>
                <path id="Path_99202" data-name="Path 99202" d="M432.789,51.028a.842.842,0,1,1-.841-.8A.823.823,0,0,1,432.789,51.028Z" transform="translate(-415.96 -50.224)" fill="#fff"/>
                <path id="Path_99203" data-name="Path 99203" d="M441.236,51.028a.842.842,0,1,1-.842-.8A.824.824,0,0,1,441.236,51.028Z" transform="translate(-416.834 -50.224)" fill="#fff"/>
                <path id="Path_99204" data-name="Path 99204" d="M449.682,51.028a.842.842,0,1,1-.841-.8A.824.824,0,0,1,449.682,51.028Z" transform="translate(-417.707 -50.224)" fill="#fff"/>
                <path id="Path_99205" data-name="Path 99205" d="M458.128,51.028a.842.842,0,1,1-.841-.8A.823.823,0,0,1,458.128,51.028Z" transform="translate(-418.58 -50.224)" fill="#fff"/>
                <path id="Path_99206" data-name="Path 99206" d="M466.575,51.028a.842.842,0,1,1-.842-.8A.824.824,0,0,1,466.575,51.028Z" transform="translate(-419.453 -50.224)" fill="#fff"/>
                <path id="Path_99207" data-name="Path 99207" d="M475.021,51.028a.842.842,0,1,1-.841-.8A.823.823,0,0,1,475.021,51.028Z" transform="translate(-420.326 -50.224)" fill="#fff"/>
                <path id="Path_99208" data-name="Path 99208" d="M483.467,51.028a.842.842,0,1,1-.841-.8A.824.824,0,0,1,483.467,51.028Z" transform="translate(-421.199 -50.224)" fill="#fff"/>
                <path id="Path_99209" data-name="Path 99209" d="M491.914,51.028a.842.842,0,1,1-.842-.8A.824.824,0,0,1,491.914,51.028Z" transform="translate(-422.073 -50.224)" fill="#fff"/>
                <path id="Path_99210" data-name="Path 99210" d="M500.36,51.028a.842.842,0,1,1-.842-.8A.824.824,0,0,1,500.36,51.028Z" transform="translate(-422.946 -50.224)" fill="#fff"/>
              </g>
              <g id="Group_53307" data-name="Group 53307" transform="translate(0 6.438)">
                <path id="Path_99211" data-name="Path 99211" d="M415.9,58.536a.842.842,0,1,1-.842-.8A.824.824,0,0,1,415.9,58.536Z" transform="translate(-414.214 -57.732)" fill="#fff"/>
                <path id="Path_99212" data-name="Path 99212" d="M424.343,58.536a.842.842,0,1,1-.841-.8A.823.823,0,0,1,424.343,58.536Z" transform="translate(-415.087 -57.732)" fill="#fff"/>
                <path id="Path_99213" data-name="Path 99213" d="M432.789,58.536a.842.842,0,1,1-.841-.8A.823.823,0,0,1,432.789,58.536Z" transform="translate(-415.96 -57.732)" fill="#fff"/>
                <path id="Path_99214" data-name="Path 99214" d="M441.236,58.536a.842.842,0,1,1-.842-.8A.824.824,0,0,1,441.236,58.536Z" transform="translate(-416.834 -57.732)" fill="#fff"/>
                <path id="Path_99215" data-name="Path 99215" d="M449.682,58.536a.842.842,0,1,1-.841-.8A.824.824,0,0,1,449.682,58.536Z" transform="translate(-417.707 -57.732)" fill="#fff"/>
                <path id="Path_99216" data-name="Path 99216" d="M458.128,58.536a.842.842,0,1,1-.841-.8A.823.823,0,0,1,458.128,58.536Z" transform="translate(-418.58 -57.732)" fill="#fff"/>
                <path id="Path_99217" data-name="Path 99217" d="M466.575,58.536a.842.842,0,1,1-.842-.8A.824.824,0,0,1,466.575,58.536Z" transform="translate(-419.453 -57.732)" fill="#fff"/>
                <path id="Path_99218" data-name="Path 99218" d="M475.021,58.536a.842.842,0,1,1-.841-.8A.823.823,0,0,1,475.021,58.536Z" transform="translate(-420.326 -57.732)" fill="#fff"/>
                <path id="Path_99219" data-name="Path 99219" d="M483.467,58.536a.842.842,0,1,1-.841-.8A.824.824,0,0,1,483.467,58.536Z" transform="translate(-421.199 -57.732)" fill="#fff"/>
                <path id="Path_99220" data-name="Path 99220" d="M491.914,58.536a.842.842,0,1,1-.842-.8A.824.824,0,0,1,491.914,58.536Z" transform="translate(-422.073 -57.732)" fill="#fff"/>
                <path id="Path_99221" data-name="Path 99221" d="M500.36,58.536a.842.842,0,1,1-.842-.8A.824.824,0,0,1,500.36,58.536Z" transform="translate(-422.946 -57.732)" fill="#fff"/>
              </g>
              <g id="Group_53308" data-name="Group 53308" transform="translate(0 12.875)">
                <ellipse id="Ellipse_3955" data-name="Ellipse 3955" cx="0.841" cy="0.805" rx="0.841" ry="0.805" fill="#fff"/>
                <path id="Path_99222" data-name="Path 99222" d="M424.343,66.044a.842.842,0,1,1-.841-.8A.824.824,0,0,1,424.343,66.044Z" transform="translate(-415.087 -65.24)" fill="#fff"/>
                <ellipse id="Ellipse_3956" data-name="Ellipse 3956" cx="0.841" cy="0.805" rx="0.841" ry="0.805" transform="translate(15.146)" fill="#fff"/>
                <path id="Path_99223" data-name="Path 99223" d="M441.236,66.044a.842.842,0,1,1-.842-.8A.824.824,0,0,1,441.236,66.044Z" transform="translate(-416.833 -65.24)" fill="#fff"/>
                <path id="Path_99224" data-name="Path 99224" d="M449.682,66.044a.842.842,0,1,1-.841-.8A.824.824,0,0,1,449.682,66.044Z" transform="translate(-417.707 -65.24)" fill="#fff"/>
                <ellipse id="Ellipse_3957" data-name="Ellipse 3957" cx="0.841" cy="0.805" rx="0.841" ry="0.805" transform="translate(37.866)" fill="#fff"/>
                <path id="Path_99225" data-name="Path 99225" d="M466.575,66.044a.842.842,0,1,1-.842-.8A.825.825,0,0,1,466.575,66.044Z" transform="translate(-419.453 -65.24)" fill="#fff"/>
                <ellipse id="Ellipse_3958" data-name="Ellipse 3958" cx="0.841" cy="0.805" rx="0.841" ry="0.805" transform="translate(53.012)" fill="#fff"/>
                <ellipse id="Ellipse_3959" data-name="Ellipse 3959" cx="0.841" cy="0.805" rx="0.841" ry="0.805" transform="translate(60.585)" fill="#fff"/>
                <path id="Path_99226" data-name="Path 99226" d="M491.914,66.044a.842.842,0,1,1-.842-.8A.825.825,0,0,1,491.914,66.044Z" transform="translate(-422.073 -65.24)" fill="#fff"/>
                <path id="Path_99227" data-name="Path 99227" d="M500.36,66.044a.842.842,0,1,1-.842-.8A.824.824,0,0,1,500.36,66.044Z" transform="translate(-422.946 -65.24)" fill="#fff"/>
              </g>
              <g id="Group_53309" data-name="Group 53309" transform="translate(0 19.313)">
                <ellipse id="Ellipse_3960" data-name="Ellipse 3960" cx="0.841" cy="0.805" rx="0.841" ry="0.805" transform="translate(0 0)" fill="#fff"/>
                <path id="Path_99228" data-name="Path 99228" d="M424.343,73.552a.842.842,0,1,1-.841-.805A.823.823,0,0,1,424.343,73.552Z" transform="translate(-415.087 -72.747)" fill="#fff"/>
                <ellipse id="Ellipse_3961" data-name="Ellipse 3961" cx="0.841" cy="0.805" rx="0.841" ry="0.805" transform="translate(15.146 0)" fill="#fff"/>
                <path id="Path_99229" data-name="Path 99229" d="M441.236,73.552a.842.842,0,1,1-.842-.805A.824.824,0,0,1,441.236,73.552Z" transform="translate(-416.833 -72.747)" fill="#fff"/>
                <path id="Path_99230" data-name="Path 99230" d="M449.682,73.552a.842.842,0,1,1-.841-.805A.823.823,0,0,1,449.682,73.552Z" transform="translate(-417.707 -72.747)" fill="#fff"/>
                <ellipse id="Ellipse_3962" data-name="Ellipse 3962" cx="0.841" cy="0.805" rx="0.841" ry="0.805" transform="translate(37.866 0)" fill="#fff"/>
                <path id="Path_99231" data-name="Path 99231" d="M466.575,73.552a.842.842,0,1,1-.842-.805A.824.824,0,0,1,466.575,73.552Z" transform="translate(-419.453 -72.747)" fill="#fff"/>
                <ellipse id="Ellipse_3963" data-name="Ellipse 3963" cx="0.841" cy="0.805" rx="0.841" ry="0.805" transform="translate(53.012 0)" fill="#fff"/>
                <ellipse id="Ellipse_3964" data-name="Ellipse 3964" cx="0.841" cy="0.805" rx="0.841" ry="0.805" transform="translate(60.585 0)" fill="#fff"/>
                <path id="Path_99232" data-name="Path 99232" d="M491.914,73.552a.842.842,0,1,1-.842-.805A.824.824,0,0,1,491.914,73.552Z" transform="translate(-422.073 -72.747)" fill="#fff"/>
                <path id="Path_99233" data-name="Path 99233" d="M500.36,73.552a.842.842,0,1,1-.842-.805A.824.824,0,0,1,500.36,73.552Z" transform="translate(-422.946 -72.747)" fill="#fff"/>
              </g>
              <g id="Group_53310" data-name="Group 53310" transform="translate(0 25.75)">
                <path id="Path_99234" data-name="Path 99234" d="M415.9,81.06a.842.842,0,1,1-.842-.805A.824.824,0,0,1,415.9,81.06Z" transform="translate(-414.214 -80.255)" fill="#fff"/>
                <path id="Path_99235" data-name="Path 99235" d="M424.343,81.06a.842.842,0,1,1-.841-.805A.823.823,0,0,1,424.343,81.06Z" transform="translate(-415.087 -80.255)" fill="#fff"/>
                <path id="Path_99236" data-name="Path 99236" d="M432.789,81.06a.842.842,0,1,1-.841-.805A.823.823,0,0,1,432.789,81.06Z" transform="translate(-415.96 -80.255)" fill="#fff"/>
                <path id="Path_99237" data-name="Path 99237" d="M441.236,81.06a.842.842,0,1,1-.842-.805A.824.824,0,0,1,441.236,81.06Z" transform="translate(-416.834 -80.255)" fill="#fff"/>
                <path id="Path_99238" data-name="Path 99238" d="M449.682,81.06a.842.842,0,1,1-.841-.805A.823.823,0,0,1,449.682,81.06Z" transform="translate(-417.707 -80.255)" fill="#fff"/>
                <path id="Path_99239" data-name="Path 99239" d="M458.128,81.06a.842.842,0,1,1-.841-.805A.823.823,0,0,1,458.128,81.06Z" transform="translate(-418.58 -80.255)" fill="#fff"/>
                <path id="Path_99240" data-name="Path 99240" d="M466.575,81.06a.842.842,0,1,1-.842-.805A.824.824,0,0,1,466.575,81.06Z" transform="translate(-419.453 -80.255)" fill="#fff"/>
                <path id="Path_99241" data-name="Path 99241" d="M475.021,81.06a.842.842,0,1,1-.841-.805A.823.823,0,0,1,475.021,81.06Z" transform="translate(-420.326 -80.255)" fill="#fff"/>
                <path id="Path_99242" data-name="Path 99242" d="M483.467,81.06a.842.842,0,1,1-.841-.805A.823.823,0,0,1,483.467,81.06Z" transform="translate(-421.199 -80.255)" fill="#fff"/>
                <path id="Path_99243" data-name="Path 99243" d="M491.914,81.06a.842.842,0,1,1-.842-.805A.824.824,0,0,1,491.914,81.06Z" transform="translate(-422.073 -80.255)" fill="#fff"/>
                <path id="Path_99244" data-name="Path 99244" d="M500.36,81.06a.842.842,0,1,1-.842-.805A.824.824,0,0,1,500.36,81.06Z" transform="translate(-422.946 -80.255)" fill="#fff"/>
              </g>
              <g id="Group_53311" data-name="Group 53311" transform="translate(0 32.188)">
                <ellipse id="Ellipse_3965" data-name="Ellipse 3965" cx="0.841" cy="0.805" rx="0.841" ry="0.805" transform="translate(0 0)" fill="#fff"/>
                <path id="Path_99245" data-name="Path 99245" d="M424.343,88.568a.842.842,0,1,1-.841-.805A.823.823,0,0,1,424.343,88.568Z" transform="translate(-415.087 -87.763)" fill="#fff"/>
                <ellipse id="Ellipse_3966" data-name="Ellipse 3966" cx="0.841" cy="0.805" rx="0.841" ry="0.805" transform="translate(15.146 0)" fill="#fff"/>
                <path id="Path_99246" data-name="Path 99246" d="M441.236,88.568a.842.842,0,1,1-.842-.805A.824.824,0,0,1,441.236,88.568Z" transform="translate(-416.833 -87.763)" fill="#fff"/>
                <path id="Path_99247" data-name="Path 99247" d="M449.682,88.568a.842.842,0,1,1-.841-.805A.823.823,0,0,1,449.682,88.568Z" transform="translate(-417.707 -87.763)" fill="#fff"/>
                <ellipse id="Ellipse_3967" data-name="Ellipse 3967" cx="0.841" cy="0.805" rx="0.841" ry="0.805" transform="translate(37.866 0)" fill="#fff"/>
                <path id="Path_99248" data-name="Path 99248" d="M466.575,88.568a.842.842,0,1,1-.842-.805A.824.824,0,0,1,466.575,88.568Z" transform="translate(-419.453 -87.763)" fill="#fff"/>
                <ellipse id="Ellipse_3968" data-name="Ellipse 3968" cx="0.841" cy="0.805" rx="0.841" ry="0.805" transform="translate(53.012 0)" fill="#fff"/>
                <ellipse id="Ellipse_3969" data-name="Ellipse 3969" cx="0.841" cy="0.805" rx="0.841" ry="0.805" transform="translate(60.585 0)" fill="#fff"/>
                <path id="Path_99249" data-name="Path 99249" d="M491.914,88.568a.842.842,0,1,1-.842-.805A.824.824,0,0,1,491.914,88.568Z" transform="translate(-422.073 -87.763)" fill="#fff"/>
                <path id="Path_99250" data-name="Path 99250" d="M500.36,88.568a.842.842,0,1,1-.842-.805A.824.824,0,0,1,500.36,88.568Z" transform="translate(-422.946 -87.763)" fill="#fff"/>
              </g>
              <g id="Group_53312" data-name="Group 53312" transform="translate(0 38.626)">
                <ellipse id="Ellipse_3970" data-name="Ellipse 3970" cx="0.841" cy="0.805" rx="0.841" ry="0.805" fill="#fff"/>
                <path id="Path_99251" data-name="Path 99251" d="M424.343,96.075a.842.842,0,1,1-.841-.8A.823.823,0,0,1,424.343,96.075Z" transform="translate(-415.087 -95.271)" fill="#fff"/>
                <ellipse id="Ellipse_3971" data-name="Ellipse 3971" cx="0.841" cy="0.805" rx="0.841" ry="0.805" transform="translate(15.146)" fill="#fff"/>
                <path id="Path_99252" data-name="Path 99252" d="M441.236,96.075a.842.842,0,1,1-.842-.8A.824.824,0,0,1,441.236,96.075Z" transform="translate(-416.833 -95.271)" fill="#fff"/>
                <path id="Path_99253" data-name="Path 99253" d="M449.682,96.075a.842.842,0,1,1-.841-.8A.824.824,0,0,1,449.682,96.075Z" transform="translate(-417.707 -95.271)" fill="#fff"/>
                <ellipse id="Ellipse_3972" data-name="Ellipse 3972" cx="0.841" cy="0.805" rx="0.841" ry="0.805" transform="translate(37.866)" fill="#fff"/>
                <path id="Path_99254" data-name="Path 99254" d="M466.575,96.075a.842.842,0,1,1-.842-.8A.824.824,0,0,1,466.575,96.075Z" transform="translate(-419.453 -95.271)" fill="#fff"/>
                <ellipse id="Ellipse_3973" data-name="Ellipse 3973" cx="0.841" cy="0.805" rx="0.841" ry="0.805" transform="translate(53.012)" fill="#fff"/>
                <ellipse id="Ellipse_3974" data-name="Ellipse 3974" cx="0.841" cy="0.805" rx="0.841" ry="0.805" transform="translate(60.585)" fill="#fff"/>
                <path id="Path_99255" data-name="Path 99255" d="M491.914,96.075a.842.842,0,1,1-.842-.8A.824.824,0,0,1,491.914,96.075Z" transform="translate(-422.073 -95.271)" fill="#fff"/>
                <path id="Path_99256" data-name="Path 99256" d="M500.36,96.075a.842.842,0,1,1-.842-.8A.824.824,0,0,1,500.36,96.075Z" transform="translate(-422.946 -95.271)" fill="#fff"/>
              </g>
              <g id="Group_53313" data-name="Group 53313" transform="translate(0 45.063)">
                <path id="Path_99257" data-name="Path 99257" d="M415.9,103.583a.842.842,0,1,1-.842-.8A.824.824,0,0,1,415.9,103.583Z" transform="translate(-414.214 -102.779)" fill="#fff"/>
                <path id="Path_99258" data-name="Path 99258" d="M424.343,103.583a.842.842,0,1,1-.841-.8A.823.823,0,0,1,424.343,103.583Z" transform="translate(-415.087 -102.779)" fill="#fff"/>
                <path id="Path_99259" data-name="Path 99259" d="M432.789,103.583a.842.842,0,1,1-.841-.8A.823.823,0,0,1,432.789,103.583Z" transform="translate(-415.96 -102.779)" fill="#fff"/>
                <path id="Path_99260" data-name="Path 99260" d="M441.236,103.583a.842.842,0,1,1-.842-.8A.824.824,0,0,1,441.236,103.583Z" transform="translate(-416.834 -102.779)" fill="#fff"/>
                <path id="Path_99261" data-name="Path 99261" d="M449.682,103.583a.842.842,0,1,1-.841-.8A.824.824,0,0,1,449.682,103.583Z" transform="translate(-417.707 -102.779)" fill="#fff"/>
                <path id="Path_99262" data-name="Path 99262" d="M458.128,103.583a.842.842,0,1,1-.841-.8A.823.823,0,0,1,458.128,103.583Z" transform="translate(-418.58 -102.779)" fill="#fff"/>
                <path id="Path_99263" data-name="Path 99263" d="M466.575,103.583a.842.842,0,1,1-.842-.8A.824.824,0,0,1,466.575,103.583Z" transform="translate(-419.453 -102.779)" fill="#fff"/>
                <path id="Path_99264" data-name="Path 99264" d="M475.021,103.583a.842.842,0,1,1-.841-.8A.824.824,0,0,1,475.021,103.583Z" transform="translate(-420.326 -102.779)" fill="#fff"/>
                <path id="Path_99265" data-name="Path 99265" d="M483.467,103.583a.842.842,0,1,1-.841-.8A.824.824,0,0,1,483.467,103.583Z" transform="translate(-421.199 -102.779)" fill="#fff"/>
                <path id="Path_99266" data-name="Path 99266" d="M491.914,103.583a.842.842,0,1,1-.842-.8A.824.824,0,0,1,491.914,103.583Z" transform="translate(-422.073 -102.779)" fill="#fff"/>
                <path id="Path_99267" data-name="Path 99267" d="M500.36,103.583a.842.842,0,1,1-.842-.8A.824.824,0,0,1,500.36,103.583Z" transform="translate(-422.946 -102.779)" fill="#fff"/>
              </g>
              <g id="Group_53314" data-name="Group 53314" transform="translate(0 51.501)">
                <ellipse id="Ellipse_3975" data-name="Ellipse 3975" cx="0.841" cy="0.805" rx="0.841" ry="0.805" fill="#fff"/>
                <path id="Path_99268" data-name="Path 99268" d="M424.343,111.091a.842.842,0,1,1-.841-.8A.824.824,0,0,1,424.343,111.091Z" transform="translate(-415.087 -110.287)" fill="#fff"/>
                <ellipse id="Ellipse_3976" data-name="Ellipse 3976" cx="0.841" cy="0.805" rx="0.841" ry="0.805" transform="translate(15.146)" fill="#fff"/>
                <path id="Path_99269" data-name="Path 99269" d="M441.236,111.091a.842.842,0,1,1-.842-.8A.824.824,0,0,1,441.236,111.091Z" transform="translate(-416.833 -110.287)" fill="#fff"/>
                <path id="Path_99270" data-name="Path 99270" d="M449.682,111.091a.842.842,0,1,1-.841-.8A.824.824,0,0,1,449.682,111.091Z" transform="translate(-417.707 -110.287)" fill="#fff"/>
                <ellipse id="Ellipse_3977" data-name="Ellipse 3977" cx="0.841" cy="0.805" rx="0.841" ry="0.805" transform="translate(37.866)" fill="#fff"/>
                <path id="Path_99271" data-name="Path 99271" d="M466.575,111.091a.842.842,0,1,1-.842-.8A.825.825,0,0,1,466.575,111.091Z" transform="translate(-419.453 -110.287)" fill="#fff"/>
                <ellipse id="Ellipse_3978" data-name="Ellipse 3978" cx="0.841" cy="0.805" rx="0.841" ry="0.805" transform="translate(53.012)" fill="#fff"/>
                <ellipse id="Ellipse_3979" data-name="Ellipse 3979" cx="0.841" cy="0.805" rx="0.841" ry="0.805" transform="translate(60.585)" fill="#fff"/>
                <path id="Path_99272" data-name="Path 99272" d="M491.914,111.091a.842.842,0,1,1-.842-.8A.825.825,0,0,1,491.914,111.091Z" transform="translate(-422.073 -110.287)" fill="#fff"/>
                <path id="Path_99273" data-name="Path 99273" d="M500.36,111.091a.842.842,0,1,1-.842-.8A.824.824,0,0,1,500.36,111.091Z" transform="translate(-422.946 -110.287)" fill="#fff"/>
              </g>
              <g id="Group_53315" data-name="Group 53315" transform="translate(0 57.938)">
                <path id="Path_99274" data-name="Path 99274" d="M415.9,118.6a.842.842,0,1,1-.842-.805A.824.824,0,0,1,415.9,118.6Z" transform="translate(-414.214 -117.794)" fill="#fff"/>
                <path id="Path_99275" data-name="Path 99275" d="M424.343,118.6a.842.842,0,1,1-.841-.805A.824.824,0,0,1,424.343,118.6Z" transform="translate(-415.087 -117.794)" fill="#fff"/>
                <path id="Path_99276" data-name="Path 99276" d="M432.789,118.6a.842.842,0,1,1-.841-.805A.824.824,0,0,1,432.789,118.6Z" transform="translate(-415.96 -117.794)" fill="#fff"/>
                <path id="Path_99277" data-name="Path 99277" d="M441.236,118.6a.842.842,0,1,1-.842-.805A.824.824,0,0,1,441.236,118.6Z" transform="translate(-416.834 -117.794)" fill="#fff"/>
                <path id="Path_99278" data-name="Path 99278" d="M449.682,118.6a.842.842,0,1,1-.841-.805A.824.824,0,0,1,449.682,118.6Z" transform="translate(-417.707 -117.794)" fill="#fff"/>
                <path id="Path_99279" data-name="Path 99279" d="M458.128,118.6a.842.842,0,1,1-.841-.805A.824.824,0,0,1,458.128,118.6Z" transform="translate(-418.58 -117.794)" fill="#fff"/>
                <path id="Path_99280" data-name="Path 99280" d="M466.575,118.6a.842.842,0,1,1-.842-.805A.825.825,0,0,1,466.575,118.6Z" transform="translate(-419.453 -117.794)" fill="#fff"/>
                <path id="Path_99281" data-name="Path 99281" d="M475.021,118.6a.842.842,0,1,1-.841-.805A.824.824,0,0,1,475.021,118.6Z" transform="translate(-420.326 -117.794)" fill="#fff"/>
                <path id="Path_99282" data-name="Path 99282" d="M483.467,118.6a.842.842,0,1,1-.841-.805A.824.824,0,0,1,483.467,118.6Z" transform="translate(-421.199 -117.794)" fill="#fff"/>
                <path id="Path_99283" data-name="Path 99283" d="M491.914,118.6a.842.842,0,1,1-.842-.805A.825.825,0,0,1,491.914,118.6Z" transform="translate(-422.073 -117.794)" fill="#fff"/>
                <path id="Path_99284" data-name="Path 99284" d="M500.36,118.6a.842.842,0,1,1-.842-.805A.824.824,0,0,1,500.36,118.6Z" transform="translate(-422.946 -117.794)" fill="#fff"/>
              </g>
              <g id="Group_53316" data-name="Group 53316" transform="translate(0 64.376)">
                <ellipse id="Ellipse_3980" data-name="Ellipse 3980" cx="0.841" cy="0.805" rx="0.841" ry="0.805" transform="translate(0 0)" fill="#fff"/>
                <path id="Path_99285" data-name="Path 99285" d="M424.343,126.107a.842.842,0,1,1-.841-.805A.823.823,0,0,1,424.343,126.107Z" transform="translate(-415.087 -125.302)" fill="#fff"/>
                <ellipse id="Ellipse_3981" data-name="Ellipse 3981" cx="0.841" cy="0.805" rx="0.841" ry="0.805" transform="translate(15.146 0)" fill="#fff"/>
                <path id="Path_99286" data-name="Path 99286" d="M441.236,126.107a.842.842,0,1,1-.842-.805A.824.824,0,0,1,441.236,126.107Z" transform="translate(-416.833 -125.302)" fill="#fff"/>
                <path id="Path_99287" data-name="Path 99287" d="M449.682,126.107a.842.842,0,1,1-.841-.805A.823.823,0,0,1,449.682,126.107Z" transform="translate(-417.707 -125.302)" fill="#fff"/>
                <ellipse id="Ellipse_3982" data-name="Ellipse 3982" cx="0.841" cy="0.805" rx="0.841" ry="0.805" transform="translate(37.866 0)" fill="#fff"/>
                <path id="Path_99288" data-name="Path 99288" d="M466.575,126.107a.842.842,0,1,1-.842-.805A.824.824,0,0,1,466.575,126.107Z" transform="translate(-419.453 -125.302)" fill="#fff"/>
                <ellipse id="Ellipse_3983" data-name="Ellipse 3983" cx="0.841" cy="0.805" rx="0.841" ry="0.805" transform="translate(53.012 0)" fill="#fff"/>
                <ellipse id="Ellipse_3984" data-name="Ellipse 3984" cx="0.841" cy="0.805" rx="0.841" ry="0.805" transform="translate(60.585 0)" fill="#fff"/>
                <path id="Path_99289" data-name="Path 99289" d="M491.914,126.107a.842.842,0,1,1-.842-.805A.824.824,0,0,1,491.914,126.107Z" transform="translate(-422.073 -125.302)" fill="#fff"/>
                <path id="Path_99290" data-name="Path 99290" d="M500.36,126.107a.842.842,0,1,1-.842-.805A.824.824,0,0,1,500.36,126.107Z" transform="translate(-422.946 -125.302)" fill="#fff"/>
              </g>
              <g id="Group_53317" data-name="Group 53317" transform="translate(0 70.814)">
                <ellipse id="Ellipse_3985" data-name="Ellipse 3985" cx="0.841" cy="0.805" rx="0.841" ry="0.805" transform="translate(0 0)" fill="#fff"/>
                <path id="Path_99291" data-name="Path 99291" d="M424.343,133.615a.842.842,0,1,1-.841-.805A.823.823,0,0,1,424.343,133.615Z" transform="translate(-415.087 -132.81)" fill="#fff"/>
                <ellipse id="Ellipse_3986" data-name="Ellipse 3986" cx="0.841" cy="0.805" rx="0.841" ry="0.805" transform="translate(15.146 0)" fill="#fff"/>
                <path id="Path_99292" data-name="Path 99292" d="M441.236,133.615a.842.842,0,1,1-.842-.805A.824.824,0,0,1,441.236,133.615Z" transform="translate(-416.833 -132.81)" fill="#fff"/>
                <path id="Path_99293" data-name="Path 99293" d="M449.682,133.615a.842.842,0,1,1-.841-.805A.823.823,0,0,1,449.682,133.615Z" transform="translate(-417.707 -132.81)" fill="#fff"/>
                <ellipse id="Ellipse_3987" data-name="Ellipse 3987" cx="0.841" cy="0.805" rx="0.841" ry="0.805" transform="translate(37.866 0)" fill="#fff"/>
                <path id="Path_99294" data-name="Path 99294" d="M466.575,133.615a.842.842,0,1,1-.842-.805A.824.824,0,0,1,466.575,133.615Z" transform="translate(-419.453 -132.81)" fill="#fff"/>
                <ellipse id="Ellipse_3988" data-name="Ellipse 3988" cx="0.841" cy="0.805" rx="0.841" ry="0.805" transform="translate(53.012 0)" fill="#fff"/>
                <ellipse id="Ellipse_3989" data-name="Ellipse 3989" cx="0.841" cy="0.805" rx="0.841" ry="0.805" transform="translate(60.585 0)" fill="#fff"/>
                <path id="Path_99295" data-name="Path 99295" d="M491.914,133.615a.842.842,0,1,1-.842-.805A.824.824,0,0,1,491.914,133.615Z" transform="translate(-422.073 -132.81)" fill="#fff"/>
                <path id="Path_99296" data-name="Path 99296" d="M500.36,133.615a.842.842,0,1,1-.842-.805A.824.824,0,0,1,500.36,133.615Z" transform="translate(-422.946 -132.81)" fill="#fff"/>
              </g>
            </g>
            <line id="Line_138" data-name="Line 138" y2="164.629" transform="translate(12.166 65.357)" fill="none" stroke="#fff" stroke-width="1" stroke-dasharray="8"/>
          </g>
        </g>
      </g>
    </g>
    <g id="High_five-amico" data-name="High five-amico" transform="translate(156.996 6851.545)">
      <g id="freepik--Floor--inject-121" transform="translate(42.123 159.421)" opacity="0.22">
        <g id="freepik--floor--inject-121-2" data-name="freepik--floor--inject-121">
          <ellipse id="freepik--floor--inject-121-3" data-name="freepik--floor--inject-121" cx="132.947" cy="76.758" rx="132.947" ry="76.758" fill="#bac2e6" opacity="0.7"/>
        </g>
      </g>
      <g id="freepik--Shadows--inject-121" transform="translate(73.571 259.2)" opacity="0.15">
        <ellipse id="freepik--Shadow--inject-121" cx="39.327" cy="22.705" rx="39.327" ry="22.705" transform="translate(129.15)" fill="#e0e0e0"/>
        <ellipse id="freepik--shadow--inject-121-2" data-name="freepik--shadow--inject-121" cx="39.327" cy="22.705" rx="39.327" ry="22.705" fill="#e0e0e0"/>
      </g>
      <g id="freepik--Plants--inject-121" transform="translate(34.024 159.421)" opacity="0.79">
        <g id="freepik--plants--inject-121-2" data-name="freepik--plants--inject-121" transform="translate(257.478)">
          <path id="Path_158303" data-name="Path 158303" d="M430.515,249.95l-6.405-3.7s-1.566-13.712-.524-24.331c1.465-14.928,11.1-32.881,22.6-28.667s-5.276,19.418-9.007,32.074S430.515,249.95,430.515,249.95Z" transform="translate(-423.228 -192.631)" fill="#71a7d3"/>
          <path id="Path_158304" data-name="Path 158304" d="M430.515,249.95l-6.405-3.7s-1.566-13.712-.524-24.331c1.465-14.928,11.1-32.881,22.6-28.667s-5.276,19.418-9.007,32.074S430.515,249.95,430.515,249.95Z" transform="translate(-423.228 -192.631)" opacity="0.15"/>
          <path id="Path_158305" data-name="Path 158305" d="M428.836,250.694h0a.39.39,0,0,0,.37-.4c-1.122-33.163,15.385-49.839,15.553-50.007a.39.39,0,0,0-.544-.551c-.175.168-16.918,17.086-15.782,50.585a.383.383,0,0,0,.4.37Z" transform="translate(-424.916 -194.934)" fill="#fff"/>
          <path id="Path_158306" data-name="Path 158306" d="M437.813,261.742l-4.557-2.635a50.152,50.152,0,0,1,3.838-20.836c4.033-9.954,13.98-18.208,18.995-16.474s4.886,5.29,2.44,9.013S441.221,243.426,437.813,261.742Z" transform="translate(-426.499 -202.118)" fill="#71a7d3"/>
          <path id="Path_158307" data-name="Path 158307" d="M436.29,262.108h0a.39.39,0,0,0,.39-.39c-.094-20.964,19.593-35.132,19.794-35.274a.39.39,0,0,0,.087-.544.376.376,0,0,0-.538-.087c-.2.141-20.211,14.545-20.124,35.912A.4.4,0,0,0,436.29,262.108Z" transform="translate(-427.383 -203.485)" fill="#fff"/>
        </g>
        <g id="freepik--plants--inject-121-3" data-name="freepik--plants--inject-121" transform="translate(0 0.243)">
          <path id="Path_158308" data-name="Path 158308" d="M69.733,243.468l5.377-3.119S78.323,227,77.046,214.983c-1.8-16.891-12.925-23.242-17.153-21.791s-5.451,6.372,1.546,16.434C65.559,215.561,70.661,227.948,69.733,243.468Z" transform="translate(-45.498 -192.992)" fill="#71a7d3"/>
          <g id="Group_100013" data-name="Group 100013" transform="translate(10.958)" opacity="0.15">
            <path id="Path_158309" data-name="Path 158309" d="M69.733,243.468l5.377-3.119S78.323,227,77.046,214.983c-1.8-16.891-12.925-23.242-17.153-21.791s-5.451,6.372,1.546,16.434C65.559,215.561,70.661,227.948,69.733,243.468Z" transform="translate(-56.456 -192.992)"/>
          </g>
          <path id="Path_158310" data-name="Path 158310" d="M74.826,238.125h-.054a.37.37,0,0,1-.3-.437c2.957-15.58-2.487-33.082-9.228-40.368a.376.376,0,0,1,.551-.511c6.862,7.393,12.414,25.212,9.41,41A.363.363,0,0,1,74.826,238.125Z" transform="translate(-48.352 -194.209)" fill="#fff"/>
          <path id="Path_158311" data-name="Path 158311" d="M50.246,258.285c-.854.437-3.125-1.506-3.757-1.976a7.918,7.918,0,0,1-2.48-3.152,7.481,7.481,0,0,1-.43-4.483,17.578,17.578,0,0,1,.672-2.339c.262-.759.518-1.512.78-2.265a5.848,5.848,0,0,0,.45-2.305c-.121-1.58-1.459-2.749-2.689-3.764-1.344-1.122-2.736-2.581-2.635-4.476a6.654,6.654,0,0,1,1.909-3.871c.961-1.1,2.084-2.063,2.964-3.226a4.7,4.7,0,0,0,1.069-2.9,4.873,4.873,0,0,0-.551-1.869,26.435,26.435,0,0,1-1.821-3.784,3.7,3.7,0,0,1,.833-3.885,4.481,4.481,0,0,1,3.3-.672,7.507,7.507,0,0,1,2.971,1.217c2.924,1.822,4.456,5.471,7.575,6.916a32.261,32.261,0,0,0,3.824,1.163,4.742,4.742,0,0,1,3.072,2.339c1.055,2.393-1.264,5.169-.565,7.689.618,2.231,2.689,3.179,3.8,5.216a4.7,4.7,0,0,1,.417,2.9,13.846,13.846,0,0,1-1.459,4.8,42.8,42.8,0,0,1-2.883,4.429Z" transform="translate(-40.152 -199.642)" fill="#71a7d3"/>
          <path id="Path_158312" data-name="Path 158312" d="M62.531,255.482h0a.383.383,0,0,1-.35-.41c1.344-14.821-4.8-31.59-9.645-36.584a.375.375,0,0,1,.531-.531c4.94,5.128,11.245,22.174,9.827,37.182A.37.37,0,0,1,62.531,255.482Z" transform="translate(-44.177 -201.141)" fill="#fff"/>
          <path id="Path_158313" data-name="Path 158313" d="M59.836,245.173a.3.3,0,0,1-.108,0,50.043,50.043,0,0,0-10.687-2.279.376.376,0,0,1-.343-.41.356.356,0,0,1,.41-.336,50.76,50.76,0,0,1,10.875,2.319.376.376,0,0,1-.148.726Z" transform="translate(-42.954 -209.107)" fill="#fff"/>
        </g>
      </g>
      <g id="freepik--character-2--inject-121" transform="translate(176.679 37.477)">
        <g id="freepik--Character--inject-121">
          <path id="Path_158314" data-name="Path 158314" d="M362.677,273.1s-1.694-1.344-2.554-1.163c-.4.081-.108,1.183-.571,3.267a4.745,4.745,0,0,1-1.082,2.016l-.309.087h-.087l-.82.228c-7.158,2.016-23.363,6.385-31.476,7.239-6.19.672-8.684-.975-10.391-6.446-2.689-8.738-4.523-30.112-5.028-36.645-4.436,10.532-8.664,21.213-12.589,31.9,9.094,7.716,15.022,30.427,18.248,39.259l.719,1.862.363.928s1.781,2.11-.719,4.792-5.464,2.742-6.815,1.243c-7.232-10.156-19.868-27.067-25.9-37.122-4.288-7.165-4.933-8.5-4.093-13.57a436.3,436.3,0,0,1,13.49-55.337l.1-.242,38.177,2.359c2.4,18.49-.215,50.41-.215,50.41l25.071-1.19h0l1.707-.168h0a5.682,5.682,0,0,1,1.795,2.594C360.1,270.5,361.817,271.261,362.677,273.1Z" transform="translate(-261.201 -100.916)" fill="#b16668"/>
          <path id="Path_158315" data-name="Path 158315" d="M381.375,302.687l.82-.228h.087l.309-.087a4.745,4.745,0,0,0,1.082-2.016c.464-2.084.168-3.186.571-3.267.86-.168,2.554,1.163,2.554,1.163-.86-1.842-2.547-2.534-2.951-3.636a5.644,5.644,0,0,0-1.795-2.594h0l-1.707.168h0l-25.1,1.163s3.119,10.452-2.42,16.178C361.447,308.138,375,304.454,381.375,302.687Z" transform="translate(-285.324 -126.037)" fill="#f3f9ff"/>
          <path id="Path_158316" data-name="Path 158316" d="M357.763,309.172a16.945,16.945,0,0,0,.618-15.412l-3.132.155s3.119,10.452-2.42,16.178C354.342,309.851,356.009,309.535,357.763,309.172Z" transform="translate(-285.324 -126.608)" fill="#71a7d3"/>
          <path id="Path_158317" data-name="Path 158317" d="M319.492,345.013l-.672-1.862c-2.823-7.676-7.642-25.689-14.787-35.4-2.346,6.379-11.951,9.948-16.333,9.154,6.4,10.183,17.879,25.575,24.634,35.072,1.344,1.5,4.308,1.445,6.815-1.243s.719-4.792.719-4.792Z" transform="translate(-263.97 -131.195)" fill="#f3f9ff"/>
          <path id="Path_158318" data-name="Path 158318" d="M304.033,307.75c-2.346,6.379-11.951,9.948-16.333,9.154.793,1.264,1.66,2.6,2.588,3.992a18.484,18.484,0,0,0,16.293-9.188A40.548,40.548,0,0,0,304.033,307.75Z" transform="translate(-263.97 -131.195)" fill="#71a7d3"/>
          <path id="Path_158319" data-name="Path 158319" d="M332.775,368.5c.43.538,1.2,1.653,1.109,2.279a35.646,35.646,0,0,0-1.344,7.064c-.121,2.9,1.156,8.429-1.64,12.361-2.46,3.448-4.7,4.261-6.721,4.644a5.088,5.088,0,0,1-4.544-1.075s-1.795-1.606-.995-2.843S332.775,368.5,332.775,368.5Z" transform="translate(-274.046 -151.113)" fill="#37474f"/>
          <path id="Path_158320" data-name="Path 158320" d="M332.705,365.736a3.79,3.79,0,0,0-1.022-2.151,7.136,7.136,0,0,1-2.07-2.91c-.114-.437-.215-1.257-.753-1.4h-.531l.41,1.217c-.229.5-.672,1.68-.887,2.2-.484,1.344.128,2.749-.84,3.925-.067-1.492-.128-3.219-1.116-3.2-.672,0-1.855.907-3.2,1.1s-2.406-.074-2.931.121-.228.86.108,2.406a25.126,25.126,0,0,1,.733,5.29c-.114,1.425-.262,2.9-.47,4.3-.8,5.417-2.769,8.2-2.319,11.117.464,3.025,5.222,4.087,8.65,1.465,5.834-4.456,4.631-8.946,4.53-12.26a21.678,21.678,0,0,1,.585-6.372C332.121,368.633,332.705,367.631,332.705,365.736Z" transform="translate(-273.823 -148.086)" fill="#71a7d3"/>
          <path id="Path_158321" data-name="Path 158321" d="M332.705,365.736a3.79,3.79,0,0,0-1.022-2.151,7.136,7.136,0,0,1-2.07-2.91c-.114-.437-.215-1.257-.753-1.4h-.531l.41,1.217c-.229.5-.672,1.68-.887,2.2-.484,1.344.128,2.749-.84,3.925-.067-1.492-.128-3.219-1.116-3.2-.672,0-1.855.907-3.2,1.1s-2.406-.074-2.931.121-.228.86.108,2.406a25.126,25.126,0,0,1,.733,5.29c-.114,1.425-.262,2.9-.47,4.3-.8,5.417-2.769,8.2-2.319,11.117.464,3.025,5.222,4.087,8.65,1.465,5.834-4.456,4.631-8.946,4.53-12.26a21.678,21.678,0,0,1,.585-6.372C332.121,368.633,332.705,367.631,332.705,365.736Z" transform="translate(-273.823 -148.086)" opacity="0.4"/>
          <path id="Path_158322" data-name="Path 158322" d="M333.487,360.681a.1.1,0,0,0,0,.04v.074a18.353,18.353,0,0,1-.491,2.211c-.188.874-.309,1.761-.437,2.648-.087.618-.134,1.237-.161,1.862s-.054,1.129-.047,1.694c.04,2.689.43,4.833-.235,8.281s-1.64,3.777-2.332,3.361-.054-1.311.6-4.342c.672-3.172.121-6.641.464-9.9h0a2.212,2.212,0,0,0,.484-.961h0c.235-.948,0-1.976.356-2.944.195-.518.672-1.694.887-2.2l-.41-1.217h.531c.336.087.5.444.6.807A3.778,3.778,0,0,1,333.487,360.681Z" transform="translate(-277.669 -148.093)" opacity="0.15"/>
          <path id="Path_158323" data-name="Path 158323" d="M327.731,393.329c-1.795,1.042-2.877.807-2.836-.968a8.583,8.583,0,0,1,1.075-3.569l-4.7.195s.3,3.233-.639,4.033c-.578.477-1.391-.269-1.862-1.223-.672,2.131-1.21,3.771-.948,5.451.464,3.025,5.223,4.087,8.65,1.465,4.886-3.737,4.833-7.488,4.631-10.553C331.186,389.988,329.526,392.287,327.731,393.329Z" transform="translate(-273.822 -157.558)" opacity="0.15"/>
          <path id="Path_158324" data-name="Path 158324" d="M320.856,371a27.254,27.254,0,0,1,.672,5.162c-.114,1.425-.262,2.9-.471,4.3-.141.928-.309,1.774-.5,2.561a2.547,2.547,0,0,0,.43,1.217c.6.524.86.471,1.2-.894.37-1.532.383-9.948-1.344-12.347Z" transform="translate(-274.743 -151.932)" opacity="0.15"/>
          <path id="Path_158325" data-name="Path 158325" d="M321.217,389.555a.43.43,0,0,0,.464.228,21.637,21.637,0,0,1,6.2-.094.433.433,0,0,0,.141-.854,22.287,22.287,0,0,0-6.5.094.437.437,0,0,0-.349.5A.324.324,0,0,0,321.217,389.555Z" transform="translate(-274.943 -157.716)" fill="#e0e0e0"/>
          <path id="Path_158326" data-name="Path 158326" d="M321.464,386.057a.417.417,0,0,0,.531.208,10.525,10.525,0,0,1,6.392-.1.432.432,0,1,0,.289-.813,11.164,11.164,0,0,0-6.977.1.437.437,0,0,0-.262.558.168.168,0,0,0,.027.047Z" transform="translate(-275.023 -156.47)" fill="#e0e0e0"/>
          <path id="Path_158327" data-name="Path 158327" d="M321.416,382.787a.43.43,0,0,0,.571.195,10.021,10.021,0,0,1,6.661-.457.444.444,0,0,0,.551-.282.437.437,0,0,0-.282-.544,10.8,10.8,0,0,0-7.306.5.437.437,0,0,0-.2.578Z" transform="translate(-275.008 -155.304)" fill="#e0e0e0"/>
          <path id="Path_158328" data-name="Path 158328" d="M321.355,379.355h0a.43.43,0,0,0,.591.161,9.361,9.361,0,0,1,6.634-.672.444.444,0,0,0,.544-.282.43.43,0,0,0-.282-.544,9.944,9.944,0,0,0-7.326.719.43.43,0,0,0-.161.618Z" transform="translate(-274.981 -154.103)" fill="#e0e0e0"/>
          <path id="Path_158329" data-name="Path 158329" d="M321.4,375.838v.034a.437.437,0,0,0,.6.134c2.883-1.828,6.721-.672,6.755-.672a.437.437,0,0,0,.255-.833c-.175-.054-4.255-1.27-7.467.773A.423.423,0,0,0,321.4,375.838Z" transform="translate(-275.002 -152.946)" fill="#e0e0e0"/>
          <path id="Path_158330" data-name="Path 158330" d="M321.163,372.792h0a.437.437,0,0,0,.6.134,8.7,8.7,0,0,1,6.654-.672.433.433,0,1,0,.316-.806,9.551,9.551,0,0,0-7.427.733.423.423,0,0,0-.141.612Z" transform="translate(-274.916 -151.936)" fill="#e0e0e0"/>
          <path id="Path_158331" data-name="Path 158331" d="M408.813,315.323a6.034,6.034,0,0,0,4.886-.591c2.816-2.144,3.125-8.066,2.016-11.245-1.344-3.871-3.609-5.747-4.476-8.066s-.847-5.72-1.936-7.736a6.211,6.211,0,0,0-4.174-3.018,3.757,3.757,0,0,0-3.206.773l-.854.672Z" transform="translate(-301.14 -123.597)" fill="#263238"/>
          <path id="Path_158332" data-name="Path 158332" d="M411.921,305.011c-.968-4.342-5.532-7.037-5.706-11.332s-3-9.786-8.287-6.634a23.69,23.69,0,0,0-4.187,3.172l1.707-.168h0a5.681,5.681,0,0,1,1.795,2.594c.4,1.1,2.09,1.795,2.951,3.636,0,0-1.694-1.344-2.554-1.163-.4.081-.108,1.183-.571,3.267a4.746,4.746,0,0,1-1.082,2.016h0l-.3.081H395.6l-.82.229c.706.37,2.642.672,3.885,1.6h0a7.474,7.474,0,0,1,1.23,1.727,19.494,19.494,0,0,1,1.21,3.233c.518,1.653,1.049,3.307,1.627,4.94a9.818,9.818,0,0,0,1.109,2.393c1.492,2.131,4.416,1.976,6.21.289a6.52,6.52,0,0,0,1.909-2.951A13.023,13.023,0,0,0,411.921,305.011Z" transform="translate(-298.737 -124.1)" fill="#71a7d3"/>
          <path id="Path_158333" data-name="Path 158333" d="M411.921,305.011c-.968-4.342-5.532-7.037-5.706-11.332s-3-9.786-8.287-6.634a23.69,23.69,0,0,0-4.187,3.172l1.707-.168h0a5.681,5.681,0,0,1,1.795,2.594c.4,1.1,2.09,1.795,2.951,3.636,0,0-1.694-1.344-2.554-1.163-.4.081-.108,1.183-.571,3.267a4.746,4.746,0,0,1-1.082,2.016h0l-.3.081H395.6l-.82.229c.706.37,2.642.672,3.885,1.6h0a7.474,7.474,0,0,1,1.23,1.727,19.494,19.494,0,0,1,1.21,3.233c.518,1.653,1.049,3.307,1.627,4.94a9.818,9.818,0,0,0,1.109,2.393c1.492,2.131,4.416,1.976,6.21.289a6.52,6.52,0,0,0,1.909-2.951A13.023,13.023,0,0,0,411.921,305.011Z" transform="translate(-298.737 -124.1)" opacity="0.4"/>
          <path id="Path_158334" data-name="Path 158334" d="M403.754,315.4a18.008,18.008,0,0,0-.786-2.783,5.982,5.982,0,0,0-1.627-2.366,6.292,6.292,0,0,0-2.581-1.2,5.955,5.955,0,0,1,1.559.82h0a7.477,7.477,0,0,1,1.23,1.727,19.5,19.5,0,0,1,1.21,3.233c.316.988.632,1.976.961,2.964a1.2,1.2,0,0,0,.242-.329,1.956,1.956,0,0,0,0-1.176Z" transform="translate(-300.382 -131.621)" opacity="0.15"/>
          <path id="Path_158335" data-name="Path 158335" d="M416.056,316.261a3.468,3.468,0,0,1-.975,2.279,2.3,2.3,0,0,1-2.689,0A3.98,3.98,0,0,1,411,316.98c-.215-.524-.262-1.122-.773-.874a10.37,10.37,0,0,0-3.421,2.729.476.476,0,0,0-.121.2.6.6,0,0,0,.1.43,3.038,3.038,0,0,1,.188,2.016v.081a9.82,9.82,0,0,0,1.109,2.393c1.492,2.131,4.416,1.976,6.211.289A6.521,6.521,0,0,0,416.2,321.3a13.591,13.591,0,0,0,0-6.775A16.43,16.43,0,0,1,416.056,316.261Z" transform="translate(-302.979 -133.414)" opacity="0.15"/>
          <path id="Path_158336" data-name="Path 158336" d="M405.338,299.147a9.25,9.25,0,0,0-1.868-2.016c-.35-.276-.739-.43-1.089-.672a7.62,7.62,0,0,1-1.075-.934,48.943,48.943,0,0,1-3.455-4.45,4.511,4.511,0,0,0-1.391-1.2,2.892,2.892,0,0,0-.672-.249c-.739.565-1.438,1.163-2.057,1.741l1.707-.168h0a5.681,5.681,0,0,1,1.795,2.594c.4,1.1,2.016,1.774,2.917,3.562.86.733,1.781,1.4,2.574,2.158a6.97,6.97,0,0,1,1.593,2.084,27.558,27.558,0,0,1,2.157,6.352,2.319,2.319,0,0,0,.477,1.176.759.759,0,0,0,1.122,0,1.008,1.008,0,0,0,.134-.484,12.77,12.77,0,0,0-.961-5.538A17.327,17.327,0,0,0,405.338,299.147Z" transform="translate(-298.733 -125.254)" opacity="0.15"/>
          <path id="Path_158337" data-name="Path 158337" d="M405.354,320.5a.444.444,0,0,0,.558-.148,10.486,10.486,0,0,1,5.095-3.858.437.437,0,0,0,.289-.544.43.43,0,0,0-.538-.289,11.238,11.238,0,0,0-5.572,4.208.444.444,0,0,0,.121.6Z" transform="translate(-302.466 -133.782)" fill="#e0e0e0"/>
          <path id="Path_158338" data-name="Path 158338" d="M404.538,316.467a.483.483,0,0,0,.128.074c.181.067.276,0,.37-.168a7.14,7.14,0,0,1,.733-.887,9.723,9.723,0,0,1,1.62-1.344,10.6,10.6,0,0,1,2.554-1.25l.282-.087a.434.434,0,1,0-.215-.84,9.116,9.116,0,0,0-1.795.672,10.6,10.6,0,0,0-3.293,2.467c-.249.276-.6.625-.544,1.028A.518.518,0,0,0,404.538,316.467Z" transform="translate(-302.222 -132.572)" fill="#e0e0e0"/>
          <path id="Path_158339" data-name="Path 158339" d="M403.345,313.147c.276.215.5-.229.672-.423a7.089,7.089,0,0,1,.719-.84,9.5,9.5,0,0,1,1.579-1.25,10.084,10.084,0,0,1,2.279-1.075h.1a.437.437,0,0,0-.222-.84,8.988,8.988,0,0,0-1.788.726,9.773,9.773,0,0,0-3.152,2.507,1.129,1.129,0,0,0-.363.807.578.578,0,0,0,.141.356.251.251,0,0,0,.034.034Z" transform="translate(-301.828 -131.51)" fill="#e0e0e0"/>
          <path id="Path_158340" data-name="Path 158340" d="M401.846,309.9a.423.423,0,0,0,.181.067c.188,0,.249-.195.336-.329a5.14,5.14,0,0,1,.3-.444,6.993,6.993,0,0,1,.672-.793,9.9,9.9,0,0,1,1.485-1.21,10.284,10.284,0,0,1,2.016-1.055h.034a.43.43,0,0,0,.269-.551.437.437,0,0,0-.551-.269,10.213,10.213,0,0,0-1.788.867,9.632,9.632,0,0,0-2.984,2.689,1.344,1.344,0,0,0-.282.544.41.41,0,0,0,.04.269.671.671,0,0,0,.148.155Z" transform="translate(-301.29 -130.39)" fill="#e0e0e0"/>
          <path id="Path_158341" data-name="Path 158341" d="M402.921,301.285a.45.45,0,0,0-.188,0c-.188.034-.195.255-.242.4s-.121.336-.188.5a8.068,8.068,0,0,1-.47.934,9.135,9.135,0,0,1-1.143,1.539A9.846,9.846,0,0,1,399,306.185h0a.432.432,0,1,0,.477.719,9.81,9.81,0,0,0,1.512-1.277,9.591,9.591,0,0,0,2.231-3.361,1.344,1.344,0,0,0,.141-.6.416.416,0,0,0-.108-.249.464.464,0,0,0-.181-.114Z" transform="translate(-300.397 -129.072)" fill="#e0e0e0"/>
          <path id="Path_158342" data-name="Path 158342" d="M332.408,212.93c1.573,5.612,2.863,12.24,2.615,23.162s.034,20.722.034,20.722-1.425,4.476-10.526,5.585-12.676-1.835-12.676-1.835l-1.391-13.308-3.818,10.082s-4.241,1.062-11.493-1.344a18.238,18.238,0,0,1-10.082-7.756s6.439-26.885,9.235-33.116Z" transform="translate(-263.107 -100.106)" fill="#455a64"/>
          <path id="Path_158343" data-name="Path 158343" d="M316.84,256.413l-.84-8.556s-8.066.336-11.48-7c0,0,.712,6.721,9.88,9.41l1.1,5.969-2.48,10.257Z" transform="translate(-269.484 -109.264)" fill="#37474f"/>
          <path id="Path_158344" data-name="Path 158344" d="M348.709,263.051c.76-14.968-.618-37.438-3.045-44.751l-1.754,1.815c2.749,10.6,3.361,33.21,2.877,43.514a18.818,18.818,0,0,0,1.922-.578Z" transform="translate(-282.399 -101.867)" fill="#71a7d3"/>
          <path id="Path_158345" data-name="Path 158345" d="M349.65,219.468c2.736,10.519,2.857,32.39,2.312,42.795a11.939,11.939,0,0,0,1.956-1.156c.739-14.942-.128-36.3-2.507-43.447Z" transform="translate(-284.281 -101.657)" fill="#71a7d3"/>
          <path id="Path_158346" data-name="Path 158346" d="M259.832,88.282a27.673,27.673,0,0,0,4.476,8.314c8.886,10.633,17.885,16.225,22.469,25.676,5.263-.672,12.1-9.786,7.871-15.009-4.6-1.64-21.764-19.835-23.357-22.483a155.823,155.823,0,0,1-7.467-20.258,3.421,3.421,0,0,1,.349-2.366c1.116-2.111.975-4.369,1.479-6.5.4-1.667,1.109-2.44.78-2.689a1.949,1.949,0,0,0-2.6.5,20.842,20.842,0,0,0-1.936,3.361,39.456,39.456,0,0,1-.04-5.787c.282-4.443-.739-7.743-5.659-4.92-3.085,1.768-4.812,6.311-3.166,14.431.477,2.332,1.344,7.783,2.178,11.137C256.76,77.884,257.668,82.663,259.832,88.282Z" transform="translate(-252.394 -45.071)" fill="#b16668"/>
          <path id="Path_158347" data-name="Path 158347" d="M309.674,133.22c-2.084-.988-4.584-1.788-7.333-4.033-2.87-2.339-6.432-4.987-6.432-4.987s-6.258,5.088-6.11,12.6a38.474,38.474,0,0,1,5.955,7.743,31.222,31.222,0,0,1,2.9,6.923,6.875,6.875,0,0,0,8.18-6.1,90.65,90.65,0,0,1,2.836-12.145Z" transform="translate(-264.657 -71.015)" fill="#71a7d3"/>
          <path id="Path_158348" data-name="Path 158348" d="M300.774,172.948c-.255-2.2-.188-6.278-.235-7.393-5.8-4.954-3.6-10.264-1.768-14.545,3.677-8.55,7.393-13.483,11.05-13.51l10.082.3c5.209.094,11.225.383,12.562.612,3.408.585,4.994,4.033,5.377,7.615.4,3.912,1.311,4.214.672,10.754,0,0-2.346,6.721-4.443,12.676,0,0-.76,4.389,0,6.432a100.929,100.929,0,0,1,4.107,18.941s-3.7,5.249-20.46,5.243a41.914,41.914,0,0,1-21.508-6.379Z" transform="translate(-266.76 -75.375)" fill="#71a7d3"/>
          <path id="Path_158349" data-name="Path 158349" d="M337.546,156.286c0,.571-.047,1.183-.094,1.889l-37.162-2.016c.282-.672.558-1.257.84-1.848Z" transform="translate(-268.097 -80.887)" fill="#d2e1f1"/>
          <path id="Path_158350" data-name="Path 158350" d="M312.034,137.53l10.082.3c5.209.094,11.225.383,12.562.612,3.408.585,3.139,3.677,3.5,7.246a18.7,18.7,0,0,1,.276,3.072L302.9,146.994C305.925,140.958,309.016,137.557,312.034,137.53Z" transform="translate(-268.953 -75.385)" fill="#d2e1f1"/>
          <path id="Path_158351" data-name="Path 158351" d="M340.843,178.3c-.054-.625-.087-1.257-.087-1.882a26.4,26.4,0,0,1,.827-6.2c.954-3.838,2.978-8.066,2.164-10.2a21.568,21.568,0,0,1-1.9-12.73l5.485-1.862a13.041,13.041,0,0,1,.706,3.213c.4,3.912,1.311,4.214.672,10.754,0,0-2.346,6.721-4.443,12.676,0,0-.759,4.389,0,6.432a100.923,100.923,0,0,1,4.107,18.941s-3.7,5.249-20.46,5.243h-.5c6.721-1.492,13.254-6.049,14.242-13.335C342.187,185.684,341.152,182,340.843,178.3Z" transform="translate(-276.992 -77.975)" opacity="0.1"/>
          <path id="Path_158352" data-name="Path 158352" d="M334.228,173.85a8.966,8.966,0,0,1-8.227,5.2,9.45,9.45,0,0,1-8.3-4.564s.618,6.567,8.395,6.143S334.228,173.85,334.228,173.85Z" transform="translate(-273.806 -87.293)" opacity="0.1"/>
          <path id="Path_158353" data-name="Path 158353" d="M303.016,91.325a13.206,13.206,0,0,1-.034-3.455,10.754,10.754,0,0,1,3.556-6.8c3.576-3.018,8.106-2.016,12.367-1.815,7.716.35,15.412,3.361,17.576,10.2,1.344,4.281.786,9.41-1.089,15.358-1.62,5.182-3.69,8.254-7.972,8.906l-7.9-1.344a11.361,11.361,0,0,1-9.564-3.119A18.815,18.815,0,0,1,308,107.2a6.419,6.419,0,0,1-1.169-2.473,46.96,46.96,0,0,1-1.492-6.3,12,12,0,0,0-1.116-2.9,15.864,15.864,0,0,1-1.2-4.194Z" transform="translate(-268.948 -56.173)" fill="#263238"/>
          <path id="Path_158354" data-name="Path 158354" d="M309.8,89.64c-1.976,1.075-4.537,5.848-4.671,16.051-.108,8.65,2.615,10.882,4,11.547s4.107.39,6.762.047l-.188,5.182s-.349,5.538,1.774,5.9c5.787-.363,10.667-5.639,10.667-5.639V111.693a3.818,3.818,0,0,0,4.033-.995c2.016-2.1,2.689-5,1.089-6.782a3.784,3.784,0,0,0-6.049.981s-1.553.074-3-2.857a11.749,11.749,0,0,1-7.36-1.922A16.161,16.161,0,0,1,309.8,89.64Z" transform="translate(-269.683 -59.684)" fill="#b16668"/>
          <path id="Path_158355" data-name="Path 158355" d="M321.879,109.574a1.089,1.089,0,1,0,1.183-1.035,1.1,1.1,0,0,0-1.183,1.035Z" transform="translate(-275.176 -65.879)" fill="#263238"/>
          <g id="Group_100014" data-name="Group 100014" transform="translate(41.67 50.873)" opacity="0.5">
            <path id="Path_158356" data-name="Path 158356" d="M317.818,120.76l-3.428.961a1.754,1.754,0,0,0,2.164,1.3,1.869,1.869,0,0,0,1.264-2.258Z" transform="translate(-314.39 -120.76)" fill="#9a4a4d"/>
          </g>
          <path id="Path_158357" data-name="Path 158357" d="M307.357,103.5l2.252-1.445a1.284,1.284,0,0,0-1.808-.437,1.4,1.4,0,0,0-.444,1.882Z" transform="translate(-270.352 -63.544)" fill="#263238"/>
          <path id="Path_158358" data-name="Path 158358" d="M324.34,104.08l2.46,1.022a1.29,1.29,0,0,0-.672-1.748,1.411,1.411,0,0,0-1.788.726Z" transform="translate(-275.983 -64.149)" fill="#263238"/>
          <path id="Path_158359" data-name="Path 158359" d="M308.177,108.7a1.109,1.109,0,0,0,.981,1.217,1.123,1.123,0,0,0,1.183-1.035,1.089,1.089,0,1,0-2.164-.181Z" transform="translate(-270.681 -65.581)" fill="#263238"/>
          <g id="Group_100015" data-name="Group 100015" transform="translate(38.921 42.686)" opacity="0.5">
            <path id="Path_158360" data-name="Path 158360" d="M314.111,108.58l-.41,6.533-3.4-1.19Z" transform="translate(-310.3 -108.58)" fill="#9a4a4d"/>
          </g>
          <g id="Group_100016" data-name="Group 100016" transform="translate(46.146 53.669)" opacity="0.5">
            <path id="Path_158361" data-name="Path 158361" d="M321.11,128.852c2.789-.269,8.563-1.7,9.538-3.932a5.875,5.875,0,0,1-2.111,2.816c-1.761,1.4-7.488,2.843-7.488,2.843Z" transform="translate(-321.05 -124.92)" fill="#9a4a4d"/>
          </g>
          <path id="Path_158362" data-name="Path 158362" d="M336.465,110.947l-.168,4.55h0a3.1,3.1,0,0,1-2.978-3.206l.148-4.2Z" transform="translate(-278.926 -65.733)" fill="#263238"/>
          <path id="Path_158363" data-name="Path 158363" d="M349.806,201.646c-.907.208-2.729.4-3-.726s1.243-1.2,2.366-2.151a40.852,40.852,0,0,1,3.811-3.025c1.694-1.109,3.784-1.116,4.631-2.44.874-1.075,5.948-15.654,7.286-20.016-4.456-6.2-8.933-12.34-12.24-17.052,0,0-4.463-9.854-3.717-16.44,3-.672,7.709.188,12.643,6.4a163.422,163.422,0,0,1,12.1,16.971c4.174,6.856,4.557,6.721,2.292,13.073A169.261,169.261,0,0,1,365.9,198.151a76.854,76.854,0,0,1-5.236,8.287c-1.889,2.547-5.747,5.2-7.77,5.659-3,.672-7.051-.155-7.051-3.132s5.686-5.471,6.789-8.395A15.728,15.728,0,0,1,349.806,201.646Z" transform="translate(-283.032 -76.066)" fill="#b16668"/>
          <path id="Path_158364" data-name="Path 158364" d="M349.729,138.88s6.439-.081,8.294,1.344c2.5,1.882,5.612,6.1,7.393,8.429s4.7,5.874,4.7,5.874-3.267,8.449-11.211,9.759l-7.561-9.538C349.48,152.759,347.826,146.407,349.729,138.88Z" transform="translate(-284.03 -75.827)" fill="#71a7d3"/>
          <path id="Path_158365" data-name="Path 158365" d="M355.965,89.312c-.222-.215-.45-.417-.672-.618a6.809,6.809,0,0,0-4.53-1.842c-1.344.06-4.073,1.606-4.792-.35a2.521,2.521,0,0,1,0-1.411c.786-3.26,4.033-4.409,7.071-4.295,5.666.208,9.289,5.256,13.745,8.012a11.077,11.077,0,0,0,5.323,1.4,21.744,21.744,0,0,0,5.673-.484c1.963-.437,3.871-1.149,5.868-1.391a7.2,7.2,0,0,1,5.686,1.391,6.049,6.049,0,0,1,1.5,6.19,10.371,10.371,0,0,1-4.033,5.249,17.428,17.428,0,0,1-13.154,2.937,19.841,19.841,0,0,1-11.675-6.9C359.857,94.656,358.325,91.6,355.965,89.312Z" transform="translate(-283.042 -56.782)" fill="#263238"/>
          <path id="Path_158366" data-name="Path 158366" d="M346.224,84.219a2.447,2.447,0,0,1,1.344-4.7Z" transform="translate(-282.576 -56.333)" fill="#263238"/>
          <path id="Path_158367" data-name="Path 158367" d="M328.979,273.568a.235.235,0,0,1-.034-.2.3.3,0,0,1,.121-.168l2.305-1.445.175-.1a.363.363,0,0,1,.188-.034l.759.081a.276.276,0,0,1,.242.3l-.672,6.332a.276.276,0,0,1-.3.235l-.793-.081a.275.275,0,0,1-.181-.1.255.255,0,0,1-.054-.195l.511-4.839-1.506.941a.289.289,0,0,1-.195.034.323.323,0,0,1-.175-.128Z" transform="translate(-277.49 -119.348)" fill="#71a7d3"/>
          <path id="Path_158368" data-name="Path 158368" d="M341.247,275.159v.41l-.054.464-.047.457a2.339,2.339,0,0,1-.054.41,4.825,4.825,0,0,1-.282,1.042,2.272,2.272,0,0,1-.538.793,2.164,2.164,0,0,1-.867.47,3.133,3.133,0,0,1-1.23.074,3.361,3.361,0,0,1-1.2-.329,2.1,2.1,0,0,1-.739-.672,2.251,2.251,0,0,1-.363-.887,4.66,4.66,0,0,1-.06-1.075c0-.249.04-.531.074-.847s.067-.6.108-.847a4.625,4.625,0,0,1,.289-1.049,2.326,2.326,0,0,1,.538-.807,2.171,2.171,0,0,1,.86-.491,3.025,3.025,0,0,1,1.237-.081,3.361,3.361,0,0,1,1.19.329,2.063,2.063,0,0,1,.746.672,2.251,2.251,0,0,1,.363.887A4.669,4.669,0,0,1,341.247,275.159Zm-4.134,1.277a2.145,2.145,0,0,0,.222,1.129,1.17,1.17,0,0,0,.934.491,1.149,1.149,0,0,0,1.015-.282,2.016,2.016,0,0,0,.457-1.062c.04-.249.074-.518.108-.82s.054-.578.067-.827a2.084,2.084,0,0,0-.222-1.129,1.169,1.169,0,0,0-.934-.491,1.136,1.136,0,0,0-1.015.289,2.017,2.017,0,0,0-.457,1.055c-.04.242-.074.517-.108.82S337.127,276.188,337.113,276.436Z" transform="translate(-279.742 -119.528)" fill="#71a7d3"/>
        </g>
      </g>
      <g id="freepik--character-1--inject-121" transform="translate(56.857 35.79)">
        <g id="freepik--character--inject-121-2" data-name="freepik--character--inject-121" transform="translate(0 0)">
          <path id="Path_158369" data-name="Path 158369" d="M172.511,267.349c2.292-4.618,3.287-8.59,3.045-11.352-1.149-12.878-2.689-29.688-3.992-39.333-.867-6.392-2.574-13.443-5.236-25.541,0-2.44-.37-6.372-.37-6.372l-27.517.793a93.03,93.03,0,0,0-9.5,34.917c-.854,10.6-2.8,21.508-3.146,27.262-6.607,2.783-10.082,6.641-13.174,9.457-5.471,5-19.169,19.741-22.026,20.89l-.175.168c-1.257,1.344-3,7.346-4.329,10.969-.887,2.433-1.485,6.318.06,9.41,1.472,2.951,3.253,3.757,4.12.612.155-1.129.289-2.245.437-3.287.47-3.22,3.986-9.867,10.3-14.007,3.119-2.016,20.393-12.932,35.26-20.493,4.3-2.191,6.446-5.236,8.462-9.618,2.628-5.72,7.125-17.307,7.125-17.307l4.96,25.01c-3.031,4.812-4.88,8.946-6.93,18.477A190.008,190.008,0,0,1,142.5,302.79c-.181.538-.356,1.075-.538,1.613a24.5,24.5,0,0,1-.813,2.52,8.583,8.583,0,0,0-.968,3.146,6.607,6.607,0,0,0,.578,3.172c.262.565.6,1.1.847,1.674a8.442,8.442,0,0,1,.4,4.194c-.148,1.418-.437,2.823-.444,4.241a9.309,9.309,0,0,0,1.922,5.78,7.555,7.555,0,0,0,5.3,2.87,3.623,3.623,0,0,0,2.252-.477,3.455,3.455,0,0,0,1.264-3.253,15.077,15.077,0,0,0-1.042-3.5,23.2,23.2,0,0,1-1.022-3.979,41.73,41.73,0,0,1-.444-7.931c.054-2.48-.094-5.2,1.19-7.393C151,305.418,165.944,280.61,172.511,267.349Z" transform="translate(-77.756 -89.18)" fill="#ffa8a7"/>
          <path id="Path_158370" data-name="Path 158370" d="M177.794,344.379s12.515-20.769,19.673-34.454c-4.167.82-13.55-2.527-16.629-6.405a61.409,61.409,0,0,0-4.134,13.443,190.014,190.014,0,0,1-7.393,24.788c-.181.538-.356,1.075-.538,1.613a24.5,24.5,0,0,1-.813,2.521,8.583,8.583,0,0,0-.968,3.125,6.607,6.607,0,0,0,.578,3.173c.262.565.6,1.1.847,1.674a8.442,8.442,0,0,1,.4,4.194c-.148,1.418-.437,2.823-.444,4.241a9.309,9.309,0,0,0,1.922,5.78,7.555,7.555,0,0,0,5.3,2.87,3.623,3.623,0,0,0,2.252-.477,3.455,3.455,0,0,0,1.264-3.253,15.074,15.074,0,0,0-1.042-3.5,23.2,23.2,0,0,1-1.022-3.979,41.73,41.73,0,0,1-.444-7.931C176.658,349.319,176.51,346.6,177.794,344.379Z" transform="translate(-104.568 -128.121)" fill="#dee4f0"/>
          <path id="Path_158371" data-name="Path 158371" d="M186.836,303.52c-.551,1.183-1.069,2.453-1.566,3.865a21.912,21.912,0,0,0,16.205,6.278c.672-1.284,1.344-2.541,2.016-3.737C199.3,310.745,189.914,307.4,186.836,303.52Z" transform="translate(-110.565 -128.121)" fill="#71a7d3"/>
          <path id="Path_158372" data-name="Path 158372" d="M164.122,368.59c-.43.538-1.2,1.653-1.116,2.272a35.533,35.533,0,0,1,1.344,7.071c.121,2.9-1.149,8.422,1.647,12.354,2.46,3.455,4.7,4.261,6.721,4.645a5.088,5.088,0,0,0,4.544-1.075s1.788-1.6.995-2.836S164.122,368.59,164.122,368.59Z" transform="translate(-103.263 -149.455)" fill="#37474f"/>
          <path id="Path_158373" data-name="Path 158373" d="M164.4,365.846a3.757,3.757,0,0,1,1.022-2.144,7.225,7.225,0,0,0,2.07-2.91c.114-.444.215-1.264.753-1.411h.531l-.41,1.217c.229.5.672,1.674.88,2.191.491,1.344-.121,2.749.847,3.925.067-1.492.128-3.213,1.116-3.2.672,0,1.855.914,3.2,1.109s2.406-.081,2.931.114.229.867-.108,2.406a25.18,25.18,0,0,0-.733,5.323c.108,1.425.262,2.9.471,4.308.8,5.411,2.762,8.2,2.319,11.11-.464,3.025-5.229,4.087-8.657,1.465-5.827-4.456-4.624-8.939-4.523-12.26a21.622,21.622,0,0,0-.585-6.365C165.012,368.729,164.447,367.721,164.4,365.846Z" transform="translate(-103.722 -146.435)" fill="#71a7d3"/>
          <path id="Path_158374" data-name="Path 158374" d="M164.4,365.846a3.757,3.757,0,0,1,1.022-2.144,7.225,7.225,0,0,0,2.07-2.91c.114-.444.215-1.264.753-1.411h.531l-.41,1.217c.229.5.672,1.674.88,2.191.491,1.344-.121,2.749.847,3.925.067-1.492.128-3.213,1.116-3.2.672,0,1.855.914,3.2,1.109s2.406-.081,2.931.114.229.867-.108,2.406a25.18,25.18,0,0,0-.733,5.323c.108,1.425.262,2.9.471,4.308.8,5.411,2.762,8.2,2.319,11.11-.464,3.025-5.229,4.087-8.657,1.465-5.827-4.456-4.624-8.939-4.523-12.26a21.622,21.622,0,0,0-.585-6.365C165.012,368.729,164.447,367.721,164.4,365.846Z" transform="translate(-103.722 -146.435)" opacity="0.4"/>
          <path id="Path_158375" data-name="Path 158375" d="M169,360.768v.04a.282.282,0,0,1,0,.067,18.194,18.194,0,0,0,.5,2.218c.188.874.309,1.761.437,2.641.087.618.128,1.237.161,1.862s.054,1.129.047,1.7c-.04,2.689-.437,4.833.235,8.274s1.64,3.777,2.332,3.361.054-1.344-.6-4.349c-.672-3.173-.121-6.641-.464-9.9h0a2.15,2.15,0,0,1-.484-.954h0c-.235-.948,0-1.983-.363-2.951-.188-.518-.672-1.687-.881-2.191l.41-1.217h-.531c-.336.094-.5.45-.6.807A2.821,2.821,0,0,0,169,360.768Z" transform="translate(-105.231 -146.432)" opacity="0.15"/>
          <path id="Path_158376" data-name="Path 158376" d="M170.181,393.415c1.795,1.042,2.877.8,2.836-.975a8.623,8.623,0,0,0-1.075-3.569l4.7.2s-.3,3.226.672,4.033c.578.477,1.391-.269,1.862-1.223.672,2.124,1.2,3.764.948,5.444-.464,3.025-5.229,4.087-8.657,1.465-4.88-3.73-4.826-7.481-4.624-10.552C166.72,390.1,168.387,392.374,170.181,393.415Z" transform="translate(-104.503 -155.897)" opacity="0.15"/>
          <path id="Path_158377" data-name="Path 158377" d="M182.683,371.11a27.2,27.2,0,0,0-.672,5.155c.108,1.425.262,2.9.47,4.308.134.921.309,1.768.5,2.554a2.52,2.52,0,0,1-.43,1.217c-.6.531-.86.471-1.2-.887-.37-1.532-.383-9.954,1.344-12.347Z" transform="translate(-109.215 -150.281)" opacity="0.15"/>
          <path id="Path_158378" data-name="Path 158378" d="M179.714,389.6a.444.444,0,0,1-.464.229,21.637,21.637,0,0,0-6.2-.094.437.437,0,0,1-.141-.86,22.182,22.182,0,0,1,6.5.1.437.437,0,0,1,.35.5A.43.43,0,0,1,179.714,389.6Z" transform="translate(-106.4 -156.043)" fill="#e0e0e0"/>
          <path id="Path_158379" data-name="Path 158379" d="M179.319,386.147a.43.43,0,0,1-.531.208,10.465,10.465,0,0,0-6.392-.1.437.437,0,1,1-.289-.82,11.279,11.279,0,0,1,6.977.1.444.444,0,0,1,.262.558Z" transform="translate(-106.14 -154.812)" fill="#e0e0e0"/>
          <path id="Path_158380" data-name="Path 158380" d="M179.167,382.868a.43.43,0,0,1-.571.195,10.082,10.082,0,0,0-6.668-.457.437.437,0,1,1-.262-.827,10.828,10.828,0,0,1,7.3.5.437.437,0,0,1,.208.585Z" transform="translate(-105.988 -153.644)" fill="#e0e0e0"/>
          <path id="Path_158381" data-name="Path 158381" d="M179.224,379.443h0a.444.444,0,0,1-.6.155,9.384,9.384,0,0,0-6.627-.672.437.437,0,1,1-.262-.827,9.981,9.981,0,0,1,7.326.719.437.437,0,0,1,.161.625Z" transform="translate(-106.011 -152.444)" fill="#e0e0e0"/>
          <path id="Path_158382" data-name="Path 158382" d="M179.155,375.921v.034a.437.437,0,0,1-.6.134c-2.877-1.821-6.721-.672-6.721-.672a.437.437,0,0,1-.544-.289.43.43,0,0,1,.289-.538c.175-.054,4.248-1.27,7.467.766A.43.43,0,0,1,179.155,375.921Z" transform="translate(-105.976 -151.288)" fill="#e0e0e0"/>
          <path id="Path_158383" data-name="Path 158383" d="M179.414,372.889h0a.437.437,0,0,1-.6.141,8.738,8.738,0,0,0-6.654-.672.433.433,0,1,1-.316-.807,9.578,9.578,0,0,1,7.393.733.437.437,0,0,1,.175.6Z" transform="translate(-106.073 -150.286)" fill="#e0e0e0"/>
          <path id="Path_158384" data-name="Path 158384" d="M131.027,295.957a13.51,13.51,0,0,1-7.441-5.585c-2.319-3.361-1.842-8.818-1.842-8.852-4.113,2.447-6.721,5.243-9.121,7.393-5.471,5-19.169,19.741-22.026,20.89h0l-.175.168c-1.257,1.344-3,7.346-4.329,10.969-.887,2.433-1.485,6.318.06,9.41,1.472,2.951,3.253,3.757,4.12.612.155-1.129.289-2.245.437-3.287.47-3.22,3.986-9.867,10.3-14.007,2.756-1.8,16.575-10.519,30.011-17.744Z" transform="translate(-77.756 -120.908)" fill="#dee4f0"/>
          <path id="Path_158385" data-name="Path 158385" d="M146.957,295.957a13.51,13.51,0,0,1-7.441-5.585c-2.319-3.361-1.842-8.818-1.842-8.852a34.091,34.091,0,0,0-3.885,2.689c.074,4.181,1.062,10.418,9.007,14.007,1.385-.773,2.776-1.532,4.161-2.279Z" transform="translate(-93.686 -120.908)" fill="#71a7d3"/>
          <path id="Path_158386" data-name="Path 158386" d="M83.524,324.64c-.672.242-1.875.813-2.111,1.4a35.066,35.066,0,0,1-2.42,6.775c-1.344,2.561-5.256,6.681-4.839,11.487.376,4.221,1.909,6.049,3.428,7.393a5.1,5.1,0,0,0,4.47,1.378s2.352-.477,2.292-1.942S83.524,324.64,83.524,324.64Z" transform="translate(-74.124 -135.045)" fill="#37474f"/>
          <path id="Path_158387" data-name="Path 158387" d="M83.954,323.043a3.716,3.716,0,0,1,1.969-1.344,7.177,7.177,0,0,0,3.253-1.465c.323-.323.827-.975,1.344-.833a4.473,4.473,0,0,1,.477.242l-.968.847c-.054.551-.249,1.795-.35,2.339-.249,1.378-1.5,2.305-1.257,3.811.813-1.25,1.734-2.689,2.581-2.2.558.343,1.136,1.727,2.2,2.574s2.117,1.149,2.467,1.586-.242.86-1.344,2.016a24.465,24.465,0,0,0-3.361,4.221c-.625,1.284-1.237,2.628-1.774,3.945-2.016,5.075-1.768,8.476-3.623,10.754s-6.58.874-8.207-3.119c-2.769-6.8.538-10.082,2.3-12.865a21.509,21.509,0,0,0,2.689-5.787C83.007,325.846,83.034,324.7,83.954,323.043Z" transform="translate(-74.836 -133.321)" fill="#71a7d3"/>
          <path id="Path_158388" data-name="Path 158388" d="M83.954,323.043a3.716,3.716,0,0,1,1.969-1.344,7.177,7.177,0,0,0,3.253-1.465c.323-.323.827-.975,1.344-.833a4.473,4.473,0,0,1,.477.242l-.968.847c-.054.551-.249,1.795-.35,2.339-.249,1.378-1.5,2.305-1.257,3.811.813-1.25,1.734-2.689,2.581-2.2.558.343,1.136,1.727,2.2,2.574s2.117,1.149,2.467,1.586-.242.86-1.344,2.016a24.465,24.465,0,0,0-3.361,4.221c-.625,1.284-1.237,2.628-1.774,3.945-2.016,5.075-1.768,8.476-3.623,10.754s-6.58.874-8.207-3.119c-2.769-6.8.538-10.082,2.3-12.865a21.509,21.509,0,0,0,2.689-5.787C83.007,325.846,83.034,324.7,83.954,323.043Z" transform="translate(-74.836 -133.321)" opacity="0.4"/>
          <path id="Path_158389" data-name="Path 158389" d="M91.594,320.255h0l-.06.054a19.236,19.236,0,0,0-.672,2.158c-.276.847-.618,1.674-.961,2.5-.235.578-.511,1.136-.8,1.687s-.524,1-.82,1.485c-1.4,2.319-2.823,3.952-3.986,7.259s-.5,4.093.323,4.033.712-1.109,1.674-4.033c1.015-3.085,3.26-5.787,4.618-8.771h0a2.211,2.211,0,0,1,.067-1.069h0c.276-.934.995-1.707,1.176-2.722.1-.544.3-1.788.35-2.339l.968-.847-.067-.034-.067-.04-.168-.087-.081-.034a.582.582,0,0,0-.094-.047,1.062,1.062,0,0,0-.928.39A6.326,6.326,0,0,0,91.594,320.255Z" transform="translate(-77.254 -133.328)" opacity="0.15"/>
          <path id="Path_158390" data-name="Path 158390" d="M79.131,348.834c1.015,1.808,2.07,2.151,2.937.6a8.671,8.671,0,0,0,.88-3.623l3.945,2.541s-1.9,2.635-1.479,3.777c.255.706,1.344.477,2.218-.108-.5,2.164-.867,3.858-1.936,5.175-1.936,2.373-6.58.874-8.207-3.119-2.319-5.693-.376-8.9,1.344-11.426C77.84,344.229,78.109,347.026,79.131,348.834Z" transform="translate(-74.879 -140.95)" opacity="0.15"/>
          <path id="Path_158391" data-name="Path 158391" d="M99.284,336.31a26.5,26.5,0,0,0-3.213,4.1c-.625,1.284-1.237,2.628-1.774,3.945-.35.867-.625,1.687-.86,2.46a2.588,2.588,0,0,1-.988.833c-.786.148-.981-.034-.578-1.378.45-1.506,4.7-8.778,7.393-9.961Z" transform="translate(-79.876 -138.871)" opacity="0.15"/>
          <path id="Path_158392" data-name="Path 158392" d="M90.256,350.538a.437.437,0,0,1-.518,0,21.791,21.791,0,0,0-5.3-3.226.433.433,0,1,1,.316-.807,22.072,22.072,0,0,1,5.552,3.361.437.437,0,0,1,.047.612A.357.357,0,0,1,90.256,350.538Z" transform="translate(-77.415 -142.204)" fill="#e0e0e0"/>
          <path id="Path_158393" data-name="Path 158393" d="M91.582,347.456a.43.43,0,0,1-.565-.087,10.479,10.479,0,0,0-5.464-3.32.437.437,0,1,1,.188-.854,11.225,11.225,0,0,1,5.962,3.623.437.437,0,0,1-.054.612Z" transform="translate(-77.759 -141.125)" fill="#e0e0e0"/>
          <path id="Path_158394" data-name="Path 158394" d="M93.177,344.553a.437.437,0,0,1-.591-.128,10.082,10.082,0,0,0-5.518-3.764.437.437,0,0,1-.323-.524.43.43,0,0,1,.518-.323,10.8,10.8,0,0,1,6.049,4.127.437.437,0,0,1-.114.6Z" transform="translate(-78.258 -140.017)" fill="#e0e0e0"/>
          <path id="Path_158395" data-name="Path 158395" d="M94.922,341.594h0a.437.437,0,0,1-.6-.161,9.338,9.338,0,0,0-5.377-3.919.43.43,0,0,1-.323-.518.424.424,0,0,1,.518-.323A9.781,9.781,0,0,1,95.1,341a.43.43,0,0,1-.175.591Z" transform="translate(-78.874 -138.986)" fill="#e0e0e0"/>
          <path id="Path_158396" data-name="Path 158396" d="M96.653,338.526h-.034a.437.437,0,0,1-.585-.188c-1.559-3.031-5.444-3.986-5.478-4.033a.423.423,0,0,1-.323-.518.43.43,0,0,1,.518-.323c.175.04,4.308,1.055,6.049,4.443a.437.437,0,0,1-.148.618Z" transform="translate(-79.402 -137.935)" fill="#e0e0e0"/>
          <path id="Path_158397" data-name="Path 158397" d="M98.435,336.058h0a.437.437,0,0,1-.585-.188,8.738,8.738,0,0,0-5.377-3.939.433.433,0,0,1,.141-.854,9.565,9.565,0,0,1,6.049,4.389.437.437,0,0,1-.229.591Z" transform="translate(-80.021 -137.154)" fill="#e0e0e0"/>
          <path id="Path_158398" data-name="Path 158398" d="M154.9,197.56c-2.547,5.243-4.994,11.534-6.721,22.328s-3.112,21.159-3.112,21.159,0,3.885,8.738,6.594,15.17-.323,15.17-.323l2.016-5.848,1.3,4.349s3.986,1.795,11.541.746a18,18,0,0,0,11.278-5.848s-4.846-33.049-8.025-39.454Z" transform="translate(-97.385 -93.38)" fill="#455a64"/>
          <path id="Path_158399" data-name="Path 158399" d="M183.75,253.447l3.529-11.352a20.029,20.029,0,0,0,10.7-8.005s0,6.775-9.41,10.23l-3,8.234-.477,5.222Z" transform="translate(-110.067 -105.357)" fill="#37474f"/>
          <path id="Path_158400" data-name="Path 158400" d="M159.91,261.281a.235.235,0,0,1,0-.188.215.215,0,0,1,.114-.148l2.151-1.284.161-.087a.309.309,0,0,1,.175,0l.672.094a.2.2,0,0,1,.161.094.222.222,0,0,1,.054.175l-.746,5.787a.2.2,0,0,1-.094.161.215.215,0,0,1-.175.047l-.733-.094a.222.222,0,0,1-.161-.094.249.249,0,0,1-.047-.181l.578-4.443-1.411.833a.215.215,0,0,1-.181,0,.256.256,0,0,1-.155-.114Z" transform="translate(-102.244 -113.708)" fill="#71a7d3"/>
          <path id="Path_158401" data-name="Path 158401" d="M168.633,266.831a.248.248,0,0,1-.161-.094.255.255,0,0,1-.047-.181l.141-1.089-2.789-.363a.243.243,0,0,1-.208-.276l.081-.639a.444.444,0,0,1,.087-.215l.168-.181,3.193-3.078a.491.491,0,0,1,.4-.175l.672.087a.255.255,0,0,1,.215.276l-.47,3.6.773.1a.255.255,0,0,1,.215.276l-.081.639a.249.249,0,0,1-.094.161.263.263,0,0,1-.181.047l-.773-.1-.141,1.089a.267.267,0,0,1-.276.215Zm.081-2.487.249-1.929-1.761,1.727Z" transform="translate(-104.104 -114.029)" fill="#71a7d3"/>
          <path id="Path_158402" data-name="Path 158402" d="M164.329,206.53l-1.4-2.09c-3.737,6.856-7.7,29.386-9.544,44.253.551.249,1.156.5,1.815.733C156.445,239.4,159.671,216.619,164.329,206.53Z" transform="translate(-100.109 -95.636)" fill="#71a7d3"/>
          <path id="Path_158403" data-name="Path 158403" d="M148.05,245.948A11.464,11.464,0,0,0,149.8,247.2c1.3-10.3,4.49-32.41,9.06-42.344l-1.432-2.07C153.8,209.478,149.945,231.08,148.05,245.948Z" transform="translate(-98.362 -95.095)" fill="#71a7d3"/>
          <path id="Path_158404" data-name="Path 158404" d="M228.733,85.268a23.283,23.283,0,0,1-4.208,7.8c-8.691,10.8-17.953,17.26-22.537,26.711-5.263-.672-12.1-9.786-7.864-15.015,4.6-1.64,21.757-19.835,23.357-22.476a156.865,156.865,0,0,0,7.461-20.258,3.421,3.421,0,0,0-.35-2.373c-1.116-2.11-.975-4.369-1.479-6.506-.4-1.66-1.109-2.44-.78-2.689a1.949,1.949,0,0,1,2.6.491,20.965,20.965,0,0,1,1.936,3.361,39.526,39.526,0,0,0,.04-5.794c-.282-4.436.739-7.736,5.659-4.913,3.092,1.768,4.813,6.311,3.166,14.424-.471,2.339-1.781,7.118-2.621,10.472C231.563,74.722,230.9,79.642,228.733,85.268Z" transform="translate(-113.035 -42.561)" fill="#ffa8a7"/>
          <path id="Path_158405" data-name="Path 158405" d="M190.65,130.73c2.084-.988,4.584-1.788,7.333-4.033,2.87-2.339,6.439-4.987,6.439-4.987s6.251,5.088,6.1,12.6a38.747,38.747,0,0,0-5.955,7.756,30.987,30.987,0,0,0-2.9,6.916,6.881,6.881,0,0,1-8.187-6.1A90.983,90.983,0,0,0,190.65,130.73Z" transform="translate(-112.329 -68.511)" fill="#71a7d3"/>
          <path id="Path_158406" data-name="Path 158406" d="M187.592,170.912c.255-2.2.188-6.278.229-7.393,5.807-4.954,4.5-10.714,2.689-14.989-3.677-8.55-7.393-13.483-11.043-13.51l-10.082.289c-5.209.094-11.225.39-12.562.618-3.408.585-4.994,4.033-5.377,7.615-.39,3.912-1.311,4.214-.672,10.754,0,0,2.346,6.721,4.443,12.67,0,0,.759,4.4,0,6.439a100.8,100.8,0,0,0-4.107,18.941s3.7,5.249,20.46,5.243a36.584,36.584,0,0,0,20.466-6.271Z" transform="translate(-99.183 -72.875)" fill="#71a7d3"/>
          <path id="Path_158407" data-name="Path 158407" d="M154.31,153.8c0,.571.04,1.19.094,1.9l37.156-2.016c-.282-.672-.558-1.257-.833-1.855Z" transform="translate(-100.414 -78.383)" fill="#d2e1f1"/>
          <path id="Path_158408" data-name="Path 158408" d="M180.655,135.05l-10.082.289c-5.209.094-11.225.39-12.562.618-3.408.585-3.139,3.677-3.5,7.239a19.611,19.611,0,0,0-.276,3.078l35.556-1.761C186.758,138.478,183.7,135.07,180.655,135.05Z" transform="translate(-100.391 -72.885)" fill="#d2e1f1"/>
          <path id="Path_158409" data-name="Path 158409" d="M159.7,175.935c-1.438-1.21-.8-4.322-1.748-8.16s-2.978-8.066-2.164-10.2a28.657,28.657,0,0,0,2.554-12.515L152.221,143a13.039,13.039,0,0,0-.706,3.213c-.39,3.912-1.311,4.214-.672,10.754,0,0,2.346,6.721,4.443,12.67,0,0,.759,4.4,0,6.439a100.8,100.8,0,0,0-4.107,18.941s3.7,5.249,20.46,5.243h.5C178.985,179.336,161.08,177.084,159.7,175.935Z" transform="translate(-99.206 -75.492)" opacity="0.1"/>
          <path id="Path_158410" data-name="Path 158410" d="M167.73,171.36a8.966,8.966,0,0,0,8.247,5.2,9.45,9.45,0,0,0,8.3-4.564s-.618,6.567-8.395,6.137S167.73,171.36,167.73,171.36Z" transform="translate(-104.814 -84.79)" opacity="0.1"/>
          <path id="Path_158411" data-name="Path 158411" d="M191.566,87.777a17.912,17.912,0,0,0,.981-8.677,28.14,28.14,0,0,1-3.159.78,23.83,23.83,0,0,1,1.223-2.453,5.068,5.068,0,0,0,.672-2.628,2.339,2.339,0,0,0-1.532-2.077,3.8,3.8,0,0,0-2.326.4,40.255,40.255,0,0,1-12.965,2.413c-7.716.35-15.412,3.361-17.576,10.2-1.344,4.281-.128,10.042,1.9,15.049s5.175,8.738,7.158,9.208l7.9-1.344a11.382,11.382,0,0,0,9.564-3.119,18.82,18.82,0,0,0,1.956-2.057,6.466,6.466,0,0,0,1.17-2.473,47.207,47.207,0,0,0,1.492-6.3,5.6,5.6,0,0,1,.3-1.243,5.943,5.943,0,0,1,.8-1.217A17.8,17.8,0,0,0,191.566,87.777Z" transform="translate(-101.073 -52.437)" fill="#263238"/>
          <path id="Path_158412" data-name="Path 158412" d="M186.06,87.16c1.976,1.069,4.537,5.848,4.671,16.051.108,8.644-2.615,10.882-4,11.547s-4.107.39-6.762.04l.188,5.189s.349,5.538-1.768,5.9c-5.794-.363-10.673-5.639-10.673-5.639V109.213a3.831,3.831,0,0,1-4.033-.995c-2.016-2.1-2.689-5.007-1.089-6.782a3.784,3.784,0,0,1,6.049.981s1.553.074,3-2.857a11.735,11.735,0,0,0,7.393-1.929A16.2,16.2,0,0,0,186.06,87.16Z" transform="translate(-102.839 -57.183)" fill="#ffa8a7"/>
          <path id="Path_158413" data-name="Path 158413" d="M187.04,107.086a1.1,1.1,0,0,1-.988,1.217,1.129,1.129,0,1,1,.988-1.217Z" transform="translate(-110.406 -63.378)" fill="#263238"/>
          <g id="Group_100017" data-name="Group 100017" transform="translate(78.179 50.893)" opacity="0.5">
            <path id="Path_158414" data-name="Path 158414" d="M190.5,118.28l3.428.961a1.748,1.748,0,0,1-2.158,1.29A1.855,1.855,0,0,1,190.5,118.28Z" transform="translate(-190.439 -118.28)" fill="#f28f8f"/>
          </g>
          <path id="Path_158415" data-name="Path 158415" d="M201.472,100.979l-2.252-1.445a1.27,1.27,0,0,1,1.808-.437A1.4,1.4,0,0,1,201.472,100.979Z" transform="translate(-115.139 -61.028)" fill="#263238"/>
          <path id="Path_158416" data-name="Path 158416" d="M184.411,101.608l-2.473,1.049a1.284,1.284,0,0,1,.672-1.748A1.4,1.4,0,0,1,184.411,101.608Z" transform="translate(-109.431 -61.657)" fill="#263238"/>
          <path id="Path_158417" data-name="Path 158417" d="M200.788,106.244a1.089,1.089,0,1,1-1.183-1.035,1.1,1.1,0,0,1,1.183,1.035Z" transform="translate(-114.939 -63.1)" fill="#263238"/>
          <g id="Group_100018" data-name="Group 100018" transform="translate(80.613 42.707)" opacity="0.5">
            <path id="Path_158418" data-name="Path 158418" d="M194.06,106.1l.4,6.533,3.408-1.19Z" transform="translate(-194.06 -106.1)" fill="#f28f8f"/>
          </g>
          <g id="Group_100019" data-name="Group 100019" transform="translate(67.594 53.689)" opacity="0.5">
            <path id="Path_158419" data-name="Path 158419" d="M184.228,126.365c-2.789-.262-8.563-1.7-9.538-3.925a5.848,5.848,0,0,0,2.11,2.81c1.761,1.4,7.488,2.85,7.488,2.85Z" transform="translate(-174.69 -122.44)" fill="#f28f8f"/>
          </g>
          <path id="Path_158420" data-name="Path 158420" d="M172.05,108.467l.168,4.544h0A3.085,3.085,0,0,0,175.2,109.8l-.148-4.194Z" transform="translate(-106.231 -63.233)" fill="#263238"/>
          <g id="freepik--soccer-ball--inject-121" transform="translate(40.096 102.439)">
            <circle id="Ellipse_4799" data-name="Ellipse 4799" cx="17.139" cy="17.139" r="17.139" transform="translate(0)" fill="#f5f5f5"/>
            <path id="Path_158421" data-name="Path 158421" d="M160.307,208.05a18.3,18.3,0,0,0-6.9,1.936,37.348,37.348,0,0,0,0,6.936,23.263,23.263,0,0,0,6.17,2.124s3.28-2.689,4.181-5.182a14.114,14.114,0,0,0-3.455-5.814Z" transform="translate(-140.163 -199.258)" fill="#455a64"/>
            <path id="Path_158422" data-name="Path 158422" d="M146.339,206.131l-.484-.961c-.034.04-.06.087-.094.134l-.081.1.457.914,4.7,2.83.511.383a.43.43,0,0,1,.054-.094.611.611,0,0,1,.114-.114l-.531-.4Z" transform="translate(-137.681 -198.314)" fill="#455a64"/>
            <path id="Path_158423" data-name="Path 158423" d="M156.656,196.664c-.4-.047-.82-.094-1.3-.128a11.581,11.581,0,0,0-7.091,1.828l-.968.558a.9.9,0,0,1,.094.255l1.015-.591a11.339,11.339,0,0,1,6.93-1.788c.6.047,1.143.108,1.613.175a.928.928,0,0,1-.3-.309Z" transform="translate(-138.212 -195.474)" fill="#455a64"/>
            <path id="Path_158424" data-name="Path 158424" d="M165.164,200.1l-.229.753L163.39,205.4l-.37.961a1.6,1.6,0,0,1,.255.074l.363-.948,1.553-4.55.229-.76A1.116,1.116,0,0,1,165.164,200.1Z" transform="translate(-143.366 -196.652)" fill="#455a64"/>
            <path id="Path_158425" data-name="Path 158425" d="M175.13,216.789a5.1,5.1,0,0,1-.544.4,52.728,52.728,0,0,0-5.908-.672h-.094a2.215,2.215,0,0,0-.363.034,1.708,1.708,0,0,1,0,.262,1.92,1.92,0,0,1,.444,0,51.371,51.371,0,0,1,5.922.672h.094a3.76,3.76,0,0,0,.524-.383A1.346,1.346,0,0,1,175.13,216.789Z" transform="translate(-145.071 -202.035)" fill="#455a64"/>
            <path id="Path_158426" data-name="Path 158426" d="M174.341,202.232a13.28,13.28,0,0,1,3.8,5.471,3.768,3.768,0,0,1,.141.625,1.558,1.558,0,0,1,.249-.087,4.165,4.165,0,0,0-.134-.612,13.354,13.354,0,0,0-3.878-5.592c-.128-.114-.235-.222-.329-.316a6.8,6.8,0,0,0-.672-.571.511.511,0,0,1-.06.121.43.43,0,0,1-.1.087,7.455,7.455,0,0,1,.618.551Z" transform="translate(-146.757 -196.996)" fill="#455a64"/>
            <path id="Path_158427" data-name="Path 158427" d="M162.749,223.958a5.67,5.67,0,0,1,.309-.928,1,1,0,0,1-.323.1c-.155.437-.242.739-.255.793h0l1.68,6.379h.04c.047.034.591.417,1.217.833h.06l.282-.067c-.5-.323-1.008-.672-1.344-.928Z" transform="translate(-143.189 -204.17)" fill="#455a64"/>
            <path id="Path_158428" data-name="Path 158428" d="M177.753,225.7c-.128.316-.269.672-.43.981a16.756,16.756,0,0,1-4.167,5.2c-.242.128-.672.336-1.116.531a.827.827,0,0,1,.208.195c.511-.222.948-.45,1.049-.511a16.85,16.85,0,0,0,4.268-5.3c.148-.309.276-.618.4-.914A1.346,1.346,0,0,1,177.753,225.7Z" transform="translate(-146.324 -205.045)" fill="#455a64"/>
            <path id="Path_158429" data-name="Path 158429" d="M151.459,220.39c-.242.128-.511.282-.813.464a38.614,38.614,0,0,0-5.081,4.033h0c-.067.108-.282.484-.524.988a2.01,2.01,0,0,1,.181.235c.208-.43.41-.813.558-1.075A38.986,38.986,0,0,1,150.807,221c.329-.2.625-.363.881-.5A1.343,1.343,0,0,1,151.459,220.39Z" transform="translate(-137.471 -203.304)" fill="#455a64"/>
            <path id="Path_158430" data-name="Path 158430" d="M155.957,238.118c-.45,0-.961-.047-1.526-.094a12.206,12.206,0,0,1-6.318-2.326h-.034a6.726,6.726,0,0,1-.82-.249v.276c.37.128.672.2.759.229a12.555,12.555,0,0,0,6.439,2.366l1.432.087a.759.759,0,0,1,.067-.289Z" transform="translate(-138.199 -208.242)" fill="#455a64"/>
            <path id="Path_158431" data-name="Path 158431" d="M138.418,219.672a.672.672,0,0,1,.276,0,8.378,8.378,0,0,1-.195-.907,26.435,26.435,0,0,1,.329-6.755,12.237,12.237,0,0,1,.3-1.21.894.894,0,0,1-.188,0h-.094q-.161.558-.282,1.149a26.484,26.484,0,0,0-.329,6.842A8.142,8.142,0,0,0,138.418,219.672Z" transform="translate(-135.212 -200.16)" fill="#455a64"/>
            <path id="Path_158432" data-name="Path 158432" d="M159.28,196.186a13.59,13.59,0,0,1,4.557,3.051,16.211,16.211,0,0,1,5.646.578,10.191,10.191,0,0,0-.3-1.674,17.072,17.072,0,0,0-8.509-3.092A13.156,13.156,0,0,0,159.28,196.186Z" transform="translate(-142.14 -194.996)" fill="#455a64"/>
            <path id="Path_158433" data-name="Path 158433" d="M181.941,213.119a13.524,13.524,0,0,0-2.245-2.279,23.579,23.579,0,0,1-1.976,4.624,45.287,45.287,0,0,1,1.58,6.405,16.064,16.064,0,0,0,2.749-.813A17.274,17.274,0,0,0,181.941,213.119Z" transform="translate(-148.186 -200.173)" fill="#455a64"/>
            <path id="Path_158434" data-name="Path 158434" d="M140.419,232.765a11.018,11.018,0,0,0,4.08-1.149s-.867-2.6-1.647-5.854a33.125,33.125,0,0,1-5.028-3.092s-1.075,1.116-1.344,4.658A17.341,17.341,0,0,0,140.419,232.765Z" transform="translate(-134.665 -204.052)" fill="#455a64"/>
            <path id="Path_158435" data-name="Path 158435" d="M137,205.241a6.829,6.829,0,0,0,1.344,2.964,11.923,11.923,0,0,1,5.068-3.912,35.579,35.579,0,0,1,1.566-4.907,15.808,15.808,0,0,0-2.547-.094A17.126,17.126,0,0,0,137,205.241Z" transform="translate(-134.835 -196.382)" fill="#455a64"/>
            <path id="Path_158436" data-name="Path 158436" d="M168.583,234.647a25.183,25.183,0,0,1-5.807-.867,30.18,30.18,0,0,1-4.866,3.831,9.892,9.892,0,0,0,2.729,3.4,19.015,19.015,0,0,0,6.325-1.822A12.932,12.932,0,0,0,168.583,234.647Z" transform="translate(-141.691 -207.694)" fill="#455a64"/>
            <path id="Path_158437" data-name="Path 158437" d="M165.679,221.066c-2.87,4.066-13.927,6.634-20.977-2.514s-2.978-19.66,2.151-22.853a17.139,17.139,0,1,0,18.82,25.373Z" transform="translate(-133.78 -195.209)" opacity="0.1"/>
          </g>
          <path id="Path_158438" data-name="Path 158438" d="M139.472,199.792c.88.282,2.689.625,3.045-.47s-1.136-1.3-2.178-2.339a41.678,41.678,0,0,0-3.549-3.361c-1.593-1.25-3.677-1.425-4.409-2.816-.786-1.143-4.49-17.523-5.464-21.979,4.967-5.8,9.477-10.694,13.174-15.116,0,0,5.2-10.27,5-16.9-2.937-.941-6.325-.578-11.756,5.2A197.779,197.779,0,0,0,118.9,159.464c-4.7,6.479-5.1,6.3-3.361,12.831a170.46,170.46,0,0,0,8.2,22.678,73.016,73.016,0,0,0,4.523,8.691c1.674,2.689,5.3,5.659,7.272,6.291,2.944.928,7.044.43,7.286-2.534s-5.209-5.928-6.049-8.933A15.962,15.962,0,0,0,139.472,199.792Z" transform="translate(-87.391 -73.331)" fill="#ffa8a7"/>
          <path id="Path_158439" data-name="Path 158439" d="M151.032,136.215s-5.431-.464-8,1.418-4.033,3.132-8.825,8.267c-1.748,1.889-3.9,4.571-3.9,4.571s2.689,8.066,10.653,9.349l7.609-7.635C150.44,150.169,152.954,143.743,151.032,136.215Z" transform="translate(-92.546 -73.25)" fill="#71a7d3"/>
        </g>
      </g>
      <g id="freepik--Lines--inject-121" transform="translate(155.188 21.91)">
        <g id="freepik--lines--inject-121-2" data-name="freepik--lines--inject-121" transform="translate(0)">
          <path id="Path_158440" data-name="Path 158440" d="M281.941,74.372a.981.981,0,0,1-.5-.134l-4.873-2.816a1.009,1.009,0,0,1,1.008-1.748l4.873,2.816a1.008,1.008,0,0,1-.5,1.882Z" transform="translate(-238.662 -37.526)" fill="#71a7d3"/>
          <path id="Path_158441" data-name="Path 158441" d="M286.288,59.016h-6.15a1.008,1.008,0,0,1,0-2.016h6.15a1.008,1.008,0,0,1,0,2.016Z" transform="translate(-239.669 -33.415)" fill="#71a7d3"/>
          <path id="Path_158442" data-name="Path 158442" d="M276.1,45.246a1.008,1.008,0,0,1-.5-1.882l6.284-3.63a1.009,1.009,0,1,1,1.008,1.748l-6.284,3.63a1,1,0,0,1-.5.134Z" transform="translate(-238.344 -27.71)" fill="#71a7d3"/>
          <path id="Path_158443" data-name="Path 158443" d="M267.425,35.206a.981.981,0,0,1-.5-.134,1.008,1.008,0,0,1-.37-1.344l3.468-6a1.008,1.008,0,1,1,1.741,1.008l-3.462,6A1.008,1.008,0,0,1,267.425,35.206Z" transform="translate(-235.505 -23.632)" fill="#71a7d3"/>
          <path id="Path_158444" data-name="Path 158444" d="M226.408,74.372a1.008,1.008,0,0,1-.5-1.882l4.873-2.816a1.009,1.009,0,0,1,1.008,1.748l-4.873,2.816A1,1,0,0,1,226.408,74.372Z" transform="translate(-222.052 -37.526)" fill="#71a7d3"/>
          <path id="Path_158445" data-name="Path 158445" d="M227.578,59.016h-6.15a1.008,1.008,0,1,1,0-2.016h6.15a1.008,1.008,0,1,1,0,2.016Z" transform="translate(-220.42 -33.415)" fill="#71a7d3"/>
          <path id="Path_158446" data-name="Path 158446" d="M231.556,45.259a1,1,0,0,1-.5-.134l-6.3-3.6a1.009,1.009,0,1,1,1.008-1.748l6.291,3.63a1.008,1.008,0,0,1-.5,1.882Z" transform="translate(-221.675 -27.723)" fill="#71a7d3"/>
          <path id="Path_158447" data-name="Path 158447" d="M241.616,35.218a1.008,1.008,0,0,1-.874-.5l-3.468-6a1.009,1.009,0,0,1,1.748-1.008l3.468,6a1.008,1.008,0,0,1-.37,1.344A1,1,0,0,1,241.616,35.218Z" transform="translate(-225.902 -23.644)" fill="#71a7d3"/>
          <path id="Path_158448" data-name="Path 158448" d="M255.358,32.153a1.008,1.008,0,0,1-1.008-1.008V22.918a1.008,1.008,0,0,1,2.016,0v8.227A1.008,1.008,0,0,1,255.358,32.153Z" transform="translate(-231.545 -21.91)" fill="#71a7d3"/>
        </g>
      </g>
    </g>
  </g>
</svg>
