<svg xmlns="http://www.w3.org/2000/svg" width="120.021" height="120.001" viewBox="0 0 120.021 120.001">
  <g id="Group_98198" data-name="Group 98198" transform="translate(-456.759 -298.113)">
    <path id="Path_153227" data-name="Path 153227" d="M576.78,416.947a6.741,6.741,0,0,1-2.137,1.088c-.965.1-1.6-.852-1.607-2.05-.017-2.616-.083-5.236.02-7.849a3.438,3.438,0,0,0-2.462-3.8,44.754,44.754,0,0,0-7.509-1.616,25.259,25.259,0,0,0-9.625.879,12.721,12.721,0,0,0-2.388.93,3.388,3.388,0,0,0-2.007,3.4c.08,2.653.019,5.311.022,7.966a2.011,2.011,0,0,1-1.213,2.079,1.779,1.779,0,0,1-2.5-1.609c-.05-3.279-.1-6.564.041-9.839a6.185,6.185,0,0,1,3.036-4.773,16.663,16.663,0,0,1,6.675-2.36l1.192-.231a9.857,9.857,0,0,1-3.035-5.576,15.776,15.776,0,0,1,0-5.09c.882-4.265,4.543-6.439,9.281-5.788,4.118.565,6.7,3.892,6.578,8.445a11.284,11.284,0,0,1-3.38,8.016c4.7.9,9.388,1.62,11.022,7.006ZM565.4,390.837c-.023-.267-.033-.777-.116-1.276-.33-1.967-1.643-3.058-3.858-3.238-2.161-.176-3.853.724-4.393,2.522a7.2,7.2,0,0,0,1.46,7.121,3.2,3.2,0,0,0,5.172-.035A7.524,7.524,0,0,0,565.4,390.837Z" fill="#fe502d"/>
    <path id="Path_153228" data-name="Path 153228" d="M576.78,332.334c-.546.88-1.206,1.574-2.37,1.23-1.2-.356-1.4-1.3-1.388-2.4.026-2.536-.055-5.075.03-7.608a3.313,3.313,0,0,0-2.255-3.58,35.734,35.734,0,0,0-6.547-1.61,26.7,26.7,0,0,0-11.009.843,12.048,12.048,0,0,0-2.364.979,3.224,3.224,0,0,0-1.807,3.152c.061,2.574.02,5.15.013,7.726a4.614,4.614,0,0,1-.094,1.159,1.736,1.736,0,0,1-1.89,1.416,1.673,1.673,0,0,1-1.73-1.715c-.031-3.316-.1-6.638.056-9.947a6.184,6.184,0,0,1,3.1-4.732,16.194,16.194,0,0,1,6.336-2.259c.444-.085.887-.173,1.478-.289a11.231,11.231,0,0,1-3.328-7.049c-.44-4.156,1.375-8.47,6.258-9.388.065-.012.115-.1.172-.147h3.047c3.785.855,6.139,3.078,6.568,7.035a11.286,11.286,0,0,1-3.291,9.577c4.669.84,9.237,1.627,11.02,6.827Zm-11.383-26c-.026-.287-.039-.758-.116-1.218a3.745,3.745,0,0,0-3.735-3.235c-2.341-.173-4.037.735-4.562,2.615a7.332,7.332,0,0,0,1.416,6.935,3.262,3.262,0,0,0,5.336-.036A7.57,7.57,0,0,0,565.4,306.332Z" fill="#fe502d"/>
    <path id="Path_153229" data-name="Path 153229" d="M474.119,298.113c.025.03.046.081.076.087,5.906,1.222,7.1,6.711,6.075,11.077a11.209,11.209,0,0,1-3.044,5.414,31.823,31.823,0,0,1,3.63.794,20.815,20.815,0,0,1,4.26,1.845,6.356,6.356,0,0,1,3.1,5.81c-.036,2.733,0,5.467-.01,8.2-.005,1.471-.721,2.34-1.878,2.323-1.142-.017-1.858-.907-1.864-2.369-.011-2.537-.1-5.08.026-7.612a3.524,3.524,0,0,0-2.554-3.867,34.26,34.26,0,0,0-6.238-1.455,26.945,26.945,0,0,0-11.015.852,11.95,11.95,0,0,0-2.56,1.109,3.073,3.073,0,0,0-1.611,2.911c.035,2.694.016,5.388.008,8.082-.005,1.456-.726,2.347-1.871,2.349s-1.87-.887-1.874-2.343c-.008-2.694.024-5.389-.01-8.083a6.789,6.789,0,0,1,3.131-5.94,16.01,16.01,0,0,1,6.325-2.3c.458-.09.918-.167,1.548-.28a11.344,11.344,0,0,1-3.272-9.551c.424-3.973,2.785-6.19,6.573-7.053Zm-5.96,8.423a7.449,7.449,0,0,0,1.593,4.788,3.3,3.3,0,0,0,5.488,0,7.492,7.492,0,0,0,1.356-6.741,3.345,3.345,0,0,0-2.2-2.411C470.915,300.888,468.135,302.836,468.159,306.536Z" fill="#fe502d"/>
    <path id="Path_153230" data-name="Path 153230" d="M536.351,342.392a27.918,27.918,0,0,0-1.15,2.762,2.7,2.7,0,0,0,.06,1.585c.5,1.391,1.062,2.762,1.694,4.1a2.375,2.375,0,0,0,1.09,1.159c3.441,1.351,3.166,1.171,3.154,4.619-.015,3.915.414,3.6-3.357,5.056a1.876,1.876,0,0,0-.862.954c-.638,1.418-1.242,2.854-1.771,4.315a2.2,2.2,0,0,0-.021,1.482c1.441,3.311,1.6,2.967-1.136,5.669-.028.027-.055.055-.083.083-2.389,2.385-2.143,2.579-5.5,1.08a2.54,2.54,0,0,0-1.7.057,38.043,38.043,0,0,0-3.985,1.653,2.563,2.563,0,0,0-1.238,1.163c-1.239,3.179-1.077,3.181-4.649,3.137-.078,0-.156,0-.235,0-3.589.043-3.424.05-4.657-3.121a2.563,2.563,0,0,0-1.226-1.187A36.89,36.89,0,0,0,506.8,375.3a2.578,2.578,0,0,0-1.7-.052c-3.35,1.455-3.078,1.356-5.5-1.066-2.832-2.826-2.713-2.379-1.2-5.855a2.211,2.211,0,0,0-.1-1.475c-.51-1.386-1.068-2.76-1.7-4.094a2.385,2.385,0,0,0-1.088-1.163c-3.431-1.357-3.172-1.09-3.158-4.729.014-3.692-.419-3.507,3.242-4.9a2.189,2.189,0,0,0,1-1.107c.569-1.236.923-2.581,1.58-3.762a2.133,2.133,0,0,0,.038-2.363c-.234-.4-.382-.853-.589-1.273a2.009,2.009,0,0,1,.457-2.549q1.422-1.394,2.815-2.817a1.918,1.918,0,0,1,2.547-.42,3.941,3.941,0,0,0,4.816-.073,3.419,3.419,0,0,1,1.513-.6c1.637-.214,2.281-1.291,2.749-2.714.579-1.76.967-1.951,2.836-1.953,1.093,0,2.187.023,3.28-.006a1.944,1.944,0,0,1,2.223,1.491,4.1,4.1,0,0,0,3.554,3.412,4.349,4.349,0,0,1,1.7.75c1.1.833,2.084.591,3.219.028,2.058-1.02,2.325-.917,3.965.724.745.746,1.522,1.464,2.221,2.251A8.475,8.475,0,0,1,536.351,342.392Zm-33.379-.986c-1.538,1.383-1.6,1.414-.774,3.048a3.241,3.241,0,0,1-.2,3.491,13.627,13.627,0,0,0-1.789,4.16,3.775,3.775,0,0,1-3.088,3.325,1.169,1.169,0,0,0-1.058,1.376c.031.739.214,1.165.957,1.324a3.812,3.812,0,0,1,3.21,3.488,8.861,8.861,0,0,0,1.482,3.53,3.721,3.721,0,0,1,.168,4.63,1.182,1.182,0,0,0,.258,1.717,1.244,1.244,0,0,0,1.638.225c1.1-.478,2.1-1.244,3.508-.532,1.93.98,4.015,1.651,5.979,2.57a5.138,5.138,0,0,1,1.637,1.476,3.858,3.858,0,0,1,.56,1.4c.185.671.558.879,1.264.907a1.179,1.179,0,0,0,1.406-1.033,3.745,3.745,0,0,1,3.394-3.163,8.554,8.554,0,0,0,3.436-1.4,3.969,3.969,0,0,1,4.949-.2,1,1,0,0,0,1.426-.186c.591-.57.821-1.064.336-1.8a3.707,3.707,0,0,1,.18-4.628,8.617,8.617,0,0,0,1.444-3.422,3.878,3.878,0,0,1,3.255-3.583c.747-.154.9-.61.939-1.339a1.165,1.165,0,0,0-1.071-1.365,3.7,3.7,0,0,1-3.07-3.336,9.466,9.466,0,0,0-1.508-3.645,3.778,3.778,0,0,1-.172-4.637,1.121,1.121,0,0,0-.182-1.625c-.563-.552-1.01-.735-1.7-.29a3.868,3.868,0,0,1-4.746-.2,9.346,9.346,0,0,0-3.648-1.5,3.51,3.51,0,0,1-3.216-3.026c-.255-1.294-1.254-1.293-2.029-.995-.482.185-.8,1.055-.994,1.679a2.97,2.97,0,0,1-2.45,2.193,10.251,10.251,0,0,0-3.389,1.219C507.163,342.686,505.1,343.283,502.972,341.406Z" fill="#fe502d"/>
    <path id="Path_153231" data-name="Path 153231" d="M477.228,399.145c1.223.255,2.281.46,3.332.7a11.228,11.228,0,0,1,5.765,2.912,6.145,6.145,0,0,1,1.875,4.406q.018,4.392,0,8.785c-.006,1.317-.7,2.128-1.794,2.164a1.94,1.94,0,0,1-1.94-2.164c-.024-2.615-.09-5.235.019-7.846a3.418,3.418,0,0,0-2.48-3.785,45.053,45.053,0,0,0-7.51-1.6,24.97,24.97,0,0,0-9.508.864,13.116,13.116,0,0,0-2.4.906,3.461,3.461,0,0,0-2.093,3.469c.081,2.574.026,5.153.019,7.73,0,1.562-.7,2.444-1.9,2.426s-1.843-.884-1.845-2.48c-.005-2.577.048-5.155-.014-7.73a6.623,6.623,0,0,1,3.871-6.553,42.66,42.66,0,0,1,5.962-1.959c.322-.1.666-.135,1.2-.237a10,10,0,0,1-3.105-5.785,14.891,14.891,0,0,1-.048-4.528c.8-4.46,4.5-6.8,9.363-6.139,4.188.571,6.865,4.1,6.6,8.664A11.489,11.489,0,0,1,477.228,399.145Zm-9.069-8.211a7.493,7.493,0,0,0,1.558,4.8c1.6,1.989,3.878,2.054,5.481.078a7.4,7.4,0,0,0,1.376-6.837,3.325,3.325,0,0,0-2.233-2.37C470.895,385.384,468.163,387.3,468.159,390.934Z" fill="#fe502d"/>
    <path id="Path_153232" data-name="Path 153232" d="M471.135,342.565q0-4.273,0-8.546c0-.312-.016-.627.015-.936a1.938,1.938,0,0,1,1.865-1.89,1.856,1.856,0,0,1,1.853,1.986c.035,1.638.013,3.278.013,4.917,0,4.292-.008,8.585,0,12.878.008,2.692,1.249,3.911,3.957,3.918,2.536.007,5.073,0,7.61.006a5.537,5.537,0,0,1,1.276.1,1.7,1.7,0,0,1,1.417,1.978,1.621,1.621,0,0,1-1.671,1.63c-3.433.028-6.877.148-10.3-.075s-5.968-3.361-6.03-7.073C471.1,348.5,471.136,345.531,471.135,342.565Z" fill="#fe502d"/>
    <path id="Path_153233" data-name="Path 153233" d="M502.666,402.2q-4.507,0-9.013,0c-1.637,0-2.44-.609-2.449-1.839s.816-1.9,2.415-1.9q8.546-.008,17.09,0c3.029,0,4.191-1.152,4.193-4.143,0-2.536-.006-5.073,0-7.609,0-1.469.714-2.332,1.879-2.326s1.861.866,1.866,2.342c.008,2.77.023,5.541,0,8.311a7.018,7.018,0,0,1-7.2,7.162C508.519,402.213,505.592,402.2,502.666,402.2Z" fill="#fe502d"/>
    <path id="Path_153234" data-name="Path 153234" d="M531.015,315.146c-2.89,0-5.78-.016-8.67.005-2.407.017-3.679,1.3-3.69,3.7-.012,2.695,0,5.39-.006,8.085-.006,1.383-.71,2.248-1.82,2.284-1.15.038-1.918-.862-1.923-2.3-.01-2.812-.027-5.625,0-8.436a6.941,6.941,0,0,1,6.934-7.07c6.131-.069,12.264-.028,18.4-.015,1.328,0,2.1.714,2.109,1.831a1.855,1.855,0,0,1-2.076,1.893c-3.085.039-6.171.013-9.257.013Z" fill="#fe502d"/>
    <path id="Path_153235" data-name="Path 153235" d="M562.592,369.514c0,2.652.03,5.306-.013,7.958a1.86,1.86,0,0,1-1.891,1.955,1.892,1.892,0,0,1-1.813-1.917c-.027-.349-.016-.7-.016-1.053q0-6.553,0-13.108c0-.312.005-.624,0-.936-.061-2.466-1.314-3.736-3.792-3.762-2.887-.03-5.774.005-8.661-.017a1.854,1.854,0,1,1-.1-3.7c3.2-.041,6.4-.122,9.595.026a6.829,6.829,0,0,1,6.654,6.714c.122,2.608.023,5.226.023,7.84Z" fill="#fe502d"/>
    <path id="Path_153236" data-name="Path 153236" d="M529.236,356.812a12.458,12.458,0,1,1-12.384-12.5A12.493,12.493,0,0,1,529.236,356.812Zm-3.75-.068a8.709,8.709,0,1,0-8.63,8.79A8.722,8.722,0,0,0,525.486,356.744Z" fill="#fe502d"/>
  </g>
</svg>
