<svg xmlns="http://www.w3.org/2000/svg" xmlns:xlink="http://www.w3.org/1999/xlink" width="152" height="152" viewBox="0 0 152 152">
  <defs>
    <linearGradient id="linear-gradient" x1="1.705" y1="0.062" x2="-0.299" y2="0.79" gradientUnits="objectBoundingBox">
      <stop offset="0" stop-color="#ab316d"/>
      <stop offset="1" stop-color="#792d3d"/>
    </linearGradient>
    <linearGradient id="linear-gradient-2" x1="0" y1="0.5" x2="1" y2="0.5" xlink:href="#linear-gradient"/>
    <linearGradient id="linear-gradient-3" x1="0.157" y1="0.033" x2="0.86" y2="1.027" gradientUnits="objectBoundingBox">
      <stop offset="0" stop-color="#ffc444"/>
      <stop offset="0.996" stop-color="#f36f56"/>
    </linearGradient>
    <linearGradient id="linear-gradient-4" x1="0" y1="0.5" x2="1" y2="0.5" xlink:href="#linear-gradient-3"/>
    <linearGradient id="linear-gradient-5" y1="0.5" x2="1" y2="0.5" gradientUnits="objectBoundingBox">
      <stop offset="0" stop-color="#444b8c"/>
      <stop offset="0.996" stop-color="#26264f"/>
    </linearGradient>
    <linearGradient id="linear-gradient-6" x1="0.888" y1="-0.283" x2="0.052" y2="1.048" gradientUnits="objectBoundingBox">
      <stop offset="0" stop-color="#2e75ff"/>
      <stop offset="1" stop-color="#4399fb"/>
    </linearGradient>
    <linearGradient id="linear-gradient-7" x1="-265.319" y1="176.678" x2="-264.113" y2="176.678" gradientUnits="objectBoundingBox">
      <stop offset="0.004" stop-color="#f36f56"/>
      <stop offset="1" stop-color="#ffc444"/>
    </linearGradient>
    <linearGradient id="linear-gradient-8" x1="-136.444" y1="148.562" x2="-138.087" y2="154.852" xlink:href="#linear-gradient-5"/>
    <linearGradient id="linear-gradient-9" x1="0.923" y1="0.274" x2="-0.277" y2="0.87" xlink:href="#linear-gradient"/>
    <linearGradient id="linear-gradient-10" x1="49.264" y1="-253.701" x2="48.022" y2="-240.803" xlink:href="#linear-gradient-5"/>
    <linearGradient id="linear-gradient-11" x1="72.43" y1="-212.966" x2="73.398" y2="-212.966" xlink:href="#linear-gradient-7"/>
    <linearGradient id="linear-gradient-12" x1="-36.597" y1="22.845" x2="-38.3" y2="22.326" xlink:href="#linear-gradient"/>
    <linearGradient id="linear-gradient-13" x1="-38.89" y1="23.732" x2="-39.785" y2="24.348" xlink:href="#linear-gradient"/>
    <linearGradient id="linear-gradient-14" x1="-51.483" y1="23.978" x2="-52.642" y2="24.589" xlink:href="#linear-gradient"/>
    <linearGradient id="linear-gradient-15" x1="0.489" y1="0.996" x2="0.545" y2="-0.591" gradientUnits="objectBoundingBox">
      <stop offset="0" stop-color="#338bf9"/>
      <stop offset="0.996" stop-color="#055ad7"/>
    </linearGradient>
    <linearGradient id="linear-gradient-16" x1="-2410.227" y1="0.38" x2="-2410.084" y2="1.756" xlink:href="#linear-gradient-7"/>
    <linearGradient id="linear-gradient-17" x1="-1410.272" y1="48.967" x2="-1410.389" y2="47.873" xlink:href="#linear-gradient-5"/>
    <linearGradient id="linear-gradient-18" x1="0.418" y1="-0.915" x2="0.616" y2="3.155" xlink:href="#linear-gradient-7"/>
    <linearGradient id="linear-gradient-19" x1="1294.56" y1="425.341" x2="1296.012" y2="426.927" xlink:href="#linear-gradient-7"/>
    <linearGradient id="linear-gradient-20" x1="-2249.933" y1="0.882" x2="-2249.56" y2="1.619" xlink:href="#linear-gradient-7"/>
    <linearGradient id="linear-gradient-21" x1="-0.113" y1="1.166" x2="0.806" y2="0.027" xlink:href="#linear-gradient-15"/>
    <linearGradient id="linear-gradient-22" x1="-259.753" y1="0.009" x2="-259.485" y2="1.163" xlink:href="#linear-gradient-15"/>
    <linearGradient id="linear-gradient-23" x1="1.381" y1="1.921" x2="0.876" y2="1.105" gradientUnits="objectBoundingBox">
      <stop offset="0" stop-color="#122244"/>
      <stop offset="1" stop-color="#0e4689"/>
    </linearGradient>
    <linearGradient id="linear-gradient-24" x1="1.809" y1="1.928" x2="0.966" y2="1.044" xlink:href="#linear-gradient-23"/>
    <linearGradient id="linear-gradient-25" x1="0.338" y1="0.279" x2="1.335" y2="1.636" gradientUnits="objectBoundingBox">
      <stop offset="0.004" stop-color="#74a0e3"/>
      <stop offset="1" stop-color="#45bef6"/>
    </linearGradient>
    <linearGradient id="linear-gradient-26" x1="-5.296" y1="1.308" x2="-5.807" y2="0.491" gradientUnits="objectBoundingBox">
      <stop offset="0" stop-color="#041c44"/>
      <stop offset="1" stop-color="#183d89"/>
    </linearGradient>
    <linearGradient id="linear-gradient-27" x1="-10.021" y1="1.261" x2="-10.931" y2="0.394" xlink:href="#linear-gradient-26"/>
    <linearGradient id="linear-gradient-28" x1="-6.351" y1="-0.333" x2="-5.343" y2="1.03" gradientUnits="objectBoundingBox">
      <stop offset="0.004" stop-color="#3c7ce3"/>
      <stop offset="1" stop-color="#71a8f6"/>
    </linearGradient>
    <linearGradient id="linear-gradient-29" x1="498.623" y1="0.5" x2="499.623" y2="0.5" gradientUnits="objectBoundingBox">
      <stop offset="0" stop-color="#311944"/>
      <stop offset="1" stop-color="#6b3976"/>
    </linearGradient>
    <linearGradient id="linear-gradient-30" x1="1650.611" y1="1.387" x2="1653.35" y2="-4.631" xlink:href="#linear-gradient-3"/>
    <linearGradient id="linear-gradient-31" x1="498.623" y1="0.5" x2="499.623" y2="0.5" xlink:href="#linear-gradient-29"/>
    <linearGradient id="linear-gradient-32" x1="1120.3" y1="1.496" x2="1122.347" y2="-5.226" xlink:href="#linear-gradient-3"/>
    <linearGradient id="linear-gradient-33" x1="-626.066" y1="-0.126" x2="-625.287" y2="0.819" xlink:href="#linear-gradient-29"/>
    <linearGradient id="linear-gradient-34" x1="-560.88" y1="0.5" x2="-559.88" y2="0.5" xlink:href="#linear-gradient-29"/>
    <linearGradient id="linear-gradient-35" x1="-1321.28" y1="-1.023" x2="-1321.988" y2="4.364" xlink:href="#linear-gradient"/>
    <linearGradient id="linear-gradient-36" x1="-470.313" y1="1.268" x2="-468.862" y2="0.258" gradientUnits="objectBoundingBox">
      <stop offset="0" stop-color="#3b85f9"/>
      <stop offset="0.996" stop-color="#255cd7"/>
    </linearGradient>
    <linearGradient id="linear-gradient-37" x1="-219.503" y1="0.69" x2="-218.828" y2="-0.006" xlink:href="#linear-gradient-36"/>
    <linearGradient id="linear-gradient-38" x1="-410.64" y1="0.18" x2="-410.28" y2="1.967" xlink:href="#linear-gradient-3"/>
    <linearGradient id="linear-gradient-39" x1="-1438.081" y1="-0.567" x2="-1438.845" y2="4.963" xlink:href="#linear-gradient"/>
    <linearGradient id="linear-gradient-40" x1="-386.993" y1="0.655" x2="-385.805" y2="-0.119" xlink:href="#linear-gradient-36"/>
    <linearGradient id="linear-gradient-41" x1="-484.744" y1="385.619" x2="-484.689" y2="383.516" xlink:href="#linear-gradient"/>
    <linearGradient id="linear-gradient-42" x1="648.835" y1="407.902" x2="648.199" y2="406.146" xlink:href="#linear-gradient-5"/>
    <linearGradient id="linear-gradient-43" x1="-1565.992" y1="411.234" x2="-1566.025" y2="414.26" xlink:href="#linear-gradient"/>
    <linearGradient id="linear-gradient-44" x1="-378.585" y1="0.858" x2="-377.424" y2="-0.261" xlink:href="#linear-gradient-36"/>
  </defs>
  <g id="Group_100041" data-name="Group 100041" transform="translate(-939.759 -774)">
    <circle id="Ellipse_4692" data-name="Ellipse 4692" cx="76" cy="76" r="76" transform="translate(939.759 774)" fill="#ffca00" opacity="0.48"/>
    <g id="Group_89971" data-name="Group 89971" transform="translate(-855.077 -1017)">
      <g id="Group_89982" data-name="Group 89982" transform="translate(1802.723 1795.618)">
        <path id="Path_152888" data-name="Path 152888" d="M1811.71,1856.148h-7.267a3.122,3.122,0,0,1-3.122-3.122v-24.267h10.389Z" transform="translate(-1801.321 -1788.318)" fill="url(#linear-gradient)"/>
        <g id="Group_89979" data-name="Group 89979" transform="translate(3.28)">
          <path id="Path_152889" data-name="Path 152889" d="M1900.469,1810.45l-92.406-5.347c-2.128-.1-4.045,2.219-4.045,4.169v118.99c0,2.7,2.763,3.25,4.892,3.032l91.559-9.35a3.476,3.476,0,0,0,3.023-3.42V1813.707A3.253,3.253,0,0,0,1900.469,1810.45Z" transform="translate(-1804.018 -1793.434)" fill="url(#linear-gradient-2)"/>
          <path id="Path_152890" data-name="Path 152890" d="M1901.719,1809.533l-92.589-4.555a3.509,3.509,0,0,0-3.861,3.367v119.92a3.3,3.3,0,0,0,3.861,3.161l92.589-9.529a3.494,3.494,0,0,0,3.022-3.447V1812.815A3.267,3.267,0,0,0,1901.719,1809.533Z" transform="translate(-1803.748 -1793.461)" fill="url(#linear-gradient-3)"/>
          <path id="Path_152891" data-name="Path 152891" d="M1808.813,1929.511a1.786,1.786,0,0,1-2.085-1.71V1808.136a1.9,1.9,0,0,1,2.085-1.822l92.589,4.374a1.769,1.769,0,0,1,1.638,1.776V1918.3a1.893,1.893,0,0,1-1.638,1.864Z" transform="translate(-1803.432 -1793.172)" opacity="0.3" fill="url(#linear-gradient-4)" style="mix-blend-mode: multiply;isolation: isolate"/>
          <path id="Path_152892" data-name="Path 152892" d="M1893.744,1915.859l-79.192,7.63v-110.4l79.192,2.983Z" transform="translate(-1801.74 -1791.707)" fill="#fff"/>
          <path id="Path_152893" data-name="Path 152893" d="M1859.248,1818.076l-31.649.4.71-7.137a1.932,1.932,0,0,1,1.607-1.824l5.36-.823a1.928,1.928,0,0,0,1.45-1.114l.582-1.261,14.02.865Z" transform="translate(-1798.919 -1793.172)" fill="#97a6b7" opacity="0.3" style="mix-blend-mode: multiply;isolation: isolate"/>
          <path id="Path_152894" data-name="Path 152894" d="M1876.15,1815.781a1.7,1.7,0,0,0-1.613-1.411l-5.057-.226a4.061,4.061,0,0,1-3.894-4.33l.2-5.473a1.777,1.777,0,0,0-1.681-1.883l-1.661-.1a2.1,2.1,0,0,1-1.932-2.483,3.753,3.753,0,0,0-3.477-4.358,4.552,4.552,0,0,0-4.7,3.858,2.574,2.574,0,0,1-.352.974,2.6,2.6,0,0,1-2.333,1.245l-1.714-.1a2.273,2.273,0,0,0-2.289,1.692l-1.425,5.556a5.442,5.442,0,0,1-5.41,4.029l-5.547-.249a2.41,2.41,0,0,0-2.218,1.32l-3.343,6.633a.767.767,0,0,0,.66,1.149l48.109,1.6a.892.892,0,0,0,.876-1.029Zm-19.8-15.526a1.1,1.1,0,0,1-1.026-1.287,1.335,1.335,0,0,1,1.376-1.133,1.1,1.1,0,0,1,1.022,1.285A1.334,1.334,0,0,1,1856.347,1800.255Z" transform="translate(-1798.919 -1795.508)" fill="url(#linear-gradient-5)"/>
          <path id="Path_152895" data-name="Path 152895" d="M1876.384,1815.9a1.7,1.7,0,0,0-1.613-1.411l-5.057-.226a4.061,4.061,0,0,1-3.894-4.33l.2-5.473a1.777,1.777,0,0,0-1.681-1.883l-1.661-.1a2.1,2.1,0,0,1-1.933-2.484,3.753,3.753,0,0,0-3.477-4.358,4.553,4.553,0,0,0-4.7,3.858,2.542,2.542,0,0,1-.352.974,2.6,2.6,0,0,1-2.333,1.245l-1.714-.1a2.273,2.273,0,0,0-2.289,1.692l-1.424,5.556a5.444,5.444,0,0,1-5.41,4.029l-5.548-.249a2.41,2.41,0,0,0-2.218,1.319l-3.343,6.633a.767.767,0,0,0,.66,1.149l48.109,1.6a.894.894,0,0,0,.877-1.029Zm-19.8-15.526a1.1,1.1,0,0,1-1.025-1.287,1.333,1.333,0,0,1,1.375-1.134,1.1,1.1,0,0,1,1.022,1.286A1.334,1.334,0,0,1,1856.581,1800.377Z" transform="translate(-1798.868 -1795.482)" fill="#97a6b7"/>
          <g id="Group_89971-2" data-name="Group 89971" transform="translate(28.964 8.748)">
            <path id="Path_152896" data-name="Path 152896" d="M1868.15,1817.423c-4.291-2.649-7.583-.771-10.259-3.76-2.863-3.2-.932-7.409-3.894-9.4-1.9-1.272-3.588-.15-5.794-.494a6.1,6.1,0,0,1-2.565-1.073l-1.188,4.633a5.444,5.444,0,0,1-5.41,4.029l-5.548-.249a2.41,2.41,0,0,0-2.218,1.32l-3.343,6.633a.767.767,0,0,0,.66,1.149l43.721,1.452A13.024,13.024,0,0,0,1868.15,1817.423Z" transform="translate(-1827.833 -1802.701)" fill="#fff" opacity="0.5" style="mix-blend-mode: soft-light;isolation: isolate"/>
          </g>
          <g id="Group_89978" data-name="Group 89978" transform="translate(22.031 34.606)">
            <g id="Group_89977" data-name="Group 89977">
              <g id="Group_89972" data-name="Group 89972" transform="translate(32.991)">
                <path id="Path_152897" data-name="Path 152897" d="M1878.516,1827.977l-29.258-.373v-3.642l29.258.507Z" transform="translate(-1849.258 -1823.962)" fill="#d8dee8"/>
                <path id="Path_152898" data-name="Path 152898" d="M1878.516,1832.985l-29.258-.14V1829.2l29.258.273Z" transform="translate(-1849.258 -1822.828)" fill="#d8dee8"/>
                <path id="Path_152899" data-name="Path 152899" d="M1878.516,1837.993l-29.258.095v-3.642l29.258.039Z" transform="translate(-1849.258 -1821.695)" fill="#d8dee8"/>
                <path id="Path_152900" data-name="Path 152900" d="M1878.516,1843.037l-29.258.329v-3.642l29.258-.2Z" transform="translate(-1849.258 -1820.595)" fill="#d8dee8"/>
              </g>
              <g id="Group_89973" data-name="Group 89973" transform="translate(0 29.002)">
                <path id="Path_152901" data-name="Path 152901" d="M1874.01,1851.362l-51.878,1.25v-3.793l51.878-1.012Z" transform="translate(-1822.132 -1847.807)" fill="#d8dee8"/>
                <path id="Path_152902" data-name="Path 152902" d="M1874.01,1856.481l-51.878,1.665v-3.793l51.878-1.428Z" transform="translate(-1822.132 -1846.7)" fill="#d8dee8"/>
                <path id="Path_152903" data-name="Path 152903" d="M1874.01,1861.6l-51.878,2.08v-3.793l51.878-1.843Z" transform="translate(-1822.132 -1845.594)" fill="#d8dee8"/>
                <path id="Path_152904" data-name="Path 152904" d="M1874.01,1866.717l-51.878,2.495v-3.793l51.878-2.258Z" transform="translate(-1822.132 -1844.487)" fill="#d8dee8"/>
              </g>
              <g id="Group_89974" data-name="Group 89974" transform="translate(55.425 28.799)">
                <path id="Path_152905" data-name="Path 152905" d="M1874.528,1851.149l-6.825.164v-3.539l6.825-.133Z" transform="translate(-1867.703 -1847.641)" fill="#d8dee8"/>
                <path id="Path_152906" data-name="Path 152906" d="M1874.528,1856.2l-6.825.219v-3.54l6.825-.188Z" transform="translate(-1867.703 -1846.548)" fill="#d8dee8"/>
                <path id="Path_152907" data-name="Path 152907" d="M1874.528,1861.249l-6.825.274v-3.539l6.825-.243Z" transform="translate(-1867.703 -1845.457)" fill="#d8dee8"/>
                <path id="Path_152908" data-name="Path 152908" d="M1874.528,1866.3l-6.825.328v-3.539l6.825-.3Z" transform="translate(-1867.703 -1844.365)" fill="#d8dee8"/>
              </g>
              <g id="Group_89975" data-name="Group 89975" transform="translate(0 57.778)">
                <path id="Path_152909" data-name="Path 152909" d="M1874.01,1875.023l-51.878,3.168V1874.4l51.878-2.931Z" transform="translate(-1822.132 -1871.467)" fill="#d8dee8"/>
                <path id="Path_152910" data-name="Path 152910" d="M1874.01,1880.141l-51.878,3.583v-3.793l51.878-3.346Z" transform="translate(-1822.132 -1870.36)" fill="#d8dee8"/>
                <path id="Path_152911" data-name="Path 152911" d="M1874.01,1885.259l-51.878,4v-3.793l51.878-3.761Z" transform="translate(-1822.132 -1869.254)" fill="#d8dee8"/>
                <path id="Path_152912" data-name="Path 152912" d="M1874.01,1890.377l-51.878,4.413V1891l51.878-4.176Z" transform="translate(-1822.132 -1868.147)" fill="#d8dee8"/>
              </g>
              <g id="Group_89976" data-name="Group 89976" transform="translate(55.425 57.192)">
                <path id="Path_152913" data-name="Path 152913" d="M1874.528,1874.493l-6.825.417v-3.539l6.825-.385Z" transform="translate(-1867.703 -1870.985)" fill="#d8dee8"/>
                <path id="Path_152914" data-name="Path 152914" d="M1874.528,1879.544l-6.825.471v-3.539l6.825-.44Z" transform="translate(-1867.703 -1869.893)" fill="#d8dee8"/>
                <path id="Path_152915" data-name="Path 152915" d="M1874.528,1884.594l-6.825.526v-3.539l6.825-.495Z" transform="translate(-1867.703 -1868.802)" fill="#d8dee8"/>
                <path id="Path_152916" data-name="Path 152916" d="M1874.528,1889.644l-6.825.58v-3.539l6.825-.55Z" transform="translate(-1867.703 -1867.709)" fill="#d8dee8"/>
              </g>
            </g>
          </g>
        </g>
        <g id="Group_89981" data-name="Group 89981" transform="translate(0 31.732)">
          <path id="Path_152917" data-name="Path 152917" d="M1847.975,1822.515l-42.486-.916a4.079,4.079,0,0,0-4.168,4.078v29.447h0a4.066,4.066,0,0,1,4-4.065l42.653-.672,9-13.913Z" transform="translate(-1801.321 -1821.598)" fill="url(#linear-gradient-6)"/>
          <g id="Group_89980" data-name="Group 89980" transform="translate(9.725 6.765)">
            <path id="Path_152918" data-name="Path 152918" d="M1829.8,1842.511a2.921,2.921,0,0,0-.2-.938,2.378,2.378,0,0,0,1.854-2.3,2.289,2.289,0,0,0-.361-1.236,2.344,2.344,0,0,0,1.407-2.135,2.28,2.28,0,0,0-.169-.865l.033-.077,7.136-.4a2.36,2.36,0,0,0,2.137-2.658,2.1,2.1,0,0,0-2.266-1.861l-12.453-.12-.3-.537c-1.051-1.863-3.348-2.845-5.171-1.81l-5.614,3.184v12.878l8.18,1.766C1825.127,1845.651,1830.087,1845.684,1829.8,1842.511Z" transform="translate(-1807.91 -1827.161)" fill="#fff"/>
            <path id="Path_152919" data-name="Path 152919" d="M1816.648,1842.589v-11.941a.8.8,0,0,0-.789-.812l-5.741-.051a.8.8,0,0,0-.8.806v12.055a.8.8,0,0,0,.8.805l5.741-.051A.8.8,0,0,0,1816.648,1842.589Z" transform="translate(-1809.317 -1826.593)" fill="#fff"/>
          </g>
        </g>
      </g>
      <g id="Group_89988" data-name="Group 89988" transform="translate(1840.537 1838.544)">
        <g id="Group_89986" data-name="Group 89986" transform="translate(0 36.963)">
          <path id="Path_152920" data-name="Path 152920" d="M1851.777,1906.581l-.145,2.319a.875.875,0,0,0,.963.106l.692-2.277Z" transform="translate(-1828.256 -1851.379)" fill="url(#linear-gradient-7)"/>
          <path id="Path_152921" data-name="Path 152921" d="M1852.159,1907.983s-1.136.464-.916.966a12.527,12.527,0,0,0,.883,1.386,1.328,1.328,0,0,0,1.468.512c.184-.055.371-.109.537-.152a.36.36,0,0,0,.029-.688,2.728,2.728,0,0,0-.464-.125c-.416-.064-.989-1.047-1.056-1.44A.594.594,0,0,0,1852.159,1907.983Z" transform="translate(-1828.347 -1851.076)" fill="url(#linear-gradient-8)"/>
          <path id="Path_152922" data-name="Path 152922" d="M1850.564,1888.276c1.673.578,7.862,2.917,9.24,8.281a9.808,9.808,0,0,1,.271,2.384c.035,5.415-3.114,10-5.4,12.665l-2.166-.036a12.262,12.262,0,0,1-.174-5.775c.792-3.555,2.848-4.478,2.451-6.222-.72-3.168-8.077-2.689-8.77-5.526C1845.761,1893.021,1846.311,1891.281,1850.564,1888.276Z" transform="translate(-1829.482 -1855.337)" fill="url(#linear-gradient-9)"/>
          <path id="Path_152923" data-name="Path 152923" d="M1832.8,1915.156l3.142-.073a.209.209,0,0,0,.129-.371.8.8,0,0,0-.607-.2c-.6.062-1.937-.775-2.545-.595-.2.058-.36.526-.443.656A.376.376,0,0,0,1832.8,1915.156Z" transform="translate(-1832.412 -1849.797)" fill="url(#linear-gradient-10)"/>
          <path id="Path_152924" data-name="Path 152924" d="M1834.12,1912.947l-1.294,1.18a1.44,1.44,0,0,0,1.11.192l1.322-.91Z" transform="translate(-1832.323 -1850.002)" fill="url(#linear-gradient-11)"/>
          <g id="Group_89983" data-name="Group 89983" transform="translate(16.479 35.45)" opacity="0.3" style="mix-blend-mode: color-burn;isolation: isolate">
            <path id="Path_152925" data-name="Path 152925" d="M1856.115,1901.8c.868-2.344,1.908-5.232.72-6.873-1.2-1.66-3.838-.259-6.481-1.6a6.574,6.574,0,0,1-2.826-2.992c-1.484,1.533-1.686,2.562-1.516,3.259.693,2.837,8.05,2.358,8.77,5.526.4,1.744-1.659,2.667-2.451,6.222a12.028,12.028,0,0,0,.027,5.152,17.778,17.778,0,0,1,1.269-3.888C1854.575,1904.557,1855.2,1904.269,1856.115,1901.8Z" transform="translate(-1845.961 -1890.341)" fill="url(#linear-gradient-12)"/>
          </g>
          <path id="Path_152926" data-name="Path 152926" d="M1854.259,1887.746a56.039,56.039,0,0,1-19.057,31.344,2.647,2.647,0,0,1-1.9-.146,18.063,18.063,0,0,1,1.772-5.37c2-3.848,3.78-3.724,5.789-7.121,1.47-2.487,1.948-5.13,2.9-10.415.74-4.08.74-5.056,1.75-6.226C1847.565,1887.447,1851.4,1887.42,1854.259,1887.746Z" transform="translate(-1832.219 -1855.484)" fill="url(#linear-gradient-13)"/>
          <g id="Group_89984" data-name="Group 89984" transform="translate(1.086 32.478)" opacity="0.3" style="mix-blend-mode: multiply;isolation: isolate">
            <path id="Path_152927" data-name="Path 152927" d="M1835.844,1914.38c.713-1.126,1.979-2.3,4.477-4.613,2.581-2.391,2.482-1.958,2.989-2.665,2.276-3.163,1.044-6.544,1.606-10.624a16.248,16.248,0,0,1,4.245-8.582,6.33,6.33,0,0,0-3.64,1.851c-1.174,1.3-1.087,2.564-1.75,6.226-.956,5.285-1.434,7.928-2.9,10.415-2.009,3.4-3.79,3.273-5.789,7.121a18.062,18.062,0,0,0-1.772,5.369,2.632,2.632,0,0,0,1.542.225A7.643,7.643,0,0,1,1835.844,1914.38Z" transform="translate(-1833.305 -1887.897)" fill="url(#linear-gradient-14)"/>
          </g>
          <path id="Path_152928" data-name="Path 152928" d="M1853.813,1862.736s.837,6.231-5.727,10.623l6.985,1.666s2.235-4.18.617-11.105Z" transform="translate(-1829.023 -1860.859)" fill="url(#linear-gradient-15)"/>
          <path id="Path_152929" data-name="Path 152929" d="M1854.11,1864.253a3.979,3.979,0,0,0,.315-1.348c-.061-.418-1.056-.977-1.734-1.553s.026.58.182.843a2.041,2.041,0,0,1,.632,1.553Z" transform="translate(-1828.09 -1861.193)" fill="url(#linear-gradient-16)"/>
          <path id="Path_152930" data-name="Path 152930" d="M1847.9,1868.122c.343-.676.484-.671.568-1.029.192-.812-.3-1.844-.724-1.858-.271-.01-.293.412-.867,1.069-.7.8-1.13.7-1.543,1.4-.1.163-.531.9-.264,1.448a1.6,1.6,0,0,0,2.253.271C1847.587,1869.162,1847.475,1868.954,1847.9,1868.122Z" transform="translate(-1829.694 -1860.319)" fill="url(#linear-gradient-17)"/>
          <path id="Path_152931" data-name="Path 152931" d="M1846.944,1868.208a7.987,7.987,0,0,1,.069,2.329c-.154.943-1.9,1.923-2.238,2.2s.889.586,2.012.44,4.2-1.131,4.663-1.678-.544-.279-1.394-.382-1.663-1.529-1.687-2.256S1846.944,1868.208,1846.944,1868.208Z" transform="translate(-1829.751 -1859.677)" fill="url(#linear-gradient-18)"/>
          <g id="Group_89985" data-name="Group 89985" transform="translate(16.725 7.018)">
            <path id="Path_152932" data-name="Path 152932" d="M1847,1869.435a1.657,1.657,0,0,0,1.62-.231c.682-.545-.331-2.218-1.024-2.24a1.1,1.1,0,0,0-.768.4c-.118.144-.124.238-.321.468-.182.213-.261.232-.289.334-.034.129.024.346.491.715a.474.474,0,0,0-.511.154.3.3,0,0,0-.03.158C1846.193,1869.449,1846.524,1869.565,1847,1869.435Z" transform="translate(-1846.164 -1866.964)" fill="url(#linear-gradient-19)"/>
          </g>
          <path id="Path_152933" data-name="Path 152933" d="M1862.377,1865.867s.521-.073.359-1.067c-.128-.778-.031-1.041.153-.9s.209.589.209.589a3.687,3.687,0,0,0,.948-1.322c.276-.75.454-.119.512.257a3.388,3.388,0,0,1-.651,1.755,4.7,4.7,0,0,0-.631,1.174Z" transform="translate(-1825.933 -1860.843)" fill="url(#linear-gradient-20)"/>
          <path id="Path_152934" data-name="Path 152934" d="M1868.339,1865.764l-1.776-1.244c-.72,4.428-2.357,6.166-3.749,6.926-3.354,1.834-6.349-1.434-12.77-.1-1.77.368-4.854,1.052-6.564,3.573-.45.663-.609,1.164-1.356,5.918-.955,6.076-.989,7.137-.854,8.444.246,2.395.4,3.846,1.5,5.13,2.931,3.41,9.162,1.652,9.944,1.421,1.442-.427,3.685-1.092,4.577-3,.42-.9.375-1.717-.27-5-1.276-6.5-1.439-6.92-1.082-7.632,1.2-2.4,5.012-1.028,8.231-3.262C1866.052,1875.634,1868.173,1872.788,1868.339,1865.764Z" transform="translate(-1830.509 -1860.474)" fill="url(#linear-gradient-21)"/>
          <path id="Path_152935" data-name="Path 152935" d="M1848.594,1893.33c.628-1.288-.217-2.476.71-4.025,1.18-1.974,3.3-1.3,4.1-2.762,1.367-2.495-4.013-5.973-2.92-9.944a6.11,6.11,0,0,1,3.868-3.787c3.38-1.154,5.591,1.788,8.759.867a5.431,5.431,0,0,0,2.485-1.607,7.913,7.913,0,0,1-2.63,3.234c-3.219,2.234-7.03.86-8.231,3.262-.356.711-.194,1.132,1.082,7.632.645,3.281.689,4.1.27,5-.891,1.907-3.134,2.572-4.577,3a16.5,16.5,0,0,1-4.747.653A3.246,3.246,0,0,0,1848.594,1893.33Z" transform="translate(-1829.308 -1858.841)" opacity="0.3" fill="url(#linear-gradient-22)" style="mix-blend-mode: multiply;isolation: isolate"/>
        </g>
        <g id="Group_89987" data-name="Group 89987" transform="translate(14.42)">
          <path id="Path_152936" data-name="Path 152936" d="M1876.785,1861.243a3.238,3.238,0,0,0,2.922-5.755,2.512,2.512,0,0,0-.231-.1,18.572,18.572,0,0,0,.615-2.653,2.541,2.541,0,0,0,.254-.01,3.376,3.376,0,0,0,2.969-3.437,2.861,2.861,0,0,0-3.1-2.9c-.088.008-.174.022-.259.038a17.2,17.2,0,0,0-.716-2.533c.076-.045.153-.091.227-.144a3.379,3.379,0,0,0,1.024-4.426,2.86,2.86,0,0,0-4.166-.789c-.074.051-.142.107-.21.163a15.272,15.272,0,0,0-1.859-1.734c.047-.078.094-.156.135-.239.808-1.589,1.862-3.325.382-4.047-3.422-1.67-4.891-.241-5.7,1.349-.043.083-.078.167-.113.25a15.115,15.115,0,0,0-2.5-.477c.006-.089.01-.178.007-.266-.034-1.749.484-2.7-1.2-2.729-3.666-.071-4.9,1.52-4.867,3.269,0,.091.01.181.018.27a17.031,17.031,0,0,0-2.468.916c-.038-.078-.078-.156-.123-.231a2.861,2.861,0,0,0-4.166-.79,3.379,3.379,0,0,0-1.023,4.426c.044.073.094.142.142.21a18.646,18.646,0,0,0-1.778,2.063c-.071-.045-.142-.088-.219-.127a3.237,3.237,0,0,0-2.921,5.755,2.393,2.393,0,0,0,.231.1,18.711,18.711,0,0,0-.617,2.653c-.084,0-.168,0-.254.01a3.377,3.377,0,0,0-2.969,3.437,2.86,2.86,0,0,0,3.1,2.9c.088-.007.173-.021.259-.036a16.9,16.9,0,0,0,.716,2.533c-.077.045-.153.091-.229.143a3.379,3.379,0,0,0-1.023,4.426,4.189,4.189,0,0,0,5.172,1.105c.074-.052-.865-.423-.8-.479a15.164,15.164,0,0,0,1.858,1.734c-.047.078-.094.156-.135.238a2.99,2.99,0,1,0,5.315,2.7c.041-.083.078-.167.113-.251a14.968,14.968,0,0,0,2.5.477c0,.089-.009.178-.007.266a2.86,2.86,0,0,0,3.1,2.9,3.377,3.377,0,0,0,2.968-3.437c0-.091-.009-.181-.018-.27a16.814,16.814,0,0,0,2.468-.916c.039.078.078.155.124.231a2.859,2.859,0,0,0,4.164.791,3.378,3.378,0,0,0,1.024-4.426c-.045-.073-.094-.142-.143-.21a18.518,18.518,0,0,0,1.778-2.063C1876.638,1861.161,1876.709,1861.2,1876.785,1861.243Zm-18.3.232c-5.328-2.706-7.274-9.578-4.344-15.347s9.625-8.256,14.955-5.55,7.274,9.578,4.344,15.348S1863.816,1864.181,1858.487,1861.475Z" transform="translate(-1844.268 -1830.802)" fill="url(#linear-gradient-23)"/>
          <path id="Path_152937" data-name="Path 152937" d="M1877.568,1852.138a3.376,3.376,0,0,0,2.969-3.437,2.859,2.859,0,0,0-3.1-2.9,2.593,2.593,0,0,0-.259.036,17.2,17.2,0,0,0-.716-2.533c.077-.045.153-.091.227-.144,1.433-1,3.206-3.43,2.2-4.772-1.919-2.551-3.9-1.446-5.337-.443-.074.051-.142.107-.21.163a15.272,15.272,0,0,0-1.859-1.734c.047-.078.094-.156.135-.239a3.337,3.337,0,0,0,.188-2.629q-2.076,3.654-4.09,7.341c4.252,3.116,5.6,9.255,2.947,14.489a11.736,11.736,0,0,1-11.1,6.615c-.195.5-.387,1.013-.595,1.514-.567,1.36-1.21,2.691-1.855,4.02q.608.115,1.22.179c0,.089-.009.178-.007.266.035,1.75,1.1,3.235,4.133,3.075,1.678-.089,1.967-1.866,1.931-3.615,0-.091-.009-.181-.018-.27a16.814,16.814,0,0,0,2.468-.916c.039.078.078.155.124.231.867,1.44,3.877,2.052,5.31,1.048s.746-3.244-.121-4.684c-.045-.073-.094-.142-.143-.21a18.518,18.518,0,0,0,1.778-2.063c.072.045.143.088.219.126a3.237,3.237,0,0,0,2.922-5.755,2.512,2.512,0,0,0-.231-.1,18.572,18.572,0,0,0,.615-2.653A2.541,2.541,0,0,0,1877.568,1852.138Z" transform="translate(-1841.491 -1830.217)" fill="url(#linear-gradient-24)"/>
          <path id="Path_152938" data-name="Path 152938" d="M1878.083,1861.422a3.238,3.238,0,0,0,2.922-5.756c-.076-.038-.153-.071-.231-.1a18.545,18.545,0,0,0,.615-2.651c.085,0,.169,0,.254-.01a3.377,3.377,0,0,0,2.969-3.437,2.859,2.859,0,0,0-3.1-2.9c-.088.009-.174.022-.259.037a17.232,17.232,0,0,0-.716-2.532c.076-.045.153-.093.227-.145a3.376,3.376,0,0,0,1.024-4.425,2.861,2.861,0,0,0-4.166-.791c-.073.052-.142.107-.21.164a15.158,15.158,0,0,0-1.858-1.734c.047-.078.094-.156.135-.238a2.99,2.99,0,1,0-5.315-2.7c-.043.083-.078.166-.113.25a15.09,15.09,0,0,0-2.5-.477c.006-.088.01-.176.008-.266a2.86,2.86,0,0,0-3.1-2.9,3.376,3.376,0,0,0-2.969,3.437c0,.091.01.18.018.269a17.193,17.193,0,0,0-2.468.916c-.038-.078-.078-.156-.123-.23a2.86,2.86,0,0,0-4.166-.79,3.377,3.377,0,0,0-1.023,4.425c.045.074.093.143.142.212a18.548,18.548,0,0,0-1.777,2.063,2.418,2.418,0,0,0-.22-.126,3.237,3.237,0,0,0-2.921,5.755c.075.039.153.071.231.1a18.745,18.745,0,0,0-.617,2.653c-.084,0-.168,0-.254.008a3.378,3.378,0,0,0-2.969,3.437,2.86,2.86,0,0,0,3.1,2.9c.088-.007.173-.022.259-.037a17.043,17.043,0,0,0,.716,2.534c-.077.045-.153.091-.229.143a3.377,3.377,0,0,0-1.023,4.425,2.86,2.86,0,0,0,4.166.791c.073-.051.142-.107.21-.163a15.14,15.14,0,0,0,1.859,1.734c-.047.077-.094.156-.135.237a2.99,2.99,0,1,0,5.315,2.7c.042-.082.078-.165.113-.249a15.109,15.109,0,0,0,2.5.477c0,.089-.009.176-.007.266a2.861,2.861,0,0,0,3.1,2.9,3.377,3.377,0,0,0,2.968-3.437c0-.093-.009-.181-.018-.27a17.07,17.07,0,0,0,2.468-.916c.039.078.078.156.124.231a2.86,2.86,0,0,0,4.166.789,3.377,3.377,0,0,0,1.023-4.425c-.045-.074-.094-.142-.142-.21a18.723,18.723,0,0,0,1.777-2.063C1877.936,1861.34,1878.008,1861.384,1878.083,1861.422Zm-18.3.232c-5.33-2.706-7.276-9.578-4.346-15.349s9.625-8.255,14.954-5.548,7.274,9.577,4.344,15.348S1865.114,1864.36,1859.786,1861.655Z" transform="translate(-1843.988 -1830.802)" fill="url(#linear-gradient-25)"/>
        </g>
      </g>
      <g id="Group_89989" data-name="Group 89989" transform="translate(1879.648 1874.356)">
        <path id="Path_152939" data-name="Path 152939" d="M1911.779,1901.99a4.611,4.611,0,0,0,3.424-8.531c-.113-.045-.228-.082-.342-.116a26.47,26.47,0,0,0,.541-3.84c.119-.01.24-.023.36-.045a4.809,4.809,0,0,0,3.78-5.247,4.073,4.073,0,0,0-4.754-3.72c-.123.022-.243.052-.362.085a24.378,24.378,0,0,0-1.335-3.5c.1-.074.207-.15.307-.234a4.81,4.81,0,0,0,.9-6.4,4.072,4.072,0,0,0-6.007-.6c-.1.083-.188.17-.278.258a21.52,21.52,0,0,0-2.853-2.227c.057-.116.113-.232.163-.354.945-2.356,2.223-4.95.034-5.789-5.063-1.941-6.967.272-7.912,2.627-.05.123-.09.246-.129.369a21.453,21.453,0,0,0-3.6-.362c0-.126-.009-.253-.022-.38-.27-2.476.348-3.883-2.041-3.719-5.208.359-6.762,2.771-6.493,5.247.015.129.036.255.06.38a24.259,24.259,0,0,0-3.385,1.609c-.064-.106-.13-.212-.2-.313a4.073,4.073,0,0,0-6.007-.6,4.81,4.81,0,0,0-.9,6.4c.073.1.151.191.229.281a26.7,26.7,0,0,0-2.262,3.149c-.107-.055-.214-.107-.327-.152a4.61,4.61,0,0,0-3.422,8.53c.112.046.226.082.341.117a26.446,26.446,0,0,0-.541,3.838c-.119.011-.238.024-.36.045a4.808,4.808,0,0,0-3.779,5.248,4.072,4.072,0,0,0,4.753,3.72c.124-.022.245-.052.364-.085a24.232,24.232,0,0,0,1.334,3.5c-.1.074-.207.15-.307.234a4.81,4.81,0,0,0-.9,6.4c1.412,1.934,5.57,2.523,7.476.918.1-.081-1.281-.49-1.191-.579a21.392,21.392,0,0,0,2.853,2.227c-.057.117-.113.234-.162.355a4.258,4.258,0,1,0,7.877,3.162c.049-.123.089-.246.128-.369a21.619,21.619,0,0,0,3.6.362c0,.126.008.252.023.379a4.072,4.072,0,0,0,4.753,3.72,4.809,4.809,0,0,0,3.78-5.248c-.013-.129-.036-.255-.059-.38a24.319,24.319,0,0,0,3.386-1.609c.063.106.129.212.2.313a4.072,4.072,0,0,0,6.007.6,4.81,4.81,0,0,0,.9-6.4c-.072-.1-.15-.191-.229-.282a26.689,26.689,0,0,0,2.264-3.148C1911.559,1901.892,1911.666,1901.945,1911.779,1901.99Zm-25.924,2.623c-7.9-3.169-11.519-12.672-8.087-21.224s12.617-12.915,20.515-9.746,11.519,12.672,8.087,21.224S1893.753,1907.783,1885.855,1904.614Z" transform="translate(-1864.57 -1860.247)" fill="url(#linear-gradient-26)"/>
        <path id="Path_152940" data-name="Path 152940" d="M1911.477,1888.835a4.808,4.808,0,0,0,3.78-5.247,4.073,4.073,0,0,0-4.754-3.721c-.123.022-.243.052-.362.085a24.377,24.377,0,0,0-1.335-3.5c.1-.074.207-.15.307-.234,1.906-1.6,4.117-5.266,2.514-7.044-3.041-3.376-5.719-1.562-7.625.042-.1.083-.188.17-.278.258a21.52,21.52,0,0,0-2.853-2.227c.057-.116.113-.232.163-.354a4.749,4.749,0,0,0-.063-3.754q-2.487,5.442-4.881,10.924c6.42,3.885,9.111,12.425,6,20.182a16.707,16.707,0,0,1-14.913,10.772c-.214.742-.422,1.487-.654,2.223-.634,2-1.381,3.967-2.127,5.934q.876.086,1.754.1c0,.126.008.252.023.379.269,2.476,1.961,4.45,6.245,3.842,2.371-.337,2.557-2.893,2.288-5.37-.013-.129-.035-.255-.059-.38a24.319,24.319,0,0,0,3.386-1.609c.063.106.129.212.2.313,1.411,1.934,5.758,2.424,7.663.821s.651-4.693-.76-6.627c-.072-.1-.15-.191-.229-.282a26.689,26.689,0,0,0,2.264-3.148c.106.054.213.107.326.152a4.611,4.611,0,0,0,3.424-8.531c-.113-.045-.228-.082-.342-.116a26.478,26.478,0,0,0,.541-3.839C1911.236,1888.87,1911.356,1888.857,1911.477,1888.835Z" transform="translate(-1860.284 -1859.622)" fill="url(#linear-gradient-27)"/>
        <path id="Path_152941" data-name="Path 152941" d="M1913.639,1902.046a4.61,4.61,0,0,0,3.423-8.529c-.112-.045-.226-.081-.34-.116a26.656,26.656,0,0,0,.541-3.84c.119-.011.239-.023.36-.045a4.808,4.808,0,0,0,3.779-5.247,4.072,4.072,0,0,0-4.754-3.72c-.123.022-.243.052-.362.084a24.305,24.305,0,0,0-1.334-3.5c.1-.073.207-.15.307-.232a4.81,4.81,0,0,0,.9-6.4,4.073,4.073,0,0,0-6.007-.6c-.1.081-.188.169-.278.258a21.586,21.586,0,0,0-2.853-2.227c.057-.116.113-.233.162-.355a4.257,4.257,0,1,0-7.878-3.161c-.048.121-.09.244-.128.369a21.6,21.6,0,0,0-3.6-.364c0-.125-.009-.252-.023-.378a4.072,4.072,0,0,0-4.754-3.721,4.807,4.807,0,0,0-3.779,5.247c.013.13.035.256.06.381a24.432,24.432,0,0,0-3.386,1.608c-.063-.106-.129-.211-.2-.311a4.072,4.072,0,0,0-6.007-.6,4.809,4.809,0,0,0-.9,6.4c.072.1.15.191.229.281a26.38,26.38,0,0,0-2.263,3.149c-.106-.055-.214-.107-.326-.152a4.61,4.61,0,0,0-3.424,8.53c.113.045.228.082.342.115a26.349,26.349,0,0,0-.541,3.839c-.119.011-.24.023-.36.045a4.808,4.808,0,0,0-3.78,5.247,4.071,4.071,0,0,0,4.754,3.72c.123-.022.243-.052.362-.084a24.443,24.443,0,0,0,1.334,3.5c-.1.073-.206.149-.305.232a4.809,4.809,0,0,0-.9,6.4,4.072,4.072,0,0,0,6.007.6c.1-.081.188-.169.279-.258a21.562,21.562,0,0,0,2.852,2.227c-.057.115-.112.232-.162.355a4.257,4.257,0,1,0,7.877,3.161c.05-.121.09-.245.129-.368a21.467,21.467,0,0,0,3.6.364c0,.125.008.252.022.378a4.072,4.072,0,0,0,4.754,3.72,4.807,4.807,0,0,0,3.78-5.247c-.014-.13-.036-.255-.061-.381a24.4,24.4,0,0,0,3.386-1.608c.064.106.13.21.2.311a4.071,4.071,0,0,0,6.007.6,4.809,4.809,0,0,0,.9-6.4c-.073-.1-.151-.191-.229-.281a26.416,26.416,0,0,0,2.262-3.149C1913.419,1901.948,1913.526,1902,1913.639,1902.046Zm-25.924,2.623c-7.9-3.169-11.519-12.672-8.087-21.223s12.617-12.916,20.515-9.745,11.519,12.672,8.087,21.223S1895.614,1907.84,1887.715,1904.669Z" transform="translate(-1864.168 -1860.247)" fill="url(#linear-gradient-28)"/>
      </g>
      <g id="Group_89994" data-name="Group 89994" transform="translate(1884.361 1819.729)">
        <g id="Group_89990" data-name="Group 89990" transform="translate(31.48 52.335)">
          <path id="Path_152942" data-name="Path 152942" d="M1895.021,1860.29l1.69-1.016h.762a9.181,9.181,0,0,1,.231,1.016c-.34.557-1.923.98-2.91,1.016-.163.006-.392.006-.451-.112C1894.243,1860.991,1894.689,1860.569,1895.021,1860.29Z" transform="translate(-1894.328 -1858.166)" fill="url(#linear-gradient-29)"/>
          <path id="Path_152943" data-name="Path 152943" d="M1896.344,1858.363a2.244,2.244,0,0,1-.172,1.192c-.1.13.9.421.9-.084a5.725,5.725,0,0,1,.11-1.069Z" transform="translate(-1893.931 -1858.363)" fill="url(#linear-gradient-30)"/>
        </g>
        <g id="Group_89991" data-name="Group 89991" transform="translate(20.18 52.175)">
          <path id="Path_152944" data-name="Path 152944" d="M1885.73,1860.153l1.689-1.016h.763a9.21,9.21,0,0,1,.231,1.016c-.341.556-1.923.98-2.909,1.016-.164,0-.393.006-.453-.113C1884.952,1860.855,1885.4,1860.433,1885.73,1860.153Z" transform="translate(-1885.037 -1858.036)" fill="url(#linear-gradient-31)"/>
          <path id="Path_152945" data-name="Path 152945" d="M1887.536,1858.232a11.4,11.4,0,0,1-.653,1.186c-.1.129.729.389.9-.084.142-.384.54-.9.592-1.063Z" transform="translate(-1884.64 -1858.232)" fill="url(#linear-gradient-32)"/>
        </g>
        <path id="Path_152946" data-name="Path 152946" d="M1887.889,1835.7a75.4,75.4,0,0,1-1.042,27.989l1.564.4a3.86,3.86,0,0,0,2.2-1.275c.83-1.051.451-2.019,1.042-3.767.564-1.669,1.238-1.756,1.913-3.188.879-1.866.342-3.008.4-5.5.107-4.223,1.735-4.551,2.26-9.793.275-2.745.411-4.321-.579-5.331C1894.268,1833.82,1891.22,1834.072,1887.889,1835.7Z" transform="translate(-1864.466 -1811.229)" fill="url(#linear-gradient-33)"/>
        <path id="Path_152947" data-name="Path 152947" d="M1890.658,1834.937a77.051,77.051,0,0,1,6.259,29.321h1.738a10.932,10.932,0,0,0,1.565-3.36c.4-1.491.148-1.875.4-4.23.352-3.211.81-3.358.754-5.273-.066-2.2-.735-2.193-.985-4.4-.371-3.272.98-4.282.927-7.3a11.622,11.622,0,0,0-1.855-5.91Z" transform="translate(-1863.642 -1811.344)" fill="url(#linear-gradient-34)"/>
        <path id="Path_152948" data-name="Path 152948" d="M1872.63,1834.312l-.682.6a11.4,11.4,0,0,0-2.035.078,10.055,10.055,0,0,0-1.468.6.505.505,0,0,0,.562.213,2.764,2.764,0,0,1,.937-.258,1.66,1.66,0,0,0,1.113.772c.785.1,1.149-.82,1.149-.82l.743-.631Z" transform="translate(-1868.445 -1811.229)" fill="url(#linear-gradient-35)"/>
        <path id="Path_152949" data-name="Path 152949" d="M1879.813,1821.236c-.276.034-.817.2-2.042,2.477a35.106,35.106,0,0,0-2.608,6.91,19.449,19.449,0,0,1-3.825,6.52l1.086,1.13c3.108-.078,4.646-1.068,5.477-1.956,1.213-1.3.838-2.29,2.3-4.259,1.714-2.3,3.012-2,3.607-3.521C1884.924,1825.689,1881.776,1821,1879.813,1821.236Z" transform="translate(-1867.819 -1814.058)" fill="url(#linear-gradient-36)"/>
        <path id="Path_152950" data-name="Path 152950" d="M1894.056,1817.98c-1.778-.57-3.169-.412-5.649-.131a21.117,21.117,0,0,0-7.954,2.652c-1.976,1.023-2.5,1.6-2.781,2.26-.654,1.541.144,3.224.652,4.259,1.3,2.645,2.505,2.553,5.259,5.737,2.423,2.8,3.634,4.2,4.433,6.259a4.959,4.959,0,0,0,1.826,2.781,4.55,4.55,0,0,0,3.042.434c2.972-.388,3.235-2.307,5.173-2.172,1.542.106,1.877,1.359,4.52,1.782,1.181.188,1.525,0,1.7-.132.642-.509.568-1.731-.044-4.215-.94-3.819-1.778-5.058-2.564-8.083-.817-3.143-.188-2.867-.87-4.651C1900.563,1824.16,1898.686,1819.463,1894.056,1817.98Z" transform="translate(-1866.503 -1814.844)" fill="url(#linear-gradient-37)"/>
        <path id="Path_152951" data-name="Path 152951" d="M1893.365,1832.2l-6.265-6.875a.671.671,0,0,0-.648-.259l-7.175,1.172a.41.41,0,0,0-.258.657l5.833,7.5a.674.674,0,0,0,.663.249l7.441-1.377A.676.676,0,0,0,1893.365,1832.2Z" transform="translate(-1866.177 -1813.23)" fill="url(#linear-gradient-38)"/>
        <path id="Path_152952" data-name="Path 152952" d="M1891.757,1829.375l-1.342-.585s-.512-.731-.927-.854a8.886,8.886,0,0,0-1.9.05s.147.585.439.682,1.2.17,1.342.464a.906.906,0,0,0,.878.415,5.216,5.216,0,0,1,1.438.316Z" transform="translate(-1864.306 -1812.617)" fill="url(#linear-gradient-39)"/>
        <path id="Path_152953" data-name="Path 152953" d="M1891.4,1840.223c.619-.755.285-1.66,1.131-2.434,1.377-1.26,3.869-.328,4-.782.156-.545-3.577-1.334-4-3.477-.191-.972.512-1.137.434-2.434-.073-1.216-.832-2.218-2.347-4.173-1.2-1.544-1.519-1.669-1.564-2.26-.135-1.778,2.111-3.015,3.042-3.651a8.532,8.532,0,0,1,3.44-1.366,13.065,13.065,0,0,1,3.167,4.669c.681,1.784.052,1.508.87,4.651.786,3.025,1.624,4.264,2.564,8.083.612,2.485.686,3.706.044,4.215-.17.135-.514.32-1.7.132-2.643-.423-2.977-1.676-4.52-1.782-1.937-.135-2.2,1.784-5.173,2.172a4.549,4.549,0,0,1-3.042-.434,3.127,3.127,0,0,1-.633-.517C1889.74,1841.319,1890.877,1840.855,1891.4,1840.223Z" transform="translate(-1864.409 -1814.4)" opacity="0.3" fill="url(#linear-gradient-40)" style="mix-blend-mode: multiply;isolation: isolate"/>
        <g id="Group_89993" data-name="Group 89993" transform="translate(11.25)">
          <path id="Path_152954" data-name="Path 152954" d="M1880.936,1816.363a3.782,3.782,0,0,0,5.095,2.182c.86-.316,1.007-.2,1.057-.139.242.323-1.48,2.473-3.916,3.128-1.488.4-3.077.2-3.161-.215s.977-.378,1.1-1.248c.084-.6-1.139-1.329-1.769-1.738C1879.445,1817.543,1880.833,1817.156,1880.936,1816.363Z" transform="translate(-1877.339 -1815.11)" fill="url(#linear-gradient-41)"/>
          <g id="Group_89992" data-name="Group 89992">
            <path id="Path_152955" data-name="Path 152955" d="M1878.62,1818.472a1.382,1.382,0,0,1-.916-1.416,1.713,1.713,0,0,1,.78-1.063,2.853,2.853,0,0,1,2.853-.438c.49.275.59,1.4.618,1.592.033.221-.078.37-.13.582-.072.3-.181.76-.353,1.531a3.69,3.69,0,0,0-.528-.392,3.526,3.526,0,0,0-.793-.356C1879.4,1818.3,1879.142,1818.642,1878.62,1818.472Z" transform="translate(-1877.695 -1815.333)" fill="url(#linear-gradient-42)"/>
            <path id="Path_152956" data-name="Path 152956" d="M1881.745,1818.143a2.059,2.059,0,0,1-1.137,1.71c-1.01.523-2.464-1.34-2.124-2.124a1.507,1.507,0,0,1,.884-.685c.232-.069.349-.035.728-.156.349-.111.415-.191.552-.178.171.018.4.179.591.862a.627.627,0,0,1,.456-.5.411.411,0,0,1,.205.035C1882.189,1817.246,1882.154,1817.667,1881.745,1818.143Z" transform="translate(-1877.535 -1815.035)" fill="url(#linear-gradient-43)"/>
          </g>
        </g>
        <path id="Path_152957" data-name="Path 152957" d="M1886.426,1818.618c1.175-1.984,6.705-1.257,10.43.912,1.214.707,4.914,2.863,5.173,6.607a6.208,6.208,0,0,1-.87,3.608c-1.631,2.6-5.488,3.75-9.562,2.738l.131-1.3a4.457,4.457,0,0,0,2.955-1c.246-.2,1.706-1.417,1.478-2.52-.385-1.852-5-.843-8-3.955C1886.822,1822.307,1885.652,1819.923,1886.426,1818.618Z" transform="translate(-1864.61 -1814.873)" fill="url(#linear-gradient-44)"/>
      </g>
    </g>
  </g>
</svg>
