<svg xmlns="http://www.w3.org/2000/svg" width="371.563" height="284.687" viewBox="0 0 371.563 284.687">
  <g id="Group_79878" data-name="Group 79878" transform="translate(-185 -627.6)">
    <g id="Group_79816" data-name="Group 79816" transform="translate(-835 -504.934)">
      <g id="Group_79776" data-name="Group 79776" transform="translate(98.502)">
        <g id="Group_79644" data-name="Group 79644" transform="translate(921.498 1137.647)">
          <path id="Path_145968" data-name="Path 145968" d="M61.969,0A61.969,61.969,0,1,1,0,61.969,61.969,61.969,0,0,1,61.969,0Z" transform="translate(238.103 150.33)" fill="#fe502d" opacity="0.444" style="mix-blend-mode: multiply;isolation: isolate"/>
          <path id="Path_145969" data-name="Path 145969" d="M42.343,0A42.343,42.343,0,1,1,0,42.343,42.344,42.344,0,0,1,42.343,0Z" transform="translate(34.622 16.168)" fill="#fe502d" opacity="0.444" style="mix-blend-mode: multiply;isolation: isolate"/>
          <rect id="Rectangle_34812" data-name="Rectangle 34812" width="371.563" height="278.672" transform="translate(0 0.451)" fill="none"/>
          <path id="Path_145967" data-name="Path 145967" d="M139.787,0A139.787,139.787,0,1,1,0,139.787,139.787,139.787,0,0,1,139.787,0Z" transform="translate(45.995)" fill="#0d2380"/>
          <path id="Path_145971" data-name="Path 145971" d="M11.642,0A11.642,11.642,0,1,1,0,11.642,11.642,11.642,0,0,1,11.642,0Z" transform="translate(45.995 232.768)" fill="#fe502d" opacity="0.444" style="mix-blend-mode: multiply;isolation: isolate"/>
          <g id="Group_78276" data-name="Group 78276" transform="translate(267.348 193.764)">
            <g id="Group_53306" data-name="Group 53306" transform="translate(0)">
              <path id="Path_99200" data-name="Path 99200" d="M415.9,51.028a.842.842,0,1,1-.842-.8A.824.824,0,0,1,415.9,51.028Z" transform="translate(-414.214 -50.224)" fill="#fff"/>
              <path id="Path_99201" data-name="Path 99201" d="M424.343,51.028a.842.842,0,1,1-.841-.8A.823.823,0,0,1,424.343,51.028Z" transform="translate(-415.087 -50.224)" fill="#fff"/>
              <path id="Path_99202" data-name="Path 99202" d="M432.789,51.028a.842.842,0,1,1-.841-.8A.823.823,0,0,1,432.789,51.028Z" transform="translate(-415.96 -50.224)" fill="#fff"/>
              <path id="Path_99203" data-name="Path 99203" d="M441.236,51.028a.842.842,0,1,1-.842-.8A.824.824,0,0,1,441.236,51.028Z" transform="translate(-416.834 -50.224)" fill="#fff"/>
              <path id="Path_99204" data-name="Path 99204" d="M449.682,51.028a.842.842,0,1,1-.841-.8A.824.824,0,0,1,449.682,51.028Z" transform="translate(-417.707 -50.224)" fill="#fff"/>
              <path id="Path_99205" data-name="Path 99205" d="M458.128,51.028a.842.842,0,1,1-.841-.8A.823.823,0,0,1,458.128,51.028Z" transform="translate(-418.58 -50.224)" fill="#fff"/>
              <path id="Path_99206" data-name="Path 99206" d="M466.575,51.028a.842.842,0,1,1-.842-.8A.824.824,0,0,1,466.575,51.028Z" transform="translate(-419.453 -50.224)" fill="#fff"/>
              <path id="Path_99207" data-name="Path 99207" d="M475.021,51.028a.842.842,0,1,1-.841-.8A.823.823,0,0,1,475.021,51.028Z" transform="translate(-420.326 -50.224)" fill="#fff"/>
              <path id="Path_99208" data-name="Path 99208" d="M483.467,51.028a.842.842,0,1,1-.841-.8A.824.824,0,0,1,483.467,51.028Z" transform="translate(-421.199 -50.224)" fill="#fff"/>
              <path id="Path_99209" data-name="Path 99209" d="M491.914,51.028a.842.842,0,1,1-.842-.8A.824.824,0,0,1,491.914,51.028Z" transform="translate(-422.073 -50.224)" fill="#fff"/>
              <path id="Path_99210" data-name="Path 99210" d="M500.36,51.028a.842.842,0,1,1-.842-.8A.824.824,0,0,1,500.36,51.028Z" transform="translate(-422.946 -50.224)" fill="#fff"/>
            </g>
            <g id="Group_53307" data-name="Group 53307" transform="translate(0 6.438)">
              <path id="Path_99211" data-name="Path 99211" d="M415.9,58.536a.842.842,0,1,1-.842-.8A.824.824,0,0,1,415.9,58.536Z" transform="translate(-414.214 -57.732)" fill="#fff"/>
              <path id="Path_99212" data-name="Path 99212" d="M424.343,58.536a.842.842,0,1,1-.841-.8A.823.823,0,0,1,424.343,58.536Z" transform="translate(-415.087 -57.732)" fill="#fff"/>
              <path id="Path_99213" data-name="Path 99213" d="M432.789,58.536a.842.842,0,1,1-.841-.8A.823.823,0,0,1,432.789,58.536Z" transform="translate(-415.96 -57.732)" fill="#fff"/>
              <path id="Path_99214" data-name="Path 99214" d="M441.236,58.536a.842.842,0,1,1-.842-.8A.824.824,0,0,1,441.236,58.536Z" transform="translate(-416.834 -57.732)" fill="#fff"/>
              <path id="Path_99215" data-name="Path 99215" d="M449.682,58.536a.842.842,0,1,1-.841-.8A.824.824,0,0,1,449.682,58.536Z" transform="translate(-417.707 -57.732)" fill="#fff"/>
              <path id="Path_99216" data-name="Path 99216" d="M458.128,58.536a.842.842,0,1,1-.841-.8A.823.823,0,0,1,458.128,58.536Z" transform="translate(-418.58 -57.732)" fill="#fff"/>
              <path id="Path_99217" data-name="Path 99217" d="M466.575,58.536a.842.842,0,1,1-.842-.8A.824.824,0,0,1,466.575,58.536Z" transform="translate(-419.453 -57.732)" fill="#fff"/>
              <path id="Path_99218" data-name="Path 99218" d="M475.021,58.536a.842.842,0,1,1-.841-.8A.823.823,0,0,1,475.021,58.536Z" transform="translate(-420.326 -57.732)" fill="#fff"/>
              <path id="Path_99219" data-name="Path 99219" d="M483.467,58.536a.842.842,0,1,1-.841-.8A.824.824,0,0,1,483.467,58.536Z" transform="translate(-421.199 -57.732)" fill="#fff"/>
              <path id="Path_99220" data-name="Path 99220" d="M491.914,58.536a.842.842,0,1,1-.842-.8A.824.824,0,0,1,491.914,58.536Z" transform="translate(-422.073 -57.732)" fill="#fff"/>
              <path id="Path_99221" data-name="Path 99221" d="M500.36,58.536a.842.842,0,1,1-.842-.8A.824.824,0,0,1,500.36,58.536Z" transform="translate(-422.946 -57.732)" fill="#fff"/>
            </g>
            <g id="Group_53308" data-name="Group 53308" transform="translate(0 12.875)">
              <ellipse id="Ellipse_3955" data-name="Ellipse 3955" cx="0.841" cy="0.805" rx="0.841" ry="0.805" fill="#fff"/>
              <path id="Path_99222" data-name="Path 99222" d="M424.343,66.044a.842.842,0,1,1-.841-.8A.824.824,0,0,1,424.343,66.044Z" transform="translate(-415.087 -65.24)" fill="#fff"/>
              <ellipse id="Ellipse_3956" data-name="Ellipse 3956" cx="0.841" cy="0.805" rx="0.841" ry="0.805" transform="translate(15.146)" fill="#fff"/>
              <path id="Path_99223" data-name="Path 99223" d="M441.236,66.044a.842.842,0,1,1-.842-.8A.824.824,0,0,1,441.236,66.044Z" transform="translate(-416.833 -65.24)" fill="#fff"/>
              <path id="Path_99224" data-name="Path 99224" d="M449.682,66.044a.842.842,0,1,1-.841-.8A.824.824,0,0,1,449.682,66.044Z" transform="translate(-417.707 -65.24)" fill="#fff"/>
              <ellipse id="Ellipse_3957" data-name="Ellipse 3957" cx="0.841" cy="0.805" rx="0.841" ry="0.805" transform="translate(37.866)" fill="#fff"/>
              <path id="Path_99225" data-name="Path 99225" d="M466.575,66.044a.842.842,0,1,1-.842-.8A.825.825,0,0,1,466.575,66.044Z" transform="translate(-419.453 -65.24)" fill="#fff"/>
              <ellipse id="Ellipse_3958" data-name="Ellipse 3958" cx="0.841" cy="0.805" rx="0.841" ry="0.805" transform="translate(53.012)" fill="#fff"/>
              <ellipse id="Ellipse_3959" data-name="Ellipse 3959" cx="0.841" cy="0.805" rx="0.841" ry="0.805" transform="translate(60.585)" fill="#fff"/>
              <path id="Path_99226" data-name="Path 99226" d="M491.914,66.044a.842.842,0,1,1-.842-.8A.825.825,0,0,1,491.914,66.044Z" transform="translate(-422.073 -65.24)" fill="#fff"/>
              <path id="Path_99227" data-name="Path 99227" d="M500.36,66.044a.842.842,0,1,1-.842-.8A.824.824,0,0,1,500.36,66.044Z" transform="translate(-422.946 -65.24)" fill="#fff"/>
            </g>
            <g id="Group_53309" data-name="Group 53309" transform="translate(0 19.313)">
              <ellipse id="Ellipse_3960" data-name="Ellipse 3960" cx="0.841" cy="0.805" rx="0.841" ry="0.805" transform="translate(0 0)" fill="#fff"/>
              <path id="Path_99228" data-name="Path 99228" d="M424.343,73.552a.842.842,0,1,1-.841-.805A.823.823,0,0,1,424.343,73.552Z" transform="translate(-415.087 -72.747)" fill="#fff"/>
              <ellipse id="Ellipse_3961" data-name="Ellipse 3961" cx="0.841" cy="0.805" rx="0.841" ry="0.805" transform="translate(15.146 0)" fill="#fff"/>
              <path id="Path_99229" data-name="Path 99229" d="M441.236,73.552a.842.842,0,1,1-.842-.805A.824.824,0,0,1,441.236,73.552Z" transform="translate(-416.833 -72.747)" fill="#fff"/>
              <path id="Path_99230" data-name="Path 99230" d="M449.682,73.552a.842.842,0,1,1-.841-.805A.823.823,0,0,1,449.682,73.552Z" transform="translate(-417.707 -72.747)" fill="#fff"/>
              <ellipse id="Ellipse_3962" data-name="Ellipse 3962" cx="0.841" cy="0.805" rx="0.841" ry="0.805" transform="translate(37.866 0)" fill="#fff"/>
              <path id="Path_99231" data-name="Path 99231" d="M466.575,73.552a.842.842,0,1,1-.842-.805A.824.824,0,0,1,466.575,73.552Z" transform="translate(-419.453 -72.747)" fill="#fff"/>
              <ellipse id="Ellipse_3963" data-name="Ellipse 3963" cx="0.841" cy="0.805" rx="0.841" ry="0.805" transform="translate(53.012 0)" fill="#fff"/>
              <ellipse id="Ellipse_3964" data-name="Ellipse 3964" cx="0.841" cy="0.805" rx="0.841" ry="0.805" transform="translate(60.585 0)" fill="#fff"/>
              <path id="Path_99232" data-name="Path 99232" d="M491.914,73.552a.842.842,0,1,1-.842-.805A.824.824,0,0,1,491.914,73.552Z" transform="translate(-422.073 -72.747)" fill="#fff"/>
              <path id="Path_99233" data-name="Path 99233" d="M500.36,73.552a.842.842,0,1,1-.842-.805A.824.824,0,0,1,500.36,73.552Z" transform="translate(-422.946 -72.747)" fill="#fff"/>
            </g>
            <g id="Group_53310" data-name="Group 53310" transform="translate(0 25.75)">
              <path id="Path_99234" data-name="Path 99234" d="M415.9,81.06a.842.842,0,1,1-.842-.805A.824.824,0,0,1,415.9,81.06Z" transform="translate(-414.214 -80.255)" fill="#fff"/>
              <path id="Path_99235" data-name="Path 99235" d="M424.343,81.06a.842.842,0,1,1-.841-.805A.823.823,0,0,1,424.343,81.06Z" transform="translate(-415.087 -80.255)" fill="#fff"/>
              <path id="Path_99236" data-name="Path 99236" d="M432.789,81.06a.842.842,0,1,1-.841-.805A.823.823,0,0,1,432.789,81.06Z" transform="translate(-415.96 -80.255)" fill="#fff"/>
              <path id="Path_99237" data-name="Path 99237" d="M441.236,81.06a.842.842,0,1,1-.842-.805A.824.824,0,0,1,441.236,81.06Z" transform="translate(-416.834 -80.255)" fill="#fff"/>
              <path id="Path_99238" data-name="Path 99238" d="M449.682,81.06a.842.842,0,1,1-.841-.805A.823.823,0,0,1,449.682,81.06Z" transform="translate(-417.707 -80.255)" fill="#fff"/>
              <path id="Path_99239" data-name="Path 99239" d="M458.128,81.06a.842.842,0,1,1-.841-.805A.823.823,0,0,1,458.128,81.06Z" transform="translate(-418.58 -80.255)" fill="#fff"/>
              <path id="Path_99240" data-name="Path 99240" d="M466.575,81.06a.842.842,0,1,1-.842-.805A.824.824,0,0,1,466.575,81.06Z" transform="translate(-419.453 -80.255)" fill="#fff"/>
              <path id="Path_99241" data-name="Path 99241" d="M475.021,81.06a.842.842,0,1,1-.841-.805A.823.823,0,0,1,475.021,81.06Z" transform="translate(-420.326 -80.255)" fill="#fff"/>
              <path id="Path_99242" data-name="Path 99242" d="M483.467,81.06a.842.842,0,1,1-.841-.805A.823.823,0,0,1,483.467,81.06Z" transform="translate(-421.199 -80.255)" fill="#fff"/>
              <path id="Path_99243" data-name="Path 99243" d="M491.914,81.06a.842.842,0,1,1-.842-.805A.824.824,0,0,1,491.914,81.06Z" transform="translate(-422.073 -80.255)" fill="#fff"/>
              <path id="Path_99244" data-name="Path 99244" d="M500.36,81.06a.842.842,0,1,1-.842-.805A.824.824,0,0,1,500.36,81.06Z" transform="translate(-422.946 -80.255)" fill="#fff"/>
            </g>
            <g id="Group_53311" data-name="Group 53311" transform="translate(0 32.188)">
              <ellipse id="Ellipse_3965" data-name="Ellipse 3965" cx="0.841" cy="0.805" rx="0.841" ry="0.805" transform="translate(0 0)" fill="#fff"/>
              <path id="Path_99245" data-name="Path 99245" d="M424.343,88.568a.842.842,0,1,1-.841-.805A.823.823,0,0,1,424.343,88.568Z" transform="translate(-415.087 -87.763)" fill="#fff"/>
              <ellipse id="Ellipse_3966" data-name="Ellipse 3966" cx="0.841" cy="0.805" rx="0.841" ry="0.805" transform="translate(15.146 0)" fill="#fff"/>
              <path id="Path_99246" data-name="Path 99246" d="M441.236,88.568a.842.842,0,1,1-.842-.805A.824.824,0,0,1,441.236,88.568Z" transform="translate(-416.833 -87.763)" fill="#fff"/>
              <path id="Path_99247" data-name="Path 99247" d="M449.682,88.568a.842.842,0,1,1-.841-.805A.823.823,0,0,1,449.682,88.568Z" transform="translate(-417.707 -87.763)" fill="#fff"/>
              <ellipse id="Ellipse_3967" data-name="Ellipse 3967" cx="0.841" cy="0.805" rx="0.841" ry="0.805" transform="translate(37.866 0)" fill="#fff"/>
              <path id="Path_99248" data-name="Path 99248" d="M466.575,88.568a.842.842,0,1,1-.842-.805A.824.824,0,0,1,466.575,88.568Z" transform="translate(-419.453 -87.763)" fill="#fff"/>
              <ellipse id="Ellipse_3968" data-name="Ellipse 3968" cx="0.841" cy="0.805" rx="0.841" ry="0.805" transform="translate(53.012 0)" fill="#fff"/>
              <ellipse id="Ellipse_3969" data-name="Ellipse 3969" cx="0.841" cy="0.805" rx="0.841" ry="0.805" transform="translate(60.585 0)" fill="#fff"/>
              <path id="Path_99249" data-name="Path 99249" d="M491.914,88.568a.842.842,0,1,1-.842-.805A.824.824,0,0,1,491.914,88.568Z" transform="translate(-422.073 -87.763)" fill="#fff"/>
              <path id="Path_99250" data-name="Path 99250" d="M500.36,88.568a.842.842,0,1,1-.842-.805A.824.824,0,0,1,500.36,88.568Z" transform="translate(-422.946 -87.763)" fill="#fff"/>
            </g>
            <g id="Group_53312" data-name="Group 53312" transform="translate(0 38.626)">
              <ellipse id="Ellipse_3970" data-name="Ellipse 3970" cx="0.841" cy="0.805" rx="0.841" ry="0.805" fill="#fff"/>
              <path id="Path_99251" data-name="Path 99251" d="M424.343,96.075a.842.842,0,1,1-.841-.8A.823.823,0,0,1,424.343,96.075Z" transform="translate(-415.087 -95.271)" fill="#fff"/>
              <ellipse id="Ellipse_3971" data-name="Ellipse 3971" cx="0.841" cy="0.805" rx="0.841" ry="0.805" transform="translate(15.146)" fill="#fff"/>
              <path id="Path_99252" data-name="Path 99252" d="M441.236,96.075a.842.842,0,1,1-.842-.8A.824.824,0,0,1,441.236,96.075Z" transform="translate(-416.833 -95.271)" fill="#fff"/>
              <path id="Path_99253" data-name="Path 99253" d="M449.682,96.075a.842.842,0,1,1-.841-.8A.824.824,0,0,1,449.682,96.075Z" transform="translate(-417.707 -95.271)" fill="#fff"/>
              <ellipse id="Ellipse_3972" data-name="Ellipse 3972" cx="0.841" cy="0.805" rx="0.841" ry="0.805" transform="translate(37.866)" fill="#fff"/>
              <path id="Path_99254" data-name="Path 99254" d="M466.575,96.075a.842.842,0,1,1-.842-.8A.824.824,0,0,1,466.575,96.075Z" transform="translate(-419.453 -95.271)" fill="#fff"/>
              <ellipse id="Ellipse_3973" data-name="Ellipse 3973" cx="0.841" cy="0.805" rx="0.841" ry="0.805" transform="translate(53.012)" fill="#fff"/>
              <ellipse id="Ellipse_3974" data-name="Ellipse 3974" cx="0.841" cy="0.805" rx="0.841" ry="0.805" transform="translate(60.585)" fill="#fff"/>
              <path id="Path_99255" data-name="Path 99255" d="M491.914,96.075a.842.842,0,1,1-.842-.8A.824.824,0,0,1,491.914,96.075Z" transform="translate(-422.073 -95.271)" fill="#fff"/>
              <path id="Path_99256" data-name="Path 99256" d="M500.36,96.075a.842.842,0,1,1-.842-.8A.824.824,0,0,1,500.36,96.075Z" transform="translate(-422.946 -95.271)" fill="#fff"/>
            </g>
            <g id="Group_53313" data-name="Group 53313" transform="translate(0 45.063)">
              <path id="Path_99257" data-name="Path 99257" d="M415.9,103.583a.842.842,0,1,1-.842-.8A.824.824,0,0,1,415.9,103.583Z" transform="translate(-414.214 -102.779)" fill="#fff"/>
              <path id="Path_99258" data-name="Path 99258" d="M424.343,103.583a.842.842,0,1,1-.841-.8A.823.823,0,0,1,424.343,103.583Z" transform="translate(-415.087 -102.779)" fill="#fff"/>
              <path id="Path_99259" data-name="Path 99259" d="M432.789,103.583a.842.842,0,1,1-.841-.8A.823.823,0,0,1,432.789,103.583Z" transform="translate(-415.96 -102.779)" fill="#fff"/>
              <path id="Path_99260" data-name="Path 99260" d="M441.236,103.583a.842.842,0,1,1-.842-.8A.824.824,0,0,1,441.236,103.583Z" transform="translate(-416.834 -102.779)" fill="#fff"/>
              <path id="Path_99261" data-name="Path 99261" d="M449.682,103.583a.842.842,0,1,1-.841-.8A.824.824,0,0,1,449.682,103.583Z" transform="translate(-417.707 -102.779)" fill="#fff"/>
              <path id="Path_99262" data-name="Path 99262" d="M458.128,103.583a.842.842,0,1,1-.841-.8A.823.823,0,0,1,458.128,103.583Z" transform="translate(-418.58 -102.779)" fill="#fff"/>
              <path id="Path_99263" data-name="Path 99263" d="M466.575,103.583a.842.842,0,1,1-.842-.8A.824.824,0,0,1,466.575,103.583Z" transform="translate(-419.453 -102.779)" fill="#fff"/>
              <path id="Path_99264" data-name="Path 99264" d="M475.021,103.583a.842.842,0,1,1-.841-.8A.824.824,0,0,1,475.021,103.583Z" transform="translate(-420.326 -102.779)" fill="#fff"/>
              <path id="Path_99265" data-name="Path 99265" d="M483.467,103.583a.842.842,0,1,1-.841-.8A.824.824,0,0,1,483.467,103.583Z" transform="translate(-421.199 -102.779)" fill="#fff"/>
              <path id="Path_99266" data-name="Path 99266" d="M491.914,103.583a.842.842,0,1,1-.842-.8A.824.824,0,0,1,491.914,103.583Z" transform="translate(-422.073 -102.779)" fill="#fff"/>
              <path id="Path_99267" data-name="Path 99267" d="M500.36,103.583a.842.842,0,1,1-.842-.8A.824.824,0,0,1,500.36,103.583Z" transform="translate(-422.946 -102.779)" fill="#fff"/>
            </g>
            <g id="Group_53314" data-name="Group 53314" transform="translate(0 51.501)">
              <ellipse id="Ellipse_3975" data-name="Ellipse 3975" cx="0.841" cy="0.805" rx="0.841" ry="0.805" fill="#fff"/>
              <path id="Path_99268" data-name="Path 99268" d="M424.343,111.091a.842.842,0,1,1-.841-.8A.824.824,0,0,1,424.343,111.091Z" transform="translate(-415.087 -110.287)" fill="#fff"/>
              <ellipse id="Ellipse_3976" data-name="Ellipse 3976" cx="0.841" cy="0.805" rx="0.841" ry="0.805" transform="translate(15.146)" fill="#fff"/>
              <path id="Path_99269" data-name="Path 99269" d="M441.236,111.091a.842.842,0,1,1-.842-.8A.824.824,0,0,1,441.236,111.091Z" transform="translate(-416.833 -110.287)" fill="#fff"/>
              <path id="Path_99270" data-name="Path 99270" d="M449.682,111.091a.842.842,0,1,1-.841-.8A.824.824,0,0,1,449.682,111.091Z" transform="translate(-417.707 -110.287)" fill="#fff"/>
              <ellipse id="Ellipse_3977" data-name="Ellipse 3977" cx="0.841" cy="0.805" rx="0.841" ry="0.805" transform="translate(37.866)" fill="#fff"/>
              <path id="Path_99271" data-name="Path 99271" d="M466.575,111.091a.842.842,0,1,1-.842-.8A.825.825,0,0,1,466.575,111.091Z" transform="translate(-419.453 -110.287)" fill="#fff"/>
              <ellipse id="Ellipse_3978" data-name="Ellipse 3978" cx="0.841" cy="0.805" rx="0.841" ry="0.805" transform="translate(53.012)" fill="#fff"/>
              <ellipse id="Ellipse_3979" data-name="Ellipse 3979" cx="0.841" cy="0.805" rx="0.841" ry="0.805" transform="translate(60.585)" fill="#fff"/>
              <path id="Path_99272" data-name="Path 99272" d="M491.914,111.091a.842.842,0,1,1-.842-.8A.825.825,0,0,1,491.914,111.091Z" transform="translate(-422.073 -110.287)" fill="#fff"/>
              <path id="Path_99273" data-name="Path 99273" d="M500.36,111.091a.842.842,0,1,1-.842-.8A.824.824,0,0,1,500.36,111.091Z" transform="translate(-422.946 -110.287)" fill="#fff"/>
            </g>
            <g id="Group_53315" data-name="Group 53315" transform="translate(0 57.938)">
              <path id="Path_99274" data-name="Path 99274" d="M415.9,118.6a.842.842,0,1,1-.842-.805A.824.824,0,0,1,415.9,118.6Z" transform="translate(-414.214 -117.794)" fill="#fff"/>
              <path id="Path_99275" data-name="Path 99275" d="M424.343,118.6a.842.842,0,1,1-.841-.805A.824.824,0,0,1,424.343,118.6Z" transform="translate(-415.087 -117.794)" fill="#fff"/>
              <path id="Path_99276" data-name="Path 99276" d="M432.789,118.6a.842.842,0,1,1-.841-.805A.824.824,0,0,1,432.789,118.6Z" transform="translate(-415.96 -117.794)" fill="#fff"/>
              <path id="Path_99277" data-name="Path 99277" d="M441.236,118.6a.842.842,0,1,1-.842-.805A.824.824,0,0,1,441.236,118.6Z" transform="translate(-416.834 -117.794)" fill="#fff"/>
              <path id="Path_99278" data-name="Path 99278" d="M449.682,118.6a.842.842,0,1,1-.841-.805A.824.824,0,0,1,449.682,118.6Z" transform="translate(-417.707 -117.794)" fill="#fff"/>
              <path id="Path_99279" data-name="Path 99279" d="M458.128,118.6a.842.842,0,1,1-.841-.805A.824.824,0,0,1,458.128,118.6Z" transform="translate(-418.58 -117.794)" fill="#fff"/>
              <path id="Path_99280" data-name="Path 99280" d="M466.575,118.6a.842.842,0,1,1-.842-.805A.825.825,0,0,1,466.575,118.6Z" transform="translate(-419.453 -117.794)" fill="#fff"/>
              <path id="Path_99281" data-name="Path 99281" d="M475.021,118.6a.842.842,0,1,1-.841-.805A.824.824,0,0,1,475.021,118.6Z" transform="translate(-420.326 -117.794)" fill="#fff"/>
              <path id="Path_99282" data-name="Path 99282" d="M483.467,118.6a.842.842,0,1,1-.841-.805A.824.824,0,0,1,483.467,118.6Z" transform="translate(-421.199 -117.794)" fill="#fff"/>
              <path id="Path_99283" data-name="Path 99283" d="M491.914,118.6a.842.842,0,1,1-.842-.805A.825.825,0,0,1,491.914,118.6Z" transform="translate(-422.073 -117.794)" fill="#fff"/>
              <path id="Path_99284" data-name="Path 99284" d="M500.36,118.6a.842.842,0,1,1-.842-.805A.824.824,0,0,1,500.36,118.6Z" transform="translate(-422.946 -117.794)" fill="#fff"/>
            </g>
            <g id="Group_53316" data-name="Group 53316" transform="translate(0 64.376)">
              <ellipse id="Ellipse_3980" data-name="Ellipse 3980" cx="0.841" cy="0.805" rx="0.841" ry="0.805" transform="translate(0 0)" fill="#fff"/>
              <path id="Path_99285" data-name="Path 99285" d="M424.343,126.107a.842.842,0,1,1-.841-.805A.823.823,0,0,1,424.343,126.107Z" transform="translate(-415.087 -125.302)" fill="#fff"/>
              <ellipse id="Ellipse_3981" data-name="Ellipse 3981" cx="0.841" cy="0.805" rx="0.841" ry="0.805" transform="translate(15.146 0)" fill="#fff"/>
              <path id="Path_99286" data-name="Path 99286" d="M441.236,126.107a.842.842,0,1,1-.842-.805A.824.824,0,0,1,441.236,126.107Z" transform="translate(-416.833 -125.302)" fill="#fff"/>
              <path id="Path_99287" data-name="Path 99287" d="M449.682,126.107a.842.842,0,1,1-.841-.805A.823.823,0,0,1,449.682,126.107Z" transform="translate(-417.707 -125.302)" fill="#fff"/>
              <ellipse id="Ellipse_3982" data-name="Ellipse 3982" cx="0.841" cy="0.805" rx="0.841" ry="0.805" transform="translate(37.866 0)" fill="#fff"/>
              <path id="Path_99288" data-name="Path 99288" d="M466.575,126.107a.842.842,0,1,1-.842-.805A.824.824,0,0,1,466.575,126.107Z" transform="translate(-419.453 -125.302)" fill="#fff"/>
              <ellipse id="Ellipse_3983" data-name="Ellipse 3983" cx="0.841" cy="0.805" rx="0.841" ry="0.805" transform="translate(53.012 0)" fill="#fff"/>
              <ellipse id="Ellipse_3984" data-name="Ellipse 3984" cx="0.841" cy="0.805" rx="0.841" ry="0.805" transform="translate(60.585 0)" fill="#fff"/>
              <path id="Path_99289" data-name="Path 99289" d="M491.914,126.107a.842.842,0,1,1-.842-.805A.824.824,0,0,1,491.914,126.107Z" transform="translate(-422.073 -125.302)" fill="#fff"/>
              <path id="Path_99290" data-name="Path 99290" d="M500.36,126.107a.842.842,0,1,1-.842-.805A.824.824,0,0,1,500.36,126.107Z" transform="translate(-422.946 -125.302)" fill="#fff"/>
            </g>
            <g id="Group_53317" data-name="Group 53317" transform="translate(0 70.814)">
              <ellipse id="Ellipse_3985" data-name="Ellipse 3985" cx="0.841" cy="0.805" rx="0.841" ry="0.805" transform="translate(0 0)" fill="#fff"/>
              <path id="Path_99291" data-name="Path 99291" d="M424.343,133.615a.842.842,0,1,1-.841-.805A.823.823,0,0,1,424.343,133.615Z" transform="translate(-415.087 -132.81)" fill="#fff"/>
              <ellipse id="Ellipse_3986" data-name="Ellipse 3986" cx="0.841" cy="0.805" rx="0.841" ry="0.805" transform="translate(15.146 0)" fill="#fff"/>
              <path id="Path_99292" data-name="Path 99292" d="M441.236,133.615a.842.842,0,1,1-.842-.805A.824.824,0,0,1,441.236,133.615Z" transform="translate(-416.833 -132.81)" fill="#fff"/>
              <path id="Path_99293" data-name="Path 99293" d="M449.682,133.615a.842.842,0,1,1-.841-.805A.823.823,0,0,1,449.682,133.615Z" transform="translate(-417.707 -132.81)" fill="#fff"/>
              <ellipse id="Ellipse_3987" data-name="Ellipse 3987" cx="0.841" cy="0.805" rx="0.841" ry="0.805" transform="translate(37.866 0)" fill="#fff"/>
              <path id="Path_99294" data-name="Path 99294" d="M466.575,133.615a.842.842,0,1,1-.842-.805A.824.824,0,0,1,466.575,133.615Z" transform="translate(-419.453 -132.81)" fill="#fff"/>
              <ellipse id="Ellipse_3988" data-name="Ellipse 3988" cx="0.841" cy="0.805" rx="0.841" ry="0.805" transform="translate(53.012 0)" fill="#fff"/>
              <ellipse id="Ellipse_3989" data-name="Ellipse 3989" cx="0.841" cy="0.805" rx="0.841" ry="0.805" transform="translate(60.585 0)" fill="#fff"/>
              <path id="Path_99295" data-name="Path 99295" d="M491.914,133.615a.842.842,0,1,1-.842-.805A.824.824,0,0,1,491.914,133.615Z" transform="translate(-422.073 -132.81)" fill="#fff"/>
              <path id="Path_99296" data-name="Path 99296" d="M500.36,133.615a.842.842,0,1,1-.842-.805A.824.824,0,0,1,500.36,133.615Z" transform="translate(-422.946 -132.81)" fill="#fff"/>
            </g>
          </g>
          <line id="Line_138" data-name="Line 138" y2="164.629" transform="translate(12.166 65.357)" fill="none" stroke="#fff" stroke-width="1" stroke-dasharray="8"/>
        </g>
      </g>
    </g>
    <g id="Group_98073" data-name="Group 98073" transform="translate(112.084 518.113)">
      <path id="Path_153071" data-name="Path 153071" d="M198.333,374.918l-15.909,9.193s-.308,65.645-.311,66.548c-.057,20.284,14.283,45.1,31.966,55.309q8.639,4.992,15.645,9.035c12.047,6.956,20.453,11.8,25.074,14.464v-.918c-4.9-2.818-14.046-8.1-27.282-15.739l-13.434-7.757c-17.243-9.959-31.229-34.157-31.173-53.936,0-.907.242-51.217.314-66.782l15.137-8.759Z" transform="translate(-21.083 -153.581)" fill="#7f7f7f"/>
      <path id="Path_153072" data-name="Path 153072" d="M184.32,322.065c-.037,8.851-.317,65.805-.32,66.8a58.681,58.681,0,0,0,5.4,23.372L283.8,357.5a58.683,58.683,0,0,1-5.4-23.372c0-1,.282-57.95.321-66.8Z" transform="translate(-22.175 -91.329)" fill="#ededed"/>
      <path id="Path_153073" data-name="Path 153073" d="M196.81,536.053l94.4-54.737a75.439,75.439,0,0,0,12.125,19.068l-94.4,54.736a75.4,75.4,0,0,1-12.126-19.068" transform="translate(-29.587 -215.144)" fill="#ededed"/>
      <g id="Group_98073-2" data-name="Group 98073" transform="translate(179.348 285.241)">
        <path id="Path_153074" data-name="Path 153074" d="M347.071,545.821l-13.434-7.757a55.459,55.459,0,0,1-13.65-11.5l-94.4,54.736a55.463,55.463,0,0,0,13.65,11.5l13.434,7.757c13.236,7.641,22.385,12.92,27.282,15.738l94.43-54.723-.027-.014C369.457,558.742,360.307,553.463,347.071,545.821Z" transform="translate(-225.585 -526.568)" fill="#ededed"/>
        <path id="Path_153075" data-name="Path 153075" d="M354.6,731.344v.918l11.006-6.426-.752-.434Z" transform="translate(-300.234 -641.615)" fill="#6a6a6a"/>
      </g>
      <path id="Path_153076" data-name="Path 153076" d="M183.648,384.336l15.137-8.759-.025-.659-15.909,9.194Z" transform="translate(-21.51 -153.581)" fill="#b6b6b6"/>
      <path id="Path_153077" data-name="Path 153077" d="M360.816,411.7c-4.9-2.818-12.049-6.966-25.285-14.608L322.1,389.338a55.475,55.475,0,0,1-13.65-11.5,75.45,75.45,0,0,1-12.125-19.068,58.686,58.686,0,0,1-5.4-23.372c0-1,.282-56.154.32-65l-87.172,45.544-3.871,2.237.745.247c-.037,8.85-4.422,70.716-4.425,71.712a58.688,58.688,0,0,0,5.4,23.371,75.422,75.422,0,0,0,12.126,19.068,55.449,55.449,0,0,0,13.65,11.5l13.434,7.757c13.236,7.641,20.158,11.657,25.054,14.476Z" transform="translate(-29.42 -93.105)" opacity="0.2" style="mix-blend-mode: multiply;isolation: isolate"/>
      <g id="Group_98079" data-name="Group 98079" transform="translate(146.465 146.074)">
        <g id="Group_98076" data-name="Group 98076" transform="translate(0 0)" style="isolation: isolate">
          <path id="Path_153078" data-name="Path 153078" d="M226.956,223.684a14.333,14.333,0,0,1-3.53-2.972,18.7,18.7,0,0,1-1.6-2.105,24.791,24.791,0,0,1-1.932-3.55,20.065,20.065,0,0,1-1.711-6.486c-.254-3.268.565-5.848,2.305-7.261a6.157,6.157,0,0,1,.8-.552L150.7,241.781a6.127,6.127,0,0,0-.8.552c-1.741,1.413-2.56,3.993-2.305,7.261a20.077,20.077,0,0,0,1.712,6.486,24.787,24.787,0,0,0,1.933,3.55,18.74,18.74,0,0,0,1.6,2.105,14.323,14.323,0,0,0,3.53,2.972c2.1,1.213,4.188,1.484,5.753.575l70.592-41.023C231.145,225.167,229.056,224.9,226.956,223.684Z" transform="translate(-147.549 -198.884)" fill="#a4a4a4"/>
          <path id="Path_153079" data-name="Path 153079" d="M236.325,230.493a5.453,5.453,0,0,1-1.343-1.131,7.2,7.2,0,0,1-.607-.8,9.565,9.565,0,0,1-.748-1.372,7.782,7.782,0,0,1-.662-2.509,3.189,3.189,0,0,1,.891-2.811,2.387,2.387,0,0,1,.311-.216l-70.592,41.023a2.459,2.459,0,0,0-.311.216,3.191,3.191,0,0,0-.89,2.812,7.78,7.78,0,0,0,.662,2.508,9.541,9.541,0,0,0,.748,1.373,7.094,7.094,0,0,0,.607.8,5.434,5.434,0,0,0,1.343,1.131,2.19,2.19,0,0,0,2.189.219l70.592-41.023A2.192,2.192,0,0,1,236.325,230.493Z" transform="translate(-156.116 -210.975)" fill="#9f9f9f"/>
          <path id="Path_153080" data-name="Path 153080" d="M247.666,233.371a7.667,7.667,0,0,0-.6-1.094L176.478,273.3a7.675,7.675,0,0,1,.6,1.095c.775,1.756.742,3.533-.18,4.284a1.879,1.879,0,0,1-.239.166l70.592-41.024a1.869,1.869,0,0,0,.239-.165C248.408,236.9,248.441,235.128,247.666,233.371Z" transform="translate(-164.288 -217.122)" fill="#979794"/>
          <path id="Path_153081" data-name="Path 153081" d="M243.7,225.383a17.3,17.3,0,0,0-1.348-2.477,13.469,13.469,0,0,0-1.148-1.515,10.323,10.323,0,0,0-2.543-2.141,4.146,4.146,0,0,0-4.143-.414L163.924,259.86a4.146,4.146,0,0,1,4.144.414,10.331,10.331,0,0,1,2.543,2.141,13.52,13.52,0,0,1,1.149,1.514,17.407,17.407,0,0,1,1.347,2.477c1.756,3.973,1.682,8-.407,9.693a4.187,4.187,0,0,1-.55.381l70.592-41.023a4.269,4.269,0,0,0,.55-.381C245.38,233.378,245.453,229.356,243.7,225.383Z" transform="translate(-157.024 -209.12)" fill="#c3c3c3"/>
          <g id="Group_98075" data-name="Group 98075" transform="translate(2.589)" style="isolation: isolate">
            <g id="Group_98074" data-name="Group 98074" style="isolation: isolate">
              <path id="Path_153082" data-name="Path 153082" d="M242.642,206.76a31.747,31.747,0,0,0-2.694-3.555,24.176,24.176,0,0,0-5.955-5.013c-3.543-2.046-7.068-2.5-9.708-.969l-70.592,41.023c2.64-1.534,6.165-1.077,9.708.968a24.18,24.18,0,0,1,5.954,5.014,31.716,31.716,0,0,1,2.694,3.555,51.27,51.27,0,0,1,4.035,7.361l70.592-41.024A51.292,51.292,0,0,0,242.642,206.76Z" transform="translate(-153.694 -196.312)" fill="#ededed"/>
              <path id="Path_153083" data-name="Path 153083" d="M206.831,279.6l70.592-41.024c3.477,7.869,4.2,15.5,4.072,24.5L210.9,304.1c.132-9-.595-16.628-4.071-24.5" transform="translate(-184.44 -220.766)" fill="#ededed"/>
            </g>
          </g>
        </g>
        <g id="Group_98078" data-name="Group 98078" transform="translate(28.718 48.632)">
          <g id="Group_98077" data-name="Group 98077">
            <path id="Path_153084" data-name="Path 153084" d="M231.276,319.9c-1.5-2.511-3.524-5.494-4.458-6.167l-8.874,4.439a40.389,40.389,0,0,1,3.029,6.537A59.221,59.221,0,0,1,223,332.171l11.237-5.915A34.925,34.925,0,0,0,231.276,319.9Z" transform="translate(-216.999 -312.885)" fill="none"/>
            <path id="Path_153085" data-name="Path 153085" d="M230.488,318.342a41.178,41.178,0,0,0-4.776-6.622L215.7,316.739l.248.271a44.153,44.153,0,0,1,3.157,6.706,42.935,42.935,0,0,1,2.056,8.439l12.782-6.694S232.486,322.028,230.488,318.342Zm-10.812,5.2a40.388,40.388,0,0,0-3.029-6.537l8.874-4.439c.934.673,2.958,3.656,4.458,6.167a34.925,34.925,0,0,1,2.962,6.356L221.7,331.007A59.224,59.224,0,0,0,219.676,323.543Z" transform="translate(-215.701 -311.72)" fill="#1b1868"/>
          </g>
        </g>
      </g>
      <g id="Group_98117" data-name="Group 98117" transform="translate(175.202 152.475)">
        <g id="Group_98115" data-name="Group 98115" transform="translate(0 21.689)">
          <g id="Group_98114" data-name="Group 98114" style="isolation: isolate">
            <g id="Group_98100" data-name="Group 98100" style="isolation: isolate">
              <g id="Group_98099" data-name="Group 98099" style="isolation: isolate">
                <path id="Path_153086" data-name="Path 153086" d="M216.066,317.706c-.038,8.851-.318,65.806-.32,66.8a58.688,58.688,0,0,0,5.4,23.371l94.4-54.736c-3.424-7.749-5.419-15.877-5.4-23.372,0-1,.282-57.95.32-66.8Z" transform="translate(-215.746 -262.97)" fill="#ededed"/>
                <g id="Group_98085" data-name="Group 98085" transform="translate(6.349 17.972)">
                  <g id="Group_98080" data-name="Group 98080" transform="translate(0 30.382)">
                    <path id="Path_153087" data-name="Path 153087" d="M230.813,384.754,243,377.717l.04,14-12.188,7.037Zm11.418,6.507-.034-12.151-10.574,6.106.034,12.151,10.574-6.105" transform="translate(-230.813 -377.717)" fill="#1b1868"/>
                  </g>
                  <g id="Group_98081" data-name="Group 98081" transform="translate(14.563)">
                    <path id="Path_153088" data-name="Path 153088" d="M316.4,305.618l0,.927-51.029,29.586,0-.927Z" transform="translate(-265.372 -305.618)" fill="#1b1868"/>
                  </g>
                  <g id="Group_98082" data-name="Group 98082" transform="translate(14.563 4.458)">
                    <path id="Path_153089" data-name="Path 153089" d="M315.838,316.2l0,.927-50.466,29.4,0-.927Z" transform="translate(-265.372 -316.198)" fill="#1b1868"/>
                  </g>
                  <g id="Group_98083" data-name="Group 98083" transform="translate(14.563 6.963)">
                    <path id="Path_153090" data-name="Path 153090" d="M318.939,322.141l0,.927L265.375,354.23l0-.927Z" transform="translate(-265.372 -322.141)" fill="#1b1868"/>
                  </g>
                  <g id="Group_98084" data-name="Group 98084" transform="translate(14.563 12.997)">
                    <path id="Path_153091" data-name="Path 153091" d="M315.838,336.461l0,.927-50.466,29.4,0-.927Z" transform="translate(-265.372 -336.461)" fill="#1b1868"/>
                  </g>
                </g>
                <g id="Group_98091" data-name="Group 98091" transform="translate(6.349 40.161)">
                  <g id="Group_98086" data-name="Group 98086" transform="translate(0 36.357)">
                    <path id="Path_153092" data-name="Path 153092" d="M230.813,451.59,243,444.553l.04,14-12.188,7.036Zm11.418,6.507-.034-12.151-10.574,6.105.034,12.151,10.574-6.105" transform="translate(-230.813 -444.553)" fill="#1b1868"/>
                  </g>
                  <g id="Group_98087" data-name="Group 98087" transform="translate(14.563)">
                    <path id="Path_153093" data-name="Path 153093" d="M326.468,358.275l0,.927-61.1,35.56,0-.926Z" transform="translate(-265.372 -358.275)" fill="#1b1868"/>
                  </g>
                  <g id="Group_98088" data-name="Group 98088" transform="translate(14.563 10.433)">
                    <path id="Path_153094" data-name="Path 153094" d="M315.838,383.034l0,.927-50.466,29.4,0-.926Z" transform="translate(-265.372 -383.034)" fill="#1b1868"/>
                  </g>
                  <g id="Group_98089" data-name="Group 98089" transform="translate(14.563 12.937)">
                    <path id="Path_153095" data-name="Path 153095" d="M318.939,388.977l0,.927-53.567,31.161,0-.926Z" transform="translate(-265.372 -388.977)" fill="#1b1868"/>
                  </g>
                  <g id="Group_98090" data-name="Group 98090" transform="translate(14.563 18.971)">
                    <path id="Path_153096" data-name="Path 153096" d="M315.838,403.3l0,.927-50.466,29.4,0-.926Z" transform="translate(-265.372 -403.296)" fill="#1b1868"/>
                  </g>
                </g>
                <g id="Group_98097" data-name="Group 98097" transform="translate(6.349 68.325)">
                  <g id="Group_98092" data-name="Group 98092" transform="translate(0 36.356)">
                    <path id="Path_153097" data-name="Path 153097" d="M230.813,518.425,243,511.388l.04,14-12.188,7.036Zm11.418,6.507-.034-12.151-10.574,6.1.034,12.151,10.574-6.105" transform="translate(-230.813 -511.388)" fill="#1b1868"/>
                  </g>
                  <g id="Group_98093" data-name="Group 98093" transform="translate(14.563)">
                    <path id="Path_153098" data-name="Path 153098" d="M326.468,425.111l0,.927-61.1,35.561,0-.927Z" transform="translate(-265.372 -425.111)" fill="#1b1868"/>
                  </g>
                  <g id="Group_98094" data-name="Group 98094" transform="translate(14.563 10.433)">
                    <path id="Path_153099" data-name="Path 153099" d="M315.838,449.87l0,.927-50.466,29.4,0-.927Z" transform="translate(-265.372 -449.87)" fill="#1b1868"/>
                  </g>
                  <g id="Group_98095" data-name="Group 98095" transform="translate(14.563 12.938)">
                    <path id="Path_153100" data-name="Path 153100" d="M318.939,455.813l0,.926L265.375,487.9l0-.926Z" transform="translate(-265.372 -455.813)" fill="#1b1868"/>
                  </g>
                  <g id="Group_98096" data-name="Group 98096" transform="translate(14.563 18.972)">
                    <path id="Path_153101" data-name="Path 153101" d="M315.838,470.132l0,.927-50.466,29.4,0-.926Z" transform="translate(-265.372 -470.132)" fill="#1b1868"/>
                  </g>
                </g>
                <path id="Path_153102" data-name="Path 153102" d="M228.555,531.7l94.4-54.736a75.453,75.453,0,0,0,12.125,19.068l-94.4,54.736A75.415,75.415,0,0,1,228.555,531.7" transform="translate(-223.157 -386.786)" fill="#ededed"/>
                <g id="Group_98098" data-name="Group 98098" transform="translate(17.524 109.241)">
                  <path id="Path_153103" data-name="Path 153103" d="M378.817,541.463l-13.434-7.757a55.474,55.474,0,0,1-13.65-11.5l-94.4,54.736a55.44,55.44,0,0,0,13.65,11.5l13.434,7.757c13.236,7.641,22.386,12.92,27.282,15.739l94.43-54.722-.027-.014C401.2,554.384,392.053,549.1,378.817,541.463Z" transform="translate(-257.331 -522.21)" fill="#ededed"/>
                </g>
              </g>
            </g>
            <g id="Group_98106" data-name="Group 98106" transform="translate(29.122 126.099)">
              <g id="Group_98101" data-name="Group 98101" transform="translate(0 34.049)">
                <path id="Path_153104" data-name="Path 153104" d="M298.959,643.015l14.2,8.2-14.1,8.2-14.2-8.2Zm.089,15.419,12.43-7.224-12.514-7.225-12.43,7.224,12.514,7.225" transform="translate(-284.855 -643.015)" fill="#17155a"/>
              </g>
              <g id="Group_98102" data-name="Group 98102" transform="translate(16.096)">
                <path id="Path_153105" data-name="Path 153105" d="M323.053,594.9l56.34-32.688.876.472-56.318,32.68Z" transform="translate(-323.053 -562.214)" fill="#17155a"/>
              </g>
              <g id="Group_98103" data-name="Group 98103" transform="translate(20.527 4.16)">
                <path id="Path_153106" data-name="Path 153106" d="M333.568,603.086l53.54-31,.875.471L334.466,603.55Z" transform="translate(-333.568 -572.086)" fill="#17155a"/>
              </g>
              <g id="Group_98104" data-name="Group 98104" transform="translate(29.389 9.104)">
                <path id="Path_153107" data-name="Path 153107" d="M354.6,614.818l53.54-31,.875.472L355.5,615.281Z" transform="translate(-354.598 -583.818)" fill="#17155a"/>
              </g>
              <g id="Group_98105" data-name="Group 98105" transform="translate(24.958 11.005)">
                <path id="Path_153108" data-name="Path 153108" d="M344.083,614.956l45.927-26.627.875.471-45.9,26.62Z" transform="translate(-344.083 -588.329)" fill="#17155a"/>
              </g>
            </g>
            <g id="Group_98112" data-name="Group 98112" transform="translate(55.235 141.446)">
              <g id="Group_98107" data-name="Group 98107" transform="translate(0 34.048)">
                <path id="Path_153109" data-name="Path 153109" d="M360.928,679.434l14.2,8.2-14.1,8.2-14.2-8.2Zm.089,15.419,12.43-7.224L360.933,680.4l-12.43,7.223,12.514,7.225" transform="translate(-346.824 -679.434)" fill="#17155a"/>
              </g>
              <g id="Group_98108" data-name="Group 98108" transform="translate(16.096)">
                <path id="Path_153110" data-name="Path 153110" d="M385.021,631.322l56.34-32.688.875.471-56.318,32.68Z" transform="translate(-385.021 -598.634)" fill="#17155a"/>
              </g>
              <g id="Group_98109" data-name="Group 98109" transform="translate(20.527 4.16)">
                <path id="Path_153111" data-name="Path 153111" d="M395.537,639.505l53.539-31,.875.472-53.517,30.992Z" transform="translate(-395.537 -608.505)" fill="#17155a"/>
              </g>
              <g id="Group_98110" data-name="Group 98110" transform="translate(29.389 9.103)">
                <path id="Path_153112" data-name="Path 153112" d="M416.566,651.237l53.54-31,.875.472L417.464,651.7Z" transform="translate(-416.566 -620.237)" fill="#17155a"/>
              </g>
              <g id="Group_98111" data-name="Group 98111" transform="translate(24.958 11.004)">
                <path id="Path_153113" data-name="Path 153113" d="M406.051,651.375l45.927-26.627.876.471-45.9,26.62Z" transform="translate(-406.051 -624.748)" fill="#17155a"/>
              </g>
            </g>
            <g id="Group_98113" data-name="Group 98113" transform="translate(94.572 7.526)">
              <path id="Path_153114" data-name="Path 153114" d="M440.175,280.836v.007C440.2,280.828,440.2,280.824,440.175,280.836Z" transform="translate(-440.175 -280.829)" opacity="0.21" style="mix-blend-mode: multiply;isolation: isolate"/>
            </g>
          </g>
        </g>
        <g id="Group_98116" data-name="Group 98116" transform="translate(10.597 116.132)">
          <path id="Path_153115" data-name="Path 153115" d="M261.992,590.887l.27.363L249.1,598.026l-.206-.288c-.021-.029-2.133-2.987-4.176-6.407-2.179-3.648-3.663-6.714-3.677-6.742l-.151-.316,13.136-6.764.2.372c.516.973.876,1.67,1.177,2.252.743,1.442,1.118,2.17,2.6,4.654C260.155,588.386,261.975,590.864,261.992,590.887ZM249.175,597.1l12.082-6.221c-.587-.822-2.083-2.977-3.782-5.82-1.5-2.511-1.88-3.248-2.635-4.709-.26-.5-.592-1.217-1-1.994l-12.1,6.229c.431.862,1.758,3.538,3.51,6.474,1.651,2.764,3.347,5.222,3.924,6.042" transform="translate(-240.893 -539.408)" fill="#1b1868"/>
          <path id="Path_153116" data-name="Path 153116" d="M340.648,487.093l-63.419,37.028.323.625,63.394-36.938Z" transform="translate(-261.917 -487.093)" fill="#1b1868"/>
          <path id="Path_153117" data-name="Path 153117" d="M346.045,497.417l-63.419,37.027.323.625,63.394-36.938Z" transform="translate(-265.04 -493.066)" fill="#1b1868"/>
          <path id="Path_153118" data-name="Path 153118" d="M352.262,507.575,288.843,544.6l.323.625,63.394-36.938Z" transform="translate(-268.638 -498.944)" fill="#1b1868"/>
          <path id="Path_153119" data-name="Path 153119" d="M358.949,517.5,295.53,554.528l.323.625,63.394-36.938Z" transform="translate(-272.506 -504.687)" fill="#1b1868"/>
        </g>
        <path id="Path_153120" data-name="Path 153120" d="M386.346,660.922V660l94.43-54.722v1.475Z" transform="translate(-314.456 -439.346)" fill="#7f7f7f"/>
        <path id="Path_153121" data-name="Path 153121" d="M237.468,246.124c-.038,8.85-3.058,105.373-3.061,106.369a58.686,58.686,0,0,0,5.4,23.372,75.4,75.4,0,0,0,12.126,19.068,55.461,55.461,0,0,0,13.65,11.5l13.434,7.757c11.675,6.741,25.271,14.581,25.271,14.581l2.849-1.651s2.064.864,2.56,1.15c7.031,4.046,12.9,4.728,17.28,2.179l91.378-53.26c-4.385,2.548-10.624,2.048-17.654-2-4.9-2.818-14.046-8.1-27.282-15.738l-13.434-7.757a55.458,55.458,0,0,1-13.65-11.5,75.447,75.447,0,0,1-12.125-19.068c-3.424-7.749-5.419-15.877-5.4-23.372,0-1,.282-77.4.32-86.255Z" transform="translate(-226.543 -211.501)" opacity="0.2" style="mix-blend-mode: multiply;isolation: isolate"/>
      </g>
      <g id="Group_98169" data-name="Group 98169" transform="translate(185.825 109.487)">
        <g id="Group_98168" data-name="Group 98168" transform="translate(0)" style="isolation: isolate">
          <g id="Group_98137" data-name="Group 98137" transform="translate(0.795 2.514)" style="isolation: isolate">
            <g id="Group_98136" data-name="Group 98136" style="isolation: isolate">
              <path id="Path_153122" data-name="Path 153122" d="M250.181,170.189l94.4-54.737c-4.333,2.518-6.985,8.082-7.018,16.055-.038,8.851-.317,107.517-.32,108.513-.021,7.494,1.974,15.623,5.4,23.372l-94.4,54.737c-3.424-7.748-5.419-15.877-5.4-23.371,0-1,.283-99.662.32-108.513.033-7.974,2.685-13.537,7.018-16.056" transform="translate(-242.843 -115.452)" fill="#ededed"/>
              <g id="Group_98123" data-name="Group 98123" transform="translate(6.349 75.738)">
                <g id="Group_98118" data-name="Group 98118" transform="translate(0 30.382)">
                  <path id="Path_153123" data-name="Path 153123" d="M257.91,374.322l12.188-7.036.04,14-12.188,7.036Zm11.418,6.507-.034-12.151-10.574,6.106.034,12.151,10.574-6.106" transform="translate(-257.91 -367.286)" fill="#1b1868"/>
                </g>
                <g id="Group_98119" data-name="Group 98119" transform="translate(14.563 0)">
                  <path id="Path_153124" data-name="Path 153124" d="M343.5,295.186l0,.927L292.471,325.7l0-.927Z" transform="translate(-292.469 -295.186)" fill="#1b1868"/>
                </g>
                <g id="Group_98120" data-name="Group 98120" transform="translate(14.563 4.459)">
                  <path id="Path_153125" data-name="Path 153125" d="M342.935,305.767l0,.927-50.466,29.4,0-.927Z" transform="translate(-292.469 -305.767)" fill="#1b1868"/>
                </g>
                <g id="Group_98121" data-name="Group 98121" transform="translate(14.563 6.963)">
                  <path id="Path_153126" data-name="Path 153126" d="M346.036,311.71l0,.927L292.471,343.8l0-.927Z" transform="translate(-292.469 -311.71)" fill="#1b1868"/>
                </g>
                <g id="Group_98122" data-name="Group 98122" transform="translate(14.563 12.997)">
                  <path id="Path_153127" data-name="Path 153127" d="M342.935,326.03l0,.927-50.466,29.4,0-.927Z" transform="translate(-292.469 -326.03)" fill="#1b1868"/>
                </g>
              </g>
              <g id="Group_98129" data-name="Group 98129" transform="translate(6.349 97.928)">
                <g id="Group_98124" data-name="Group 98124" transform="translate(0 36.357)">
                  <path id="Path_153128" data-name="Path 153128" d="M257.91,441.158l12.188-7.036.04,14-12.188,7.036Zm11.418,6.507-.034-12.151-10.574,6.106.034,12.151,10.574-6.105" transform="translate(-257.91 -434.122)" fill="#1b1868"/>
                </g>
                <g id="Group_98125" data-name="Group 98125" transform="translate(14.563)">
                  <path id="Path_153129" data-name="Path 153129" d="M353.565,347.844l0,.927-61.1,35.56,0-.926Z" transform="translate(-292.469 -347.844)" fill="#1b1868"/>
                </g>
                <g id="Group_98126" data-name="Group 98126" transform="translate(14.563 10.433)">
                  <path id="Path_153130" data-name="Path 153130" d="M342.935,372.6l0,.927-50.466,29.4,0-.927Z" transform="translate(-292.469 -372.602)" fill="#1b1868"/>
                </g>
                <g id="Group_98127" data-name="Group 98127" transform="translate(14.563 12.937)">
                  <path id="Path_153131" data-name="Path 153131" d="M346.036,378.545l0,.927-53.567,31.161,0-.926Z" transform="translate(-292.469 -378.545)" fill="#1b1868"/>
                </g>
                <g id="Group_98128" data-name="Group 98128" transform="translate(14.563 18.971)">
                  <path id="Path_153132" data-name="Path 153132" d="M342.935,392.865l0,.927-50.466,29.4,0-.926Z" transform="translate(-292.469 -392.865)" fill="#1b1868"/>
                </g>
              </g>
              <g id="Group_98135" data-name="Group 98135" transform="translate(6.349 126.092)">
                <g id="Group_98130" data-name="Group 98130" transform="translate(0 36.356)">
                  <path id="Path_153133" data-name="Path 153133" d="M257.91,507.994l12.188-7.037.04,14L257.95,522Zm11.418,6.506-.034-12.151-10.574,6.1.034,12.152,10.574-6.106" transform="translate(-257.91 -500.957)" fill="#1b1868"/>
                </g>
                <g id="Group_98131" data-name="Group 98131" transform="translate(14.563)">
                  <path id="Path_153134" data-name="Path 153134" d="M353.565,414.68l0,.927-61.1,35.56,0-.927Z" transform="translate(-292.469 -414.68)" fill="#1b1868"/>
                </g>
                <g id="Group_98132" data-name="Group 98132" transform="translate(14.563 10.433)">
                  <path id="Path_153135" data-name="Path 153135" d="M342.935,439.438l0,.927-50.466,29.4,0-.926Z" transform="translate(-292.469 -439.438)" fill="#1b1868"/>
                </g>
                <g id="Group_98133" data-name="Group 98133" transform="translate(14.563 12.937)">
                  <path id="Path_153136" data-name="Path 153136" d="M346.036,445.381l0,.926-53.567,31.161,0-.926Z" transform="translate(-292.469 -445.381)" fill="#1b1868"/>
                </g>
                <g id="Group_98134" data-name="Group 98134" transform="translate(14.563 18.971)">
                  <path id="Path_153137" data-name="Path 153137" d="M342.935,459.7l0,.927-50.466,29.4,0-.926Z" transform="translate(-292.469 -459.701)" fill="#1b1868"/>
                </g>
              </g>
              <path id="Path_153138" data-name="Path 153138" d="M255.652,521.263l94.4-54.737A75.446,75.446,0,0,0,362.18,485.6l-94.4,54.736a75.423,75.423,0,0,1-12.126-19.068" transform="translate(-250.254 -318.587)" fill="#ededed"/>
              <path id="Path_153139" data-name="Path 153139" d="M284.427,566.514l94.4-54.736a55.474,55.474,0,0,0,13.65,11.5l13.434,7.757c13.236,7.642,22.386,12.921,27.282,15.739,7.03,4.046,13.269,4.546,17.654,2l-94.4,54.737c-4.385,2.549-10.625,2.049-17.655-2-4.9-2.818-14.046-8.1-27.282-15.739l-13.434-7.757a55.452,55.452,0,0,1-13.65-11.5" transform="translate(-266.904 -344.77)" fill="#ededed"/>
            </g>
          </g>
          <g id="Group_98143" data-name="Group 98143" transform="translate(29.918 186.38)">
            <g id="Group_98138" data-name="Group 98138" transform="translate(0 34.048)">
              <path id="Path_153140" data-name="Path 153140" d="M326.057,632.584l14.2,8.2-14.1,8.2-14.2-8.2ZM326.146,648l12.43-7.223-12.514-7.225-12.43,7.224L326.146,648" transform="translate(-311.953 -632.584)" fill="#17155a"/>
            </g>
            <g id="Group_98139" data-name="Group 98139" transform="translate(16.096)">
              <path id="Path_153141" data-name="Path 153141" d="M350.15,584.472l56.34-32.688.875.471-56.318,32.68Z" transform="translate(-350.15 -551.784)" fill="#17155a"/>
            </g>
            <g id="Group_98140" data-name="Group 98140" transform="translate(20.527 4.16)">
              <path id="Path_153142" data-name="Path 153142" d="M360.665,592.655l53.54-31,.875.471-53.517,30.992Z" transform="translate(-360.665 -561.655)" fill="#17155a"/>
            </g>
            <g id="Group_98141" data-name="Group 98141" transform="translate(29.389 9.103)">
              <path id="Path_153143" data-name="Path 153143" d="M381.7,604.386l53.54-31,.876.472-53.518,30.992Z" transform="translate(-381.695 -573.386)" fill="#17155a"/>
            </g>
            <g id="Group_98142" data-name="Group 98142" transform="translate(24.958 11.004)">
              <path id="Path_153144" data-name="Path 153144" d="M371.18,604.524,417.107,577.9l.875.471-45.9,26.62Z" transform="translate(-371.18 -577.897)" fill="#17155a"/>
            </g>
          </g>
          <g id="Group_98149" data-name="Group 98149" transform="translate(59.306 202.641)">
            <g id="Group_98144" data-name="Group 98144" transform="translate(0 34.048)">
              <path id="Path_153145" data-name="Path 153145" d="M395.8,671.172l14.2,8.2-14.1,8.2-14.2-8.2Zm.089,15.419,12.43-7.223L395.8,672.143l-12.43,7.224,12.514,7.225" transform="translate(-381.695 -671.172)" fill="#17155a"/>
            </g>
            <g id="Group_98145" data-name="Group 98145" transform="translate(16.096)">
              <path id="Path_153146" data-name="Path 153146" d="M419.893,623.061l56.34-32.688.875.471-56.318,32.68Z" transform="translate(-419.893 -590.373)" fill="#17155a"/>
            </g>
            <g id="Group_98146" data-name="Group 98146" transform="translate(20.527 4.16)">
              <path id="Path_153147" data-name="Path 153147" d="M430.408,631.244l53.539-31,.876.471-53.518,30.992Z" transform="translate(-430.408 -600.244)" fill="#17155a"/>
            </g>
            <g id="Group_98147" data-name="Group 98147" transform="translate(29.389 9.103)">
              <path id="Path_153148" data-name="Path 153148" d="M451.437,642.975l53.54-31,.875.472-53.518,30.992Z" transform="translate(-451.437 -611.975)" fill="#17155a"/>
            </g>
            <g id="Group_98148" data-name="Group 98148" transform="translate(24.958 11.004)">
              <path id="Path_153149" data-name="Path 153149" d="M440.923,643.113l45.927-26.627.875.471-45.905,26.62Z" transform="translate(-440.923 -616.486)" fill="#17155a"/>
            </g>
          </g>
          <g id="Group_98151" data-name="Group 98151" transform="translate(64.071 159.549)">
            <g id="Group_98150" data-name="Group 98150" style="isolation: isolate">
              <path id="Path_153150" data-name="Path 153150" d="M397.251,542.849l94.4-54.737c-2.562,1.488-4.059,4.523-4.236,8.623a21.292,21.292,0,0,0,1.989,9.3l-94.4,54.737a21.273,21.273,0,0,1-1.989-9.3c.177-4.1,1.674-7.135,4.235-8.624" transform="translate(-393.002 -488.113)" fill="#e2e2e2"/>
              <path id="Path_153151" data-name="Path 153151" d="M397.755,585.383l94.4-54.736q.457,1.036,1.014,2.061a27.514,27.514,0,0,0,3.483,5.023l-94.4,54.737a27.6,27.6,0,0,1-3.483-5.024q-.555-1.024-1.013-2.062" transform="translate(-395.752 -512.724)" fill="#e2e2e2"/>
              <path id="Path_153152" data-name="Path 153152" d="M408.426,602.2l94.4-54.737a21.18,21.18,0,0,0,4.559,3.962q.208.13.414.249c2.549,1.471,4.881,1.616,6.567.636l-94.4,54.737c-1.686.98-4.018.835-6.568-.637-.137-.079-.275-.163-.413-.249a21.18,21.18,0,0,1-4.56-3.961" transform="translate(-401.927 -522.452)" fill="#e2e2e2"/>
            </g>
          </g>
          <g id="Group_98152" data-name="Group 98152" transform="translate(76.087 181.965)">
            <path id="Path_153153" data-name="Path 153153" d="M421.554,596.044l94.4-54.736-.038.893-94.4,54.737Z" transform="translate(-421.517 -541.308)" fill="#b2b2b2"/>
          </g>
          <g id="Group_98154" data-name="Group 98154" transform="translate(71.819 170.646)">
            <g id="Group_98153" data-name="Group 98153" style="isolation: isolate">
              <path id="Path_153154" data-name="Path 153154" d="M413.063,569.183l94.4-54.737a3.883,3.883,0,0,0-1.667,3.4,8.3,8.3,0,0,0,.778,3.627l-94.4,54.737a8.313,8.313,0,0,1-.779-3.627,3.885,3.885,0,0,1,1.667-3.4" transform="translate(-411.39 -514.446)" fill="#d2d2d2"/>
              <path id="Path_153155" data-name="Path 153155" d="M413.251,585.85l94.4-54.737a10.9,10.9,0,0,0,1.753,2.757L415,588.607a10.913,10.913,0,0,1-1.753-2.757" transform="translate(-412.467 -524.09)" fill="#d2d2d2"/>
              <path id="Path_153156" data-name="Path 153156" d="M417.41,592.393l94.4-54.737a8.237,8.237,0,0,0,1.769,1.539l-94.4,54.736a8.228,8.228,0,0,1-1.768-1.538" transform="translate(-414.873 -527.876)" fill="#d2d2d2"/>
            </g>
          </g>
          <g id="Group_98156" data-name="Group 98156" transform="translate(72.925 169.228)" style="isolation: isolate">
            <g id="Group_98155" data-name="Group 98155" style="isolation: isolate">
              <path id="Path_153157" data-name="Path 153157" d="M414.013,566.27l94.4-54.737c.079-.047.162-.09.246-.129a4.766,4.766,0,0,1,4.413.573l-94.4,54.736a4.765,4.765,0,0,0-4.413-.572q-.126.059-.246.129" transform="translate(-414.013 -511.083)" fill="#f8f8f8"/>
            </g>
          </g>
          <g id="Group_98158" data-name="Group 98158" transform="translate(77.584 170.122)">
            <g id="Group_98157" data-name="Group 98157" style="isolation: isolate">
              <path id="Path_153158" data-name="Path 153158" d="M425.069,567.94l94.4-54.736a15.977,15.977,0,0,1,3.469,3l-94.4,54.736a15.991,15.991,0,0,0-3.469-3" transform="translate(-425.069 -513.204)" fill="#f8f8f8"/>
              <path id="Path_153159" data-name="Path 153159" d="M433.3,575.063l94.4-54.736a19.606,19.606,0,0,1,3.164,4.96l-94.4,54.737a19.6,19.6,0,0,0-3.163-4.961" transform="translate(-429.833 -517.325)" fill="#f8f8f8"/>
              <path id="Path_153160" data-name="Path 153160" d="M438.687,586.834l94.4-54.737a14.625,14.625,0,0,1,1.367,6.393c-.126,2.893-1.22,4.918-2.913,5.9l-94.4,54.736c1.692-.984,2.787-3.01,2.913-5.9a14.622,14.622,0,0,0-1.368-6.392" transform="translate(-432.055 -524.136)" fill="#f8f8f8"/>
            </g>
          </g>
          <g id="Group_98160" data-name="Group 98160" transform="translate(67.756 157.525)" style="isolation: isolate">
            <g id="Group_98159" data-name="Group 98159" style="isolation: isolate">
              <path id="Path_153161" data-name="Path 153161" d="M401.748,539.1l94.4-54.737q.28-.162.576-.3c2.874-1.351,6.543-.868,10.4,1.359.238.137.477.282.716.431a34.933,34.933,0,0,1,7.522,6.536l-94.4,54.737a34.906,34.906,0,0,0-7.522-6.535c-.239-.151-.478-.294-.716-.432-3.857-2.227-7.526-2.71-10.4-1.359q-.3.139-.575.3" transform="translate(-401.748 -483.308)" fill="#f8f8f8"/>
              <path id="Path_153162" data-name="Path 153162" d="M447.341,559.587l94.4-54.737a45.569,45.569,0,0,1,5.754,8.3c.611,1.126,1.17,2.263,1.673,3.4l-94.4,54.737q-.755-1.709-1.673-3.4a45.538,45.538,0,0,0-5.755-8.3" transform="translate(-428.129 -495.773)" fill="#f8f8f8"/>
              <path id="Path_153163" data-name="Path 153163" d="M460.181,587.356l94.4-54.737a35.062,35.062,0,0,1,3.279,15.345c-.282,6.543-2.672,11.372-6.764,13.75l-94.4,54.737c4.093-2.378,6.482-7.208,6.765-13.75a35.061,35.061,0,0,0-3.279-15.345" transform="translate(-433.541 -511.84)" fill="#f8f8f8"/>
            </g>
          </g>
          <path id="Path_153164" data-name="Path 153164" d="M386,178.811c-.18-.095-.359-.193-.537-.3a20.528,20.528,0,0,1-5.053-4.259,28.074,28.074,0,0,1-4.511-7.094,22.371,22.371,0,0,1-2-8.1c-.11-3.093.9-5.3,2.649-6.321l-94.4,54.737c-1.75,1.017-2.759,3.228-2.649,6.321a22.38,22.38,0,0,0,2,8.1,28.047,28.047,0,0,0,4.511,7.093,20.521,20.521,0,0,0,5.053,4.259c.178.1.357.2.537.3,3.817,2,7.233,2.1,9.738.649l94.4-54.737C393.234,180.915,389.818,180.815,386,178.811Z" transform="translate(-263.251 -134.517)" fill="#e2e2e2"/>
          <g id="Group_98161" data-name="Group 98161" transform="translate(21.647 26.587)">
            <path id="Path_153165" data-name="Path 153165" d="M292.327,227.317l94.4-54.737.8.418-94.4,54.737Z" transform="translate(-292.327 -172.58)" opacity="0.21" style="mix-blend-mode: multiply;isolation: isolate"/>
          </g>
          <path id="Path_153166" data-name="Path 153166" d="M393.117,181.144a7.964,7.964,0,0,1-1.967-1.656,10.691,10.691,0,0,1-1.073-1.463,11.093,11.093,0,0,1-.684-1.3,8.724,8.724,0,0,1-.776-3.151l-94.4,54.737a8.708,8.708,0,0,0,.776,3.151,11.182,11.182,0,0,0,.683,1.3,10.71,10.71,0,0,0,1.074,1.462,7.95,7.95,0,0,0,1.967,1.656c1.661.876,3.023.973,4.048.378l94.4-54.737C396.14,182.117,394.778,182.02,393.117,181.144Z" transform="translate(-271.772 -146.568)" fill="#d2d2d2"/>
          <path id="Path_153167" data-name="Path 153167" d="M392.68,157.977a19.461,19.461,0,0,0-3.147-4.929,15.747,15.747,0,0,0-3.915-3.273c-2.612-1.372-4.951-1.44-6.666-.444l-94.4,54.737c1.715-1,4.054-.928,6.666.444a15.721,15.721,0,0,1,3.916,3.273,19.472,19.472,0,0,1,3.146,4.929,15.293,15.293,0,0,1,1.364,5.546c.073,2.056-.539,3.63-1.725,4.433-.062.042-.125.082-.19.119l94.4-54.736q.1-.056.19-.12c1.186-.8,1.8-2.377,1.725-4.433A15.311,15.311,0,0,0,392.68,157.977Z" transform="translate(-266.18 -132.149)" fill="#fff"/>
          <g id="Group_98163" data-name="Group 98163" transform="translate(7.644)">
            <g id="Group_98162" data-name="Group 98162" style="isolation: isolate">
              <path id="Path_153168" data-name="Path 153168" d="M259.1,165.8l94.4-54.737c4.153-2.414,9.622-2.056,15.528,1.046q.443.233.884.488l-94.4,54.737q-.44-.255-.883-.488c-5.905-3.1-11.375-3.46-15.528-1.046" transform="translate(-259.095 -109.487)" fill="#f8f8f8"/>
            </g>
          </g>
          <g id="Group_98164" data-name="Group 98164" transform="translate(0 54.737)">
            <path id="Path_153169" data-name="Path 153169" d="M265.011,242.5a38.342,38.342,0,0,1,12.907,13.226A39.967,39.967,0,0,1,284.1,274.6c.359,9.987-6.265,14.479-14.763,10.018-.192-.1-.381-.205-.571-.315-6.593-3.806-12.083-12.969-12.361-20.785-.232-6.484,4.068-9.4,9.586-6.505a18.011,18.011,0,0,1,8.426,13.749c.073,2.056-.539,3.63-1.725,4.433s-2.8.741-4.549-.18a10.752,10.752,0,0,1-3.826-3.8,11.1,11.1,0,0,1-1.715-5.236l.8.418a9.445,9.445,0,0,0,1.459,4.452,9.038,9.038,0,0,0,3.041,3.118c1.751.924,3.17.981,4.211.275a4.3,4.3,0,0,0,1.511-3.9,16.149,16.149,0,0,0-7.266-12.213c-5.408-2.846-9.366-.162-9.153,5.808.262,7.311,5.4,15.891,11.565,19.449.178.1.357.2.537.3,8.061,4.233,14.34-.029,14-9.5a38.3,38.3,0,0,0-5.928-18.09,36.751,36.751,0,0,0-12.356-12.67q-.429-.247-.859-.473c-12.531-6.581-22.029-.129-22.091,15.008-.037,8.85-.318,107.516-.32,108.513-.056,19.778,13.93,43.977,31.173,53.936l13.434,7.757c13.236,7.641,22.386,12.92,27.282,15.739,13.186,7.589,23.587,2.7,24.2-11.367.238-5.51-1.449-11.889-4.747-17.97a38.58,38.58,0,0,0-12.724-14.216q-.336-.211-.67-.4c-3.66-2.113-7.143-2.578-9.871-1.294-2.895,1.36-4.593,4.527-4.782,8.91a22.573,22.573,0,0,0,3,11.362,24.367,24.367,0,0,0,8.043,8.985c.138.087.276.171.413.25,4.9,2.83,9,.754,9.246-4.792.195-4.515-2.918-10.246-6.934-12.774-1.709-.994-3.075-1.171-4.148-.669a3.766,3.766,0,0,0-1.882,3.508,9.935,9.935,0,0,0,4.3,7.923l-.037.893a11.674,11.674,0,0,1-5.057-9.316c.084-1.966.844-3.383,2.141-3.992a4.765,4.765,0,0,1,4.413.572c4.765,2.992,8.217,9.351,8,14.355-.263,6.018-4.715,8.284-10.025,5.218q-.233-.134-.467-.282a26.007,26.007,0,0,1-8.595-9.6,24.1,24.1,0,0,1-3.208-12.139c.2-4.622,1.991-7.96,5.042-9.394,2.874-1.352,6.543-.868,10.4,1.359.238.138.477.281.716.432a40.222,40.222,0,0,1,13.276,14.835c3.442,6.341,5.2,13,4.952,18.747-.306,7.077-3.077,12.15-7.8,14.284-4.64,2.1-10.745,1.207-17.189-2.5-4.621-2.662-13.026-7.509-25.073-14.464q-7.007-4.045-15.645-9.035c-17.682-10.212-32.023-35.025-31.965-55.309,0-1,.282-99.662.317-108.514.031-7.4,2.341-13.083,6.5-16,4.24-2.975,10.046-2.791,16.35.52Q264.57,242.24,265.011,242.5Z" transform="translate(-240.956 -239.383)" fill="#7f7f7f"/>
          </g>
          <g id="Group_98166" data-name="Group 98166" transform="translate(24.055 3.112)" style="isolation: isolate">
            <g id="Group_98165" data-name="Group 98165" style="isolation: isolate">
              <path id="Path_153170" data-name="Path 153170" d="M298.041,171.61l94.4-54.737a33.916,33.916,0,0,1,8.364,7.037l-94.4,54.737a33.9,33.9,0,0,0-8.364-7.037" transform="translate(-298.041 -116.873)" fill="#f8f8f8"/>
              <path id="Path_153171" data-name="Path 153171" d="M317.889,188.309l94.4-54.737a45.243,45.243,0,0,1,4.544,6.189,46.731,46.731,0,0,1,2.9,5.518l-94.4,54.736a46.745,46.745,0,0,0-2.9-5.518,45.2,45.2,0,0,0-4.543-6.189" transform="translate(-309.525 -126.535)" fill="#f8f8f8"/>
              <path id="Path_153172" data-name="Path 153172" d="M333.887,216.09l94.4-54.736a36.849,36.849,0,0,1,3.286,13.356c.189,5.258-1.558,8.994-4.5,10.7l-94.4,54.736c2.937-1.707,4.684-5.442,4.5-10.7a36.851,36.851,0,0,0-3.286-13.356" transform="translate(-318.082 -142.61)" fill="#f8f8f8"/>
            </g>
          </g>
          <g id="Group_98167" data-name="Group 98167" transform="translate(0.974 55.728)">
            <path id="Path_153173" data-name="Path 153173" d="M467.272,270.4v.007C467.295,270.4,467.3,270.393,467.272,270.4Z" transform="translate(-372.878 -258.319)" opacity="0.21" style="mix-blend-mode: multiply;isolation: isolate"/>
            <path id="Path_153174" data-name="Path 153174" d="M337.66,253.827c-1.128.772-49.65,28.739-56.577,32.747,1.7-1.04,4.739-3.716,4.3-11.686-.154-2.767-2.433-12.051-8.036-19.565a42.9,42.9,0,0,0-7.166-7.879c-4.835-3.841-10.774-6.427-15.932-5.53-10.494,1.825-10.718,14.358-10.847,17.026l-.134,54.009,94.413-55.178Z" transform="translate(-243.266 -241.735)" opacity="0.21" style="mix-blend-mode: multiply;isolation: isolate"/>
            <path id="Path_153175" data-name="Path 153175" d="M416.275,660.3a22.607,22.607,0,0,0,2.438-4.547,24.72,24.72,0,0,0,.437-13.935,45.252,45.252,0,0,0-7.452-16.251,38.64,38.64,0,0,0-6.36-7.119,31.622,31.622,0,0,0-5.474-3.71c-3.042-1.493-6.223-2.058-8.728-1.061a8.144,8.144,0,0,0-4.588,4.495,16.749,16.749,0,0,0-.859,8.839s.3,4.3,4.094,10.355a27.55,27.55,0,0,0,5.595,6.348l-14.044,8.666-.019.919s3.647,2.075,10.665,6.138a52.115,52.115,0,0,0,6.432,3.434,23.314,23.314,0,0,0,7.6,1.834,13.482,13.482,0,0,0,5.759-.993A10.637,10.637,0,0,0,416.275,660.3Z" transform="translate(-323.143 -456.657)" opacity="0.21" style="mix-blend-mode: multiply;isolation: isolate"/>
          </g>
        </g>
      </g>
      <g id="Group_98178" data-name="Group 98178" transform="translate(188.808 212.429)">
        <g id="Group_98177" data-name="Group 98177" style="isolation: isolate">
          <g id="Group_98170" data-name="Group 98170" transform="translate(0 1.327)" opacity="0.21" style="mix-blend-mode: multiply;isolation: isolate">
            <path id="Path_153176" data-name="Path 153176" d="M262.253,357.042a.762.762,0,0,1,.383-.115c.415,0,.581.491.372,1.088l-7.09,20.2a1.9,1.9,0,0,1-.655.9c-.032.023-.064.043-.1.062a.566.566,0,0,1-.645.026l-6.292-4.993c-.3-.237-.255-.875.1-1.425a1.656,1.656,0,0,1,.537-.536.569.569,0,0,1,.647-.027l5.473,4.342L261.506,358A1.835,1.835,0,0,1,262.253,357.042Z" transform="translate(-248.033 -356.927)"/>
          </g>
          <g id="Group_98172" data-name="Group 98172" transform="translate(7.7 22.279)" style="isolation: isolate">
            <g id="Group_98171" data-name="Group 98171" style="isolation: isolate">
              <path id="Path_153177" data-name="Path 153177" d="M269.418,408.463l-3.066-1.782a.388.388,0,0,1-.047-.032l3.066,1.782a.469.469,0,0,0,.047.032" transform="translate(-266.305 -406.649)" fill="#7cba3a"/>
            </g>
          </g>
          <path id="Path_153178" data-name="Path 153178" d="M275.278,353.835a.433.433,0,0,0-.217-.056.764.764,0,0,0-.383.115,1.835,1.835,0,0,0-.747.96l-6.516,18.566,3.066,1.782L277,356.634a1.836,1.836,0,0,1,.747-.958.756.756,0,0,1,.383-.115.429.429,0,0,1,.217.056Z" transform="translate(-259.247 -353.779)" fill="#7cba3a"/>
          <g id="Group_98173" data-name="Group 98173" transform="translate(1.408 17.286)">
            <path id="Path_153179" data-name="Path 153179" d="M260.732,401.575l-3.066-1.782-6.292-4.993,3.066,1.781Z" transform="translate(-251.374 -394.8)" fill="#3e5d1d"/>
          </g>
          <g id="Group_98175" data-name="Group 98175" transform="translate(1.21 15.21)" style="isolation: isolate">
            <g id="Group_98174" data-name="Group 98174" style="isolation: isolate">
              <path id="Path_153180" data-name="Path 153180" d="M254.169,393.73l-3.066-1.781c-.3-.238-.255-.876.1-1.425a1.659,1.659,0,0,1,.538-.536.6.6,0,0,1,.6-.059l3.066,1.782a.6.6,0,0,0-.6.059,1.641,1.641,0,0,0-.537.535c-.358.55-.4,1.188-.1,1.425" transform="translate(-250.904 -389.873)" fill="#7cba3a"/>
            </g>
          </g>
          <g id="Group_98176" data-name="Group 98176" transform="translate(4.276 1.782)">
            <path id="Path_153181" data-name="Path 153181" d="M272.4,358.123a.756.756,0,0,1,.383-.115c.415,0,.581.49.372,1.087l-7.09,20.2a1.9,1.9,0,0,1-.655.9c-.032.023-.064.043-.1.061a.568.568,0,0,1-.645.026l-6.291-4.993c-.3-.237-.255-.875.1-1.425a1.642,1.642,0,0,1,.537-.535.566.566,0,0,1,.647-.027l5.473,4.341,6.516-18.566A1.836,1.836,0,0,1,272.4,358.123Z" transform="translate(-258.181 -358.008)" fill="#60902d"/>
          </g>
        </g>
      </g>
      <g id="Group_98179" data-name="Group 98179" transform="translate(197.217 264.211)">
        <path id="Path_153182" data-name="Path 153182" d="M289.089,580.456l.27.362L276.2,587.594l-.206-.288c-.021-.03-2.133-2.987-4.176-6.407-2.179-3.648-3.663-6.713-3.677-6.742l-.151-.317,13.136-6.764.2.372c.516.973.876,1.67,1.177,2.252.743,1.442,1.118,2.17,2.6,4.654C287.252,577.954,289.072,580.433,289.089,580.456Zm-12.817,6.213,12.082-6.221c-.587-.822-2.083-2.977-3.782-5.82-1.5-2.511-1.881-3.248-2.635-4.709-.26-.5-.592-1.218-1-1.994l-12.1,6.229c.431.862,1.757,3.538,3.51,6.473,1.651,2.764,3.347,5.223,3.924,6.042" transform="translate(-267.99 -528.977)" fill="#1b1868"/>
        <path id="Path_153183" data-name="Path 153183" d="M367.745,476.662l-63.419,37.028.323.625,63.394-36.939Z" transform="translate(-289.014 -476.662)" fill="#1b1868"/>
        <path id="Path_153184" data-name="Path 153184" d="M373.141,486.985l-63.419,37.027.323.625L373.44,487.7Z" transform="translate(-292.137 -482.635)" fill="#1b1868"/>
        <path id="Path_153185" data-name="Path 153185" d="M379.359,497.143,315.94,534.171l.323.625,63.394-36.938Z" transform="translate(-295.735 -488.512)" fill="#1b1868"/>
        <path id="Path_153186" data-name="Path 153186" d="M386.046,507.069,322.627,544.1l.323.625,63.394-36.939Z" transform="translate(-299.604 -494.255)" fill="#1b1868"/>
      </g>
      <g id="Group_98196" data-name="Group 98196" transform="translate(222.33 221.277)">
        <path id="Path_153187" data-name="Path 153187" d="M361.264,400.4c-2.227.268-4.351,2.088-7.358,7.073L338.315,401.2l8.353-23.8c.265-.761.054-1.383-.474-1.386a.955.955,0,0,0-.489.146,2.343,2.343,0,0,0-.951,1.222l-8.3,23.66-6.974-5.532a.722.722,0,0,0-.825.034,2.1,2.1,0,0,0-.685.682c-.456.7-.512,1.514-.13,1.816l8.017,6.363a.721.721,0,0,0,.822-.034,1.332,1.332,0,0,0,.122-.079l14.081,8.324A44.36,44.36,0,0,0,346.2,425.9c-1.451,10.153-3.7,29.324-3.7,29.324a30.305,30.305,0,0,0,.56,5.439c.217,1.449-.059,3.155.9,4.343a3.721,3.721,0,0,0,4.841.3c2.1-1.788,2.394-6.612,2.729-9.066C352.737,447.4,366.1,399.822,361.264,400.4Z" transform="translate(-327.584 -375.493)" fill="#231f20" opacity="0.21" style="mix-blend-mode: multiply;isolation: isolate"/>
        <g id="Group_98186" data-name="Group 98186" transform="translate(4.339 9.493)">
          <path id="Path_153188" data-name="Path 153188" d="M369.868,577.225c-2.071.647-4.724,2.911-2.265,4.982s15.336,9.642,20.642,6.988a19.88,19.88,0,0,0,5.112-3.494C395.611,582.7,380.236,573.984,369.868,577.225Z" transform="translate(-354.506 -500.995)" fill="#231f20" opacity="0.21" style="mix-blend-mode: multiply;isolation: isolate"/>
          <g id="Group_98184" data-name="Group 98184">
            <path id="Path_153189" data-name="Path 153189" d="M419.741,598.082l.847-.076-.154.932-.6-.328Z" transform="translate(-385.245 -513.431)" fill="#231f20"/>
            <path id="Path_153190" data-name="Path 153190" d="M356.553,421.048a22.791,22.791,0,0,0,7.875,4.868,16.622,16.622,0,0,0,5.419,1.664c.236.018,9.579-.173,10.292-.224,2.506-.179,3.133-1.432,3.267-2.954s-.582-2.909-4.207-2.417c-1.793.244-8.741.17-9.532-.268-1.9-1.052-10.846-6.227-10.846-6.227a2.686,2.686,0,0,0-2.318,1.433C356,417.852,355.481,419.963,356.553,421.048Z" transform="translate(-348.322 -407.826)" fill="#282827"/>
            <path id="Path_153191" data-name="Path 153191" d="M359.831,416.271s-.575-.676-1.295.207a6.421,6.421,0,0,0-1.378,3.407c-.033.855.155,1.228.716,1.322.579.1,1.766-1.291,2.015-2.344S360.3,416.535,359.831,416.271Z" transform="translate(-349.032 -408.134)" fill="#d6eae9"/>
            <g id="Group_98180" data-name="Group 98180" transform="translate(0 2.946)">
              <path id="Path_153192" data-name="Path 153192" d="M353.333,408.861s-.866-1.262-1.212-1.9a4.439,4.439,0,0,0-1.445-1.842,7.952,7.952,0,0,1-1.207-.827s-.863.288-.383.767,1.316,1.262,1.385,1.662a2.811,2.811,0,0,0,.448,1.478C351.279,408.577,353.74,409.542,353.333,408.861Z" transform="translate(-344.279 -404.294)" fill="#f2d3bd"/>
              <path id="Path_153193" data-name="Path 153193" d="M340.824,410.087s-.893-.076-2.217-.046c-1,.023-.79-1.28-.408-1.444,0-.125.667-.31.97-.335l1.541-.12a14.089,14.089,0,0,0-1.655-.386c-.6-.1-.215-.641-.164-.688.377-.362,1.461-.189,3.036.13,2.077.424,5.234,3.242,5.234,3.242a4.128,4.128,0,0,1-1.277,2.056c-.841.5-2.7-.047-4.171-.965a6.256,6.256,0,0,0-2.545-.464c-.553-.062-.775-.382-.458-.665Z" transform="translate(-337.88 -405.782)" fill="#f2d3bd"/>
              <path id="Path_153194" data-name="Path 153194" d="M357.679,418.467c-1.544-1.239-2.736-2.3-2.736-2.3l1.162-1.5-.6-1.453s1.426.858,3.332,1.977l-.419,2.287Z" transform="translate(-347.753 -409.457)" fill="#f2d3bd"/>
            </g>
            <path id="Path_153195" data-name="Path 153195" d="M360.162,416.055s.585.342,0,2.226a10.209,10.209,0,0,1-1.031,2.468.941.941,0,0,1-.841.41c.022.033.845.264.845.264s1.515-.314,1.954-3.018c.245-1.506-.125-1.889-.125-1.889Z" transform="translate(-349.69 -408.153)" fill="#fff"/>
            <g id="Group_98182" data-name="Group 98182" transform="translate(13.103 74.79)">
              <path id="Path_153196" data-name="Path 153196" d="M376.385,574.785l-.561,1.305s-5.422,2.365-5.754,2.552c-.378.211-1.218.591-1.079,1.3a.783.783,0,0,0,.148.425,2.918,2.918,0,0,0,1.958.807,22.637,22.637,0,0,0,4.945-.483,13.084,13.084,0,0,0,2.783-.8s.861-.276.959-.1a2.554,2.554,0,0,1-.008.685l2.048-.952a5.449,5.449,0,0,0,.272-1.517l-.193-2.926Z" transform="translate(-368.975 -574.785)" fill="#231f20"/>
              <g id="Group_98181" data-name="Group 98181" transform="translate(0 3.871)">
                <path id="Path_153197" data-name="Path 153197" d="M370.166,587.452a5.275,5.275,0,0,0,1.606.278,22.733,22.733,0,0,0,5.825-.848c.344-.1,1.185-.37,1.592-.439.147-.025.6-.041.593.085,0-.062-.008-.006.021,0a2.961,2.961,0,0,1-.03.684l-.579-.321s-1.6.441-1.877.547a22.953,22.953,0,0,1-5.71.828,3.744,3.744,0,0,1-2.5-1.042.767.767,0,0,1-.113-.611A3.815,3.815,0,0,0,370.166,587.452Z" transform="translate(-368.974 -585.392)" fill="#282827"/>
                <path id="Path_153198" data-name="Path 153198" d="M394.624,585.108l2.234-1.136a7.754,7.754,0,0,1-.172.869l-2.047.953C394.641,585.725,394.627,585.293,394.624,585.108Z" transform="translate(-383.815 -583.972)" fill="#282827"/>
              </g>
            </g>
            <path id="Path_153199" data-name="Path 153199" d="M387.031,492.881s-.227,24.925-1.849,33.037c-.22,1.1-.9,1.323-1.139,1.8-.542,1.1,1.427,2.024,1.947,2.166,1.851.509,4.33.294,4.808-1.431l5.152-35.906Z" transform="translate(-364.536 -452.411)" fill="#141413"/>
            <path id="Path_153200" data-name="Path 153200" d="M403.911,586.223s-1.634,1.018-2.305,1.488-2.419,1.97-3.188,2.55c-.422.314-1.021.9-1.041,1.275a2.228,2.228,0,0,0,.22,1.074,4.322,4.322,0,0,0,1.973.943,6.43,6.43,0,0,0,4.195-.818c.222-.141,2.652-1.037,4.327-1.811a8.283,8.283,0,0,0,1.606-.976,8.879,8.879,0,0,0,.13-1.166V585.9Z" transform="translate(-372.305 -506.425)" fill="#231f20"/>
            <path id="Path_153201" data-name="Path 153201" d="M400.851,481.739l4.72,42.735c-.148,1.5-1.7,2.247-.918,2.459a6.074,6.074,0,0,1,2.533,1.4,3.323,3.323,0,0,0,4.447.075c.349-.2.406-1.124.435-1.434l-1.453-39.5Z" transform="translate(-374.315 -446.158)" fill="#383736"/>
            <path id="Path_153202" data-name="Path 153202" d="M397.289,596.024c.112.557,1.577,1.195,2.272,1.375,2.328.605,5.591-.883,7.586-1.977.143-.079.627-.015.756-.089.758-.431,1.088-.571,1.175-.621a1.2,1.2,0,0,0,.663-.978,6.545,6.545,0,0,1-.091.815s-.055.815-.483,1.068c-.147.088-.932.462-1.745.848a2.079,2.079,0,0,0-.006-.445c-.126.06-2.414,1.576-2.742,1.691,0,0-3.029,1.328-5.315.636a3.489,3.489,0,0,1-2.038-1.158A3.414,3.414,0,0,1,397.289,596.024Z" transform="translate(-372.233 -510.96)" fill="#282827"/>
            <path id="Path_153203" data-name="Path 153203" d="M394.121,435.576c-1.667,2.321-2.351,7.325-3.518,13.5-1.068,5.662-1.6,13.252-1.049,13.991,0,0,7.552,3.818,11.893,3.148,3.031-.464,3.762-1.681,3.762-1.681,1.085.1-.613-6.014.552-12.077,1.324-6.891,1.632-7.232,1.632-7.232.351-1.981,2.186-4.955,2.045-6.5-.176-1.923-2.148-4.162-2.148-4.162s-6.551-4.178-8.34-3.671S396.688,432,394.121,435.576Z" transform="translate(-367.652 -416.715)" fill="#282827"/>
            <path id="Path_153204" data-name="Path 153204" d="M413.8,433.876a7.685,7.685,0,0,0-1.676-1.978c-1.392-.921-6.346-1.734-6.346-1.734s-2.654,6.207-2.764,6.589-1.174,7.753-1.174,7.753l6.2-6.321Z" transform="translate(-374.888 -416.316)" fill="#ededed"/>
            <path id="Path_153205" data-name="Path 153205" d="M413.664,428.522l1.35-3.812,6.551.694s-2.478,2.793-2.706,4.093c-.137.777-.174.622.708,1.639.019.094-.5.442-2.685,1.633-2.045,1.107-4.469.614-5.079-1.1C411.395,430.523,411.921,429.668,413.664,428.522Z" transform="translate(-380.576 -413.16)" fill="#dbb8a1"/>
            <path id="Path_153206" data-name="Path 153206" d="M405.082,441.718a1.537,1.537,0,0,0,.218-.685l.086-.9,1.738-1.5.559.289-.282,2.184-1.019.56a1.476,1.476,0,0,0-.608.758l-2.3,5.8-1.9,1.345-.1-2.621Z" transform="translate(-374.679 -421.216)" fill="#f44927"/>
            <path id="Path_153207" data-name="Path 153207" d="M411.893,432.569c.263.365-.1.664-.355.867l-1.586,1.266c-.5.371-.509-.21-.377-.712l1.049-3.621c.86-2.206,1.528-1.709,1.528-1.709a1.341,1.341,0,0,1-.123.69C411.74,430.108,411,431.328,411.893,432.569Z" transform="translate(-379.321 -415.418)" fill="#fff"/>
            <path id="Path_153208" data-name="Path 153208" d="M405.3,429.551l.573-.878a8.757,8.757,0,0,0-3.322,1.788,28.827,28.827,0,0,0-1.916,2.3,1.231,1.231,0,0,0-.095,1.4l.629,1.5-1.172.762a.957.957,0,0,0-.4,1.2l.848,6.346s.694-3.836,1.233-6.116A22.59,22.59,0,0,1,405.3,429.551Z" transform="translate(-373.552 -415.453)" fill="#7a797a"/>
            <g id="Group_98183" data-name="Group 98183" transform="translate(31.299)">
              <path id="Path_153209" data-name="Path 153209" d="M420.911,402.214l0,.005,3.778,2.525-4.459,6.885c-.361.434-.626.876-.963,1.221a2.31,2.31,0,0,1-1.637.7s-1.021-.022-2.167-.114c-.471-.043-1.98-.1-2.584-.9a2.686,2.686,0,0,1-.707-1.828c.3-2.077,3.98-9.373,3.98-9.373l1.3-2.372Z" transform="translate(-412.154 -398.262)" fill="#e8c5ac"/>
              <path id="Path_153210" data-name="Path 153210" d="M424.161,397.435a2.608,2.608,0,0,0-2.113,1.739,7.577,7.577,0,0,0-.421,1.2s1.489-.927,1.865.516c.362,1.4.388,2.291.491,2.323a11,11,0,0,0,.865-1.2c-.017-.083.061,1.773.061,1.773.031.076.646-.319.748-.215,1.006,1.066.223,2.645-.207,3.214l-.393.6c-.208.307-.493.634-.169.8.351.181.4.035.715-.237,0,0,1.2-1.21,1.918-.094.477.746-1.015,1.939-1.115,1.994l-1.2,2.4a16.36,16.36,0,0,0,2.072-.862c1.139-.634,2.359-1.294,2.833-1.611a6.488,6.488,0,0,0,2.648-6.714c-.137-.721-1.232-3.03-1.047-3.312a2.791,2.791,0,0,1-.981-.349c-1.484-1.032-.379-1.262-.379-1.262-.338-.322-1.842-.188-1.948-.173-.831.071-.4-.643-.4-.643C427.332,397.236,424.161,397.435,424.161,397.435Z" transform="translate(-417.631 -397.302)" fill="#281504"/>
              <path id="Path_153211" data-name="Path 153211" d="M431.568,421.381c-.982-.643-1.9.519-1.9.519l-1.114,1.686a.7.7,0,0,0,.088.777c.483.482,1.047.153,1.65-.214.04-.027.877-.609.927-.64C431.931,423.015,432.5,422,431.568,421.381Z" transform="translate(-421.594 -411.122)" fill="#e8c5ac"/>
            </g>
          </g>
          <g id="Group_98185" data-name="Group 98185" transform="translate(24.931 28.257)">
            <path id="Path_153212" data-name="Path 153212" d="M397.067,483.783c-.267-8.057,1.733-18.941,1.753-19.056l.571-.369c-.02.114-2.085,11.626-1.821,19.626Z" transform="translate(-397.043 -464.358)" fill="#3a3e3f"/>
          </g>
          <path id="Path_153213" data-name="Path 153213" d="M413.262,434.831l.612,1.383a4.18,4.18,0,0,1,.2.563c.07.475-1.8,1.777-3.017,4.327a1.132,1.132,0,0,1-1.419.782l-2.182-.347.338,1.273c.288.523-.206.939-.672,1.18a55.1,55.1,0,0,0-5.394,3.392,1.8,1.8,0,0,0-.625.651,1.663,1.663,0,0,1,.263-.9,28.192,28.192,0,0,1,5.42-6.541C408.34,439.181,413.262,434.831,413.262,434.831Z" transform="translate(-374.459 -419.017)" fill="#7a797a"/>
          <path id="Path_153214" data-name="Path 153214" d="M421.125,431.543a4.207,4.207,0,0,0-1.072.665A12.9,12.9,0,0,1,415,434.481c-.418.035-.456.225-.577.884l-.29,2.449c-.113.633.225.662.542.477,0,0,3.079-1.434,3.977-1.954,2.111-1.225,1.635-1.17,2.184-3.409A9,9,0,0,0,421.125,431.543Z" transform="translate(-381.989 -417.114)" fill="#fff"/>
        </g>
        <g id="Group_98194" data-name="Group 98194" transform="translate(0.245)">
          <g id="Group_98193" data-name="Group 98193" style="isolation: isolate">
            <g id="Group_98188" data-name="Group 98188" transform="translate(7.024 24.113)" style="isolation: isolate">
              <g id="Group_98187" data-name="Group 98187" style="isolation: isolate">
                <path id="Path_153215" data-name="Path 153215" d="M348.2,433.96l-3.318-1.929a.5.5,0,0,1-.051-.034l3.318,1.928a.528.528,0,0,0,.051.035" transform="translate(-344.833 -431.997)" fill="#7cba3a"/>
              </g>
            </g>
            <path id="Path_153216" data-name="Path 153216" d="M354.546,374.835a.461.461,0,0,0-.235-.06.82.82,0,0,0-.415.124,1.987,1.987,0,0,0-.808,1.038l-7.052,20.094,3.318,1.928,7.052-20.094a1.988,1.988,0,0,1,.808-1.038.822.822,0,0,1,.415-.124.475.475,0,0,1,.235.061Z" transform="translate(-338.505 -374.775)" fill="#7cba3a"/>
            <g id="Group_98189" data-name="Group 98189" transform="translate(0.215 18.708)">
              <path id="Path_153217" data-name="Path 153217" d="M338.8,426.5l-3.318-1.928-6.809-5.4,3.318,1.928Z" transform="translate(-328.674 -419.171)" fill="#3e5d1d"/>
            </g>
            <g id="Group_98191" data-name="Group 98191" transform="translate(0 16.461)" style="isolation: isolate">
              <g id="Group_98190" data-name="Group 98190" style="isolation: isolate">
                <path id="Path_153218" data-name="Path 153218" d="M331.7,418.015l-3.318-1.929c-.324-.256-.276-.948.11-1.542a1.8,1.8,0,0,1,.582-.58.649.649,0,0,1,.648-.064l3.318,1.928a.648.648,0,0,0-.648.064,1.792,1.792,0,0,0-.582.579c-.386.6-.434,1.286-.11,1.543" transform="translate(-328.165 -413.839)" fill="#7cba3a"/>
              </g>
            </g>
            <g id="Group_98192" data-name="Group 98192" transform="translate(3.318 1.928)">
              <path id="Path_153219" data-name="Path 153219" d="M351.43,379.475a.822.822,0,0,1,.415-.124c.449,0,.628.531.4,1.177l-7.673,21.864a2.056,2.056,0,0,1-.709.975,1.07,1.07,0,0,1-.1.067.614.614,0,0,1-.7.029l-6.809-5.4c-.324-.257-.276-.948.11-1.543a1.792,1.792,0,0,1,.582-.579.614.614,0,0,1,.7-.029l5.923,4.7,7.052-20.094A1.988,1.988,0,0,1,351.43,379.475Z" transform="translate(-336.04 -379.351)" fill="#60902d"/>
            </g>
          </g>
        </g>
        <path id="Path_153220" data-name="Path 153220" d="M368.42,436.9a22.8,22.8,0,0,0,7.876,4.868,16.628,16.628,0,0,0,5.419,1.664c.236.018,10.62-.072,11.333-.123a3.124,3.124,0,0,0,3.188-3.423c-.033-1.678-.638-3.111-4.262-2.618-1.793.244-9.647.74-10.438.3-1.9-1.052-10.846-6.228-10.846-6.228a2.687,2.687,0,0,0-2.318,1.433C367.871,433.7,367.348,435.812,368.42,436.9Z" transform="translate(-350.849 -407.504)" fill="#3a3e3f"/>
        <path id="Path_153221" data-name="Path 153221" d="M371.7,432.121s-.575-.676-1.295.208a6.412,6.412,0,0,0-1.378,3.407c-.033.855.155,1.228.715,1.322.579.1,1.766-1.29,2.015-2.344S372.168,432.384,371.7,432.121Z" transform="translate(-351.56 -407.813)" fill="#d6eae9"/>
        <g id="Group_98195" data-name="Group 98195" transform="translate(9.339 19.118)">
          <path id="Path_153222" data-name="Path 153222" d="M365.2,424.711s-.867-1.262-1.212-1.9a4.437,4.437,0,0,0-1.445-1.843,7.988,7.988,0,0,1-1.208-.827s-.863.288-.383.767,1.316,1.263,1.385,1.663a2.813,2.813,0,0,0,.448,1.478C363.146,424.426,365.608,425.391,365.2,424.711Z" transform="translate(-356.147 -420.143)" fill="#f2d3bd"/>
          <path id="Path_153223" data-name="Path 153223" d="M352.691,425.937s-.892-.077-2.217-.046c-1,.022-.79-1.281-.408-1.444,0-.124.667-.31.97-.335l1.541-.12a14.045,14.045,0,0,0-1.655-.386c-.6-.1-.215-.641-.164-.688.377-.362,1.461-.189,3.036.13,2.077.424,5.234,3.243,5.234,3.243a4.137,4.137,0,0,1-1.277,2.057c-.84.5-2.7-.048-4.171-.966a6.253,6.253,0,0,0-2.545-.464c-.553-.062-.775-.382-.458-.665Z" transform="translate(-349.747 -421.631)" fill="#f2d3bd"/>
          <path id="Path_153224" data-name="Path 153224" d="M369.547,434.318c-1.544-1.239-2.737-2.3-2.737-2.3l1.162-1.5-.6-1.451s1.426.857,3.333,1.976l-.419,2.287Z" transform="translate(-359.62 -425.308)" fill="#f2d3bd"/>
        </g>
        <path id="Path_153225" data-name="Path 153225" d="M372.03,431.906s.585.341,0,2.226A10.2,10.2,0,0,1,371,436.6a.94.94,0,0,1-.84.41c.022.032.844.264.844.264s1.515-.314,1.954-3.018c.245-1.506-.124-1.888-.124-1.888Z" transform="translate(-352.218 -407.832)" fill="#fff"/>
      </g>
      <path id="Path_153226" data-name="Path 153226" d="M219.809,463.96,206.375,456.2c-17.243-9.959-31.229-34.157-31.173-53.935,0-.907.242-50.732.313-66.3h0c.022-1.52,0-3.518,0-3.518-.152-10.169-1.834-18.752-8.108-28.34a26.765,26.765,0,0,0-8.649-8.569c-3.937-2.273-7.85-2.585-10.554-.383-1.876,1.523-2.757,4.3-2.485,7.823A23.654,23.654,0,0,0,149.65,313.8a17.415,17.415,0,0,0,5.627,5.574c2.561,1.478,5.106,1.681,6.864.249,2.528-2.054,2.1-7.513-.94-12.169a11.429,11.429,0,0,0-3.692-3.656c-1.68-.97-3.35-1.1-4.5-.165-1.667,1.357-1.388,4.958.622,8.03a7.581,7.581,0,0,0,2.451,2.429,2.6,2.6,0,0,0,2.994.109c1.115-.91.93-3.32-.417-5.379l-.5.41c1.011,1.546,1.151,3.358.311,4.04a2.065,2.065,0,0,1-2.381-.087,6.028,6.028,0,0,1-1.95-1.931,8.493,8.493,0,0,1-1.41-3.881,3.191,3.191,0,0,1,.89-2.812c1-.812,2.44-.7,3.892.142a9.886,9.886,0,0,1,3.192,3.163,13.757,13.757,0,0,1,2.281,6.284c.158,2.043-.354,3.658-1.443,4.545-1.6,1.3-3.921,1.119-6.254-.228a15.853,15.853,0,0,1-5.125-5.077,21.94,21.94,0,0,1-3.644-10.036c-.254-3.268.565-5.848,2.305-7.261,2.547-2.075,6.234-1.78,9.944.361a25.217,25.217,0,0,1,8.147,8.072c6.084,9.3,7.693,17.691,7.826,27.685-.038,9.541-.323,68.613-.326,69.6-.057,20.284,14.283,45.1,31.966,55.309q8.639,4.992,15.645,9.035c12.047,6.955,20.453,11.8,25.074,14.465V479.7C242.2,476.881,233.045,471.6,219.809,463.96Z" transform="translate(0 -106.566)" fill="#7f7f7f"/>
    </g>
  </g>
</svg>
