<svg xmlns="http://www.w3.org/2000/svg" xmlns:xlink="http://www.w3.org/1999/xlink" width="341.243" height="331.742" viewBox="0 0 341.243 331.742">
  <defs>
    <radialGradient id="radial-gradient" cx="0.5" cy="0.5" r="0.5" gradientTransform="translate(0.5 -0.207) rotate(45)" gradientUnits="objectBoundingBox">
      <stop offset="0.684" stop-color="#acc2d4"/>
      <stop offset="0.725" stop-color="#baccdb"/>
      <stop offset="0.843" stop-color="#dfe7ee"/>
      <stop offset="0.939" stop-color="#f6f8fa"/>
      <stop offset="1" stop-color="#fff"/>
    </radialGradient>
  </defs>
  <g id="Grupo_100064" data-name="Grupo 100064" transform="translate(-1030.757 -1842.258)">
    <g id="Layer_1" data-name="Layer 1" transform="translate(1030.757 1842.258)">
      <g id="Grupo_90006" data-name="Grupo 90006" transform="translate(0 0)">
        <g id="Grupo_90005" data-name="Grupo 90005">
          <g id="Grupo_90003" data-name="Grupo 90003">
            <g id="Grupo_89996" data-name="Grupo 89996" transform="translate(5.442)">
              <circle id="Elipse_4693" data-name="Elipse 4693" cx="117.289" cy="117.289" r="117.289" transform="translate(0 165.871) rotate(-45)" fill="url(#radial-gradient)" style="mix-blend-mode: multiply;isolation: isolate"/>
              <circle id="Elipse_4694" data-name="Elipse 4694" cx="97.31" cy="97.31" r="97.31" transform="translate(69.916 50.6)" fill="#fff"/>
            </g>
            <g id="Grupo_89999" data-name="Grupo 89999" transform="translate(58.098 139.552)">
              <g id="Grupo_89997" data-name="Grupo 89997" transform="translate(0 8.349)">
                <path id="Trazado_152958" data-name="Trazado 152958" d="M176.964,267.078a121.605,121.605,0,0,1-114.9-81.826l3.96-1.368a117.365,117.365,0,0,0,228.283-38.341V143.45h35.871v4.189h-31.7A121.675,121.675,0,0,1,176.964,267.078Z" transform="translate(-62.065 -143.45)" fill="#fe502d"/>
              </g>
              <g id="Grupo_89998" data-name="Grupo 89998" transform="translate(265.059)">
                <path id="Trazado_152959" data-name="Trazado 152959" d="M255.7,158.239l18.087-10.444L255.7,137.351Z" transform="translate(-255.698 -137.351)" fill="#fe502d"/>
              </g>
            </g>
            <g id="Grupo_90002" data-name="Grupo 90002" transform="translate(0 37.15)">
              <g id="Grupo_90000" data-name="Grupo 90000">
                <path id="Trazado_152960" data-name="Trazado 152960" d="M79,66.732a72.125,72.125,0,0,1,21.045,2.91,49.609,49.609,0,0,1,16.35,8.3,37.764,37.764,0,0,1,10.6,13.069,38.462,38.462,0,0,1,3.764,17.079,28.181,28.181,0,0,1-2.586,12.317,41.23,41.23,0,0,1-6.432,9.649,58.664,58.664,0,0,1-8.289,7.648c-2.953,2.23-5.726,4.294-8.243,6.134a54.406,54.406,0,0,0-6.334,5.308,7.117,7.117,0,0,0-2.446,4.946v8.9H61.378V148.3a13.7,13.7,0,0,1,1.964-7.048,34.25,34.25,0,0,1,4.906-6.343c1.967-2.031,4.085-4.052,6.3-6a86.205,86.205,0,0,0,6.248-6.1,34.415,34.415,0,0,0,4.806-6.551,14.771,14.771,0,0,0,1.869-7.381,15.584,15.584,0,0,0-.865-5.18,12.463,12.463,0,0,0-2.527-4.341,12.714,12.714,0,0,0-4.056-3,12.3,12.3,0,0,0-5.436-1.142,12.978,12.978,0,0,0-6.49,1.422,10.587,10.587,0,0,0-3.842,3.7,14.641,14.641,0,0,0-1.869,5.27,38.443,38.443,0,0,0-.486,6.124v2.7a18.7,18.7,0,0,0,.192,2.646l.059.409H24.435l-.031-.323c-.131-1.306-.263-2.563-.393-3.779a35.26,35.26,0,0,1-.2-3.808A37.923,37.923,0,0,1,27.973,91.74,40.539,40.539,0,0,1,39.5,78.232a53.717,53.717,0,0,1,17.476-8.543A78.49,78.49,0,0,1,79,66.732m0-4.189A82.625,82.625,0,0,0,55.8,65.67a57.814,57.814,0,0,0-18.83,9.225,44.717,44.717,0,0,0-12.706,14.9,42.082,42.082,0,0,0-4.64,19.769,39.849,39.849,0,0,0,.222,4.263q.193,1.8.39,3.745l.411,4.092H66.985l-.746-5.195a14.37,14.37,0,0,1-.151-2.049v-2.7a34.213,34.213,0,0,1,.433-5.455,10.471,10.471,0,0,1,1.317-3.77,6.362,6.362,0,0,1,2.353-2.237,9.131,9.131,0,0,1,4.4-.862,8.219,8.219,0,0,1,3.623.73,8.609,8.609,0,0,1,2.75,2.026,8.346,8.346,0,0,1,1.688,2.913,11.474,11.474,0,0,1,.632,3.81,10.688,10.688,0,0,1-1.337,5.341,30.162,30.162,0,0,1-4.224,5.748,82.041,82.041,0,0,1-5.944,5.805c-2.291,2.022-4.491,4.118-6.536,6.231a38.445,38.445,0,0,0-5.5,7.125,17.836,17.836,0,0,0-2.546,9.18v18.874h43.425V154.092a3.5,3.5,0,0,1,1.22-1.984,50.133,50.133,0,0,1,5.842-4.888q3.852-2.817,8.3-6.174a62.827,62.827,0,0,0,8.884-8.194,45.422,45.422,0,0,0,7.088-10.628,32.346,32.346,0,0,0,3-14.135,42.61,42.61,0,0,0-4.191-18.922,41.922,41.922,0,0,0-11.759-14.513,53.765,53.765,0,0,0-17.724-9.019A76.284,76.284,0,0,0,79,62.543Z" transform="translate(-19.623 -62.543)" fill="#fe502d"/>
              </g>
              <g id="Grupo_90001" data-name="Grupo 90001" transform="translate(37.674 112.197)">
                <path id="Trazado_152961" data-name="Trazado 152961" d="M86.753,148.695v33.113H51.334V148.695h35.42m4.19-4.189h-43.8V186h43.8V144.506Z" transform="translate(-47.145 -144.506)" fill="#fe502d"/>
              </g>
            </g>
          </g>
        </g>
      </g>
    </g>
    <path id="Trazado_159178" data-name="Trazado 159178" d="M59.2,10.867a5.062,5.062,0,0,1-.883,3.109,2.829,2.829,0,0,1-2.391,1.18,3.1,3.1,0,0,1-2.422-.977v4.07H52.063V6.547h1.32l.07.938a2.977,2.977,0,0,1,2.453-1.094,2.882,2.882,0,0,1,2.41,1.148,5.117,5.117,0,0,1,.887,3.2ZM57.758,10.7a3.735,3.735,0,0,0-.609-2.258,1.963,1.963,0,0,0-1.672-.828,2.125,2.125,0,0,0-1.969,1.164V12.82a2.129,2.129,0,0,0,1.984,1.156,1.954,1.954,0,0,0,1.652-.824A4.077,4.077,0,0,0,57.758,10.7Zm2.9-.008a4.993,4.993,0,0,1,.488-2.234A3.643,3.643,0,0,1,62.5,6.93a3.7,3.7,0,0,1,1.988-.539,3.565,3.565,0,0,1,2.793,1.2,4.6,4.6,0,0,1,1.066,3.18v.1a5.036,5.036,0,0,1-.473,2.215,3.589,3.589,0,0,1-1.352,1.527,3.743,3.743,0,0,1-2.02.547,3.556,3.556,0,0,1-2.785-1.2A4.575,4.575,0,0,1,60.656,10.8Zm1.453.172a3.616,3.616,0,0,0,.652,2.258,2.211,2.211,0,0,0,3.5-.012,3.955,3.955,0,0,0,.648-2.418,3.61,3.61,0,0,0-.66-2.254,2.1,2.1,0,0,0-1.754-.863,2.075,2.075,0,0,0-1.727.852A3.925,3.925,0,0,0,62.109,10.867Zm7.7-.164a4.952,4.952,0,0,1,.922-3.129A3.137,3.137,0,0,1,75.5,7.406V3h1.445V15H75.617l-.07-.906a2.943,2.943,0,0,1-2.414,1.063,2.887,2.887,0,0,1-2.395-1.2,5.008,5.008,0,0,1-.926-3.141Zm1.445.164a3.749,3.749,0,0,0,.594,2.25,1.92,1.92,0,0,0,1.641.813A2.108,2.108,0,0,0,75.5,12.7V8.813a2.125,2.125,0,0,0-1.992-1.2,1.929,1.929,0,0,0-1.656.82A4.128,4.128,0,0,0,71.258,10.867ZM83.273,7.844a4.331,4.331,0,0,0-.711-.055A1.9,1.9,0,0,0,80.633,9v6H79.188V6.547h1.406l.023.977a2.251,2.251,0,0,1,2.016-1.133,1.477,1.477,0,0,1,.641.109ZM89.508,15a3.036,3.036,0,0,1-.2-.891A3.225,3.225,0,0,1,86.9,15.156a2.984,2.984,0,0,1-2.051-.707,2.288,2.288,0,0,1-.8-1.793,2.39,2.39,0,0,1,1-2.051,4.733,4.733,0,0,1,2.824-.73h1.406V9.211A1.623,1.623,0,0,0,88.828,8a1.821,1.821,0,0,0-1.336-.449,2.108,2.108,0,0,0-1.3.391,1.151,1.151,0,0,0-.523.945H84.219a2,2,0,0,1,.449-1.223,3.066,3.066,0,0,1,1.219-.934,4.1,4.1,0,0,1,1.691-.344,3.342,3.342,0,0,1,2.289.73,2.635,2.635,0,0,1,.859,2.012v3.891a4.757,4.757,0,0,0,.3,1.852V15Zm-2.4-1.1a2.54,2.54,0,0,0,1.289-.352,2.127,2.127,0,0,0,.883-.914V10.9H88.148q-2.656,0-2.656,1.555a1.316,1.316,0,0,0,.453,1.063A1.742,1.742,0,0,0,87.109,13.9ZM88.445,3H90.2L88.1,5.3l-1.164,0Zm13.43,9.758a1.064,1.064,0,0,0-.441-.91,4.249,4.249,0,0,0-1.539-.559,7.277,7.277,0,0,1-1.742-.562,2.479,2.479,0,0,1-.953-.781,1.869,1.869,0,0,1-.309-1.078,2.193,2.193,0,0,1,.879-1.758,3.432,3.432,0,0,1,2.246-.719,3.532,3.532,0,0,1,2.332.742,2.357,2.357,0,0,1,.895,1.9h-1.453a1.3,1.3,0,0,0-.5-1.023,1.888,1.888,0,0,0-1.27-.43,1.976,1.976,0,0,0-1.234.344,1.082,1.082,0,0,0-.445.9.877.877,0,0,0,.414.789,5.1,5.1,0,0,0,1.5.508A7.8,7.8,0,0,1,102,10.7a2.558,2.558,0,0,1,1,.809,1.988,1.988,0,0,1,.324,1.152,2.163,2.163,0,0,1-.906,1.816,3.8,3.8,0,0,1-2.352.684,4.257,4.257,0,0,1-1.8-.359,2.922,2.922,0,0,1-1.223-1A2.42,2.42,0,0,1,96.6,12.4h1.445a1.5,1.5,0,0,0,.582,1.152,2.258,2.258,0,0,0,1.434.426,2.331,2.331,0,0,0,1.316-.332A1.02,1.02,0,0,0,101.875,12.758Zm6.836,2.4a3.693,3.693,0,0,1-2.8-1.129,4.19,4.19,0,0,1-1.078-3.02v-.266a5.073,5.073,0,0,1,.48-2.246,3.748,3.748,0,0,1,1.344-1.547,3.378,3.378,0,0,1,1.871-.559,3.166,3.166,0,0,1,2.563,1.086,4.7,4.7,0,0,1,.914,3.109v.6h-5.727a3,3,0,0,0,.73,2.02,2.3,2.3,0,0,0,1.777.77,2.517,2.517,0,0,0,1.3-.312,3.259,3.259,0,0,0,.93-.828l.883.688A3.55,3.55,0,0,1,108.711,15.156Zm-.18-7.578a1.928,1.928,0,0,0-1.469.637A3.1,3.1,0,0,0,106.328,10h4.234V9.891a2.753,2.753,0,0,0-.594-1.707A1.815,1.815,0,0,0,108.531,7.578Zm9.234.266a4.331,4.331,0,0,0-.711-.055A1.9,1.9,0,0,0,115.125,9v6H113.68V6.547h1.406l.023.977a2.251,2.251,0,0,1,2.016-1.133,1.477,1.477,0,0,1,.641.109ZM18.016,33H16.57V24.547h1.445ZM16.453,22.3a.863.863,0,0,1,.215-.594.807.807,0,0,1,.637-.242.819.819,0,0,1,.641.242.854.854,0,0,1,.219.594.826.826,0,0,1-.219.586.834.834,0,0,1-.641.234.821.821,0,0,1-.637-.234A.834.834,0,0,1,16.453,22.3Zm5.234,2.242.039.938a3.122,3.122,0,0,1,2.508-1.094,2.417,2.417,0,0,1,2.414,1.359,3.2,3.2,0,0,1,1.1-.984,3.242,3.242,0,0,1,1.6-.375q2.781,0,2.828,2.945V33H30.727V27.422a1.941,1.941,0,0,0-.414-1.355,1.823,1.823,0,0,0-1.391-.449,1.916,1.916,0,0,0-1.336.48,1.949,1.949,0,0,0-.617,1.293V33H25.516V27.461a1.613,1.613,0,0,0-1.8-1.844,1.934,1.934,0,0,0-1.945,1.211V33H20.32V24.547Zm19.8,4.32a5.062,5.062,0,0,1-.883,3.109,2.829,2.829,0,0,1-2.391,1.18A3.1,3.1,0,0,1,35.8,32.18v4.07H34.352v-11.7h1.32l.07.938A2.977,2.977,0,0,1,38.2,24.391a2.882,2.882,0,0,1,2.41,1.148,5.117,5.117,0,0,1,.887,3.2ZM40.047,28.7a3.735,3.735,0,0,0-.609-2.258,1.963,1.963,0,0,0-1.672-.828A2.125,2.125,0,0,0,35.8,26.781V30.82a2.129,2.129,0,0,0,1.984,1.156,1.954,1.954,0,0,0,1.652-.824A4.077,4.077,0,0,0,40.047,28.7ZM44.9,33H43.453V21H44.9Zm5.82.156a3.693,3.693,0,0,1-2.8-1.129,4.19,4.19,0,0,1-1.078-3.02v-.266a5.073,5.073,0,0,1,.48-2.246,3.748,3.748,0,0,1,1.344-1.547,3.378,3.378,0,0,1,1.871-.559A3.166,3.166,0,0,1,53.1,25.477a4.7,4.7,0,0,1,.914,3.109v.6H48.289a3,3,0,0,0,.73,2.02,2.3,2.3,0,0,0,1.777.77,2.517,2.517,0,0,0,1.3-.312,3.259,3.259,0,0,0,.93-.828l.883.688A3.55,3.55,0,0,1,50.719,33.156Zm-.18-7.578a1.928,1.928,0,0,0-1.469.637A3.1,3.1,0,0,0,48.336,28H52.57v-.109a2.753,2.753,0,0,0-.594-1.707A1.815,1.815,0,0,0,50.539,25.578Zm6.508-1.031.039.938a3.122,3.122,0,0,1,2.508-1.094,2.417,2.417,0,0,1,2.414,1.359,3.2,3.2,0,0,1,1.1-.984,3.242,3.242,0,0,1,1.6-.375q2.781,0,2.828,2.945V33H66.086V27.422a1.941,1.941,0,0,0-.414-1.355,1.823,1.823,0,0,0-1.391-.449,1.916,1.916,0,0,0-1.336.48,1.949,1.949,0,0,0-.617,1.293V33H60.875V27.461a1.613,1.613,0,0,0-1.8-1.844,1.934,1.934,0,0,0-1.945,1.211V33H55.68V24.547Zm16.172,8.609a3.693,3.693,0,0,1-2.8-1.129,4.19,4.19,0,0,1-1.078-3.02v-.266a5.073,5.073,0,0,1,.48-2.246,3.748,3.748,0,0,1,1.344-1.547,3.378,3.378,0,0,1,1.871-.559A3.166,3.166,0,0,1,75.6,25.477a4.7,4.7,0,0,1,.914,3.109v.6H70.789a3,3,0,0,0,.73,2.02,2.3,2.3,0,0,0,1.777.77,2.517,2.517,0,0,0,1.3-.312,3.259,3.259,0,0,0,.93-.828l.883.688A3.55,3.55,0,0,1,73.219,33.156Zm-.18-7.578a1.928,1.928,0,0,0-1.469.637A3.1,3.1,0,0,0,70.836,28H75.07v-.109a2.753,2.753,0,0,0-.594-1.707A1.815,1.815,0,0,0,73.039,25.578Zm6.516-1.031.047,1.063a3.08,3.08,0,0,1,2.531-1.219q2.68,0,2.7,3.023V33H83.391V27.406a1.946,1.946,0,0,0-.418-1.352,1.675,1.675,0,0,0-1.277-.437,2.086,2.086,0,0,0-1.234.375,2.546,2.546,0,0,0-.828.984V33H78.188V24.547ZM88.977,22.5v2.047h1.578v1.117H88.977v5.249a1.173,1.173,0,0,0,.211.763.888.888,0,0,0,.719.254,3.5,3.5,0,0,0,.688-.094V33a4.215,4.215,0,0,1-1.109.155,1.8,1.8,0,0,1-1.461-.586,2.517,2.517,0,0,1-.492-1.664V25.664H85.992V24.547h1.539V22.5ZM97.461,33a3.036,3.036,0,0,1-.2-.891,3.225,3.225,0,0,1-2.406,1.047,2.984,2.984,0,0,1-2.051-.707,2.288,2.288,0,0,1-.8-1.793,2.39,2.39,0,0,1,1-2.051,4.733,4.733,0,0,1,2.824-.73h1.406v-.664A1.623,1.623,0,0,0,96.781,26a1.821,1.821,0,0,0-1.336-.449,2.108,2.108,0,0,0-1.3.391,1.151,1.151,0,0,0-.523.945H92.172a2,2,0,0,1,.449-1.223,3.066,3.066,0,0,1,1.219-.934,4.1,4.1,0,0,1,1.691-.344,3.342,3.342,0,0,1,2.289.73,2.635,2.635,0,0,1,.859,2.012v3.891a4.757,4.757,0,0,0,.3,1.852V33Zm-2.4-1.1a2.54,2.54,0,0,0,1.289-.352,2.127,2.127,0,0,0,.883-.914V28.9H96.1q-2.656,0-2.656,1.555a1.316,1.316,0,0,0,.453,1.063A1.742,1.742,0,0,0,95.063,31.9Zm5.531-3.2a4.952,4.952,0,0,1,.922-3.129,3.137,3.137,0,0,1,4.766-.168V21h1.445V33H106.4l-.07-.906a2.943,2.943,0,0,1-2.414,1.063,2.887,2.887,0,0,1-2.395-1.2,5.008,5.008,0,0,1-.926-3.141Zm1.445.164a3.749,3.749,0,0,0,.594,2.25,1.92,1.92,0,0,0,1.641.813,2.109,2.109,0,0,0,2.008-1.234V26.813a2.125,2.125,0,0,0-1.992-1.2,1.929,1.929,0,0,0-1.656.82A4.128,4.128,0,0,0,102.039,28.867Zm7.547-.172a4.993,4.993,0,0,1,.488-2.234,3.643,3.643,0,0,1,1.359-1.531,3.7,3.7,0,0,1,1.988-.539,3.565,3.565,0,0,1,2.793,1.2,4.6,4.6,0,0,1,1.066,3.18v.1a5.036,5.036,0,0,1-.473,2.215,3.589,3.589,0,0,1-1.352,1.527,3.743,3.743,0,0,1-2.02.547,3.556,3.556,0,0,1-2.785-1.2,4.575,4.575,0,0,1-1.066-3.164Zm1.453.172a3.616,3.616,0,0,0,.652,2.258,2.211,2.211,0,0,0,3.5-.012,3.955,3.955,0,0,0,.648-2.418,3.61,3.61,0,0,0-.66-2.254,2.1,2.1,0,0,0-1.754-.863,2.075,2.075,0,0,0-1.727.852A3.925,3.925,0,0,0,111.039,28.867ZM50.156,49.977a2.082,2.082,0,0,0,1.352-.469,1.649,1.649,0,0,0,.641-1.172h1.367a2.621,2.621,0,0,1-.5,1.383,3.293,3.293,0,0,1-1.23,1.047,3.55,3.55,0,0,1-1.629.391A3.482,3.482,0,0,1,47.41,50a4.59,4.59,0,0,1-1.02-3.152v-.242a5.089,5.089,0,0,1,.453-2.2,3.451,3.451,0,0,1,1.3-1.492,3.7,3.7,0,0,1,2-.531,3.39,3.39,0,0,1,2.363.852,3.043,3.043,0,0,1,1,2.211H52.148a1.992,1.992,0,0,0-.621-1.348,1.932,1.932,0,0,0-1.379-.527,2.023,2.023,0,0,0-1.707.793,3.724,3.724,0,0,0-.605,2.293v.273a3.65,3.65,0,0,0,.6,2.25A2.033,2.033,0,0,0,50.156,49.977Zm4.6-3.281a4.993,4.993,0,0,1,.488-2.234,3.643,3.643,0,0,1,1.359-1.531,3.7,3.7,0,0,1,1.988-.539,3.565,3.565,0,0,1,2.793,1.2,4.6,4.6,0,0,1,1.066,3.18v.1a5.036,5.036,0,0,1-.473,2.215,3.589,3.589,0,0,1-1.352,1.527,3.743,3.743,0,0,1-2.02.547,3.556,3.556,0,0,1-2.785-1.2A4.575,4.575,0,0,1,54.758,46.8Zm1.453.172a3.616,3.616,0,0,0,.652,2.258,2.211,2.211,0,0,0,3.5-.012,3.955,3.955,0,0,0,.648-2.418,3.61,3.61,0,0,0-.66-2.254,2.1,2.1,0,0,0-1.754-.863,2.075,2.075,0,0,0-1.727.852A3.925,3.925,0,0,0,56.211,46.867Zm9.422-4.32.047,1.063a3.08,3.08,0,0,1,2.531-1.219q2.68,0,2.7,3.023V51H69.469V45.406a1.946,1.946,0,0,0-.418-1.352,1.675,1.675,0,0,0-1.277-.437,2.086,2.086,0,0,0-1.234.375,2.546,2.546,0,0,0-.828.984V51H64.266V42.547Zm14.93,8.609a3.693,3.693,0,0,1-2.8-1.129,4.19,4.19,0,0,1-1.078-3.02v-.266a5.073,5.073,0,0,1,.48-2.246,3.748,3.748,0,0,1,1.344-1.547,3.378,3.378,0,0,1,1.871-.559,3.166,3.166,0,0,1,2.563,1.086,4.7,4.7,0,0,1,.914,3.109v.6H78.133a3,3,0,0,0,.73,2.02,2.3,2.3,0,0,0,1.777.77,2.517,2.517,0,0,0,1.3-.312,3.259,3.259,0,0,0,.93-.828l.883.688A3.55,3.55,0,0,1,80.563,51.156Zm-.18-7.578a1.928,1.928,0,0,0-1.469.637A3.1,3.1,0,0,0,78.18,46h4.234v-.109a2.753,2.753,0,0,0-.594-1.707A1.815,1.815,0,0,0,80.383,43.578Zm.7-4.578h1.75l-2.094,2.3-1.164,0Zm7.281,6.633,1.875-3.086H91.93l-2.766,4.18L92.016,51H90.344l-1.953-3.164L86.438,51h-1.68l2.852-4.273-2.766-4.18h1.672ZM95.031,51H93.586V42.547h1.445ZM93.469,40.3a.863.863,0,0,1,.215-.594.807.807,0,0,1,.637-.242.819.819,0,0,1,.641.242.854.854,0,0,1,.219.594.826.826,0,0,1-.219.586.834.834,0,0,1-.641.234.821.821,0,0,1-.637-.234A.834.834,0,0,1,93.469,40.3Zm5.836.2v2.047h1.578v1.117H99.3v5.249a1.173,1.173,0,0,0,.211.763.888.888,0,0,0,.719.254,3.5,3.5,0,0,0,.688-.094V51a4.215,4.215,0,0,1-1.109.155,1.8,1.8,0,0,1-1.461-.586,2.517,2.517,0,0,1-.492-1.664V43.664H96.32V42.547h1.539V40.5Zm2.727,6.2a4.993,4.993,0,0,1,.488-2.234,3.643,3.643,0,0,1,1.359-1.531,3.7,3.7,0,0,1,1.988-.539,3.565,3.565,0,0,1,2.793,1.2,4.6,4.6,0,0,1,1.066,3.18v.1a5.036,5.036,0,0,1-.473,2.215,3.589,3.589,0,0,1-1.352,1.527,3.743,3.743,0,0,1-2.02.547,3.556,3.556,0,0,1-2.785-1.2,4.575,4.575,0,0,1-1.066-3.164Zm1.453.172a3.616,3.616,0,0,0,.652,2.258,2.211,2.211,0,0,0,3.5-.012,3.955,3.955,0,0,0,.648-2.418,3.61,3.61,0,0,0-.66-2.254,2.1,2.1,0,0,0-1.754-.863,2.075,2.075,0,0,0-1.727.852A3.925,3.925,0,0,0,103.484,46.867Zm9.75.917a4.663,4.663,0,0,1,.211-1.466,3.761,3.761,0,0,1,.8-1.193l1.023-1.053a2.36,2.36,0,0,0,.656-1.59,1.814,1.814,0,0,0-.43-1.282,1.62,1.62,0,0,0-1.25-.464,1.881,1.881,0,0,0-1.281.422,1.426,1.426,0,0,0-.484,1.133h-1.445a2.632,2.632,0,0,1,.9-2.043,3.374,3.374,0,0,1,2.309-.777,3.185,3.185,0,0,1,2.3.792,2.87,2.87,0,0,1,.824,2.172,3.926,3.926,0,0,1-1.266,2.691l-.852.842a2.623,2.623,0,0,0-.57,1.818Zm-.062,2.482a.861.861,0,0,1,.215-.6.81.81,0,0,1,.637-.241.822.822,0,0,1,.641.241.852.852,0,0,1,.219.6.824.824,0,0,1-.219.588.837.837,0,0,1-.641.233.774.774,0,0,1-.852-.82Z" transform="translate(1145.138 1979.415)"/>
    <path id="Trazado_159177" data-name="Trazado 159177" d="M-73.91-7.383a7.952,7.952,0,0,1-.357,2.7,4.034,4.034,0,0,1-1.2,1.658l-.773.715a3.056,3.056,0,0,0-1.09,2.18,1.628,1.628,0,0,0,.393,1.213,1.4,1.4,0,0,0,1.014.381A1.548,1.548,0,0,0-74.7.967a2.153,2.153,0,0,0,.463-1.412h3.973A4.8,4.8,0,0,1-71.76,3.211a5.881,5.881,0,0,1-4.072,1.3A6.047,6.047,0,0,1-79.869,3.3,4.257,4.257,0,0,1-81.293-.129a3.937,3.937,0,0,1,.445-1.834,7.273,7.273,0,0,1,1.523-1.869l1-.914A2.692,2.692,0,0,0-77.32-6.539l.059-.844Zm-1.57-1.582a2.27,2.27,0,0,1-1.564-.557,1.819,1.819,0,0,1-.627-1.424,1.819,1.819,0,0,1,.627-1.424,2.27,2.27,0,0,1,1.564-.557,2.231,2.231,0,0,1,1.576.568,1.844,1.844,0,0,1,.615,1.412A1.844,1.844,0,0,1-73.9-9.533,2.231,2.231,0,0,1-75.48-8.965Zm20.648,3.188a6.231,6.231,0,0,1-.961,3.146A5.8,5.8,0,0,1-58.26-.516a8.4,8.4,0,0,1-3.627.75,6.7,6.7,0,0,1-5.3-2.191,9.048,9.048,0,0,1-1.934-6.187v-.844a10.328,10.328,0,0,1,.873-4.389,6.615,6.615,0,0,1,2.514-2.906,7.013,7.013,0,0,1,3.8-1.025,7.354,7.354,0,0,1,4.992,1.635A6.459,6.459,0,0,1-54.8-11.168h-4.1a3.056,3.056,0,0,0-.785-2.238,3.229,3.229,0,0,0-2.25-.68,2.457,2.457,0,0,0-2.25,1.148,7.381,7.381,0,0,0-.75,3.668v1.207a8.167,8.167,0,0,0,.686,3.9,2.509,2.509,0,0,0,2.361,1.172,3.159,3.159,0,0,0,2.168-.668,2.835,2.835,0,0,0,.8-2.121Zm16.395-2.4a10.062,10.062,0,0,1-.926,4.418A6.842,6.842,0,0,1-41.994-.8,7.326,7.326,0,0,1-45.879.234a7.429,7.429,0,0,1-3.867-1,6.831,6.831,0,0,1-2.631-2.865,9.772,9.772,0,0,1-.99-4.277v-.961a10.106,10.106,0,0,1,.92-4.424,6.825,6.825,0,0,1,2.637-2.959A7.377,7.377,0,0,1-45.9-17.3a7.3,7.3,0,0,1,3.867,1.031,6.948,6.948,0,0,1,2.643,2.936,9.816,9.816,0,0,1,.955,4.365Zm-4.184-.715a7.175,7.175,0,0,0-.85-3.861A2.725,2.725,0,0,0-45.9-14.074q-3.094,0-3.27,4.641l-.012,1.254a7.379,7.379,0,0,0,.832,3.855,2.721,2.721,0,0,0,2.473,1.348,2.688,2.688,0,0,0,2.4-1.324,7.178,7.178,0,0,0,.855-3.809Zm-2.8-12.738h4.172l-3.258,3.68-3.223-.006Zm14.508,4.57,3.809,11.871,3.8-11.871h5.414V0H-22.02V-3.984l.4-8.156L-25.746,0h-2.719L-32.6-12.152l.4,8.168V0h-4.113V-17.062ZM-.832-8.18a10.062,10.062,0,0,1-.926,4.418A6.842,6.842,0,0,1-4.389-.8,7.326,7.326,0,0,1-8.273.234a7.429,7.429,0,0,1-3.867-1,6.831,6.831,0,0,1-2.631-2.865,9.772,9.772,0,0,1-.99-4.277v-.961a10.106,10.106,0,0,1,.92-4.424,6.825,6.825,0,0,1,2.637-2.959A7.377,7.377,0,0,1-8.3-17.3,7.3,7.3,0,0,1-4.43-16.266,6.948,6.948,0,0,1-1.787-13.33,9.816,9.816,0,0,1-.832-8.965Zm-4.184-.715a7.175,7.175,0,0,0-.85-3.861A2.725,2.725,0,0,0-8.3-14.074q-3.094,0-3.27,4.641l-.012,1.254a7.379,7.379,0,0,0,.832,3.855A2.721,2.721,0,0,0-8.273-2.977,2.688,2.688,0,0,0-5.871-4.3a7.178,7.178,0,0,0,.855-3.809Z" transform="translate(1263.137 1972.486)"/>
  </g>
</svg>
