<svg xmlns="http://www.w3.org/2000/svg" width="120.091" height="120" viewBox="0 0 120.091 120">
  <g id="Group_99497" data-name="Group 99497" transform="translate(-66 -157.2)">
    <path id="Path_154779" data-name="Path 154779" d="M66,269.931c.594-2.476,1.5-4.843,3.671-6.322A45.045,45.045,0,0,1,74.649,261a38.3,38.3,0,0,1-2.187-4.841,11.8,11.8,0,0,1,8.065-14.37c1.143-.3,1.523-.733,1.5-1.952-.088-4.61-.018-9.223-.048-13.834a3.643,3.643,0,0,1,1.16-2.812c2.514-2.455,4.984-4.955,7.43-7.4a1.23,1.23,0,0,0-.042-.318c-1.664-3.078-1.658-3.351,1.1-5.562,1.784-1.427,2.356-2.836,1.4-4.952-.294-.651-.553-1.011-1.239-1.15-1.261-.255-2.506-.59-3.763-.869a2.123,2.123,0,0,1-1.845-2.226q-.04-3.57,0-7.141a2.127,2.127,0,0,1,1.859-2.214c1.294-.29,2.6-.551,3.863-.948a2.061,2.061,0,0,0,1.042-1c1.025-2.046.518-3.539-1.332-5.037-2.806-2.271-2.714-2.441-1.007-5.649.823-1.548,1.768-3.033,2.7-4.517a2.119,2.119,0,0,1,2.8-1.04c1.239.35,2.483.694,3.691,1.132a1.321,1.321,0,0,0,1.434-.351c1.82-1.354,2.243-2.827,1.378-5.071-1.295-3.36-1.129-3.464,1.945-5.388,1.518-.95,3.118-1.773,4.7-2.62a2.115,2.115,0,0,1,2.762.47c.91.968,1.835,1.923,2.714,2.919a1.362,1.362,0,0,0,1.4.441c2.262-.26,3.336-1.314,3.719-3.68.586-3.618.783-3.64,4.442-3.8,1.868-.08,3.747.051,5.618.135a2.009,2.009,0,0,1,1.9,1.775c.317,1.288.657,2.574.886,3.879.123.7.538.882,1.108,1.135,2.057.912,3.487.452,4.949-1.358,2.3-2.852,2.464-2.768,5.745-1.024,1.548.823,3.023,1.784,4.52,2.7a2.123,2.123,0,0,1,1.008,2.706c-.4,1.263-.83,2.524-1.13,3.813a1.679,1.679,0,0,0,.334,1.307c2.081,2.3,2.1,2.283,5.079,1.367,3.4-1.045,3.432-1.066,5.337,1.978.971,1.552,1.816,3.184,2.684,4.8a2.045,2.045,0,0,1-.451,2.66c-.964.915-1.917,1.842-2.913,2.72a1.5,1.5,0,0,0-.485,1.516c.245,2.323,1.447,3.285,3.747,3.663,3.549.584,3.556.753,3.689,4.395.065,1.791,0,3.589-.055,5.383a2.082,2.082,0,0,1-1.781,2.151c-1.294.291-2.58.62-3.876.9a1.527,1.527,0,0,0-1.17,1.077c-.938,2.135-.411,3.588,1.425,5.049,3.344,2.661,2.341,2.82.98,5.763,2.4,2.408,4.8,4.869,7.27,7.254a4.205,4.205,0,0,1,1.38,3.314c-.054,4.689-.014,9.38-.028,14.069,0,.64.058,1.051.842,1.246a11.916,11.916,0,0,1,6.457,19.075,6.5,6.5,0,0,0-.352.555c.746.183,1.438.3,2.092.523a9.957,9.957,0,0,1,6.945,9.448c.033,1.054-.047,2.114.023,3.165a2.746,2.746,0,0,1-1.421,2.837h-33.3a2.946,2.946,0,0,1-1.336-2.9c.044-.857,0-1.719.011-2.578.046-4.069,1.671-7.27,5.3-9.242a26.809,26.809,0,0,1,3.708-1.37c-.11-.159-.215-.32-.328-.474-5.363-7.289-2.217-16.546,6.5-19.045.75-.215.864-.579.86-1.241-.021-4.141-.061-8.283.019-12.422a3.9,3.9,0,0,0-1.333-3.268c-1.861-1.7-3.587-3.551-5.378-5.346-1.89,2.292-1.89,2.291-4.716,1.427a1.72,1.72,0,0,1-.339-.088c-2.126-1.2-3.82-.667-5.078,1.335a2.1,2.1,0,0,0-.311,1.416c.279,1.253.687,2.479,1.087,3.7a2.1,2.1,0,0,1-.978,2.711c-2.044,1.215-4.11,2.391-6.17,3.579a2.139,2.139,0,0,1-2.928-.523c-.893-.983-1.781-1.975-2.742-2.889a1.553,1.553,0,0,0-1.191-.356c-3.029.6-3.025.625-3.761,3.683-.027.114-.067.225-.093.339-.723,3.124-.723,3.123-3.832,3.457-.067.007-.127.076-.3.183,0,.942.055,1.954-.017,2.958-.062.871.271,1.189,1.11,1.415a11.73,11.73,0,0,1,8.6,13.753c-.432,2.037-1.568,3.924-2.389,5.9a2.664,2.664,0,0,0,.467.14c3.992.822,6.715,3.156,7.754,7.079a33.025,33.025,0,0,1,.494,5.8,2.819,2.819,0,0,1-1.383,2.866h-33.3A2.873,2.873,0,0,1,108,274.333c.049-.935-.011-1.875.014-2.811.106-3.972,1.739-7.1,5.279-9.021a26.854,26.854,0,0,1,3.756-1.382,12.182,12.182,0,0,1-2.788-5.8,11.925,11.925,0,0,1,8.778-13.713c.356-.1.909-.4.927-.646.093-1.264.044-2.539.044-3.781-3.377-.438-3.377-.438-4.132-3.635-.018-.076-.049-.149-.067-.224-.722-2.989-.721-2.989-3.645-3.682-.038-.009-.081-.032-.114-.022-.407.12-.923.129-1.2.391-.96.914-1.847,1.907-2.743,2.887a2.16,2.16,0,0,1-2.934.515c-1.563-.879-3.169-1.686-4.688-2.634-3-1.872-2.979-1.9-1.935-5.339.9-2.956.914-2.974-1.4-5.088a1.648,1.648,0,0,0-1.3-.309c-1.363.324-2.7.773-4.04,1.18a1.969,1.969,0,0,1-2.271-.778c-.261-.328-.486-.686-.826-1.172-1.981,1.991-3.88,3.942-5.832,5.837a2.688,2.688,0,0,0-.912,2.14c.048,4.257.064,8.515-.009,12.771-.019,1.079.346,1.452,1.339,1.718a11.864,11.864,0,0,1,7.413,16.741c-.484.945-1.1,1.82-1.691,2.776.3.082.515.161.742.2a9.773,9.773,0,0,1,7.154,5.3c1.254,2.35,1.075,4.9,1.124,7.435a3.111,3.111,0,0,1-1.34,3.013H66Zm76.158-40.576c1.029-.592,1.994-1.178,2.99-1.707a.93.93,0,0,0,.481-1.334c-.4-1.141-.69-2.318-1.079-3.462a2.354,2.354,0,0,1,.765-2.726,27.837,27.837,0,0,0,3.075-3.045,3.3,3.3,0,0,1,4.182-1.177c3.762,1.29,3.793,1.2,5.521-2.411a1.314,1.314,0,0,0,.039-.317c-1.066-1-2.166-2.052-3.282-3.083a2.26,2.26,0,0,1-.7-2.527c.532-1.792.978-3.61,1.447-5.421a2.141,2.141,0,0,1,1.712-1.718c.533-.115,1.061-.258,1.593-.378,3.383-.767,3.367-.764,3.108-4.237-.045-.6-.2-.894-.832-1.013-1.264-.24-2.508-.576-3.762-.866a2.287,2.287,0,0,1-1.85-1.872c-.384-1.63-.761-3.271-1.3-4.853a2.661,2.661,0,0,1,.828-3.232c1.086-.932,2.094-1.955,3.156-2.958l-2.184-3.7c-1.516.464-2.894.882-4.269,1.309a2.383,2.383,0,0,1-2.672-.614c-1.293-1.354-2.633-2.664-3.969-3.977a2.151,2.151,0,0,1-.629-2.441c.171-.477.3-.969.445-1.454.973-3.2.965-3.188-2.036-4.762-.572-.3-.942-.33-1.4.205-.782.922-1.676,1.75-2.472,2.661a2.452,2.452,0,0,1-2.843.739c-1.6-.486-3.222-.927-4.856-1.29a2.454,2.454,0,0,1-2.154-2.136c-.076-.46-.223-.909-.329-1.365-.753-3.255-.752-3.242-4.178-3.044-.6.035-.91.2-1.033.83-.246,1.263-.605,2.5-.866,3.762a2.281,2.281,0,0,1-1.837,1.884q-2.659.685-5.307,1.415a2.3,2.3,0,0,1-2.551-.683c-.335-.381-.692-.744-1.039-1.114-2.289-2.433-2.278-2.416-5.129-.589a.959.959,0,0,0-.507,1.323c.4,1.14.686,2.319,1.078,3.462a2.37,2.37,0,0,1-.74,2.733c-1.25,1.177-2.484,2.375-3.639,3.644a2.54,2.54,0,0,1-2.942.786c-1.365-.444-2.746-.84-4.219-1.287l-2.14,3.731c1.2,1.127,2.271,2.154,3.366,3.154a2.3,2.3,0,0,1,.706,2.634A26.058,26.058,0,0,0,96.759,191c-.275,1.9-1.155,3-3.1,3.167a3.953,3.953,0,0,0-.573.119c-3.271.79-3.245.789-3.035,4.184a.984.984,0,0,0,.917,1.082c1.26.26,2.507.581,3.763.862A2.206,2.206,0,0,1,96.5,202.22c.422,1.7.841,3.407,1.368,5.078a2.514,2.514,0,0,1-.783,2.935c-1.1.977-2.156,2.014-3.252,3.045.621,1.073,1.2,2.042,1.746,3.033a.845.845,0,0,0,1.221.459c1.209-.437,2.457-.765,3.688-1.139a2.244,2.244,0,0,1,2.445.657c1.3,1.344,2.64,2.658,3.973,3.974a2.192,2.192,0,0,1,.647,2.44c-.406,1.221-.789,2.452-1.1,3.7a1.221,1.221,0,0,0,.272,1.06c1.021.692,2.117,1.273,3.191,1.9,1.137-1.208,2.188-2.31,3.22-3.428a2.171,2.171,0,0,1,2.32-.716c1.88.512,3.757,1.037,5.644,1.521a2.105,2.105,0,0,1,1.651,1.628q.2.794.392,1.591c.8,3.373.8,3.353,4.282,3.183.647-.032.864-.27.979-.866.23-1.186.586-2.348.807-3.535a2.5,2.5,0,0,1,2.172-2.124c1.67-.382,3.331-.821,4.971-1.318a2.322,2.322,0,0,1,2.637.7C140.015,227.11,141.069,228.2,142.158,229.354Zm-2.212,43.8c.768-5-2.489-8.123-6.689-7.98-4.952.169-9.914.019-14.872.046-4.373.024-7.14,3.554-6.213,7.934Zm-42.092.009c.968-4.293-1.78-7.906-6.064-7.939q-7.727-.059-15.454,0c-4.358.025-7.132,3.6-6.174,7.942Zm84.13,0c.688-4.844-2.247-8.2-7.076-7.994s-9.677.025-14.516.053a6.2,6.2,0,0,0-6.178,7.942Zm-47.969-20.017a7.982,7.982,0,1,0-7.91,8.05A8,8,0,0,0,134.015,253.146ZM84.14,245.213a7.993,7.993,0,0,0-.2,15.985,7.993,7.993,0,0,0,.2-15.985Zm91.887,7.923a7.988,7.988,0,0,0-15.975.045,7.988,7.988,0,1,0,15.975-.045Z" fill="#fe502d"/>
    <path id="Path_154782" data-name="Path 154782" d="M66,276.687h3.913v3.986H66Z" transform="translate(0 -89.537)" fill="#fe502d"/>
    <path id="Path_154783" data-name="Path 154783" d="M66,308.5h3.911v3.986H66Z" transform="translate(0 -113.372)" fill="#fe502d"/>
    <path id="Path_154784" data-name="Path 154784" d="M66,340.3h3.906v3.987H66Z" transform="translate(0 -137.207)" fill="#fe502d"/>
    <path id="Path_154785" data-name="Path 154785" d="M533.266,280.859h-3.835V277h3.835Z" transform="translate(-347.268 -89.773)" fill="#fe502d"/>
    <path id="Path_154786" data-name="Path 154786" d="M98.115,312.767v-3.842h3.861v3.842Z" transform="translate(-24.065 -113.694)" fill="#fe502d"/>
    <path id="Path_154787" data-name="Path 154787" d="M497.506,308.816h3.854v3.844h-3.854Z" transform="translate(-323.346 -113.612)" fill="#fe502d"/>
    <path id="Path_154788" data-name="Path 154788" d="M533.291,308.948v3.808h-3.885v-3.808Z" transform="translate(-347.25 -113.711)" fill="#fe502d"/>
    <path id="Path_154789" data-name="Path 154789" d="M529.435,340.7h3.83v3.886h-3.83Z" transform="translate(-347.271 -137.506)" fill="#fe502d"/>
    <path id="Path_154790" data-name="Path 154790" d="M227.683,264.939a26,26,0,1,1,26.054-25.886A26.106,26.106,0,0,1,227.683,264.939Zm17.287-12.546a21.807,21.807,0,0,0-3.192-30.381,22.089,22.089,0,0,0-31.346,3.3c-7.535,9.745-4.828,21.931-.14,26.705a36.469,36.469,0,0,1,3.689-4.983,39.047,39.047,0,0,1,5.213-3.708,11.7,11.7,0,0,1-3.457-8.462,11.465,11.465,0,0,1,3.711-8.565,11.732,11.732,0,0,1,15.977-.5,11.432,11.432,0,0,1,4.156,7.376,11.86,11.86,0,0,1-3.571,10.417A14.481,14.481,0,0,1,244.971,252.392Zm-17.189-5.656-.021.237c-1.484,0-2.969-.054-4.45.01a9.856,9.856,0,0,0-9.328,8.206,1.565,1.565,0,0,0,.488,1.238A21.881,21.881,0,0,0,241,256.405a1.437,1.437,0,0,0,.471-1.139c-.755-3.875-2.94-6.691-6.761-7.753C232.5,246.9,230.1,246.972,227.782,246.736Zm7.92-11.865a7.981,7.981,0,1,0-7.928,8.061A8,8,0,0,0,235.7,234.871Z" transform="translate(-101.688 -41.769)" fill="#fe502d"/>
  </g>
</svg>
