<svg xmlns="http://www.w3.org/2000/svg" xmlns:xlink="http://www.w3.org/1999/xlink" width="1079" height="583.906" viewBox="0 0 1079 583.906">
  <defs>
    <linearGradient id="linear-gradient" x1="-0.09" y1="-1.018" x2="0.786" y2="1.67" gradientUnits="objectBoundingBox">
      <stop offset="0.026" stop-color="#0d2380"/>
      <stop offset="0.978" stop-color="#0d2329"/>
    </linearGradient>
    <linearGradient id="linear-gradient-2" x1="0.182" y1="-3.215" x2="0.512" y2="1.149" xlink:href="#linear-gradient"/>
    <linearGradient id="linear-gradient-3" x1="-29.504" y1="-78.355" x2="3.655" y2="8.792" xlink:href="#linear-gradient"/>
    <linearGradient id="linear-gradient-4" x1="-24.934" y1="-66.344" x2="8.225" y2="20.804" xlink:href="#linear-gradient"/>
    <linearGradient id="linear-gradient-5" x1="-25.128" y1="-66.854" x2="8.031" y2="20.293" xlink:href="#linear-gradient"/>
    <linearGradient id="linear-gradient-6" x1="0.22" y1="-0.447" x2="0.611" y2="1.406" xlink:href="#linear-gradient"/>
    <linearGradient id="linear-gradient-7" x1="0.517" y1="0.109" x2="0.47" y2="1.732" gradientUnits="objectBoundingBox">
      <stop offset="0.026" stop-color="#fe502d"/>
      <stop offset="1" stop-color="#e32701"/>
    </linearGradient>
    <filter id="Trazado_147030" x="15.777" y="190.216" width="322.544" height="347.27" filterUnits="userSpaceOnUse">
      <feOffset dx="3" input="SourceAlpha"/>
      <feGaussianBlur stdDeviation="7" result="blur"/>
      <feFlood flood-opacity="0.29"/>
      <feComposite operator="in" in2="blur"/>
      <feComposite in="SourceGraphic"/>
    </filter>
    <linearGradient id="linear-gradient-8" x1="0.526" y1="0.041" x2="0.441" y2="2.07" gradientUnits="objectBoundingBox">
      <stop offset="0.022" stop-color="#fc8e77"/>
      <stop offset="0.981" stop-color="#fe502d"/>
    </linearGradient>
    <filter id="Trazado_147031" x="66.485" y="254.483" width="215.822" height="237.737" filterUnits="userSpaceOnUse">
      <feOffset dx="3" input="SourceAlpha"/>
      <feGaussianBlur stdDeviation="7" result="blur-2"/>
      <feFlood flood-opacity="0.29"/>
      <feComposite operator="in" in2="blur-2"/>
      <feComposite in="SourceGraphic"/>
    </filter>
    <linearGradient id="linear-gradient-9" x1="0.848" y1="0.009" x2="-0.272" y2="1.864" gradientUnits="objectBoundingBox">
      <stop offset="0.022" stop-color="#fe502d"/>
      <stop offset="0.981" stop-color="#e32701"/>
    </linearGradient>
    <filter id="Trazado_147032" x="190.992" y="15.001" width="347.301" height="322.544" filterUnits="userSpaceOnUse">
      <feOffset dx="3" input="SourceAlpha"/>
      <feGaussianBlur stdDeviation="7" result="blur-3"/>
      <feFlood flood-opacity="0.29"/>
      <feComposite operator="in" in2="blur-3"/>
      <feComposite in="SourceGraphic"/>
    </filter>
    <linearGradient id="linear-gradient-10" x1="0.627" y1="0.068" x2="0.053" y2="2.379" xlink:href="#linear-gradient-8"/>
    <filter id="Trazado_147033" x="255.263" y="65.706" width="237.764" height="215.821" filterUnits="userSpaceOnUse">
      <feOffset dx="3" input="SourceAlpha"/>
      <feGaussianBlur stdDeviation="7" result="blur-4"/>
      <feFlood flood-opacity="0.29"/>
      <feComposite operator="in" in2="blur-4"/>
      <feComposite in="SourceGraphic"/>
    </filter>
    <linearGradient id="linear-gradient-11" x1="0.485" y1="0.024" x2="0.528" y2="1.68" gradientUnits="objectBoundingBox">
      <stop offset="0.026" stop-color="#fe502d"/>
      <stop offset="0.97" stop-color="#e32701"/>
    </linearGradient>
    <filter id="Trazado_147034" x="538.096" y="15.002" width="347.273" height="322.544" filterUnits="userSpaceOnUse">
      <feOffset dx="3" input="SourceAlpha"/>
      <feGaussianBlur stdDeviation="7" result="blur-5"/>
      <feFlood flood-opacity="0.29"/>
      <feComposite operator="in" in2="blur-5"/>
      <feComposite in="SourceGraphic"/>
    </filter>
    <linearGradient id="linear-gradient-12" x1="0.425" y1="0.006" x2="0.657" y2="1.769" xlink:href="#linear-gradient-8"/>
    <filter id="Trazado_147035" x="583.361" y="65.709" width="237.743" height="215.812" filterUnits="userSpaceOnUse">
      <feOffset dx="3" input="SourceAlpha"/>
      <feGaussianBlur stdDeviation="7" result="blur-6"/>
      <feFlood flood-opacity="0.29"/>
      <feComposite operator="in" in2="blur-6"/>
      <feComposite in="SourceGraphic"/>
    </filter>
    <linearGradient id="linear-gradient-13" x1="0.652" y1="0.063" x2="0.263" y2="1.667" gradientUnits="objectBoundingBox">
      <stop offset="0.026" stop-color="#fe502d"/>
      <stop offset="0.978" stop-color="#e32701"/>
    </linearGradient>
    <filter id="Trazado_147036" x="738.036" y="190.217" width="322.545" height="347.269" filterUnits="userSpaceOnUse">
      <feOffset dx="3" input="SourceAlpha"/>
      <feGaussianBlur stdDeviation="7" result="blur-7"/>
      <feFlood flood-opacity="0.29"/>
      <feComposite operator="in" in2="blur-7"/>
      <feComposite in="SourceGraphic"/>
    </filter>
    <linearGradient id="linear-gradient-14" x1="0.663" y1="-0.014" x2="0.069" y2="2.456" xlink:href="#linear-gradient-8"/>
    <filter id="Trazado_147037" x="794.054" y="254.487" width="215.822" height="237.733" filterUnits="userSpaceOnUse">
      <feOffset dx="3" input="SourceAlpha"/>
      <feGaussianBlur stdDeviation="7" result="blur-8"/>
      <feFlood flood-opacity="0.29"/>
      <feComposite operator="in" in2="blur-8"/>
      <feComposite in="SourceGraphic"/>
    </filter>
    <linearGradient id="linear-gradient-15" x1="0.896" y1="-0.104" x2="-0.384" y2="1.849" gradientUnits="objectBoundingBox">
      <stop offset="0" stop-color="#fff"/>
      <stop offset="1" stop-color="#b0b0b0"/>
    </linearGradient>
    <filter id="Trazado_147038" x="982.227" y="289.673" width="96.773" height="96.76" filterUnits="userSpaceOnUse">
      <feOffset dx="4" dy="3" input="SourceAlpha"/>
      <feGaussianBlur stdDeviation="1.5" result="blur-9"/>
      <feFlood flood-opacity="0.18"/>
      <feComposite operator="in" in2="blur-9"/>
      <feComposite in="SourceGraphic"/>
    </filter>
    <linearGradient id="linear-gradient-16" x1="0.635" y1="0.091" x2="-0.011" y2="2.044" xlink:href="#linear-gradient-15"/>
    <filter id="Trazado_147039" x="288.182" y="0.858" width="96.773" height="96.76" filterUnits="userSpaceOnUse">
      <feOffset dx="4" dy="3" input="SourceAlpha"/>
      <feGaussianBlur stdDeviation="1.5" result="blur-10"/>
      <feFlood flood-opacity="0.18"/>
      <feComposite operator="in" in2="blur-10"/>
      <feComposite in="SourceGraphic"/>
    </filter>
    <linearGradient id="linear-gradient-17" x1="0.396" y1="-0.177" x2="0.797" y2="2.436" xlink:href="#linear-gradient-15"/>
    <filter id="Trazado_147040" x="0" y="288.078" width="96.802" height="96.76" filterUnits="userSpaceOnUse">
      <feOffset dx="4" dy="3" input="SourceAlpha"/>
      <feGaussianBlur stdDeviation="1.5" result="blur-11"/>
      <feFlood flood-opacity="0.18"/>
      <feComposite operator="in" in2="blur-11"/>
      <feComposite in="SourceGraphic"/>
    </filter>
    <linearGradient id="linear-gradient-18" x1="-4.026" y1="-11.394" x2="3.174" y2="7.526" xlink:href="#linear-gradient"/>
    <linearGradient id="linear-gradient-19" x1="-6.675" y1="-18.358" x2="0.522" y2="0.559" xlink:href="#linear-gradient"/>
    <linearGradient id="linear-gradient-20" x1="0.923" y1="0.057" x2="-0.693" y2="1.751" xlink:href="#linear-gradient-15"/>
    <filter id="Trazado_147043" x="695.005" y="1.52" width="96.802" height="96.758" filterUnits="userSpaceOnUse">
      <feOffset dx="4" dy="3" input="SourceAlpha"/>
      <feGaussianBlur stdDeviation="1.5" result="blur-12"/>
      <feFlood flood-opacity="0.18"/>
      <feComposite operator="in" in2="blur-12"/>
      <feComposite in="SourceGraphic"/>
    </filter>
    <linearGradient id="linear-gradient-21" x1="-3.871" y1="-10.988" x2="3.331" y2="7.939" xlink:href="#linear-gradient"/>
    <linearGradient id="linear-gradient-22" x1="-2.772" y1="-8.098" x2="4.429" y2="10.823" xlink:href="#linear-gradient"/>
    <linearGradient id="linear-gradient-23" x1="-0.177" y1="-1.281" x2="1.089" y2="2.056" xlink:href="#linear-gradient"/>
    <linearGradient id="linear-gradient-24" x1="-10.614" y1="-6.426" x2="-0.577" y2="-0.051" xlink:href="#linear-gradient"/>
    <linearGradient id="linear-gradient-25" x1="-6.425" y1="-3.942" x2="3.438" y2="2.36" xlink:href="#linear-gradient"/>
    <linearGradient id="linear-gradient-26" x1="0.03" y1="-11.551" x2="0.931" y2="12.333" xlink:href="#linear-gradient"/>
    <linearGradient id="linear-gradient-27" x1="-0.516" y1="-2.156" x2="0.755" y2="1.171" xlink:href="#linear-gradient"/>
    <linearGradient id="linear-gradient-28" x1="-25.476" y1="-67.768" x2="7.683" y2="19.379" xlink:href="#linear-gradient"/>
    <linearGradient id="linear-gradient-29" x1="-15.738" y1="-42.177" x2="17.421" y2="44.972" xlink:href="#linear-gradient"/>
    <linearGradient id="linear-gradient-30" x1="-16.151" y1="-43.262" x2="17.008" y2="43.885" xlink:href="#linear-gradient"/>
    <linearGradient id="linear-gradient-31" x1="-6.608" y1="-8.75" x2="1.61" y2="1.944" gradientUnits="objectBoundingBox">
      <stop offset="0.022" stop-color="#fe502d"/>
      <stop offset="0.981" stop-color="#ff2f05"/>
    </linearGradient>
    <linearGradient id="linear-gradient-32" x1="-2.603" y1="-3.582" x2="3.372" y2="4.277" xlink:href="#linear-gradient-31"/>
    <linearGradient id="linear-gradient-33" x1="3.619" y1="-4.251" x2="-0.974" y2="2.746" xlink:href="#linear-gradient-31"/>
    <linearGradient id="linear-gradient-34" x1="1.735" y1="0.376" x2="-15.113" y2="2.071" xlink:href="#linear-gradient-31"/>
  </defs>
  <g id="Grupo_85190" data-name="Grupo 85190" transform="translate(-291.419 -2367)">
    <g id="Grupo_85189" data-name="Grupo 85189" transform="translate(291.919 2269.997)">
      <g id="Grupo_85146" data-name="Grupo 85146">
        <g id="Grupo_85144" data-name="Grupo 85144">
          <path id="Trazado_147026" data-name="Trazado 147026" d="M741.025,628.028a26.365,26.365,0,0,1-26.358,26.181H368.159a26.388,26.388,0,0,1-26.226-23.625v-.045c.2-3.311.467-6.579.845-9.845,11-99.924,95.967-177.933,198.779-177.933,103.635,0,189.111,79.232,199.024,180.288C740.759,624.694,740.892,626.361,741.025,628.028Z" fill="#272525" opacity="0.2"/>
          <path id="Trazado_147027" data-name="Trazado 147027" d="M734.149,621.152a26.365,26.365,0,0,1-26.359,26.181H361.283a26.388,26.388,0,0,1-26.226-23.625v-.045c.2-3.311.467-6.578.845-9.846,11-99.923,95.967-177.932,198.779-177.932,103.634,0,189.111,79.232,199.024,180.288C733.882,617.818,734.016,619.485,734.149,621.152Z" fill="url(#linear-gradient)"/>
        </g>
        <g id="Grupo_85145" data-name="Grupo 85145">
          <path id="Trazado_159124" data-name="Trazado 159124" d="M-58.474-23.147H-67.01V0h-6.856V-23.147h-8.38v-5.294h23.772ZM-48.941,0h-6.6V-21.135h6.6Zm-6.993-26.585a2.938,2.938,0,0,1,1.016-2.3,3.832,3.832,0,0,1,2.637-.9,3.832,3.832,0,0,1,2.637.9,2.938,2.938,0,0,1,1.016,2.3,2.938,2.938,0,0,1-1.016,2.3,3.832,3.832,0,0,1-2.637.9,3.832,3.832,0,0,1-2.637-.9A2.938,2.938,0,0,1-55.934-26.585Zm30.668,16.174a12.746,12.746,0,0,1-2.217,7.862A7.108,7.108,0,0,1-33.471.391a6.093,6.093,0,0,1-4.786-2.129V8.126h-6.583V-21.135h6.153l.2,1.953a6.094,6.094,0,0,1,4.981-2.344,7.166,7.166,0,0,1,6.075,2.881q2.168,2.881,2.168,7.921Zm-6.583-.41q0-5.626-3.282-5.626a3.1,3.1,0,0,0-3.125,1.68v8.321a3.2,3.2,0,0,0,3.164,1.758q3.145,0,3.243-5.43Zm8.653.059A12.474,12.474,0,0,1-21.966-16.4a8.8,8.8,0,0,1,3.536-3.8,10.648,10.648,0,0,1,5.411-1.328,9.718,9.718,0,0,1,7.481,2.94,11.281,11.281,0,0,1,2.735,8v.234A10.945,10.945,0,0,1-5.548-2.51,9.744,9.744,0,0,1-12.98.391a9.855,9.855,0,0,1-7.247-2.705,10.582,10.582,0,0,1-2.95-7.335Zm6.583.41a7.864,7.864,0,0,0,.918,4.3A3.059,3.059,0,0,0-12.98-4.688q3.516,0,3.594-5.411v-.664q0-5.684-3.633-5.684-3.3,0-3.575,4.9ZM11.163-5.938a1.521,1.521,0,0,0-.879-1.348,13.371,13.371,0,0,0-3.34-1.055A15.231,15.231,0,0,1,2.881-9.777,6.806,6.806,0,0,1,.44-11.935,5.154,5.154,0,0,1-.4-14.846a5.842,5.842,0,0,1,2.4-4.8,9.9,9.9,0,0,1,6.29-1.885,10.966,10.966,0,0,1,6.72,1.895,5.925,5.925,0,0,1,2.539,4.981h-6.6q0-2.539-2.676-2.539a2.653,2.653,0,0,0-1.738.576,1.784,1.784,0,0,0-.7,1.436,1.638,1.638,0,0,0,.859,1.426,8.121,8.121,0,0,0,2.744.9,23.717,23.717,0,0,1,3.311.84q4.766,1.641,4.766,5.88a5.535,5.535,0,0,1-2.569,4.708A11.264,11.264,0,0,1,8.292.391,11.5,11.5,0,0,1,3.448-.586,8.1,8.1,0,0,1,.127-3.243,6.016,6.016,0,0,1-1.065-6.778H5.088a2.544,2.544,0,0,0,.977,2.139,4.017,4.017,0,0,0,2.4.674,3.16,3.16,0,0,0,2.022-.547A1.75,1.75,0,0,0,11.163-5.938ZM29.72-10.724q0-5.02,2.168-7.911a7.137,7.137,0,0,1,6.055-2.891A6.07,6.07,0,0,1,42.71-19.3V-30h6.6V0H43.394l-.332-2.266A6.233,6.233,0,0,1,37.9.391,7.124,7.124,0,0,1,31.928-2.5Q29.72-5.391,29.72-10.724Zm6.583.41q0,5.626,3.282,5.626A3.24,3.24,0,0,0,42.71-6.524v-8.048a3.153,3.153,0,0,0-3.086-1.875q-3.047,0-3.3,4.922ZM63.279.391a10.865,10.865,0,0,1-7.872-2.9A10.017,10.017,0,0,1,52.4-10.06v-.547a12.98,12.98,0,0,1,1.2-5.723,8.79,8.79,0,0,1,3.506-3.838,10.585,10.585,0,0,1,5.469-1.358,9.149,9.149,0,0,1,7.032,2.764Q72.186-16,72.186-11.056V-8.5H59.1A4.745,4.745,0,0,0,60.642-5.7a4.592,4.592,0,0,0,3.086,1.016,5.916,5.916,0,0,0,4.883-2.188L71.62-3.321A8.409,8.409,0,0,1,68.133-.615,11.783,11.783,0,0,1,63.279.391Zm-.742-16.838q-2.891,0-3.438,3.829H65.74v-.508a3.261,3.261,0,0,0-.8-2.451A3.187,3.187,0,0,0,62.537-16.447Zm-130.211,41.6a12.746,12.746,0,0,1-2.217,7.862,7.108,7.108,0,0,1-5.987,2.94,6.093,6.093,0,0,1-4.786-2.129v9.864h-6.583V14.424h6.153l.2,1.953a6.094,6.094,0,0,1,4.981-2.344,7.166,7.166,0,0,1,6.075,2.881q2.168,2.881,2.168,7.921Zm-6.583-.41q0-5.626-3.282-5.626a3.1,3.1,0,0,0-3.125,1.68v8.321A3.2,3.2,0,0,0-77.5,30.872q3.145,0,3.243-5.43Zm22.268-4.356-2.168-.156q-3.106,0-3.985,1.953V35.56h-6.583V14.424h6.173l.215,2.715q1.66-3.106,4.629-3.106a6.419,6.419,0,0,1,1.836.234Zm.84,4.415a12.474,12.474,0,0,1,1.231-5.635,8.8,8.8,0,0,1,3.536-3.8,10.648,10.648,0,0,1,5.411-1.328,9.718,9.718,0,0,1,7.481,2.94,11.281,11.281,0,0,1,2.735,8v.234A10.945,10.945,0,0,1-33.5,33.05a9.744,9.744,0,0,1-7.433,2.9,9.855,9.855,0,0,1-7.247-2.705,10.582,10.582,0,0,1-2.95-7.335Zm6.583.41a7.864,7.864,0,0,0,.918,4.3,3.059,3.059,0,0,0,2.715,1.367q3.516,0,3.594-5.411V24.8q0-5.684-3.633-5.684-3.3,0-3.575,4.9ZM-19.7,26.34l3.516-11.915h7.052L-17.746,39.1l-.371.9A6.544,6.544,0,0,1-24.6,44.1a10.317,10.317,0,0,1-2.715-.389v-4.69h.859a4.5,4.5,0,0,0,2.119-.4,2.432,2.432,0,0,0,1.084-1.437l.527-1.407-7.345-21.348h7.032ZM2.549,35.95a10.865,10.865,0,0,1-7.872-2.9A10.017,10.017,0,0,1-8.331,25.5v-.547a12.98,12.98,0,0,1,1.2-5.723,8.79,8.79,0,0,1,3.506-3.838,10.585,10.585,0,0,1,5.469-1.358A9.149,9.149,0,0,1,8.878,16.8q2.578,2.764,2.578,7.706v2.559H-1.631A4.745,4.745,0,0,0-.088,29.856,4.592,4.592,0,0,0,3,30.872a5.916,5.916,0,0,0,4.883-2.188l3.008,3.555A8.409,8.409,0,0,1,7.4,34.944,11.783,11.783,0,0,1,2.549,35.95ZM1.807,19.113q-2.891,0-3.438,3.829H5.01v-.508a3.261,3.261,0,0,0-.8-2.451A3.187,3.187,0,0,0,1.807,19.113ZM23.04,30.872a2.928,2.928,0,0,0,2.149-.752,2.758,2.758,0,0,0,.742-2.1H32.1a7.307,7.307,0,0,1-2.491,5.7A9.264,9.264,0,0,1,23.2,35.95,9.38,9.38,0,0,1,15.93,33.06q-2.657-2.891-2.657-8.009v-.273a12.874,12.874,0,0,1,1.182-5.655,8.6,8.6,0,0,1,3.409-3.77,10.163,10.163,0,0,1,5.274-1.319,9.147,9.147,0,0,1,6.544,2.285A8.106,8.106,0,0,1,32.1,22.511H25.931a3.613,3.613,0,0,0-.8-2.52,2.764,2.764,0,0,0-2.149-.879q-2.559,0-2.989,3.262a23.018,23.018,0,0,0-.137,2.852,9.041,9.041,0,0,0,.762,4.415A2.637,2.637,0,0,0,23.04,30.872ZM42.554,9.17v5.255h3.477V19H42.554v9.669a2.469,2.469,0,0,0,.43,1.66,2.305,2.305,0,0,0,1.7.469,9.657,9.657,0,0,0,1.641-.117v4.708a12.149,12.149,0,0,1-3.711.566q-3.4,0-5.02-1.6a6.565,6.565,0,0,1-1.621-4.864V19h-2.7V14.424h2.7V9.17ZM47.2,24.8a12.474,12.474,0,0,1,1.231-5.635,8.8,8.8,0,0,1,3.536-3.8,10.648,10.648,0,0,1,5.411-1.328,9.718,9.718,0,0,1,7.481,2.94,11.281,11.281,0,0,1,2.735,8v.234a10.945,10.945,0,0,1-2.744,7.843,9.744,9.744,0,0,1-7.433,2.9,9.855,9.855,0,0,1-7.247-2.705,10.582,10.582,0,0,1-2.95-7.335Zm6.583.41a7.864,7.864,0,0,0,.918,4.3,3.059,3.059,0,0,0,2.715,1.367q3.516,0,3.594-5.411V24.8q0-5.684-3.633-5.684-3.3,0-3.575,4.9Zm27.777,4.415a1.521,1.521,0,0,0-.879-1.348,13.371,13.371,0,0,0-3.34-1.055,15.231,15.231,0,0,1-4.063-1.436,6.806,6.806,0,0,1-2.442-2.158A5.154,5.154,0,0,1,70,20.714a5.842,5.842,0,0,1,2.4-4.8,9.9,9.9,0,0,1,6.29-1.885,10.966,10.966,0,0,1,6.72,1.895A5.925,5.925,0,0,1,87.95,20.91h-6.6q0-2.539-2.676-2.539a2.653,2.653,0,0,0-1.738.576,1.784,1.784,0,0,0-.7,1.436,1.638,1.638,0,0,0,.859,1.426,8.121,8.121,0,0,0,2.744.9,23.716,23.716,0,0,1,3.311.84q4.766,1.641,4.766,5.88a5.535,5.535,0,0,1-2.569,4.708,11.264,11.264,0,0,1-6.651,1.817,11.5,11.5,0,0,1-4.844-.977,8.1,8.1,0,0,1-3.321-2.657,6.016,6.016,0,0,1-1.192-3.536h6.153a2.544,2.544,0,0,0,.977,2.139,4.018,4.018,0,0,0,2.4.674,3.16,3.16,0,0,0,2.022-.547A1.75,1.75,0,0,0,81.562,29.622Z" transform="translate(534.604 557.188)" fill="#fff"/>
        </g>
      </g>
      <g id="Grupo_85188" data-name="Grupo 85188">
        <g id="Grupo_85167" data-name="Grupo 85167">
          <g id="Grupo_85153" data-name="Grupo 85153">
            <g id="Grupo_85151" data-name="Grupo 85151">
              <g id="Grupo_85147" data-name="Grupo 85147">
                <path id="Trazado_147028" data-name="Trazado 147028" d="M1048.719,587.193H784.2a7.276,7.276,0,0,1-7.078-5.771C752.547,468.353,650.584,386.279,534.68,386.279S316.813,468.353,292.238,581.433a7.274,7.274,0,0,1-7.076,5.76H20.641V584.08H285.162a4.155,4.155,0,0,0,4.035-3.3,251.285,251.285,0,0,1,490.966-.011,4.157,4.157,0,0,0,4.037,3.307h264.519Z" fill="url(#linear-gradient-2)"/>
              </g>
              <g id="Grupo_85148" data-name="Grupo 85148">
                <circle id="Elipse_4099" data-name="Elipse 4099" cx="5.108" cy="5.108" r="5.108" transform="translate(706.326 452.875)" fill="url(#linear-gradient-3)"/>
              </g>
              <g id="Grupo_85149" data-name="Grupo 85149">
                <circle id="Elipse_4100" data-name="Elipse 4100" cx="5.108" cy="5.108" r="5.108" transform="translate(529.574 379.662)" fill="url(#linear-gradient-4)"/>
              </g>
              <g id="Grupo_85150" data-name="Grupo 85150">
                <circle id="Elipse_4101" data-name="Elipse 4101" cx="5.108" cy="5.108" r="5.108" transform="translate(352.823 452.875)" fill="url(#linear-gradient-5)"/>
              </g>
            </g>
            <g id="Grupo_85152" data-name="Grupo 85152">
              <path id="Trazado_147029" data-name="Trazado 147029" d="M66.393,634.406v.355a12.632,12.632,0,0,0,12.663,12.564H205.868a12.7,12.7,0,0,0,12.658-12.789v-.13c0-174.334,141.839-316.15,316.15-316.15,174.333,0,316.172,141.816,316.172,316.15v.13a12.7,12.7,0,0,0,12.658,12.789H990.295a12.632,12.632,0,0,0,12.663-12.563v-.356c0-258.207-210.075-468.283-468.282-468.283S66.393,376.2,66.393,634.406Z" fill="url(#linear-gradient-6)"/>
            </g>
          </g>
          <g id="Grupo_85166" data-name="Grupo 85166">
            <g id="Grupo_85156" data-name="Grupo 85156">
              <g transform="matrix(1, 0, 0, 1, -0.5, 97)" filter="url(#Trazado_147030)">
                <path id="Trazado_147030-2" data-name="Trazado 147030" d="M57.478,609.065l174.77,4.416a24.888,24.888,0,0,0,25.164-21.313,279.032,279.032,0,0,1,51.448-123.9,24.831,24.831,0,0,0-2.667-32.818l-126.657-120.4a24.812,24.812,0,0,0-36.346,2.314A501.767,501.767,0,0,0,33.412,581.792,24.786,24.786,0,0,0,57.478,609.065Z" transform="translate(0.5 -97)" fill="url(#linear-gradient-7)"/>
              </g>
              <g id="Grupo_85155" data-name="Grupo 85155">
                <g transform="matrix(1, 0, 0, 1, -0.5, 97)" filter="url(#Trazado_147031)">
                  <path id="Trazado_147031-2" data-name="Trazado 147031" d="M84.38,542.435a456.3,456.3,0,0,1,67.043-161.3,19.524,19.524,0,0,1,29.695-3.246l70.6,67.108a19.49,19.49,0,0,1,3.392,24.042,325.836,325.836,0,0,0-35.134,84.608,19.491,19.491,0,0,1-19.39,14.575l-97.5-2.462A19.522,19.522,0,0,1,84.38,542.435Z" transform="translate(0.5 -97)" fill="url(#linear-gradient-8)"/>
                </g>
                <g id="Grupo_85154" data-name="Grupo 85154">
                  <path id="Trazado_159125" data-name="Trazado 159125" d="M31.776,11.977a1.127,1.127,0,0,0-.426-.937,5.292,5.292,0,0,0-1.5-.7,14.353,14.353,0,0,1-1.75-.7,3.314,3.314,0,0,1-2.211-2.984A2.676,2.676,0,0,1,26.444,5,3.562,3.562,0,0,1,28,3.871a6.065,6.065,0,0,1,2.266-.4,5.305,5.305,0,0,1,2.2.438A3.482,3.482,0,0,1,33.98,5.152,3.254,3.254,0,0,1,34.519,7H31.784a1.375,1.375,0,0,0-.426-1.078,1.66,1.66,0,0,0-1.152-.383,1.872,1.872,0,0,0-1.16.324.955.955,0,0,0,.043,1.617,5.911,5.911,0,0,0,1.648.734,10.1,10.1,0,0,1,1.938.816,3.256,3.256,0,0,1,1.844,2.93A2.778,2.778,0,0,1,33.394,14.3a5,5,0,0,1-3.086.852,6.122,6.122,0,0,1-2.5-.5A3.775,3.775,0,0,1,26.116,13.3a3.542,3.542,0,0,1-.566-1.988H28.3a1.744,1.744,0,0,0,.473,1.348,2.234,2.234,0,0,0,1.535.434,1.765,1.765,0,0,0,1.074-.293A.967.967,0,0,0,31.776,11.977Zm8.117,3.18A4.345,4.345,0,0,1,36.745,14a4.006,4.006,0,0,1-1.2-3.02v-.219a5.191,5.191,0,0,1,.48-2.289,3.516,3.516,0,0,1,1.4-1.535,4.233,4.233,0,0,1,2.188-.543A3.659,3.659,0,0,1,42.425,7.5a4.344,4.344,0,0,1,1.031,3.082V11.6H38.222a1.9,1.9,0,0,0,.617,1.117,1.836,1.836,0,0,0,1.234.406,2.366,2.366,0,0,0,1.953-.875l1.2,1.422a3.363,3.363,0,0,1-1.395,1.082A4.713,4.713,0,0,1,39.894,15.156Zm-.3-6.734q-1.156,0-1.375,1.531h2.656v-.2a1.3,1.3,0,0,0-.32-.98A1.275,1.275,0,0,0,39.6,8.422Zm4.609,2.289a5.708,5.708,0,0,1,.422-2.266,3.4,3.4,0,0,1,1.211-1.52,3.192,3.192,0,0,1,1.836-.535,2.538,2.538,0,0,1,2.063.891l.094-.734h2.391V14.68a3.564,3.564,0,0,1-.52,1.941,3.334,3.334,0,0,1-1.5,1.266,5.528,5.528,0,0,1-2.281.441,4.769,4.769,0,0,1-1.8-.352,3.251,3.251,0,0,1-1.332-.914l1.1-1.547a2.414,2.414,0,0,0,1.938.867,1.568,1.568,0,0,0,1.75-1.8V14.32a2.472,2.472,0,0,1-1.914.836,3.055,3.055,0,0,1-2.5-1.184,4.9,4.9,0,0,1-.953-3.168Zm2.641.164a3.007,3.007,0,0,0,.391,1.645,1.232,1.232,0,0,0,1.094.605,1.4,1.4,0,0,0,1.242-.57V9a1.363,1.363,0,0,0-1.227-.578,1.241,1.241,0,0,0-1.1.629A3.429,3.429,0,0,0,46.847,10.875Zm11.906,3.211a2.714,2.714,0,0,1-2.258,1.07,2.662,2.662,0,0,1-2.105-.809,3.4,3.4,0,0,1-.715-2.324V6.547h2.633v5.492a.946.946,0,0,0,1.055,1.086,1.376,1.376,0,0,0,1.289-.648V6.547H61.3V15H58.831ZM57.815,3H60.6L58.425,5.453l-2.148,0Zm7.344,3.547.086.992a2.867,2.867,0,0,1,2.414-1.148,2.412,2.412,0,0,1,1.973.789,3.757,3.757,0,0,1,.676,2.375V15H67.667V9.664a1.426,1.426,0,0,0-.258-.941,1.193,1.193,0,0,0-.937-.3,1.256,1.256,0,0,0-1.148.609V15H62.69V6.547ZM78.526,15H75.886V3h2.641Zm6.383,0a2.973,2.973,0,0,1-.25-.758,2.448,2.448,0,0,1-2.031.914,3,3,0,0,1-2.031-.723,2.3,2.3,0,0,1-.836-1.816,2.364,2.364,0,0,1,1.016-2.078,5.174,5.174,0,0,1,2.953-.7h.813V9.388q0-1.17-1.008-1.17a.824.824,0,0,0-.937.926H79.964a2.36,2.36,0,0,1,1.043-1.99,4.383,4.383,0,0,1,2.66-.765,3.843,3.843,0,0,1,2.555.789,2.743,2.743,0,0,1,.961,2.164v3.742a3.832,3.832,0,0,0,.359,1.781V15Zm-1.648-1.719a1.469,1.469,0,0,0,.816-.211,1.322,1.322,0,0,0,.465-.477V11.242h-.766q-1.375,0-1.375,1.234a.754.754,0,0,0,.242.582A.876.876,0,0,0,83.261,13.281ZM8.491,24.547l.086.992a2.867,2.867,0,0,1,2.414-1.148,2.412,2.412,0,0,1,1.973.789,3.757,3.757,0,0,1,.676,2.375V33H11V27.664a1.426,1.426,0,0,0-.258-.941,1.193,1.193,0,0,0-.937-.3,1.256,1.256,0,0,0-1.148.609V33H6.023V24.547ZM19.858,33a2.973,2.973,0,0,1-.25-.758,2.448,2.448,0,0,1-2.031.914,3,3,0,0,1-2.031-.723,2.3,2.3,0,0,1-.836-1.816,2.364,2.364,0,0,1,1.016-2.078,5.174,5.174,0,0,1,2.953-.7h.813v-.448q0-1.17-1.008-1.17a.824.824,0,0,0-.937.926H14.913a2.36,2.36,0,0,1,1.043-1.99,4.383,4.383,0,0,1,2.66-.765,3.843,3.843,0,0,1,2.555.789,2.743,2.743,0,0,1,.961,2.164v3.742a3.832,3.832,0,0,0,.359,1.781V33ZM18.21,31.281a1.469,1.469,0,0,0,.816-.211,1.322,1.322,0,0,0,.465-.477V29.242h-.766q-1.375,0-1.375,1.234a.754.754,0,0,0,.242.582A.876.876,0,0,0,18.21,31.281Zm8.445-8.836v2.1h1.391v1.828H26.655v3.867a.987.987,0,0,0,.172.664.922.922,0,0,0,.68.188,3.862,3.862,0,0,0,.656-.047V32.93a4.859,4.859,0,0,1-1.484.227,2.758,2.758,0,0,1-2.008-.641,2.626,2.626,0,0,1-.648-1.945v-4.2H22.944V24.547h1.078v-2.1Zm7.461,9.641a2.714,2.714,0,0,1-2.258,1.07,2.662,2.662,0,0,1-2.105-.809,3.4,3.4,0,0,1-.715-2.324V24.547h2.633v5.492a.946.946,0,0,0,1.055,1.086,1.376,1.376,0,0,0,1.289-.648v-5.93h2.648V33H34.194Zm9.1-5.156-.867-.062a1.558,1.558,0,0,0-1.594.781V33H38.124V24.547h2.469l.086,1.086a2.039,2.039,0,0,1,1.852-1.242,2.567,2.567,0,0,1,.734.094ZM48.694,33a2.973,2.973,0,0,1-.25-.758,2.448,2.448,0,0,1-2.031.914,3,3,0,0,1-2.031-.723,2.3,2.3,0,0,1-.836-1.816,2.364,2.364,0,0,1,1.016-2.078,5.174,5.174,0,0,1,2.953-.7h.813v-.448q0-1.17-1.008-1.17a.824.824,0,0,0-.937.926H43.749a2.36,2.36,0,0,1,1.043-1.99,4.383,4.383,0,0,1,2.66-.765,3.843,3.843,0,0,1,2.555.789,2.743,2.743,0,0,1,.961,2.164v3.742a3.832,3.832,0,0,0,.359,1.781V33Zm-1.648-1.719a1.469,1.469,0,0,0,.816-.211,1.322,1.322,0,0,0,.465-.477V29.242h-.766q-1.375,0-1.375,1.234a.754.754,0,0,0,.242.582A.876.876,0,0,0,47.046,31.281ZM55.2,33H52.562V21H55.2Zm5.711.156A4.345,4.345,0,0,1,57.765,32a4.006,4.006,0,0,1-1.2-3.02v-.219a5.191,5.191,0,0,1,.48-2.289,3.516,3.516,0,0,1,1.4-1.535,4.233,4.233,0,0,1,2.188-.543A3.659,3.659,0,0,1,63.444,25.5a4.344,4.344,0,0,1,1.031,3.082V29.6H59.241a1.9,1.9,0,0,0,.617,1.117,1.836,1.836,0,0,0,1.234.406,2.366,2.366,0,0,0,1.953-.875l1.2,1.422a3.363,3.363,0,0,1-1.395,1.082A4.713,4.713,0,0,1,60.913,33.156Zm-.3-6.734q-1.156,0-1.375,1.531H61.9v-.2a1.3,1.3,0,0,0-.32-.98A1.275,1.275,0,0,0,60.616,26.422Zm8.023,4.547h3.852V33h-7.18V31.531l3.75-4.953H65.476V24.547h6.93v1.422ZM78.53,33a2.973,2.973,0,0,1-.25-.758,2.448,2.448,0,0,1-2.031.914,3,3,0,0,1-2.031-.723,2.3,2.3,0,0,1-.836-1.816A2.364,2.364,0,0,1,74.4,28.539a5.174,5.174,0,0,1,2.953-.7h.813v-.448q0-1.17-1.008-1.17a.824.824,0,0,0-.937.926H73.585a2.36,2.36,0,0,1,1.043-1.99,4.383,4.383,0,0,1,2.66-.765,3.843,3.843,0,0,1,2.555.789,2.743,2.743,0,0,1,.961,2.164v3.742a3.832,3.832,0,0,0,.359,1.781V33Zm-1.648-1.719a1.469,1.469,0,0,0,.816-.211,1.322,1.322,0,0,0,.465-.477V29.242H77.4q-1.375,0-1.375,1.234a.754.754,0,0,0,.242.582A.876.876,0,0,0,76.882,31.281Zm9.031-2.57a5.164,5.164,0,0,1,.867-3.164A2.854,2.854,0,0,1,89.2,24.391a2.428,2.428,0,0,1,1.906.891V21h2.641V33H91.382l-.133-.906a2.493,2.493,0,0,1-2.062,1.063A2.849,2.849,0,0,1,86.8,32,5.327,5.327,0,0,1,85.913,28.711Zm2.633.164q0,2.25,1.313,2.25a1.3,1.3,0,0,0,1.25-.734V27.172a1.261,1.261,0,0,0-1.234-.75q-1.219,0-1.32,1.969Zm10.789,4.281A4.345,4.345,0,0,1,96.187,32a4.006,4.006,0,0,1-1.2-3.02v-.219a5.191,5.191,0,0,1,.48-2.289,3.516,3.516,0,0,1,1.4-1.535,4.233,4.233,0,0,1,2.188-.543,3.659,3.659,0,0,1,2.813,1.105,4.344,4.344,0,0,1,1.031,3.082V29.6H97.663a1.9,1.9,0,0,0,.617,1.117,1.836,1.836,0,0,0,1.234.406,2.366,2.366,0,0,0,1.953-.875l1.2,1.422a3.363,3.363,0,0,1-1.395,1.082A4.713,4.713,0,0,1,99.335,33.156Zm-.3-6.734q-1.156,0-1.375,1.531h2.656v-.2a1.3,1.3,0,0,0-.32-.98A1.275,1.275,0,0,0,99.038,26.422Zm7.7,6.578h-2.641V21h2.641ZM32.886,46.836A5.1,5.1,0,0,1,32,49.98,2.843,2.843,0,0,1,29.6,51.156,2.437,2.437,0,0,1,27.69,50.3V54.25H25.058v-11.7h2.461l.078.781a2.437,2.437,0,0,1,1.992-.937,2.866,2.866,0,0,1,2.43,1.152,5.16,5.16,0,0,1,.867,3.168Zm-2.633-.164q0-2.25-1.312-2.25a1.239,1.239,0,0,0-1.25.672v3.328a1.279,1.279,0,0,0,1.266.7q1.258,0,1.3-2.172Zm8.906-1.742-.867-.062a1.558,1.558,0,0,0-1.594.781V51H34.065V42.547h2.469l.086,1.086a2.039,2.039,0,0,1,1.852-1.242,2.567,2.567,0,0,1,.734.094ZM39.5,46.7a4.989,4.989,0,0,1,.492-2.254,3.52,3.52,0,0,1,1.414-1.52,4.259,4.259,0,0,1,2.164-.531,3.887,3.887,0,0,1,2.992,1.176,4.512,4.512,0,0,1,1.094,3.2v.094A4.378,4.378,0,0,1,46.554,50a3.9,3.9,0,0,1-2.973,1.16,3.942,3.942,0,0,1-2.9-1.082,4.232,4.232,0,0,1-1.18-2.934Zm2.633.164a3.145,3.145,0,0,0,.367,1.719,1.223,1.223,0,0,0,1.086.547q1.406,0,1.438-2.164V46.7q0-2.273-1.453-2.273-1.32,0-1.43,1.961Zm6.352-.148a5.164,5.164,0,0,1,.867-3.164,2.854,2.854,0,0,1,2.422-1.156,2.428,2.428,0,0,1,1.906.891V39h2.641V51H53.948l-.133-.906a2.493,2.493,0,0,1-2.062,1.063A2.849,2.849,0,0,1,49.362,50,5.327,5.327,0,0,1,48.48,46.711Zm2.633.164q0,2.25,1.313,2.25a1.3,1.3,0,0,0,1.25-.734V45.172a1.261,1.261,0,0,0-1.234-.75q-1.219,0-1.32,1.969Zm11.734,3.211a2.714,2.714,0,0,1-2.258,1.07,2.662,2.662,0,0,1-2.105-.809,3.4,3.4,0,0,1-.715-2.324V42.547H60.4v5.492a.946.946,0,0,0,1.055,1.086,1.376,1.376,0,0,0,1.289-.648v-5.93h2.648V51H62.925Zm7.563-.961a1.171,1.171,0,0,0,.859-.3,1.1,1.1,0,0,0,.3-.84h2.469a2.923,2.923,0,0,1-1,2.281,3.705,3.705,0,0,1-2.566.891A3.751,3.751,0,0,1,67.565,50,4.556,4.556,0,0,1,66.5,46.8v-.109a5.149,5.149,0,0,1,.473-2.262,3.441,3.441,0,0,1,1.363-1.508,4.065,4.065,0,0,1,2.109-.527,3.658,3.658,0,0,1,2.617.914,3.242,3.242,0,0,1,.969,2.477H71.565a1.445,1.445,0,0,0-.32-1.008,1.106,1.106,0,0,0-.859-.352q-1.023,0-1.2,1.3a9.206,9.206,0,0,0-.055,1.141,3.616,3.616,0,0,0,.3,1.766A1.055,1.055,0,0,0,70.409,49.125Zm7.8-8.68v2.1H79.6v1.828H78.214v3.867a.987.987,0,0,0,.172.664.922.922,0,0,0,.68.188,3.862,3.862,0,0,0,.656-.047V50.93a4.859,4.859,0,0,1-1.484.227,2.758,2.758,0,0,1-2.008-.641,2.626,2.626,0,0,1-.648-1.945v-4.2H74.5V42.547h1.078v-2.1Zm1.859,6.25a4.989,4.989,0,0,1,.492-2.254,3.52,3.52,0,0,1,1.414-1.52,4.259,4.259,0,0,1,2.164-.531,3.887,3.887,0,0,1,2.992,1.176,4.512,4.512,0,0,1,1.094,3.2v.094A4.378,4.378,0,0,1,87.132,50a3.9,3.9,0,0,1-2.973,1.16,3.942,3.942,0,0,1-2.9-1.082,4.232,4.232,0,0,1-1.18-2.934Zm2.633.164a3.145,3.145,0,0,0,.367,1.719,1.223,1.223,0,0,0,1.086.547q1.406,0,1.438-2.164V46.7q0-2.273-1.453-2.273-1.32,0-1.43,1.961Z" transform="translate(116.421 454.896)" fill="#fff"/>
                </g>
              </g>
            </g>
            <g id="Grupo_85159" data-name="Grupo 85159">
              <g transform="matrix(1, 0, 0, 1, -0.5, 97)" filter="url(#Trazado_147032)">
                <path id="Trazado_147032-2" data-name="Trazado 147032" d="M215.327,279.233,335.754,405.921a24.832,24.832,0,0,0,32.818,2.666,278.812,278.812,0,0,1,123.892-51.455,24.889,24.889,0,0,0,21.321-25.165l-4.416-174.762A24.787,24.787,0,0,0,482.1,133.139,501.837,501.837,0,0,0,217.642,242.886,24.813,24.813,0,0,0,215.327,279.233Z" transform="translate(0.5 -97)" fill="url(#linear-gradient-9)"/>
              </g>
              <g id="Grupo_85158" data-name="Grupo 85158">
                <g transform="matrix(1, 0, 0, 1, -0.5, 97)" filter="url(#Trazado_147033)">
                  <path id="Trazado_147033-2" data-name="Trazado 147033" d="M281.41,251.119A456.426,456.426,0,0,1,442.739,184.1a19.522,19.522,0,0,1,23.319,18.7l2.463,97.494a19.492,19.492,0,0,1-14.575,19.391,325.716,325.716,0,0,0-84.611,35.142,19.49,19.49,0,0,1-24.043-3.391l-67.131-70.622A19.523,19.523,0,0,1,281.41,251.119Z" transform="translate(0.5 -97)" fill="url(#linear-gradient-10)"/>
                </g>
                <g id="Grupo_85157" data-name="Grupo 85157">
                  <path id="Trazado_159126" data-name="Trazado 159126" d="M38.164,11.977a1.127,1.127,0,0,0-.426-.937,5.292,5.292,0,0,0-1.5-.7,14.353,14.353,0,0,1-1.75-.7,3.314,3.314,0,0,1-2.211-2.984A2.676,2.676,0,0,1,32.832,5a3.562,3.562,0,0,1,1.559-1.125,6.065,6.065,0,0,1,2.266-.4,5.305,5.305,0,0,1,2.2.438,3.482,3.482,0,0,1,1.512,1.246A3.254,3.254,0,0,1,40.906,7H38.172a1.375,1.375,0,0,0-.426-1.078,1.66,1.66,0,0,0-1.152-.383,1.872,1.872,0,0,0-1.16.324.955.955,0,0,0,.043,1.617,5.911,5.911,0,0,0,1.648.734,10.1,10.1,0,0,1,1.938.816,3.256,3.256,0,0,1,1.844,2.93A2.778,2.778,0,0,1,39.781,14.3a5,5,0,0,1-3.086.852,6.122,6.122,0,0,1-2.5-.5A3.775,3.775,0,0,1,32.5,13.3a3.542,3.542,0,0,1-.566-1.988h2.75a1.744,1.744,0,0,0,.473,1.348,2.234,2.234,0,0,0,1.535.434A1.765,1.765,0,0,0,37.77,12.8.967.967,0,0,0,38.164,11.977Zm8.117,3.18A4.345,4.345,0,0,1,43.133,14a4.006,4.006,0,0,1-1.2-3.02v-.219a5.191,5.191,0,0,1,.48-2.289,3.516,3.516,0,0,1,1.4-1.535A4.233,4.233,0,0,1,46,6.391,3.659,3.659,0,0,1,48.813,7.5a4.344,4.344,0,0,1,1.031,3.082V11.6H44.609a1.9,1.9,0,0,0,.617,1.117,1.836,1.836,0,0,0,1.234.406,2.366,2.366,0,0,0,1.953-.875l1.2,1.422a3.363,3.363,0,0,1-1.395,1.082A4.713,4.713,0,0,1,46.281,15.156Zm-.3-6.734q-1.156,0-1.375,1.531h2.656v-.2a1.3,1.3,0,0,0-.32-.98A1.275,1.275,0,0,0,45.984,8.422Zm4.609,2.289a5.708,5.708,0,0,1,.422-2.266,3.4,3.4,0,0,1,1.211-1.52,3.192,3.192,0,0,1,1.836-.535,2.538,2.538,0,0,1,2.063.891l.094-.734h2.391V14.68a3.564,3.564,0,0,1-.52,1.941,3.334,3.334,0,0,1-1.5,1.266,5.528,5.528,0,0,1-2.281.441,4.769,4.769,0,0,1-1.8-.352,3.251,3.251,0,0,1-1.332-.914l1.1-1.547a2.414,2.414,0,0,0,1.938.867,1.568,1.568,0,0,0,1.75-1.8V14.32a2.472,2.472,0,0,1-1.914.836,3.055,3.055,0,0,1-2.5-1.184,4.9,4.9,0,0,1-.953-3.168Zm2.641.164a3.007,3.007,0,0,0,.391,1.645,1.232,1.232,0,0,0,1.094.605,1.4,1.4,0,0,0,1.242-.57V9a1.363,1.363,0,0,0-1.227-.578,1.241,1.241,0,0,0-1.1.629A3.429,3.429,0,0,0,53.234,10.875Zm11.906,3.211a2.714,2.714,0,0,1-2.258,1.07,2.662,2.662,0,0,1-2.105-.809,3.4,3.4,0,0,1-.715-2.324V6.547H62.7v5.492a.946.946,0,0,0,1.055,1.086,1.376,1.376,0,0,0,1.289-.648V6.547h2.648V15H65.219ZM64.2,3h2.781L64.813,5.453l-2.148,0Zm7.344,3.547.086.992a2.867,2.867,0,0,1,2.414-1.148,2.412,2.412,0,0,1,1.973.789A3.757,3.757,0,0,1,76.7,9.555V15H74.055V9.664a1.426,1.426,0,0,0-.258-.941,1.193,1.193,0,0,0-.937-.3,1.256,1.256,0,0,0-1.148.609V15H69.078V6.547ZM84.914,15H82.273V3h2.641ZM91.3,15a2.973,2.973,0,0,1-.25-.758,2.448,2.448,0,0,1-2.031.914,3,3,0,0,1-2.031-.723,2.3,2.3,0,0,1-.836-1.816,2.364,2.364,0,0,1,1.016-2.078,5.174,5.174,0,0,1,2.953-.7h.813V9.388q0-1.17-1.008-1.17a.824.824,0,0,0-.937.926H86.352a2.36,2.36,0,0,1,1.043-1.99,4.383,4.383,0,0,1,2.66-.765,3.843,3.843,0,0,1,2.555.789,2.743,2.743,0,0,1,.961,2.164v3.742a3.832,3.832,0,0,0,.359,1.781V15Zm-1.648-1.719a1.469,1.469,0,0,0,.816-.211,1.322,1.322,0,0,0,.465-.477V11.242h-.766q-1.375,0-1.375,1.234a.754.754,0,0,0,.242.582A.876.876,0,0,0,89.648,13.281ZM14.879,24.547l.086.992a2.867,2.867,0,0,1,2.414-1.148,2.412,2.412,0,0,1,1.973.789,3.757,3.757,0,0,1,.676,2.375V33H17.387V27.664a1.426,1.426,0,0,0-.258-.941,1.193,1.193,0,0,0-.937-.3,1.256,1.256,0,0,0-1.148.609V33H12.41V24.547ZM26.246,33a2.973,2.973,0,0,1-.25-.758,2.448,2.448,0,0,1-2.031.914,3,3,0,0,1-2.031-.723,2.3,2.3,0,0,1-.836-1.816,2.364,2.364,0,0,1,1.016-2.078,5.174,5.174,0,0,1,2.953-.7h.813v-.448q0-1.17-1.008-1.17a.824.824,0,0,0-.937.926H21.3a2.36,2.36,0,0,1,1.043-1.99A4.383,4.383,0,0,1,25,24.391a3.843,3.843,0,0,1,2.555.789,2.743,2.743,0,0,1,.961,2.164v3.742a3.832,3.832,0,0,0,.359,1.781V33ZM24.6,31.281a1.469,1.469,0,0,0,.816-.211,1.322,1.322,0,0,0,.465-.477V29.242h-.766q-1.375,0-1.375,1.234a.754.754,0,0,0,.242.582A.876.876,0,0,0,24.6,31.281Zm8.445-8.836v2.1h1.391v1.828H33.043v3.867a.987.987,0,0,0,.172.664.922.922,0,0,0,.68.188,3.862,3.862,0,0,0,.656-.047V32.93a4.859,4.859,0,0,1-1.484.227,2.758,2.758,0,0,1-2.008-.641,2.626,2.626,0,0,1-.648-1.945v-4.2H29.332V24.547H30.41v-2.1ZM40.5,32.086a2.714,2.714,0,0,1-2.258,1.07,2.662,2.662,0,0,1-2.105-.809,3.4,3.4,0,0,1-.715-2.324V24.547h2.633v5.492a.946.946,0,0,0,1.055,1.086,1.376,1.376,0,0,0,1.289-.648v-5.93h2.648V33H40.582Zm9.1-5.156-.867-.062a1.558,1.558,0,0,0-1.594.781V33H44.512V24.547H46.98l.086,1.086a2.039,2.039,0,0,1,1.852-1.242,2.567,2.567,0,0,1,.734.094ZM55.082,33a2.973,2.973,0,0,1-.25-.758,2.448,2.448,0,0,1-2.031.914,3,3,0,0,1-2.031-.723,2.3,2.3,0,0,1-.836-1.816,2.364,2.364,0,0,1,1.016-2.078,5.174,5.174,0,0,1,2.953-.7h.813v-.448q0-1.17-1.008-1.17a.824.824,0,0,0-.937.926H50.137a2.36,2.36,0,0,1,1.043-1.99,4.383,4.383,0,0,1,2.66-.765,3.843,3.843,0,0,1,2.555.789,2.743,2.743,0,0,1,.961,2.164v3.742a3.832,3.832,0,0,0,.359,1.781V33Zm-1.648-1.719a1.469,1.469,0,0,0,.816-.211,1.322,1.322,0,0,0,.465-.477V29.242h-.766q-1.375,0-1.375,1.234a.754.754,0,0,0,.242.582A.876.876,0,0,0,53.434,31.281ZM61.59,33H58.949V21H61.59Zm5.711.156A4.345,4.345,0,0,1,64.152,32a4.006,4.006,0,0,1-1.2-3.02v-.219a5.191,5.191,0,0,1,.48-2.289,3.516,3.516,0,0,1,1.4-1.535,4.233,4.233,0,0,1,2.188-.543A3.659,3.659,0,0,1,69.832,25.5a4.344,4.344,0,0,1,1.031,3.082V29.6H65.629a1.9,1.9,0,0,0,.617,1.117,1.836,1.836,0,0,0,1.234.406,2.366,2.366,0,0,0,1.953-.875l1.2,1.422a3.363,3.363,0,0,1-1.395,1.082A4.713,4.713,0,0,1,67.3,33.156ZM67,26.422q-1.156,0-1.375,1.531h2.656v-.2a1.3,1.3,0,0,0-.32-.98A1.275,1.275,0,0,0,67,26.422Zm8.023,4.547h3.852V33H71.7V31.531l3.75-4.953H71.863V24.547h6.93v1.422ZM84.918,33a2.973,2.973,0,0,1-.25-.758,2.448,2.448,0,0,1-2.031.914,3,3,0,0,1-2.031-.723,2.3,2.3,0,0,1-.836-1.816,2.364,2.364,0,0,1,1.016-2.078,5.174,5.174,0,0,1,2.953-.7h.813v-.448q0-1.17-1.008-1.17a.824.824,0,0,0-.937.926H79.973a2.36,2.36,0,0,1,1.043-1.99,4.383,4.383,0,0,1,2.66-.765,3.843,3.843,0,0,1,2.555.789,2.743,2.743,0,0,1,.961,2.164v3.742a3.832,3.832,0,0,0,.359,1.781V33ZM83.27,31.281a1.469,1.469,0,0,0,.816-.211,1.322,1.322,0,0,0,.465-.477V29.242h-.766q-1.375,0-1.375,1.234a.754.754,0,0,0,.242.582A.876.876,0,0,0,83.27,31.281Zm9.031-2.57a5.164,5.164,0,0,1,.867-3.164,2.854,2.854,0,0,1,2.422-1.156,2.428,2.428,0,0,1,1.906.891V21h2.641V33H97.77l-.133-.906a2.493,2.493,0,0,1-2.062,1.063A2.849,2.849,0,0,1,93.184,32,5.327,5.327,0,0,1,92.3,28.711Zm2.633.164q0,2.25,1.313,2.25a1.3,1.3,0,0,0,1.25-.734V27.172a1.261,1.261,0,0,0-1.234-.75q-1.219,0-1.32,1.969Zm10.789,4.281A4.345,4.345,0,0,1,102.574,32a4.006,4.006,0,0,1-1.2-3.02v-.219a5.191,5.191,0,0,1,.48-2.289,3.516,3.516,0,0,1,1.4-1.535,4.233,4.233,0,0,1,2.188-.543,3.659,3.659,0,0,1,2.813,1.105,4.344,4.344,0,0,1,1.031,3.082V29.6h-5.234a1.9,1.9,0,0,0,.617,1.117,1.836,1.836,0,0,0,1.234.406,2.366,2.366,0,0,0,1.953-.875l1.2,1.422a3.363,3.363,0,0,1-1.395,1.082A4.713,4.713,0,0,1,105.723,33.156Zm-.3-6.734q-1.156,0-1.375,1.531h2.656v-.2a1.3,1.3,0,0,0-.32-.98A1.275,1.275,0,0,0,105.426,26.422Zm7.7,6.578H110.48V21h2.641ZM3.98,40.445v2.1H5.371v1.828H3.98v3.867a.987.987,0,0,0,.172.664.922.922,0,0,0,.68.188,3.862,3.862,0,0,0,.656-.047V50.93A4.859,4.859,0,0,1,4,51.156,2.758,2.758,0,0,1,2,50.516a2.626,2.626,0,0,1-.648-1.945v-4.2H.27V42.547H1.348v-2.1ZM11.52,44.93l-.867-.062a1.558,1.558,0,0,0-1.594.781V51H6.426V42.547H8.895l.086,1.086a2.039,2.039,0,0,1,1.852-1.242,2.567,2.567,0,0,1,.734.094ZM17,51a2.973,2.973,0,0,1-.25-.758,2.448,2.448,0,0,1-2.031.914,3,3,0,0,1-2.031-.723,2.3,2.3,0,0,1-.836-1.816,2.364,2.364,0,0,1,1.016-2.078,5.174,5.174,0,0,1,2.953-.7h.813v-.448q0-1.17-1.008-1.17a.824.824,0,0,0-.937.926H12.051a2.36,2.36,0,0,1,1.043-1.99,4.383,4.383,0,0,1,2.66-.765,3.843,3.843,0,0,1,2.555.789,2.743,2.743,0,0,1,.961,2.164v3.742a3.832,3.832,0,0,0,.359,1.781V51Zm-1.648-1.719a1.469,1.469,0,0,0,.816-.211,1.322,1.322,0,0,0,.465-.477V47.242h-.766q-1.375,0-1.375,1.234a.754.754,0,0,0,.242.582A.876.876,0,0,0,15.348,49.281Zm13.227-2.437a5.152,5.152,0,0,1-.859,3.2,2.878,2.878,0,0,1-2.422,1.117,2.5,2.5,0,0,1-2.078-1.023L23.105,51H20.746V39h2.633v4.227a2.41,2.41,0,0,1,1.9-.836,2.879,2.879,0,0,1,2.438,1.133,5.179,5.179,0,0,1,.859,3.188Zm-2.641-.168a3.437,3.437,0,0,0-.324-1.735,1.093,1.093,0,0,0-1-.519,1.261,1.261,0,0,0-1.234.679v3.354a1.268,1.268,0,0,0,1.25.671,1.118,1.118,0,0,0,1.18-.9A6.5,6.5,0,0,0,25.934,46.676ZM34.5,51a2.973,2.973,0,0,1-.25-.758,2.448,2.448,0,0,1-2.031.914,3,3,0,0,1-2.031-.723,2.3,2.3,0,0,1-.836-1.816,2.364,2.364,0,0,1,1.016-2.078,5.174,5.174,0,0,1,2.953-.7h.813v-.448q0-1.17-1.008-1.17a.824.824,0,0,0-.937.926H29.551a2.36,2.36,0,0,1,1.043-1.99,4.383,4.383,0,0,1,2.66-.765,3.843,3.843,0,0,1,2.555.789,2.743,2.743,0,0,1,.961,2.164v3.742a3.832,3.832,0,0,0,.359,1.781V51Zm-1.648-1.719a1.469,1.469,0,0,0,.816-.211,1.322,1.322,0,0,0,.465-.477V47.242h-.766q-1.375,0-1.375,1.234a.754.754,0,0,0,.242.582A.876.876,0,0,0,32.848,49.281Zm8.211-6.734v8.742A3.068,3.068,0,0,1,40.2,53.6a3.3,3.3,0,0,1-2.375.813,5.607,5.607,0,0,1-1.242-.133V52.289a5.037,5.037,0,0,0,.742.07.963.963,0,0,0,1.094-1.086V42.547Zm-2.836-2.18a1.175,1.175,0,0,1,.406-.922,1.727,1.727,0,0,1,2.109,0,1.249,1.249,0,0,1,0,1.844,1.727,1.727,0,0,1-2.109,0A1.175,1.175,0,0,1,38.223,40.367ZM42.215,46.7a4.989,4.989,0,0,1,.492-2.254,3.52,3.52,0,0,1,1.414-1.52,4.259,4.259,0,0,1,2.164-.531,3.887,3.887,0,0,1,2.992,1.176,4.512,4.512,0,0,1,1.094,3.2v.094A4.378,4.378,0,0,1,49.273,50a3.9,3.9,0,0,1-2.973,1.16,3.942,3.942,0,0,1-2.9-1.082,4.232,4.232,0,0,1-1.18-2.934Zm2.633.164a3.145,3.145,0,0,0,.367,1.719,1.223,1.223,0,0,0,1.086.547q1.406,0,1.438-2.164V46.7q0-2.273-1.453-2.273-1.32,0-1.43,1.961ZM58.293,51H55.652V42.547h2.641ZM55.5,40.367a1.175,1.175,0,0,1,.406-.922,1.727,1.727,0,0,1,2.109,0,1.249,1.249,0,0,1,0,1.844,1.727,1.727,0,0,1-2.109,0A1.175,1.175,0,0,1,55.5,40.367Zm6.906,2.18.086.992A2.906,2.906,0,0,1,64.9,42.391a2.14,2.14,0,0,1,2.164,1.273,2.813,2.813,0,0,1,2.484-1.273q2.57,0,2.641,3.109V51H69.551V45.664a1.611,1.611,0,0,0-.219-.945.931.931,0,0,0-.8-.3,1.247,1.247,0,0,0-1.164.7l.008.109V51H64.738V45.68a1.694,1.694,0,0,0-.211-.961.928.928,0,0,0-.8-.3,1.263,1.263,0,0,0-1.156.7V51H59.934V42.547Zm19.141,4.289a5.1,5.1,0,0,1-.887,3.145,2.843,2.843,0,0,1-2.395,1.176,2.437,2.437,0,0,1-1.914-.852V54.25H73.715v-11.7h2.461l.078.781a2.437,2.437,0,0,1,1.992-.937,2.866,2.866,0,0,1,2.43,1.152,5.16,5.16,0,0,1,.867,3.168Zm-2.633-.164q0-2.25-1.312-2.25a1.239,1.239,0,0,0-1.25.672v3.328a1.279,1.279,0,0,0,1.266.7q1.258,0,1.3-2.172ZM85.48,51H82.84V39H85.48Zm4.4,0H87.238V42.547h2.641Zm-2.8-10.633a1.175,1.175,0,0,1,.406-.922,1.727,1.727,0,0,1,2.109,0,1.249,1.249,0,0,1,0,1.844,1.727,1.727,0,0,1-2.109,0A1.175,1.175,0,0,1,87.082,40.367Zm7.992,8.758a1.171,1.171,0,0,0,.859-.3,1.1,1.1,0,0,0,.3-.84H98.7a2.923,2.923,0,0,1-1,2.281,3.705,3.705,0,0,1-2.566.891A3.751,3.751,0,0,1,92.23,50a4.556,4.556,0,0,1-1.062-3.2v-.109a5.149,5.149,0,0,1,.473-2.262A3.441,3.441,0,0,1,93,42.918a4.065,4.065,0,0,1,2.109-.527,3.658,3.658,0,0,1,2.617.914,3.242,3.242,0,0,1,.969,2.477H96.23a1.445,1.445,0,0,0-.32-1.008,1.106,1.106,0,0,0-.859-.352q-1.023,0-1.2,1.3a9.206,9.206,0,0,0-.055,1.141,3.616,3.616,0,0,0,.3,1.766A1.055,1.055,0,0,0,95.074,49.125Zm9.5,1.875a2.973,2.973,0,0,1-.25-.758,2.448,2.448,0,0,1-2.031.914,3,3,0,0,1-2.031-.723,2.3,2.3,0,0,1-.836-1.816,2.364,2.364,0,0,1,1.016-2.078,5.174,5.174,0,0,1,2.953-.7h.813v-.448q0-1.17-1.008-1.17a.824.824,0,0,0-.937.926H99.629a2.36,2.36,0,0,1,1.043-1.99,4.383,4.383,0,0,1,2.66-.765,3.843,3.843,0,0,1,2.555.789,2.743,2.743,0,0,1,.961,2.164v3.742a3.832,3.832,0,0,0,.359,1.781V51Zm-1.648-1.719a1.469,1.469,0,0,0,.816-.211,1.322,1.322,0,0,0,.465-.477V47.242h-.766q-1.375,0-1.375,1.234a.754.754,0,0,0,.242.582A.876.876,0,0,0,102.926,49.281Zm5.047-2.57a5.164,5.164,0,0,1,.867-3.164,2.854,2.854,0,0,1,2.422-1.156,2.428,2.428,0,0,1,1.906.891V39h2.641V51h-2.367l-.133-.906a2.493,2.493,0,0,1-2.062,1.063A2.849,2.849,0,0,1,108.855,50,5.327,5.327,0,0,1,107.973,46.711Zm2.633.164q0,2.25,1.313,2.25a1.3,1.3,0,0,0,1.25-.734V45.172a1.261,1.261,0,0,0-1.234-.75q-1.219,0-1.32,1.969Zm6.367-.18a4.989,4.989,0,0,1,.492-2.254,3.52,3.52,0,0,1,1.414-1.52,4.259,4.259,0,0,1,2.164-.531,3.887,3.887,0,0,1,2.992,1.176,4.512,4.512,0,0,1,1.094,3.2v.094a4.378,4.378,0,0,1-1.1,3.137,3.9,3.9,0,0,1-2.973,1.16,3.942,3.942,0,0,1-2.9-1.082,4.232,4.232,0,0,1-1.18-2.934Zm2.633.164a3.145,3.145,0,0,0,.367,1.719,1.223,1.223,0,0,0,1.086.547q1.406,0,1.438-2.164V46.7q0-2.273-1.453-2.273-1.32,0-1.43,1.961Z" transform="translate(320.821 237.98)" fill="#fff"/>
                </g>
              </g>
            </g>
            <g id="Grupo_85162" data-name="Grupo 85162">
              <g transform="matrix(1, 0, 0, 1, -0.5, 97)" filter="url(#Trazado_147034)">
                <path id="Trazado_147034-2" data-name="Trazado 147034" d="M576.925,357.131a278.657,278.657,0,0,1,123.9,51.456,24.815,24.815,0,0,0,32.8-2.661l120.4-126.666a24.812,24.812,0,0,0-2.312-36.344A501.674,501.674,0,0,0,587.293,133.14a24.787,24.787,0,0,0-27.274,24.065L555.6,331.965A24.889,24.889,0,0,0,576.925,357.131Z" transform="translate(0.5 -97)" fill="url(#linear-gradient-11)"/>
              </g>
              <g id="Grupo_85161" data-name="Grupo 85161">
                <g transform="matrix(1, 0, 0, 1, -0.5, 97)" filter="url(#Trazado_147035)">
                  <path id="Trazado_147035-2" data-name="Trazado 147035" d="M700.057,354.821a325.371,325.371,0,0,0-84.611-35.138,19.493,19.493,0,0,1-14.579-19.392L603.33,202.8a19.521,19.521,0,0,1,23.32-18.7,456.293,456.293,0,0,1,161.309,67.037,19.522,19.522,0,0,1,3.246,29.695l-67.1,70.593A19.492,19.492,0,0,1,700.057,354.821Z" transform="translate(0.5 -97)" fill="url(#linear-gradient-12)"/>
                </g>
                <g id="Grupo_85160" data-name="Grupo 85160">
                  <path id="Trazado_159127" data-name="Trazado 159127" d="M31.667,11.977a1.127,1.127,0,0,0-.426-.937,5.292,5.292,0,0,0-1.5-.7,14.353,14.353,0,0,1-1.75-.7,3.314,3.314,0,0,1-2.211-2.984A2.676,2.676,0,0,1,26.335,5a3.562,3.562,0,0,1,1.559-1.125,6.065,6.065,0,0,1,2.266-.4,5.305,5.305,0,0,1,2.2.438A3.482,3.482,0,0,1,33.87,5.152,3.254,3.254,0,0,1,34.409,7H31.675a1.375,1.375,0,0,0-.426-1.078A1.66,1.66,0,0,0,30.1,5.539a1.872,1.872,0,0,0-1.16.324A.955.955,0,0,0,28.98,7.48a5.911,5.911,0,0,0,1.648.734,10.1,10.1,0,0,1,1.938.816,3.256,3.256,0,0,1,1.844,2.93A2.778,2.778,0,0,1,33.284,14.3a5,5,0,0,1-3.086.852,6.122,6.122,0,0,1-2.5-.5A3.775,3.775,0,0,1,26.007,13.3a3.542,3.542,0,0,1-.566-1.988h2.75a1.744,1.744,0,0,0,.473,1.348,2.234,2.234,0,0,0,1.535.434,1.765,1.765,0,0,0,1.074-.293A.967.967,0,0,0,31.667,11.977Zm8.117,3.18A4.345,4.345,0,0,1,36.636,14a4.006,4.006,0,0,1-1.2-3.02v-.219a5.191,5.191,0,0,1,.48-2.289,3.516,3.516,0,0,1,1.4-1.535A4.233,4.233,0,0,1,39.5,6.391,3.659,3.659,0,0,1,42.315,7.5a4.344,4.344,0,0,1,1.031,3.082V11.6H38.112a1.9,1.9,0,0,0,.617,1.117,1.836,1.836,0,0,0,1.234.406,2.366,2.366,0,0,0,1.953-.875l1.2,1.422a3.363,3.363,0,0,1-1.395,1.082A4.713,4.713,0,0,1,39.784,15.156Zm-.3-6.734q-1.156,0-1.375,1.531h2.656v-.2a1.3,1.3,0,0,0-.32-.98A1.275,1.275,0,0,0,39.487,8.422ZM44.1,10.711a5.708,5.708,0,0,1,.422-2.266,3.4,3.4,0,0,1,1.211-1.52,3.192,3.192,0,0,1,1.836-.535,2.538,2.538,0,0,1,2.063.891l.094-.734h2.391V14.68a3.564,3.564,0,0,1-.52,1.941,3.334,3.334,0,0,1-1.5,1.266,5.528,5.528,0,0,1-2.281.441,4.769,4.769,0,0,1-1.8-.352,3.251,3.251,0,0,1-1.332-.914l1.1-1.547a2.414,2.414,0,0,0,1.938.867,1.568,1.568,0,0,0,1.75-1.8V14.32a2.472,2.472,0,0,1-1.914.836,3.055,3.055,0,0,1-2.5-1.184A4.9,4.9,0,0,1,44.1,10.8Zm2.641.164a3.007,3.007,0,0,0,.391,1.645,1.232,1.232,0,0,0,1.094.605,1.4,1.4,0,0,0,1.242-.57V9a1.363,1.363,0,0,0-1.227-.578,1.241,1.241,0,0,0-1.1.629A3.429,3.429,0,0,0,46.737,10.875Zm11.906,3.211a2.714,2.714,0,0,1-2.258,1.07,2.662,2.662,0,0,1-2.105-.809,3.4,3.4,0,0,1-.715-2.324V6.547H56.2v5.492a.946.946,0,0,0,1.055,1.086,1.376,1.376,0,0,0,1.289-.648V6.547H61.19V15H58.722ZM57.706,3h2.781L58.315,5.453l-2.148,0ZM65.05,6.547l.086.992A2.867,2.867,0,0,1,67.55,6.391a2.412,2.412,0,0,1,1.973.789A3.757,3.757,0,0,1,70.2,9.555V15H67.558V9.664a1.426,1.426,0,0,0-.258-.941,1.193,1.193,0,0,0-.937-.3,1.256,1.256,0,0,0-1.148.609V15H62.581V6.547Zm14.68,8.609A4.345,4.345,0,0,1,76.581,14a4.006,4.006,0,0,1-1.2-3.02v-.219a5.191,5.191,0,0,1,.48-2.289,3.516,3.516,0,0,1,1.4-1.535,4.233,4.233,0,0,1,2.188-.543A3.659,3.659,0,0,1,82.261,7.5a4.344,4.344,0,0,1,1.031,3.082V11.6H78.058a1.9,1.9,0,0,0,.617,1.117,1.836,1.836,0,0,0,1.234.406,2.366,2.366,0,0,0,1.953-.875l1.2,1.422a3.363,3.363,0,0,1-1.395,1.082A4.713,4.713,0,0,1,79.73,15.156Zm-.3-6.734q-1.156,0-1.375,1.531h2.656v-.2a1.3,1.3,0,0,0-.32-.98A1.275,1.275,0,0,0,79.433,8.422ZM87.128,15H84.487V3h2.641ZM10.062,28.7a4.989,4.989,0,0,1,.492-2.254,3.52,3.52,0,0,1,1.414-1.52,4.259,4.259,0,0,1,2.164-.531,3.887,3.887,0,0,1,2.992,1.176,4.512,4.512,0,0,1,1.094,3.2v.094A4.378,4.378,0,0,1,17.12,32a3.9,3.9,0,0,1-2.973,1.16,3.942,3.942,0,0,1-2.9-1.082,4.232,4.232,0,0,1-1.18-2.934Zm2.633.164a3.145,3.145,0,0,0,.367,1.719,1.223,1.223,0,0,0,1.086.547q1.406,0,1.438-2.164V28.7q0-2.273-1.453-2.273-1.32,0-1.43,1.961Zm11.8-1.93-.867-.062a1.558,1.558,0,0,0-1.594.781V33H19.4V24.547h2.469l.086,1.086A2.039,2.039,0,0,1,23.8,24.391a2.567,2.567,0,0,1,.734.094ZM28.218,33H25.577V24.547h2.641Zm-2.8-10.633a1.175,1.175,0,0,1,.406-.922,1.727,1.727,0,0,1,2.109,0,1.249,1.249,0,0,1,0,1.844,1.727,1.727,0,0,1-2.109,0A1.175,1.175,0,0,1,25.421,22.367Zm4.109,6.344a5.708,5.708,0,0,1,.422-2.266,3.4,3.4,0,0,1,1.211-1.52A3.192,3.192,0,0,1,33,24.391a2.538,2.538,0,0,1,2.063.891l.094-.734h2.391V32.68a3.564,3.564,0,0,1-.52,1.941,3.334,3.334,0,0,1-1.5,1.266,5.528,5.528,0,0,1-2.281.441,4.769,4.769,0,0,1-1.8-.352,3.251,3.251,0,0,1-1.332-.914l1.1-1.547a2.414,2.414,0,0,0,1.938.867,1.568,1.568,0,0,0,1.75-1.8V32.32a2.472,2.472,0,0,1-1.914.836,3.055,3.055,0,0,1-2.5-1.184A4.9,4.9,0,0,1,29.53,28.8Zm2.641.164a3.007,3.007,0,0,0,.391,1.645,1.232,1.232,0,0,0,1.094.605,1.4,1.4,0,0,0,1.242-.57V27a1.363,1.363,0,0,0-1.227-.578,1.241,1.241,0,0,0-1.1.629A3.429,3.429,0,0,0,32.171,28.875Zm10.961,4.281A4.345,4.345,0,0,1,39.983,32a4.006,4.006,0,0,1-1.2-3.02v-.219a5.191,5.191,0,0,1,.48-2.289,3.516,3.516,0,0,1,1.4-1.535,4.233,4.233,0,0,1,2.188-.543A3.659,3.659,0,0,1,45.663,25.5a4.344,4.344,0,0,1,1.031,3.082V29.6H41.46a1.9,1.9,0,0,0,.617,1.117,1.836,1.836,0,0,0,1.234.406,2.366,2.366,0,0,0,1.953-.875l1.2,1.422a3.363,3.363,0,0,1-1.395,1.082A4.713,4.713,0,0,1,43.132,33.156Zm-.3-6.734q-1.156,0-1.375,1.531h2.656v-.2a1.3,1.3,0,0,0-.32-.98A1.275,1.275,0,0,0,42.835,26.422Zm7.336-1.875.086.992a2.867,2.867,0,0,1,2.414-1.148,2.412,2.412,0,0,1,1.973.789,3.757,3.757,0,0,1,.676,2.375V33H52.679V27.664a1.426,1.426,0,0,0-.258-.941,1.193,1.193,0,0,0-.937-.3,1.256,1.256,0,0,0-1.148.609V33H47.7V24.547Zm10.258,4.164a5.164,5.164,0,0,1,.867-3.164,2.854,2.854,0,0,1,2.422-1.156,2.428,2.428,0,0,1,1.906.891V21h2.641V33H65.9l-.133-.906A2.493,2.493,0,0,1,63.7,33.156,2.849,2.849,0,0,1,61.312,32,5.327,5.327,0,0,1,60.429,28.711Zm2.633.164q0,2.25,1.313,2.25a1.3,1.3,0,0,0,1.25-.734V27.172a1.261,1.261,0,0,0-1.234-.75q-1.219,0-1.32,1.969Zm10.789,4.281A4.345,4.345,0,0,1,70.7,32a4.006,4.006,0,0,1-1.2-3.02v-.219a5.191,5.191,0,0,1,.48-2.289,3.516,3.516,0,0,1,1.4-1.535,4.233,4.233,0,0,1,2.188-.543A3.659,3.659,0,0,1,76.382,25.5a4.344,4.344,0,0,1,1.031,3.082V29.6H72.179a1.9,1.9,0,0,0,.617,1.117,1.836,1.836,0,0,0,1.234.406,2.366,2.366,0,0,0,1.953-.875l1.2,1.422a3.363,3.363,0,0,1-1.395,1.082A4.713,4.713,0,0,1,73.851,33.156Zm-.3-6.734q-1.156,0-1.375,1.531h2.656v-.2a1.3,1.3,0,0,0-.32-.98A1.275,1.275,0,0,0,73.554,26.422ZM85.233,33H82.593V21h2.641Zm1.289-4.3a4.989,4.989,0,0,1,.492-2.254,3.52,3.52,0,0,1,1.414-1.52,4.259,4.259,0,0,1,2.164-.531,3.887,3.887,0,0,1,2.992,1.176,4.512,4.512,0,0,1,1.094,3.2v.094A4.378,4.378,0,0,1,93.581,32a3.9,3.9,0,0,1-2.973,1.16,3.942,3.942,0,0,1-2.9-1.082,4.232,4.232,0,0,1-1.18-2.934Zm2.633.164a3.145,3.145,0,0,0,.367,1.719,1.223,1.223,0,0,0,1.086.547q1.406,0,1.438-2.164V28.7q0-2.273-1.453-2.273-1.32,0-1.43,1.961Zm11.109,1.766a.608.608,0,0,0-.352-.539,5.348,5.348,0,0,0-1.336-.422,6.092,6.092,0,0,1-1.625-.574,2.722,2.722,0,0,1-.977-.863,2.061,2.061,0,0,1-.336-1.164,2.336,2.336,0,0,1,.961-1.918,3.958,3.958,0,0,1,2.516-.754,4.386,4.386,0,0,1,2.688.758,2.37,2.37,0,0,1,1.016,1.992h-2.641q0-1.016-1.07-1.016a1.061,1.061,0,0,0-.7.23.714.714,0,0,0-.281.574.655.655,0,0,0,.344.57,3.248,3.248,0,0,0,1.1.359,9.486,9.486,0,0,1,1.324.336,2.406,2.406,0,0,1,1.906,2.352,2.214,2.214,0,0,1-1.027,1.883,4.505,4.505,0,0,1-2.66.727,4.6,4.6,0,0,1-1.937-.391A3.24,3.24,0,0,1,95.851,31.7a2.406,2.406,0,0,1-.477-1.414h2.461a1.017,1.017,0,0,0,.391.855,1.607,1.607,0,0,0,.961.27A1.264,1.264,0,0,0,100,31.2.7.7,0,0,0,100.265,30.625ZM26.667,51V44.375H25.44V42.547h1.227v-.672a2.921,2.921,0,0,1,.852-2.242,3.364,3.364,0,0,1,2.391-.8A5.235,5.235,0,0,1,31.144,39l.008,1.938a2.4,2.4,0,0,0-.648-.07q-1.2,0-1.2,1.031v.648h1.648v1.828H29.308V51Zm4.883-4.3a4.989,4.989,0,0,1,.492-2.254,3.52,3.52,0,0,1,1.414-1.52,4.259,4.259,0,0,1,2.164-.531,3.887,3.887,0,0,1,2.992,1.176,4.512,4.512,0,0,1,1.094,3.2v.094A4.378,4.378,0,0,1,38.608,50a3.9,3.9,0,0,1-2.973,1.16,3.942,3.942,0,0,1-2.9-1.082,4.232,4.232,0,0,1-1.18-2.934Zm2.633.164a3.145,3.145,0,0,0,.367,1.719,1.223,1.223,0,0,0,1.086.547q1.406,0,1.438-2.164V46.7q0-2.273-1.453-2.273-1.32,0-1.43,1.961Zm9.1-4.312.086.992a2.867,2.867,0,0,1,2.414-1.148,2.412,2.412,0,0,1,1.973.789,3.757,3.757,0,0,1,.676,2.375V51H45.792V45.664a1.426,1.426,0,0,0-.258-.941,1.193,1.193,0,0,0-.937-.3,1.256,1.256,0,0,0-1.148.609V51H40.815V42.547Zm6.273,4.164a5.164,5.164,0,0,1,.867-3.164,2.854,2.854,0,0,1,2.422-1.156,2.428,2.428,0,0,1,1.906.891V39h2.641V51H55.026l-.133-.906a2.493,2.493,0,0,1-2.062,1.063A2.849,2.849,0,0,1,50.44,50,5.327,5.327,0,0,1,49.558,46.711Zm2.633.164q0,2.25,1.313,2.25a1.3,1.3,0,0,0,1.25-.734V45.172a1.261,1.261,0,0,0-1.234-.75q-1.219,0-1.32,1.969Zm6.367-.18a4.989,4.989,0,0,1,.492-2.254,3.52,3.52,0,0,1,1.414-1.52,4.259,4.259,0,0,1,2.164-.531,3.887,3.887,0,0,1,2.992,1.176,4.512,4.512,0,0,1,1.094,3.2v.094A4.378,4.378,0,0,1,65.616,50a3.9,3.9,0,0,1-2.973,1.16,3.942,3.942,0,0,1-2.9-1.082,4.232,4.232,0,0,1-1.18-2.934Zm2.633.164a3.145,3.145,0,0,0,.367,1.719,1.223,1.223,0,0,0,1.086.547q1.406,0,1.438-2.164V46.7q0-2.273-1.453-2.273-1.32,0-1.43,1.961ZM72.3,48.625a.608.608,0,0,0-.352-.539,5.347,5.347,0,0,0-1.336-.422,6.092,6.092,0,0,1-1.625-.574,2.722,2.722,0,0,1-.977-.863,2.061,2.061,0,0,1-.336-1.164,2.336,2.336,0,0,1,.961-1.918,3.958,3.958,0,0,1,2.516-.754,4.386,4.386,0,0,1,2.688.758,2.37,2.37,0,0,1,1.016,1.992H72.214q0-1.016-1.07-1.016a1.061,1.061,0,0,0-.7.23.714.714,0,0,0-.281.574.655.655,0,0,0,.344.57,3.248,3.248,0,0,0,1.1.359,9.486,9.486,0,0,1,1.324.336,2.406,2.406,0,0,1,1.906,2.352,2.214,2.214,0,0,1-1.027,1.883,4.505,4.505,0,0,1-2.66.727,4.6,4.6,0,0,1-1.937-.391A3.24,3.24,0,0,1,67.886,49.7a2.406,2.406,0,0,1-.477-1.414H69.87a1.017,1.017,0,0,0,.391.855,1.607,1.607,0,0,0,.961.27,1.264,1.264,0,0,0,.809-.219A.7.7,0,0,0,72.3,48.625Zm11.133-1.312,1.406-4.766h2.82l-3.445,9.867-.148.359a2.617,2.617,0,0,1-2.594,1.641,4.126,4.126,0,0,1-1.086-.156V52.383h.344a1.8,1.8,0,0,0,.848-.16.973.973,0,0,0,.434-.575l.211-.563-2.937-8.538H82.1ZM17.827,64.844a5.152,5.152,0,0,1-.859,3.2,2.878,2.878,0,0,1-2.422,1.117,2.5,2.5,0,0,1-2.078-1.023L12.358,69H10V57h2.633v4.227a2.41,2.41,0,0,1,1.9-.836,2.879,2.879,0,0,1,2.437,1.133,5.179,5.179,0,0,1,.859,3.188Zm-2.641-.168a3.437,3.437,0,0,0-.324-1.735,1.093,1.093,0,0,0-1-.519,1.261,1.261,0,0,0-1.234.679v3.354a1.268,1.268,0,0,0,1.25.671,1.118,1.118,0,0,0,1.18-.9A6.5,6.5,0,0,0,15.187,64.676Zm7.891,4.48A4.345,4.345,0,0,1,19.929,68a4.006,4.006,0,0,1-1.2-3.02v-.219a5.191,5.191,0,0,1,.48-2.289,3.516,3.516,0,0,1,1.4-1.535,4.233,4.233,0,0,1,2.188-.543A3.659,3.659,0,0,1,25.608,61.5a4.344,4.344,0,0,1,1.031,3.082V65.6H21.405a1.9,1.9,0,0,0,.617,1.117,1.836,1.836,0,0,0,1.234.406,2.366,2.366,0,0,0,1.953-.875l1.2,1.422a3.363,3.363,0,0,1-1.395,1.082A4.713,4.713,0,0,1,23.077,69.156Zm-.3-6.734q-1.156,0-1.375,1.531h2.656v-.2a1.3,1.3,0,0,0-.32-.98A1.275,1.275,0,0,0,22.78,62.422Zm7.336-1.875.086.992a2.867,2.867,0,0,1,2.414-1.148,2.412,2.412,0,0,1,1.973.789,3.757,3.757,0,0,1,.676,2.375V69H32.624V63.664a1.426,1.426,0,0,0-.258-.941,1.193,1.193,0,0,0-.938-.3,1.256,1.256,0,0,0-1.148.609V69H27.648V60.547Zm10.7,8.609A4.345,4.345,0,0,1,37.663,68a4.006,4.006,0,0,1-1.2-3.02v-.219a5.191,5.191,0,0,1,.48-2.289,3.516,3.516,0,0,1,1.4-1.535,4.233,4.233,0,0,1,2.188-.543A3.659,3.659,0,0,1,43.343,61.5a4.344,4.344,0,0,1,1.031,3.082V65.6H39.14a1.9,1.9,0,0,0,.617,1.117,1.836,1.836,0,0,0,1.234.406,2.366,2.366,0,0,0,1.953-.875l1.2,1.422a3.363,3.363,0,0,1-1.395,1.082A4.713,4.713,0,0,1,40.812,69.156Zm-.3-6.734q-1.156,0-1.375,1.531H41.8v-.2a1.3,1.3,0,0,0-.32-.98A1.275,1.275,0,0,0,40.515,62.422ZM46.046,69V62.375H44.819V60.547h1.227v-.281a3.228,3.228,0,0,1,1.109-2.586,4.433,4.433,0,0,1,2.883-.844,10.23,10.23,0,0,1,2.75.453l-.359,2.078-.437-.117a6.962,6.962,0,0,0-1.8-.227q-1.508,0-1.508,1.375v.148h1.656v1.828H48.687V69ZM54,69H51.351V60.547H54Zm5.18-1.875a1.171,1.171,0,0,0,.859-.3,1.1,1.1,0,0,0,.3-.84H62.8a2.922,2.922,0,0,1-1,2.281,3.705,3.705,0,0,1-2.566.891A3.751,3.751,0,0,1,56.335,68a4.556,4.556,0,0,1-1.062-3.2v-.109a5.149,5.149,0,0,1,.473-2.262,3.441,3.441,0,0,1,1.363-1.508,4.065,4.065,0,0,1,2.109-.527,3.658,3.658,0,0,1,2.617.914,3.242,3.242,0,0,1,.969,2.477H60.335a1.445,1.445,0,0,0-.32-1.008,1.106,1.106,0,0,0-.859-.352q-1.023,0-1.2,1.3a9.206,9.206,0,0,0-.055,1.141,3.616,3.616,0,0,0,.3,1.766A1.055,1.055,0,0,0,59.179,67.125ZM66.694,69H64.054V60.547h2.641ZM63.9,58.367a1.175,1.175,0,0,1,.406-.922,1.727,1.727,0,0,1,2.109,0,1.249,1.249,0,0,1,0,1.844,1.727,1.727,0,0,1-2.109,0A1.175,1.175,0,0,1,63.9,58.367ZM73.077,69a2.973,2.973,0,0,1-.25-.758,2.448,2.448,0,0,1-2.031.914,3,3,0,0,1-2.031-.723,2.3,2.3,0,0,1-.836-1.816,2.364,2.364,0,0,1,1.016-2.078,5.174,5.174,0,0,1,2.953-.7h.813v-.448q0-1.17-1.008-1.17a.824.824,0,0,0-.937.926H68.132a2.36,2.36,0,0,1,1.043-1.99,4.383,4.383,0,0,1,2.66-.765,3.843,3.843,0,0,1,2.555.789,2.743,2.743,0,0,1,.961,2.164v3.742a3.832,3.832,0,0,0,.359,1.781V69Zm-1.648-1.719a1.469,1.469,0,0,0,.816-.211,1.322,1.322,0,0,0,.465-.477V65.242h-.766q-1.375,0-1.375,1.234a.754.754,0,0,0,.242.582A.876.876,0,0,0,71.429,67.281ZM81.921,62.93l-.867-.062a1.558,1.558,0,0,0-1.594.781V69H76.827V60.547H79.3l.086,1.086a2.039,2.039,0,0,1,1.852-1.242,2.567,2.567,0,0,1,.734.094ZM85.648,69H83.007V60.547h2.641Zm-2.8-10.633a1.175,1.175,0,0,1,.406-.922,1.727,1.727,0,0,1,2.109,0,1.249,1.249,0,0,1,0,1.844,1.727,1.727,0,0,1-2.109,0A1.175,1.175,0,0,1,82.851,58.367ZM86.937,64.7a4.989,4.989,0,0,1,.492-2.254,3.52,3.52,0,0,1,1.414-1.52,4.259,4.259,0,0,1,2.164-.531A3.887,3.887,0,0,1,94,61.566a4.512,4.512,0,0,1,1.094,3.2v.094A4.378,4.378,0,0,1,94,68a3.9,3.9,0,0,1-2.973,1.16,3.942,3.942,0,0,1-2.9-1.082,4.232,4.232,0,0,1-1.18-2.934Zm2.633.164a3.145,3.145,0,0,0,.367,1.719,1.223,1.223,0,0,0,1.086.547q1.406,0,1.438-2.164V64.7q0-2.273-1.453-2.273-1.32,0-1.43,1.961Zm11.109,1.766a.608.608,0,0,0-.352-.539,5.348,5.348,0,0,0-1.336-.422,6.092,6.092,0,0,1-1.625-.574,2.722,2.722,0,0,1-.977-.863,2.061,2.061,0,0,1-.336-1.164,2.336,2.336,0,0,1,.961-1.918,3.958,3.958,0,0,1,2.516-.754,4.386,4.386,0,0,1,2.688.758,2.37,2.37,0,0,1,1.016,1.992h-2.641q0-1.016-1.07-1.016a1.061,1.061,0,0,0-.7.23.714.714,0,0,0-.281.574.655.655,0,0,0,.344.57,3.248,3.248,0,0,0,1.1.359,9.485,9.485,0,0,1,1.324.336,2.406,2.406,0,0,1,1.906,2.352,2.214,2.214,0,0,1-1.027,1.883,4.505,4.505,0,0,1-2.66.727,4.6,4.6,0,0,1-1.937-.391A3.24,3.24,0,0,1,96.265,67.7a2.406,2.406,0,0,1-.477-1.414h2.461a1.017,1.017,0,0,0,.391.855,1.607,1.607,0,0,0,.961.27,1.264,1.264,0,0,0,.809-.219A.7.7,0,0,0,100.679,66.625Z" transform="translate(633.367 236.439)" fill="#fff"/>
                </g>
              </g>
            </g>
            <g id="Grupo_85165" data-name="Grupo 85165">
              <g transform="matrix(1, 0, 0, 1, -0.5, 97)" filter="url(#Trazado_147036)">
                <path id="Trazado_147036-2" data-name="Trazado 147036" d="M760.5,468.3a278.9,278.9,0,0,1,51.448,123.871,24.889,24.889,0,0,0,25.164,21.312l174.771-4.416a24.786,24.786,0,0,0,24.066-27.272A501.737,501.737,0,0,0,926.2,317.369a24.813,24.813,0,0,0-36.346-2.315L763.163,435.482A24.831,24.831,0,0,0,760.5,468.3Z" transform="translate(0.5 -97)" fill="url(#linear-gradient-13)"/>
              </g>
              <g id="Grupo_85164" data-name="Grupo 85164">
                <g transform="matrix(1, 0, 0, 1, -0.5, 97)" filter="url(#Trazado_147037)">
                  <path id="Trazado_147037-2" data-name="Trazado 147037" d="M849.384,553.643a325.774,325.774,0,0,0-35.13-84.58,19.493,19.493,0,0,1,3.391-24.044l70.623-67.131a19.524,19.524,0,0,1,29.7,3.248,456.373,456.373,0,0,1,67.016,161.3,19.521,19.521,0,0,1-18.7,23.319l-97.51,2.462A19.492,19.492,0,0,1,849.384,553.643Z" transform="translate(0.5 -97)" fill="url(#linear-gradient-14)"/>
                </g>
                <g id="Grupo_85163" data-name="Grupo 85163">
                  <path id="Trazado_159128" data-name="Trazado 159128" d="M25.515,11.977a1.127,1.127,0,0,0-.426-.937,5.292,5.292,0,0,0-1.5-.7,14.353,14.353,0,0,1-1.75-.7,3.314,3.314,0,0,1-2.211-2.984A2.676,2.676,0,0,1,20.183,5a3.562,3.562,0,0,1,1.559-1.125,6.065,6.065,0,0,1,2.266-.4,5.305,5.305,0,0,1,2.2.438,3.482,3.482,0,0,1,1.512,1.246A3.254,3.254,0,0,1,28.257,7H25.523A1.375,1.375,0,0,0,25.1,5.922a1.66,1.66,0,0,0-1.152-.383,1.872,1.872,0,0,0-1.16.324.955.955,0,0,0,.043,1.617,5.911,5.911,0,0,0,1.648.734,10.1,10.1,0,0,1,1.938.816,3.256,3.256,0,0,1,1.844,2.93A2.778,2.778,0,0,1,27.132,14.3a5,5,0,0,1-3.086.852,6.122,6.122,0,0,1-2.5-.5A3.775,3.775,0,0,1,19.855,13.3a3.542,3.542,0,0,1-.566-1.988h2.75a1.744,1.744,0,0,0,.473,1.348,2.234,2.234,0,0,0,1.535.434A1.765,1.765,0,0,0,25.12,12.8.967.967,0,0,0,25.515,11.977Zm8.117,3.18A4.345,4.345,0,0,1,30.483,14a4.006,4.006,0,0,1-1.2-3.02v-.219a5.191,5.191,0,0,1,.48-2.289,3.516,3.516,0,0,1,1.4-1.535,4.233,4.233,0,0,1,2.188-.543A3.659,3.659,0,0,1,36.163,7.5a4.344,4.344,0,0,1,1.031,3.082V11.6H31.96a1.9,1.9,0,0,0,.617,1.117,1.836,1.836,0,0,0,1.234.406,2.366,2.366,0,0,0,1.953-.875l1.2,1.422a3.363,3.363,0,0,1-1.395,1.082A4.713,4.713,0,0,1,33.632,15.156Zm-.3-6.734q-1.156,0-1.375,1.531h2.656v-.2a1.3,1.3,0,0,0-.32-.98A1.275,1.275,0,0,0,33.335,8.422Zm4.609,2.289a5.708,5.708,0,0,1,.422-2.266,3.4,3.4,0,0,1,1.211-1.52,3.192,3.192,0,0,1,1.836-.535,2.538,2.538,0,0,1,2.063.891l.094-.734H45.96V14.68a3.564,3.564,0,0,1-.52,1.941,3.334,3.334,0,0,1-1.5,1.266,5.528,5.528,0,0,1-2.281.441,4.769,4.769,0,0,1-1.8-.352,3.251,3.251,0,0,1-1.332-.914l1.1-1.547a2.414,2.414,0,0,0,1.938.867,1.568,1.568,0,0,0,1.75-1.8V14.32a2.472,2.472,0,0,1-1.914.836,3.055,3.055,0,0,1-2.5-1.184,4.9,4.9,0,0,1-.953-3.168Zm2.641.164a3.007,3.007,0,0,0,.391,1.645,1.232,1.232,0,0,0,1.094.605,1.4,1.4,0,0,0,1.242-.57V9a1.363,1.363,0,0,0-1.227-.578,1.241,1.241,0,0,0-1.1.629A3.429,3.429,0,0,0,40.585,10.875Zm11.906,3.211a2.714,2.714,0,0,1-2.258,1.07,2.662,2.662,0,0,1-2.105-.809,3.4,3.4,0,0,1-.715-2.324V6.547h2.633v5.492A.946.946,0,0,0,51.1,13.125a1.376,1.376,0,0,0,1.289-.648V6.547h2.648V15H52.569ZM51.554,3h2.781L52.163,5.453l-2.148,0ZM58.9,6.547l.086.992A2.867,2.867,0,0,1,61.4,6.391a2.412,2.412,0,0,1,1.973.789,3.757,3.757,0,0,1,.676,2.375V15H61.405V9.664a1.426,1.426,0,0,0-.258-.941,1.193,1.193,0,0,0-.937-.3,1.256,1.256,0,0,0-1.148.609V15H56.429V6.547Zm15.016,6.078a.608.608,0,0,0-.352-.539,5.348,5.348,0,0,0-1.336-.422A6.092,6.092,0,0,1,70.6,11.09a2.722,2.722,0,0,1-.977-.863,2.061,2.061,0,0,1-.336-1.164,2.336,2.336,0,0,1,.961-1.918,3.958,3.958,0,0,1,2.516-.754,4.386,4.386,0,0,1,2.688.758,2.37,2.37,0,0,1,1.016,1.992H73.827q0-1.016-1.07-1.016a1.061,1.061,0,0,0-.7.23.714.714,0,0,0-.281.574.655.655,0,0,0,.344.57,3.248,3.248,0,0,0,1.1.359,9.486,9.486,0,0,1,1.324.336,2.406,2.406,0,0,1,1.906,2.352,2.214,2.214,0,0,1-1.027,1.883,4.505,4.505,0,0,1-2.66.727,4.6,4.6,0,0,1-1.937-.391A3.24,3.24,0,0,1,69.5,13.7a2.406,2.406,0,0,1-.477-1.414h2.461a1.017,1.017,0,0,0,.391.855,1.607,1.607,0,0,0,.961.27,1.264,1.264,0,0,0,.809-.219A.7.7,0,0,0,73.913,12.625Zm8.8,1.461a2.714,2.714,0,0,1-2.258,1.07,2.662,2.662,0,0,1-2.105-.809,3.4,3.4,0,0,1-.715-2.324V6.547h2.633v5.492a.946.946,0,0,0,1.055,1.086,1.376,1.376,0,0,0,1.289-.648V6.547h2.648V15H82.8Zm8.414-1.461a.608.608,0,0,0-.352-.539,5.348,5.348,0,0,0-1.336-.422,6.092,6.092,0,0,1-1.625-.574,2.722,2.722,0,0,1-.977-.863,2.061,2.061,0,0,1-.336-1.164,2.336,2.336,0,0,1,.961-1.918,3.958,3.958,0,0,1,2.516-.754,4.386,4.386,0,0,1,2.688.758,2.37,2.37,0,0,1,1.016,1.992H91.046q0-1.016-1.07-1.016a1.061,1.061,0,0,0-.7.23A.714.714,0,0,0,89,8.93a.655.655,0,0,0,.344.57,3.248,3.248,0,0,0,1.1.359,9.486,9.486,0,0,1,1.324.336,2.406,2.406,0,0,1,1.906,2.352,2.214,2.214,0,0,1-1.027,1.883,4.505,4.505,0,0,1-2.66.727,4.6,4.6,0,0,1-1.937-.391A3.24,3.24,0,0,1,86.718,13.7a2.406,2.406,0,0,1-.477-1.414H88.7a1.017,1.017,0,0,0,.391.855,1.607,1.607,0,0,0,.961.27,1.264,1.264,0,0,0,.809-.219A.7.7,0,0,0,91.132,12.625ZM23.761,28.7a4.989,4.989,0,0,1,.492-2.254,3.52,3.52,0,0,1,1.414-1.52,4.259,4.259,0,0,1,2.164-.531,3.887,3.887,0,0,1,2.992,1.176,4.512,4.512,0,0,1,1.094,3.2v.094A4.378,4.378,0,0,1,30.819,32a3.9,3.9,0,0,1-2.973,1.16,3.942,3.942,0,0,1-2.9-1.082,4.232,4.232,0,0,1-1.18-2.934Zm2.633.164a3.145,3.145,0,0,0,.367,1.719,1.223,1.223,0,0,0,1.086.547q1.406,0,1.438-2.164V28.7q0-2.273-1.453-2.273-1.32,0-1.43,1.961Zm14.531-.016a5.152,5.152,0,0,1-.859,3.2,2.878,2.878,0,0,1-2.422,1.117,2.5,2.5,0,0,1-2.078-1.023L35.456,33H33.1V21H35.73v4.227a2.41,2.41,0,0,1,1.9-.836,2.879,2.879,0,0,1,2.438,1.133,5.179,5.179,0,0,1,.859,3.188Zm-2.641-.168a3.437,3.437,0,0,0-.324-1.735,1.093,1.093,0,0,0-1-.519,1.261,1.261,0,0,0-1.234.679v3.354a1.268,1.268,0,0,0,1.25.671,1.118,1.118,0,0,0,1.18-.9A6.5,6.5,0,0,0,38.284,28.676Zm6.633-4.129v8.742a3.068,3.068,0,0,1-.859,2.313,3.3,3.3,0,0,1-2.375.813,5.607,5.607,0,0,1-1.242-.133V34.289a5.037,5.037,0,0,0,.742.07.963.963,0,0,0,1.094-1.086V24.547Zm-2.836-2.18a1.175,1.175,0,0,1,.406-.922,1.727,1.727,0,0,1,2.109,0,1.249,1.249,0,0,1,0,1.844,1.727,1.727,0,0,1-2.109,0A1.175,1.175,0,0,1,42.081,22.367ZM50.5,33.156A4.345,4.345,0,0,1,47.347,32a4.006,4.006,0,0,1-1.2-3.02v-.219a5.191,5.191,0,0,1,.48-2.289,3.516,3.516,0,0,1,1.4-1.535,4.233,4.233,0,0,1,2.188-.543A3.659,3.659,0,0,1,53.026,25.5a4.344,4.344,0,0,1,1.031,3.082V29.6H48.823a1.9,1.9,0,0,0,.617,1.117,1.836,1.836,0,0,0,1.234.406,2.366,2.366,0,0,0,1.953-.875l1.2,1.422a3.363,3.363,0,0,1-1.395,1.082A4.713,4.713,0,0,1,50.5,33.156Zm-.3-6.734q-1.156,0-1.375,1.531H51.48v-.2a1.3,1.3,0,0,0-.32-.98A1.275,1.275,0,0,0,50.2,26.422Zm7.984-3.977v2.1h1.391v1.828H58.183v3.867a.987.987,0,0,0,.172.664.922.922,0,0,0,.68.188,3.862,3.862,0,0,0,.656-.047V32.93a4.859,4.859,0,0,1-1.484.227,2.758,2.758,0,0,1-2.008-.641,2.626,2.626,0,0,1-.648-1.945v-4.2H54.472V24.547H55.55v-2.1ZM63.386,33H60.745V24.547h2.641Zm-2.8-10.633A1.175,1.175,0,0,1,61,21.445a1.727,1.727,0,0,1,2.109,0,1.249,1.249,0,0,1,0,1.844,1.727,1.727,0,0,1-2.109,0A1.175,1.175,0,0,1,60.589,22.367Zm7.789,7.5,1.336-5.32h2.773L69.73,33H67.042l-2.758-8.453h2.781ZM72.823,28.7a4.989,4.989,0,0,1,.492-2.254,3.52,3.52,0,0,1,1.414-1.52,4.259,4.259,0,0,1,2.164-.531,3.887,3.887,0,0,1,2.992,1.176,4.512,4.512,0,0,1,1.094,3.2v.094A4.378,4.378,0,0,1,79.882,32a3.9,3.9,0,0,1-2.973,1.16,3.942,3.942,0,0,1-2.9-1.082,4.232,4.232,0,0,1-1.18-2.934Zm2.633.164a3.145,3.145,0,0,0,.367,1.719,1.223,1.223,0,0,0,1.086.547q1.406,0,1.438-2.164V28.7q0-2.273-1.453-2.273-1.32,0-1.43,1.961Zm11.109,1.766a.608.608,0,0,0-.352-.539,5.348,5.348,0,0,0-1.336-.422,6.092,6.092,0,0,1-1.625-.574,2.722,2.722,0,0,1-.977-.863,2.061,2.061,0,0,1-.336-1.164,2.336,2.336,0,0,1,.961-1.918,3.958,3.958,0,0,1,2.516-.754,4.386,4.386,0,0,1,2.688.758,2.37,2.37,0,0,1,1.016,1.992H86.48q0-1.016-1.07-1.016a1.061,1.061,0,0,0-.7.23.714.714,0,0,0-.281.574.655.655,0,0,0,.344.57,3.248,3.248,0,0,0,1.1.359A9.486,9.486,0,0,1,87.2,28.2,2.406,2.406,0,0,1,89.1,30.547a2.214,2.214,0,0,1-1.027,1.883,4.505,4.505,0,0,1-2.66.727,4.6,4.6,0,0,1-1.937-.391A3.24,3.24,0,0,1,82.151,31.7a2.406,2.406,0,0,1-.477-1.414h2.461a1.017,1.017,0,0,0,.391.855,1.607,1.607,0,0,0,.961.27A1.264,1.264,0,0,0,86.3,31.2.7.7,0,0,0,86.565,30.625Z" transform="translate(841.989 470.335)" fill="#fff"/>
                </g>
              </g>
            </g>
          </g>
        </g>
        <g id="Grupo_85187" data-name="Grupo 85187">
          <g transform="matrix(1, 0, 0, 1, -0.5, 97)" filter="url(#Trazado_147038)">
            <path id="Trazado_147038-2" data-name="Trazado 147038" d="M1026.13,475.936a43.886,43.886,0,1,1,16.725-3.318A43.734,43.734,0,0,1,1026.13,475.936Z" transform="translate(0.5 -97)" fill="url(#linear-gradient-15)"/>
          </g>
          <g transform="matrix(1, 0, 0, 1, -0.5, 97)" filter="url(#Trazado_147039)">
            <path id="Trazado_147039-2" data-name="Trazado 147039" d="M332.06,187.121a43.882,43.882,0,1,1,16.719-3.314A43.749,43.749,0,0,1,332.06,187.121Z" transform="translate(0.5 -97)" fill="url(#linear-gradient-16)"/>
          </g>
          <g id="Grupo_85169" data-name="Grupo 85169">
            <g transform="matrix(1, 0, 0, 1, -0.5, 97)" filter="url(#Trazado_147040)">
              <path id="Trazado_147040-2" data-name="Trazado 147040" d="M43.894,474.341a43.882,43.882,0,1,1,40.513-27.017A43.64,43.64,0,0,1,43.894,474.341Z" transform="translate(0.5 -97)" fill="url(#linear-gradient-17)"/>
            </g>
            <g id="Grupo_85168" data-name="Grupo 85168">
              <path id="Trazado_147041" data-name="Trazado 147041" d="M43.9,453.995a23.566,23.566,0,1,1,8.967-1.788A23.454,23.454,0,0,1,43.9,453.995Zm.023-41.182a17.642,17.642,0,1,0,6.758,1.353A17.678,17.678,0,0,0,43.924,412.813Z" fill="url(#linear-gradient-18)"/>
            </g>
          </g>
          <g id="Grupo_85172" data-name="Grupo 85172">
            <g id="Grupo_85171" data-name="Grupo 85171">
              <g id="Grupo_85170" data-name="Grupo 85170">
                <path id="Trazado_147042" data-name="Trazado 147042" d="M1026.124,455.588a23.577,23.577,0,1,1,8.967-1.788h0A23.464,23.464,0,0,1,1026.124,455.588Zm0-41.19a17.653,17.653,0,1,0,6.726,33.973h0a17.657,17.657,0,0,0-6.726-33.973Z" fill="url(#linear-gradient-19)"/>
              </g>
            </g>
          </g>
          <g id="Grupo_85176" data-name="Grupo 85176">
            <g transform="matrix(1, 0, 0, 1, -0.5, 97)" filter="url(#Trazado_147043)">
              <path id="Trazado_147043-2" data-name="Trazado 147043" d="M738.9,187.781a43.88,43.88,0,1,1,40.511-27.017A43.683,43.683,0,0,1,738.9,187.781Z" transform="translate(0.5 -97)" fill="url(#linear-gradient-20)"/>
            </g>
            <g id="Grupo_85175" data-name="Grupo 85175">
              <g id="Grupo_85174" data-name="Grupo 85174">
                <g id="Grupo_85173" data-name="Grupo 85173">
                  <path id="Trazado_147044" data-name="Trazado 147044" d="M738.875,167.422a23.521,23.521,0,1,1,21.747-14.485h0A23.558,23.558,0,0,1,738.875,167.422Zm.056-41.169A17.649,17.649,0,1,0,755.2,150.682h0a17.651,17.651,0,0,0-16.271-24.429Z" fill="url(#linear-gradient-21)"/>
                </g>
              </g>
            </g>
          </g>
          <g id="Grupo_85177" data-name="Grupo 85177">
            <path id="Trazado_147045" data-name="Trazado 147045" d="M332.054,166.774a23.526,23.526,0,1,1,21.747-32.5h0a23.548,23.548,0,0,1-21.747,32.5Zm-.023-41.182a17.649,17.649,0,1,0,16.341,10.922h0A17.681,17.681,0,0,0,332.031,125.592Z" fill="url(#linear-gradient-22)"/>
          </g>
          <g id="Grupo_85186" data-name="Grupo 85186">
            <g id="Grupo_85178" data-name="Grupo 85178">
              <path id="Trazado_147046" data-name="Trazado 147046" d="M51.489,414.581l-2.843-1.263c.805-1.815,1.634-3.6,2.485-5.394A535.922,535.922,0,0,1,309.462,150.24c1.763-.825,3.553-1.652,5.361-2.455l1.263,2.843c-1.79.795-3.559,1.613-5.306,2.431A532.823,532.823,0,0,0,53.943,409.253C53.1,411.026,52.285,412.793,51.489,414.581Z" fill="url(#linear-gradient-23)"/>
            </g>
            <g id="Grupo_85179" data-name="Grupo 85179">
              <path id="Trazado_147047" data-name="Trazado 147047" d="M1058.454,587.193h-9.735V584.08h9.735a4.155,4.155,0,0,0,4.143-4.557,529.109,529.109,0,0,0-28.587-125.354c-.664-1.856-1.324-3.687-2.031-5.495l2.9-1.133c.717,1.838,1.39,3.7,2.06,5.578a532.144,532.144,0,0,1,28.754,126.091,7.268,7.268,0,0,1-7.238,7.983Z" fill="url(#linear-gradient-24)"/>
            </g>
            <g id="Grupo_85180" data-name="Grupo 85180">
              <path id="Trazado_147048" data-name="Trazado 147048" d="M20.641,587.193H10.907a7.265,7.265,0,0,1-7.236-7.979A529.587,529.587,0,0,1,33.027,451.463c.643-1.843,1.337-3.7,2.056-5.544l2.9,1.133c-.7,1.806-1.387,3.631-2.025,5.457A526.6,526.6,0,0,0,6.765,579.527a4.155,4.155,0,0,0,4.142,4.553h9.734Z" fill="url(#linear-gradient-25)"/>
            </g>
            <g id="Grupo_85181" data-name="Grupo 85181">
              <path id="Trazado_147049" data-name="Trazado 147049" d="M722.38,137.831c-1.8-.7-3.631-1.386-5.456-2.025a532.861,532.861,0,0,0-362.847-.6c-1.869.645-3.694,1.326-5.495,2.031l-1.134-2.9c1.841-.719,3.705-1.413,5.591-2.067a535.98,535.98,0,0,1,364.933.61c1.841.643,3.7,1.337,5.541,2.056Z" fill="url(#linear-gradient-26)"/>
            </g>
            <g id="Grupo_85182" data-name="Grupo 85182">
              <path id="Trazado_147050" data-name="Trazado 147050" d="M1018.583,416.159q-1.191-2.686-2.45-5.346a532.563,532.563,0,0,0-255.977-257c-1.775-.844-3.546-1.664-5.339-2.483l1.294-2.83c1.8.827,3.589,1.652,5.376,2.5a535.664,535.664,0,0,1,257.463,258.49c.844,1.78,1.673,3.593,2.476,5.4Z" fill="url(#linear-gradient-27)"/>
            </g>
            <g id="Grupo_85183" data-name="Grupo 85183">
              <circle id="Elipse_4102" data-name="Elipse 4102" cx="5.108" cy="5.108" r="5.108" transform="translate(906.196 253.005)" fill="url(#linear-gradient-28)"/>
            </g>
            <g id="Grupo_85184" data-name="Grupo 85184">
              <path id="Trazado_147051" data-name="Trazado 147051" d="M539.79,102.111A5.108,5.108,0,1,1,534.682,97,5.108,5.108,0,0,1,539.79,102.111Z" fill="url(#linear-gradient-29)"/>
            </g>
            <g id="Grupo_85185" data-name="Grupo 85185">
              <circle id="Elipse_4103" data-name="Elipse 4103" cx="5.108" cy="5.108" r="5.108" transform="translate(152.952 253.005)" fill="url(#linear-gradient-30)"/>
            </g>
          </g>
          <path id="Trazado_147052" data-name="Trazado 147052" d="M47.95,420.731a10.539,10.539,0,1,1-13.779,5.681A10.538,10.538,0,0,1,47.95,420.731Z" fill="url(#linear-gradient-31)"/>
          <path id="Trazado_147053" data-name="Trazado 147053" d="M341.8,139.224a10.539,10.539,0,1,1-13.76-5.726A10.539,10.539,0,0,1,341.8,139.224Z" fill="url(#linear-gradient-32)"/>
          <path id="Trazado_147054" data-name="Trazado 147054" d="M748.636,147.951a10.539,10.539,0,1,1-5.681-13.78A10.539,10.539,0,0,1,748.636,147.951Z" fill="url(#linear-gradient-33)"/>
          <path id="Trazado_147055" data-name="Trazado 147055" d="M1030.143,441.8a10.539,10.539,0,1,1,5.727-13.761A10.538,10.538,0,0,1,1030.143,441.8Z" fill="url(#linear-gradient-34)"/>
        </g>
      </g>
    </g>
  </g>
</svg>
