<svg xmlns="http://www.w3.org/2000/svg" width="112.194" height="120" viewBox="0 0 112.194 120">
  <g id="Group_98542" data-name="Group 98542" transform="translate(-126.556 -204)">
    <path id="Path_153779" data-name="Path 153779" d="M158.26,324c-1.518-.566-3.046-1.223-3.727-2.787a16.371,16.371,0,0,1-.817-3.473,7.945,7.945,0,0,1-.014-1.427c-1.652-.082-3.2-.093-4.738-.246a24.88,24.88,0,0,1-22.388-25.614c.422-10.14,5.438-17.437,14.483-21.963a1.576,1.576,0,0,0,1.022-1.679c-.031-9.764-.02-19.527-.019-29.291,0-.39-.019-.783.015-1.171a1.733,1.733,0,0,1,3.43-.229,5.471,5.471,0,0,1,.068,1.281q0,13.942,0,27.885v1.547a25.141,25.141,0,0,1,27.474,11.458,19.019,19.019,0,0,1,2.881-.484c4.491-.048,8.983-.022,13.475-.021.351,0,.7-.006,1.054.018a1.658,1.658,0,0,1,1.674,1.628,1.731,1.731,0,0,1-1.594,1.843,11.074,11.074,0,0,1-1.4.025H174.69c3.7,10.191,2.052,19.268-5.152,27.429.409.036.732.09,1.054.09q25.075.006,50.15,0c2.186,0,2.869-.688,2.869-2.876q0-47.745,0-95.49c0-2.264-.676-2.94-2.928-2.94H148.5c-2.287,0-2.924.634-2.925,2.912q0,9.08-.007,18.161a4.75,4.75,0,0,1-.142,1.384,1.582,1.582,0,0,1-1.8,1.178,1.632,1.632,0,0,1-1.543-1.507,7.619,7.619,0,0,1-.027-1.053c0-5.858.108-11.719-.042-17.574-.09-3.5,1.17-5.862,4.518-7.017h76.176c3.432,1.262,4.686,3.812,4.428,7.328-.1,1.39-.017,2.793-.017,4.355,2.179,0,4.239-.052,6.3.013a5.409,5.409,0,0,1,5.1,4.1,10.618,10.618,0,0,1,.21,2.556q.015,46.929.007,93.858c0,.859.03,1.722-.042,2.576a5.417,5.417,0,0,1-3.546,4.811c-.318.135-.637.268-.955.4Zm68.868-104.807v79.192c0,2.695.024,5.39-.008,8.084a5.433,5.433,0,0,1-3.541,5.417,8.609,8.609,0,0,1-3.093.436q-27.183.037-54.366.032a4.608,4.608,0,0,0-1.674.331c-2.163.87-4.306,1.79-6.45,2.706-.266.113-.628.254-.722.477a3.126,3.126,0,0,0,3.042,4.617h71.824c.313,0,.626.013.937-.006a2.089,2.089,0,0,0,2.129-2.048c.034-.388.023-.78.023-1.171q0-47.45,0-94.9c0-.39.011-.783-.026-1.17a1.969,1.969,0,0,0-2.039-1.983C231.215,219.156,229.265,219.193,227.127,219.193Zm-54.039,71.97a21.519,21.519,0,1,0-21.5,21.567A21.538,21.538,0,0,0,173.088,291.163Z" transform="translate(0)" fill="#fe502d"/>
    <path id="Path_153781" data-name="Path 153781" d="M276.493,240.057c-3.122,0-6.244.011-9.366,0-2.549-.012-3.962-1.441-3.978-4-.008-1.209-.022-2.42.006-3.629a3.559,3.559,0,0,1,3.532-3.625q9.834-.068,19.669,0a3.557,3.557,0,0,1,3.56,3.6c.033,1.365.035,2.732,0,4.1a3.514,3.514,0,0,1-3.586,3.545c-3.278.039-6.556.01-9.834.01Zm-9.781-3.593h19.606v-4.087H266.711Z" transform="translate(-93.9 -17.03)" fill="#fe502d"/>
    <path id="Path_153782" data-name="Path 153782" d="M336.768,477.307c2.418,0,4.835-.014,7.253,0,2.71.018,4.116,1.412,4.147,4.093.013,1.17.033,2.341-.012,3.509a3.5,3.5,0,0,1-3.49,3.657q-7.952.116-15.908,0a3.5,3.5,0,0,1-3.485-3.654c-.033-1.286-.031-2.574,0-3.86a3.577,3.577,0,0,1,3.776-3.733C331.62,477.27,334.195,477.308,336.768,477.307Zm-7.927,7.711h15.722v-4.1H328.841Z" transform="translate(-136.601 -187.89)" fill="#fe502d"/>
    <path id="Path_153783" data-name="Path 153783" d="M294.8,290.983c5.7,0,11.405-.032,17.106.043a2.738,2.738,0,0,1,1.917.977,1.656,1.656,0,0,1-1.287,2.458,6.269,6.269,0,0,1-1.052.035q-16.638,0-33.277,0a6.143,6.143,0,0,1-1.052-.031,1.744,1.744,0,0,1,.069-3.47,7.54,7.54,0,0,1,.937-.013Z" transform="translate(-102.479 -59.795)" fill="#fe502d"/>
    <path id="Path_153784" data-name="Path 153784" d="M294.8,353.147q8.553,0,17.106-.005c1.061,0,1.848.336,2.045,1.476a1.684,1.684,0,0,1-1.389,1.982,5.812,5.812,0,0,1-1.166.06q-16.637,0-33.274,0c-.2,0-.391.007-.586,0-1.227-.062-2.025-.811-1.974-1.851.049-1.01.795-1.653,2.015-1.656Q286.192,353.136,294.8,353.147Z" transform="translate(-102.443 -102.535)" fill="#fe502d"/>
    <path id="Path_153785" data-name="Path 153785" d="M294.721,415.25q8.317,0,16.634,0a7.285,7.285,0,0,1,1.284.065,1.715,1.715,0,0,1,.182,3.313,5.074,5.074,0,0,1-1.388.131q-16.635.01-33.269,0a5.254,5.254,0,0,1-1.275-.108,1.712,1.712,0,0,1,.147-3.343,8.335,8.335,0,0,1,1.285-.058Q286.52,415.247,294.721,415.25Z" transform="translate(-102.477 -145.234)" fill="#fe502d"/>
    <path id="Path_153786" data-name="Path 153786" d="M231.368,302.231c-.663,0-1.327.019-1.988,0a3.627,3.627,0,0,1-3.615-3.552c-.05-1.363-.046-2.73,0-4.093a3.631,3.631,0,0,1,3.68-3.608c1.325-.023,2.652-.027,3.977,0a3.567,3.567,0,0,1,3.591,3.552c.038,1.325.031,2.652.007,3.977a3.6,3.6,0,0,1-3.778,3.729c-.623.013-1.248,0-1.872,0Zm2.073-3.567v-4.1h-4.086v4.1Z" transform="translate(-68.181 -59.782)" fill="#fe502d"/>
    <path id="Path_153787" data-name="Path 153787" d="M237.014,358.678c0,.7.018,1.4,0,2.105a3.6,3.6,0,0,1-3.555,3.6c-1.363.047-2.73.045-4.093,0a3.633,3.633,0,0,1-3.6-3.574c-.048-1.4-.057-2.809.006-4.21a3.588,3.588,0,0,1,3.569-3.464c1.325-.035,2.652-.027,3.977,0a3.573,3.573,0,0,1,3.7,3.673C237.028,357.43,237.015,358.054,237.014,358.678Zm-3.614,2.154v-4.117h-4.057v4.117Z" transform="translate(-68.174 -102.516)" fill="#fe502d"/>
    <path id="Path_153788" data-name="Path 153788" d="M285.071,315.8c2.458,0,4.917-.009,7.375,0,1.346.007,2.163.705,2.142,1.787-.02,1.047-.8,1.717-2.082,1.719q-7.434.017-14.868,0c-1.286,0-2.062-.67-2.083-1.717-.021-1.083.795-1.782,2.14-1.789C280.154,315.794,282.613,315.8,285.071,315.8Z" transform="translate(-102.437 -76.862)" fill="#fe502d"/>
    <path id="Path_153789" data-name="Path 153789" d="M285.075,381.484c-2.419,0-4.839.006-7.258,0-1.445-.005-2.28-.675-2.263-1.788.016-1.078.817-1.721,2.2-1.722q7.317-.01,14.633,0c1.382,0,2.182.638,2.2,1.714.023,1.113-.814,1.791-2.255,1.8C289.913,381.49,287.494,381.484,285.075,381.484Z" transform="translate(-102.435 -119.602)" fill="#fe502d"/>
    <path id="Path_153790" data-name="Path 153790" d="M151.277,444.867A17.3,17.3,0,0,1,176.5,429.552q.416.215.818.456c1.176.7,1.526,1.669.953,2.61-.557.915-1.46.971-2.672.484a24.582,24.582,0,0,0-5.388-1.795,13.724,13.724,0,0,0-3.461,27.228,13.151,13.151,0,0,0,13.158-5.908c3.134-4.579,3.228-9.475.692-14.413-.089-.173-.2-.338-.276-.516a1.747,1.747,0,0,1,.742-2.405,1.692,1.692,0,0,1,2.315.728,16.455,16.455,0,0,1,2.385,7.156c.863,9.3-5.83,17.819-14.783,18.848-9.814,1.127-18.269-5.32-19.574-14.938C151.31,446.354,151.319,445.607,151.277,444.867Z" transform="translate(-16.996 -153.731)" fill="#fe502d"/>
    <path id="Path_153791" data-name="Path 153791" d="M199.867,453.668a1.829,1.829,0,0,1-1.558,1.979,1.754,1.754,0,0,1-1.9-1.516,6.509,6.509,0,0,0-.187-.916,2.028,2.028,0,0,0-2.182-1.41,2.1,2.1,0,0,0-1.9,1.913,2.072,2.072,0,0,0,1.542,2.2,11.44,11.44,0,0,0,1.274.179,5.6,5.6,0,0,1,2.069,10.438c-.582.329-1.032.6-1.133,1.4a1.527,1.527,0,0,1-1.7,1.3,1.546,1.546,0,0,1-1.628-1.4c-.064-.733-.452-.934-.986-1.234a5.441,5.441,0,0,1-2.9-4.153c-.2-1.409.334-2.351,1.433-2.52,1.032-.158,1.733.5,2.024,1.908a2.109,2.109,0,0,0,2.476,1.895,2.06,2.06,0,0,0,1.673-2.518,1.98,1.98,0,0,0-1.768-1.625,16.29,16.29,0,0,1-1.844-.292,5.484,5.484,0,0,1-4.026-4.933,5.369,5.369,0,0,1,2.862-5.353c.546-.32.993-.529,1.065-1.314a1.707,1.707,0,0,1,3.337-.028,1.628,1.628,0,0,0,1.05,1.323A5.473,5.473,0,0,1,199.867,453.668Z" transform="translate(-42.668 -166.607)" fill="#fe502d"/>
  </g>
</svg>
