<svg xmlns="http://www.w3.org/2000/svg" width="474.802" height="351.26" viewBox="0 0 474.802 351.26">
  <g id="Group_99947" data-name="Group 99947" transform="translate(-552.485 -608.803)">
    <g id="Group_99960" data-name="Group 99960" transform="translate(552.485 608.803)">
      <g id="Group_99957" data-name="Group 99957" transform="translate(50.382 0)">
        <g id="Group_99956" data-name="Group 99956" transform="translate(0 2.716)">
          <rect id="Rectangle_37434" data-name="Rectangle 37434" width="424.42" height="252.608" rx="6" fill="#d2e4ff"/>
          <g id="Group_99947-2" data-name="Group 99947" transform="translate(30.681 94.061)">
            <rect id="Rectangle_37435" data-name="Rectangle 37435" width="218.801" height="147.833" transform="translate(218.801 147.833) rotate(180)" fill="#f3f9ff"/>
            <path id="Path_155940" data-name="Path 155940" d="M988.755,1064.461s-37.358-4.655-60.187,16.376-65.355,1.864-82.478,0c-29.771-3.24-53.11,6.5-60.032,17.207v32.118h202.7Z" transform="translate(-778.975 -989.008)" fill="#a6c7f9"/>
            <rect id="Rectangle_37436" data-name="Rectangle 37436" width="1.565" height="50.155" transform="translate(180.823 73.916) rotate(180)" fill="#a6c7f9"/>
            <rect id="Rectangle_37437" data-name="Rectangle 37437" width="1.565" height="50.155" transform="translate(119.388 95.438) rotate(180)" fill="#a6c7f9"/>
            <rect id="Rectangle_37438" data-name="Rectangle 37438" width="1.565" height="50.155" transform="translate(55.997 84.09) rotate(180)" fill="#a6c7f9"/>
            <path id="Path_155941" data-name="Path 155941" d="M1193.828,944.3h12a1.308,1.308,0,0,0,1.3-1.3h0a1.308,1.308,0,0,0-1.3-1.3h-12a1.309,1.309,0,0,0-1.3,1.3h0A1.308,1.308,0,0,0,1193.828,944.3Z" transform="translate(-1032.049 -912.842)" fill="#a6c7f9"/>
            <path id="Path_155942" data-name="Path 155942" d="M1193.828,956.743h12a1.308,1.308,0,0,0,1.3-1.3h0a1.308,1.308,0,0,0-1.3-1.3h-12a1.309,1.309,0,0,0-1.3,1.3h0A1.308,1.308,0,0,0,1193.828,956.743Z" transform="translate(-1032.049 -920.59)" fill="#a6c7f9"/>
            <path id="Path_155943" data-name="Path 155943" d="M1033.453,1012.044h12a1.308,1.308,0,0,0,1.3-1.3h0a1.309,1.309,0,0,0-1.3-1.305h-12a1.309,1.309,0,0,0-1.3,1.305h0A1.308,1.308,0,0,0,1033.453,1012.044Z" transform="translate(-932.196 -955.021)" fill="#a6c7f9"/>
            <path id="Path_155944" data-name="Path 155944" d="M1033.453,1024.231h12a1.308,1.308,0,0,0,1.3-1.3h0a1.308,1.308,0,0,0-1.3-1.3h-12a1.308,1.308,0,0,0-1.3,1.3h0A1.309,1.309,0,0,0,1033.453,1024.231Z" transform="translate(-932.196 -962.609)" fill="#a6c7f9"/>
            <path id="Path_155945" data-name="Path 155945" d="M862.712,961.927h12a1.308,1.308,0,0,0,1.3-1.3h0a1.308,1.308,0,0,0-1.3-1.3h-12a1.308,1.308,0,0,0-1.3,1.3h0A1.308,1.308,0,0,0,862.712,961.927Z" transform="translate(-825.889 -923.817)" fill="#a6c7f9"/>
            <path id="Path_155946" data-name="Path 155946" d="M862.712,974.114h12a1.308,1.308,0,0,0,1.3-1.3h0a1.308,1.308,0,0,0-1.3-1.3h-12a1.308,1.308,0,0,0-1.3,1.3h0A1.308,1.308,0,0,0,862.712,974.114Z" transform="translate(-825.889 -931.405)" fill="#a6c7f9"/>
          </g>
          <g id="Group_99952" data-name="Group 99952" transform="translate(279.48 43.104)">
            <g id="Group_99948" data-name="Group 99948">
              <path id="Path_155947" data-name="Path 155947" d="M1469.778,751.822a21.6,21.6,0,1,0-21.6,21.6A21.6,21.6,0,0,0,1469.778,751.822Z" transform="translate(-1426.57 -730.218)" fill="#f3f9ff"/>
              <path id="Path_155948" data-name="Path 155948" d="M1431.423,754.843a19.772,19.772,0,0,0,33.138,14.571L1451.2,754.843V735.071A19.773,19.773,0,0,0,1431.423,754.843Z" transform="translate(-1429.591 -733.24)" fill="#a6c7f9"/>
              <path id="Path_155949" data-name="Path 155949" d="M1502.79,776.271h7.1a.6.6,0,0,0,.595-.595h0a.6.6,0,0,0-.595-.595h-7.1a.6.6,0,0,0-.6.595h0A.6.6,0,0,0,1502.79,776.271Z" transform="translate(-1473.655 -758.151)" fill="#a6c7f9"/>
            </g>
            <g id="Group_99949" data-name="Group 99949" transform="translate(53.638)">
              <path id="Path_155950" data-name="Path 155950" d="M1611.911,751.822a21.6,21.6,0,1,0-21.6,21.6A21.6,21.6,0,0,0,1611.911,751.822Z" transform="translate(-1568.703 -730.218)" fill="#f3f9ff"/>
              <path id="Path_155951" data-name="Path 155951" d="M1593.462,754.843l-12.149,15.6a19.772,19.772,0,1,0-7.541-17.406Z" transform="translate(-1571.859 -733.24)" fill="#ffca00"/>
              <path id="Path_155952" data-name="Path 155952" d="M1584.624,798.456h4.941a.6.6,0,0,0,.595-.594h0a.6.6,0,0,0-.595-.6h-4.941a.6.6,0,0,0-.595.6h0A.6.6,0,0,0,1584.624,798.456Z" transform="translate(-1578.245 -771.964)" fill="#a6c7f9"/>
            </g>
            <g id="Group_99950" data-name="Group 99950" transform="translate(0 59.503)">
              <path id="Path_155953" data-name="Path 155953" d="M1469.778,909.5a21.6,21.6,0,1,0-21.6,21.6A21.6,21.6,0,0,0,1469.778,909.5Z" transform="translate(-1426.57 -887.892)" fill="#f3f9ff"/>
              <path id="Path_155954" data-name="Path 155954" d="M1431.423,912.517a19.772,19.772,0,0,0,33.138,14.571L1451.2,912.517V892.745A19.773,19.773,0,0,0,1431.423,912.517Z" transform="translate(-1429.591 -890.914)" fill="#ffca00"/>
              <path id="Path_155955" data-name="Path 155955" d="M1502.79,933.945h7.1a.6.6,0,0,0,.595-.595h0a.6.6,0,0,0-.595-.595h-7.1a.6.6,0,0,0-.6.595h0A.6.6,0,0,0,1502.79,933.945Z" transform="translate(-1473.655 -915.825)" fill="#a6c7f9"/>
            </g>
            <g id="Group_99951" data-name="Group 99951" transform="translate(53.638 59.503)">
              <path id="Path_155956" data-name="Path 155956" d="M1611.911,909.5a21.6,21.6,0,1,0-21.6,21.6A21.6,21.6,0,0,0,1611.911,909.5Z" transform="translate(-1568.703 -887.892)" fill="#f3f9ff"/>
              <path id="Path_155957" data-name="Path 155957" d="M1573.772,910.711a19.772,19.772,0,1,1,7.541,17.406l12.149-15.6Z" transform="translate(-1571.859 -890.914)" fill="#a6c7f9"/>
              <path id="Path_155958" data-name="Path 155958" d="M1584.624,956.131h4.941a.6.6,0,0,0,.595-.6h0a.6.6,0,0,0-.595-.594h-4.941a.6.6,0,0,0-.595.594h0A.6.6,0,0,0,1584.624,956.131Z" transform="translate(-1578.245 -929.639)" fill="#a6c7f9"/>
            </g>
          </g>
          <g id="Group_99955" data-name="Group 99955" transform="translate(269.896 162.916)">
            <rect id="Rectangle_37439" data-name="Rectangle 37439" width="117.43" height="78.931" transform="translate(117.43 78.931) rotate(180)" fill="#f3f9ff"/>
            <g id="Group_99953" data-name="Group 99953" transform="translate(5.062 9.728)">
              <path id="Path_155959" data-name="Path 155959" d="M1414.586,1137.167h107.787v-63.688h-1.341v62.348H1414.586Z" transform="translate(-1414.586 -1073.479)" fill="#a6c7f9"/>
            </g>
            <g id="Group_99954" data-name="Group 99954" transform="translate(7.737 12.326)">
              <path id="Path_155960" data-name="Path 155960" d="M1493.091,1134.259c13.195-10.5,27.227,0,27.227,0v17.957h-98.644V1105.8C1448.481,1106.477,1479.9,1144.761,1493.091,1134.259Z" transform="translate(-1421.674 -1096.199)" fill="#ffca00"/>
              <path id="Path_155961" data-name="Path 155961" d="M1602.374,1082.621h-45.965a1.13,1.13,0,0,1,0-2.259h45.965a1.13,1.13,0,0,1,0,2.259Z" transform="translate(-1504.86 -1080.362)" fill="#ffca00"/>
              <path id="Path_155962" data-name="Path 155962" d="M1602.374,1097.244h-45.965a1.129,1.129,0,0,1,0-2.259h45.965a1.129,1.129,0,0,1,0,2.259Z" transform="translate(-1504.86 -1089.466)" fill="#ffca00"/>
              <path id="Rectangle_37440" data-name="Rectangle 37440" d="M1.129,0H31.154a1.129,1.129,0,0,1,1.129,1.129v0a1.13,1.13,0,0,1-1.13,1.13H1.129A1.129,1.129,0,0,1,0,1.13v0A1.129,1.129,0,0,1,1.129,0Z" transform="translate(66.361 10.729)" fill="#ffca00"/>
            </g>
          </g>
          <path id="Path_155963" data-name="Path 155963" d="M980.829,807.79H772.55a5.261,5.261,0,0,1-5.261-5.262h0a5.261,5.261,0,0,1,5.261-5.261H980.829a5.262,5.262,0,0,1,5.261,5.261h0A5.262,5.262,0,0,1,980.829,807.79Z" transform="translate(-736.608 -728.86)" fill="#ffca00"/>
          <path id="Path_155964" data-name="Path 155964" d="M980.829,744.05H772.55a5.261,5.261,0,0,1-5.261-5.261h0a5.262,5.262,0,0,1,5.261-5.262H980.829a5.262,5.262,0,0,1,5.261,5.262h0A5.262,5.262,0,0,1,980.829,744.05Z" transform="translate(-736.608 -689.174)" fill="#ffca00"/>
          <path id="Path_155965" data-name="Path 155965" d="M1110.46,677.749H773.729a4.918,4.918,0,0,1-4.918-4.918h0a4.918,4.918,0,0,1,4.918-4.918H1110.46a4.918,4.918,0,0,1,4.918,4.918h0A4.918,4.918,0,0,1,1110.46,677.749Z" transform="translate(-737.555 -648.322)" fill="#ffca00"/>
        </g>
        <rect id="Rectangle_37441" data-name="Rectangle 37441" width="5.906" height="95.248" transform="translate(209.257 255.323)" fill="#1c468a"/>
        <path id="Path_155966" data-name="Path 155966" d="M1118.027,617.219H738.417a4.208,4.208,0,0,1-4.208-4.208h0a4.208,4.208,0,0,1,4.208-4.208h379.609a4.208,4.208,0,0,1,4.208,4.208h0A4.208,4.208,0,0,1,1118.027,617.219Z" transform="translate(-716.012 -608.803)" fill="#1c468a"/>
        <path id="Path_155967" data-name="Path 155967" d="M1203.775,1526.285H1079.447a2.511,2.511,0,0,0-2.51,2.511h0a2.51,2.51,0,0,0,2.51,2.51h124.328a2.51,2.51,0,0,0,2.51-2.51h0A2.51,2.51,0,0,0,1203.775,1526.285Z" transform="translate(-929.401 -1180.046)" fill="#233862"/>
      </g>
      <g id="Group_99959" data-name="Group 99959" transform="translate(0 39.878)">
        <g id="Group_99958" data-name="Group 99958">
          <path id="Path_155968" data-name="Path 155968" d="M662.1,1443.523l4.929,20.761,7.383-.042.271-20.719Z" transform="translate(-620.735 -1168.395)" fill="#e49963"/>
          <path id="Path_155969" data-name="Path 155969" d="M826.676,1441.36l14.026,19.876,5.466-7.019-8.441-15.59Z" transform="translate(-723.202 -1165.346)" fill="#e49963"/>
          <path id="Path_155970" data-name="Path 155970" d="M619.5,716.787a14.3,14.3,0,0,0-7.74-1.481,3.618,3.618,0,0,1,1.633-.775c-1.325-.2-4.282,1.117-4.282,1.117-18.429-7.1-21.325,20.034-20.938,26.339s-6.193,8.362-15.781,13.329c-18.294,9.477-19.9,22.168-19.9,22.168.142.084.291.18.449.289.908-1.538,2.776-4.426,4.352-4.861a65.239,65.239,0,0,0-2.534,6.174c5.4,4.106,15.493,13.2,22.53,19.652a10.336,10.336,0,0,1,.48-4l.869,5.235c3.766,3.462,6.362,5.9,6.362,5.9-.465-5.094,23.041-31.978,35.3-40.03,2.985-4.395,4.046-12.159,4.126-12.77-.515,6.156-1.568,9.61-2.51,11.553C632.3,755.07,626.251,720.626,619.5,716.787Z" transform="translate(-552.485 -714.473)" fill="#163560"/>
          <path id="Path_155971" data-name="Path 155971" d="M701.606,821.7c.062.027-5.921,3.134-10.421,1.9-4.233-1.154-7-6.643-6.94-6.655,1.793-.356,2.309-2.819,2.271-13.4l.81.16,13.626,2.7s-.31,4.288-.319,8.327C700.623,818.124,700.829,821.342,701.606,821.7Z" transform="translate(-634.52 -769.932)" fill="#e49963"/>
          <path id="Path_155972" data-name="Path 155972" d="M706.038,806.668s-.31,4.288-.319,8.327c-7.625-.215-11.655-7.17-13.307-11.026Z" transform="translate(-639.606 -770.196)" fill="#d68d5d"/>
          <path id="Path_155973" data-name="Path 155973" d="M680.316,753.848s-4-6.314-4.955-11.712c-.685-3.854,1.278-18.141,15.635-16.083a19.509,19.509,0,0,1,8.089,3.058c3.117,2.105,7.616,6.65,2.586,19.117l-1.306,4.212Z" transform="translate(-628.917 -721.557)" fill="#163560"/>
          <path id="Path_155974" data-name="Path 155974" d="M744.823,1207.655l-7.223.221-7.818.24s-18.058-20.106-28.188-52.337q-.355-1.124-.749-2.274c-5.544-16.165-17.036-36.455-23.092-54.82-.964-2.925-1.83-5.678-2.606-8.285q-.373-1.252-.721-2.462a194.8,194.8,0,0,1-6.946-36.568l43.732.35S718.271,1126,744.823,1207.655Z" transform="translate(-624.083 -924.232)" fill="#2b478b"/>
          <path id="Path_155975" data-name="Path 155975" d="M676.231,892.2c-.11,20.81,3.053,29.739,3.053,29.739a58.764,58.764,0,0,1-40.979,2.511c-.262-.083-17.176-3.943-17.176-3.943.372-.842,6.113-14.814,6.476-15.586,4.7-10.09,4.586-14.853,5.143-17.955a65.954,65.954,0,0,0,.541-17.435,139.925,139.925,0,0,0-5.4-27.38c6.064-1.379,11.742-3.8,18.053-6.171,1.451,1.808,5.89,3.7,9.739,3.613,4.433-.1,5.87-2,5.64-4.067,4.724,2.629,8.494,5.112,8.494,5.112,4.015,6.974,12.158,13.746,12.747,24.444C682.713,867.715,676.234,891.62,676.231,892.2Z" transform="translate(-595.224 -789.844)" fill="#e7f1fd"/>
          <path id="Path_155976" data-name="Path 155976" d="M775.256,879.516c-3.817-9.1-15.117-29.723-30.847-36.875l5.713,32.048a12.767,12.767,0,0,0,2.573,9.048c8.068,10.009,20.117,17.161,20.117,17.161s10.042-1.011,24.917-5.963c4.669-1.554,14.7-9.981,14.7-9.981l.135-6.569s-13.3,2.68-17.911,3.2c-2.628.3-8.707,1.074-12.992,1.626A6.1,6.1,0,0,1,775.256,879.516Z" transform="translate(-671.981 -794.273)" fill="#c65447"/>
          <path id="Path_155977" data-name="Path 155977" d="M705.147,771.033s-18.04.3-18.053-10.94-2.349-18.767,9.169-19.432,13.76,3.62,14.677,7.37S709.84,770.666,705.147,771.033Z" transform="translate(-636.169 -730.735)" fill="#e49963"/>
          <path id="Path_155978" data-name="Path 155978" d="M694.91,732.241s-4.94,13.184-12.52,15.133-10.868-.081-10.868-.081,1.078-11.486,2.285-19.549C673.807,727.744,691.184,725.966,694.91,732.241Z" transform="translate(-626.6 -722.591)" fill="#163560"/>
          <path id="Path_155979" data-name="Path 155979" d="M730.253,739.334s3.688,2.943,4.588,5.8,1.3,8.753,3.02,8.552c0,0,3.721-8.961-.461-14.03C732.966,734.286,730.253,739.334,730.253,739.334Z" transform="translate(-663.167 -728.614)" fill="#163560"/>
          <path id="Path_155980" data-name="Path 155980" d="M924.793,929.247s5.226-7.948,14.423-3.631c.99.7,3.8,3.016.632,5.8-2.332,2.052-2.567.531-6.048,3.177s-6.316,2.583-9.142,1.225Z" transform="translate(-784.207 -845.135)" fill="#e49963"/>
          <path id="Path_155981" data-name="Path 155981" d="M672.766,1495.462a20.017,20.017,0,0,1-.94,8.512s-1.209,5.505,4.214,5.608,6.753-.409,6.139-3.786-1.782-9.216-1.782-9.216Z" transform="translate(-626.718 -1200.732)" fill="#e49963"/>
          <path id="Path_155982" data-name="Path 155982" d="M681.91,1525.745s-.116.072-.341.181H670.954a2.572,2.572,0,0,1-.3-.181c-.613-2.763.389-7.961.389-7.961,6.142,5.628,9.985-.14,9.985-.14C682.026,1520.049,681.91,1525.745,681.91,1525.745Z" transform="translate(-625.936 -1214.544)" fill="#9e322a"/>
          <path id="Path_155983" data-name="Path 155983" d="M879.128,1496.683s-10-11.1-13.067-16.744l-7.434,3.809,16.619,15.607,3.888-.512Z" transform="translate(-743.095 -1191.067)" fill="#e49963"/>
          <path id="Path_155984" data-name="Path 155984" d="M882.224,1508.732H868.542c-1.319-.985-2.548-3.264-4.078-6.323-.814-1.631-2.647-2.531-4.527-3.025v9.242H857.1l-2.688-9.825c-1.768-3.253-.14-6.2,1.107-8.772,1.448,0,5.345.988,12.73,9.311a9.681,9.681,0,0,0,7.771,3.625.688.688,0,0,0,.109.058C880.585,1505.026,881.859,1507.516,882.224,1508.732Z" transform="translate(-739.986 -1197.35)" fill="#9e322a"/>
          <path id="Path_155985" data-name="Path 155985" d="M727.645,835.528s10.438,25.785,10.745,31,1.228,85.334,1.228,85.334-.614,3.683,6.446,2.148,8.9-3.07,8.9-3.07-6.753-49.42-4.911-66.61c1.6-14.965-10.356-38.228-13.479-44a4.293,4.293,0,0,0-2.1-1.909Z" transform="translate(-661.543 -789.844)" fill="#c65447"/>
          <path id="Path_155986" data-name="Path 155986" d="M749.061,1260.145l-7.818.24s-18.058-20.106-28.188-52.337q-.355-1.124-.749-2.274c-5.544-16.165-17.036-36.455-23.092-54.82-.964-2.925-1.83-5.678-2.606-8.285q-.373-1.252-.722-2.462l6.44-4.887s19.335,31.31,25.321,60.775C722.847,1221.689,743.671,1252.486,749.061,1260.145Z" transform="translate(-635.543 -976.501)" fill="#233862"/>
          <path id="Path_155987" data-name="Path 155987" d="M649.473,1185.13c.111,14.328-.614,47.271-2.48,60.91h-6.925c-3.828,0-5.737-.055-5.737-.055-4.681-23.713-8.012-43.333-10.436-60.241-1.989-13.875-3.757-25.769-5.117-36.009-1.369-10.3-2.32-18.933-2.661-26.224-.052-1.148-.092-2.265-.114-3.349s-.028-2.149-.018-3.177l37.787-3.683C653.3,1138.408,649.412,1176.8,649.473,1185.13Z" transform="translate(-592.018 -962.792)" fill="#2b478b"/>
          <path id="Path_155988" data-name="Path 155988" d="M640.293,1262.884c-3.828,0-5.737-.055-5.737-.055-4.681-23.713-8.012-43.333-10.436-60.241-1.989-13.875-3.757-25.769-5.117-36.009-1.369-10.3-2.321-18.933-2.661-26.224l13.865,8.156s-8.849,3.122-5.473,26.758S635.593,1259.538,640.293,1262.884Z" transform="translate(-592.243 -979.636)" fill="#233862"/>
          <path id="Path_155989" data-name="Path 155989" d="M628.157,951.2s-2.662,9.617-11.87,8.39-22.3-6.753-22.3-6.753,3.935-12.435,8.828-28.771c5.924-19.777,13.257-45.273,16.714-61.355a99.494,99.494,0,0,0,1.879-10.964l7.64-14.823s11.391,25.566,12,32.012S628.157,951.2,628.157,951.2Z" transform="translate(-578.322 -790.712)" fill="#c65447"/>
          <path id="Path_155990" data-name="Path 155990" d="M633.618,867.973,643.7,836.921c-.028.013-12.735,3.781-19.128,7.011,0,0-4,5.151-6.468,17.036,0,0-2.612,28.532,3.22,38.969,0,0,18.418,3.684,47.885-6.446v-6.753s-32.23,1.688-38.83,2.456Z" transform="translate(-592.979 -790.712)" fill="#e49963"/>
          <path id="Path_155991" data-name="Path 155991" d="M642.314,924.984c-.411,10.437-2.867,30.7-24.762,41.541-.058.028-.117.058-.175.083,5.924-19.777,13.257-45.273,16.714-61.355C638.112,911.264,642.538,919.238,642.314,924.984Z" transform="translate(-592.888 -833.257)" fill="#9e322a"/>
          <path id="Path_155992" data-name="Path 155992" d="M642.087,836.921s-18.692,1.317-23.194,11.344-5.935,43.383-.2,53.206c0,0,7.888,2.247,21.841-.362l.516-.1s4.451-10.9.46-13.046c0,0-11.767.614-10.539-3.274S642.087,836.921,642.087,836.921Z" transform="translate(-591.364 -790.712)" fill="#c65447"/>
          <path id="Path_155993" data-name="Path 155993" d="M745.733,952.56a16.109,16.109,0,0,0,3.115-6.289c.547-3.177,2.247-5.533,6.679-6.115s6.337-.645,6.326.6-3.621,9.971-9.981,15.18S745.733,952.56,745.733,952.56Z" transform="translate(-672.805 -854.739)" fill="#e49963"/>
        </g>
        <path id="Path_155994" data-name="Path 155994" d="M938.617,912.264a.843.843,0,0,0,.458.017l79.137-18.926a.852.852,0,1,0-.4-1.656l-79.137,18.927a.852.852,0,0,0-.061,1.639Z" transform="translate(-792.53 -824.802)" fill="#233862"/>
      </g>
    </g>
  </g>
</svg>
