<svg xmlns="http://www.w3.org/2000/svg" width="135.297" height="120" viewBox="0 0 135.297 120">
  <g id="Group_98302" data-name="Group 98302" transform="translate(-114 -225.555)">
    <path id="Path_153409" data-name="Path 153409" d="M114,378.286a3.2,3.2,0,0,1,2.873-1.192c3.608.053,7.218,0,10.827.033a1.3,1.3,0,0,0,1.518-1.019,9.12,9.12,0,0,1,17.317.049,1.242,1.242,0,0,0,1.417.97q11.818-.034,23.636,0a1.228,1.228,0,0,0,1.389-1,9.14,9.14,0,0,1,17.344,0,1.229,1.229,0,0,0,1.39,1q11.818-.04,23.636,0a1.239,1.239,0,0,0,1.415-.969,9.12,9.12,0,0,1,17.317-.049,1.3,1.3,0,0,0,1.518,1.019c3.609-.033,7.219.02,10.827-.034a3.22,3.22,0,0,1,2.874,1.192v1.586a3.37,3.37,0,0,1-3,1.223c-3.522-.047-7.046,0-10.568-.03a1.468,1.468,0,0,0-1.717,1.129,9.106,9.106,0,0,1-17.177.016,1.466,1.466,0,0,0-1.693-1.146q-11.559.043-23.119,0a1.553,1.553,0,0,0-1.8,1.2,9.115,9.115,0,0,1-17.145,0,1.553,1.553,0,0,0-1.8-1.209q-11.559.057-23.119,0a1.469,1.469,0,0,0-1.7,1.146,9.106,9.106,0,0,1-17.177-.012,1.469,1.469,0,0,0-1.716-1.131c-3.523.034-7.046-.016-10.568.03a3.356,3.356,0,0,1-3-1.222Zm29.077.882a5.2,5.2,0,1,0-5.264,5.146A5.237,5.237,0,0,0,143.077,379.168Zm77.142-.2a5.2,5.2,0,1,0,5.284-5.123A5.242,5.242,0,0,0,220.219,378.965Zm-38.585-5.122a5.236,5.236,0,1,0,5.251,5.188A5.3,5.3,0,0,0,181.634,373.842Z" transform="translate(0 -93.471)" fill="#fe502d"/>
    <path id="Path_153410" data-name="Path 153410" d="M114,226.941c1.062-1.207,4.289-1.869,5.668-.966a2.4,2.4,0,0,1,1.012,1.9c-.113.643-.93,1.2-1.524,1.7-.219.183-.674.083-1.106.119V251.3c2.983,0,5.921-.032,8.859.006,6.472.084,4.654-.865,8.251,4.423.888,1.3,1.744,2.631,2.716,4.1,1.549-2.355,3.065-4.547,4.455-6.817a3.348,3.348,0,0,1,3.262-1.735c4,.072,8.007.025,12.109.025V229.632h-1.495q-13.542,0-27.084,0a9.4,9.4,0,0,1-1.319-.033,1.938,1.938,0,0,1-.34-3.763,4.95,4.95,0,0,1,1.43-.16q15-.013,29.991-.005c2.264,0,2.877.628,2.878,2.931q.005,11.891,0,23.782c0,2.319-.564,2.879-2.883,2.881-4.052,0-8.1.023-12.155-.018a1.766,1.766,0,0,0-1.712.918c-1.681,2.634-3.408,5.238-5.135,7.842-1.265,1.907-2.742,1.907-4.005,0-1.727-2.6-3.459-5.205-5.142-7.838a1.76,1.76,0,0,0-1.7-.926c-4.139.039-8.28-.014-12.418.038A2.6,2.6,0,0,1,114,253.9Z" fill="#fe502d"/>
    <path id="Path_153411" data-name="Path 153411" d="M410.194,254.074a2.611,2.611,0,0,1-2.613,1.389c-4.139-.052-8.28,0-12.419-.038a1.758,1.758,0,0,0-1.7.928c-1.681,2.633-3.412,5.235-5.142,7.837-1.267,1.906-2.738,1.9-4.005-.008-1.727-2.6-3.456-5.207-5.136-7.842a1.765,1.765,0,0,0-1.713-.915c-4.14.038-8.28.024-12.419.015-1.971,0-2.613-.637-2.615-2.614q-.013-12.156,0-24.311c0-1.959.685-2.641,2.609-2.666,1.057-.014,2.116-.041,3.17.014a1.965,1.965,0,0,1,2.09,2.065,1.932,1.932,0,0,1-2.113,1.875c-.524.02-1.05,0-1.686,0v21.672h3.569c2.819,0,5.639.062,8.455-.025a3.4,3.4,0,0,1,3.37,1.785c1.364,2.256,2.877,4.421,4.428,6.778,1.517-2.305,3.027-4.462,4.383-6.713a3.509,3.509,0,0,1,3.466-1.854c3.957.089,7.917.029,11.965.029V229.81H378.65c-.4,0-.794.013-1.188-.018a1.938,1.938,0,0,1-.338-3.819,5.749,5.749,0,0,1,1.438-.122c9.557-.006,19.114.008,28.67-.02a3.138,3.138,0,0,1,2.962,1.289Z" transform="translate(-160.897 -0.178)" fill="#fe502d"/>
    <path id="Path_153412" data-name="Path 153412" d="M242.363,467.381V489.05h1.5q11.491,0,22.983,0c.44,0,1-.146,1.295.067.622.448,1.47,1.045,1.544,1.662a2.859,2.859,0,0,1-1.114,1.963c-.384.331-1.17.259-1.777.26q-12.746.021-25.492.008c-2.431,0-2.988-.542-2.989-2.912q0-11.954,0-23.908c0-2.247.538-2.773,2.814-2.775,3.963,0,7.926-.045,11.887.028a2.25,2.25,0,0,0,2.2-1.223c1.617-2.569,3.307-5.092,4.988-7.62,1.21-1.818,2.706-1.806,3.927.032,1.754,2.638,3.451,5.314,5.256,7.916a2.221,2.221,0,0,0,1.557.828c4.137.068,8.277.033,12.415.039,2.025,0,2.638.586,2.64,2.55q.012,12.218,0,24.436c0,1.949-.66,2.591-2.632,2.605-1.937.014-3.875.02-5.811,0-1.553-.019-2.441-.765-2.449-1.992s.864-1.95,2.432-1.963c1.443-.012,2.885,0,4.413,0v-21.67h-1.39c-3.654,0-7.309-.029-10.963.015a2.974,2.974,0,0,1-2.834-1.522c-1.441-2.309-2.98-4.556-4.6-7.017a66.061,66.061,0,0,0-3.643,5.588c-1.218,2.335-2.9,3.163-5.519,2.992C249.506,467.209,245.98,467.381,242.363,467.381Z" transform="translate(-80.513 -147.468)" fill="#fe502d"/>
    <path id="Path_153413" data-name="Path 153413" d="M277.952,510.232c-4.358,0-8.715.008-13.073,0-1.452,0-2.329-.747-2.358-1.928-.031-1.223.886-2.021,2.4-2.027,3.785-.013,7.571,0,11.357,0,4.842,0,9.684-.008,14.526.006,1.54,0,2.5.928,2.349,2.2-.128,1.106-.98,1.755-2.387,1.759C286.491,510.239,282.221,510.232,277.952,510.232Z" transform="translate(-96.191 -181.806)" fill="#fe502d"/>
    <path id="Path_153414" data-name="Path 153414" d="M277.867,530.48c4.136,0,8.272-.005,12.408.006.523,0,1.2-.1,1.533.18a3.651,3.651,0,0,1,1.316,1.877,1.642,1.642,0,0,1-1.523,1.829,6.833,6.833,0,0,1-1.315.069q-12.408.005-24.816,0a8.606,8.606,0,0,1-1.185-.047,1.937,1.937,0,0,1-.137-3.827,6.3,6.3,0,0,1,1.311-.085Q271.662,530.474,277.867,530.48Z" transform="translate(-96.224 -197.482)" fill="#fe502d"/>
    <path id="Path_153415" data-name="Path 153415" d="M153.49,278.425q-6.337,0-12.673,0c-1.634,0-2.581-.75-2.573-2s.938-1.961,2.6-1.961q12.739-.006,25.478,0c1.672,0,2.551.7,2.544,1.986s-.9,1.971-2.569,1.973Q159.893,278.432,153.49,278.425Z" transform="translate(-15.702 -31.674)" fill="#fe502d"/>
    <path id="Path_153416" data-name="Path 153416" d="M402.2,274.459q6.336,0,12.673,0c1.66,0,2.591.715,2.6,1.96s-.939,2-2.572,2q-12.871.007-25.742,0c-1.451,0-2.3-.759-2.3-1.968s.829-1.951,2.277-1.988c.308-.008.616,0,.924,0Z" transform="translate(-176.715 -31.672)" fill="#fe502d"/>
    <path id="Path_153417" data-name="Path 153417" d="M153.649,250.229q6.136,0,12.273,0a7.313,7.313,0,0,1,1.446.078,1.935,1.935,0,0,1,.263,3.7,5.08,5.08,0,0,1-1.559.18q-12.471.015-24.943.006a6.986,6.986,0,0,1-1.053-.038,1.925,1.925,0,0,1-1.8-1.946,1.881,1.881,0,0,1,1.908-1.943c1.273-.066,2.55-.033,3.826-.035Q148.832,250.225,153.649,250.229Z" transform="translate(-15.724 -15.976)" fill="#fe502d"/>
    <path id="Path_153418" data-name="Path 153418" d="M402.245,250.239q6.136,0,12.273,0a8.949,8.949,0,0,1,1.316.059,1.929,1.929,0,0,1,.21,3.765,5.7,5.7,0,0,1-1.435.132q-12.472.011-24.943,0a5.525,5.525,0,0,1-1.308-.1,1.8,1.8,0,0,1-1.478-2.037,1.767,1.767,0,0,1,1.642-1.763,8.856,8.856,0,0,1,1.317-.053Q396.042,250.236,402.245,250.239Z" transform="translate(-176.731 -15.987)" fill="#fe502d"/>
  </g>
</svg>
