<svg xmlns="http://www.w3.org/2000/svg" width="154.787" height="193.729" viewBox="0 0 154.787 193.729">
  <g id="About_us_page-amico" data-name="About us page-amico" transform="translate(-54.339 -29.35)">
    <g id="freepik--Shadows--inject-74" transform="translate(66.832 178.792)" opacity="0.14">
      <ellipse id="freepik--Shadow--inject-74" cx="18.748" cy="10.824" rx="18.748" ry="10.824" transform="translate(53.774 6.411)" fill="#0d2380"/>
      <ellipse id="freepik--shadow--inject-74-2" data-name="freepik--shadow--inject-74" cx="18.748" cy="10.824" rx="18.748" ry="10.824" transform="translate(102.546)" fill="#0d2380"/>
      <ellipse id="freepik--shadow--inject-74-3" data-name="freepik--shadow--inject-74" cx="18.748" cy="10.824" rx="18.748" ry="10.824" transform="translate(0 22.639)" fill="#0d2380"/>
    </g>
    <g id="freepik--Page--inject-74" transform="translate(54.339 29.35)">
      <path id="Path_158169" data-name="Path 158169" d="M96.84,191.7a2.2,2.2,0,0,1-.96-1.735V95.547A2.265,2.265,0,0,1,96.9,93.775L207.977,29.645a1.916,1.916,0,0,1,2.936,1.694v94.418a2.265,2.265,0,0,1-1.024,1.771L98.816,191.659a2.2,2.2,0,0,1-1.975.036Z" transform="translate(-95.874 -29.35)" fill="#455a64"/>
      <path id="Path_158170" data-name="Path 158170" d="M98.621,286.267H98.58a.358.358,0,0,1-.1.041H98.4a.639.639,0,0,1-.14.032.327.327,0,0,1-.1.023l-.154.023a1.984,1.984,0,0,1-1.178-.2,2.179,2.179,0,0,1-.956-1.731V202.17l1.921,1.11v82.308c0,.453.231.734.566.734a.453.453,0,0,0,.136,0h0a.427.427,0,0,0,.118-.054Z" transform="translate(-95.874 -123.872)" fill="#4c68a8"/>
      <path id="Path_158171" data-name="Path 158171" d="M98.621,286.267H98.58a.358.358,0,0,1-.1.041H98.4a.639.639,0,0,1-.14.032.327.327,0,0,1-.1.023l-.154.023a1.984,1.984,0,0,1-1.178-.2,2.179,2.179,0,0,1-.956-1.731V202.17l1.921,1.11v82.308c0,.453.231.734.566.734a.453.453,0,0,0,.136,0h0a.427.427,0,0,0,.118-.054Z" transform="translate(-95.874 -123.872)" fill="#e0e0e0" opacity="0.81"/>
      <path id="Path_158172" data-name="Path 158172" d="M97.791,203.28l-1.921-1.11v18.281l1.921,1.119Z" transform="translate(-95.868 -123.872)" fill="#4c68a8"/>
      <path id="Path_158173" data-name="Path 158173" d="M97.791,203.28l-1.921-1.11v18.281l1.921,1.119Z" transform="translate(-95.868 -123.872)" fill="#1b2652" opacity="0.15"/>
      <path id="Path_158174" data-name="Path 158174" d="M98.083,174.34a2.107,2.107,0,0,0-.294,1.006v12.106l-1.921-1.11v-12.1a1.105,1.105,0,0,1,0-.122,2.267,2.267,0,0,1,.041-.254,2.614,2.614,0,0,1,.254-.634Z" transform="translate(-95.866 -108.044)" fill="#263238"/>
      <path id="Path_158175" data-name="Path 158175" d="M213.226,32.87v5.464l-81.42,47.005c-.562.326-1.019.059-1.019-.589V82.679c0-.648-.453-.906-1.024-.589l-24.8,14.321a2.265,2.265,0,0,0-1.024,1.771v2.066a2.265,2.265,0,0,1-1.019,1.771l-2.814,1.64V98.224a2.265,2.265,0,0,1,1.019-1.771L212.207,32.281C212.768,31.955,213.226,32.217,213.226,32.87Z" transform="translate(-98.187 -30.876)" fill="#37474f"/>
      <path id="Path_158176" data-name="Path 158176" d="M213.23,134.764a2.265,2.265,0,0,1-1.024,1.767L101.129,200.662c-.562.322-1.019.059-1.019-.594V111.137l2.814-1.622c.562-.326,1.477-5.283,2.043-5.609l24.379-14.077c.566-.326,1.9,3.335,2.46,3.008l81.42-47.028v88.954Z" transform="translate(-98.187 -38.353)" fill="#4c68a8"/>
      <path id="Path_158177" data-name="Path 158177" d="M213.23,134.764a2.265,2.265,0,0,1-1.024,1.767L101.129,200.662c-.562.322-1.019.059-1.019-.594V111.137l2.814-1.622c.562-.326,1.477-5.283,2.043-5.609l24.379-14.077c.566-.326,1.9,3.335,2.46,3.008l81.42-47.028v88.954Z" transform="translate(-98.187 -38.353)" fill="#fff" opacity="0.9"/>
      <g id="Group_100008" data-name="Group 100008" transform="translate(1.923 7.457)" opacity="0.4">
        <path id="Path_158178" data-name="Path 158178" d="M212.773,46.594v88.17a1.812,1.812,0,0,1-.8,1.359L100.9,200.268a.453.453,0,0,1-.231.077c-.1,0-.109-.227-.109-.276V111.377l2.587-1.5c.4-.231.652-1.024,1.223-3.063a15.21,15.21,0,0,1,.852-2.564L129.4,90.3a10.135,10.135,0,0,1,.779,1.241c.657,1.151,1.019,1.749,1.545,1.749a.643.643,0,0,0,.3-.077l80.74-46.616m.453-.784-81.42,47.005a.159.159,0,0,1-.077,0c-.571,0-1.731-3.049-2.306-3.049a.154.154,0,0,0-.077,0l-24.379,14.122c-.566.326-1.482,5.283-2.043,5.609l-2.814,1.64v88.931c0,.453.231.729.562.729a.956.956,0,0,0,.453-.136l111.082-64.131a2.265,2.265,0,0,0,1.024-1.767V45.81Z" transform="translate(-100.11 -45.81)" fill="#4c68a8"/>
      </g>
      <path id="Path_158179" data-name="Path 158179" d="M100.11,125.784v18.29l113.116-65.3V60.48Z" transform="translate(-98.187 -46.376)" fill="#1b2652"/>
      <path id="Path_158180" data-name="Path 158180" d="M213.226,45.81v6.646l-113.116,65.3v-6.624l2.1-1.214c.562-.326.752-.825,1.019-1.771l.716-2.474a2.532,2.532,0,0,1,1.024-1.771l24.379-14.077c.566-.326,1.01-.362,1.441.349l.874,1.586c.317.557.48.883,1.042.557Z" transform="translate(-98.187 -38.353)" fill="#f0f0f0"/>
      <path id="Path_158181" data-name="Path 158181" d="M337.652,41.1c.711-.408,1.287-.077,1.287.743a2.845,2.845,0,0,1-1.287,2.229c-.707.408-1.282.077-1.282-.743A2.854,2.854,0,0,1,337.652,41.1Z" transform="translate(-227.407 -35.681)" fill="#4c68a8"/>
      <path id="Path_158182" data-name="Path 158182" d="M327.447,46.989c.707-.408,1.282-.077,1.282.743a2.854,2.854,0,0,1-1.282,2.229c-.711.408-1.287.077-1.287-.743a2.845,2.845,0,0,1,1.287-2.229Z" transform="translate(-221.823 -38.902)" fill="#4c68a8"/>
      <path id="Path_158183" data-name="Path 158183" d="M317.217,52.879c.707-.408,1.287-.077,1.287.743a2.859,2.859,0,0,1-1.287,2.229c-.711.412-1.287.077-1.287-.743A2.845,2.845,0,0,1,317.217,52.879Z" transform="translate(-216.228 -42.124)" fill="#4c68a8"/>
      <path id="Path_158184" data-name="Path 158184" d="M107.981,190.3l-1.6.906.612-1.173a.3.3,0,0,0,0-.29c-.045-.054-.127,0-.181.086l-.87,1.676h0a.355.355,0,0,0,0,.063h0a.623.623,0,0,0,0,.086.359.359,0,0,0,0,.077h0a.1.1,0,0,0,0,.036h0l.87.671a.082.082,0,0,0,.086,0,.331.331,0,0,0,.1-.127.293.293,0,0,0,0-.272l-.612-.453,1.6-.906a.34.34,0,0,0,.131-.276C108.112,190.3,108.053,190.265,107.981,190.3Z" transform="translate(-101.373 -117.064)" fill="#455a64" opacity="0.5"/>
      <path id="Path_158185" data-name="Path 158185" d="M113.256,187.162l1.6-.906-.612-.453c-.054-.041-.059-.163,0-.272s.127-.168.181-.127l.87.671h0a.091.091,0,0,1,.027.032h0a.186.186,0,0,1,0,.072.263.263,0,0,1,0,.086v.023a.382.382,0,0,1-.027.063h0l-.87,1.658a.24.24,0,0,1-.086.1.068.068,0,0,1-.1,0,.29.29,0,0,1,0-.29l.612-1.178-1.6.929c-.073.041-.127,0-.127-.127a.335.335,0,0,1,.127-.281Z" transform="translate(-105.308 -114.695)" fill="#455a64" opacity="0.5"/>
      <path id="Path_158186" data-name="Path 158186" d="M122.838,179.023c0-.1-.1-.082-.136.023l-.222.539c-.376-.041-.829.322-1.137.974a2.184,2.184,0,0,0,0,2.215.571.571,0,0,0,.725.045,1.975,1.975,0,0,0,.72-.874.276.276,0,0,0,0-.281c-.054-.05-.136,0-.186.1-.294.625-.779.906-1.074.621a1.623,1.623,0,0,1,0-1.658c.208-.453.512-.711.779-.725l-.168.4c-.041.1,0,.2.063.159l.657-.426a.222.222,0,0,0,.072-.181Z" transform="translate(-109.639 -111.177)" fill="#455a64" opacity="0.5"/>
      <path id="Path_158187" data-name="Path 158187" d="M161.714,147.627l.584-1.241a.381.381,0,0,0,0-.385c-.068-.063-.181,0-.249.145l-.584,1.237-.589-.562c-.068-.068-.181,0-.249.145a.381.381,0,0,0,0,.385l.584.562-.584,1.246a.381.381,0,0,0,0,.385.1.1,0,0,0,.127,0,.3.3,0,0,0,.122-.15l.589-1.241.584.566a.1.1,0,0,0,.122,0,.331.331,0,0,0,.127-.15.381.381,0,0,0,0-.385Z" transform="translate(-131.258 -93.137)" fill="#455a64" opacity="0.5"/>
      <path id="Path_158188" data-name="Path 158188" d="M129.73,113.672v-2.066a2.265,2.265,0,0,1,1.028-1.767l91.9-53.008c.566-.326,1.024-.063,1.024.589v2.039a2.265,2.265,0,0,1-1.024,1.771l-91.9,53.035C130.188,114.592,129.73,114.324,129.73,113.672Z" transform="translate(-114.388 -44.304)" fill="#fff"/>
      <path id="Path_158189" data-name="Path 158189" d="M331.027,62.657a.185.185,0,0,1-.072,0,.24.24,0,0,1-.127-.267l.1-.856h0l-.417-.3a.222.222,0,0,1-.091-.19.426.426,0,0,1,.154-.326l.6-.453a.136.136,0,0,0,.041-.068l.267-.879a.344.344,0,0,1,.267-.258.208.208,0,0,1,.195.118h0l.24.516.544-.208a.2.2,0,0,1,.227.05.335.335,0,0,1,0,.367l-.453.816a.185.185,0,0,0,0,.072l.1.738a.408.408,0,0,1-.118.331.231.231,0,0,1-.2.082l-.539-.068-.521.7A.263.263,0,0,1,331.027,62.657Zm-.344-1.663.417.3a.254.254,0,0,1,.086.245l-.05.707.453-.571a.267.267,0,0,1,.231-.113l.539.068a.168.168,0,0,0,0-.109l-.1-.738a.412.412,0,0,1,.05-.236l.453-.816-.5.19a.195.195,0,0,1-.258-.1l-.222-.453h0l-.267.879a.39.39,0,0,1-.136.2l-.6.453a.19.19,0,0,0-.1.1Z" transform="translate(-224.152 -45.599)" fill="#e0e0e0"/>
      <g id="Group_100009" data-name="Group 100009" transform="translate(110.137 9.878)" opacity="0.5">
        <path id="Path_158190" data-name="Path 158190" d="M339.319,53.521a.353.353,0,0,1-.177-.661l2.872-1.658a.354.354,0,1,1,.358.612L339.5,53.476a.354.354,0,0,1-.177.045Z" transform="translate(-338.962 -51.153)" fill="#455a64"/>
        <path id="Path_158191" data-name="Path 158191" d="M339.32,57.2a.358.358,0,0,1-.308-.177.353.353,0,0,1,.131-.485l2.872-1.663a.358.358,0,0,1,.358.616L339.5,57.155A.358.358,0,0,1,339.32,57.2Z" transform="translate(-338.963 -53.174)" fill="#455a64"/>
        <path id="Path_158192" data-name="Path 158192" d="M339.321,60.851a.358.358,0,0,1-.308-.177.349.349,0,0,1,.131-.48l2.872-1.663a.354.354,0,1,1,.358.612L339.5,60.806a.353.353,0,0,1-.177.045Z" transform="translate(-338.964 -55.162)" fill="#455a64"/>
      </g>
      <path id="Path_158193" data-name="Path 158193" d="M97.791,188.615v6.646l-1.921-1.11V187.51Z" transform="translate(-95.868 -115.854)" fill="#e0e0e0"/>
      <path id="Path_158194" data-name="Path 158194" d="M110.831,232.7l31.284-18.064v51L110.74,283.655Z" transform="translate(-104.001 -130.692)" fill="#4c68a8" opacity="0.1"/>
      <path id="Path_158195" data-name="Path 158195" d="M193.564,181.386,231.3,159.6c.761-.453,1.359-.109,1.359.738a3.008,3.008,0,0,1-1.359,2.338l-37.745,22.032c-.757.453-1.359.091-1.359-.784v-.159A3.045,3.045,0,0,1,193.564,181.386Z" transform="translate(-148.555 -100.478)" fill="#4c68a8" opacity="0.15"/>
      <path id="Path_158196" data-name="Path 158196" d="M193.159,178.8l62.45-36.055c.544-.313.983-.091.983.494a2.1,2.1,0,0,1-.983,1.631l-62.45,36.055c-.539.313-.979.091-.979-.494A2.107,2.107,0,0,1,193.159,178.8Z" transform="translate(-148.544 -91.295)" fill="#4c68a8" opacity="0.1"/>
      <path id="Path_158197" data-name="Path 158197" d="M193.159,188.224l62.45-36.055c.544-.313.983-.091.983.494a2.1,2.1,0,0,1-.983,1.631l-62.45,36.055c-.539.313-.979.091-.979-.5a2.107,2.107,0,0,1,.979-1.626Z" transform="translate(-148.544 -96.447)" fill="#4c68a8" opacity="0.1"/>
      <path id="Path_158198" data-name="Path 158198" d="M193.159,197.634l62.45-36.055c.544-.313.983-.091.983.5a2.1,2.1,0,0,1-.983,1.626l-62.45,36.046c-.539.313-.979.091-.979-.5a2.116,2.116,0,0,1,.979-1.617Z" transform="translate(-148.544 -101.594)" fill="#4c68a8" opacity="0.1"/>
      <path id="Path_158199" data-name="Path 158199" d="M193.159,207.054,255.609,171c.544-.313.983-.091.983.494a2.1,2.1,0,0,1-.983,1.631l-62.45,36.055c-.539.313-.979.091-.979-.494A2.107,2.107,0,0,1,193.159,207.054Z" transform="translate(-148.544 -106.746)" fill="#4c68a8" opacity="0.1"/>
      <path id="Path_158200" data-name="Path 158200" d="M193.159,229.37,236.734,204c.539-.313.979-.091.979.5a2.107,2.107,0,0,1-.979,1.626L193.159,231.5c-.539.313-.979.091-.979-.5A2.107,2.107,0,0,1,193.159,229.37Z" transform="translate(-148.544 -124.795)" fill="#4c68a8" opacity="0.1"/>
      <path id="Path_158201" data-name="Path 158201" d="M193.159,235.3l62.45-36.055c.544-.313.983-.091.983.494a2.1,2.1,0,0,1-.983,1.631l-62.45,36.055c-.539.313-.979.091-.979-.494A2.107,2.107,0,0,1,193.159,235.3Z" transform="translate(-148.544 -122.197)" fill="#4c68a8" opacity="0.1"/>
      <path id="Path_158202" data-name="Path 158202" d="M193.159,244.724l62.45-36.055c.544-.313.983-.091.983.494a2.1,2.1,0,0,1-.983,1.631l-62.45,36.055c-.539.313-.979.091-.979-.5A2.107,2.107,0,0,1,193.159,244.724Z" transform="translate(-148.544 -127.349)" fill="#4c68a8" opacity="0.1"/>
      <path id="Path_158203" data-name="Path 158203" d="M193.159,254.134l62.45-36.055c.544-.313.983-.091.983.5a2.1,2.1,0,0,1-.983,1.626l-62.45,36.059c-.539.313-.979.091-.979-.5A2.116,2.116,0,0,1,193.159,254.134Z" transform="translate(-148.544 -132.496)" fill="#4c68a8" opacity="0.1"/>
      <path id="Path_158204" data-name="Path 158204" d="M193.164,290.912l22.952-13.393c.539-.313.979-.091.979.5a2.107,2.107,0,0,1-.979,1.626l-22.948,13.393c-.539.313-.979.091-.979-.494a2.107,2.107,0,0,1,.974-1.631Z" transform="translate(-148.549 -165.006)" fill="#4c68a8" opacity="0.1"/>
    </g>
    <g id="freepik--character-3--inject-74" transform="translate(169.882 84.915)">
      <path id="Path_158205" data-name="Path 158205" d="M363.419,228.971c3.321-10.774,6.551-17.873,3.258-20.071h0c-3.063.571-4.435,2.089-5.088,6.13-.684,4.236-2.107,10.144-2.936,13.551a40.325,40.325,0,0,1-3.058,8.232,1.744,1.744,0,0,1-.906.793,9.3,9.3,0,0,0-2.347,1.522c-.657.453-1.137.516-1.105.711a.861.861,0,0,0,1.024.634,6.223,6.223,0,0,0,1.427-.453,7.118,7.118,0,0,1-1.785,2.61c-1.608,1.359-1.359,2.687,1.219,2.841.906.054,3.067-.788,5.056-4.173a33.745,33.745,0,0,0,1.771-3.9C361.335,233.927,362.753,231.145,363.419,228.971Z" transform="translate(-350.893 -183.118)" fill="#ffa8a7"/>
      <path id="Path_158206" data-name="Path 158206" d="M378,208.617a5.686,5.686,0,0,0-4.1,1.577c-1.549,1.708-3.353,11.911-3.353,11.911s1.694,2.329,6.162,1.359Z" transform="translate(-361.639 -182.962)" fill="#4c68a8"/>
      <path id="Path_158207" data-name="Path 158207" d="M378,208.617a5.686,5.686,0,0,0-4.1,1.577c-1.549,1.708-3.353,11.911-3.353,11.911s1.694,2.329,6.162,1.359Z" transform="translate(-361.639 -182.962)" opacity="0.3"/>
      <rect id="Rectangle_37474" data-name="Rectangle 37474" width="3.43" height="6.116" transform="translate(24.894 98.036)" fill="#ffa8a7"/>
      <path id="Path_158208" data-name="Path 158208" d="M382.812,359.85l-3.43.127-.172-6.474,3.6-.122Z" transform="translate(-366.381 -262.14)" fill="#ffa8a7"/>
      <path id="Path_158209" data-name="Path 158209" d="M392.612,251.451c0,3.412-.5,30.867-.5,30.867a22.432,22.432,0,0,1,.77,6.565c-.258,5.12-.607,18.576-.607,18.576a4.354,4.354,0,0,1-3.819.082s-3.244-18.643-3.856-23.722c-.539-4.426-1.45-19.341-1.45-19.341l-1.858,17.339a21.293,21.293,0,0,1,.426,5.681c-.163,2.347-1.264,14.575-1.264,14.575a4.531,4.531,0,0,1-3.96.313s-1.953-18.412-1.993-20.569c-.045-2.456,1.142-30.4,1.142-30.4Z" transform="translate(-363.803 -206.368)" fill="#37474f"/>
      <path id="Path_158210" data-name="Path 158210" d="M399.29,377.377v-.512c-.331.15-1.092,3.171-2.451,4.476-1.083,1.024-2.56,2.211-2.936,3.357s2.057,1.853,3.067,1.667c1.173-.217,3.212-1.078,3.72-1.88s.752-1.975,1.169-2.56,1.359-1.237,1.595-1.916a4.1,4.1,0,0,0-.195-1.876c-.195-.689-.331-1.327-.539-1.269v.39a2.637,2.637,0,0,1-1.713.607C400.5,377.876,399.285,377.772,399.29,377.377Z" transform="translate(-374.395 -274.983)" fill="#263238"/>
      <path id="Path_158211" data-name="Path 158211" d="M369.664,365.224c-.177,0-.322.267-.716.711a7.531,7.531,0,0,1-2.016,1.513c-1.287.671-3.783,1.7-4.916,2.229-.7.331-.671,1.219.059,1.726a6.355,6.355,0,0,0,4.608.376c1.151-.267,2.655-1.359,3.6-1.318s2.718.05,3.43-.453.421-1.577.222-2.5c-.217-1.006-.485-2.578-.806-2.51v.349c-.412.648-2.542.906-3.448.453Z" transform="translate(-356.699 -268.493)" fill="#263238"/>
      <path id="Path_158212" data-name="Path 158212" d="M387.825,276.814a12.572,12.572,0,0,1-4.775-2.854,9.79,9.79,0,0,0,3.661,3.47l-.584,15.486Z" transform="translate(-368.481 -218.702)" fill="#263238"/>
      <path id="Path_158213" data-name="Path 158213" d="M391.665,209.332s2.682.249,2.492,5.36l-.594,8.155v12.233c-2.524,2.859-13.705,2.646-17.534-.231,0,0,.43-14.466.689-20.034.186-3.955,1.1-5.949,4.984-6.384l4.78.208Z" transform="translate(-364.641 -182.861)" fill="#4c68a8"/>
      <path id="Path_158214" data-name="Path 158214" d="M391.238,216.34l-.616,4.3-1.432-.027,1.617.258Z" transform="translate(-371.839 -187.187)" opacity="0.3"/>
      <path id="Path_158215" data-name="Path 158215" d="M389.26,178.579a5.219,5.219,0,0,1-5.106,5.323,5.306,5.306,0,0,1-5.111-5.319c-.222-5.2,2.288-5.323,5.111-5.323a5.219,5.219,0,0,1,5.106,5.319Z" transform="translate(-366.282 -163.625)" fill="#263238"/>
      <path id="Path_158216" data-name="Path 158216" d="M405.517,190.81a45.361,45.361,0,0,1-1.1,4.463,1.658,1.658,0,0,1-.96.806l.054-2.7Z" transform="translate(-379.644 -173.224)" fill="#263238"/>
      <path id="Path_158217" data-name="Path 158217" d="M405.269,178.681s.562-.14,1.16.793c.512.8.63,2.592-.177,4.7l-1.472.177Z" transform="translate(-380.366 -166.586)" fill="#263238"/>
      <path id="Path_158218" data-name="Path 158218" d="M391.1,181.506c.294.186.716-.408,1.083-.806a1.262,1.262,0,0,1,2.152.362,2.855,2.855,0,0,1-1.463,3.393c-1.617.53-1.858-.553-1.858-.553l-.127,6.071c-2.143,3.321-7,3.2-5.255-.159v-1.849a9.873,9.873,0,0,1-2.179.118,3.042,3.042,0,0,1-2.3-2.51c-.58-2.152-.8-3.887-.308-8.123.544-4.644,5.727-4.685,8.531-2.832S391.1,181.506,391.1,181.506Z" transform="translate(-367.126 -163.743)" fill="#ffa8a7"/>
      <path id="Path_158219" data-name="Path 158219" d="M397.789,205.55a7.769,7.769,0,0,1-2.1,2.632,5.926,5.926,0,0,1-2.542,1.078,5.632,5.632,0,0,1,1.812,2.016c.539,1.178,4.313-2.07,4.277-4.377,0,0-.589-2.315-1.4-2.46Z" transform="translate(-374.005 -180.679)" fill="#263238"/>
      <path id="Path_158220" data-name="Path 158220" d="M390.051,209.818s-1.164-.575-.643-2.51V205.46l-.512.068a4.5,4.5,0,0,0-1.223,2.125c-.118.53-.408,3.212.1,3.742S389,209.963,390.051,209.818Z" transform="translate(-370.905 -181.237)" fill="#263238"/>
      <path id="Path_158221" data-name="Path 158221" d="M387.336,174.181a.743.743,0,0,1,.4.023c.453.2.535,1.568.612,1.962.258,1.327.476,3.579.974,3.588.15,0,.716-.974,1.083-1.323.512-.485-.15-4.861-.15-4.861a2.134,2.134,0,0,0-.489-2.215,5.042,5.042,0,0,0-3.683-1.359,28.622,28.622,0,0,1-4.662-.308,12.361,12.361,0,0,0-1.463-.313.168.168,0,0,0-.131,0c-.05.041-.041.118-.027.181a4.865,4.865,0,0,0,.48,1.314,11.779,11.779,0,0,1-2.682-.53.258.258,0,0,0-.154,0c-.1.032-.122.168-.113.276a5.013,5.013,0,0,0,1.472,3.4,5.147,5.147,0,0,0,2.655.838A30.164,30.164,0,0,0,387.336,174.181Z" transform="translate(-365.35 -161.492)" fill="#263238"/>
      <path id="Path_158222" data-name="Path 158222" d="M405.728,177.3l1.79-1a.97.97,0,0,0-1.359-.453A1.137,1.137,0,0,0,405.728,177.3Z" transform="translate(-380.824 -164.97)" fill="#263238"/>
      <path id="Path_158223" data-name="Path 158223" d="M391.74,202.572a19.85,19.85,0,0,0,3.579-1.069,3.135,3.135,0,0,0,1.282-1.323,4.4,4.4,0,0,1-.729,1.559c-.675.906-4.132,1.568-4.132,1.568Z" transform="translate(-373.234 -178.349)" fill="#f28f8f"/>
      <path id="Path_158224" data-name="Path 158224" d="M393.149,188.98a.53.53,0,1,0,.53-.58.548.548,0,0,0-.53.58Z" transform="translate(-374.004 -171.906)" fill="#263238"/>
      <path id="Path_158225" data-name="Path 158225" d="M395,184.163l1.137.652a.725.725,0,0,0-.231-.933.621.621,0,0,0-.906.281Z" transform="translate(-375.017 -169.381)" fill="#263238"/>
      <path id="Path_158226" data-name="Path 158226" d="M390.8,198.12l-1.214.453a.634.634,0,0,0,.825.421.716.716,0,0,0,.39-.874Z" transform="translate(-372.058 -177.222)" fill="#f28f8f"/>
      <path id="Path_158227" data-name="Path 158227" d="M382.225,184.343l1.038-.834a.612.612,0,0,0-.906-.14A.734.734,0,0,0,382.225,184.343Z" transform="translate(-367.96 -169.077)" fill="#263238"/>
      <path id="Path_158228" data-name="Path 158228" d="M383.389,188.63a.548.548,0,0,0,.53.571.575.575,0,1,0,0-1.151A.562.562,0,0,0,383.389,188.63Z" transform="translate(-368.666 -171.714)" fill="#263238"/>
      <path id="Path_158229" data-name="Path 158229" d="M387.291,188.35l-.063,3.357-1.907-.439Z" transform="translate(-369.722 -171.878)" fill="#f28f8f"/>
      <path id="Path_158230" data-name="Path 158230" d="M421.577,195.493c.766-1.015,2.315,1.237,3.031,2.791s.729,2.433.14,3.049-1.7.245-2.809-1.228A4.994,4.994,0,0,1,421.577,195.493Z" transform="translate(-389.334 -175.647)" fill="#4c68a8"/>
      <path id="Path_158231" data-name="Path 158231" d="M421.577,195.493c.766-1.015,2.315,1.237,3.031,2.791s.729,2.433.14,3.049-1.7.245-2.809-1.228A4.994,4.994,0,0,1,421.577,195.493Z" transform="translate(-389.334 -175.647)" opacity="0.5"/>
      <path id="Path_158232" data-name="Path 158232" d="M420.527,172.14c-2.718,6.343-6.5,9.918-8.2,14-2.225-.15-3.96-5.527-2.3-7.824,0,0,6.515-7.054,7.1-9.827a47.567,47.567,0,0,0,1.169-8.608,1.445,1.445,0,0,0-.4-.906,7.817,7.817,0,0,1-1.124-2.138c-.34-.634-.716-.87-.607-1.015a.82.82,0,0,1,1.11-.082,4.332,4.332,0,0,1,.838.806,4.649,4.649,0,0,0-.385-2.383c-.757-1.713-.571-2.582,1.735-1.975,1.45.385,2.356,1.59,2.573,5.065a34.372,34.372,0,0,1,.027,4.345c-.254,2.678-.412,5.468-.743,7.7a11.634,11.634,0,0,1-.793,2.841Z" transform="translate(-382.874 -151.994)" fill="#ffa8a7"/>
      <path id="Path_158233" data-name="Path 158233" d="M408.8,202.329l5.745-6.569s-.684,1.6.811,3.933,2.383,1.926,2.383,1.926-3.393,4.952-4.3,6.61-1.853,3.058-1.853,3.058a1.092,1.092,0,0,1-1.074.584C409.67,211.871,407.436,208.129,408.8,202.329Z" transform="translate(-382.329 -175.931)" fill="#4c68a8"/>
      <path id="Path_158234" data-name="Path 158234" d="M408.8,202.329l5.745-6.569s-.684,1.6.811,3.933,2.383,1.926,2.383,1.926-3.393,4.952-4.3,6.61-1.853,3.058-1.853,3.058a1.092,1.092,0,0,1-1.074.584C409.67,211.871,407.436,208.129,408.8,202.329Z" transform="translate(-382.329 -175.931)" opacity="0.3"/>
    </g>
    <g id="freepik--character-2--inject-74" transform="translate(119.637 100.308)">
      <path id="Path_158235" data-name="Path 158235" d="M301.651,242.85l2.7,3.6-2.909,3.33L297.7,245.4Z" transform="translate(-271.555 -217.08)" fill="#f28f8f"/>
      <path id="Path_158236" data-name="Path 158236" d="M286.87,224.77c2.36.109,3.484.453,4.721,1.93s7.417,10.407,7.417,10.407-1.092,3.063-3.484,2.8l-4.345-4.481Z" transform="translate(-265.631 -207.191)" fill="#455a64"/>
      <path id="Path_158237" data-name="Path 158237" d="M260.5,389.89a17.528,17.528,0,0,0-.272,2.845c-.032,1.722-.349,2.338-.39,3.751a4.083,4.083,0,0,0,.906,3.131c.675.906,2.379,1.735,3.108.2a6.128,6.128,0,0,0,.4-4.132c-.236-1.59-.272-2.546-.408-3.8-.127-1.105-.272-1.944-.272-1.944Z" transform="translate(-250.846 -297.502)" fill="#263238"/>
      <path id="Path_158238" data-name="Path 158238" d="M265.256,359.874l-5.686-.1c.086,3.8.689,10.112.788,13.669,0,.671,0,5.206.236,6.588.381,2.07,2.836,1.79,2.968.553s-.159-6.538-.149-7.086c-.023-2.265,1.047-8.237,1.608-12.337C265.048,360.934,265.229,360.046,265.256,359.874Z" transform="translate(-250.7 -281.028)" fill="#ffbda7"/>
      <path id="Path_158239" data-name="Path 158239" d="M289.648,383.38s-.29,0-.34.254-.068.734-.186,1.205a6.8,6.8,0,0,0-.2,2.265c.1.53,1.3,1.318,2.134,1.459a6.409,6.409,0,0,1,2.641,1.568,6.343,6.343,0,0,0,3.674,1.441,3.113,3.113,0,0,0,2.8-1.2c.453-.743-.412-.829-1.989-1.853l-1.228-.8c-2.5-1.631-3.412-2.505-4.118-4.136Z" transform="translate(-266.742 -293.941)" fill="#263238"/>
      <path id="Path_158240" data-name="Path 158240" d="M292.391,369.551c-.041-1.178.557-9.831.557-9.831l-4.889.553c1.16,6.9,1.25,9.247,1.119,10.253h0a.977.977,0,0,0-.032.285c0,1.359,1.518,2.066,2.718,2.958a10.613,10.613,0,0,0,3.067,1.916c.906.313,2.587.453,2.8-.122a37.807,37.807,0,0,1-4.531-3.783A2.849,2.849,0,0,1,292.391,369.551Z" transform="translate(-266.282 -281)" fill="#ffbda7"/>
      <path id="Path_158241" data-name="Path 158241" d="M260.591,272.332c-2.664,5.826.1,26.341.1,26.341-.082.947-1.164,2.8-1.563,6.968-.476,4.911.874,18.073.874,18.073a3.171,3.171,0,0,0,3.171.068s3.439-19.337,4.078-24.221c.539-4.268,1.572-13.646,1.572-13.646l2.936,13.619a25.3,25.3,0,0,0-.933,4.213c-.276,2.872,2.524,17.3,2.524,17.3a3.964,3.964,0,0,0,3.171-.063s1.237-18.639,1.5-22.1c.453-5.817-1.11-23.962-2.175-27.406Z" transform="translate(-250.402 -232.739)" fill="#4c68a8"/>
      <path id="Path_158242" data-name="Path 158242" d="M260.591,272.332c-2.664,5.826.1,26.341.1,26.341-.082.947-1.164,2.8-1.563,6.968-.476,4.911.874,18.073.874,18.073a3.171,3.171,0,0,0,3.171.068s3.439-19.337,4.078-24.221c.539-4.268,1.572-13.646,1.572-13.646l2.936,13.619a25.3,25.3,0,0,0-.933,4.213c-.276,2.872,2.524,17.3,2.524,17.3a3.964,3.964,0,0,0,3.171-.063s1.237-18.639,1.5-22.1c.453-5.817-1.11-23.962-2.175-27.406Z" transform="translate(-250.402 -232.739)" opacity="0.5"/>
      <path id="Path_158243" data-name="Path 158243" d="M280.63,294.009l.865-5.41s3.661-.757,5.323-2.32a9.46,9.46,0,0,1-4.331,2.877l-.974,4.168,1.7,12.609Z" transform="translate(-262.218 -240.833)" opacity="0.2"/>
      <path id="Path_158244" data-name="Path 158244" d="M265.5,225.157l3.624.942v-7.67h0a2.674,2.674,0,0,0-3.624,2.582Z" transform="translate(-253.943 -203.655)" fill="#4c68a8"/>
      <path id="Path_158245" data-name="Path 158245" d="M265.5,225.157l3.624.942v-7.67h0a2.674,2.674,0,0,0-3.624,2.582Z" transform="translate(-253.943 -203.655)" opacity="0.6"/>
      <path id="Path_158246" data-name="Path 158246" d="M271.285,201.841l-1.3-.027a7.36,7.36,0,0,1-7.027-7.648h0a8.046,8.046,0,0,1,7.811-8.2h0a8,8,0,0,1,7.87,8.11v.453A7.344,7.344,0,0,1,271.285,201.841Z" transform="translate(-252.552 -185.97)" fill="#4c68a8"/>
      <path id="Path_158247" data-name="Path 158247" d="M271.285,201.841l-1.3-.027a7.36,7.36,0,0,1-7.027-7.648h0a8.046,8.046,0,0,1,7.811-8.2h0a8,8,0,0,1,7.87,8.11v.453A7.344,7.344,0,0,1,271.285,201.841Z" transform="translate(-252.552 -185.97)" opacity="0.6"/>
      <path id="Path_158248" data-name="Path 158248" d="M264.878,189.211a.983.983,0,0,0-1.255-.707l.349,1.359a.906.906,0,0,0-.263-.227.965.965,0,0,0-1.359.453l1.767,1.038a1.074,1.074,0,0,0,.118-.575A1.119,1.119,0,0,0,264.878,189.211Z" transform="translate(-252.22 -187.33)" fill="#4c68a8"/>
      <path id="Path_158249" data-name="Path 158249" d="M264.878,189.211a.983.983,0,0,0-1.255-.707l.349,1.359a.906.906,0,0,0-.263-.227.965.965,0,0,0-1.359.453l1.767,1.038a1.074,1.074,0,0,0,.118-.575A1.119,1.119,0,0,0,264.878,189.211Z" transform="translate(-252.22 -187.33)" opacity="0.6"/>
      <path id="Path_158250" data-name="Path 158250" d="M266.08,224.913a33.343,33.343,0,0,0-3.624.7c1.4,3.443-.8,8.762-.8,8.762l2.08,6.4c-1.436,2.94-2.619,4.4-3.108,6.8,1.323,2.582,10.661,5.047,16.741.34a79.923,79.923,0,0,0-.97-10.348c1.989-3.883,1.667-5.024,1.26-6.379-.947-3.149-2.859-4.358-5.138-6.578l-1.359-.145Z" transform="translate(-251.28 -207.022)" fill="#37474f"/>
      <path id="Path_158251" data-name="Path 158251" d="M263.964,247.375a7.254,7.254,0,0,1,3.52-1.486l-2.2-1.25-2.456-5.931a13.592,13.592,0,0,0,1.482-6.529l-1.414-.34a17.616,17.616,0,0,1-1.25,6.574l2.08,6.4c-1.436,2.94-2.619,4.4-3.108,6.8.906,1.767,5.568,3.48,10.371,2.872C264.557,254.049,262.881,248.495,263.964,247.375Z" transform="translate(-251.274 -211.058)" fill="#263238"/>
      <path id="Path_158252" data-name="Path 158252" d="M282.35,281.9l.263-.027A1.566,1.566,0,0,0,282.35,281.9Z" transform="translate(-263.159 -238.421)" fill="#e6e6e6"/>
      <path id="Path_158253" data-name="Path 158253" d="M278.2,194.83c.779.716,1.753,2.265,1.676,6.8-.068,3.851-1.26,4.807-1.862,5.083a6.1,6.1,0,0,1-2.886-.072v1.595s1.486,1.649,1.4,2.718-2.12,1.5-3.584.453a13.7,13.7,0,0,1-2.718-2.741v-4.843s-.661.675-1.812-.34c-.906-.843-1.25-2.265-.53-3.036a1.586,1.586,0,0,1,2.578.521,14.715,14.715,0,0,0,4.966-1.432A4.916,4.916,0,0,0,278.2,194.83Z" transform="translate(-255.034 -190.816)" fill="#ffbda7"/>
      <path id="Path_158254" data-name="Path 158254" d="M283.246,207.373a.453.453,0,1,1-.489-.453A.48.48,0,0,1,283.246,207.373Z" transform="translate(-263.154 -197.428)" fill="#263238"/>
      <path id="Path_158255" data-name="Path 158255" d="M284.7,215l1.21.394a.621.621,0,0,1-.784.453A.7.7,0,0,1,284.7,215Z" transform="translate(-264.428 -201.848)" fill="#f79776"/>
      <path id="Path_158256" data-name="Path 158256" d="M292.671,203.135l-1.1-.376a.539.539,0,0,1,.7-.385A.643.643,0,0,1,292.671,203.135Z" transform="translate(-268.202 -194.925)" fill="#263238"/>
      <path id="Path_158257" data-name="Path 158257" d="M274.05,207.42v1.626a.766.766,0,0,0,.8-.779A.843.843,0,0,0,274.05,207.42Z" transform="translate(-258.62 -197.702)" fill="#4c68a8"/>
      <path id="Path_158258" data-name="Path 158258" d="M274.05,207.42v1.626a.766.766,0,0,0,.8-.779A.843.843,0,0,0,274.05,207.42Z" transform="translate(-258.62 -197.702)" opacity="0.6"/>
      <path id="Path_158259" data-name="Path 158259" d="M291.907,207a.494.494,0,0,1-.453.53.5.5,0,1,1,.453-.53Z" transform="translate(-267.836 -197.212)" fill="#263238"/>
      <path id="Path_158260" data-name="Path 158260" d="M287.409,206.12l-.009,3.153,1.468-.485Z" transform="translate(-265.921 -196.991)" fill="#f79776"/>
      <path id="Path_158261" data-name="Path 158261" d="M279.488,218.66c-1.192-.154-3.625-.874-4.028-1.88a2.628,2.628,0,0,0,.865,1.282,12.486,12.486,0,0,0,3.171,1.359Z" transform="translate(-259.391 -202.821)" fill="#f79776"/>
      <path id="Path_158262" data-name="Path 158262" d="M247.181,261s2.909,4.132,3.407,4.671.843.358,1.382.118a15.293,15.293,0,0,1,2.021-.657c.906-.222,1.078.6.2,1.182-.634.426-1.359.607-1.06.956a6.736,6.736,0,0,0,2.12,1.3c2.148.847,1.98,1.273,1.586,1.966-.344.607-1.359,1.912-5.183.372a16.462,16.462,0,0,1-4.866-3.624c-1.518-1.681-3.887-4.694-3.887-4.694Z" transform="translate(-241.582 -227.007)" fill="#ffbda7"/>
      <path id="Path_158263" data-name="Path 158263" d="M251.725,226.67c-1.051.068-3.031.322-5.514,4.445-2.179,3.624-5.555,8.522-6.18,10.275-.254.711.734,2.184,2.007,3.692a6.287,6.287,0,0,0,4.136-2.238,8.074,8.074,0,0,0-.8-1.454l5.092-5.808a8.288,8.288,0,0,0,2.338-4.078C253.243,229,253.107,227.037,251.725,226.67Z" transform="translate(-239.992 -208.23)" fill="#455a64"/>
      <path id="Path_158264" data-name="Path 158264" d="M309.491,243.93l-12.554,3.307-3.457,14.2,11.938-3.466Z" transform="translate(-269.247 -217.67)" fill="#4c68a8"/>
      <path id="Path_158265" data-name="Path 158265" d="M309.491,243.93l-12.554,3.307-3.457,14.2,11.938-3.466Z" transform="translate(-269.247 -217.67)" opacity="0.25"/>
      <g id="Group_100010" data-name="Group 100010" transform="translate(34.572 36.318)" opacity="0.1">
        <path id="Path_158266" data-name="Path 158266" d="M316.3,266.13a2.478,2.478,0,0,0,2.347,1.4l.091-.313Z" transform="translate(-316.3 -266.13)"/>
      </g>
      <g id="Group_100011" data-name="Group 100011" transform="translate(31.115 27.833)" opacity="0.1">
        <path id="Path_158267" data-name="Path 158267" d="M314.016,248.086l.1-.48c.059-.263-.68-.276-1.645,0l-1.853.453c-.965.254-1.812.671-1.853.933l-.1.48Z" transform="translate(-308.67 -247.404)"/>
      </g>
      <path id="Path_158268" data-name="Path 158268" d="M314.708,244.158c.036-.168-.263-.213-.666-.1l-.734.2s.217-1.038-1.4-.675a2.555,2.555,0,0,0-1.984,1.54l-.779.222c-.453.122-.825.353-.874.516l-.1.3,6.47-1.7Z" transform="translate(-277.281 -217.441)" fill="#37474f"/>
      <path id="Path_158269" data-name="Path 158269" d="M315.472,245.819c-.589.145-.838.222-.906.63s-.145.806-.145.806l-2.859.757s.14-.589.186-.816-.054-.372-.512-.249l-.036-.181,4.485-1.146Z" transform="translate(-278.938 -218.595)" fill="#37474f"/>
      <path id="Path_158270" data-name="Path 158270" d="M314.4,248.176l.1-.48c.059-.263-.68-.276-1.645,0l-1.853.453c-.965.254-1.812.671-1.853.933l-.1.48Z" transform="translate(-277.762 -219.62)" fill="#37474f"/>
      <path id="Path_158271" data-name="Path 158271" d="M320.33,253.662s-.453,1.608-.575,1.989-1.518,1.074-2.437,1.327-1.935.553-1.5,1.844c.4,1.192,1.921,1.463,2.691,1.427a2.9,2.9,0,0,0,2.265-1.962c.53-1.522.245-3.144.453-4.032S320.792,253.132,320.33,253.662Z" transform="translate(-281.409 -222.84)" fill="#ffbda7"/>
    </g>
    <g id="freepik--character-1--inject-74" transform="translate(67.388 115.626)">
      <path id="Path_158272" data-name="Path 158272" d="M190.848,253.622c-1.722-1.735-2.338-1.06-2.555.843a8.455,8.455,0,0,1-.575,2.324,4.3,4.3,0,0,0-.322-1.146.838.838,0,0,0-1.024-.5c-.168.068.041.453,0,1.21a7.967,7.967,0,0,0-.118,2.465,1.617,1.617,0,0,1-.168,1.105c-.906,1.722-3.892,4.9-5.985,7.195l-7.951-7.181c-2.718-2.447-3.6-3.547-6.221-3.371a7.1,7.1,0,0,1,2.229,1.359c1.219,1.028.929,6.914.929,6.914s9.025,6.47,9.967,7.086c.136.091.276.172.412.249a2.229,2.229,0,0,0,2.718-.521c1.926-2.2,4.734-6.538,6.343-8.789a27.275,27.275,0,0,0,1.962-3.416C192.1,256.24,191.927,254.709,190.848,253.622Z" transform="translate(-147.236 -237.741)" fill="#914f4e"/>
      <path id="Path_158273" data-name="Path 158273" d="M166.55,260.912a4.531,4.531,0,0,1,3.624.906c1.549,1.178,8.155,7.249,8.155,7.249a5.879,5.879,0,0,1-3.171,5.124l-8.1-5.709Z" transform="translate(-147.575 -242.236)" fill="#b7971e"/>
      <rect id="Rectangle_37475" data-name="Rectangle 37475" width="3.43" height="6.116" transform="translate(7.73 91.148)" fill="#914f4e"/>
      <path id="Path_158275" data-name="Path 158275" d="M167.98,412.424l3.43.122.172-6.474-3.6-.122Z" transform="translate(-148.357 -321.603)" fill="#914f4e"/>
      <path id="Path_158276" data-name="Path 158276" d="M140.3,304.015c0,3.412.5,30.872.5,30.872a22.364,22.364,0,0,0-.77,6.56c.258,5.124.607,18.576.607,18.576a4.363,4.363,0,0,0,3.819.077s3.244-18.643,3.86-23.718c.535-4.431,1.445-19.346,1.445-19.346l1.858,17.343a21.257,21.257,0,0,0-.426,5.677c.163,2.347,1.264,14.575,1.264,14.575a4.531,4.531,0,0,0,3.964.317s1.948-18.417,1.989-20.569c.045-2.456-1.142-30.409-1.142-30.409Z" transform="translate(-133.06 -265.826)" fill="#37474f"/>
      <path id="Path_158277" data-name="Path 158277" d="M144.243,429.943v-.507c.331.15,1.092,3.171,2.451,4.472,1.083,1.028,2.56,2.216,2.936,3.362s-2.057,1.848-3.067,1.663c-1.173-.217-3.212-1.078-3.72-1.876s-.752-1.98-1.169-2.564-1.359-1.237-1.595-1.916a4.531,4.531,0,0,1,.195-1.876c.159-.63.331-1.323.539-1.264v.39a2.664,2.664,0,0,0,1.717.6C143.029,430.446,144.247,430.342,144.243,429.943Z" transform="translate(-133.083 -334.446)" fill="#263238"/>
      <path id="Path_158278" data-name="Path 158278" d="M170.166,417.8c.177,0,.322.267.716.711a7.52,7.52,0,0,0,2.016,1.509c1.287.671,3.783,1.7,4.916,2.234.707.331.671,1.219-.059,1.722a6.4,6.4,0,0,1-4.608.381c-1.151-.272-2.655-1.359-3.624-1.318s-2.718.045-3.43-.453-.421-1.581-.222-2.5c.217-1.01.489-2.582.806-2.514v.349c.412.652,2.542.906,3.448.453Z" transform="translate(-147.077 -327.956)" fill="#263238"/>
      <path id="Path_158279" data-name="Path 158279" d="M161.55,329.384a12.572,12.572,0,0,0,4.775-2.854,9.789,9.789,0,0,1-3.661,3.47l.584,15.49Z" transform="translate(-144.84 -278.165)" fill="#263238"/>
      <path id="Path_158280" data-name="Path 158280" d="M141.58,261.912s-2.682.245-2.492,5.36l.594,8.155-.054,12.233c2.519,2.859,13.705,2.65,17.533-.231,0,0-.394-14.466-.652-20.034-.186-3.955-1.1-5.949-4.984-6.384l-4.784.208Z" transform="translate(-132.55 -242.33)" fill="#826c19"/>
      <path id="Path_158281" data-name="Path 158281" d="M161.43,268.92l.616,4.3,1.436-.027-1.622.254Z" transform="translate(-144.775 -246.656)" opacity="0.3"/>
      <path id="Path_158282" data-name="Path 158282" d="M125.186,280.747c1.391-11.191,4.594-16.763,8.495-17.407L133.4,270.5a63.2,63.2,0,0,0-3.715,11.848,52.808,52.808,0,0,0-.951,9.895,1.758,1.758,0,0,0,.5,1.1,9.794,9.794,0,0,1,1.518,2.347c.408.693.825.938.716,1.105a.865.865,0,0,1-1.2.154,6.5,6.5,0,0,1-1.115-1,7.086,7.086,0,0,0,.562,3.113c.906,1.885.761,2.877-1.767,2.32-1.586-.344-2.718-2.016-3.171-5.917a34.162,34.162,0,0,1-.077-4.377C124.878,287.357,124.909,282.985,125.186,280.747Z" transform="translate(-124.668 -243.604)" fill="#914f4e"/>
      <path id="Path_158283" data-name="Path 158283" d="M134.926,262.93a5.21,5.21,0,0,0-5.346,3.171c-1.409,2.718-2.492,8.468-3.04,10.348a12.869,12.869,0,0,0,5.681,1.7l1.916-6.651S135.434,268.4,134.926,262.93Z" transform="translate(-125.692 -243.38)" fill="#b7971e"/>
      <path id="Path_158285" data-name="Path 158285" d="M154.279,231.089a5.111,5.111,0,1,0,5.106-5.319A5.219,5.219,0,0,0,154.279,231.089Z" transform="translate(-140.863 -223.055)" fill="#263238"/>
      <path id="Path_158286" data-name="Path 158286" d="M147.11,243.38a45.364,45.364,0,0,0,1.1,4.463,1.676,1.676,0,0,0,.965.811l-.059-2.718Z" transform="translate(-136.943 -232.687)" fill="#263238"/>
      <path id="Path_158287" data-name="Path 158287" d="M147.391,231.254s-.58-.118-1.16.788c-.512.8-.625,2.592.177,4.7l1.472.177Z" transform="translate(-136.241 -226.052)" fill="#263238"/>
      <path id="Path_158288" data-name="Path 158288" d="M147.24,234.058c-.294.186-.716-.408-1.083-.8a1.258,1.258,0,0,0-2.148.362,2.848,2.848,0,0,0,1.459,3.389c1.617.53,1.858-.553,1.858-.553l.127,6.076c2.143,3.316,7,3.2,5.256-.163V240.5a9.873,9.873,0,0,0,2.179.118,3.036,3.036,0,0,0,2.3-2.51c.58-2.152.8-3.887.308-8.119-.539-4.639-5.718-4.689-8.518-2.854S147.24,234.058,147.24,234.058Z" transform="translate(-135.156 -223.188)" fill="#914f4e"/>
      <path id="Path_158289" data-name="Path 158289" d="M150,258.12a7.77,7.77,0,0,0,2.1,2.632,5.994,5.994,0,0,0,2.542,1.083,5.645,5.645,0,0,0-1.812,2.012c-.535,1.182-4.313-2.066-4.277-4.372,0,0,.594-2.315,1.4-2.465Z" transform="translate(-137.73 -240.142)" fill="#b7971e"/>
      <path id="Path_158290" data-name="Path 158290" d="M162,262.377s1.164-.58.643-2.514V258l.512.068a4.5,4.5,0,0,1,1.223,2.125c.118.53.408,3.212-.1,3.742S163.042,262.531,162,262.377Z" transform="translate(-145.087 -240.683)" fill="#b7971e"/>
      <path id="Path_158291" data-name="Path 158291" d="M149.8,231.169c-.15,0-.716-.974-1.083-1.323-.512-.485.15-4.866.15-4.866a2.148,2.148,0,0,1,.489-2.215c.7-.8,1.871-.906,3.865-1.214a20.855,20.855,0,0,0,2.365-.43,13.893,13.893,0,0,0,2.365-1.151,1.187,1.187,0,0,1,.8-.181.775.775,0,0,1,.512.58,2.379,2.379,0,0,1,0,.8,1.3,1.3,0,0,1,1.835.063,1.876,1.876,0,0,1,.29,1.939,3.47,3.47,0,0,1-1.359,1.527c-2.505,1.694-5.464,1.223-8.273.906a.7.7,0,0,0-.4.027c-.453.2-.535,1.563-.612,1.957C150.514,228.9,150.3,231.16,149.8,231.169Z" transform="translate(-137.714 -219.779)" fill="#263238"/>
      <path id="Path_158292" data-name="Path 158292" d="M147.125,229.863l-1.785-1a.965.965,0,0,1,1.359-.453A1.137,1.137,0,0,1,147.125,229.863Z" transform="translate(-135.975 -224.43)" fill="#263238"/>
      <path id="Path_158293" data-name="Path 158293" d="M157.531,255.112a19.85,19.85,0,0,1-3.579-1.069,3.108,3.108,0,0,1-1.282-1.323,4.4,4.4,0,0,0,.729,1.559c.675.906,4.132,1.572,4.132,1.572Z" transform="translate(-139.984 -237.795)" fill="#783736"/>
      <path id="Path_158294" data-name="Path 158294" d="M160,241.255a.553.553,0,0,1-.53.575.562.562,0,0,1-.53-.58.53.53,0,1,1,1.06,0Z" transform="translate(-143.413 -231.232)" fill="#263238"/>
      <path id="Path_158295" data-name="Path 158295" d="M157.8,236.375l-1.137.652a.725.725,0,0,1,.263-.942.625.625,0,0,1,.874.29Z" transform="translate(-142.126 -228.654)" fill="#263238"/>
      <path id="Path_158296" data-name="Path 158296" d="M162.821,250.69l1.214.476a.63.63,0,0,1-.825.417A.716.716,0,0,1,162.821,250.69Z" transform="translate(-145.514 -236.685)" fill="#783736"/>
      <path id="Path_158297" data-name="Path 158297" d="M171.556,237.033l-1.2-.58a.612.612,0,0,1,.847-.34A.734.734,0,0,1,171.556,237.033Z" transform="translate(-149.659 -228.678)" fill="#263238"/>
      <path id="Path_158298" data-name="Path 158298" d="M169.982,241.211a.535.535,0,1,1-1.065,0,.548.548,0,0,1,.53-.571A.557.557,0,0,1,169.982,241.211Z" transform="translate(-148.869 -231.188)" fill="#263238"/>
      <path id="Path_158299" data-name="Path 158299" d="M164.62,240.99l.059,3.357,1.907-.435Z" transform="translate(-146.519 -231.38)" fill="#783736"/>
      <path id="Path_158300" data-name="Path 158300" d="M157.572,238.512a1.327,1.327,0,1,0,0,2.655h.24a1.327,1.327,0,0,0,0-2.655ZM156,239.839a1.586,1.586,0,0,1,1.568-1.6h.245a1.6,1.6,0,0,1,0,3.171h-.24A1.581,1.581,0,0,1,156,239.839Z" transform="translate(-141.805 -229.876)" fill="#263238"/>
      <path id="Path_158301" data-name="Path 158301" d="M168.108,238.512a1.327,1.327,0,1,0,0,2.655h.24a1.327,1.327,0,0,0,0-2.655Zm-1.568,1.327a1.586,1.586,0,0,1,1.568-1.6h.24a1.6,1.6,0,0,1,0,3.171h-.24a1.581,1.581,0,0,1-1.559-1.572Z" transform="translate(-147.57 -229.876)" fill="#263238"/>
      <path id="Path_158302" data-name="Path 158302" d="M163.147,240.22a1.037,1.037,0,0,1,.829-.43.838.838,0,0,1,.72.281l.213-.163a1.069,1.069,0,0,0-.947-.385,1.278,1.278,0,0,0-1.042.557Z" transform="translate(-145.59 -230.573)" fill="#263238"/>
      <rect id="Rectangle_37476" data-name="Rectangle 37476" width="2.7" height="0.267" transform="translate(11.64 9.633)" fill="#263238"/>
    </g>
  </g>
</svg>
