<svg xmlns="http://www.w3.org/2000/svg" width="104.161" height="120" viewBox="0 0 104.161 120">
  <g id="Group_99961" data-name="Group 99961" transform="translate(-139.358 -204)">
    <path id="Path_155995" data-name="Path 155995" d="M165.421,324c-2.113-.7-3.755-1.907-4.29-4.2a8.309,8.309,0,0,1-.169-1.855q-.019-7.968-.007-15.937v-1.442h-1.3c-3.672,0-7.344.01-11.016,0-5.557-.018-9.263-3.7-9.268-9.253q-.019-19.687,0-39.373A6.3,6.3,0,0,1,139.4,251a1.479,1.479,0,0,1,1.566-1.431,2.921,2.921,0,0,1,1.708,1.1c.284.357.2,1.044.2,1.583.009,12.89.086,25.781-.04,38.669-.04,4.03,2.753,6.3,6.142,6.162,3.934-.158,7.879-.037,11.982-.037v-1.311c0-3.047-.014-6.093,0-9.14a5.509,5.509,0,0,1,5.575-5.7c1.015-.028,2.032-.035,3.046,0a1.76,1.76,0,1,1-.064,3.5c-.976.019-1.954-.026-2.929.016a2.007,2.007,0,0,0-2.11,2.154c-.024.859-.01,1.718,0,2.578a5.568,5.568,0,0,0,2.866,5.045c2.317,1.37,4.657,2.7,7.025,3.984,3.648,1.973,7.606,2.087,11.609,1.851.587-3.836,2.518-5.835,5.552-5.787,2.985.047,4.956,2.157,5.341,5.792,5.367.12,10.776.563,15.637-2.542,1.018-.65,2.111-1.184,3.136-1.824A5.56,5.56,0,0,0,218.4,290.8q.04-2.108,0-4.218a2.018,2.018,0,0,0-2.1-2.17c-.389-.024-.781-.008-1.172-.008H177.862c-.352,0-.7.013-1.055-.007a1.744,1.744,0,1,1-.053-3.487c.773-.057,1.555-.011,2.5-.011,0-1.069-.01-2.069,0-3.068a4.981,4.981,0,0,1,5.106-5.248q7.089-.085,14.18,0a4.984,4.984,0,0,1,5.086,5.269c.011.968,0,1.936,0,3.034h2.053c3.477,0,6.953-.019,10.43.006a5.517,5.517,0,0,1,5.81,5.817c.013,3.392,0,6.783,0,10.245.374.033.672.082.971.082,3.828,0,7.657.016,11.485,0A5.255,5.255,0,0,0,240,291.386q.012-33.1,0-66.207v-1.023H142.878v1.307q0,8.964-.006,17.929a4.836,4.836,0,0,1-.147,1.384,1.568,1.568,0,0,1-1.8,1.171,1.6,1.6,0,0,1-1.536-1.5,8.9,8.9,0,0,1-.03-1.17q0-14.765,0-29.53c0-5.255,2.12-8.1,7.137-9.6.066-.02.114-.1.17-.148h89.539a1.118,1.118,0,0,0,.282.186c4.637,1.286,7.021,4.344,7.022,9.094q.011,39.016,0,78.032c0,5.543-3.72,9.231-9.273,9.248-3.672.012-7.343,0-11.015,0h-1.3v1.446q0,7.967-.007,15.934a8.406,8.406,0,0,1-.172,1.855c-.531,2.3-2.174,3.5-4.287,4.2ZM240,220.487c0-1.985.006-3.856,0-5.726a23.422,23.422,0,0,0-.065-2.809c-.334-2.669-2.641-4.435-5.718-4.435q-42.774,0-85.548,0c-.273,0-.547,0-.82.01a5.221,5.221,0,0,0-4.951,5c-.047,1.248-.017,2.5-.019,3.749,0,1.387,0,2.775,0,4.209ZM186.065,303.6c-3.926.106-7.81.2-11.351-1.449-3.473-1.62-6.8-3.561-10.243-5.392q0,10.591,0,21.114c0,1.946.658,2.612,2.587,2.612q24.368,0,48.737,0c1.945,0,2.609-.659,2.61-2.59q.006-9.313,0-18.626c0-.328-.032-.656-.071-1.393-6.437,5.269-13.729,6.433-21.43,5.6-.52,5.275-2.077,7.455-5.374,7.332a6.945,6.945,0,0,1-3.524-1.272C186.044,308.146,185.982,305.9,186.065,303.6Zm14.04-22.762c0-1.123.038-2.17-.011-3.213a1.46,1.46,0,0,0-1.588-1.519q-7.082-.025-14.164,0a1.424,1.424,0,0,0-1.547,1.43c-.066,1.078-.015,2.163-.015,3.3Zm-6.82,21.741q0-1.345,0-2.69c0-.078,0-.156-.005-.234a1.887,1.887,0,0,0-1.85-1.883,1.835,1.835,0,0,0-1.819,1.9c-.046,1.909-.043,3.82,0,5.73a1.837,1.837,0,1,0,3.666-.018C193.314,304.448,193.282,303.511,193.285,302.576Z" fill="#fe502d"/>
    <path id="Path_155996" data-name="Path 155996" d="M378.263,323.939q5.211,0,10.422,0c1.659,0,2.259.592,2.261,2.25q.011,10.422,0,20.843c0,1.681-.583,2.287-2.227,2.289q-10.481.014-20.963,0c-1.673,0-2.261-.579-2.263-2.255q-.017-10.421,0-20.843c0-1.736.582-2.283,2.346-2.286Q373.051,323.934,378.263,323.939Zm8.915,16.514.17-.108V327.509H369.091v13.357c.847-1.491,1.558-2.731,3.095-3.029a3.791,3.791,0,0,1,3.794,1.5c.69-1.22,1.345-2.317,1.94-3.446a3.614,3.614,0,0,1,6.7.027C385.438,337.452,386.323,338.945,387.178,340.454Zm-14.23.834-2.581,4.457h15.746l-4.823-8.543c-.274.453-.476.77-.662,1.1-1,1.763-1.982,3.542-3.013,5.288-.9,1.518-2.382,1.506-3.315,0C373.871,342.9,373.475,342.188,372.948,341.288Z" transform="translate(-155.463 -82.457)" fill="#fe502d"/>
    <path id="Path_155997" data-name="Path 155997" d="M177.822,323.94q5.212,0,10.423,0c1.673,0,2.269.571,2.272,2.243q.018,10.422,0,20.843c0,1.738-.582,2.3-2.342,2.3q-10.423.009-20.845,0c-1.669,0-2.264-.593-2.266-2.248q-.011-10.422,0-20.843c0-1.726.584-2.29,2.335-2.292Q172.611,323.934,177.822,323.94Zm-9.188,3.567V340.26a14.51,14.51,0,0,1,3.091-2.347c1.431-.6,2.769.182,3.75,1.345.1-.078.143-.1.161-.127a37.616,37.616,0,0,1,2.076-3.52,5.33,5.33,0,0,1,2.071-1.754,3.311,3.311,0,0,1,4.167,1.68c.955,1.617,1.859,3.265,2.786,4.9l.2-.089V327.506Zm1.323,18.2h15.707l-4.829-8.532c-1.277,2.252-2.427,4.324-3.621,6.371-.921,1.578-2.413,1.567-3.376,0-.42-.683-.811-1.385-1.316-2.251Z" transform="translate(-17.67 -82.458)" fill="#fe502d"/>
    <path id="Path_155998" data-name="Path 155998" d="M265.39,336.61c0-3.473-.006-6.947,0-10.42,0-1.692.557-2.248,2.233-2.249q10.479-.007,20.958,0c1.606,0,2.19.575,2.192,2.174q.012,10.537,0,21.073c0,1.535-.588,2.131-2.117,2.133q-10.538.016-21.075,0c-1.614,0-2.185-.577-2.19-2.177C265.382,343.634,265.39,340.122,265.39,336.61Zm10.495,2.643c.736-1.289,1.434-2.587,2.2-3.842a3.3,3.3,0,0,1,4.336-1.463,5.591,5.591,0,0,1,1.963,1.895c.967,1.47,1.768,3.05,2.795,4.863V327.528H268.967V340.6C271.842,337.125,272.955,336.909,275.884,339.253Zm-5.652,6.487h15.74l-4.814-8.526c-.235.361-.368.544-.479.739-1.038,1.832-2.055,3.677-3.113,5.5-.993,1.711-2.477,1.69-3.5-.025-.4-.667-.79-1.338-1.256-2.127Z" transform="translate(-86.645 -82.457)" fill="#fe502d"/>
    <path id="Path_155999" data-name="Path 155999" d="M269.957,295.923q6.967,0,13.933.007c.5,0,1.139-.057,1.465.213a2.312,2.312,0,0,1,.929,1.573,2.765,2.765,0,0,1-1.146,1.553c-.311.242-.9.162-1.365.163q-13.757.011-27.515,0c-.273,0-.548.006-.819-.02a1.807,1.807,0,0,1-1.83-1.751,1.763,1.763,0,0,1,1.947-1.732C260.356,295.913,265.156,295.924,269.957,295.923Z" transform="translate(-78.547 -63.195)" fill="#fe502d"/>
    <path id="Path_156000" data-name="Path 156000" d="M170.9,225.8a4.632,4.632,0,0,1,4.617-4.728,4.687,4.687,0,0,1,4.783,4.7,4.762,4.762,0,0,1-4.7,4.7A4.7,4.7,0,0,1,170.9,225.8Zm4.392,1.315.5.017c.326-.445.929-.909.9-1.331a1.705,1.705,0,0,0-1.083-1.148.906.906,0,0,0-1.148,1.062C174.538,226.211,175,226.65,175.292,227.115Z" transform="translate(-21.685 -11.737)" fill="#fe502d"/>
    <path id="Path_156001" data-name="Path 156001" d="M254.869,221.076a4.7,4.7,0,0,1,4.77,4.607,4.791,4.791,0,0,1-4.735,4.8,4.722,4.722,0,0,1-4.682-4.7A4.645,4.645,0,0,1,254.869,221.076Zm.335,3.343-.554-.007c-.3.446-.876.93-.822,1.329.06.444.693.812,1.077,1.213.4-.393,1.058-.745,1.127-1.189C256.092,225.369,255.5,224.872,255.2,224.419Z" transform="translate(-76.218 -11.739)" fill="#fe502d"/>
    <path id="Path_156002" data-name="Path 156002" d="M210.573,225.756a4.627,4.627,0,0,1,4.662-4.683,4.7,4.7,0,0,1,4.747,4.629,4.782,4.782,0,0,1-4.753,4.777A4.706,4.706,0,0,1,210.573,225.756Zm4.909-1.351-.55.014c-.277.461-.827.971-.757,1.37.078.439.728.777,1.128,1.16.384-.41,1.027-.793,1.074-1.238C216.42,225.312,215.806,224.844,215.482,224.405Z" transform="translate(-48.96 -11.738)" fill="#fe502d"/>
  </g>
</svg>
