<svg xmlns="http://www.w3.org/2000/svg" width="186.895" height="201.006" viewBox="0 0 186.895 201.006">
  <g id="Social_strategy-amico" data-name="Social strategy-amico" transform="translate(-71.43 -32.469)">
    <g id="freepik--Shadow--inject-21" transform="translate(199.052 199.968)" opacity="0.18">
      <ellipse id="freepik--shadow--inject-21-2" data-name="freepik--shadow--inject-21" cx="29.014" cy="16.754" rx="29.014" ry="16.754" transform="translate(0)" fill="#0d2380"/>
    </g>
    <g id="freepik--Target--inject-21" transform="translate(71.43 32.469)">
      <path id="Path_156203" data-name="Path 156203" d="M116.953,34.251c-4.828-2.791-11.5-2.4-18.864,1.856C83.366,44.613,71.425,65.291,71.43,82.3c0,8.534,3.009,14.515,7.864,17.285,1.265.723,6.29,3.626,7.566,4.365,4.822,2.786,11.49,2.387,18.854-1.861C120.436,93.582,132.378,72.9,132.378,55.9c0-8.507-2.988-14.462-7.805-17.248" transform="translate(-71.43 -32.469)" fill="#0d2380"/>
      <path id="Path_156204" data-name="Path 156204" d="M71.43,126.19h0c0,8.534,3.009,14.515,7.864,17.285,1.265.723,6.29,3.626,7.566,4.365,4.822,2.786,11.485,2.387,18.848-1.861Z" transform="translate(-71.43 -76.359)" opacity="0.2"/>
      <path id="Path_156205" data-name="Path 156205" d="M75.317,91.83A49.539,49.539,0,0,0,71.43,110.1l34.278,19.79h0a49.5,49.5,0,0,0,13.872-12.505Z" transform="translate(-71.43 -60.268)" opacity="0.1"/>
      <path id="Path_156206" data-name="Path 156206" d="M123.009,89.584C130.676,79.747,135.8,67.035,135.8,55.9c0-8.507-2.988-14.462-7.805-17.248l-7.619-4.4c-4.828-2.791-11.5-2.4-18.864,1.856-9.64,5.572-18.077,16.36-22.772,27.924Z" transform="translate(-74.853 -32.469)" fill="#fff" opacity="0.4"/>
      <path id="Path_156207" data-name="Path 156207" d="M112.414,44.375C97.692,52.882,85.75,73.56,85.75,90.563s11.942,23.926,26.67,15.419S139.094,76.8,139.084,59.789,127.126,35.874,112.414,44.375Z" transform="translate(-78.136 -36.341)" fill="#0d2380"/>
      <path id="Path_156208" data-name="Path 156208" d="M115.763,53.058C103.13,60.352,92.9,78.1,92.9,92.679s10.246,20.5,22.863,13.213,22.863-25.037,22.863-39.627S128.4,45.763,115.763,53.058Z" transform="translate(-81.485 -40.648)" fill="#fafafa"/>
      <path id="Path_156209" data-name="Path 156209" d="M119.088,61.716C108.55,67.825,100,82.627,100,94.8s8.544,17.1,19.088,11.017S138.17,84.93,138.17,72.759,129.631,55.649,119.088,61.716Z" transform="translate(-84.81 -44.951)" fill="#0d2380"/>
      <path id="Path_156210" data-name="Path 156210" d="M122.431,70.43c-8.449,4.881-15.291,16.743-15.291,26.494s6.848,13.712,15.3,8.831,15.291-16.738,15.291-26.494S130.88,65.555,122.431,70.43Z" transform="translate(-88.153 -49.269)" fill="#fafafa"/>
      <path id="Path_156211" data-name="Path 156211" d="M125.77,79.117c-6.38,3.669-11.506,12.6-11.5,19.933s5.152,10.309,11.506,6.641,11.5-12.59,11.5-19.928S132.124,75.448,125.77,79.117Z" transform="translate(-91.492 -53.579)" fill="#0d2380"/>
      <path id="Path_156212" data-name="Path 156212" d="M129.1,87.81a17.067,17.067,0,0,0-7.715,13.361c0,4.918,3.456,6.912,7.72,4.456a17.04,17.04,0,0,0,7.715-13.367C136.825,87.337,133.369,85.348,129.1,87.81Z" transform="translate(-94.827 -57.891)" fill="#fafafa"/>
      <path id="Path_156213" data-name="Path 156213" d="M132.444,96.517a8.683,8.683,0,0,0-3.924,6.8c0,2.5,1.76,3.514,3.929,2.265a8.693,8.693,0,0,0,3.924-6.8C136.373,96.262,134.624,95.247,132.444,96.517Z" transform="translate(-98.166 -62.207)" fill="#0d2380"/>
      <path id="Path_156214" data-name="Path 156214" d="M235.59,158.745l-8.7-3.61-5.386-.255v.978l8.241,4.764,5.849-.9Z" transform="translate(-141.709 -89.795)" fill="#0d2380"/>
      <path id="Path_156215" data-name="Path 156215" d="M221.5,154.88l5.386.255,8.7,3.61-5.849.9Z" transform="translate(-141.709 -89.795)" fill="#0d2380"/>
      <path id="Path_156216" data-name="Path 156216" d="M237,164.027v-.973l5.849-.9v.973Z" transform="translate(-148.968 -93.2)" opacity="0.2"/>
      <path id="Path_156217" data-name="Path 156217" d="M229.741,159.649,221.5,154.88v.978l8.241,4.764Z" transform="translate(-141.709 -89.795)" opacity="0.1"/>
      <path id="Path_156218" data-name="Path 156218" d="M143.288,104.21l-9.618-1.85v1.85l2.137,6.173,3.222-3.084h0l4.259-1.234Z" transform="translate(-100.578 -65.2)" fill="#37474f"/>
      <path id="Path_156219" data-name="Path 156219" d="M133.67,102.36l2.137,6.173,3.222-3.089h0l4.259-1.234Z" transform="translate(-100.578 -65.2)" fill="#455a64"/>
      <path id="Path_156220" data-name="Path 156220" d="M137.69,111.249v1.85l3.222-3.084V108.16Z" transform="translate(-102.46 -67.916)" fill="#263238"/>
      <path id="Path_156221" data-name="Path 156221" d="M143.75,107.074l4.259-1.234V107.7l-4.259,1.234Z" transform="translate(-105.298 -66.829)" fill="#263238"/>
      <path id="Path_156222" data-name="Path 156222" d="M143.478,108.1a.606.606,0,0,0-.643.043,1.994,1.994,0,0,0-.888,1.558.638.638,0,0,0,.266.59h0l54.424,31.46,1.239-2.212Z" transform="translate(-104.452 -67.852)" fill="#455a64"/>
      <path id="Path_156223" data-name="Path 156223" d="M142.143,109.73a1.8,1.8,0,0,0-.2.766.638.638,0,0,0,.266.59h0l54.424,31.46.558-.989Z" transform="translate(-104.452 -68.651)" fill="#37474f"/>
      <path id="Path_156224" data-name="Path 156224" d="M245.213,167.3a1.967,1.967,0,0,0-.893,1.553c0,.58.4.813.893.532a1.978,1.978,0,0,0,.888-1.558C246.085,167.255,245.686,167.016,245.213,167.3Z" transform="translate(-152.396 -95.556)" fill="#263238"/>
      <path id="Path_156225" data-name="Path 156225" d="M228.651,161.258v-.984l-8.241-4.764v.978l.441,3.11,6.231,5.035,1.568-3.376Z" transform="translate(-141.199 -90.09)" fill="#0d2380"/>
      <path id="Path_156226" data-name="Path 156226" d="M220.41,155.51l.441,3.105v.978l-.441-3.105Z" transform="translate(-141.199 -90.09)" opacity="0.2"/>
      <path id="Path_156227" data-name="Path 156227" d="M234.529,164.47l-1.568,3.376v.978l1.568-3.376Z" transform="translate(-147.076 -94.286)" opacity="0.2"/>
      <path id="Path_156228" data-name="Path 156228" d="M221.24,161.35l6.231,5.035v.978l-6.231-5.035Z" transform="translate(-141.587 -92.825)" opacity="0.1"/>
    </g>
    <g id="freepik--Character--inject-21" transform="translate(173.933 79.274)">
      <path id="Path_156229" data-name="Path 156229" d="M371.57,167.6c3.392.154,5.009.681,6.784,2.77s10.634,14.941,10.634,14.941-1.569,4.4-5,4.025l-6.742-8.156Z" transform="translate(-314.492 -142.557)" fill="#ffa8a7"/>
      <path id="Path_156230" data-name="Path 156230" d="M370.72,167.539a10.654,10.654,0,0,1,4.174.308,9.636,9.636,0,0,1,4.115,3.44c1.021,1.351,3.19,4.392,3.19,4.392a15.514,15.514,0,0,1-6.045,5.966Z" transform="translate(-314.094 -142.491)" fill="#b7971e"/>
      <g id="freepik--character--inject-21-2" data-name="freepik--character--inject-21">
        <path id="Path_156231" data-name="Path 156231" d="M352.527,141.847h-1.175A10.852,10.852,0,0,1,340.5,131h0A10.5,10.5,0,0,1,351,120.5h1.872a10.5,10.5,0,0,1,10.5,10.5h0A10.852,10.852,0,0,1,352.527,141.847Z" transform="translate(-299.941 -120.5)" fill="#263238"/>
        <path id="Path_156232" data-name="Path 156232" d="M341.85,170.454h0a7.045,7.045,0,0,0,7.04-7.045v-7.04h0a7.04,7.04,0,0,0-7.04,7.04Z" transform="translate(-300.574 -137.298)" fill="#263238"/>
        <path id="Path_156233" data-name="Path 156233" d="M343.3,374.34v-.734c.292.861,1.638,4.573,3.674,6.433,1.622,1.478,3.833,3.19,4.4,4.838s-3.078,2.286-4.594,2.02a9.335,9.335,0,0,1-5.274-2.834c-.872-1.063-1.425-2.339-2.052-3.19s-2.052-1.786-2.393-2.759a6.266,6.266,0,0,1,.3-2.7c.261-.989.494-1.909.8-1.824v.558a4.067,4.067,0,0,0,2.573.867C341.485,375.057,343.309,374.908,343.3,374.34Z" transform="translate(-298.3 -239.024)" fill="#263238"/>
        <path id="Path_156234" data-name="Path 156234" d="M349.482,377.632c-.5-.452-1-.888-1.467-1.308a14.844,14.844,0,0,1-3.132-5.009,7.045,7.045,0,0,1-.532-2.706v-2.93H339.21v4.785h0v.128h.027c.25,1.063,2.611,3.908,3.95,5.758a7.45,7.45,0,0,0,4.642,3.094C349.732,379.706,350.742,379.095,349.482,377.632Z" transform="translate(-299.337 -235.32)" fill="#ffa8a7"/>
        <path id="Path_156235" data-name="Path 156235" d="M377.441,364.8v-.734c.292.861,1.638,4.573,3.674,6.433,1.622,1.478,3.833,3.19,4.4,4.833s-3.078,2.292-4.594,2.026a9.367,9.367,0,0,1-5.274-2.834c-.872-1.063-1.43-2.339-2.052-3.19s-2.058-1.786-2.393-2.759a6.277,6.277,0,0,1,.292-2.7c.239-.909.5-1.9.808-1.818v.558a4.057,4.057,0,0,0,2.573.867C375.618,365.523,377.441,365.374,377.441,364.8Z" transform="translate(-314.286 -234.557)" fill="#263238"/>
        <path id="Path_156236" data-name="Path 156236" d="M383.612,368.1c-.5-.452-1-.888-1.467-1.308a14.9,14.9,0,0,1-3.132-5.009,7.066,7.066,0,0,1-.532-2.706v-2.93H373.34v4.785h0v.128h.027c.25,1.063,2.605,3.908,3.945,5.758a7.463,7.463,0,0,0,4.647,3.094C383.883,370.176,384.856,369.565,383.612,368.1Z" transform="translate(-315.321 -230.857)" fill="#ffa8a7"/>
        <path id="Path_156237" data-name="Path 156237" d="M339.042,223.606c-3.988,8.7.144,39.345.144,39.345-.122,1.414-1.733,4.2-2.339,10.411-.707,7.343,1.117,25.787,1.117,25.787a5.561,5.561,0,0,0,5.195.207s4.9-27.775,5.822-35.092c.8-6.38,2.35-20.39,2.35-20.39l2.478,20.353a37.683,37.683,0,0,0-1.388,6.311c-.42,4.3,3.722,24.3,3.722,24.3a11.466,11.466,0,0,0,5.141.154s1.473-26.547,1.861-31.721c.654-8.693.25-35.809-1.345-40.94Z" transform="translate(-298.154 -168.188)" fill="#0d2380"/>
        <path id="Path_156238" data-name="Path 156238" d="M339.042,223.606c-3.988,8.7.144,39.345.144,39.345-.122,1.414-1.733,4.2-2.339,10.411-.707,7.343,1.117,25.787,1.117,25.787a5.561,5.561,0,0,0,5.195.207s4.9-27.775,5.822-35.092c.8-6.38,2.35-20.39,2.35-20.39l2.478,20.353a37.683,37.683,0,0,0-1.388,6.311c-.42,4.3,3.722,24.3,3.722,24.3a11.466,11.466,0,0,0,5.141.154s1.473-26.547,1.861-31.721c.654-8.693.25-35.809-1.345-40.94Z" transform="translate(-298.154 -168.188)" opacity="0.7"/>
        <path id="Path_156239" data-name="Path 156239" d="M364.23,252.734l1.292-8.082s5.471-1.138,7.975-3.472a14.139,14.139,0,0,1-6.471,4.3l-1.473,6.237.989,20.023Z" transform="translate(-311.054 -177.016)" opacity="0.3"/>
        <path id="Path_156240" data-name="Path 156240" d="M347.719,167.756h0c-1.515.106-2.02.069-3.121.181-2.2.229-2.728,3.44-3.626,5.317a8.746,8.746,0,0,0-.239,6.588l3.557,10.325s-1.664,4.03-3.6,7.837c8.932,4.987,20.093,2.366,22.778-1.276.112-.771-.574-6.806-1-10.745,1.6-3.95,1.989-6.449,1.324-9.039-1.234-4.844-5.647-9.3-6.912-9.294Z" transform="translate(-299.802 -142.581)" fill="#c5a424"/>
        <path id="Path_156241" data-name="Path 156241" d="M339.455,127.4,341,129.888a1.425,1.425,0,0,1-2.015-.415,1.542,1.542,0,0,1,.468-2.074Z" transform="translate(-299.131 -123.731)" fill="#263238"/>
        <path id="Path_156242" data-name="Path 156242" d="M336.87,132.374l2.9-.4a1.425,1.425,0,0,1-1.2,1.675,1.547,1.547,0,0,1-1.707-1.271Z" transform="translate(-298.241 -125.872)" fill="#263238"/>
        <path id="Path_156243" data-name="Path 156243" d="M362.362,129.159c1.207.712,2.7,3.748,2.552,10.1-.128,5.4-1.877,6.731-2.754,7.114s-2.573.154-4.222-.122v3.334s2.276,2.547,2.127,4.036-3.291,1.834-5.418.383a13.825,13.825,0,0,1-3.5-3.658v-7.816a2.062,2.062,0,0,1-2.93.276c-1.818-1.212-1.893-4.184-.829-5.248s3.376-.766,3.8.718c0,0,2.7-2,2.7-6.965C353.9,129.228,359.486,128.984,362.362,129.159Z" transform="translate(-302.844 -124.534)" fill="#ffa8a7"/>
        <path id="Path_156244" data-name="Path 156244" d="M366.114,144.675a.686.686,0,0,1-.643.739.7.7,0,0,1-.712-.67.686.686,0,0,1,.659-.744A.7.7,0,0,1,366.114,144.675Z" transform="translate(-311.3 -131.505)" fill="#263238"/>
        <path id="Path_156245" data-name="Path 156245" d="M368.8,154.41l1.845.59a.952.952,0,0,1-1.2.659A1.01,1.01,0,0,1,368.8,154.41Z" transform="translate(-313.175 -136.38)" fill="#f28f8f"/>
        <path id="Path_156246" data-name="Path 156246" d="M364.478,140.184l-1.537.6a.8.8,0,0,1,.447-1.063A.877.877,0,0,1,364.478,140.184Z" transform="translate(-310.42 -129.476)" fill="#263238"/>
        <path id="Path_156247" data-name="Path 156247" d="M376.8,144.815a.681.681,0,1,1-.712-.675.7.7,0,0,1,.713.675Z" transform="translate(-316.304 -131.571)" fill="#263238"/>
        <path id="Path_156248" data-name="Path 156248" d="M372.04,144.71l.106,4.083,2.148-.665Z" transform="translate(-314.712 -131.838)" fill="#f28f8f"/>
        <path id="Path_156249" data-name="Path 156249" d="M362.689,159.038c-1.733-.229-5.317-1.255-5.849-2.658a3.621,3.621,0,0,0,1.249,1.8c1.063.909,4.61,1.941,4.61,1.941Z" transform="translate(-307.594 -137.303)" fill="#f28f8f"/>
        <path id="Path_156250" data-name="Path 156250" d="M350.015,204.408a5.4,5.4,0,0,1-4.025-6.582,2.713,2.713,0,0,1,.1-.276,1.755,1.755,0,0,1,1.808-1.2h0a5.221,5.221,0,0,1-2.233-3.328s-1.452-7.034-1.25-5.849-.532-3.233.372-5.732l-3.525-2.169-.665.463a8.98,8.98,0,0,0,.149,5.567l3.557,10.309a58.684,58.684,0,0,0-3.6,7.837,23.1,23.1,0,0,0,19.093,1.265,26.09,26.09,0,0,1-9.778-.3Z" transform="translate(-299.811 -148.023)" fill="#b7971e"/>
        <path id="Path_156251" data-name="Path 156251" d="M309.014,168.19c-2.5.043-3.722.728-7.056,4.381-2.074,2.292-11.134,11.867-11.134,11.867s-13.617-2.706-14.324-3.222a2.365,2.365,0,0,1-.771-2.047c-.037-.766-.2-2.43-.159-2.924.08-.861-1.031-.346-1.531.564s-.431,2.435-.712,2.77-3.658-1.994-5.317-3.116-2.93-2.159-3.626-1.34c-.5.585.175,1.51,1.4,2.52a14.441,14.441,0,0,1,1.872,1.712c.165.191-.128.457-.229.606-.186.287-.532.755-.473,1.111a2.979,2.979,0,0,1,.106.569c0,.441-.473.766-.532,1.207-.032.319.17.617.186.941,0,.2-.048.409-.032.617a1.377,1.377,0,0,0,.681.957,10.566,10.566,0,0,0,3.807,1.271c1.106.287,2.169.266,3.413.473s16.642,5.445,19.247,4.168c2.393-1.175,13.755-12.229,13.755-12.229C311.422,174.421,309.014,168.19,309.014,168.19Z" transform="translate(-264.218 -142.834)" fill="#ffa8a7"/>
        <path id="Path_156252" data-name="Path 156252" d="M339.554,168.042s-3.344-.431-5.258,1.441c-2.414,2.355-6.476,6.662-6.476,6.662a12.573,12.573,0,0,0,6.274,6.38s3.631-2.749,4.705-4.785S340.522,172.312,339.554,168.042Z" transform="translate(-294.003 -142.744)" fill="#b7971e"/>
      </g>
      <path id="Path_156253" data-name="Path 156253" d="M402.672,191.06l-18.046,4.753L379.66,216.23l17.158-4.982Z" transform="translate(-318.28 -153.544)" fill="#fe502d"/>
      <path id="Path_156254" data-name="Path 156254" d="M402.672,191.06l-18.046,4.753L379.66,216.23l17.158-4.982Z" transform="translate(-318.843 -153.544)" fill="#12263f" opacity="0.25"/>
      <g id="Group_99973" data-name="Group 99973" transform="translate(76.235 51.973)" opacity="0.1">
        <path id="Path_156255" data-name="Path 156255" d="M407.6,218.25a3.594,3.594,0,0,0,3.376,2.02l.133-.452Z" transform="translate(-407.6 -218.25)"/>
      </g>
      <g id="Group_99974" data-name="Group 99974" transform="translate(71.274 39.773)" opacity="0.1">
        <path id="Path_156256" data-name="Path 156256" d="M405.953,196.291s.064-.308.149-.691-.978-.393-2.366-.032l-2.658.686c-1.388.362-2.584.962-2.658,1.34l-.149.691Z" transform="translate(-398.27 -195.305)"/>
      </g>
      <path id="Path_156257" data-name="Path 156257" d="M407.036,191.476c.053-.234-.378-.3-.957-.138l-1.063.292s.314-1.489-2.02-.968a3.676,3.676,0,0,0-2.85,2.212l-1.122.319a2.24,2.24,0,0,0-1.26.744l-.133.431,9.3-2.451S406.982,191.715,407.036,191.476Z" transform="translate(-326.696 -153.306)" fill="#37474f"/>
      <path id="Path_156258" data-name="Path 156258" d="M407.473,193.4c-.851.207-1.2.319-1.329.909s-.207,1.159-.207,1.159l-4.11,1.063s.2-.845.26-1.175-.08-.532-.734-.356l-.053-.261,6.444-1.643Z" transform="translate(-328.415 -154.499)" fill="#37474f"/>
      <path id="Path_156259" data-name="Path 156259" d="M406.413,196.413l.149-.686c.085-.383-.978-.4-2.366-.037l-2.658.691c-1.388.356-2.579.957-2.658,1.34l-.149.686Z" transform="translate(-327.211 -155.59)" fill="#37474f"/>
      <path id="Path_156260" data-name="Path 156260" d="M413.519,203.045s-.675,2.308-.829,2.855-2.175,1.542-3.5,1.9-2.781.8-2.153,2.658c.58,1.712,2.765,2.1,3.876,2.052a4.076,4.076,0,0,0,3.233-2.823c.76-2.185.351-4.514.654-5.79S414.184,202.306,413.519,203.045Z" transform="translate(-331.031 -158.973)" fill="#ffa8a7"/>
      <path id="Path_156261" data-name="Path 156261" d="M355.17,143.643V146.3h0a1.818,1.818,0,0,0,1.818-1.818V141.5Z" transform="translate(-306.812 -130.335)" fill="#263238"/>
      <path id="Path_156262" data-name="Path 156262" d="M362.12,122h0a9.039,9.039,0,0,1,9.039,9.039v1.17H366.74a4.11,4.11,0,0,1-4.073-3.557h0l-.165,3.557h0a3.265,3.265,0,0,1-3.254-2.983l-.053-.58h0a3.871,3.871,0,0,1-3.86,3.562h-.393l-.452-6.38Z" transform="translate(-306.493 -121.202)" fill="#263238"/>
      <path id="Path_156263" data-name="Path 156263" d="M354.362,143.44h3.514v.08a2.2,2.2,0,0,0,2.2,2.191h.308a2.2,2.2,0,0,0,2.2-2.191,2.054,2.054,0,0,0-.048-.447h0a1.441,1.441,0,0,1,1.159-.6,1.218,1.218,0,0,1,.952.33,2.153,2.153,0,0,0-.122.7,2.2,2.2,0,0,0,2.2,2.191h.335a2.2,2.2,0,1,0,0-4.386h-.287a2.185,2.185,0,0,0-1.914,1.143,1.6,1.6,0,0,0-1.133-.34,1.9,1.9,0,0,0-1.281.558,2.2,2.2,0,0,0-2.026-1.361h-.335a2.2,2.2,0,0,0-2.127,1.744H354A1.945,1.945,0,0,1,354.362,143.44Zm10.57.08a1.824,1.824,0,0,1,1.829-1.845h.335a1.824,1.824,0,1,1,0,3.647h-.335A1.824,1.824,0,0,1,364.932,143.52Zm-6.689,0a1.824,1.824,0,0,1,1.824-1.824h.314a1.824,1.824,0,0,1,0,3.647h-.335a1.824,1.824,0,0,1-1.792-1.824Z" transform="translate(-306.264 -130.243)" fill="#0d2380"/>
      <path id="Path_156264" data-name="Path 156264" d="M354.362,143.44h3.514v.08a2.2,2.2,0,0,0,2.2,2.191h.308a2.2,2.2,0,0,0,2.2-2.191,2.054,2.054,0,0,0-.048-.447h0a1.441,1.441,0,0,1,1.159-.6,1.218,1.218,0,0,1,.952.33,2.153,2.153,0,0,0-.122.7,2.2,2.2,0,0,0,2.2,2.191h.335a2.2,2.2,0,1,0,0-4.386h-.287a2.185,2.185,0,0,0-1.914,1.143,1.6,1.6,0,0,0-1.133-.34,1.9,1.9,0,0,0-1.281.558,2.2,2.2,0,0,0-2.026-1.361h-.335a2.2,2.2,0,0,0-2.127,1.744H354A1.945,1.945,0,0,1,354.362,143.44Zm10.57.08a1.824,1.824,0,0,1,1.829-1.845h.335a1.824,1.824,0,1,1,0,3.647h-.335A1.824,1.824,0,0,1,364.932,143.52Zm-6.689,0a1.824,1.824,0,0,1,1.824-1.824h.314a1.824,1.824,0,0,1,0,3.647h-.335a1.824,1.824,0,0,1-1.792-1.824Z" transform="translate(-306.264 -130.243)" opacity="0.5"/>
    </g>
  </g>
</svg>
