<svg xmlns="http://www.w3.org/2000/svg" width="355.322" height="347.755" viewBox="0 0 355.322 347.755">
  <g id="Development_focus-amico_1_" data-name="Development focus-amico (1)" transform="translate(-20.803 -34.81)">
    <g id="freepik--Floor--inject-17" transform="translate(39.039 199.338)">
      <ellipse id="freepik--floor--inject-17-2" data-name="freepik--floor--inject-17" cx="158.685" cy="91.613" rx="158.685" ry="91.613" fill="#0d2380" opacity="0.07"/>
    </g>
    <g id="freepik--Shadows--inject-17" transform="translate(20.803 260.793)" opacity="0.21">
      <ellipse id="freepik--Shadow--inject-17" cx="43.398" cy="25.054" rx="43.398" ry="25.054" transform="translate(268.526 0)" fill="#0d2380"/>
      <ellipse id="freepik--shadow--inject-17-2" data-name="freepik--shadow--inject-17" cx="45.237" cy="26.116" rx="45.237" ry="26.116" transform="translate(0 34.199)" fill="#0d2380"/>
    </g>
    <g id="freepik--Charts--inject-17" transform="translate(43.647 34.81)">
      <g id="freepik--Chart--inject-17" transform="translate(0 0)">
        <g id="freepik--Window--inject-17">
          <path id="Path_158694" data-name="Path 158694" d="M144.292,42.21a2.7,2.7,0,0,0-1.179-2.529h0l-3.041-1.761h0a2.676,2.676,0,0,0-2.769.248L55.254,85.554a8.532,8.532,0,0,0-3.878,6.709v47.315a2.707,2.707,0,0,0,1.156,2.513h0l3.1,1.776h0a2.715,2.715,0,0,0,2.738-.271l82.042-47.362a8.532,8.532,0,0,0,3.878-6.709Z" transform="translate(-51.361 -37.646)" fill="#316999" opacity="0.4"/>
          <path id="Path_158695" data-name="Path 158695" d="M145.221,42.73V90.045a8.532,8.532,0,0,1-3.878,6.7L59.308,144.1c-1.9,1.1-3.483.427-3.808-1.466a3.8,3.8,0,0,0,.69-.31l82.042-47.37a8.532,8.532,0,0,0,3.878-6.7V40.938a4.112,4.112,0,0,0-.062-.776C143.84,39.5,145.221,40.535,145.221,42.73Z" transform="translate(-52.289 -38.166)" fill="#1432af" opacity="0.4"/>
          <path id="Path_158696" data-name="Path 158696" d="M141.144,40.65,68.363,83.474l-5.282,3.041s-2.8,1.5-3.917,2.273a6.205,6.205,0,0,0-1.039.884,7.958,7.958,0,0,0-2.211,5v6.089l-.667,41.257-.667-41.257v-6.1a9.308,9.308,0,0,1,2.575-5.926,7.462,7.462,0,0,1,1.272-1.086c1.148-.776,3.987-2.327,3.987-2.327l5.267-3.048Z" transform="translate(-52.083 -38.32)" fill="#fff"/>
        </g>
        <g id="freepik--chart--inject-17-2" data-name="freepik--chart--inject-17" transform="translate(9.012 10.955)">
          <g id="Group_100025" data-name="Group 100025" transform="translate(0)" opacity="0.3">
            <path id="Path_158697" data-name="Path 158697" d="M140.2,93.749l-76.565,44.2V96.859l76.565-44.2V51.77L63.469,96.076l-.489.287V139.21L140.2,94.625Z" transform="translate(-62.98 -51.77)" fill="#fff"/>
            <path id="Path_158698" data-name="Path 158698" d="M140.252,87.85l-76.736,44.3-.326,1.07,77.062-44.492Z" transform="translate(-63.027 -59.864)" fill="#fff"/>
            <path id="Path_158699" data-name="Path 158699" d="M140.252,69.81l-76.736,44.3-.326,1.078,77.062-44.492Z" transform="translate(-63.027 -55.817)" fill="#fff"/>
            <path id="Path_158700" data-name="Path 158700" d="M162.349,94.031l-.659.822V52.882l.659-.822Z" transform="translate(-85.125 -51.835)" fill="#fff"/>
            <path id="Path_158701" data-name="Path 158701" d="M150.009,101.159l-.659.822V60l.659-.822Z" transform="translate(-82.356 -53.432)" fill="#fff"/>
            <path id="Path_158702" data-name="Path 158702" d="M137.669,108.281l-.659.822V67.132l.659-.822Z" transform="translate(-79.588 -55.032)" fill="#fff"/>
            <path id="Path_158703" data-name="Path 158703" d="M125.329,115.4l-.659.822V74.252l.659-.822Z" transform="translate(-76.819 -56.629)" fill="#fff"/>
            <path id="Path_158704" data-name="Path 158704" d="M112.989,122.529l-.659.822V81.372l.659-.822Z" transform="translate(-74.051 -58.226)" fill="#fff"/>
            <path id="Path_158705" data-name="Path 158705" d="M100.649,129.651l-.659.822V88.5l.659-.822Z" transform="translate(-71.283 -59.826)" fill="#fff"/>
            <path id="Path_158706" data-name="Path 158706" d="M88.309,136.771l-.659.822V95.622l.659-.822Z" transform="translate(-68.514 -61.423)" fill="#fff"/>
            <path id="Path_158707" data-name="Path 158707" d="M75.977,143.9l-.667.822V102.742l.667-.822Z" transform="translate(-65.746 -63.021)" fill="#fff"/>
          </g>
          <path id="Path_158708" data-name="Path 158708" d="M63.29,139.018h0a.326.326,0,0,1-.31-.326.295.295,0,0,1,.318-.31h0c.233,0,.349-.776.411-1.3.093-.644.163-1.195.489-1.419a.357.357,0,0,1,.264-.054c.039-.109.078-.225.109-.341s.1-.365.163-.52a3.692,3.692,0,0,1,.287-.558,2.327,2.327,0,0,0,.326-.776,11.451,11.451,0,0,0,.109-1.187A6.926,6.926,0,0,1,65.8,130c.07-.132.24-.473.574-.411s.38.434.427.776a1.942,1.942,0,0,0,0,.217,1.551,1.551,0,0,1,.054.388v.163h.109a.326.326,0,0,1,.271.2,2.459,2.459,0,0,1,.1.776,1.962,1.962,0,0,0,.054.574.326.326,0,0,0,.054.1h0a7.351,7.351,0,0,0,0-.838c0-.838,0-1.869.869-2.133v-.776a13.055,13.055,0,0,1,.194-2.746.954.954,0,0,1,.3-.543.3.3,0,0,0,.1-.186,1.109,1.109,0,0,0,0-.318,2.326,2.326,0,0,1,0-.465,1.222,1.222,0,0,1,.047-.427,2.428,2.428,0,0,1,.45-1.334.318.318,0,0,1,.248-.14,1.139,1.139,0,0,0,0-.163.334.334,0,0,1,.155-.287.31.31,0,0,1,.326,0c.365.209.427.776.5,1.481a4.328,4.328,0,0,0,.163.97,9.263,9.263,0,0,0,.248-1.435v-.109a.31.31,0,0,1,.295-.279.5.5,0,0,1,.372.116.659.659,0,0,1,.178.5v.062l.132.054a.341.341,0,0,1,.264.093h0a1.762,1.762,0,0,1,.178.24,2.63,2.63,0,0,0,.163.217,8.261,8.261,0,0,0,.039-1.381,9.681,9.681,0,0,1,.062-1.551,3.715,3.715,0,0,1,.465-1.319,5.43,5.43,0,0,0,.287-.636,8.834,8.834,0,0,0,.4-2.28A7.7,7.7,0,0,1,74.607,114a.326.326,0,0,1,.31-.171.3.3,0,0,1,.194.1c.194-.3.419-.5.69-.465.481.07.59.729.776,1.644a8.4,8.4,0,0,0,.217,1.055h0a.341.341,0,0,1,.31-.124.334.334,0,0,1,.248.217,10.278,10.278,0,0,1,.38,1.877v.186a.6.6,0,0,1,.427.147,1.613,1.613,0,0,1,.085-.334,6.2,6.2,0,0,0,0-1.156c-.054-1.2-.062-2.009.326-2.327a.6.6,0,0,1,.24-.124,4.4,4.4,0,0,0,.155-.52c.124-.481.256-1.024.776-1.1a.5.5,0,0,1,.543.434.388.388,0,0,1,.163,0v-.07a6.291,6.291,0,0,0,.14-1.063,5.274,5.274,0,0,1,.357-1.753c.209-.45.481-.69.776-.659a.908.908,0,0,1,.729.613.776.776,0,0,1,.411-.535h.062a.9.9,0,0,1,.186-.349.512.512,0,0,1,.427-.155c.31.047.481.372.613.613v.078a.18.18,0,0,0,.07.132c.07.054,0-.124,0-.171.062-.3.116-.558.318-.675a.473.473,0,0,1,.256-.047v-.07a.939.939,0,0,1,.341-.822.419.419,0,0,1,.38,0,4.445,4.445,0,0,0,.147-1.109c0-.07,0-.163,0-.271a1.862,1.862,0,0,1,.124-1.1c.178-.3.38-.326.512-.3.326.07.38.473.4.667l.07.481a14.345,14.345,0,0,1,.178,1.482v.116a1.908,1.908,0,0,0,.233,1.055,1.311,1.311,0,0,1,.357.954,1.885,1.885,0,0,0,.217.884,1.389,1.389,0,0,1,.279.69,2.4,2.4,0,0,0,.062.256h0a.667.667,0,0,1,.318,0,3.8,3.8,0,0,1,.147-.512v-.093a5.179,5.179,0,0,1,.1-.512,3.273,3.273,0,0,1,.489-1.551.434.434,0,0,1,.271-.124v-.675c.047-.473.085-.884.4-1.024a.3.3,0,0,1,.147,0c.2-.589.458-1.288,1.024-1.21s.683.838.776,1.551a5.43,5.43,0,0,0,.116.628,1.257,1.257,0,0,0,.047-.132v-.178a1.636,1.636,0,0,1,.124-.427.481.481,0,0,1,.225-.209,2.947,2.947,0,0,0,.264-1.419,6.3,6.3,0,0,1,.062-.776,12.409,12.409,0,0,1,.551-2.063l.093-.3a7.376,7.376,0,0,0,.171-.729,4.709,4.709,0,0,1,.411-1.35.31.31,0,0,1,.264-.155.419.419,0,0,1,.279.147,4.452,4.452,0,0,1,.38,1.962,3.219,3.219,0,0,0,.047.675,1.6,1.6,0,0,0,.171.659.473.473,0,0,0,.109.109.884.884,0,0,1,.349.473,3.273,3.273,0,0,1,.062.977,5.07,5.07,0,0,0,0,.605,4.848,4.848,0,0,0,.209,1.008h.147c.621-.07.776.357.869.776a1.078,1.078,0,0,0,.24.427c.047.062.1.124.147.194a2.614,2.614,0,0,1,.3,1.288l.109,1.272.14,1.761v.481a6.43,6.43,0,0,0,.2,1.691,11.806,11.806,0,0,0,.109-2.583V112.1a2.823,2.823,0,0,1,.326-1.055c.047-.085.085-.171.132-.271a3.956,3.956,0,0,0,.217-1.551v-.4a4.53,4.53,0,0,1,.209-1.986.535.535,0,0,1,.473-.341.427.427,0,0,1,.31.194h.07c.085-.047.147-.349.178-.527.109-.512.178-.962.248-1.419s.147-.915.24-1.373.155-.776.543-.954a.473.473,0,0,1,.264,0,3.568,3.568,0,0,0,.24-.706,3.343,3.343,0,0,1,.271-.776.97.97,0,0,1,.178-.233.892.892,0,0,0,.062-.078,1.66,1.66,0,0,0,.225-.535l.062-.233a4.344,4.344,0,0,1,.861-1.652.481.481,0,0,1,.621-.07c.047-.147.1-.349.132-.473a3.174,3.174,0,0,1,.1-.341,2.4,2.4,0,0,1,.481-.869.939.939,0,0,1,1.047-.264c.776.326.9,1.621,1.024,2.769a4.327,4.327,0,0,0,.085.675,2.04,2.04,0,0,0,.194.776l.054.062a.721.721,0,0,1,.248.349,4.391,4.391,0,0,1,.1,1.326v.876a7.928,7.928,0,0,0,.171,1.458c.039.14.093.279.147.419a4.235,4.235,0,0,1,.233.776,3.864,3.864,0,0,0,.07.512,5.492,5.492,0,0,0,.194,1.016,3.381,3.381,0,0,1,.093.341l.116.419a.481.481,0,0,1,.186,0h.07a6.252,6.252,0,0,0,.225-1.272v-.256c.047-.434.116-1.032.6-1.2a.442.442,0,0,1,.489.14v-1.179a6.205,6.205,0,0,1,.155-1.551,1.807,1.807,0,0,1,.271-.6.83.83,0,0,0,.155-.535V96.97a6.143,6.143,0,0,1,0-.838,1.245,1.245,0,0,1,.093-.465,3.949,3.949,0,0,0,.1-.714,2.327,2.327,0,0,1,.171-.861,1.971,1.971,0,0,1,.109-.372V93.6c.085-.481.194-.915.527-1.039a.52.52,0,0,1,.5.109,1.412,1.412,0,0,1,.365,1.07,1.551,1.551,0,0,0,.078.527l.078.132a2,2,0,0,1,.295,1.14v.551a3.444,3.444,0,0,0,.054,1.094,1.4,1.4,0,0,0,.178.31,1.606,1.606,0,0,1,.334.776v.279a1.256,1.256,0,0,0,0,.264l.116.062a.814.814,0,0,1,.349.256,1.047,1.047,0,0,1,.14.279,4.482,4.482,0,0,0,.093-.5,4.273,4.273,0,0,0,0-.939,3.149,3.149,0,0,1,.225-1.877,2.327,2.327,0,0,1,.2-.279.923.923,0,0,0,.194-.3,3.994,3.994,0,0,0,.186-.876V94.5c.039-.264.062-.52.085-.776a8.974,8.974,0,0,1,.295-1.761,1.193,1.193,0,0,1,.132-.372,2.948,2.948,0,0,0,.14-.419,5.049,5.049,0,0,0,.1-.776v-.287a5.15,5.15,0,0,1,.473-1.551q.174-.38.31-.776a10.177,10.177,0,0,0,.3-1.7,7.26,7.26,0,0,1,.628-2.591c.07-.14.295-.566.69-.5s.683.915.876,2.079c.039.2.062.365.085.434a.432.432,0,0,0,.186.194.977.977,0,0,1,.434.465,2.924,2.924,0,0,1,.147,1.055c0,.132,0,.264,0,.372a26.534,26.534,0,0,0,.776,3.94l.124.527a5.3,5.3,0,0,1,.1.582,2.932,2.932,0,0,0,.2.853,9.168,9.168,0,0,1,.845,3.878c0,.171,0,.349,0,.52a.73.73,0,0,0,0-.124,1.6,1.6,0,0,1,.271-.667.5.5,0,0,1,.178-.163,5.741,5.741,0,0,0,.1-1.094,2.264,2.264,0,0,1,0-.248V95.17a3.568,3.568,0,0,1,.1-1.132.83.83,0,0,1,.334-.489.3.3,0,0,0,.085-.085,2.327,2.327,0,0,0,.2-.7c.109-.512.2-.954.535-1.086a.528.528,0,0,1,.5.07.5.5,0,0,1,.124.132.349.349,0,0,1,.209,0,.527.527,0,0,1,.357.279,3.009,3.009,0,0,1,.194.512l.062.178a8.442,8.442,0,0,0-.047-.869v-.124a4.313,4.313,0,0,1,.054-1.179c.07-.372.155-.776.24-1.14a14.086,14.086,0,0,0,.326-1.73v-.178a3.056,3.056,0,0,1,.24-1.2c.054-.1.194-.349.45-.349h0a.4.4,0,0,1,.171.039c.047-.171.093-.4.132-.558.116-.59.225-1.094.566-1.249a.4.4,0,0,1,.365,0,.419.419,0,0,1,.209.24h0a.6.6,0,0,1,.551-.178c.264.07.349.326.419.512h0a7.872,7.872,0,0,0,.38-1.947c.147-1.21.24-1.846.628-2.032a.481.481,0,0,1,.481.047.729.729,0,0,1,.287.473.411.411,0,0,1,.14,0c.132,0,.388,0,.582.427a6.709,6.709,0,0,1,.5,2.327v.24a6.6,6.6,0,0,0,.14,1.032c.078.527.155,1.078.186,1.668v.473a6.685,6.685,0,0,0,.07,1.179v.465a3.429,3.429,0,0,0,.062.776,3.793,3.793,0,0,0,.5-.892l.093-.2c.109-.233.209-.473.318-.721a11.48,11.48,0,0,1,.535-1.171l.116-.178a.574.574,0,0,0,.1-.163,1.99,1.99,0,0,0,.047-.217,1.171,1.171,0,0,1,.225-.582.458.458,0,0,1,.419-.171.365.365,0,0,1,.24.147,2.855,2.855,0,0,0,.062-.318c.078-.434.178-.977.667-1.117a.9.9,0,0,1,.776.186c.085.047.194.116.233.1a3.615,3.615,0,0,0,.217-.962,3.484,3.484,0,0,1,.116-.776,2.878,2.878,0,0,1,.489-.908.722.722,0,0,1,.155-.155h.054s.047-.109.062-.163a1.706,1.706,0,0,1,.124-.264,1.373,1.373,0,0,1,.411-.411,1.039,1.039,0,0,0,.31-.326.318.318,0,0,1,.434-.132.31.31,0,0,1,.124.427,1.551,1.551,0,0,1-.489.543.938.938,0,0,0-.256.233,1.606,1.606,0,0,0-.062.155,1.218,1.218,0,0,1-.147.3.83.83,0,0,1-.186.186,2.25,2.25,0,0,0-.419.776,3.1,3.1,0,0,0-.085.675c-.047.59-.093,1.249-.582,1.489a.838.838,0,0,1-.838-.14.652.652,0,0,0-.24-.109c-.109,0-.171.4-.209.613a1.5,1.5,0,0,1-.419.993.411.411,0,0,1-.372.078.326.326,0,0,1-.163-.085,1.551,1.551,0,0,1-.085.287,1.381,1.381,0,0,1-.163.295l-.078.109c-.186.334-.349.776-.512,1.117-.109.248-.209.5-.326.776l-.085.2c-.287.636-.628,1.35-1.163,1.3s-.605-.776-.613-1.419V89c-.039-.4-.062-.776-.078-1.21V87.32a10.579,10.579,0,0,0-.186-1.606c-.054-.349-.1-.7-.14-1.063v-.24a6.562,6.562,0,0,0-.434-2.087h0a.388.388,0,0,1-.4.078.6.6,0,0,1-.334-.434c-.078.334-.14.876-.186,1.28-.171,1.427-.318,2.327-.845,2.544a.481.481,0,0,1-.411,0A.776.776,0,0,1,128,85.28h0l-.039.047a.543.543,0,0,1-.4.256.411.411,0,0,1-.341-.147h0a2.421,2.421,0,0,1-.093.45c-.132.636-.233,1.132-.621,1.226a.388.388,0,0,1-.264,0,5.8,5.8,0,0,0-.109.776v.186a14.93,14.93,0,0,1-.341,1.815c-.085.372-.171.776-.233,1.109a3.731,3.731,0,0,0-.054,1.016v.109a2.8,2.8,0,0,1-.209,1.885.388.388,0,0,1-.388.14c-.318-.062-.458-.45-.659-1.078a1.1,1.1,0,0,0-.085-.256h-.07a.411.411,0,0,1-.419-.186,4.039,4.039,0,0,0-.116.489,2.5,2.5,0,0,1-.326.962.97.97,0,0,1-.209.2.271.271,0,0,0-.109.171,3.048,3.048,0,0,0-.07.931v.264a3.987,3.987,0,0,1-.171,1.373.489.489,0,0,1-.256.271,1.3,1.3,0,0,0-.14.4,1.5,1.5,0,0,1-.31.714.543.543,0,0,1-.582.2q-.31-.116-.372-.628c0-.256-.039-.512-.062-.776a8.718,8.718,0,0,0-.776-3.584,3.258,3.258,0,0,1-.287-1.1A2.6,2.6,0,0,0,119.8,92l-.132-.52a28.35,28.35,0,0,1-.776-4.041v-.419a2.715,2.715,0,0,0-.093-.776c0-.085-.085-.116-.186-.186a.977.977,0,0,1-.45-.5,3.83,3.83,0,0,1-.109-.551,8.96,8.96,0,0,0-.341-1.458.2.2,0,0,0-.039.07,6.981,6.981,0,0,0-.566,2.374,10.146,10.146,0,0,1-.326,1.807c-.093.3-.209.582-.326.861a4.359,4.359,0,0,0-.427,1.388v.279a4.436,4.436,0,0,1-.109.876c-.047.171-.1.334-.163.5a2.729,2.729,0,0,0-.116.326,7.849,7.849,0,0,0-.279,1.644,5.272,5.272,0,0,1-.085.776v.124a4.251,4.251,0,0,1-.225,1.032,1.66,1.66,0,0,1-.295.481,1.094,1.094,0,0,0-.14.178,2.622,2.622,0,0,0-.14,1.551,5.089,5.089,0,0,1,0,1.086c-.116.776-.271,1.156-.543,1.28a.465.465,0,0,1-.45-.047.846.846,0,0,1-.3-.52.822.822,0,0,0-.07-.209L113,99.335a.776.776,0,0,1-.388-.3,1.063,1.063,0,0,1-.116-.59,1.9,1.9,0,0,0,0-.209.884.884,0,0,0-.217-.5,1.924,1.924,0,0,1-.256-.458,3.568,3.568,0,0,1-.085-1.342c0-.178,0-.357,0-.512a1.373,1.373,0,0,0-.217-.838l-.078-.14a2,2,0,0,1-.155-.776,2.853,2.853,0,0,0-.054-.45,1.83,1.83,0,0,1-.085.388.5.5,0,0,0,0,.155,3.8,3.8,0,0,1-.132.427,1.722,1.722,0,0,0-.132.659,4.274,4.274,0,0,1-.116.845,3.771,3.771,0,0,0-.078.427,3.879,3.879,0,0,0,0,.776v4.538a1.42,1.42,0,0,1-.256.869,1.171,1.171,0,0,0-.194.419,5.911,5.911,0,0,0-.132,1.381c0,.271,0,.551,0,.776v.078a1.885,1.885,0,0,1-.24,1.024.411.411,0,0,1-.357.163.574.574,0,0,1-.419-.326,3.5,3.5,0,0,0-.1.551v.248c-.116,1.094-.264,1.761-.659,1.939a.5.5,0,0,1-.318,0l-.109-.07a.4.4,0,0,1-.4-.093,1.73,1.73,0,0,1-.357-.861.9.9,0,0,0-.078-.287,5.679,5.679,0,0,1-.225-1.148,2.481,2.481,0,0,0-.07-.481,3.165,3.165,0,0,0-.2-.667c-.054-.155-.116-.31-.163-.473a7.834,7.834,0,0,1-.194-1.6v-.908a4.359,4.359,0,0,0-.07-1.125l-.07-.085a.861.861,0,0,1-.155-.171,2.389,2.389,0,0,1-.295-1.016c0-.217-.062-.45-.085-.7-.093-.83-.225-2.079-.644-2.257a.445.445,0,0,0-.334.124,1.745,1.745,0,0,0-.349.644,2.089,2.089,0,0,1-.085.295,2,2,0,0,1-.388.923.434.434,0,0,1-.613,0,3.878,3.878,0,0,0-.613,1.3l-.07.217a2.086,2.086,0,0,1-.3.721,1.932,1.932,0,0,1-.132.163.388.388,0,0,0-.085.1,3.692,3.692,0,0,0-.209.628,1.962,1.962,0,0,1-.535,1.117.388.388,0,0,1-.357.078,1.2,1.2,0,0,0-.147.473c-.093.45-.163.892-.233,1.342s-.14.923-.24,1.388-.225,1.086-.776,1.094l-.062.054a.318.318,0,0,1-.287.062H99.2a6.539,6.539,0,0,0-.047,1.4c0,.132,0,.248,0,.334v.093a4.5,4.5,0,0,1-.271,1.838c-.047.109-.093.2-.14.295a2.086,2.086,0,0,0-.264.838c0,.085,0,.365,0,.659.062,2.156,0,3.2-.636,3.3a.543.543,0,0,1-.458-.124c-.4-.326-.45-1.171-.489-2.249v-.45c-.047-.582-.1-1.171-.147-1.753l-.1-1.28a2.428,2.428,0,0,0-.194-.97c0-.062-.085-.109-.124-.163a1.629,1.629,0,0,1-.349-.621,1.652,1.652,0,0,0-.116-.341h-.186a.551.551,0,0,1-.706-.4,5.81,5.81,0,0,1-.24-1.171,5.041,5.041,0,0,1,0-.69,3.428,3.428,0,0,0,0-.776c0-.062-.047-.085-.132-.155a.977.977,0,0,1-.264-.271,2.187,2.187,0,0,1-.264-.931,3.68,3.68,0,0,0-.047-.706c-.047-.24,0-.458-.039-.667a.916.916,0,0,0,0,.155,7.038,7.038,0,0,1-.194.776l-.1.3a12.953,12.953,0,0,0-.52,1.97,4.948,4.948,0,0,0-.054.714,3.32,3.32,0,0,1-.4,1.784.489.489,0,0,1-.171.155.406.406,0,0,1-.062.248.377.377,0,0,0-.054.225c-.124.372-.279.776-.628.776a.606.606,0,0,1-.535-.427,3.793,3.793,0,0,1-.233-.962,3.816,3.816,0,0,0-.248-1.016,3.459,3.459,0,0,0-.372.838l-.07.209a.326.326,0,0,1-.209.194.264.264,0,0,1-.155,0,4.066,4.066,0,0,0-.047.419v.372a1.373,1.373,0,0,1-.217.776.357.357,0,0,1-.326.124,7.283,7.283,0,0,0-.256,1.125c-.047.24-.078.45-.116.582v.078c-.233.884-.357,1.148-.59,1.218a.45.45,0,0,1-.318,0,.4.4,0,0,1-.171-.248.553.553,0,0,1-.621-.473,1.431,1.431,0,0,0-.062-.287.776.776,0,0,0-.155-.419,2.327,2.327,0,0,1-.357-1.21c-.047-.427-.054-.45-.178-.582a2.273,2.273,0,0,1-.411-1.458v-.558a3.1,3.1,0,0,1-.225.946.582.582,0,0,1-.38.341.411.411,0,0,1-.225,0v.171a1.187,1.187,0,0,1-.132.605c-.047.085-.194.31-.427.287h0c-.078.349-.147.7-.419.853a.411.411,0,0,1-.341,0c-.24-.078-.365-.341-.465-.558l-.054-.1-.047-.093-.085-.147c-.031-.054,0,0,0,.054a.838.838,0,0,1-.365.6.365.365,0,0,1-.132,0,.776.776,0,0,1-.194.357.465.465,0,0,1-.465.186c-.264-.062-.341-.326-.4-.5a.279.279,0,0,0,0-.085.675.675,0,0,0-.209-.326,1.133,1.133,0,0,0-.178.287,4.654,4.654,0,0,0-.3,1.551,7.237,7.237,0,0,1-.155,1.163c-.085.318-.132.644-.527.6h-.07a.473.473,0,0,1-.628,0,.652.652,0,0,1-.163-.357,3.878,3.878,0,0,0-.155.5,3.522,3.522,0,0,1-.271.822.31.31,0,0,1-.349.171,5.562,5.562,0,0,0-.078,1.815,6.586,6.586,0,0,1,0,1.334c-.147.613-.256.9-.527.97a.5.5,0,0,1-.489-.209.489.489,0,0,0-.093-.085l-.07.062a.31.31,0,0,1-.326.054.3.3,0,0,1-.2-.248,5.752,5.752,0,0,0-.078-.613c-.054-.434-.109-.876-.194-1.264a.636.636,0,0,1-.209,0c-.45-.116-.551-.776-.7-1.66a7.106,7.106,0,0,0-.209-1.016,3.39,3.39,0,0,0-.295.527.318.318,0,0,1-.326.178.342.342,0,0,1-.155-.062,8.672,8.672,0,0,0-.427,2.381A9.626,9.626,0,0,1,74,119.712a3.994,3.994,0,0,1-.326.706,3.3,3.3,0,0,0-.4,1.125,9.013,9.013,0,0,0-.054,1.443,7.811,7.811,0,0,1-.109,1.862.31.31,0,0,1-.155.217c-.527.287-.908-.271-1.094-.543v-.054a1.249,1.249,0,0,1-.349-.14,8.025,8.025,0,0,1-.209.931.4.4,0,0,1-.116.163.659.659,0,0,1-.7.124c-.419-.186-.481-.776-.551-1.551v-.4a.45.45,0,0,1-.14,0,1.854,1.854,0,0,0-.225.861,1.458,1.458,0,0,1-.054.465,1.411,1.411,0,0,0,0,.31,1.551,1.551,0,0,1,0,.5.884.884,0,0,1-.271.512.38.38,0,0,0-.132.24,12.589,12.589,0,0,0-.186,2.606v1.016a.318.318,0,0,1-.287.3c-.512.054-.566.52-.574,1.551a4.747,4.747,0,0,1-.163,1.551.31.31,0,0,1-.295.209h0a.31.31,0,0,1-.295-.209.473.473,0,0,0,0-.085.721.721,0,0,1-.543-.481,2.327,2.327,0,0,1-.109-.776v-.388a.527.527,0,0,1-.38-.279,1.156,1.156,0,0,1-.085-.465,1.334,1.334,0,0,0,0-.2h0c-.062.434-.109,1.039-.14,1.489a12.466,12.466,0,0,1-.124,1.272,2.862,2.862,0,0,1-.4.977,3.832,3.832,0,0,0-.24.473c-.054.14-.1.3-.147.465a2.009,2.009,0,0,1-.582,1.14.279.279,0,0,1-.171.054,3.408,3.408,0,0,1-.085.527C64.221,137.994,64.081,139.018,63.29,139.018ZM66.393,130.152ZM80.634,113.864ZM85.078,109.807ZM85.59,108.5ZM122.264,98.118ZM126.918,86.483Z" transform="translate(-62.979 -58.233)" fill="#1b2652"/>
        </g>
      </g>
      <g id="freepik--chart--inject-17-3" data-name="freepik--chart--inject-17" transform="translate(147.336 155.818)">
        <g id="freepik--window--inject-17-2" data-name="freepik--window--inject-17" transform="translate(0 0)">
          <path id="Path_158709" data-name="Path 158709" d="M334.234,243.068a2.676,2.676,0,0,0-1.179-2.521h0l-3.033-1.737h0a2.684,2.684,0,0,0-2.777.24L245.2,286.412a8.532,8.532,0,0,0-3.878,6.709v47.385a2.7,2.7,0,0,0,1.148,2.513h0l3.1,1.768h0a2.723,2.723,0,0,0,2.746-.264l82.042-47.37a8.532,8.532,0,0,0,3.878-6.7Z" transform="translate(-241.309 -238.531)" fill="#90caf9" opacity="0.4"/>
          <path id="Path_158710" data-name="Path 158710" d="M335.163,243.591V291a8.532,8.532,0,0,1-3.878,6.709L249.251,345.07c-1.893,1.1-3.475.427-3.8-1.474a3.472,3.472,0,0,0,.683-.31l82.042-47.362a8.532,8.532,0,0,0,3.878-6.709V241.807a3.437,3.437,0,0,0-.07-.776C333.79,240.356,335.163,241.388,335.163,243.591Z" transform="translate(-242.238 -239.046)" fill="#90caf9" opacity="0.4"/>
          <path id="Path_158711" data-name="Path 158711" d="M331.079,241.5l-72.772,42.832-5.29,3.041s-2.792,1.5-3.878,2.265a6.644,6.644,0,0,0-1.047.892,8,8,0,0,0-2.211,5v6.081l-.667,41.358-.714-41.358v-6.1a9.308,9.308,0,0,1,2.567-5.934,8.619,8.619,0,0,1,1.272-1.086c1.156-.776,3.987-2.327,3.987-2.327l5.274-3.056Z" transform="translate(-242.025 -239.197)" fill="#fff"/>
        </g>
        <g id="freepik--chart--inject-17-4" data-name="freepik--chart--inject-17" transform="translate(9.006 11.107)">
          <path id="Path_158712" data-name="Path 158712" d="M309,264.981l-.357.209h0l-55.359,31.988-.365.209v41.366l56.2-32.446h0l20.9-12.062v-41.4Zm14.055-7.47,6.485-3.77v9.533l-6.485,3.746Zm-6.981,4.026,6.484-3.746v9.541l-6.484,3.746Zm-6.981,4.018,6.485-3.746v9.541l-6.485,3.746Zm-6.981,33.927v-9.541L308.6,286.2v9.541Zm0-10.184v-9.541l6.484-3.739v9.525Zm-6.981,14.2v-9.533l6.484-3.746v9.541Zm0-10.177v-9.541l6.484-3.746v9.541Zm-6.981,14.2v-9.572l6.484-3.746v9.541Zm0-10.184V287.8l6.484-3.739V293.6Zm-6.981,14.2V302l6.485-3.739v9.541Zm0-10.184v-9.533l6.485-3.746v9.541Zm-6.981,14.21v-9.541l6.485-3.746v9.541Zm0-10.184v-9.541l6.485-3.746v9.541Zm-6.981,14.2v-9.541l6.485-3.739v9.533Zm0-10.184v-9.533l6.485-3.746v9.541Zm-6.981,14.21v-9.541l6.484-3.746v9.541Zm0-10.184v-9.541l6.484-3.746v9.541Zm-6.981,14.2v-9.51l6.485-3.739v9.533Zm0-10.184v-9.533l6.64-3.754V313.7ZM302,269.573l6.484-3.739v9.541L302,279.114Zm-6.981,4.026,6.484-3.746v9.541l-6.484,3.746Zm-6.981,4.018,6.671-3.708v9.541l-6.484,3.739Zm-6.981,4.026,6.485-3.746v9.541l-6.485,3.746Zm-6.981,4.018,6.485-3.739v9.541L274.08,295.2Zm-6.981,4.026,6.485-3.746v9.541l-6.485,3.746Zm-6.981,4.018,6.484-3.746v9.548l-6.484,3.746Zm-6.981,4.026,6.485-3.746v9.541l-6.221,3.739Zm6.485,36.34-6.485,3.746v-9.541l6.485-3.746Zm6.981-4.018-6.484,3.746V324.25l6.484-3.739Zm6.981-4.026-6.252,3.731v-9.541l6.484-3.746Zm6.981-4.018-6.485,3.746v-9.541l6.485-3.746Zm6.981-4.018-6.485,3.739v-9.541l6.485-3.746Zm6.981-4.026-6.484,3.746V308.17l6.484-3.746Zm6.981-4.018-6.484,3.739V304.16l6.484-3.739Zm6.981-4.026L302,309.667v-9.541l6.484-3.746Zm6.981-4.018-6.485,3.739V296.1l6.485-3.739Zm6.981-4.026-6.484,3.746v-9.541l6.484-3.746Zm6.981-4.018-6.485,3.739v-9.541l6.485-3.739Zm-13.962-21.866v9.541l-6.485,3.746V275.74Zm0,10.184v9.572l-6.485,3.739v-9.564Zm6.981-14.2v9.541l-6.484,3.739v-9.533Zm0,10.177v9.541l-6.484,3.746V281.9Zm6.981-14.195v9.533l-6.485,3.746V267.7Zm0,10.177v9.541l-6.485,3.746v-9.541Z" transform="translate(-252.92 -252.85)" fill="#ffca00" opacity="0.2"/>
          <path id="Path_158713" data-name="Path 158713" d="M254.9,351.254V316.629l4.382-2.529v34.625Z" transform="translate(-253.364 -266.591)" fill="#ffca00"/>
          <path id="Path_158714" data-name="Path 158714" d="M263.88,347.329V317.079l4.382-2.529V344.8Z" transform="translate(-255.379 -266.692)" fill="#ffca00"/>
          <path id="Path_158715" data-name="Path 158715" d="M272.858,343.977l-.008-23.9,4.382-2.529.008,23.9Z" transform="translate(-257.391 -267.365)" fill="#ffca00"/>
          <path id="Path_158716" data-name="Path 158716" d="M281.83,338.787v-23.9l4.39-2.529v23.9Z" transform="translate(-259.406 -266.2)" fill="#ffca00"/>
          <path id="Path_158717" data-name="Path 158717" d="M290.81,335.481V318.1l4.382-2.529.008,17.383Z" transform="translate(-261.42 -266.921)" fill="#ffca00"/>
          <path id="Path_158718" data-name="Path 158718" d="M299.79,327.422v-27.3l4.382-2.529v27.3Z" transform="translate(-263.435 -262.887)" fill="#ffca00"/>
          <path id="Path_158719" data-name="Path 158719" d="M308.77,323.116V298.876l4.39-2.536v24.247Z" transform="translate(-265.449 -262.607)" fill="#ffca00"/>
          <path id="Path_158720" data-name="Path 158720" d="M317.75,317.45V291.559l4.382-2.529v25.892Z" transform="translate(-267.464 -260.967)" fill="#ffca00"/>
          <path id="Path_158721" data-name="Path 158721" d="M326.73,312.911V289.269l4.382-2.529v23.642Z" transform="translate(-269.478 -260.453)" fill="#ffca00"/>
          <path id="Path_158722" data-name="Path 158722" d="M335.71,308.7V288.459l4.39-2.529v20.245Z" transform="translate(-271.493 -260.271)" fill="#ffca00"/>
          <path id="Path_158723" data-name="Path 158723" d="M344.69,301.7V275.2l4.39-2.529v26.5Z" transform="translate(-273.508 -257.296)" fill="#ffca00"/>
        </g>
      </g>
      <g id="freepik--bar-graph--inject-17" transform="translate(64.697 35.187)">
        <path id="Path_158724" data-name="Path 158724" d="M136.453,278.57l1.854,1.078a3.646,3.646,0,0,0,3.3,0l112.82-65.156a3.646,3.646,0,0,0,1.652-2.854V87.338a3.646,3.646,0,0,0-1.683-2.862l-1.862-1.07a3.63,3.63,0,0,0-3.3,0l-112.82,65.156a3.646,3.646,0,0,0-1.652,2.862V275.715A3.622,3.622,0,0,0,136.453,278.57Z" transform="translate(-134.77 -83.01)" fill="#f0f0f0"/>
        <path id="Path_158725" data-name="Path 158725" d="M143.112,280.558,255.932,215.4a3.646,3.646,0,0,0,1.652-2.854V88.249c0-1.055-.737-1.482-1.652-.954L143.112,152.45a3.622,3.622,0,0,0-1.652,2.854V279.6C141.46,280.659,142.2,281.086,143.112,280.558Z" transform="translate(-136.271 -83.92)" fill="#fff"/>
        <path id="Path_158726" data-name="Path 158726" d="M142.282,281.01a1.2,1.2,0,0,1-.59-.155,1.466,1.466,0,0,1-.644-1.342V155.183a3.964,3.964,0,0,1,1.807-3.1l112.82-65.156a1.474,1.474,0,0,1,1.489-.109,1.458,1.458,0,0,1,.644,1.342V212.473a3.964,3.964,0,0,1-1.807,3.1L143.174,280.731A1.792,1.792,0,0,1,142.282,281.01ZM256.583,87.3a1.194,1.194,0,0,0-.574.178L143.182,152.631a3.359,3.359,0,0,0-1.489,2.583v124.3a.7.7,0,0,0,1.179.675l112.812-65.156a3.343,3.343,0,0,0,1.5-2.583V88.158a.884.884,0,0,0-.326-.776A.6.6,0,0,0,256.583,87.3Z" transform="translate(-136.177 -83.829)" fill="#e0e0e0"/>
        <path id="Path_158727" data-name="Path 158727" d="M141.372,299.073a3.661,3.661,0,0,1-3.048-.116l-1.862-1.078a3.63,3.63,0,0,1-1.652-2.854V170.709a3.428,3.428,0,0,1,.481-1.629l5.158,2.979a3.452,3.452,0,0,0-.481,1.629V298C139.968,298.957,140.573,299.4,141.372,299.073Z" transform="translate(-134.779 -102.319)" fill="#e0e0e0"/>
        <g id="freepik--bar-graph--inject-17-2" data-name="freepik--bar-graph--inject-17" transform="translate(18.988 54.165)">
          <path id="Path_158728" data-name="Path 158728" d="M250.15,237.168V169.39l-6.05-3.49v67.777Z" transform="translate(-178.285 -155.77)" fill="#90caf9"/>
          <path id="Path_158729" data-name="Path 158729" d="M250.15,237.168V169.39l-6.05-3.49v67.777Z" transform="translate(-178.285 -155.77)" opacity="0.2"/>
          <path id="Path_158730" data-name="Path 158730" d="M251.9,235.247l17.553-10.138V157.34L251.9,167.47Z" transform="translate(-180.035 -153.85)" fill="#90caf9"/>
          <path id="Path_158731" data-name="Path 158731" d="M267.7,156.33l-6.042-3.49L244.1,162.97l6.05,3.49Z" transform="translate(-178.285 -152.84)" fill="#90caf9"/>
          <path id="Path_158732" data-name="Path 158732" d="M267.7,156.33l-6.042-3.49L244.1,162.97l6.05,3.49Z" transform="translate(-178.285 -152.84)" fill="#fff" opacity="0.25"/>
          <path id="Path_158733" data-name="Path 158733" d="M267.7,157.34l-17.553,9.866-6.05-3.227,5.81,3.878c-.132,1.978,0,65.373.24,67.4.264-2.024.372-65.551.248-67.482Z" transform="translate(-178.285 -153.85)" fill="#fff" opacity="0.3"/>
          <path id="Path_158734" data-name="Path 158734" d="M207.73,265.516l-.008-54.436-6.042-3.49v54.436Z" transform="translate(-168.769 -165.123)" fill="#90caf9"/>
          <path id="Path_158735" data-name="Path 158735" d="M207.73,265.516l-.008-54.436-6.042-3.49v54.436Z" transform="translate(-168.769 -165.123)" fill="#fff" opacity="0.1"/>
          <path id="Path_158736" data-name="Path 158736" d="M209.478,263.6l17.545-10.13.008-54.436L209.47,209.16Z" transform="translate(-170.516 -163.202)" fill="#90caf9"/>
          <path id="Path_158737" data-name="Path 158737" d="M209.478,263.6l17.545-10.13.008-54.436L209.47,209.16Z" transform="translate(-170.516 -163.202)" fill="#fff" opacity="0.3"/>
          <path id="Path_158738" data-name="Path 158738" d="M225.283,198.02l-6.05-3.49L201.68,204.66l6.042,3.49Z" transform="translate(-168.769 -162.193)" fill="#90caf9"/>
          <path id="Path_158739" data-name="Path 158739" d="M225.283,198.02l-6.05-3.49L201.68,204.66l6.042,3.49Z" transform="translate(-168.769 -162.193)" fill="#fff" opacity="0.55"/>
          <path id="Path_158740" data-name="Path 158740" d="M207.953,209.285,225.281,199l-17.553,9.874c-1.916-1.086-6.058-3.235-6.058-3.235s3.878,2.467,5.825,3.615c-.062,2.048.093,52.225.233,54.3C207.86,261.5,208.015,211.271,207.953,209.285Z" transform="translate(-168.766 -163.195)" fill="#fff" opacity="0.3"/>
          <path id="Path_158741" data-name="Path 158741" d="M165.3,292.542V246.848l-6.05-3.5v45.694Z" transform="translate(-159.25 -173.145)" fill="#90caf9"/>
          <path id="Path_158742" data-name="Path 158742" d="M165.3,292.542V246.848l-6.05-3.5v45.694Z" transform="translate(-159.25 -173.145)" opacity="0.45"/>
          <path id="Path_158743" data-name="Path 158743" d="M167.05,290.622,184.6,280.484V234.79L167.05,244.928Z" transform="translate(-161 -171.225)" fill="#90caf9"/>
          <path id="Path_158744" data-name="Path 158744" d="M167.05,290.622,184.6,280.484V234.79L167.05,244.928Z" transform="translate(-161 -171.225)" opacity="0.3"/>
          <path id="Path_158745" data-name="Path 158745" d="M182.853,233.78l-6.05-3.49L159.25,240.42l6.05,3.5Z" transform="translate(-159.25 -170.215)" fill="#90caf9"/>
          <path id="Path_158746" data-name="Path 158746" d="M182.853,233.78l-6.05-3.49L159.25,240.42l6.05,3.5Z" transform="translate(-159.25 -170.215)" opacity="0.15"/>
          <path id="Path_158747" data-name="Path 158747" d="M182.853,234.79,165.3,244.664l-6.05-3.235,5.81,3.793s0,44.151.24,45.4c.264-1.249.256-45.392.256-45.392Z" transform="translate(-159.25 -171.225)" fill="#fff" opacity="0.3"/>
        </g>
        <g id="freepik--Arrow--inject-17" transform="translate(17.507 27.086)">
          <path id="Path_158748" data-name="Path 158748" d="M246.758,118.83l-1.551-.9-13.473,4.84,2.971,2.792-38.116,40.7-7.943-7.493-1.551-.908L157.34,189.632l3.568,3.343,1.551.908,25.907-27.66,7.4,6.795,2.327,1.357,41.436-44.244,1.722,1.559,1.551.908Z" transform="translate(-157.34 -117.93)" fill="#90caf9"/>
          <path id="Path_158749" data-name="Path 158749" d="M246.758,118.83l-1.551-.9-13.473,4.84,2.971,2.792-38.116,40.7-7.943-7.493-1.551-.908L157.34,189.632l3.568,3.343,1.551.908,25.907-27.66,7.4,6.795,2.327,1.357,41.436-44.244,1.722,1.559,1.551.908Z" transform="translate(-157.34 -117.93)" fill="#fff" opacity="0.25"/>
          <path id="Path_158750" data-name="Path 158750" d="M247.207,119.09l-3.956,13.768-2.971-2.785-41.738,44.562-9.223-8.7-26.411,28.2L159.34,190.8l29.754-31.771,9.223,8.7,38.387-41-2.971-2.785Z" transform="translate(-157.789 -118.19)" fill="#90caf9"/>
          <path id="Path_158751" data-name="Path 158751" d="M197.844,179.49l-.5.543,7.4,6.795,2.327,1.357Z" transform="translate(-166.314 -131.74)" fill="#90caf9"/>
          <path id="Path_158752" data-name="Path 158752" d="M197.844,179.49l-.5.543,7.4,6.795,2.327,1.357Z" transform="translate(-166.314 -131.74)" opacity="0.2"/>
          <path id="Path_158753" data-name="Path 158753" d="M256.221,126.962l1.551.9-2.971-2.785-1.551-.908Z" transform="translate(-178.856 -119.33)" fill="#90caf9"/>
          <path id="Path_158754" data-name="Path 158754" d="M256.221,126.962l1.551.9-2.971-2.785-1.551-.908Z" transform="translate(-178.856 -119.33)" opacity="0.2"/>
          <path id="Path_158755" data-name="Path 158755" d="M263.3,133.568l.3-.318,2.971,2.785-1.551-.908Z" transform="translate(-181.111 -121.367)" fill="#90caf9"/>
          <path id="Path_158756" data-name="Path 158756" d="M263.3,133.568l.3-.318,2.971,2.785-1.551-.908Z" transform="translate(-181.111 -121.367)" opacity="0.2"/>
          <path id="Path_158757" data-name="Path 158757" d="M157.34,210.37l1.551.908,3.568,3.343-1.551-.908Z" transform="translate(-157.34 -138.668)" fill="#90caf9"/>
          <path id="Path_158758" data-name="Path 158758" d="M157.34,210.37l1.551.908,3.568,3.343-1.551-.908Z" transform="translate(-157.34 -138.668)" opacity="0.2"/>
          <path id="Path_158759" data-name="Path 158759" d="M171.98,191.88l19.95-20.64,9.223,8.036-9.223-8.7Z" transform="translate(-160.624 -129.741)" fill="#fff" opacity="0.5"/>
          <path id="Path_158760" data-name="Path 158760" d="M232.27,148.937l21.253-22.215-2.862-2.645,12.907-4.987-13.473,4.848,2.971,2.785Z" transform="translate(-174.15 -118.19)" fill="#fff" opacity="0.5"/>
        </g>
      </g>
      <g id="freepik--chart--inject-17-5" data-name="freepik--chart--inject-17" transform="translate(99.764 216.859)">
        <g id="freepik--speech-bubble--inject-17" transform="translate(0 0)">
          <path id="Path_158761" data-name="Path 158761" d="M213.9,357.72a.923.923,0,0,0,.209-.574v-26.8l5.546-5.608a2.211,2.211,0,0,0,.465-.814c.07-.256.039-.4-.093-.38l-5.918.814v-6.492a.388.388,0,0,0-.636-.365l-32.818,18.98a1.063,1.063,0,0,0-.225.194.907.907,0,0,0-.209.566V376.5c0,.4.287.558.628.365l32.818-18.949a1.069,1.069,0,0,0,.233-.186Z" transform="translate(-180.032 -317.267)" fill="#fff"/>
          <path id="Path_158762" data-name="Path 158762" d="M180.523,377.079a.6.6,0,0,1-.264-.062.628.628,0,0,1-.279-.566V337.218a1.078,1.078,0,0,1,.256-.69,1.273,1.273,0,0,1,.271-.225l32.841-18.973a.651.651,0,0,1,.636-.039.636.636,0,0,1,.279.566v6.252l5.7-.776a.287.287,0,0,1,.264.085.543.543,0,0,1,0,.52,2.381,2.381,0,0,1-.5.884l-5.5,5.561v26.729a1.094,1.094,0,0,1-.256.69h0a1.148,1.148,0,0,1-.279.233l-32.818,18.942A.683.683,0,0,1,180.523,377.079ZM213.7,317.594a.38.38,0,0,0-.186.054L180.693,336.6a1.061,1.061,0,0,0-.178.147.775.775,0,0,0-.171.45v39.256a.287.287,0,0,0,.1.248.279.279,0,0,0,.256-.047l32.818-18.942a.706.706,0,0,0,.186-.155h0a.706.706,0,0,0,.163-.45V330.237l.054-.054,5.546-5.608a2.056,2.056,0,0,0,.419-.729v-.14l-6.05.83v-6.709a.279.279,0,0,0-.093-.248A.123.123,0,0,0,213.7,317.594Z" transform="translate(-179.978 -317.226)" fill="#e0e0e0"/>
        </g>
        <g id="freepik--chart--inject-17-6" data-name="freepik--chart--inject-17" transform="translate(5.526 12.867)">
          <path id="Path_158763" data-name="Path 158763" d="M198.092,336.25v15l-9.122,14.528c-3.211-4.119-2.273-14.412,2.746-22.548C193.763,339.934,195.555,337.856,198.092,336.25Z" transform="translate(-187.102 -334.361)" fill="#ac8f21"/>
          <path id="Path_158765" data-name="Path 158765" d="M211.319,353.3c-1.807,9.114-8.1,17.576-14.288,19.089a6.058,6.058,0,0,1-6.151-1.5l9.161-14.831Z" transform="translate(-187.95 -338.186)" fill="#c5a424"/>
          <path id="Path_158767" data-name="Path 158767" d="M214.409,347.425,203.62,350.07l6.058-15.94C213.533,335.581,215.356,340.684,214.409,347.425Z" transform="translate(-190.808 -333.885)" fill="#826c19"/>
          <path id="Path_158768" data-name="Path 158768" d="M208.418,333.958l-5.468,14.388v-13.4A7.633,7.633,0,0,1,208.418,333.958Z" transform="translate(-190.657 -333.815)" fill="#c5a424"/>
        </g>
      </g>
    </g>
    <g id="freepik--character-2--inject-17" transform="translate(30.205 110.434)">
      <g id="freepik--Chartacter--inject-17">
        <g id="freepik--Bottom--inject-17" transform="translate(1.364 82.109)">
          <path id="Path_158790" data-name="Path 158790" d="M41.646,351.578c.5-7.314.776-10.735,1.458-23.805h0c.062-3.343.178-6.934.4-10.122.76-10.72,2.11-13.279,3.056-16.925s1.668-10.557,3.1-33.625A118.676,118.676,0,0,1,53.893,241H86.929c3.4,14.458,4.359,45.764,4.258,60.672-.047,7.594-.132,46.85.054,49.984a10.572,10.572,0,0,0,3.18,6.81c2.723,2.916,4.654,4.1,8.082,6.647-.489,1.3-7.64,1.257-9.672.264a77.141,77.141,0,0,1-8.532-5.011c-2.8-2.079-3.459-3.328-3.506-6.485a8.155,8.155,0,0,1,0-1.032c-.054-1.846-5.368-29.351-6.531-35.564-.9-4.825.085-14.164.085-14.164l-3.5-22.983s-3.948,15.25-6.058,24.542c-1.551,6.826-5.383,17.615-7.9,28.529h0c-2.932,11.1-3.165,12.077-4.894,20.028-.876,4-3.01,17.483-3.979,20.253-3.1,8.943-10.239,4.5-10.634-.442C37.147,369.76,41.537,353.153,41.646,351.578Z" transform="translate(-36.146 -241)" fill="#ffbda7"/>
          <path id="Path_158791" data-name="Path 158791" d="M80.57,285.34l2.56-16.576s9.89-1.171,13.489-4.654c0,0-4.538,6.4-11.247,7.446l-2.823,13.737,1.458,22.828Z" transform="translate(-45.835 -246.184)" fill="#f0997a"/>
          <path id="Path_158792" data-name="Path 158792" d="M122.16,403.624a2.878,2.878,0,0,1-.512,2.916A12.421,12.421,0,0,1,112.6,408.7c-4.514-.527-6.981-1.908-8.78-3.4s-4.367-3.584-6.415-4.018c-1.893-.4-4.988-1.427-5.6-2.009s-.551-3.18-.551-3.18Z" transform="translate(-48.231 -275.795)" fill="#263238"/>
          <path id="Path_158793" data-name="Path 158793" d="M92.849,384.32a1.389,1.389,0,0,0-.714.892c-.132.721-.132,1.637-.419,2.816a21.02,21.02,0,0,0-.372,6.329c.264,1.326,4.382,2.42,6.368,3.149a25.278,25.278,0,0,1,6.43,3.964,18.523,18.523,0,0,0,9.541,3.436c4.483,0,7.369-1.226,8.245-2.847,1.094-2.009.209-3.149-4.964-5.484-.985-.442-4.429-2.428-5.6-3.149a26.74,26.74,0,0,1-3.537-2.575,21.186,21.186,0,0,1-1.59-1.551,7.268,7.268,0,0,1-1.319-1.652c-.062-.132-.1-.295-.155-.434a7.333,7.333,0,0,1-.349-1.2c-.085-.427-.147-1.055-.558-1.3a3.358,3.358,0,0,0-1.838-.2,15.514,15.514,0,0,0-1.986.3c-.776.178-2.661.062-3.1.776a3.785,3.785,0,0,0-.4,1.869q0,.454,0,.908c0,.124.054.357-.124.3s-.365-.5-.434-.644c-.147-.334-.24-.7-.4-1.024a2.908,2.908,0,0,0-.652-1.086c-.861-.714-1.691-.559-1.939-.776C92.973,385.119,92.88,384.576,92.849,384.32Z" transform="translate(-48.232 -273.152)" fill="#37474f"/>
          <path id="Path_158794" data-name="Path 158794" d="M122.946,400.62c-6.485.512-8.478,4.545-8.726,7.027a15.179,15.179,0,0,0,4.654.915c4.483,0,7.555-1.226,8.431-2.847C128.29,403.823,127.569,402.319,122.946,400.62Z" transform="translate(-53.384 -276.809)" fill="#fafafa"/>
          <path id="Path_158795" data-name="Path 158795" d="M112.846,400a.3.3,0,0,1-.2-.07.318.318,0,0,1-.054-.45,7.648,7.648,0,0,1,5.841-2.374.318.318,0,0,1,.287.349.31.31,0,0,1-.349.279,7.066,7.066,0,0,0-5.282,2.141.318.318,0,0,1-.24.124Z" transform="translate(-53.003 -276.02)" fill="#f0f0f0"/>
          <path id="Path_158796" data-name="Path 158796" d="M109.217,397.941a.333.333,0,0,1-.2-.07.318.318,0,0,1-.047-.45,7.617,7.617,0,0,1,5.841-2.374.318.318,0,1,1-.062.628,7.1,7.1,0,0,0-5.29,2.141.3.3,0,0,1-.24.124Z" transform="translate(-52.19 -275.558)" fill="#f0f0f0"/>
          <path id="Path_158797" data-name="Path 158797" d="M105.907,395.581a.326.326,0,0,1-.256-.52,7.633,7.633,0,0,1,5.841-2.374.315.315,0,1,1-.054.628,7.082,7.082,0,0,0-5.29,2.141A.334.334,0,0,1,105.907,395.581Z" transform="translate(-51.448 -275.028)" fill="#f0f0f0"/>
          <path id="Path_158798" data-name="Path 158798" d="M102.558,393.2a.294.294,0,0,1-.194-.062.326.326,0,0,1-.062-.45,7.875,7.875,0,0,1,6.384-2.412.318.318,0,0,1,.287.349.326.326,0,0,1-.349.287,7.217,7.217,0,0,0-5.817,2.172A.318.318,0,0,1,102.558,393.2Z" transform="translate(-50.697 -274.48)" fill="#f0f0f0"/>
          <path id="Path_158799" data-name="Path 158799" d="M48.666,411.844a14.158,14.158,0,0,1-2.482,6.647,4.485,4.485,0,0,1-5.368,1.241c-2-.752-4.483-2.436-4.786-5.119a16.7,16.7,0,0,1,.334-7.283Z" transform="translate(-35.789 -278.314)" fill="#263238"/>
          <path id="Path_158800" data-name="Path 158800" d="M41.359,383.56c-.861,0-1.078,4.026-2.024,8.051-1.008,4.32-1.831,5.988-2.7,9.525-.985,4.041-.512,5.942.652,8.587s5.98,5.631,8.874,2.327c2.327-2.668,2.808-5.872,3.1-9.983A59.951,59.951,0,0,1,50.97,391.86c.721-3.273,1.5-6.205.776-6.655a29.4,29.4,0,0,1-.869,3.25c-.116.225-.5.776-.543-.116,0-.256.132-.838.14-1.086a1.086,1.086,0,0,0-.659-1.07,8.222,8.222,0,0,0-3.529-1.195c-1.652-.194-3.1-.4-4.057,0-.59.217-.636.776-.776,1.264s-.194.985-.334.845C40.871,386.818,41.4,384.01,41.359,383.56Z" transform="translate(-35.86 -272.982)" fill="#37474f"/>
          <path id="Path_158801" data-name="Path 158801" d="M36.1,409.014a10.239,10.239,0,0,0,.9,6.4c1.156,2.645,6.384,5.693,9.308,2.42a11.688,11.688,0,0,0,2.412-5.794C47.5,409.138,38.731,406.943,36.1,409.014Z" transform="translate(-35.822 -278.509)" fill="#fafafa"/>
          <path id="Path_158802" data-name="Path 158802" d="M48.284,406.466l-.1-.039a14.489,14.489,0,0,0-7.695-1.621.318.318,0,0,1-.349-.279.31.31,0,0,1,.279-.349,14.978,14.978,0,0,1,8.144,1.706.326.326,0,0,1,.1.442.334.334,0,0,1-.38.14Z" transform="translate(-36.765 -277.598)" fill="#f0f0f0"/>
          <path id="Path_158803" data-name="Path 158803" d="M41.2,400.856a.31.31,0,0,1-.24-.24.318.318,0,0,1,.24-.38c3.948-.869,7.951,1.551,8.106,1.637a.318.318,0,0,1-.357.527s-3.94-2.327-7.609-1.551A.418.418,0,0,1,41.2,400.856Z" transform="translate(-36.947 -276.681)" fill="#f0f0f0"/>
          <path id="Path_158804" data-name="Path 158804" d="M41.788,397.142a.3.3,0,0,1-.24-.233.31.31,0,0,1,.233-.38,11.331,11.331,0,0,1,8.261,1.629.31.31,0,0,1,.054.442.318.318,0,0,1-.442.062,11,11,0,0,0-7.757-1.551A.217.217,0,0,1,41.788,397.142Z" transform="translate(-37.079 -275.836)" fill="#f0f0f0"/>
          <path id="Path_158805" data-name="Path 158805" d="M42.458,393.522a.318.318,0,0,1-.24-.233.326.326,0,0,1,.233-.388c4.08-1.032,8.152,1.613,8.3,1.722a.317.317,0,1,1-.372.512s-3.987-2.575-7.757-1.621a.318.318,0,0,1-.163.008Z" transform="translate(-37.23 -275.024)" fill="#ebebeb"/>
          <path id="Path_158806" data-name="Path 158806" d="M52.65,241c-1.241,9.013-1.629,11.232-2.979,31.321-1.3,19.477-1.412,22.331-1.606,24.682-.442,5.375-2.823,7.237-3.521,19.934-.636,11.635-1.024,25.992-1.024,25.992s1.551,2.149,6,2.552c4.088.365,6.135-1.171,6.135-1.171s7.578-27.148,9.7-33.958c2.87-9.269,6.9-25.542,6.9-25.542l2.676,18.616a66.908,66.908,0,0,0,.869,17.344c2.141,10.464,4.336,21.843,4.336,21.843a13.915,13.915,0,0,0,6.159.776c4.786-.481,6.384-1.6,6.384-1.6s1.342-31.546,1.342-43.072-.14-39.729-.776-57.663Z" transform="translate(-37.524 -241)" fill="#455a64"/>
          <path id="Path_158807" data-name="Path 158807" d="M80.57,289.861l3.32-20.167s6.671-1.761,10.96-6.244c-.318,3.343-6.252,7.625-9.036,8.292l-3.708,17.84,1.125,18.9Z" transform="translate(-45.835 -246.036)" fill="#37474f"/>
          <path id="Path_158808" data-name="Path 158808" d="M68.958,245.05a27.489,27.489,0,0,0-2.5,5.29,52.146,52.146,0,0,0-1.668,5.6,58.011,58.011,0,0,0-1.055,5.748,38.59,38.59,0,0,0-.388,5.833c.465-1.9.9-3.777,1.334-5.662s.845-3.762,1.3-5.631.908-3.739,1.381-5.608S68.376,246.912,68.958,245.05Z" transform="translate(-41.972 -241.909)" fill="#37474f"/>
          <path id="Path_158809" data-name="Path 158809" d="M65.189,246a20.766,20.766,0,0,0-2.637,2.963,27.614,27.614,0,0,0-2.141,3.328,25.325,25.325,0,0,0-1.629,3.622,15.606,15.606,0,0,0-.892,3.878l1.776-3.49c.6-1.148,1.195-2.327,1.823-3.413s1.249-2.265,1.869-3.405S64.615,247.163,65.189,246Z" transform="translate(-40.747 -242.122)" fill="#37474f"/>
          <path id="Path_158810" data-name="Path 158810" d="M68.491,276c-.838,6.042-1.6,12.093-2.327,18.135s-2.234,12.713-3.343,18.678S54.653,342.172,53.73,348.2c1.4-5.942,9.122-29.157,10.293-35.161s2.505-12.721,3.1-18.794S68.126,282.1,68.491,276Z" transform="translate(-39.814 -248.852)" fill="#37474f"/>
          <path id="Path_158811" data-name="Path 158811" d="M100.73,276l.993,15.9c.147,2.645.318,5.29.442,7.935s.279,5.306.233,7.919-.217,28,.14,33.315c.621-5.918.908-27.924,1.086-33.3,0-5.368-.473-10.65-.946-15.948S101.552,281.259,100.73,276Z" transform="translate(-50.358 -248.852)" fill="#37474f"/>
          <path id="Path_158812" data-name="Path 158812" d="M90.09,368.461l.9,5.523s2.211,1.412,6.857.931,5.313-1.978,5.313-1.978v-5.2s-1.117,1.078-5.36,1.551a18.352,18.352,0,0,1-7.71-.83Z" transform="translate(-47.971 -269.433)" fill="#37474f"/>
          <path id="Path_158813" data-name="Path 158813" d="M43.531,367.47l-.411,5.577s1.823,1.893,6.446,2.505,5.631-.69,5.631-.69l1.21-5.05s-1.334.776-5.569.264A18.251,18.251,0,0,1,43.531,367.47Z" transform="translate(-37.434 -269.372)" fill="#37474f"/>
        </g>
        <g id="freepik--Top--inject-17">
          <path id="Path_158814" data-name="Path 158814" d="M98.36,182.85c6.725,1.357,9.153,3.3,12.923,9.595,2.785,4.654,4.476,7.664,9.005,14.218l14.179,1.551-2.854,10.231s-8.734.279-13.675.667c-3.7.295-4.545,0-6.849-2.769-4.755-5.717-10.479-13.853-10.479-13.853Z" transform="translate(-48.463 -145.845)" fill="#e0e0e0"/>
          <g id="freepik--Chest--inject-17" transform="translate(0 35.477)">
            <path id="freepik--chest--inject-17-2" data-name="freepik--chest--inject-17" d="M67.327,180.88c-2.591.419-9.7,2.4-13.962,3.723,0,0-2.218,5.926.527,26.5a127.518,127.518,0,0,1,.186,13.574c-.1,4.592-.6,9.626-1.078,14.4,0,0,7.912,4.491,26.039,2.637,14.241-1.458,16.522-4.972,16.522-4.972s.109-19.438.3-29.972c.225-12.713-4.592-20.865-7.811-24.356a54.8,54.8,0,0,0-9.936-1.435Z" transform="translate(-38.179 -180.88)" fill="#f0f0f0"/>
            <path id="Path_158815" data-name="Path 158815" d="M49.885,185.41c-5.43,1.078-5.926,2.2-8.416,7.757-1.815,4.057-6.3,14.567-7.338,22.223-.4,2.878.411,6.694,1.97,8.424,3.584,3.971,12.232-10.859,12.232-10.859l7.136-11.573S55.276,186.876,49.885,185.41Z" transform="translate(-34.031 -181.896)" fill="#e0e0e0"/>
          </g>
          <g id="freepik--Head--inject-17" transform="translate(19.84)">
            <path id="Path_158816" data-name="Path 158816" d="M88.86,149.514c1.45-3.591-.194-8.261-2.1-10.417-2.761-3.1-6.981-4.39-13.186-3.824-4.763.427-10.417,2.707-11.177,7.632-4.351,2.327-2.614,8.447-1.365,11,2.622,5.352,6.252,9.494,6.4,12.372Z" transform="translate(-59.61 -135.143)" fill="#263238"/>
            <path id="Path_158817" data-name="Path 158817" d="M89.17,165.16a8.106,8.106,0,0,1-5.825,5.034,15.816,15.816,0,0,1-2.544.271l.194,3.18c2.048,1.412,2.389,6.632.574,8.284a26.372,26.372,0,0,1-13.962-7.214l-.318-11.7s-1.5,1.792-4.08.209c-1.769-1.094-3.405-4.15-1.908-6.733a3.273,3.273,0,0,1,5.065-.814c.776.776,1.218,2.218,1.854,1.993a2.327,2.327,0,0,0,1.551-1.637,14.241,14.241,0,0,0,.683-5.174,6.74,6.74,0,0,0,1.924-1.551,6.391,6.391,0,0,0,1.606-3.979c5.391-1.854,11.635-1.226,13.962.458,1.365,2.257,1.551,7.586,1.854,10.65A20.289,20.289,0,0,1,89.17,165.16Z" transform="translate(-59.857 -137.176)" fill="#ffbda7"/>
            <path id="Path_158818" data-name="Path 158818" d="M83.107,158.735a1.094,1.094,0,1,1-1.06-1.124,1.1,1.1,0,0,1,1.06,1.124Z" transform="translate(-64.39 -140.183)" fill="#263238"/>
            <path id="Path_158819" data-name="Path 158819" d="M94.053,157.556a1.1,1.1,0,1,1-1.065-1.05,1.1,1.1,0,0,1,1.065,1.05Z" transform="translate(-66.843 -139.935)" fill="#263238"/>
            <path id="Path_158820" data-name="Path 158820" d="M83.079,175.922c-2.785-.078-8.416-1.226-9.952-2.738s-2.257-4.654-2.257-4.654.334,4.01,1.551,5.748,4.134,2.428,5.918,2.823a43.849,43.849,0,0,0,4.856.6Z" transform="translate(-62.136 -142.633)" fill="#f0997a"/>
            <path id="Path_158821" data-name="Path 158821" d="M86.94,155.94l.807,7.718,3.793-1.435Z" transform="translate(-65.741 -139.808)" fill="#f0997a"/>
            <path id="Path_158822" data-name="Path 158822" d="M83.74,168.8a1.21,1.21,0,1,0,.335-.868,1.21,1.21,0,0,0-.335.868Z" transform="translate(-65.023 -142.415)" fill="#b16668"/>
            <path id="Path_158823" data-name="Path 158823" d="M85.779,169.846a1.233,1.233,0,0,1-.776.326,1.21,1.21,0,0,1-1.233-1.187,1.132,1.132,0,0,1,.155-.605,3.669,3.669,0,0,1,1.854,1.466Z" transform="translate(-65.03 -142.599)" fill="#f28f8f"/>
            <path id="Path_158824" data-name="Path 158824" d="M92.31,153.36l2.529,1.086a1.45,1.45,0,0,0-.776-1.854,1.342,1.342,0,0,0-1.753.768Z" transform="translate(-66.946 -139.036)" fill="#263238"/>
            <path id="Path_158825" data-name="Path 158825" d="M81.54,154.122l-2.567,1.055a1.443,1.443,0,0,1,.776-1.838,1.342,1.342,0,0,1,1.792.783Z" transform="translate(-63.932 -139.2)" fill="#263238"/>
            <path id="Path_158826" data-name="Path 158826" d="M86.626,138l-12.248,5.585c-9.184,4.243-6.694,11.348-4.654,12.713a10.285,10.285,0,0,0,5.67-11.208c1.14,2.5,5.026,4.351,7.26,4.452a4.5,4.5,0,0,1-.845-3.219s1.094,1.187,4.654,1.551a9.564,9.564,0,0,0,6.593-1.435S91.225,140.242,86.626,138Z" transform="translate(-61.447 -135.784)" fill="#263238"/>
          </g>
          <g id="freepik--Tie--inject-17" transform="translate(23.517 32.033)">
            <path id="Path_158827" data-name="Path 158827" d="M89.492,192.123s1.714-4.375,1.644-5.755l-2.428-2.187-.248,6.151Z" transform="translate(-69.759 -178.176)" fill="#90caf9"/>
            <path id="Path_158828" data-name="Path 158828" d="M89.492,192.123s1.714-4.375,1.644-5.755l-2.428-2.187-.248,6.151Z" transform="translate(-69.759 -178.176)" opacity="0.2"/>
            <path id="Path_158829" data-name="Path 158829" d="M83.746,191.514l-4.057-2.374-3.079,2.389,6.151,2.637Z" transform="translate(-67.1 -179.289)" fill="#90caf9"/>
            <path id="Path_158830" data-name="Path 158830" d="M83.746,191.514l-4.057-2.374-3.079,2.389,6.151,2.637Z" transform="translate(-67.1 -179.289)" opacity="0.2"/>
            <path id="Path_158831" data-name="Path 158831" d="M84.15,223.224c.489-12.5,1.737-21.974,1.551-25.015L87.834,198c1.419,3.669,5.988,14.582,5.755,23.223.062,3.017-1.931,9.812-3.964,9.851S84.08,225.063,84.15,223.224Z" transform="translate(-68.792 -181.277)" fill="#fe502d"/>
            <path id="Path_158833" data-name="Path 158833" d="M88.464,198.505c-.078-.194-.124-.326-.178-.465h0l-2.125.178h0v.915A3.739,3.739,0,0,0,88.464,198.505Z" transform="translate(-69.243 -181.286)" opacity="0.2"/>
            <path id="Path_158834" data-name="Path 158834" d="M85.375,192.111a13.964,13.964,0,0,1,2.141-.132,4.887,4.887,0,0,1,1.14,1.652,7.268,7.268,0,0,1-.776,3.048,2.591,2.591,0,0,1-2.133.178,4.46,4.46,0,0,1-1.5-2.071,3.785,3.785,0,0,1,1.125-2.676Z" transform="translate(-68.814 -179.926)" fill="#fe502d"/>
            <path id="Path_158836" data-name="Path 158836" d="M81.182,188.587l-.271.039c-1.551-.706-1.939-1.039-2.327-.9-.729.256-2.327,3.452-2.668,4.483s-.295,1.008-1.714.186c-2.746-1.606-6.066-4-7.485-5.8a12.333,12.333,0,0,1-2.366-5.383,19.342,19.342,0,0,0,2.156-2.257c1.016-1.551,1.078-2.327,1.784-2.513v1.365c.233,1.373,2.4,2.56,4.429,4.111s5.321,2.948,6.1,3.615A16.761,16.761,0,0,1,81.182,188.587Z" transform="translate(-64.35 -176.44)" fill="#e6e6e6"/>
            <path id="Path_158837" data-name="Path 158837" d="M93.052,189.452c-.178.582-2.242-3.723-3.1-3.576-.419.054-1.551,1.908-1.885,2.963h-.442a13.419,13.419,0,0,0,.419-3.739,9.714,9.714,0,0,0-1.218-3.878l-.194-3.18a6.662,6.662,0,0,0,1.063-.062c.24.209.706,1.148,1.156,1.706,1.039,1.288,3.405,3.165,3.793,4.832A14.583,14.583,0,0,1,93.052,189.452Z" transform="translate(-69.348 -176.785)" fill="#e6e6e6"/>
          </g>
          <g id="freepik--Tablet--inject-17" transform="translate(50.595 49.245)">
            <path id="Path_158838" data-name="Path 158838" d="M143.581,198.63l-31.825,7.392-12.5,35.494.605.807,30.328-7.625,13.993-35.262Z" transform="translate(-99.26 -198.63)" fill="#fe502d"/>
            <path id="Path_158839" data-name="Path 158839" d="M112.353,208.959l-12.488,35.5-.605-.807,12.5-35.494Z" transform="translate(-99.26 -200.768)" opacity="0.35"/>
            <path id="Path_158840" data-name="Path 158840" d="M144.361,199.67l-31.833,7.384-12.488,35.5,30.328-7.625Z" transform="translate(-100.04 -198.863)" opacity="0.25"/>
            <g id="Group_100028" data-name="Group 100028" transform="translate(20.035 5.665)" opacity="0.1">
              <path id="Path_158841" data-name="Path 158841" d="M139.921,207.536s.178-.535.388-1.195-1.621-.5-4.1.349l-5.709,1.055c-2.482.853-4.8,1.427-5.019,2.087l-.388,1.195Z" transform="translate(-125.09 -205.934)"/>
            </g>
            <path id="Path_158842" data-name="Path 158842" d="M142.594,200.8c.14-.411-.574-.4-1.551-.256l-1.831.4s.915-1.691-3.39-1.024c-4.732.737-5.081,3.017-5.081,3.017a22.542,22.542,0,0,1-2.327.559c-1.551.326-1.784.6-1.955,1.016l-.31.776,16.227-3.793S142.462,201.213,142.594,200.8Z" transform="translate(-105.292 -198.886)" fill="#37474f"/>
            <path id="Path_158843" data-name="Path 158843" d="M141.122,203.473c-1.551.489-2.156.776-2.49,1.761-.372,1.163-.481,1.652-.481,1.652l-8.486,2.327s.636-1.7.776-2.273-.9-.69-2.381-.2l.5-1.419,13.186-3.289Z" transform="translate(-105.721 -199.393)" fill="#37474f"/>
            <path id="Path_158844" data-name="Path 158844" d="M140.461,207.586s.171-.535.388-1.195-1.621-.5-4.1.341l-5.709,1.063c-2.482.845-4.8,1.427-5.019,2.087l-.388,1.195Z" transform="translate(-105.176 -200.28)" fill="#37474f"/>
            <path id="Path_158845" data-name="Path 158845" d="M148.074,219.455c1.086-1.195,1.024-1.373.6-2.1a4.157,4.157,0,0,0-3.149-2.11,8.571,8.571,0,0,0-2.932,0c-.628.233-.271,1.551,1.187,2.048,2.327.776,2.2,1.443,2.2,1.443a30.616,30.616,0,0,0-2.979-.892,22.85,22.85,0,0,0-3.521.116c-1.008.047-1.357,1.3.279,1.939l-1.854.078c-1.3.054-1.815.683-.908,1.551a1.854,1.854,0,0,0,1.1.566s-1.357-.155-1.435.287c-.233,1.288.566,1.73,3.219,2.847,2.079.876,2.847,2.094,2.7,3l-.209.52s.9-.566,1.916-1.1c.776-.4,1.388-.861,1.2-1.97,0,0,1.489.2,1.691-.706a4.8,4.8,0,0,0-.124-2.024,1.652,1.652,0,0,0,1-1.443,2.637,2.637,0,0,0-.357-1.683Z" transform="translate(-107.623 -202.329)" fill="#ffbda7"/>
            <path id="Path_158846" data-name="Path 158846" d="M140.69,221.248a8.656,8.656,0,0,1,1.675,0,5.429,5.429,0,0,1,1.551.7,19.645,19.645,0,0,1,2.707,1.885,20.066,20.066,0,0,1-2.948-1.466,9.386,9.386,0,0,0-1.388-.776A13.688,13.688,0,0,1,140.69,221.248Z" transform="translate(-108.554 -203.695)" fill="#f0997a"/>
            <path id="Path_158847" data-name="Path 158847" d="M138.55,224.127a3.653,3.653,0,0,1,1.8.163,8.648,8.648,0,0,1,1.637.776,16.429,16.429,0,0,1,2.924,2.032,33.51,33.51,0,0,1-3.157-1.613,9.432,9.432,0,0,0-3.2-1.357Z" transform="translate(-108.074 -204.339)" fill="#f0997a"/>
          </g>
          <g id="freepik--Hand--inject-17" transform="translate(0.828 28.817)">
            <path id="Path_158848" data-name="Path 158848" d="M57.45,189.723a16.583,16.583,0,0,0,3.1-5.771c.644-2.451,2.622-4.693,3.3-5.616s2.118-2.28,3.227-3.576,1.427-1.652,3-1.9c2.156-.334,3.878-.652,4.654-.38s.776.822.07,1.551-2.327.892-2.769,1.032-1.551.582-1.551.582l-2.032,2.909a28.7,28.7,0,0,1,4.026,1.039,3.259,3.259,0,0,1,.9,3.033A1.823,1.823,0,0,1,74.1,184.7s.776.993.217,1.8a13.535,13.535,0,0,1-2.04,2.2,5.53,5.53,0,0,1-1.986.45,14.8,14.8,0,0,1-2.591,2.916c-1.171.845-1.931.776-3.227,2.56Z" transform="translate(-40.113 -172.313)" fill="#ffbda7"/>
            <path id="Path_158849" data-name="Path 158849" d="M73.61,180.569c.776-.334.993-.869,1.745-.574s.45,1.156.45,1.156Z" transform="translate(-43.739 -174.002)" fill="#f0997a"/>
            <path id="Path_158850" data-name="Path 158850" d="M77.038,185.174a7.757,7.757,0,0,0-1.629-1.078c-.551-.279-1.7-.706-1.7-.706a8.29,8.29,0,0,1,2.327.589,6.493,6.493,0,0,1,1.1.574,2.048,2.048,0,0,1-.085.551Z" transform="translate(-43.761 -174.783)" fill="#f0997a"/>
            <path id="Path_158851" data-name="Path 158851" d="M77.676,187.043a6.085,6.085,0,0,1,.776.4,2.079,2.079,0,0,1-.14.543,6.671,6.671,0,0,0-2.1-1.35,6.9,6.9,0,0,1,1.466.4Z" transform="translate(-44.322 -175.512)" fill="#f0997a"/>
            <path id="Path_158852" data-name="Path 158852" d="M73.55,193.653a16.442,16.442,0,0,1,1.683-2.637,1.218,1.218,0,0,1,1.652-.132c.209.326-.884.272-1.21.4a10.526,10.526,0,0,0-2.125,2.366Z" transform="translate(-43.725 -176.405)" fill="#f0997a"/>
            <path id="Path_158853" data-name="Path 158853" d="M70.47,178.838s.628-.869,1.753-2.242,1.055-1.171,2.133-1.365,3.1-.535,3.684-1.171a3.105,3.105,0,0,1-.31.357c-.721.714-2.327.892-2.769,1.032s-1.551.582-1.551.582l-2.094,2.986Z" transform="translate(-43.034 -172.69)" fill="#f0997a"/>
            <path id="Path_158854" data-name="Path 158854" d="M52.436,194.74c-3.669,4.313-13.535,14.652-15.862,18.818-1.6,2.862-2.079,9.564-.527,12.023s6.12,1.474,9.835-1.706c3.211-2.746,5.949-9.417,8.323-14.156s5.2-10.084,5.2-10.084Z" transform="translate(-35.099 -177.329)" fill="#ffbda7"/>
            <path id="Path_158855" data-name="Path 158855" d="M57.45,189.7a22.4,22.4,0,0,0,2.2-3.49,11.976,11.976,0,0,0,.729-1.924,11.271,11.271,0,0,1,.69-1.955,18.825,18.825,0,0,1,2.249-3.467,29.614,29.614,0,0,1,2.715-3.1c.473-.5.923-1.016,1.373-1.551a3.576,3.576,0,0,1,1.668-1.233,17.287,17.287,0,0,1,2.048-.388c.675-.109,1.357-.217,2.048-.279a6.75,6.75,0,0,1,1.047,0,1.784,1.784,0,0,1,1.024.341.6.6,0,0,1,.217.543,1.14,1.14,0,0,1-.225.512,2.513,2.513,0,0,1-.776.776,6.577,6.577,0,0,1-1.986.659,10.518,10.518,0,0,0-1.931.659h.047l-2.04,2.9-.062-.147a35.165,35.165,0,0,1,3.646.892,1.877,1.877,0,0,1,.45.194,1.358,1.358,0,0,1,.349.349,3.281,3.281,0,0,1,.419.861,3.343,3.343,0,0,1,.116,1.893v-.093a2.443,2.443,0,0,1,.776.954,1.644,1.644,0,0,1,.116.605,1.621,1.621,0,0,1-.124.605v-.07a1.831,1.831,0,0,1,.295,1.73,8.113,8.113,0,0,1-1.14,1.28c-.2.209-.411.419-.628.621a1.986,1.986,0,0,1-.729.52,7.486,7.486,0,0,1-1.745.233h.047a15.064,15.064,0,0,1-1.249,1.6,7.756,7.756,0,0,1-1.474,1.381c-.551.4-1.187.636-1.737,1.032a6.485,6.485,0,0,0-1.443,1.419,6.353,6.353,0,0,1,1.388-1.458c.543-.4,1.179-.659,1.722-1.055a7.679,7.679,0,0,0,1.443-1.4c.434-.512.838-1.047,1.218-1.6h0a7.445,7.445,0,0,0,1.714-.264,1.861,1.861,0,0,0,.683-.5c.217-.2.419-.4.621-.621a7.468,7.468,0,0,0,1.086-1.35,1.675,1.675,0,0,0-.287-1.59h0v-.039a1.551,1.551,0,0,0,.109-.551,1.365,1.365,0,0,0-.109-.551,2.218,2.218,0,0,0-.706-.877h-.047v-.054a3.149,3.149,0,0,0-.124-1.792c-.2-.566-.489-1.171-1.117-1.3A36.183,36.183,0,0,0,68.4,178.7h-.147l.085-.116,2.024-2.916h0a11.07,11.07,0,0,1,1.962-.683,6.43,6.43,0,0,0,1.924-.621,2.389,2.389,0,0,0,.721-.675c.194-.256.295-.6,0-.776a2.862,2.862,0,0,0-1.924-.271c-.675.062-1.357.163-2.04.271a15.678,15.678,0,0,0-2.017.372,3.39,3.39,0,0,0-1.606,1.179c-.45.512-.9,1.039-1.381,1.551a28.576,28.576,0,0,0-2.723,3.1,18.9,18.9,0,0,0-2.257,3.436,10.659,10.659,0,0,0-.706,1.931,11.813,11.813,0,0,1-.776,1.924,22.3,22.3,0,0,1-2.094,3.3Z" transform="translate(-40.113 -172.294)" fill="#f0997a"/>
          </g>
        </g>
      </g>
    </g>
    <g id="freepik--character-1--inject-17" transform="translate(137.649 35.602)">
      <g id="freepik--Character--inject-17" transform="translate(0 0)">
        <g id="freepik--bottom--inject-17-2" data-name="freepik--bottom--inject-17" transform="translate(159.737 121.951)">
          <path id="Path_158856" data-name="Path 158856" d="M455.37,334.42c.574,1.551,1.451,3.366,2.49,6.616s.334,3.506,3.925,11.488c2.156,4.786,2.257,6.818-.1,11.557-2.513,5.065-6.089,4.732-9.168.093-2.637-3.971-2.854-5.98-3.615-10.417s-1.016-5.724-1.815-9.215c-.7-3.1-.776-5.236-1.4-7.578Z" transform="translate(-393.563 -226.968)" fill="#37474f"/>
          <path id="Path_158857" data-name="Path 158857" d="M447.146,323.839c-.427-2.327-1.947-5.282-2.948-8.431-1.342-4.2-2.234-8.633-2.948-11.5-.039-.147-.078-.31-.116-.465-1.055-4.5-2.56-18.36-4.739-31.6-1.885-11.48-4.406-14.35-5.507-16.809,0,0-.877-11.5-2.133-34.649-.776-14.738-6-20.3-7.043-24.162l-31.554.271c-.256,4.421-1.311,10.526-1.6,16.436-.776,15.459.085,33.563.465,44.81.093,2.87.473,9.548.915,16.708h0c.652,14.35,1.388,25.93.9,29.475a28.507,28.507,0,0,1-1.613,7.268,28.99,28.99,0,0,1-3.809,7.431s-3.933,4.189-3.056,4.654,9.106,1.3,12.791.194,4.072-4.243,5.329-9.952,2.327-14.039,2.327-14.039-.1-.24-.38-.97c-.341-.908.939-6.205,1.551-10.084h0c1.078-5.616,2.2-11.782,2.575-14.738,1.14-9.052-1-14.264-1-14.264l3.731-22.2a188.628,188.628,0,0,0,4.227,21.323c1.132,4.01,5.879,17.3,5.879,17.3,1.195,3.723,8.672,20.229,12.093,30.375,0,0,3.041,14.047,5,20.121a1.21,1.21,0,0,0,1.831.644,11.007,11.007,0,0,1,7.392-1.737,1.21,1.21,0,0,0,1.435-1.412Z" transform="translate(-379.327 -195.964)" fill="#ffa8a7"/>
          <path id="Path_158858" data-name="Path 158858" d="M412.3,242.7l-3.77-18.236s-9.409-.621-12.985-3.832c0,0,4.654,6.066,11.014,6.725l3.382,13.4L408.589,264.7Z" transform="translate(-382.314 -201.44)" fill="#f28f8f"/>
          <path id="Path_158859" data-name="Path 158859" d="M412.156,340.308c-.248,1.334-1.388,2.847-1.9,4.918a36.991,36.991,0,0,0-1.078,7.214l-.186,3.4-.923-.047s.24-4.3.341-6.205,0-3.273-.9-3.522C407.51,346.079,407.688,340.068,412.156,340.308Z" transform="translate(-384.997 -228.287)" fill="#263238"/>
          <path id="Path_158860" data-name="Path 158860" d="M401.829,328.34c.6,1.551,2.6,3.785,3.459,5.29a5.694,5.694,0,0,1,.706,2.583,2.746,2.746,0,0,1-.814,2.024,30.6,30.6,0,0,0-2.862,3.165,25.771,25.771,0,0,0-3.832,7.532c-.59,2.49-.923,4.693-3.064,5.926-1.668.962-8.532,2.327-11.976,2.529-4.732.3-5.957-1.97-4.189-3.793s4.778-4.925,5.321-5.313a8.532,8.532,0,0,1,4.39.613c2.653,1.14,3.5,2.684,6.275,1.3,2.521-1.257,3.522-5.918,3.312-12.612C398.315,329.969,401.829,328.34,401.829,328.34Z" transform="translate(-378.486 -225.604)" fill="#37474f"/>
          <path id="Path_158861" data-name="Path 158861" d="M391.67,196.146c-.209,2.273-.605,6.252-.923,8.68s-.737,6.562-.923,10.254-.264,11.394-.264,16.11c0,10.456.194,25.333.4,28.955s.659,7.314.659,7.314,19.756,6.205,38.488,0c-1.063-8.641-1.606-17.359-1.606-17.359s2.723,10.518,4.755,16.149c1.854-1.07,4.964-3.351,4.964-3.351s-1.606-4.4-2.909-8.059c-1.652-4.654-1.59-10.774-2.2-19.12s0-21.059-4.592-31.631l-3.715-8.2Z" transform="translate(-380.971 -195.89)" fill="#263238"/>
        </g>
        <g id="freepik--top--inject-17-2" data-name="freepik--top--inject-17" transform="translate(114.58 49.444)">
          <path id="Path_158862" data-name="Path 158862" d="M322.163,132.725c-.776-.256-.993.473-.574,1.086,1.008,1.45,3.157,1.613,4.111,2.273.217.194,2.761,3.1,2.754,3.878-.776-.442-3.048-2.032-3.832-2.436-.225-.116-.884-.318-2.917-.923a2.9,2.9,0,0,0-1.07-.217c-.256.047-.574.543-.178,1.117.714,1.024,2.211,1.148,3.3,1.737.543.264,2.2,1.218,2.6,2.4-1.652-.683-2.761-.737-5.43-.776-.31,0-.38.147-.388.349a1.1,1.1,0,0,0,.5.853c.69.465,1.745.419,2.885.706a7.461,7.461,0,0,1,3.1,1.823,3.188,3.188,0,0,1,.776,1.078,16,16,0,0,1,.489,1.606,5.6,5.6,0,0,0,5.019,3.762.776.776,0,0,0,.427-.07.853.853,0,0,0,.295-.683c.178-2.521-.776-4.964-1.427-7.408-.209-.776-1.908-6.826-2.009-7.035-.047-.093-5.887-2.327-6.073-2.4C323.939,133.322,322.9,132.965,322.163,132.725Z" transform="translate(-320.27 -109.201)" fill="#f28f8f"/>
          <path id="Path_158863" data-name="Path 158863" d="M371.307,149.949c-1.955.776-17.22,6.787-17.22,6.787s-11.084-7.183-13.326-8.881a12.089,12.089,0,0,1-4.553-7.035c-.985-3.1-1.45-3.359-2.769-4.445-.822-.675-2.63-2.536-2.7-2.6a2.847,2.847,0,0,0-.993-.5c-.178-.078-.954-.349-1.148-.419-1.078-.38-1.761-.558-2.839-.946a5.2,5.2,0,0,0-1.016-.279.442.442,0,0,0-.225,0,.388.388,0,0,0-.132.388,2.529,2.529,0,0,0,1.078,1.714,8.826,8.826,0,0,0,1.854.931c.4.163.621.225,1.412.558a1.97,1.97,0,0,1,.776.675,23.789,23.789,0,0,1,2.769,4.142,8.33,8.33,0,0,1-3.56-2.529c-.861-1.086-1.9.07-1.171,1.737.845,1.924,2.4,2.327,3.459,4.925s-1.163,4.7,1.73,6.981a27.677,27.677,0,0,1,4.755,3.793c2.451,2.637,10.084,10.859,11.813,12.248,3.77,3.064,4.235,2.808,13.388-.365,12.915-4.476,15.2-5.561,15.2-5.561l4.817-14.582C379.219,147.04,377.892,147.428,371.307,149.949Z" transform="translate(-321.191 -108.965)" fill="#ffa8a7"/>
          <path id="Path_158864" data-name="Path 158864" d="M388.439,150.18c-1.691.264-2.133.372-8.625,2.777s-19.919,7.656-19.919,7.656l-3.77-2.451a8.6,8.6,0,0,1-1.955,4.6,15.2,15.2,0,0,1-4.251,3.715s.24.256,3.335,3.413,4.584,3.638,5.686,3.94,2.536-.318,5.43-1.2,19.741-6.865,19.741-6.865Z" transform="translate(-326.921 -113.129)" fill="#37474f"/>
          <path id="Path_158865" data-name="Path 158865" d="M334.334,142.112a10.083,10.083,0,0,1,2.118,1.551c.225.248.233-.551-.776-1.5s-1.939-.977-2.156-1.388Z" transform="translate(-323.242 -111.018)" fill="#f28f8f"/>
          <path id="Path_158866" data-name="Path 158866" d="M385.135,183.206c0,12.411-.225,16.506-.225,16.506,14.831-6.26,29.84-.473,45.081,3.506,0,0-2.591-10.425-5.306-15.707s-2.094-7.276-1.551-9.688,2.513-11.744.209-19.283h-32.81a21.416,21.416,0,0,0-4.716,10.9A113.378,113.378,0,0,0,385.135,183.206Z" transform="translate(-334.771 -115.004)" fill="#37474f"/>
          <g id="freepik--chest--inject-17-3" data-name="freepik--chest--inject-17" transform="translate(50.647 36.645)">
            <path id="Path_158867" data-name="Path 158867" d="M420.536,151.2a67.563,67.563,0,0,0-7.935-1.482s-3.964-.147-8.315,0-5.305.24-6.469.357c0,0-3.638,1.551-8,7.989-3.413,5.042-4.375,6.981-4.243,10.309.147,3.77,3.63,6.205,3.63,6.205.295,3.32.543,8.082.628,9.6-.132,4.041-.977,9.029-1.288,11.806,2.816,9.9,27.148,10.549,31.988-1.908,3.227,6.081,8.059,6.826,9.23,6.826-.419-1.357-1.055-6.469-2.854-10.859-1.668-4.041-3.995-7.757-3.964-10.487,0-1.4,1.109-5.166,1.606-8.812C426.283,158.238,423.716,152.645,420.536,151.2Z" transform="translate(-385.565 -149.656)" fill="#ffca00"/>
            <path id="Path_158868" data-name="Path 158868" d="M404.44,180.484c4.2,2.591,11.488,1.6,13.915-4.134-.512,2.761-1.8,5.693-5.523,6.655C408.148,184.215,404.874,181.369,404.44,180.484Z" transform="translate(-389.799 -155.644)" opacity="0.15"/>
          </g>
          <path id="Path_158869" data-name="Path 158869" d="M400.787,149.653s-4.5,2.878-9.091,9.61c-3.878,5.655-5.43,10.72-6.562,21.773.039-8.206-.667-12.356.225-16.63s5.585-10.859,10.929-14.52l4.5-1.016Z" transform="translate(-334.77 -112.835)" fill="#455a64"/>
          <path id="Path_158870" data-name="Path 158870" d="M390.64,162.678c1.1-3.979,4.654-9.2,6.981-12.17a17.739,17.739,0,0,1,4.452-3.948v2.575S396.046,153.409,390.64,162.678Z" transform="translate(-336.056 -112.316)" fill="#37474f"/>
          <g id="freepik--head--inject-17-2" data-name="freepik--head--inject-17" transform="translate(50.1)">
            <path id="Path_158871" data-name="Path 158871" d="M387.109,123.633c-.349-1.264-1.761-1.419-2.017-3.1A3.264,3.264,0,0,1,387.164,117c1.4-.714,1.722-2.079,1.513-4.918s1.854-4.476,4.189-4.763c1.156-.14,2.49,0,3.312-.776a5.879,5.879,0,0,0,.814-1.35c1.156-2.024,3.242-2.862,6-2.777a9.308,9.308,0,0,1,3.591.776,9.5,9.5,0,0,1,3.436,2.412,8.2,8.2,0,0,1,5.864,1.6,6.205,6.205,0,0,1,2.436,4.2c.225,1.683.256,2.5.954,3.428,1.419,1.893,2.513,2.118,2.979,3.824.776,2.862-1.6,3.708-.178,6.438a3.638,3.638,0,0,1-2.746,5.43,4.011,4.011,0,0,0-3.615,2.249,3.739,3.739,0,0,1-3.1,2.327c-3.18.659-3.025-2.164-4.584-2.389-2.125-.3-2.955,1.264-5.019-.14-.714-.481-1.125-1.319-1.838-1.792-2.28-1.443-3.048-.714-5.872.217-.737.248-3.172.861-4.778-1.008a6.329,6.329,0,0,1-1.319-4.3c-.512,1.551-4.049,1.412-4.344-1.055a1.233,1.233,0,0,0,2.249-.993Z" transform="translate(-384.86 -102.412)" fill="#263238"/>
            <path id="Path_158872" data-name="Path 158872" d="M416.113,130.869a2.831,2.831,0,0,0,3.266-1.179c1.551-2.017,1.854-4.22.877-5.616-.877-1.257-2.327-1.28-3.646-.6a3.258,3.258,0,0,0-1.706,2.28c-.4,1.551-2.792,1.722-2.133-1.458-1.823-.45-2.156-2.816-2.071-3.878.194-2.327-.271-3.553-1.6-4.569-1.606-1.233-3.211.977-6.841,1.047-2.56.054-3.436-2.327-5.05-1.419-1.156.675-2.567,3.18-2.746,9.517-.194,6.981,1.078,10.766,3.242,12.449a8.354,8.354,0,0,0,5.22,1.3v4.235c-2.211,2.754-4.5,6.756-3.878,10.557,7.958-3.064,12.69-6.314,15.707-11.092V129.427a1.908,1.908,0,0,0,1.357,1.443Z" transform="translate(-387.01 -105.298)" fill="#ffa8a7"/>
            <path id="Path_158873" data-name="Path 158873" d="M397.326,126.272a1.094,1.094,0,1,0,1.233-.915,1.094,1.094,0,0,0-1.233.915Z" transform="translate(-387.654 -107.557)" fill="#263238"/>
            <path id="Path_158874" data-name="Path 158874" d="M396.632,122.734l2.661-1.163a1.388,1.388,0,0,0-1.869-.776A1.551,1.551,0,0,0,396.632,122.734Z" transform="translate(-387.479 -106.509)" fill="#263238"/>
            <path id="Path_158875" data-name="Path 158875" d="M408.159,126.856a1.086,1.086,0,1,0,.245-.8,1.086,1.086,0,0,0-.245.8Z" transform="translate(-390.086 -107.629)" fill="#263238"/>
            <path id="Path_158876" data-name="Path 158876" d="M409.18,122.435l2.56,1.365a1.388,1.388,0,0,0-.543-1.947A1.551,1.551,0,0,0,409.18,122.435Z" transform="translate(-390.316 -106.737)" fill="#263238"/>
            <path id="Path_158877" data-name="Path 158877" d="M407.087,135.23l-3.777,1.28a1.993,1.993,0,0,0,2.707,1.179,1.869,1.869,0,0,0,1.07-2.459Z" transform="translate(-388.999 -109.775)" fill="#b16668"/>
            <path id="Path_158878" data-name="Path 158878" d="M405.4,138.023a2.079,2.079,0,0,1,2.071-1.893h.194a1.761,1.761,0,0,1-1.179,1.745,2.327,2.327,0,0,1-1.086.147Z" transform="translate(-389.468 -109.977)" fill="#f28f8f"/>
            <path id="Path_158879" data-name="Path 158879" d="M404,123.86l-.574,7.547-4.1-1.474Z" transform="translate(-388.106 -107.224)" fill="#f28f8f"/>
            <path id="Path_158880" data-name="Path 158880" d="M405.38,143.736a18.329,18.329,0,0,0,7.206-2,6.686,6.686,0,0,0,3.1-4.375,6.477,6.477,0,0,1-2.668,5.631c-2.653,2.048-7.609,2.459-7.609,2.459Z" transform="translate(-389.463 -110.253)" fill="#f28f8f"/>
          </g>
          <path id="Path_158881" data-name="Path 158881" d="M418.795,148.87a12.233,12.233,0,0,1-1.885,3.5c-1.458,1.986-4.786,10.588-4.476,16.56a371.434,371.434,0,0,0,3.878,39.559s11.588-1.551,19.849-7.439a54.685,54.685,0,0,0-4.5-14.629c-2.226-4.654-2.676-6.547-2.04-9.308s2.04-10.014,1.854-14.482-.365-9.851-5.43-12.139C423.619,149.995,418.795,148.87,418.795,148.87Z" transform="translate(-340.941 -112.835)" fill="#455a64"/>
          <path id="Path_158882" data-name="Path 158882" d="M412.74,164.266c.52-2.746,4.91-10.084,6.709-12.2a37.657,37.657,0,0,1,2.862-3.1l-3.452-3.1v1.148s-1.489,2.637-3.033,5.724S412.74,164.266,412.74,164.266Z" transform="translate(-341.014 -112.159)" fill="#37474f"/>
        </g>
        <g id="freepik--Glass--inject-17">
          <path id="Path_158883" data-name="Path 158883" d="M380.459,226.826c-.039,0-.093-.047-.132-.078l-61.712-40.42h0c-1.171-.69-1.877-2.149-1.846-4.2a14.351,14.351,0,0,1,6.733-11.1c1.831-1.008,3.467-1.086,4.654-.4h0l65.466,34.2.132.078a2.047,2.047,0,0,0,.225.116,12.628,12.628,0,0,1,4.414,17.483,13.054,13.054,0,0,1-17.732,4.452Z" transform="translate(-204.904 -68.17)" fill="#90caf9"/>
          <path id="Path_158884" data-name="Path 158884" d="M323.5,171.035c3.653-2.017,6.554-.31,6.484,3.8a14.39,14.39,0,0,1-6.733,11.107c-3.63,2.017-6.554.31-6.485-3.808A14.31,14.31,0,0,1,323.5,171.035Z" transform="translate(-204.904 -68.172)" opacity="0.25"/>
          <path id="Path_158885" data-name="Path 158885" d="M389.886,210.207l-57.4-31.306a11.788,11.788,0,0,0,.846-3.925c0-2.048-.652-3.5-1.823-4.2l65.442,34.191.132.078a2.047,2.047,0,0,0,.225.116,12.628,12.628,0,0,1,4.39,17.476C402.886,218.724,397.41,214.388,389.886,210.207Z" transform="translate(-208.211 -68.305)" opacity="0.1"/>
          <path id="Path_158886" data-name="Path 158886" d="M291.994,165.083a8.633,8.633,0,0,1,4.072-6.709,2.8,2.8,0,0,1,2.8-.24h0l21.827,12.837h0a2.692,2.692,0,0,1,1.117,2.536,8.641,8.641,0,0,1-4.072,6.717,2.839,2.839,0,0,1-2.8.24l-21.85-12.845h0A2.707,2.707,0,0,1,291.994,165.083Z" transform="translate(-199.341 -65.408)" fill="#e0e0e0"/>
          <path id="Path_158887" data-name="Path 158887" d="M312.849,165.928l-8.121-4.778q-1.761,5.43-3.878,10.588l7.989,4.654Q311.05,171.3,312.849,165.928Z" transform="translate(-201.333 -66.145)" opacity="0.25"/>
          <path id="Path_158888" data-name="Path 158888" d="M285.556,50.459l-13.869-7.935c-10.5-6.058-25.023-5.181-41.063,4.064-32.074,18.523-58.074,63.558-58.074,100.6,0,18.523,6.5,31.523,17.018,37.6l13.83,7.9a29.84,29.84,0,0,0,15.125,3.878c7.8,0,16.615-2.544,25.938-7.935,32.074-18.507,58.074-63.55,58.074-100.58C302.535,69.541,296.043,56.525,285.556,50.459Zm-74.169,52.016c10.169-17.623,23.557-31.8,37.689-39.978,7.408-4.274,14.606-6.585,20.858-6.686a24.247,24.247,0,0,1,3.2.14c4.421,5.546,6.81,14,6.81,24.7,0,16.289-5.608,35.013-15.777,52.629s-23.557,31.8-37.689,39.962c-7.586,4.382-14.962,6.694-21.323,6.694a24.159,24.159,0,0,1-2.73-.147,23.647,23.647,0,0,1-2.187-3.281c-3.025-5.375-4.654-12.628-4.654-21.416C195.61,138.776,201.211,120.091,211.387,102.475Z" transform="translate(-172.55 -38.667)" fill="#455a64"/>
          <path id="Path_158889" data-name="Path 158889" d="M192.12,99.057l21.827,12.519q.884-1.637,1.831-3.266a131.9,131.9,0,0,1,10.51-15.568l-21.85-12.558A142.119,142.119,0,0,0,192.12,99.057ZM218.555,64.68c-2.7,2.482-5.313,5.135-7.834,7.927l22,12.628a102.651,102.651,0,0,1,8.075-7.8Z" transform="translate(-176.94 -44.503)" fill="#fff" opacity="0.1"/>
          <path id="Path_158890" data-name="Path 158890" d="M203.328,223.415l-13.76-7.857c-10.518-6.073-17.018-19.081-17.018-37.6,0-.714,0-1.419.047-2.141l13.822,7.9v2.141C186.388,204.333,192.865,217.326,203.328,223.415Z" transform="translate(-172.55 -69.436)" fill="#37474f"/>
          <path id="Path_158891" data-name="Path 158891" d="M295.824,69.292A19.523,19.523,0,0,0,281.769,61c4.421,5.507,6.81,13.962,6.81,24.666,0,16.289-5.608,35.013-15.777,52.629s-23.557,31.8-37.689,39.962c-7.586,4.382-14.963,6.694-21.323,6.694a24.159,24.159,0,0,1-2.73-.147,19.531,19.531,0,0,0,14.877,7.508h1.195c6.368,0,13.737-2.327,21.331-6.694,14.125-8.152,27.5-22.355,37.682-39.97s15.777-36.316,15.777-52.629C301.952,82.92,299.788,74.83,295.824,69.292Z" transform="translate(-181.189 -43.678)" fill="#263238"/>
          <path id="Path_158892" data-name="Path 158892" d="M248.464,56.8C216.39,75.342,190.39,120.331,190.39,157.384s26,52.047,58.074,33.532,58.074-63.55,58.074-100.588S280.537,38.281,248.464,56.8Zm-4.607,126.13c-7.594,4.382-14.962,6.694-21.331,6.694-8.1,0-14.35-3.878-18.259-10.859-3.025-5.375-4.654-12.628-4.654-21.416,0-16.289,5.6-35.006,15.777-52.621s23.557-31.8,37.689-39.978c7.408-4.282,14.606-6.585,20.865-6.686h.458c14.35,0,22.913,12.054,22.913,32.236,0,16.289-5.6,35.013-15.777,52.629S257.981,174.767,243.856,182.927Z" transform="translate(-176.552 -40.955)" fill="#37474f"/>
          <path id="Path_158893" data-name="Path 158893" d="M204.392,121.84a134.383,134.383,0,0,0-11.79,33,93.856,93.856,0,0,0-1.978,17.406,64.86,64.86,0,0,0,1.908,17.344,38.756,38.756,0,0,0,7.695,15.513,27.924,27.924,0,0,0,14.6,8.974,36.456,36.456,0,0,0,17.321-.264,62.4,62.4,0,0,0,16.235-6.523,62.6,62.6,0,0,1-16.165,6.857,36.72,36.72,0,0,1-17.507.38,28.4,28.4,0,0,1-14.916-9.075,39.04,39.04,0,0,1-7.927-15.684,65.45,65.45,0,0,1-1.815-17.53,94.044,94.044,0,0,1,2.1-17.491A121.778,121.778,0,0,1,197.1,137.85a142.347,142.347,0,0,1,7.291-16.01Z" transform="translate(-176.469 -57.326)" fill="#455a64"/>
          <path id="Path_158894" data-name="Path 158894" d="M276.894,60.759a22.106,22.106,0,0,1,8.532,1.551,19.771,19.771,0,0,1,7.09,5.05,26.241,26.241,0,0,1,4.569,7.462,38.784,38.784,0,0,1,2.412,8.416,67.218,67.218,0,0,1,.5,17.468,95.674,95.674,0,0,1-3.242,17.173,114.194,114.194,0,0,1-6,16.421,134.805,134.805,0,0,1-8.2,15.443,120.274,120.274,0,0,1-22.269,26.884A84.594,84.594,0,0,1,246,186.812a49.1,49.1,0,0,1-16.56,5.973,26.753,26.753,0,0,1-8.928-.1,20.167,20.167,0,0,1-8.222-3.615,19.6,19.6,0,0,1-3.289-3.1,22.983,22.983,0,0,1-2.6-3.653,32.484,32.484,0,0,1-3.3-8.23,58.175,58.175,0,0,1-1.466-17.46,89.782,89.782,0,0,1,2.707-17.251,111.7,111.7,0,0,1,5.655-16.483,127.626,127.626,0,0,1,7.912-15.513,125.843,125.843,0,0,0-12.69,32.182,90.435,90.435,0,0,0-2.42,17.065,56.809,56.809,0,0,0,1.675,17.064,31.028,31.028,0,0,0,3.258,7.811,20.765,20.765,0,0,0,5.515,6.205,18.484,18.484,0,0,0,7.578,3.289,25.094,25.094,0,0,0,8.377.047,47.471,47.471,0,0,0,15.94-5.856A83.206,83.206,0,0,0,259.1,175.161a118.537,118.537,0,0,0,22.068-26.372,130.134,130.134,0,0,0,14.264-31.368,94.546,94.546,0,0,0,3.413-16.824,66.872,66.872,0,0,0-.225-17.2,38.008,38.008,0,0,0-2.172-8.307,25.6,25.6,0,0,0-4.289-7.4,19.461,19.461,0,0,0-6.834-5.112,21.967,21.967,0,0,0-8.431-1.815Z" transform="translate(-179.045 -43.623)" fill="#455a64"/>
          <path id="Path_158895" data-name="Path 158895" d="M283.755,61.715a22.076,22.076,0,0,0-6.686-.985H276.6c-6.252.1-13.45,2.412-20.857,6.686-14.125,8.2-27.52,22.386-37.689,40.009s-15.777,36.3-15.777,52.621c0,8.788,1.629,16.041,4.654,21.416a22.161,22.161,0,0,0,5.05,6.205,21.989,21.989,0,0,0,6.678.993c6.368,0,13.737-2.327,21.331-6.7,14.125-8.152,27.513-22.347,37.682-39.97s15.777-36.309,15.777-52.629C293.451,76.538,289.984,66.982,283.755,61.715Z" transform="translate(-179.22 -43.617)" fill="#fff" opacity="0.3"/>
        </g>
        <g id="freepik--Arm--inject-17" transform="translate(149.042 87.171)">
          <path id="Path_158896" data-name="Path 158896" d="M415.854,151.65c5.786,1.171,8.02,6.205,6.151,12.659-1.637,5.662-9.579,20.315-10.859,22.7s-2.443,3.328-6.26,5.709-14.148,7.446-17.15,9-4.708,3.723-7.485,5.608-6.981,2.49-9.083,2.49a4.918,4.918,0,0,1-2.971-1.45c-1.551-.132-1.823-.7-1.807-1.218-1.326,0-1.931-.217-1.606-1.187.69-2.032,4.227-2.327,7.284-3.568,2.917-1.179,5.081-2.893,4.235-3.165-1.683-.551-4.064.876-6.64-.062-1.5-.551-1.474-1.8-.814-1.893,1.226-.171,3.475-1.365,6.43-1.993,2.684-.566,6.267-.07,8.106-1.21C387.7,191.4,400.38,181.9,400.38,181.9L408.8,162.37S410.789,154.574,415.854,151.65Z" transform="translate(-364.698 -151.185)" fill="#ffa8a7"/>
          <path id="Path_158897" data-name="Path 158897" d="M405,185.047l4.212-3.475,8-19.337s2.715-9.184,7.214-11.185c4.53.962,5.825,2.6,6.756,4.53.59,1.21,1.637,5.282-.939,12.124s-8.587,16.909-9.835,19.329-1.4,2.645-4.2,4.328-4.887,2.73-4.887,2.73A12.488,12.488,0,0,1,405,185.047Z" transform="translate(-373.74 -151.05)" fill="#37474f"/>
        </g>
      </g>
    </g>
    <g id="freepik--speech-bubble--inject-17-2" data-name="freepik--speech-bubble--inject-17" transform="translate(337.638 43.432)">
      <g id="freepik--speech-bubble--inject-17-3" data-name="freepik--speech-bubble--inject-17">
        <g id="freepik--speech-bubble--inject-17-4" data-name="freepik--speech-bubble--inject-17">
          <path id="Path_158898" data-name="Path 158898" d="M446.75,110.727l3.3-3.638-2.056-5.942V97.51l6.291,3.638v3.638l-2.164,2.839Z" transform="translate(-434.052 -59.698)" fill="#90caf9"/>
          <path id="Path_158899" data-name="Path 158899" d="M430.38,53.368a4.181,4.181,0,0,1,1.885-3.266l1.551-.892a4.2,4.2,0,0,1,3.777,0l23.58,13.644a4.15,4.15,0,0,1,1.893,3.266V97.278a4.189,4.189,0,0,1-1.893,3.273l-1.551.892a4.2,4.2,0,0,1-3.777,0l-9.184-5.306a10.588,10.588,0,0,1-6.205,4.84A.923.923,0,0,1,439.4,99.59a9.215,9.215,0,0,0,.97-7.082L432.265,87.8a4.142,4.142,0,0,1-1.885-3.266Z" transform="translate(-430.38 -48.762)" fill="#90caf9"/>
          <path id="Path_158900" data-name="Path 158900" d="M430.38,53.368a4.181,4.181,0,0,1,1.885-3.266l1.551-.892a4.2,4.2,0,0,1,3.777,0l23.58,13.644a4.15,4.15,0,0,1,1.893,3.266V97.278a4.189,4.189,0,0,1-1.893,3.273l-1.551.892a4.2,4.2,0,0,1-3.777,0l-9.184-5.306a10.588,10.588,0,0,1-6.205,4.84A.923.923,0,0,1,439.4,99.59a9.215,9.215,0,0,0,.97-7.082L432.265,87.8a4.142,4.142,0,0,1-1.885-3.266Z" transform="translate(-430.38 -48.762)" fill="#fff" opacity="0.3"/>
          <path id="Path_158901" data-name="Path 158901" d="M470.506,101.759a4.15,4.15,0,0,1-1.893,3.266l-1.551.892a4.212,4.212,0,0,1-3.452.147c.884.341,1.551-.163,1.551-1.241V73.664a3.879,3.879,0,0,0-.551-1.862l5.313-3.1a3.879,3.879,0,0,1,.558,1.862Z" transform="translate(-437.835 -53.235)" fill="#90caf9"/>
          <path id="Path_158902" data-name="Path 158902" d="M430.45,52.825c.225-.776.954-1.055,1.831-.551l23.58,13.636a3.879,3.879,0,0,1,1.334,1.412l5.313-3.1a3.878,3.878,0,0,0-1.334-1.412L437.6,49.21a4.22,4.22,0,0,0-3.785,0l-1.551.892A4.181,4.181,0,0,0,430.45,52.825Z" transform="translate(-430.396 -48.762)" fill="#fff" opacity="0.3"/>
        </g>
        <path id="Path_158903" data-name="Path 158903" d="M437.32,68.546v3.529l16.452,9.517V78.04a5.39,5.39,0,0,0-2.056-4.344l-1.458-.869v1.419c0,1.2-.636,1.815-1.419,1.365a3.77,3.77,0,0,1-1.419-3.01V71.191l-3.669-2.118v1.412c0,1.2-.628,1.823-1.419,1.365a3.762,3.762,0,0,1-1.419-3V67.437l-1.513-.869C438.243,65.916,437.32,66.8,437.32,68.546Z" transform="translate(-431.937 -52.709)" fill="#fafafa"/>
        <path id="Path_158904" data-name="Path 158904" d="M441.47,77.859v3.746l-4.15-2.389V75.47Z" transform="translate(-431.937 -54.754)" fill="#fafafa"/>
        <path id="Path_158905" data-name="Path 158905" d="M441.47,84.419V88.2l-4.15-2.389V82.03Z" transform="translate(-431.937 -56.225)" fill="#fafafa"/>
        <path id="Path_158906" data-name="Path 158906" d="M437.32,88.64l4.15,2.389v3.832l-1.931-1.117a5.306,5.306,0,0,1-2.218-4.227Z" transform="translate(-431.937 -57.708)" fill="#fafafa"/>
        <path id="Path_158907" data-name="Path 158907" d="M449.617,82.562v3.746l-5.2-3V79.56Z" transform="translate(-433.53 -55.671)" fill="#fafafa"/>
        <path id="Path_158908" data-name="Path 158908" d="M449.617,89.122v3.785l-5.2-3V86.12Z" transform="translate(-433.53 -57.143)" fill="#fafafa"/>
        <path id="Path_158909" data-name="Path 158909" d="M444.42,92.73l5.2,3v3.832l-5.2-3Z" transform="translate(-433.53 -58.626)" fill="#fafafa"/>
        <path id="Path_158910" data-name="Path 158910" d="M457.26,86.976v3.746l-4.39-2.536V84.44Z" transform="translate(-435.425 -56.766)" fill="#fafafa"/>
        <path id="Path_158911" data-name="Path 158911" d="M457.26,93.536v3.785l-4.39-2.536V91Z" transform="translate(-435.425 -58.238)" fill="#fafafa"/>
        <path id="Path_158912" data-name="Path 158912" d="M452.87,97.61l4.39,2.536v.869c0,1.629-.993,2.374-2.2,1.668l-2.187-1.257Z" transform="translate(-435.425 -59.721)" fill="#fafafa"/>
        <path id="Path_158913" data-name="Path 158913" d="M451.867,75.455h0c.481.279.876,0,.876-.659v-2.9a2.11,2.11,0,0,0-.876-1.675h0c-.489-.279-.877,0-.877.659V73.8A2.087,2.087,0,0,0,451.867,75.455Z" transform="translate(-435.004 -53.552)" fill="#fafafa"/>
        <path id="Path_158914" data-name="Path 158914" d="M443.477,70.639h0a2.11,2.11,0,0,1-.876-1.7v-2.9c0-.644.4-.939.876-.659h0a2.094,2.094,0,0,1,.884,1.675v2.916C444.361,70.623,443.965,70.918,443.477,70.639Z" transform="translate(-433.121 -52.466)" fill="#fafafa"/>
      </g>
    </g>
  </g>
</svg>
