<svg xmlns="http://www.w3.org/2000/svg" width="165.081" height="110.925" viewBox="0 0 165.081 110.925">
  <g id="Group_85143" data-name="Group 85143" transform="translate(-428.747 -70.877)">
    <path id="Path_147011" data-name="Path 147011" d="M593.828,173.085c-1.023,1.909-1.772,4.047-3.133,5.673-1.91,2.282-4.684,3.048-7.681,3.044q-25.14-.036-50.279-.012H440.072c-7.109,0-11.323-4.2-11.324-11.305q0-44.156,0-88.312c0-7.1,4.214-11.3,11.33-11.3h141.17c7.479,0,9.923,1.691,12.58,8.706Zm-159.922-68.6v1.638q0,32.24,0,64.48c0,4.081,1.946,6.029,6.017,6.029q71.331,0,142.66,0c4.17,0,6.083-1.925,6.083-6.128q0-32.159,0-64.318v-1.7ZM588.6,86.457H434.034v2.477c5.119,0,10.112-.017,15.1.009a2.567,2.567,0,0,1,2.81,2.48,2.606,2.606,0,0,1-2.807,2.657c-1.449.04-2.9.01-4.351.011H434.014v5.051H588.6V96.671H548.769c-.483,0-.97.025-1.449-.02a2.563,2.563,0,0,1,0-5.123c.48-.041.967-.015,1.45-.015H588.6ZM433.976,81.123H588.585c-.144-3.277-2.233-5.086-5.812-5.086q-71.464,0-142.929,0c-.268,0-.537-.006-.805,0A5.069,5.069,0,0,0,433.976,81.123Z" transform="translate(0)" fill="#fe502d"/>
    <path id="Path_147012" data-name="Path 147012" d="M610.422,191.623a30.951,30.951,0,1,1-30.935-30.973A31.1,31.1,0,0,1,610.422,191.623Zm-41.245-6.592c-.28.229-.454.349-.6.5-2.549,2.54-5.078,5.1-7.646,7.621-1.309,1.285-2.739,1.362-3.854.305-1.152-1.092-1.091-2.62.239-3.965,3.058-3.094,6.143-6.161,9.222-9.235,2.115-2.111,3.127-2.108,5.244.008q9.06,9.054,18.134,18.1a2.955,2.955,0,0,0,1.712.95c3.812.085,7.626.077,11.438,0a1.684,1.684,0,0,0,1.227-1.012,29.372,29.372,0,0,0,.914-5.376,25.767,25.767,0,0,0-30.233-26.738c-14.556,2.34-24.41,17.7-20.475,31.848.282,1.012.67,1.4,1.734,1.349,1.822-.087,3.657.058,5.475-.065a3.557,3.557,0,0,0,2.061-.88c2.527-2.406,4.966-4.906,7.434-7.375.664-.665,1.318-1.34,2.1-2.139-1.216-1.151-2.267-2.148-3.32-3.143C569.752,185.554,569.515,185.342,569.176,185.031ZM557.468,204.59c2.939,6.138,11.693,13.147,22.845,12.784,8.747-.284,19.1-6.545,21.107-12.784Zm19.568-11.521-6.311,6.159h12.407Z" transform="translate(-68.182 -51.105)" fill="#fe502d"/>
    <path id="Path_147013" data-name="Path 147013" d="M746.953,265.311c.413-1.672,1.134-2.764,2.747-2.763s2.309,1.113,2.675,2.471c4.07.3,5.023.808,5.041,2.633.018,1.875-1.076,2.466-4.934,2.669-1.447,2.9-2.529,3.191-5.213,1.415-.795-.526-1.592-1.048-2.521-1.659-.486,1.561-1.172,2.773-2.848,2.73-1.527-.04-2.246-1.07-2.618-2.476-2.02-.263-4.774.638-5.026-2.713-.132-1.749.99-2.267,4.994-2.6,1.22-2.8,2.482-3.153,5.1-1.43C745.147,264.115,745.943,264.643,746.953,265.311Z" transform="translate(-173.91 -109.108)" fill="#fe502d"/>
    <path id="Path_147014" data-name="Path 147014" d="M731.582,189.8c-4.192,0-8.383.036-12.574-.013-2.254-.027-3.632-2.142-2.435-3.813a3.414,3.414,0,0,1,2.378-1.271c8.436-.092,16.873-.067,25.31-.049a2.577,2.577,0,1,1,.057,5.133C740.073,189.824,735.827,189.8,731.582,189.8Z" transform="translate(-163.597 -64.759)" fill="#fe502d"/>
    <path id="Path_147015" data-name="Path 147015" d="M731.756,202.617c4.084,0,8.168-.007,12.252,0,1.951.005,3.082.914,3.137,2.477.057,1.611-1.141,2.669-3.124,2.672q-12.332.019-24.665,0c-1.992,0-3.186-1.048-3.138-2.659.047-1.555,1.192-2.485,3.125-2.491C723.481,202.609,727.619,202.617,731.756,202.617Z" transform="translate(-163.646 -74.993)" fill="#fe502d"/>
    <path id="Path_147016" data-name="Path 147016" d="M466.862,213.763c-3.6,0-7.2.007-10.8,0-2.15-.006-3.358-.967-3.333-2.621.025-1.608,1.188-2.531,3.247-2.532q10.959-.01,21.918,0c2.015,0,3.2,1,3.176,2.607s-1.209,2.538-3.252,2.545C474.168,213.771,470.515,213.763,466.862,213.763Z" transform="translate(-13.653 -78.402)" fill="#fe502d"/>
    <path id="Path_147017" data-name="Path 147017" d="M466.893,226.57c3.653,0,7.306-.007,10.959,0,2.038.006,3.216.957,3.221,2.563s-1.177,2.586-3.207,2.589q-10.959.015-21.918,0c-2.036,0-3.211-.966-3.216-2.575s1.164-2.571,3.2-2.577C459.587,226.562,463.24,226.57,466.893,226.57Z" transform="translate(-13.654 -88.629)" fill="#fe502d"/>
    <path id="Path_147018" data-name="Path 147018" d="M465.6,268.978a6.444,6.444,0,1,1-6.416-6.47A6.471,6.471,0,0,1,465.6,268.978Zm-4.61-.074c-.869-.584-1.42-1.229-1.8-1.141a1.95,1.95,0,0,0-1.216,1.269c-.064.3.747,1.108,1.163,1.107C459.631,270.138,460.126,269.516,460.987,268.9Z" transform="translate(-13.64 -109.089)" fill="#fe502d"/>
    <path id="Path_147019" data-name="Path 147019" d="M501.531,268.909a6.444,6.444,0,1,1-6.484-6.4A6.467,6.467,0,0,1,501.531,268.909Zm-4.621.174c-.793-.662-1.273-1.361-1.661-1.313A1.953,1.953,0,0,0,493.9,268.9c-.1.294.626,1.187,1.039,1.228C495.436,270.181,495.992,269.609,496.91,269.083Z" transform="translate(-34.096 -109.089)" fill="#fe502d"/>
    <path id="Path_147020" data-name="Path 147020" d="M755.195,220.576c2.042,0,4.084-.02,6.126.006,1.781.022,2.885,1.024,2.889,2.556a2.586,2.586,0,0,1-2.877,2.585q-6.125.048-12.251,0a2.618,2.618,0,0,1-2.9-2.574c0-1.513,1.125-2.544,2.888-2.567C751.111,220.555,753.153,220.576,755.195,220.576Z" transform="translate(-180.704 -85.214)" fill="#fe502d"/>
    <path id="Path_147021" data-name="Path 147021" d="M457.807,188.636a9.02,9.02,0,0,1-.012,1.448,2.556,2.556,0,0,1-5.09-.05,20.174,20.174,0,0,1-.024-2.577,2.581,2.581,0,0,1,2.512-2.779c1.523-.034,2.564,1.081,2.634,2.83.015.376,0,.752,0,1.128Z" transform="translate(-13.608 -64.782)" fill="#fe502d"/>
    <path id="Path_147022" data-name="Path 147022" d="M475.807,188.6c0,.322.012.645,0,.967a2.584,2.584,0,1,1-5.149.028c-.026-.7-.025-1.4,0-2.1.061-1.746,1.113-2.858,2.639-2.818a2.6,2.6,0,0,1,2.509,2.791C475.82,187.844,475.806,188.22,475.807,188.6Z" transform="translate(-23.846 -64.782)" fill="#fe502d"/>
    <path id="Path_147023" data-name="Path 147023" d="M493.742,188.655c0,.43.036.863-.006,1.288a2.574,2.574,0,0,1-2.521,2.446,2.531,2.531,0,0,1-2.583-2.372,18.079,18.079,0,0,1-.006-2.9,2.526,2.526,0,0,1,2.515-2.44,2.558,2.558,0,0,1,2.6,2.526c.038.48.006.967.006,1.45Z" transform="translate(-34.055 -64.783)" fill="#fe502d"/>
    <path id="Path_147024" data-name="Path 147024" d="M506.606,188.458c0-.429-.033-.862.006-1.288a2.561,2.561,0,0,1,5.12-.018,22.612,22.612,0,0,1,.015,2.416,2.584,2.584,0,1,1-5.147.018c-.017-.375,0-.752,0-1.128Z" transform="translate(-44.314 -64.782)" fill="#fe502d"/>
    <path id="Path_147025" data-name="Path 147025" d="M632.425,193.55a8.989,8.989,0,0,1,9,9.015,9.024,9.024,0,1,1-18.048-.047A9,9,0,0,1,632.425,193.55Zm-3.882,9.04a3.858,3.858,0,1,0,7.713-.179,3.858,3.858,0,0,0-7.713.179Z" transform="translate(-110.795 -69.833)" fill="#fe502d"/>
  </g>
</svg>
