<svg xmlns="http://www.w3.org/2000/svg" width="120.138" height="120" viewBox="0 0 120.138 120">
  <g id="Group_98544" data-name="Group 98544" transform="translate(473 -157.183)">
    <path id="Path_153792" data-name="Path 153792" d="M-473,189.242q4.273-.051,8.546-.1c.457-.005.913,0,1.474,0V157.183h99.949V201.1h-99.935v-7.881h-5.954V273.1h47.94V205.253h4.04v71.93H-473Zm90.028-28.059h-75.912v35.893h75.912Zm7.943,35.914V161.174h-3.833V197.1Zm8-.006V161.175h-3.837V197.09Z" fill="#fe502d"/>
    <path id="Path_153793" data-name="Path 153793" d="M-228.758,420.611a16.984,16.984,0,0,1-2.064-1.02,5.937,5.937,0,0,1-2.632-5.314q.017-17.641.005-35.282,0-11.9,0-23.795c0-4.27,2.324-6.611,6.574-6.612q23.448-.006,46.9,0c4.254,0,6.574,2.338,6.575,6.612,0,19.262-.049,38.525.045,57.787.018,3.7-1.062,6.379-4.735,7.623Zm-.7-56v1.244q0,24.037,0,48.074c0,2.116.582,2.688,2.732,2.688q23.28,0,46.56,0c2.208,0,2.761-.557,2.762-2.778q0-23.978,0-47.957v-1.272Zm51.948-4.076a1.767,1.767,0,0,0,.092-.331q.012-2.4.015-4.8c0-2.3-.511-2.813-2.818-2.813q-23.2,0-46.4,0c-.351,0-.7-.012-1.054.018a1.681,1.681,0,0,0-1.721,1.606c-.089,2.09-.028,4.186-.028,6.322Z" transform="translate(-179.504 -143.428)" fill="#fe502d"/>
    <path id="Path_153794" data-name="Path 153794" d="M-323.22,417.278c-1.958-1.971-3.827-3.8-5.611-5.7a2.4,2.4,0,0,1-.358-1.509q-.027-22.905-.014-45.811c0-.7-.014-1.407.02-2.108a5.938,5.938,0,0,1,8.3-5.283,5.79,5.79,0,0,1,3.669,5.272c.035.427.017.859.017,1.288q0,23.2.023,46.4a3.051,3.051,0,0,1-1.031,2.442C-319.871,413.848-321.464,415.513-323.22,417.278Zm-1.89-48.784v33.841h3.829V368.495Zm3.79,38.032h-3.733c-.509,2.144-.133,3.881,1.895,4.974C-321.059,409.726-320.91,409.334-321.32,406.527Zm.1-42.187c-.055-1.277.468-2.7-.851-3.519a2.628,2.628,0,0,0-2.259-.023c-1.4.793-.735,2.251-.862,3.542Z" transform="translate(-107.752 -149.267)" fill="#fe502d"/>
    <path id="Path_153795" data-name="Path 153795" d="M-440.821,356.658h23.883V360.5h-23.883Z" transform="translate(-24.113 -149.477)" fill="#fe502d"/>
    <path id="Path_153796" data-name="Path 153796" d="M-426.893,388.813v3.815h-13.934v-3.815Z" transform="translate(-24.109 -173.572)" fill="#fe502d"/>
    <path id="Path_153797" data-name="Path 153797" d="M-440.973,424.662v-3.8h13.928v3.8Z" transform="translate(-23.999 -197.59)" fill="#fe502d"/>
    <path id="Path_153798" data-name="Path 153798" d="M-426.9,460.6V464.4h-13.931V460.6Z" transform="translate(-24.105 -227.363)" fill="#fe502d"/>
    <path id="Path_153799" data-name="Path 153799" d="M-440.73,500.4h13.862v3.889H-440.73Z" transform="translate(-24.182 -257.192)" fill="#fe502d"/>
    <path id="Path_153800" data-name="Path 153800" d="M-440.962,544.413v-3.805h13.928v3.805Z" transform="translate(-24.008 -287.32)" fill="#fe502d"/>
    <path id="Path_153801" data-name="Path 153801" d="M-426.935,584.2h-13.9v-3.849h13.9Z" transform="translate(-24.107 -317.105)" fill="#fe502d"/>
    <path id="Path_153802" data-name="Path 153802" d="M-363.045,392.569h-5.825v-3.9h5.825Z" transform="translate(-78.03 -173.467)" fill="#fe502d"/>
    <path id="Path_153803" data-name="Path 153803" d="M-368.864,500.49H-363v3.847h-5.869Z" transform="translate(-78.034 -257.257)" fill="#fe502d"/>
    <path id="Path_153804" data-name="Path 153804" d="M-363.048,420.781v3.832h-5.876v-3.832Z" transform="translate(-77.989 -197.527)" fill="#fe502d"/>
    <path id="Path_153805" data-name="Path 153805" d="M-368.776,460.412h5.823V464.3h-5.823Z" transform="translate(-78.1 -227.225)" fill="#fe502d"/>
    <path id="Path_153806" data-name="Path 153806" d="M-368.915,540.448h5.874V544.3h-5.874Z" transform="translate(-77.996 -287.2)" fill="#fe502d"/>
    <path id="Path_153807" data-name="Path 153807" d="M-368.868,580.237h5.825v3.848h-5.825Z" transform="translate(-78.031 -317.016)" fill="#fe502d"/>
    <path id="Path_153808" data-name="Path 153808" d="M-336.883,189.123c.059,4.194.531,3.854,3.952,3.97V212.8c-1.132.281-2.534.241-3.253.921-.674.638-.626,2.039-.934,3.256h-59.789c.6-3.12-.784-4.435-3.9-3.877V193.322c1.194-.3,2.6-.268,3.3-.951.671-.65.617-2.05.914-3.248Zm-30.066,23.951q12.656,0,25.313.011a1.65,1.65,0,0,0,1.667-.9,17.655,17.655,0,0,1,2.224-2.332,2.11,2.11,0,0,0,.673-1.137q.076-5.623,0-11.247a2.07,2.07,0,0,0-.684-1.131,30.883,30.883,0,0,1-2.5-2.535,1.487,1.487,0,0,0-1.353-.783q-25.372.024-50.743,0a1.4,1.4,0,0,0-1.286.7,33.835,33.835,0,0,1-2.557,2.641c-.278.294-.64.685-.644,1.035q-.07,5.623,0,11.247a2.073,2.073,0,0,0,.7,1.132,20.017,20.017,0,0,1,2.367,2.348,1.811,1.811,0,0,0,1.748.956C-383.668,213.062-375.309,213.074-366.949,213.074Z" transform="translate(-54.096 -23.934)" fill="#fe502d"/>
    <path id="Path_153809" data-name="Path 153809" d="M-125.607,498.167a5.937,5.937,0,0,1-5.99,6.056,5.938,5.938,0,0,1-6.026-6.02,5.928,5.928,0,0,1,5.932-6A5.933,5.933,0,0,1-125.607,498.167Zm-6.048,2.027a1.867,1.867,0,0,0,2.019-1.94,1.864,1.864,0,0,0-1.94-2.018,1.862,1.862,0,0,0-2.019,1.938A1.866,1.866,0,0,0-131.655,500.195Z" transform="translate(-251.315 -251.05)" fill="#fe502d"/>
    <path id="Path_153810" data-name="Path 153810" d="M-131.648,556.211a5.868,5.868,0,0,1,6.037,5.977,5.947,5.947,0,0,1-6.039,6.01,5.948,5.948,0,0,1-5.979-5.953A5.876,5.876,0,0,1-131.648,556.211Zm.054,4.006a1.853,1.853,0,0,0-2.008,1.945,1.917,1.917,0,0,0,1.956,2.03,1.923,1.923,0,0,0,2.012-1.978A1.856,1.856,0,0,0-131.594,560.217Z" transform="translate(-251.31 -299.012)" fill="#fe502d"/>
    <path id="Path_153811" data-name="Path 153811" d="M-189.536,498.253a5.876,5.876,0,0,1-6.046,5.971,5.946,5.946,0,0,1-5.942-5.99,5.946,5.946,0,0,1,6.02-6.028A5.873,5.873,0,0,1-189.536,498.253Zm-4.007.007a1.856,1.856,0,0,0-1.927-2.027,1.915,1.915,0,0,0-2.048,1.936,1.921,1.921,0,0,0,1.958,2.031A1.862,1.862,0,0,0-193.542,498.26Z" transform="translate(-203.431 -251.05)" fill="#fe502d"/>
    <path id="Path_153812" data-name="Path 153812" d="M-131.559,440.313a5.879,5.879,0,0,1-6.063-5.952,5.943,5.943,0,0,1,6.011-6.035,5.94,5.94,0,0,1,6,6.041A5.869,5.869,0,0,1-131.559,440.313Zm-.014-4.006a1.861,1.861,0,0,0,1.944-2.015,1.92,1.92,0,0,0-2.029-1.96,1.912,1.912,0,0,0-1.939,2.045A1.855,1.855,0,0,0-131.573,436.307Z" transform="translate(-251.315 -203.181)" fill="#fe502d"/>
    <path id="Path_153813" data-name="Path 153813" d="M-73.61,498.256a5.876,5.876,0,0,1,5.966-6.049,5.945,5.945,0,0,1,6.023,6.026,5.946,5.946,0,0,1-6.058,5.991A5.871,5.871,0,0,1-73.61,498.256Zm5.963-2.023a1.854,1.854,0,0,0-1.957,2,1.855,1.855,0,0,0,1.986,1.97,1.92,1.92,0,0,0,1.988-2A1.916,1.916,0,0,0-67.647,496.232Z" transform="translate(-299.283 -251.051)" fill="#fe502d"/>
    <path id="Path_153814" data-name="Path 153814" d="M-67.606,440.31a5.819,5.819,0,0,1-6-5.984A5.883,5.883,0,0,1-67.6,428.32a5.952,5.952,0,0,1,5.978,5.955A5.88,5.88,0,0,1-67.606,440.31Zm-2-5.94a1.835,1.835,0,0,0,2.011,1.935,1.9,1.9,0,0,0,1.966-2.014,1.961,1.961,0,0,0-2.047-1.963A1.883,1.883,0,0,0-69.6,434.369Z" transform="translate(-299.283 -203.176)" fill="#fe502d"/>
    <path id="Path_153815" data-name="Path 153815" d="M-73.611,562.2a5.816,5.816,0,0,1,6-5.99,5.877,5.877,0,0,1,5.993,6.025,5.958,5.958,0,0,1-5.97,5.965A5.887,5.887,0,0,1-73.611,562.2Zm4.007-.062a1.886,1.886,0,0,0,1.919,2.054,1.963,1.963,0,0,0,2.057-1.954,1.894,1.894,0,0,0-1.954-2.022A1.835,1.835,0,0,0-69.6,562.134Z" transform="translate(-299.282 -299.008)" fill="#fe502d"/>
    <path id="Path_153816" data-name="Path 153816" d="M-189.536,562.217a5.884,5.884,0,0,1-6.04,5.98,5.956,5.956,0,0,1-5.95-5.984,5.883,5.883,0,0,1,6.012-6.005A5.818,5.818,0,0,1-189.536,562.217Zm-6.023-2a1.891,1.891,0,0,0-1.962,2.014,1.962,1.962,0,0,0,2.048,1.963,1.889,1.889,0,0,0,1.93-2.046A1.836,1.836,0,0,0-195.559,560.214Z" transform="translate(-203.429 -299.01)" fill="#fe502d"/>
    <path id="Path_153817" data-name="Path 153817" d="M-189.536,434.371a5.821,5.821,0,0,1-6.047,5.941,5.882,5.882,0,0,1-5.941-5.961,5.951,5.951,0,0,1,6.02-6.029A5.88,5.88,0,0,1-189.536,434.371Zm-4.006-.027a1.887,1.887,0,0,0-1.96-2.016,1.958,1.958,0,0,0-2.017,1.993,1.891,1.891,0,0,0,1.992,1.985A1.837,1.837,0,0,0-193.542,434.344Z" transform="translate(-203.431 -203.179)" fill="#fe502d"/>
    <path id="Path_153818" data-name="Path 153818" d="M-277.383,226.778a5.842,5.842,0,0,1-6.052,5.947,5.9,5.9,0,0,1-5.947-5.964,5.967,5.967,0,0,1,6.024-6.034A5.894,5.894,0,0,1-277.383,226.778Zm-4.014-.084a1.88,1.88,0,0,0-2.015-1.953,1.935,1.935,0,0,0-1.954,2.045,1.878,1.878,0,0,0,2.043,1.924A1.835,1.835,0,0,0-281.4,226.694Z" transform="translate(-137.595 -47.617)" fill="#fe502d"/>
    <path id="Path_153819" data-name="Path 153819" d="M-219.218,237.02v3.853h-5.828V237.02Z" transform="translate(-185.805 -59.826)" fill="#fe502d"/>
    <path id="Path_153820" data-name="Path 153820" d="M-328.954,240.835V236.99h5.812v3.845Z" transform="translate(-107.941 -59.803)" fill="#fe502d"/>
  </g>
</svg>
