<svg xmlns="http://www.w3.org/2000/svg" width="1050" height="454.317" viewBox="0 0 1050 454.317">
  <g id="Grupo_100060" data-name="Grupo 100060" transform="translate(-285 -3730)">
    <path id="Trazado_152825" data-name="Trazado 152825" d="M533.636,386.011V105.486h-68.83V386.005l-19.154-19.154v61.093l53.205,53.205.366-.367.367.367,53.2-53.205V366.851Z" transform="translate(313.112 3625.134)" fill="#0d2380"/>
    <path id="Trazado_159131" data-name="Trazado 159131" d="M7.56-16.548h3.028q3.6,0,3.6-3.523a3.046,3.046,0,0,0-.857-2.238,3.249,3.249,0,0,0-2.418-.866,3.479,3.479,0,0,0-2.219.743,2.266,2.266,0,0,0-.943,1.847H1.333a6.569,6.569,0,0,1,1.219-3.9,8.048,8.048,0,0,1,3.38-2.676,11.557,11.557,0,0,1,4.751-.962,11.355,11.355,0,0,1,7.274,2.114A7.027,7.027,0,0,1,20.6-20.2a5.857,5.857,0,0,1-1.095,3.38,7.8,7.8,0,0,1-3.19,2.58,7.454,7.454,0,0,1,3.466,2.428,6.394,6.394,0,0,1,1.257,4.028,7.155,7.155,0,0,1-2.856,5.941,11.857,11.857,0,0,1-7.5,2.228A12.3,12.3,0,0,1,5.627-.657,7.921,7.921,0,0,1,2.095-3.532,7.476,7.476,0,0,1,.9-7.712H7.351A2.89,2.89,0,0,0,8.379-5.5a3.63,3.63,0,0,0,2.533.933,3.8,3.8,0,0,0,2.7-.943,3.151,3.151,0,0,0,1.009-2.409,3.683,3.683,0,0,0-1.047-2.971,4.378,4.378,0,0,0-2.895-.876H7.56Z" transform="translate(800.972 4060.579)" fill="#fff"/>
    <g id="Grupo_89955" data-name="Grupo 89955" transform="translate(367.121 3730)">
      <path id="Trazado_152826" data-name="Trazado 152826" d="M318.034,105.03V251.61a104.773,104.773,0,0,0,64.6-96.846V105.03Z" transform="translate(-99.781 -105.03)" fill="#0a1433"/>
      <path id="Trazado_152827" data-name="Trazado 152827" d="M245.353,176.357h0l19.3-19.3H207.322l-19.3,19.3L158.937,205.44h0l-1.542,1.542.344.345-.344.344,1.542,1.542,15.873,15.873,15.873,15.875h0L207.322,257.6h57.335L248.019,240.96H335.4a104.751,104.751,0,0,0,96.833-64.6Z" transform="translate(-157.395 -86.371)" fill="#1b2652"/>
    </g>
    <path id="Trazado_159129" data-name="Trazado 159129" d="M15.92,0H9.483V-20.49L3.161-18.643v-4.875L15.33-27.727h.59Z" transform="translate(417.461 3862.173)" fill="#fff"/>
    <g id="Grupo_89957" data-name="Grupo 89957" transform="translate(462.682 3730)">
      <path id="Trazado_152828" data-name="Trazado 152828" d="M388.368,105.03V380.494a104.772,104.772,0,0,0,64.6-96.846V105.03Z" transform="translate(-170.116 -105.03)" fill="#1b2652"/>
      <path id="Trazado_152829" data-name="Trazado 152829" d="M315.688,271.228l19.3-19.3H277.657l-19.3,19.3L229.272,300.31h0l-1.542,1.543.344.344-.344.344,1.542,1.542,31.745,31.748h0l16.638,16.638h57.334l-16.638-16.638h87.386a104.751,104.751,0,0,0,96.833-64.6Z" transform="translate(-227.73 -52.345)" fill="#0b1b60"/>
    </g>
    <path id="Trazado_159130" data-name="Trazado 159130" d="M21.042,0H1.695V-4.189l8.912-9.369Q13.9-17.31,13.9-19.519a4.146,4.146,0,0,0-.781-2.723,2.788,2.788,0,0,0-2.266-.933,2.822,2.822,0,0,0-2.38,1.247,5.126,5.126,0,0,0-.914,3.114H1.124A9.106,9.106,0,0,1,2.4-23.528a8.947,8.947,0,0,1,3.542-3.38,10.522,10.522,0,0,1,5.065-1.219q4.494,0,6.922,2.076a7.41,7.41,0,0,1,2.428,5.96,8.655,8.655,0,0,1-.609,3.19,13.988,13.988,0,0,1-1.895,3.256,47.73,47.73,0,0,1-4.142,4.561l-3.58,4.132H21.042Z" transform="translate(518.634 3989.46)" fill="#fff"/>
    <g id="Grupo_89959" data-name="Grupo 89959" transform="translate(876.578 3730)">
      <path id="Trazado_152830" data-name="Trazado 152830" d="M596.963,105.03V380.494a104.778,104.778,0,0,1-64.6-96.846V105.03Z" transform="translate(-532.366 -105.03)" fill="#0d2380"/>
      <path id="Trazado_152831" data-name="Trazado 152831" d="M813.1,301.854l-1.543-1.543-29.081-29.082-19.3-19.3H705.841l19.3,19.3H538.261a104.748,104.748,0,0,0,96.832,64.6h87.386l-16.638,16.638h57.335l16.637-16.638h0l31.745-31.748,1.543-1.542-.344-.344Z" transform="translate(-530.252 -52.345)" fill="#1432af"/>
    </g>
    <path id="Trazado_159132" data-name="Trazado 159132" d="M18.643-10.835h2.818v4.951H18.643V0H12.226V-5.884H1.5L1.124-9.807l11.1-17.862v-.057h6.417Zm-11.407,0h4.989v-8.531l-.4.647Z" transform="translate(1081.32 3989.46)" fill="#fff"/>
    <g id="Grupo_89961" data-name="Grupo 89961" transform="translate(970.002 3730)">
      <path id="Trazado_152832" data-name="Trazado 152832" d="M665.725,105.03V251.61a104.772,104.772,0,0,1-64.6-96.846V105.03Z" transform="translate(-601.128 -105.03)" fill="#1432af"/>
      <path id="Trazado_152833" data-name="Trazado 152833" d="M880.223,206.982,830.3,157.055H772.962l19.3,19.3H607.027a104.751,104.751,0,0,0,96.821,64.6H789.6L772.962,257.6H830.3l16.638-16.637,33.288-33.29-.342-.344Z" transform="translate(-599.012 -86.371)" fill="#3357f0"/>
    </g>
    <path id="Trazado_159133" data-name="Trazado 159133" d="M2.076-13.544,3.771-27.727H19.976v4.989H8.988L8.36-17.229a7.569,7.569,0,0,1,1.8-.708,8.211,8.211,0,0,1,2.18-.306A8.134,8.134,0,0,1,18.691-15.8a9.857,9.857,0,0,1,2.219,6.865A9.839,9.839,0,0,1,19.719-4.1,8.18,8.18,0,0,1,16.377-.781,10.551,10.551,0,0,1,11.292.381,11.353,11.353,0,0,1,6.4-.694a8.78,8.78,0,0,1-3.58-2.949A7.166,7.166,0,0,1,1.542-7.877H7.979A3.64,3.64,0,0,0,8.95-5.464a3.083,3.083,0,0,0,2.3.893q3.237,0,3.237-4.789,0-4.428-3.961-4.428a3.952,3.952,0,0,0-3.352,1.444Z" transform="translate(1174.786 3863.061)" fill="#fff"/>
    <path id="Trazado_152836" data-name="Trazado 152836" d="M148.228,229.95c0,.488.005.865,0,1.243a3.379,3.379,0,0,1-3.678,3.633q-11.578,0-23.156.015a3.283,3.283,0,0,0-1.365.334c-5.505,2.637-10.915,2.451-16-.91a15.783,15.783,0,0,1-2.143-24.646,1.619,1.619,0,0,0,.592-1.408c-.069-1.724-.024-3.452-.024-5.179,0-8.33.048-16.658-.029-24.987-.023-2.511,1.44-4.342,4.08-4.111.246.022.5,0,.826,0,0-.515-.008-.94,0-1.365a3.353,3.353,0,0,1,3.5-3.505q15.348-.018,30.7-.011a2.763,2.763,0,0,1,1.928.758q4.345,3.882,8.71,7.742a2.558,2.558,0,0,1,.928,2c0,.126,0,.253,0,.38q0,23.082,0,46.166c0,1.984-.86,3.284-2.488,3.724a5.9,5.9,0,0,1-1.205.12C149.06,229.965,148.709,229.95,148.228,229.95Zm2.439-49.815h-.925c-1.777,0-3.556.008-5.333,0a3.363,3.363,0,0,1-3.58-3.573c-.007-1.3,0-2.591,0-3.887v-1.225c-.287,0-.461,0-.634,0l-28.874.052c-1.327,0-1.545.217-1.545,1.546V205.4c1.84,0,3.557,0,5.273-.005.181,0,.457-.015.527-.126.41-.643,1.023-.651,1.677-.649q13.449.01,26.895.005a3.363,3.363,0,0,1,.759.027,1.211,1.211,0,0,1,.022,2.375,3.623,3.623,0,0,1-.834.034H120.534c1.251,1.052,2.53,2.076,3.743,3.172a1.607,1.607,0,0,0,1.185.495q9.334-.02,18.667-.01a4.24,4.24,0,0,1,.683.015,1.15,1.15,0,0,1,1.076,1.175,1.178,1.178,0,0,1-1.094,1.236,5.77,5.77,0,0,1-.686.012H126.6c.44,1.081.894,2.069,1.239,3.094a.74.74,0,0,0,.867.588c3.53-.024,7.06-.02,10.589-.023,1.753,0,3.505-.011,5.258,0a1.2,1.2,0,0,1,1.329,1.38c-.086.693-.588,1.052-1.511,1.052q-7.465,0-14.933,0h-.923a16.1,16.1,0,0,1-1.228,8.258h15.425c2.261,0,4.522.005,6.781,0,.849,0,1.133-.295,1.173-1.144.008-.178,0-.356,0-.534v-45.7Zm-24.529,41.652c-.068-.052-.088-.08-.109-.08-.583-.014-1.166-.018-1.749-.037a1.267,1.267,0,0,1-1.38-1.213,1.231,1.231,0,0,1,1.359-1.219c.576-.014,1.155,0,1.74,0-.8-6.943-7.126-11.392-12.119-11.413-.016.019-.045.038-.046.058-.016.581-.019,1.164-.046,1.747a1.272,1.272,0,0,1-1.215,1.38,1.242,1.242,0,0,1-1.213-1.368c-.018-.6,0-1.2,0-1.8a13.175,13.175,0,0,0-11.78,11.391c.561,0,1.115-.008,1.668,0,.894.014,1.45.485,1.448,1.212s-.573,1.206-1.452,1.221c-.6.011-1.2,0-1.8,0,.037,6.34,6.683,13.353,11.914,12.593,0-.519-.008-1.049,0-1.577.016-.932.437-1.462,1.167-1.489.753-.029,1.243.537,1.265,1.481.014.569,0,1.14,0,1.713A13.342,13.342,0,0,0,126.137,221.787ZM104.9,207.293c.761-.344,1.367-.656,2-.89.389-.143.447-.356.447-.732q-.018-14.125-.011-28.252v-.952c-2.443-.317-2.451.145-2.447,1.927q.029,13.934.01,27.87Zm40.87,22.729a1.551,1.551,0,0,0-.193-.05q-9.625-.012-19.251-.015a.7.7,0,0,0-.481.137c-.614.721-1.2,1.469-1.838,2.262.257.014.429.031.6.031h19.862c.126,0,.254,0,.38-.005a.863.863,0,0,0,.909-.841C145.8,231.045,145.767,230.541,145.767,230.022Zm-2.5-57.129c0,1.389-.008,2.577,0,3.766a.935.935,0,0,0,1.041,1.033c1.114.007,2.227,0,3.34,0h.84l.015-.182Z" transform="translate(188.048 3647.934)" fill="#1b2652"/>
    <path id="Trazado_152837" data-name="Trazado 152837" d="M125.814,181.774q6.742,0,13.482,0a3.575,3.575,0,0,1,.683.02,1.141,1.141,0,0,1,1.026,1.143,1.154,1.154,0,0,1-.99,1.25,2.654,2.654,0,0,1-.607.024q-13.6,0-27.194,0c-.126,0-.254.005-.38,0a1.216,1.216,0,1,1-.035-2.431c.2-.014.406,0,.61,0Z" transform="translate(192.93 3652.493)" fill="#1b2652"/>
    <path id="Trazado_152838" data-name="Trazado 152838" d="M125.734,188.7H112.4c-.2,0-.408.008-.609-.005a1.214,1.214,0,1,1-.034-2.428c.177-.015.355-.005.533-.005h27.04a3.009,3.009,0,0,1,.683.026,1.212,1.212,0,0,1,.033,2.376,3.122,3.122,0,0,1-.758.035Z" transform="translate(192.93 3654.102)" fill="#1b2652"/>
    <path id="Trazado_152839" data-name="Trazado 152839" d="M125.734,190.747h13.482c.2,0,.408-.011.61.005a1.215,1.215,0,0,1-.034,2.429c-.177.012-.356,0-.534,0H112.37c-.126,0-.254,0-.38,0-.882-.019-1.437-.5-1.427-1.236s.564-1.2,1.461-1.2Q118.877,190.742,125.734,190.747Z" transform="translate(192.93 3655.712)" fill="#1b2652"/>
    <path id="Trazado_152840" data-name="Trazado 152840" d="M123.669,178.65q-2.741,0-5.481,0a5.246,5.246,0,0,1-.759-.037,1.1,1.1,0,0,1-1.023-1.133,1.078,1.078,0,0,1,1.007-1.217,19.475,19.475,0,0,1,2.052-.048q4.8-.006,9.591,0c.228,0,.458-.01.685.007a1.191,1.191,0,0,1,1.251,1.24,1.166,1.166,0,0,1-1.232,1.175c-.811.035-1.624.014-2.436.015Q125.5,178.652,123.669,178.65Z" transform="translate(195.024 3650.5)" fill="#1b2652"/>
    <path id="Trazado_152841" data-name="Trazado 152841" d="M109.926,205.959c-.6,2.33.413,4.766,2.1,7.024a8.951,8.951,0,0,1,.776,1.307,1.185,1.185,0,0,1-.458,1.645,1.154,1.154,0,0,1-1.6-.393q-1.565-2.523-3.052-5.092a2.01,2.01,0,0,1-.189-.955c-.014-2.539-.011-5.08-.005-7.619,0-.974.446-1.5,1.231-1.493s1.2.53,1.2,1.518C109.93,203.069,109.926,204.238,109.926,205.959Z" transform="translate(191.825 3659.169)" fill="#1b2652"/>
    <path id="Trazado_152842" data-name="Trazado 152842" d="M186.207,272.732c.149-1.054.486-1.349,1.478-1.355.745,0,1.489,0,2.235-.005a1.38,1.38,0,0,0,.2-.041,4.815,4.815,0,0,1-.336-4.1,4.507,4.507,0,0,1,1.8-2.223,4.642,4.642,0,0,1,5.38.242c1.787,1.412,2.163,3.357,1.141,6.126.827,0,1.628,0,2.427,0,.98.005,1.312.306,1.467,1.355h.792q7.787,0,15.574,0c1.16,0,1.47.315,1.47,1.492q0,28.206,0,56.409c0,1.216-.352,1.565-1.569,1.565H169.921c-1.209,0-1.553-.351-1.553-1.58V274.209c0-1.167.313-1.477,1.486-1.477q7.785,0,15.573,0Zm27.622,53.205V278.588H201.981a2.858,2.858,0,0,0-.02.417c.139,1.306-.423,1.754-1.75,1.734-2.888-.048-5.777-.015-8.667-.015-1.287,0-2.573,0-3.859,0-1.056,0-1.432-.376-1.439-1.414,0-.238,0-.476,0-.7H174.364v47.326Zm-11.838-49.548h.78q5.892,0,11.782,0c1.129,0,1.49.367,1.49,1.5v48.759c0,1.122-.365,1.482-1.509,1.482H173.7c-1.194,0-1.542-.342-1.542-1.516V277.926c0-1.182.351-1.537,1.524-1.537q5.89,0,11.781,0h.736v-1.437H170.57v55.036h47.05V274.932h-15.63Zm-2.239,2.134v-4.936H188.464v4.936Zm-3.2-9.587a2.452,2.452,0,1,0-2.484,2.421A2.454,2.454,0,0,0,196.552,268.937Z" transform="translate(213.662 3682.081)" fill="#0b1b60"/>
    <path id="Trazado_152843" data-name="Trazado 152843" d="M206.459,284.52a8.655,8.655,0,0,1-.467.883c-.41.594-1.109,1.132-1.2,1.761-.08.583.482,1.254.761,1.887a.5.5,0,0,1,.054.124c.129,1.186.889,1.586,1.971,1.588a2.261,2.261,0,0,1,.269.029c1.553.2,1.715.387,1.715,1.973,0,1.084,0,2.167,0,3.251,0,.887-.277,1.215-1.155,1.37-.644.113-1.3.175-1.933.323a.931.931,0,0,0-.549.454c-.4.831-.762,1.681-1.092,2.541a.892.892,0,0,0,.069.7c.364.568.8,1.087,1.194,1.641a1.088,1.088,0,0,1-.136,1.575c-1,.975-2.022,1.935-3.042,2.894a1.123,1.123,0,0,1-1.537.117c-.561-.378-1.11-.781-1.7-1.106a1.148,1.148,0,0,0-.829-.062c-.894.3-1.758.694-2.651,1a.741.741,0,0,0-.6.693c-.069.6-.185,1.2-.308,1.8a1.1,1.1,0,0,1-1.227,1.011q-2.1.016-4.2,0a1.127,1.127,0,0,1-1.266-1.049c-.118-.6-.167-1.211-.331-1.793a1.089,1.089,0,0,0-.545-.628c-.883-.391-1.789-.735-2.7-1.049a1.048,1.048,0,0,0-.768.058c-.588.33-1.14.727-1.7,1.107a1.144,1.144,0,0,1-1.59-.126c-1-.95-2-1.888-2.993-2.845a1.1,1.1,0,0,1-.137-1.626c.379-.534.8-1.037,1.152-1.588a.893.893,0,0,0,.053-.7c-.321-.84-.668-1.671-1.067-2.478a1.112,1.112,0,0,0-.649-.523c-.609-.155-1.243-.212-1.867-.31a1.116,1.116,0,0,1-1.11-1.269q-.012-1.965,0-3.928a1.117,1.117,0,0,1,1.09-1.287c.624-.1,1.258-.156,1.867-.312a1.122,1.122,0,0,0,.651-.522c.4-.806.751-1.636,1.068-2.477a.977.977,0,0,0-.079-.753c-.331-.535-.746-1.019-1.111-1.534a1.1,1.1,0,0,1,.135-1.626c1.005-.974,2.023-1.933,3.043-2.893a1.1,1.1,0,0,1,1.482-.126c.7.454,1.365,1.211,2.1,1.288s1.5-.658,2.3-.814a1.721,1.721,0,0,0,1.565-1.931,4.082,4.082,0,0,1,.137-.8,1.134,1.134,0,0,1,1.262-1.056q2.1-.014,4.2,0a1.129,1.129,0,0,1,1.251,1.067,12.412,12.412,0,0,1,.273,1.6c.033.514.265.716.739.868a22.476,22.476,0,0,1,2.509.99.726.726,0,0,0,.852-.067c.543-.4,1.114-.766,1.673-1.149a1.142,1.142,0,0,1,1.59.132c1,.951,2.009,1.883,2.989,2.85A4.1,4.1,0,0,1,206.459,284.52Zm-24.521,20.9a18.718,18.718,0,0,1,2-1.291,1.8,1.8,0,0,1,1.255-.049c1.376.474,2.715,1.063,4.085,1.556a1.239,1.239,0,0,1,.943,1.016c.12.705.262,1.408.4,2.115H193.3c.129-.693.274-1.355.371-2.023a1.342,1.342,0,0,1,1.067-1.145c1.314-.452,2.609-.967,3.887-1.511a1.383,1.383,0,0,1,1.461.067c.61.42,1.231.823,1.891,1.265l1.872-1.779c-.454-.607-.842-1.16-1.265-1.686a1.385,1.385,0,0,1-.071-1.677,32.54,32.54,0,0,0,1.505-3.522,1.429,1.429,0,0,1,1.283-1.1c.686-.08,1.368-.212,2.058-.322v-2.416c-.721-.124-1.4-.265-2.1-.351a1.321,1.321,0,0,1-1.163-1.034,34.461,34.461,0,0,0-1.549-3.579,1.369,1.369,0,0,1,.09-1.674c.42-.52.8-1.072,1.213-1.628l-1.868-1.769c-.69.467-1.325.894-1.956,1.326a1.3,1.3,0,0,1-1.34.064c-1.325-.549-2.659-1.083-4.011-1.562a1.272,1.272,0,0,1-.99-1.053c-.113-.7-.261-1.4-.4-2.1h-2.667c-.125.671-.276,1.327-.364,1.99-.1.713-.522,1-1.167,1.216-1.273.429-2.527.928-3.761,1.463a1.409,1.409,0,0,1-1.518-.064c-.606-.423-1.23-.819-1.874-1.247l-1.868,1.781c.461.622.855,1.171,1.268,1.708a1.284,1.284,0,0,1,.084,1.5c-.591,1.232-1.122,2.494-1.622,3.768a1.221,1.221,0,0,1-.973.9c-.753.124-1.5.258-2.281.393v2.4c.731.124,1.437.255,2.147.36a1.319,1.319,0,0,1,1.118,1.005,38.879,38.879,0,0,0,1.577,3.64,1.342,1.342,0,0,1-.1,1.615c-.417.524-.8,1.077-1.219,1.649Z" transform="translate(215.806 3686.782)" fill="#0b1b60"/>
    <path id="Trazado_152844" data-name="Trazado 152844" d="M191.412,306.688q6.835,0,13.672,0a2.427,2.427,0,0,1,.8.082.99.99,0,0,1,.7,1.106,1.031,1.031,0,0,1-.908.955,3.727,3.727,0,0,1-.675.022H177.659c-.113,0-.227,0-.34,0a1.13,1.13,0,0,1-1.245-1.057,1.114,1.114,0,0,1,1.259-1.107q5.719-.008,11.439,0Z" transform="translate(216.426 3697.296)" fill="#0b1b60"/>
    <path id="Trazado_152845" data-name="Trazado 152845" d="M183.845,303.5q3.212,0,6.424,0c.865,0,1.341.389,1.345,1.075s-.474,1.088-1.333,1.09q-6.424,0-12.847,0c-.842,0-1.355-.414-1.359-1.077s.507-1.086,1.346-1.087Q180.633,303.493,183.845,303.5Z" transform="translate(216.426 3696.152)" fill="#0b1b60"/>
    <path id="Trazado_152846" data-name="Trazado 152846" d="M180.256,292.221a9.581,9.581,0,1,1,9.451,9.63A9.617,9.617,0,0,1,180.256,292.221Zm16.994.046a7.413,7.413,0,1,0-7.41,7.416A7.445,7.445,0,0,0,197.25,292.268Z" transform="translate(217.926 3688.688)" fill="#0b1b60"/>
    <path id="Trazado_152847" data-name="Trazado 152847" d="M187.466,291.648q1.993-1.877,3.982-3.754l.246-.232c.728-.675,1.33-.751,1.821-.23s.382,1.126-.333,1.8q-2.409,2.28-4.823,4.553c-.735.692-1.255.677-1.967-.05q-1.184-1.208-2.357-2.429c-.61-.633-.673-1.226-.19-1.713s1.126-.406,1.766.231C186.213,290.425,186.824,291.019,187.466,291.648Z" transform="translate(219.098 3690.268)" fill="#0b1b60"/>
    <path id="Trazado_152848" data-name="Trazado 152848" d="M467.635,404.991a8.779,8.779,0,1,1,11.475-.232h.652c3.6,0,7.209.008,10.812-.015a1.8,1.8,0,0,0,.99-.318,20.787,20.787,0,0,1,32.648,12.445,20.239,20.239,0,0,1-1.8,13.693c-.113.223-.224.446-.365.727l4.678,4.617-1.4,2.368c.764.2,1.486.353,2.186.582a.738.738,0,0,1,.425.526c.027,2.463.011,4.928.027,7.391,0,.382-.147.507-.495.58-.689.145-1.367.341-2.145.541l1.334,2.251-5.893,5.867-2.231-1.318c-.193.738-.4,1.422-.542,2.121-.079.387-.231.52-.632.516-2.417-.016-4.835-.02-7.252,0-.442,0-.587-.151-.668-.557-.137-.685-.341-1.355-.53-2.08l-2.231,1.319-5.879-5.892,1.315-2.221c-.734-.192-1.416-.406-2.111-.538-.439-.083-.533-.288-.527-.694.022-1.482.008-2.966.008-4.448v-.7a21.025,21.025,0,0,1-7.618-3.365l-2.795,2.8.988,1.041c-.2.206-.363.39-.537.564-2.677,2.678-5.345,5.365-8.041,8.024a1.622,1.622,0,0,0-.62,1.481,4.582,4.582,0,0,1,.005.819,4.241,4.241,0,0,1-2.629,4.057,4.167,4.167,0,0,1-4.7-.789c-.1-.087-.2-.178-.2-.182a13.3,13.3,0,0,1-2.341,1.19,4.322,4.322,0,0,1-5.452-4.31q-.018-9.342,0-18.684c0-1.687-.008-3.376.007-5.064a.657.657,0,0,0-.481-.753,7.593,7.593,0,0,1-5-7.295q-.012-3.114,0-6.228a9.822,9.822,0,0,1,7.2-9.68C467.379,405.109,467.48,405.056,467.635,404.991Zm36.222-2.422a18.616,18.616,0,1,0,18.625,18.624A18.643,18.643,0,0,0,503.857,402.569ZM474.3,433.262v11.57c0,2.668-.005,5.335,0,8a2.193,2.193,0,1,0,4.375-.1q.008-11.665,0-23.33c0-.174-.03-.348-.044-.5h-10.9V449.55c0,1.117-.01,2.235,0,3.352a2.192,2.192,0,1,0,4.374-.16q.008-9.34,0-18.677v-.8Zm4.38-12.078v-.821c0-2.1-.016-4.2.005-6.3a3.814,3.814,0,0,1,3.827-3.831,13.4,13.4,0,0,1,1.982.014,2.306,2.306,0,0,0,2.641-1.327,13.648,13.648,0,0,1,1.5-1.935H475.67c.015.264.018.488.039.711.254,2.564.515,5.126.758,7.691.027.281.072.678-.083.842-1.027,1.087-2.107,2.126-3.205,3.217-.956-.966-1.852-1.908-2.795-2.8a1.364,1.364,0,0,1-.455-1.261c.228-2.086.429-4.174.634-6.261.069-.712.121-1.425.179-2.136a7.58,7.58,0,0,0-8.356,6.486,40.25,40.25,0,0,0-.13,4.711c-.005.261,0,.523,0,.766h3.306v-6.5h2.168v.765c0,2.213,0,4.425,0,6.638,0,.849.379,1.313,1.138,1.317C472.109,421.192,475.345,421.184,478.682,421.184Zm47.064,19.476c-.757-.194-1.462-.372-2.167-.558a1.375,1.375,0,0,1-.781-1.884c.376-.641.764-1.277,1.076-1.8l-3.072-3.076-2.925,3.281a7.668,7.668,0,0,1-5.982,13.892c-3.827-.966-5.894-4.022-5.8-8.583h-4.382v3.581c.731.189,1.436.368,2.141.554a1.375,1.375,0,0,1,.793,1.878c-.376.644-.765,1.28-1.1,1.845l3.465,3.475c.554-.332,1.158-.693,1.764-1.053a1.322,1.322,0,0,1,1.951.731c.217.712.386,1.439.576,2.162h4.846c.192-.743.375-1.469.565-2.192a1.4,1.4,0,0,1,1.844-.773c.648.376,1.287.768,1.826,1.091l3.5-3.465c-.284-.476-.6-1-.914-1.531a1.381,1.381,0,0,1,.974-2.269c.607-.151,1.215-.307,1.8-.455Zm-52.505-49.041a6.569,6.569,0,1,0,6.534,6.6A6.587,6.587,0,0,0,473.241,391.619Zm45.97,51.546a5.526,5.526,0,0,0-2.787-4.823.735.735,0,0,0-.922.041,19.58,19.58,0,0,1-6.5,2.929.749.749,0,0,0-.63.681,5.21,5.21,0,0,0,1.947,5.354,5.138,5.138,0,0,0,5.709.681A5.385,5.385,0,0,0,519.211,443.165Zm-56.925-21.98a5.423,5.423,0,0,0,5.353,5.465c4.538.034,9.074.011,13.612.01a2.572,2.572,0,0,0,.409-.02,1.669,1.669,0,0,0,1.4-1.552,1.64,1.64,0,0,0-1.26-1.658,3.786,3.786,0,0,0-.815-.052q-5.951-.006-11.9,0a3.367,3.367,0,0,1-3.189-1.844.709.709,0,0,0-.49-.334C464.378,421.17,463.355,421.185,462.286,421.185ZM486.808,433.3l-2.8-5.455a4.183,4.183,0,0,1-3.084,1.019V437l.2.147,2.137-2.27.849,1.14Zm-3.834,4.846c-.547.55-1.16,1.122-1.715,1.747a1.471,1.471,0,0,0-.371.874c-.031,2.23-.018,4.46-.015,6.691a1.579,1.579,0,0,0,.031.313l5.848-5.842Zm-.033-16.721c.189-1.5.283-3.045.6-4.543s.872-2.947,1.337-4.462c-.7,0-1.446-.008-2.189,0a1.665,1.665,0,0,0-1.821,1.826c-.01,1.456,0,2.914,0,4.371V421.1Zm-9.719-5.175a1.858,1.858,0,0,0,.961-2.014c-.3-2.276-.47-4.569-.711-6.854-.016-.152-.183-.288-.28-.431-.088.152-.239.3-.257.455-.234,2.217-.41,4.441-.689,6.652A1.869,1.869,0,0,0,473.223,416.254Zm15.184,18.874-2.507,2.448,1.552,1.569,2.5-2.477Z" transform="translate(318.28 3726.976)" fill="#0d2380"/>
    <path id="Trazado_152849" data-name="Trazado 152849" d="M498.768,400.347c0-2-.071-3.943.018-5.875a5.131,5.131,0,0,1,4.341-4.867,29.172,29.172,0,0,1,6.469-.018,5.288,5.288,0,0,1,4.471,5.793,5.463,5.463,0,0,1-5.333,4.993c-3.215.038-6.429.01-9.644.008A3.116,3.116,0,0,1,498.768,400.347Zm2.2-2.154c2.613,0,5.143.02,7.672-.007a3.279,3.279,0,0,0-.016-6.557q-2.221-.033-4.445,0a3.192,3.192,0,0,0-3.187,2.821C500.881,395.667,500.972,396.9,500.972,398.194Z" transform="translate(332.152 3726.968)" fill="#0d2380"/>
    <path id="Trazado_152850" data-name="Trazado 152850" d="M480.215,417.092a16.424,16.424,0,1,1,16.358,16.475A16.449,16.449,0,0,1,480.215,417.092Zm28.486,7.494a14.2,14.2,0,0,0-23.229-16.271c-4.436,5.609-3.412,12.846-.841,16.159V413.89h6.543v6.485h2.2V405.139h6.58v10.871h2.177V411.72h6.57Zm-13.122-17.269v24H497.7v-24Zm8.784,6.566v15.235c.591-.461,1.081-.865,1.6-1.236a1.333,1.333,0,0,0,.546-1.223c-.02-4.012-.011-8.024-.011-12.036v-.739Zm-4.406,17.1c.545-.163,1.038-.329,1.542-.458a.74.74,0,0,0,.629-.861c-.026-3.6-.014-7.206-.015-10.808,0-.2-.026-.391-.039-.584h-2.117Zm-11.028-1.834V416.1h-2.144c0,3.675,0,7.3.011,10.918a.863.863,0,0,0,.246.583C487.616,428.11,488.224,428.577,488.928,429.148Zm4.38,1.768v-8.246h-2.145v5.725c0,2.069,0,2.071,2.023,2.538A.558.558,0,0,0,493.308,430.915Z" transform="translate(325.508 3731.02)" fill="#0d2380"/>
    <path id="Trazado_152851" data-name="Trazado 152851" d="M504.093,394.817h-2.08v-2.129h2.08Z" transform="translate(333.326 3728.141)" fill="#0d2380"/>
    <path id="Trazado_152852" data-name="Trazado 152852" d="M505.221,394.795v-2.1h2.117v2.1Z" transform="translate(334.477 3728.142)" fill="#0d2380"/>
    <path id="Trazado_152853" data-name="Trazado 152853" d="M819.18,269.532H780.017c-.013.262-.035.511-.035.761,0,1.688.008,3.376-.005,5.065a3.912,3.912,0,0,1-4.117,4.128c-1.922.019-3.845,0-5.868,0v.893q0,8.2,0,16.408a6.553,6.553,0,0,1-.022.784,1.044,1.044,0,0,1-2.048.137,3.014,3.014,0,0,1-.068-.776c0-6.018,0-12.034-.012-18.05a2.05,2.05,0,0,1,.662-1.573q4.636-4.6,9.228-9.233a2.254,2.254,0,0,1,1.751-.732q19.544.024,39.087.024a1.116,1.116,0,0,0,1.2-.686,4.54,4.54,0,0,1,5.129-2.293,4.642,4.642,0,0,1,3.55,4.3c.01.238.007.476.007.713q0,17.728-.015,35.457a4.014,4.014,0,0,1-.341,1.569c-.8,1.823-1.675,3.618-2.5,5.433a1.848,1.848,0,0,1-3.558-.011c-.838-1.837-1.719-3.653-2.538-5.5a3.643,3.643,0,0,1-.3-1.435q-.027-17.229-.014-34.458Zm4.637,41.06c.781-1.675,1.509-3.194,2.191-4.734a3.292,3.292,0,0,0,.293-1.289q.025-13.337.012-26.676v-.736h-4.973c-.01.152-.02.246-.02.341q0,13.659,0,27.319a1.4,1.4,0,0,0,.075.556C822.176,307.076,822.971,308.773,823.817,310.592ZM777.8,271.342l-5.963,5.963c1.432,0,2.963.046,4.49-.019a1.5,1.5,0,0,0,1.454-1.342C777.842,274.371,777.8,272.794,777.8,271.342Zm43.531-.715h4.977c0-.686.039-1.327-.01-1.961a2.489,2.489,0,0,0-4.959.007C821.292,269.307,821.328,269.947,821.328,270.627Zm4.952,2.231h-4.913v2.049h4.913Z" transform="translate(428.668 3682.081)" fill="#1432af"/>
    <path id="Trazado_152854" data-name="Trazado 152854" d="M809.118,316.365c-4.518,0-9.035.005-13.553-.008a1.3,1.3,0,0,0-1.086.484c-1,1.086-2.046,2.122-3.113,3.14a2.423,2.423,0,0,1-3.308.11c-.523-.412-1.023-.852-1.541-1.27a.9.9,0,0,0-1.424.554c-.092.682-.129,1.372-.209,2.057a2.452,2.452,0,0,1-2.44,2.24q-2.138.037-4.278,0a2.451,2.451,0,0,1-2.442-2.238c-.067-.567-.113-1.136-.156-1.7a1.023,1.023,0,0,0-.651-1.043c-.522-.221-.743.069-1.043.314-.443.359-.871.736-1.321,1.088a2.444,2.444,0,0,1-3.364-.154q-1.51-1.463-2.975-2.975a2.443,2.443,0,0,1-.159-3.364c.368-.467.754-.918,1.137-1.374.243-.288.474-.515.265-.989a.97.97,0,0,0-.963-.651q-.925-.055-1.845-.168a2.44,2.44,0,0,1-2.168-2.359q-.047-2.211,0-4.424a2.439,2.439,0,0,1,2.23-2.374c.614-.071,1.23-.135,1.846-.166a.938.938,0,0,0,.9-.639c.219-.465,0-.7-.253-.99-.387-.451-.77-.906-1.137-1.374a2.443,2.443,0,0,1,.147-3.364q1.463-1.512,2.974-2.977a2.443,2.443,0,0,1,3.363-.164c.469.365.918.754,1.375,1.134.287.239.508.486.986.273a.975.975,0,0,0,.656-.961c.035-.617.092-1.234.167-1.846a2.438,2.438,0,0,1,2.353-2.174q2.209-.049,4.421,0a2.443,2.443,0,0,1,2.379,2.225c.077.66.162,1.323.182,1.988a.717.717,0,0,0,.7.743,1.187,1.187,0,0,0,.791-.156c.542-.382,1.024-.849,1.55-1.257a2.413,2.413,0,0,1,3.253.136q1.573,1.5,3.077,3.076a2.42,2.42,0,0,1,.167,3.253c-.371.493-.783.957-1.177,1.433-.236.285-.49.505-.277.986a.972.972,0,0,0,.957.659c.617.035,1.234.094,1.846.167a2.431,2.431,0,0,1,2.177,2.349c.035,1.474.033,2.95,0,4.424a2.438,2.438,0,0,1-2.22,2.383c-.66.077-1.323.16-1.988.182a.718.718,0,0,0-.747.694,1.189,1.189,0,0,0,.155.792,21.86,21.86,0,0,0,1.471,1.833.968.968,0,0,0,.645.291q13.624.022,27.247.005a1.809,1.809,0,0,0,1.984-2.007c.009-1.618,0-3.235,0-4.852,0-.876.413-1.386,1.09-1.372.652.014,1.045.507,1.047,1.342q.008,2.389,0,4.78a3.954,3.954,0,0,1-4.219,4.254C818.1,316.373,813.611,316.365,809.118,316.365Zm-16.089-1.179c-.11-.162-.192-.306-.295-.431-.573-.7-1.145-1.4-1.731-2.084a1.217,1.217,0,0,1-.178-1.448,14.014,14.014,0,0,0,.712-1.705,1.274,1.274,0,0,1,1.257-.959c.876-.064,1.751-.163,2.628-.231.4-.031.591-.194.584-.625q-.026-1.855,0-3.709c.005-.418-.156-.607-.569-.639-.852-.065-1.7-.174-2.556-.224a1.33,1.33,0,0,1-1.361-1.02,10.021,10.021,0,0,0-.659-1.575,1.281,1.281,0,0,1,.175-1.572c.579-.663,1.115-1.361,1.7-2.02.293-.334.311-.583-.022-.9q-1.333-1.29-2.624-2.622a.522.522,0,0,0-.846-.038c-.7.609-1.427,1.183-2.135,1.781a1.187,1.187,0,0,1-1.387.17,13.7,13.7,0,0,0-1.7-.717,1.3,1.3,0,0,1-1-1.3c-.056-.853-.158-1.7-.22-2.557-.033-.431-.2-.63-.667-.621q-1.818.037-3.637,0c-.451-.008-.648.159-.681.606-.06.829-.174,1.655-.215,2.485a1.368,1.368,0,0,1-1.054,1.416,9.008,9.008,0,0,0-1.508.628,1.318,1.318,0,0,1-1.635-.183c-.64-.568-1.323-1.086-1.963-1.655-.353-.315-.614-.334-.958.026-.837.876-1.7,1.731-2.569,2.573a.549.549,0,0,0-.042.9c.6.677,1.152,1.391,1.739,2.079a1.22,1.22,0,0,1,.175,1.448,12.173,12.173,0,0,0-.686,1.64,1.335,1.335,0,0,1-1.354,1.033c-.853.05-1.7.158-2.556.224-.4.031-.59.194-.583.625q.027,1.855,0,3.709c-.007.42.156.606.569.639.876.067,1.75.168,2.626.231a1.277,1.277,0,0,1,1.268.946,12.182,12.182,0,0,0,.682,1.641,1.292,1.292,0,0,1-.177,1.575c-.576.664-1.113,1.363-1.7,2.022-.3.336-.31.58.023.9q1.335,1.288,2.624,2.621a.524.524,0,0,0,.848.039c.7-.607,1.427-1.183,2.133-1.783a1.183,1.183,0,0,1,1.386-.17,14.675,14.675,0,0,0,1.705.712,1.311,1.311,0,0,1,1,1.307c.054.855.158,1.7.22,2.557.033.433.2.63.667.621q1.818-.035,3.637,0c.452.008.648-.162.679-.607.063-.876.16-1.751.23-2.628a1.241,1.241,0,0,1,.909-1.216,13.577,13.577,0,0,0,1.706-.712,1.25,1.25,0,0,1,1.511.17c.685.59,1.4,1.147,2.077,1.739a.524.524,0,0,0,.849-.019c.879-.9,1.779-1.785,2.664-2.681A3.068,3.068,0,0,0,793.029,315.186Z" transform="translate(426.736 3690.589)" fill="#1432af"/>
    <path id="Trazado_152855" data-name="Trazado 152855" d="M792.809,286.272c0-.437,0-.864,0-1.291.005-1.668.626-2.3,2.272-2.3.875,0,1.75,0,2.723,0,0-.654-.012-1.239,0-1.825a1.834,1.834,0,0,1,2.042-2.027c.9-.015,1.806-.011,2.709-.019a1.184,1.184,0,0,0,.239-.08c0-.5-.01-1.035,0-1.572a1.832,1.832,0,0,1,2.03-2.038c1.046-.015,2.092-.019,3.138,0a1.773,1.773,0,0,1,1.955,1.948q.021,8.454,0,16.907a1.76,1.76,0,0,1-2,1.97q-9.057.016-18.115,0a1.784,1.784,0,0,1-1.992-1.988q-.033-2.782,0-5.565a1.825,1.825,0,0,1,2.065-2c.9-.014,1.806-.015,2.709-.024C792.636,286.367,792.678,286.331,792.809,286.272Zm14.948-9.016c-.724,0-1.365.042-2-.012-.651-.054-.84.16-.836.825.027,4.969.015,9.936.015,14.9v.772h2.821Zm-5.02,16.516V280.966c-.719,0-1.383.035-2.041-.011-.584-.041-.77.144-.766.749.026,3.778.014,7.558.014,11.337v.731Zm-4.973-8.952c-.742,0-1.451.034-2.155-.011-.553-.034-.675.182-.671.7.023,2.566.01,5.132.014,7.7a5.506,5.506,0,0,0,.056.558h2.757Zm-4.989,3.713c-.868,0-1.648-.015-2.427.014-.132.005-.368.192-.37.3-.023,1.632-.016,3.263-.016,4.9h2.812Z" transform="translate(435.828 3685.969)" fill="#1432af"/>
    <path id="Trazado_152856" data-name="Trazado 152856" d="M798.771,298.081c2.565,0,5.13,0,7.7,0,.821,0,1.287.428,1.261,1.113-.023.626-.465,1.018-1.209,1.022-2.019.01-4.038,0-6.057,0q-4.632,0-9.263,0c-.783,0-1.257-.406-1.273-1.042-.018-.666.471-1.092,1.292-1.094C793.735,298.077,796.252,298.081,798.771,298.081Z" transform="translate(436.588 3694.209)" fill="#1432af"/>
    <path id="Trazado_152857" data-name="Trazado 152857" d="M781.628,283.43q-3.634,0-7.269,0a6.282,6.282,0,0,1-.64-.012.994.994,0,0,1-.99-1.012,1.027,1.027,0,0,1,.978-1.1,11.381,11.381,0,0,1,1.14-.015h14.036a5.6,5.6,0,0,1,.641.011,1.063,1.063,0,0,1,1,1.1,1.025,1.025,0,0,1-1.058,1.023c-.615.029-1.235.011-1.852.011Q784.621,283.432,781.628,283.43Z" transform="translate(430.419 3688.185)" fill="#1432af"/>
    <path id="Trazado_152858" data-name="Trazado 152858" d="M799.79,296.65c-1.852,0-3.7,0-5.557,0-.882,0-1.382-.406-1.368-1.09.012-.656.5-1.046,1.338-1.048q5.558-.006,11.114,0c.891,0,1.371.393,1.359,1.088s-.486,1.049-1.4,1.05Q802.533,296.654,799.79,296.65Z" transform="translate(437.642 3692.928)" fill="#1432af"/>
    <path id="Trazado_152859" data-name="Trazado 152859" d="M782.568,279.853c-1.875,0-3.751,0-5.626,0-.811,0-1.254-.365-1.276-1.019-.023-.677.448-1.114,1.268-1.115q5.627-.014,11.254,0c.814,0,1.3.444,1.28,1.11-.018.647-.471,1.023-1.272,1.026C786.321,279.857,784.445,279.853,782.568,279.853Z" transform="translate(431.474 3686.903)" fill="#1432af"/>
    <path id="Trazado_152860" data-name="Trazado 152860" d="M798.1,301.654c.876,0,1.754-.012,2.63,0a1.069,1.069,0,1,1,.01,2.13q-2.7.022-5.4,0a1.066,1.066,0,1,1-.01-2.128C796.255,301.639,797.179,301.654,798.1,301.654Z" transform="translate(438.119 3695.489)" fill="#1432af"/>
    <path id="Trazado_152861" data-name="Trazado 152861" d="M780.811,287c-.853,0-1.705.008-2.558,0-.776-.011-1.254-.414-1.266-1.045a1.1,1.1,0,0,1,1.229-1.088q2.629-.02,5.258,0c.776.005,1.223.427,1.213,1.087s-.447,1.035-1.247,1.045C782.563,287.01,781.687,287,780.811,287Z" transform="translate(431.947 3689.466)" fill="#1432af"/>
    <path id="Trazado_152862" data-name="Trazado 152862" d="M792.269,301.66c.427,0,.856-.033,1.28.007a1.058,1.058,0,0,1,.005,2.111c-.876.038-1.755.038-2.632,0a1.057,1.057,0,0,1-.005-2.11C791.364,301.629,791.818,301.662,792.269,301.66Z" transform="translate(436.588 3695.488)" fill="#1432af"/>
    <path id="Trazado_152863" data-name="Trazado 152863" d="M775.047,286.992c-.45,0-.9.031-1.351-.007a.967.967,0,0,1-.966-1.023.952.952,0,0,1,.92-1.068,19.032,19.032,0,0,1,2.769.005.953.953,0,0,1,.9,1.086.985.985,0,0,1-1,1c-.424.031-.852.005-1.278.005Z" transform="translate(430.42 3689.463)" fill="#1432af"/>
    <path id="Trazado_152864" data-name="Trazado 152864" d="M785.6,285.927a1.065,1.065,0,0,1-2.129.011,1.065,1.065,0,1,1,2.129-.011Z" transform="translate(434.275 3689.469)" fill="#1432af"/>
    <path id="Trazado_152865" data-name="Trazado 152865" d="M775.629,278.793a1.065,1.065,0,0,1-2.129-.007,1.065,1.065,0,1,1,2.129.007Z" transform="translate(430.697 3686.907)" fill="#1432af"/>
    <path id="Trazado_152866" data-name="Trazado 152866" d="M792.844,295.594a1.09,1.09,0,0,1-1.048,1.053,1.067,1.067,0,0,1-.043-2.134A1.087,1.087,0,0,1,792.844,295.594Z" transform="translate(436.871 3692.929)" fill="#1432af"/>
    <path id="Trazado_152867" data-name="Trazado 152867" d="M801.777,301.655a1.067,1.067,0,1,1-.052,2.133,1.067,1.067,0,0,1,.052-2.133Z" transform="translate(440.449 3695.491)" fill="#1432af"/>
    <path id="Trazado_152868" data-name="Trazado 152868" d="M804.067,269.386a1.062,1.062,0,0,1,1.046,1.037,1.1,1.1,0,0,1-1.092,1.079,1.055,1.055,0,0,1-1.027-1.124A1.026,1.026,0,0,1,804.067,269.386Z" transform="translate(441.274 3683.917)" fill="#1432af"/>
    <path id="Trazado_152869" data-name="Trazado 152869" d="M796.817,270.434a1.1,1.1,0,0,1-1.1,1.068,1.053,1.053,0,0,1-1.018-1.064,1.029,1.029,0,0,1,1.086-1.052A1.063,1.063,0,0,1,796.817,270.434Z" transform="translate(438.299 3683.917)" fill="#1432af"/>
    <path id="Trazado_152870" data-name="Trazado 152870" d="M788.522,270.458a1.1,1.1,0,0,1-1.129,1.042,1.054,1.054,0,0,1-.993-1.087,1.028,1.028,0,0,1,1.109-1.026A1.065,1.065,0,0,1,788.522,270.458Z" transform="translate(435.324 3683.917)" fill="#1432af"/>
    <path id="Trazado_152871" data-name="Trazado 152871" d="M780.225,270.431a1.1,1.1,0,0,1-1.1,1.071,1.052,1.052,0,0,1-1.02-1.06,1.023,1.023,0,0,1,1.011-1.054A1.062,1.062,0,0,1,780.225,270.431Z" transform="translate(432.348 3683.918)" fill="#1432af"/>
    <path id="Trazado_152872" data-name="Trazado 152872" d="M786.849,302.961c0,5.315-3.7,9.175-8.519,9.418a8.911,8.911,0,0,1-1.783-17.7,8.726,8.726,0,0,1,6.148,1.266c.757.476.969,1.067.609,1.648s-.965.63-1.747.174a6.525,6.525,0,0,0-7.508.205,6.753,6.753,0,1,0,9.277,9.6,6.517,6.517,0,0,0,.624-7.186c-.5-1.031-.455-1.644.209-1.963s1.208-.007,1.727,1.022A8.419,8.419,0,0,1,786.849,302.961Z" transform="translate(429.099 3692.946)" fill="#1432af"/>
    <path id="Trazado_152873" data-name="Trazado 152873" d="M776.81,297.72a4.628,4.628,0,1,1-4.624,4.615A4.617,4.617,0,0,1,776.81,297.72Zm.023,7.111a2.482,2.482,0,1,0-2.5-2.466A2.467,2.467,0,0,0,776.833,304.831Z" transform="translate(430.226 3694.08)" fill="#1432af"/>
    <path id="Trazado_152874" data-name="Trazado 152874" d="M831.061,203.01V170.7c0-1.351.292-1.641,1.644-1.641q24.645,0,49.291,0c1.357,0,1.651.291,1.651,1.636q0,25.742.012,51.482a2.265,2.265,0,0,1-.724,1.749q-6.22,6.173-12.394,12.391a2.115,2.115,0,0,1-1.63.674q-18.142-.022-36.284-.011c-1.25,0-1.565-.319-1.565-1.584Zm2.239-31.737v63.46h35.009c0-3.909,0-7.763,0-11.618,0-1.124.349-1.474,1.467-1.475q5.441,0,10.883,0h.755V171.274Zm37.254,52.59v9.077l9.078-9.077Z" transform="translate(451.341 3647.933)" fill="#3357f0"/>
    <path id="Trazado_152875" data-name="Trazado 152875" d="M845.7,173.37l.766-1.44,1.94.965c-.232.465-.431.916-.677,1.34a.737.737,0,0,0,.1.963,7.655,7.655,0,0,1-6.3,12.521,7.658,7.658,0,0,1-.871-15.2A8,8,0,0,1,845.7,173.37Zm-1.008,2.06a5.323,5.323,0,0,0-7.021,1.238,5.472,5.472,0,0,0,8.122,7.3,5.317,5.317,0,0,0,.586-6.982c-.11.209-.219.408-.319.61-1.009,2.016-2.008,4.037-3.027,6.046a1.119,1.119,0,0,1-2.088.19c-.9-1.178-1.781-2.368-2.67-3.553-.156-.209-.3-.425-.471-.658l1.739-1.289,2.227,2.936Z" transform="translate(452.499 3648.964)" fill="#3357f0"/>
    <path id="Trazado_152876" data-name="Trazado 152876" d="M848.377,185.783c-.288.652-.819,1.295-.762,1.88s.766,1.1,1.072,1.7a7.29,7.29,0,0,1-.734,8.334A7.635,7.635,0,1,1,837.4,186.847a7.358,7.358,0,0,1,7.876-.773c.1.048.205.1.308.148a.664.664,0,0,0,.136.012l.753-1.406Zm-3.685,2.552a5.322,5.322,0,0,0-6.977,1.177,5.472,5.472,0,0,0,8.026,7.411,5.323,5.323,0,0,0,.641-7.034c-.11.209-.22.408-.321.609-1.01,2.016-2.008,4.037-3.027,6.047a1.12,1.12,0,0,1-2.088.2c-.789-1.031-1.562-2.075-2.341-3.115-.266-.356-.526-.717-.8-1.1l1.739-1.289,2.228,2.936Z" transform="translate(452.5 3653.59)" fill="#3357f0"/>
    <path id="Trazado_152877" data-name="Trazado 152877" d="M845.708,199.18l.753-1.457,2.031,1.024c-1.257,1.2-.686,2.185.08,3.378a7.358,7.358,0,0,1-.492,8.345,7.651,7.651,0,0,1-13.676-3.357,7.671,7.671,0,0,1,10.769-8.186C845.338,199,845.5,199.081,845.708,199.18Zm.668,3.591c-.45.9-.867,1.731-1.284,2.565-.692,1.384-1.374,2.774-2.079,4.153-.432.841-1.3,1.076-1.826.425-1.17-1.447-2.258-2.959-3.4-4.473l1.751-1.308,2.232,2.946,2.931-5.871a5.375,5.375,0,0,0-7.137,1.406,5.469,5.469,0,0,0,8.159,7.227A5.351,5.351,0,0,0,846.376,202.771Z" transform="translate(452.502 3658.215)" fill="#3357f0"/>
    <path id="Trazado_152878" data-name="Trazado 152878" d="M847.23,175.515h26.18v2.133H847.23Z" transform="translate(457.141 3650.25)" fill="#3357f0"/>
    <path id="Trazado_152879" data-name="Trazado 152879" d="M847.207,180.857v-2.094h26.228v2.094Z" transform="translate(457.132 3651.415)" fill="#3357f0"/>
    <path id="Trazado_152880" data-name="Trazado 152880" d="M873.433,181.99V184.1H847.227V181.99Z" transform="translate(457.14 3652.572)" fill="#3357f0"/>
    <path id="Trazado_152881" data-name="Trazado 152881" d="M873.441,188.443v2.106H847.212v-2.106Z" transform="translate(457.134 3654.887)" fill="#3357f0"/>
    <path id="Trazado_152882" data-name="Trazado 152882" d="M847.212,193.77v-2.113h26.206v2.113Z" transform="translate(457.134 3656.039)" fill="#3357f0"/>
    <path id="Trazado_152883" data-name="Trazado 152883" d="M847.21,196.99v-2.1h26.229v2.1Z" transform="translate(457.133 3657.197)" fill="#3357f0"/>
    <path id="Trazado_152884" data-name="Trazado 152884" d="M847.209,203.441v-2.1h26.23v2.1Z" transform="translate(457.133 3659.511)" fill="#3357f0"/>
    <path id="Trazado_152885" data-name="Trazado 152885" d="M873.433,204.567v2.113H847.227v-2.113Z" transform="translate(457.14 3660.67)" fill="#3357f0"/>
    <path id="Trazado_152886" data-name="Trazado 152886" d="M860.287,207.793v2.11H847.228v-2.11Z" transform="translate(457.14 3661.827)" fill="#3357f0"/>
  </g>
</svg>
