<svg xmlns="http://www.w3.org/2000/svg" width="206.771" height="197.111" viewBox="0 0 206.771 197.111">
  <g id="Partnership-amico" transform="translate(-20.097 -22.793)">
    <g id="freepik--Shadows--inject-27" transform="translate(20.097 133.433)">
      <path id="freepik--Shadow--inject-27" d="M227.5,295.221c-6.126-3.1-10.1-5.27-12.883-7.046-3.675-2.343-4.35-3.444-4.477-3.743.313-.381,1.858-1.115,4.477-1.323a12,12,0,0,0,4.984-1.332,4.373,4.373,0,0,0,2.4-3.806c0-1.976-1.414-3.924-3.87-5.347a15.334,15.334,0,0,0-7.449-1.953,9.62,9.62,0,0,0-4.776,1.1,5.641,5.641,0,0,0-2.755,3.584c-.236.983-1.3,2.139-3.525,2.17h-.082c-3.924,0-9.7-3.829-17.024-8.687L179.735,267l-.97.557c-2.207,1.269-4.373,2.474-6.113,3.439-8.61,4.781-13.354,7.413-13.218,10.735.1,2.605,3.027,4.391,7.83,4.776a8.337,8.337,0,0,1,3.453.856c.267.154.585.394.585.666,0,.353-.43,1.264-2.062,2.207a11.741,11.741,0,0,1-5.632,1.468,6.139,6.139,0,0,1-2.963-.616A2.048,2.048,0,0,1,159.6,289.8c-.544-2.243-2.719-4.889-7.005-4.944h-.136c-3.326,0-6.8,1.631-11.383,4.264-1.359.779-2.787,1.64-4.309,2.556-.671.4-1.359.829-2.075,1.278-.988.616-2.012,1.251-3.09,1.885l-.87.5c-1.908,1.1-3.752,2.13-5.637,3.172-9.271,5.166-13.367,7.576-13.25,10.567.1,2.361,2.669,3.915,7.055,4.269a9.442,9.442,0,0,1,3.969,1.006c.381.222.838.58.838,1.029,0,.621-.716,1.654-2.316,2.578a13.1,13.1,0,0,1-6.276,1.609,7.418,7.418,0,0,1-3.6-.766,2.524,2.524,0,0,1-1.3-1.586,6.123,6.123,0,0,0-6.131-4.5h-.113c-3.888,0-8.184,2.578-14.7,6.5-1.541.906-3.625,2.193-5.891,3.494l-2.9,1.681,2.991,1.509c1.785.906,3.507,1.745,5.12,2.538,5.374,2.637,11.451,5.623,12.008,7.046-.308.381-1.853,1.115-4.481,1.323a11.945,11.945,0,0,0-4.984,1.341,4.366,4.366,0,0,0-2.4,3.8c0,1.976,1.414,3.924,3.874,5.347a15.3,15.3,0,0,0,7.445,1.953,9.607,9.607,0,0,0,4.776-1.1,5.628,5.628,0,0,0,2.755-3.58c.236-.983,1.3-2.143,3.525-2.171h.073c3.226,0,8,2.945,14.047,6.679,2.057,1.273,4.078,2.524,6.312,3.843l.906.539,2.32-1.337c11.328-6.539,16.363-9.575,16.227-12.941-.1-2.361-2.669-3.92-7.055-4.269a9.515,9.515,0,0,1-3.969-1.006c-.381-.222-.838-.58-.838-1.033,0-.616.716-1.654,2.316-2.578a13.141,13.141,0,0,1,6.276-1.618,7.418,7.418,0,0,1,3.6.766,2.547,2.547,0,0,1,1.3,1.586,6.113,6.113,0,0,0,6.126,4.5h.136c4.577,0,10.01-3.145,19.032-8.383l1.921-1.11h.023l.585-.331h.063l.163-.1c2.859-1.631,5.574-3.05,7.758-4.191,6.743-3.521,10.454-5.465,10.336-8.356-.1-2.361-2.669-3.92-7.055-4.268a9.516,9.516,0,0,1-3.969-1.006c-.381-.222-.838-.58-.838-1.033,0-.616.716-1.654,2.316-2.578a13.113,13.113,0,0,1,6.276-1.613,7.472,7.472,0,0,1,3.6.761,2.528,2.528,0,0,1,1.3,1.586,6.11,6.11,0,0,0,6.131,4.5h.1c3.507,0,7.44-2.515,12.883-6,2.352-1.5,5.016-3.213,8.057-4.984l2.886-1.677Z" transform="translate(-56.433 -266.982)" fill="#0d2380" opacity="0.45"/>
      <path id="freepik--shadow--inject-27-2" data-name="freepik--shadow--inject-27" d="M179.721,267.4l2.592,1.717c7.372,4.885,13.2,8.745,17.219,8.745h.086c2.433-.032,3.625-1.337,3.874-2.447a5.288,5.288,0,0,1,2.583-3.353,9.262,9.262,0,0,1,4.595-1.051,14.953,14.953,0,0,1,7.25,1.9c2.347,1.359,3.689,3.172,3.689,5.03a4,4,0,0,1-2.211,3.489,11.578,11.578,0,0,1-4.826,1.287c-2.46.195-4.273.906-4.731,1.455l-.136.168.082.2c.2.494,1.074,1.654,4.617,3.915,2.791,1.781,6.774,3.96,12.914,7.064l2.379,1.205-2.306,1.337c-3.054,1.776-5.719,3.485-8.075,4.984C213.928,306.5,210.031,309,206.628,309h-.091a5.76,5.76,0,0,1-5.782-4.223,2.887,2.887,0,0,0-1.468-1.812,7.8,7.8,0,0,0-3.784-.816,13.467,13.467,0,0,0-6.457,1.668c-1.518.875-2.5,2.012-2.5,2.891,0,.5.353.961,1.02,1.359a9.868,9.868,0,0,0,4.124,1.056c4.182.335,6.629,1.763,6.72,3.92.109,2.664-3.534,4.568-10.141,8.02-2.18,1.137-4.894,2.556-7.771,4.2l-.186.109h-.032l-.421.24h-.023l-.163.091-1.926,1.115c-8.972,5.2-14.391,8.333-18.868,8.333h-.131a5.75,5.75,0,0,1-5.777-4.223,2.886,2.886,0,0,0-1.468-1.813,7.8,7.8,0,0,0-3.784-.816,13.418,13.418,0,0,0-6.439,1.672c-1.518.875-2.5,2.007-2.5,2.891,0,.494.353.961,1.02,1.359a9.942,9.942,0,0,0,4.124,1.056c4.182.335,6.629,1.763,6.72,3.92.122,3.172-4.83,6.149-16.05,12.611l-2.13,1.233-.73-.431c-2.211-1.314-4.246-2.565-6.308-3.838-6.086-3.766-10.875-6.738-14.233-6.738h-.072c-2.433.036-3.625,1.359-3.874,2.451a5.274,5.274,0,0,1-2.583,3.349,9.248,9.248,0,0,1-4.595,1.056,14.954,14.954,0,0,1-7.25-1.908c-2.347-1.359-3.689-3.172-3.689-5.03a4,4,0,0,1,2.211-3.489,11.532,11.532,0,0,1,4.826-1.282c2.465-.2,4.278-.906,4.731-1.459l.136-.168-.077-.195c-.566-1.445-5.406-3.911-12.185-7.25-1.518-.748-3.29-1.618-5.12-2.538l-2.388-1.205L83.585,323c2.238-1.3,4.346-2.565,5.891-3.5,6.457-3.883,10.726-6.444,14.5-6.444h.113a5.751,5.751,0,0,1,5.777,4.219,2.886,2.886,0,0,0,1.473,1.813,7.78,7.78,0,0,0,3.779.811,13.494,13.494,0,0,0,6.462-1.663c1.513-.875,2.492-2.012,2.492-2.9,0-.494-.349-.961-1.02-1.359a9.961,9.961,0,0,0-4.119-1.051c-4.187-.335-6.634-1.767-6.72-3.924-.109-2.773,3.924-5.143,13.059-10.232,1.881-1.042,3.725-2.075,5.641-3.172l.87-.5c1.051-.612,2.025-1.219,3.1-1.89h.023c.711-.453,1.387-.865,2.044-1.26,1.518-.906,2.954-1.772,4.3-2.551,4.531-2.605,7.957-4.219,11.2-4.219h.136c4.078.054,6.144,2.547,6.657,4.667a2.4,2.4,0,0,0,1.214,1.522,6.543,6.543,0,0,0,3.145.662,12.193,12.193,0,0,0,5.818-1.491c1.654-.956,2.238-1.958,2.238-2.524,0-.358-.258-.689-.766-.979a8.532,8.532,0,0,0-3.625-.906c-4.6-.372-7.4-2.025-7.495-4.427-.127-3.095,4.531-5.691,13.032-10.422,1.731-.965,3.892-2.166,6.117-3.444l.775-.453m0-.426-.97.557c-2.207,1.269-4.373,2.474-6.113,3.439-8.61,4.781-13.354,7.413-13.218,10.735.1,2.606,3.027,4.391,7.826,4.776a8.344,8.344,0,0,1,3.457.856c.267.154.585.394.585.666,0,.353-.43,1.264-2.062,2.207a11.741,11.741,0,0,1-5.632,1.468,6.14,6.14,0,0,1-2.963-.616,2.048,2.048,0,0,1-1.042-1.291c-.544-2.243-2.719-4.889-7.005-4.944h-.136c-3.326,0-6.8,1.631-11.383,4.264-1.359.779-2.787,1.64-4.309,2.556-.671.4-1.359.829-2.075,1.278-.988.616-2.012,1.251-3.09,1.885l-.87.5c-1.908,1.1-3.752,2.13-5.637,3.172-9.271,5.166-13.367,7.576-13.25,10.567.1,2.361,2.669,3.915,7.055,4.268a9.442,9.442,0,0,1,3.969,1.006c.381.222.838.58.838,1.029,0,.621-.716,1.654-2.316,2.578a13.1,13.1,0,0,1-6.244,1.627,7.418,7.418,0,0,1-3.6-.766,2.524,2.524,0,0,1-1.3-1.586,6.123,6.123,0,0,0-6.131-4.5h-.113c-3.888,0-8.184,2.578-14.7,6.5-1.541.906-3.625,2.193-5.891,3.494l-2.9,1.681,2.991,1.509c1.785.906,3.507,1.745,5.12,2.538,5.374,2.637,11.451,5.623,12.008,7.046-.308.381-1.853,1.115-4.481,1.323a11.945,11.945,0,0,0-4.984,1.341,4.366,4.366,0,0,0-2.4,3.8c0,1.976,1.414,3.924,3.874,5.347a15.3,15.3,0,0,0,7.445,1.953,9.607,9.607,0,0,0,4.776-1.1,5.628,5.628,0,0,0,2.755-3.58c.236-.983,1.3-2.143,3.525-2.171h.073c3.226,0,8,2.945,14.047,6.679,2.057,1.273,4.078,2.524,6.312,3.843l.906.539,2.32-1.337c11.328-6.539,16.363-9.575,16.227-12.941-.1-2.361-2.669-3.92-7.055-4.268a9.515,9.515,0,0,1-3.969-1.006c-.381-.222-.838-.58-.838-1.033,0-.616.716-1.654,2.316-2.578a13.141,13.141,0,0,1,6.276-1.618,7.418,7.418,0,0,1,3.6.766,2.547,2.547,0,0,1,1.3,1.586,6.113,6.113,0,0,0,6.126,4.5h.136c4.577,0,10.01-3.145,19.032-8.383l1.921-1.11h.023l.585-.331h.063l.163-.1c2.859-1.631,5.574-3.05,7.758-4.191,6.743-3.521,10.454-5.465,10.336-8.356-.1-2.361-2.669-3.92-7.055-4.268a9.516,9.516,0,0,1-3.969-1.006c-.381-.222-.838-.58-.838-1.033,0-.616.716-1.654,2.316-2.578a13.113,13.113,0,0,1,6.276-1.613,7.471,7.471,0,0,1,3.6.761,2.528,2.528,0,0,1,1.3,1.586,6.11,6.11,0,0,0,6.131,4.5h.1c3.507,0,7.44-2.515,12.883-6,2.352-1.5,5.016-3.213,8.057-4.984l2.886-1.677-2.977-1.509c-6.126-3.1-10.1-5.27-12.883-7.046-3.675-2.343-4.35-3.444-4.477-3.743.313-.381,1.858-1.115,4.477-1.323a12,12,0,0,0,4.984-1.332,4.373,4.373,0,0,0,2.4-3.806c0-1.976-1.414-3.924-3.87-5.347a15.334,15.334,0,0,0-7.449-1.953,9.62,9.62,0,0,0-4.776,1.1,5.641,5.641,0,0,0-2.755,3.584c-.236.983-1.3,2.139-3.525,2.171h-.082c-3.924,0-9.7-3.829-17.024-8.687l-2.76-1.853Z" transform="translate(-56.433 -266.96)" fill="#e0e0e0"/>
      <path id="freepik--shadow--inject-27-3" data-name="freepik--shadow--inject-27" d="M394.573,355.8l-9.2-5.311,31.289-18.066,9.2,5.311Z" transform="translate(-223.162 -302.758)" fill="#e0e0e0"/>
      <path id="freepik--shadow--inject-27-4" data-name="freepik--shadow--inject-27" d="M36.6,359.672l-9.2-5.315L58.693,336.29l9.2,5.315Z" transform="translate(-27.4 -304.874)" fill="#e0e0e0"/>
    </g>
    <g id="freepik--Symbol--inject-27" transform="translate(24.542 31.007)">
      <g id="freepik--money-symbol--inject-27">
        <path id="Path_156628" data-name="Path 156628" d="M70.844,60.447l-3.2-1.853,6.2-5.284,3.2,1.849Z" transform="translate(-53.851 -47.696)" fill="#39709f"/>
        <path id="Path_156629" data-name="Path 156629" d="M68.55,71.071c-1.636-1.16-4.481-.281-6.888.453q-.87.295-1.577.517a2.868,2.868,0,0,0-.236,1.115c0,1.867,1.581,1.359,5.016.222a25.49,25.49,0,0,1,3.553-.933c.1.952.766,1.813,3.335.453Z" transform="translate(-49.591 -57.101)" fill="#826c19"/>
        <path id="Path_156630" data-name="Path 156630" d="M57.679,118.552l-3.2-1.849V112.92l3.2,1.858Z" transform="translate(-46.654 -80.294)" fill="#826c19"/>
        <path id="Path_156631" data-name="Path 156631" d="M64.7,92.12c0,1.5-1.133,2.846-2.8,3.82-2.669,1.55-3.707.285-3.938-.947l-.562-.326a6.059,6.059,0,0,0,1.3-.585,5.689,5.689,0,0,0,2.61-2.76C63.282,90.683,64.7,90.43,64.7,92.12Z" transform="translate(-48.251 -68.217)" fill="#826c19"/>
        <path id="Path_156632" data-name="Path 156632" d="M41.755,110.827a2.107,2.107,0,0,0-1.169-.285c-.063-.19-.122-.385-.172-.6l-3.2-1.853a3.814,3.814,0,0,0,1.813,2.719h0l3.172,1.849A1.482,1.482,0,0,0,41.755,110.827Z" transform="translate(-37.21 -77.653)" fill="#826c19"/>
        <path id="Path_156633" data-name="Path 156633" d="M52.485,57.219c-3.435,1.133-5.016,1.645-5.016-.222a2.868,2.868,0,0,1,.236-1.115c-2.347.725-3.439.816-3.439-.734,0-1.142.77-2.547,2.891-3.779,2.266-1.314,3.53-1.006,3.843.453l6.2-5.288c-.027-.082-.059-.154-.091-.227a4,4,0,0,0,1.1-.426l-2.556-1.518c-.077-.05-.159-.1-.245-.145l-.036-.023h0a4.341,4.341,0,0,0-2.433-.4,10.671,10.671,0,0,0-3.2.879v-.068l3.2-1.84-3.2-1.849h0l-2.171,1.264-2.941,1.708h0v3.775c-4.336,3.14-7.055,7.273-7.055,11.736,0,2.035.548,3.172,1.436,3.775h.041a2.443,2.443,0,0,0,.236.136l2.683,1.509a2,2,0,0,0-.163-1.21,15.362,15.362,0,0,0,2.506-.548c3.258-.983,6.149-2.528,6.149-.118a3.1,3.1,0,0,1-.2,1.083c1.976-.643,3.4-.906,3.4.793,0,1.5-1.133,2.846-2.8,3.82-2.669,1.55-3.707.285-3.938-.947h0l-.562-.326-2.637-1.527-6.5,5.515,3.2,1.853A5.673,5.673,0,0,0,40.9,74.57a10.377,10.377,0,0,0,4.133-1.024v1.532l5.061-.693V70.6c4.386-3.231,7.409-7.59,7.409-12.139a6.126,6.126,0,0,0-.363-2.266A17.243,17.243,0,0,0,52.485,57.219Z" transform="translate(-37.21 -40.92)" fill="#826c19"/>
        <path id="Path_156634" data-name="Path 156634" d="M52.485,57.219c-3.435,1.133-5.016,1.645-5.016-.222a2.868,2.868,0,0,1,.236-1.115c-2.347.725-3.439.816-3.439-.734,0-1.142.77-2.547,2.891-3.779,2.266-1.314,3.53-1.006,3.843.453l6.2-5.288c-.027-.082-.059-.154-.091-.227a4,4,0,0,0,1.1-.426l-2.556-1.518c-.077-.05-.159-.1-.245-.145l-.036-.023h0a4.341,4.341,0,0,0-2.433-.4,10.671,10.671,0,0,0-3.2.879v-.068l3.2-1.84-3.2-1.849h0l-2.171,1.264-2.941,1.708h0v3.775c-4.336,3.14-7.055,7.273-7.055,11.736,0,2.035.548,3.172,1.436,3.775h.041a2.443,2.443,0,0,0,.236.136l2.683,1.509a2,2,0,0,0-.163-1.21,15.362,15.362,0,0,0,2.506-.548c3.258-.983,6.149-2.528,6.149-.118a3.1,3.1,0,0,1-.2,1.083c1.976-.643,3.4-.906,3.4.793,0,1.5-1.133,2.846-2.8,3.82-2.669,1.55-3.707.285-3.938-.947h0l-.562-.326-2.637-1.527-6.5,5.515,3.2,1.853A5.673,5.673,0,0,0,40.9,74.57a10.377,10.377,0,0,0,4.133-1.024v1.532l5.061-.693V70.6c4.386-3.231,7.409-7.59,7.409-12.139a6.126,6.126,0,0,0-.363-2.266A17.243,17.243,0,0,0,52.485,57.219Z" transform="translate(-37.45 -40.92)" fill="#fff" opacity="0.4"/>
        <path id="Path_156635" data-name="Path 156635" d="M61.014,58.413a18.044,18.044,0,0,0-4.663,1.038c-3.435,1.133-5.016,1.645-5.016-.222a2.868,2.868,0,0,1,.236-1.115,5.946,5.946,0,0,1,2.655-2.664c2.266-1.314,3.525-1,3.843.453l6.194-5.288a3.633,3.633,0,0,0-3.593-2.755,9.629,9.629,0,0,0-3.865.906V45l-3.2,1.862-1.9,1.11v3.775c-4.346,3.172-7.055,7.3-7.055,11.754a6.539,6.539,0,0,0,.385,2.433c.956,2.393,3.584,2.066,6.344,1.255.97-.295,1.912-.634,2.755-.906,1.976-.643,3.4-.906,3.4.793,0,1.5-1.133,2.846-2.8,3.82-2.669,1.55-3.707.285-3.938-.947l-6.5,5.492a5.673,5.673,0,0,0,.489,1.359c.852,1.59,2.365,2.026,4.133,1.813a12.33,12.33,0,0,0,3.2-.988V81.4l5.066-2.923v-3.8c4.386-3.226,7.413-7.585,7.413-12.139C64.58,59.269,63.026,58.363,61.014,58.413Z" transform="translate(-41.076 -43.151)" fill="#c5a424"/>
        <path id="Path_156637" data-name="Path 156637" d="M56.774,53.062l-3.2-1.853V47.43l3.2,1.853Z" transform="translate(-46.157 -44.48)" fill="#826c19"/>
        <path id="Path_156638" data-name="Path 156638" d="M72.72,95.881l.494-.394c.159-.122.349-.276.562-.453s.453-.385.707-.625.53-.48.8-.766l.426-.453.426-.453c.15-.154.29-.322.43-.494s.29-.34.426-.521c.272-.363.553-.725.8-1.11s.494-.788.72-1.178a9.553,9.553,0,0,0,.58-1.187c.163-.4.308-.788.453-1.155l.159-.553c.027-.091.054-.177.077-.263l.059-.258c.072-.335.14-.643.172-.906s.082-.517.086-.72a4.5,4.5,0,0,1,.036-.63v.634c0,.2-.032.453-.059.725a7.453,7.453,0,0,1-.15.933l-.05.258a.979.979,0,0,1-.073.267c-.05.181-.1.367-.15.562a10.285,10.285,0,0,1-.453,1.169,13.284,13.284,0,0,1-.58,1.205c-.227.394-.453.8-.716,1.178s-.535.757-.811,1.119a6.771,6.771,0,0,1-.453.521c-.163.172-.285.335-.453.494l-.453.453-.453.426c-.281.281-.566.526-.825.757s-.512.426-.73.6-.412.326-.575.453Z" transform="translate(-56.629 -64.348)" fill="#fff"/>
      </g>
    </g>
    <g id="freepik--light-bulb--inject-27" transform="translate(188.163 29.874)">
      <g id="freepik--light-bulb--inject-27-2" data-name="freepik--light-bulb--inject-27" transform="translate(0 0)">
        <g id="freepik--Light--inject-27" transform="translate(8.949 8.823)">
          <path id="Path_156639" data-name="Path 156639" d="M440.208,118.353a2.184,2.184,0,1,1-2.166-2.193A2.184,2.184,0,0,1,440.208,118.353Z" transform="translate(-427.778 -89.756)" fill="#37474f"/>
          <path id="Path_156640" data-name="Path 156640" d="M433.6,116.815c-1.436-.843-1.423-2.2.027-3.018a5.755,5.755,0,0,1,5.225.041c1.436.843,1.427,2.193-.023,3.018a5.791,5.791,0,0,1-5.229-.041Z" transform="translate(-425.969 -88.132)" fill="#455a64"/>
          <path id="Path_156641" data-name="Path 156641" d="M433.393,114.941c-1.482-.87-1.473-2.266,0-3.108a5.927,5.927,0,0,1,5.388.041c1.482.87,1.473,2.266-.023,3.108A5.954,5.954,0,0,1,433.393,114.941Z" transform="translate(-425.834 -87.046)" fill="#37474f"/>
          <path id="Path_156642" data-name="Path 156642" d="M433.188,113.014c-1.527-.906-1.513-2.334.027-3.208a6.131,6.131,0,0,1,5.551.045c1.527.906,1.518,2.329-.023,3.2a6.14,6.14,0,0,1-5.555-.041Z" transform="translate(-425.706 -85.93)" fill="#455a64"/>
          <path id="Path_156643" data-name="Path 156643" d="M432.972,111.022c-1.577-.906-1.563-2.4.023-3.3a6.317,6.317,0,0,1,5.728.045c1.572.906,1.559,2.4-.027,3.3a6.344,6.344,0,0,1-5.723-.045Z" transform="translate(-425.568 -84.776)" fill="#37474f"/>
          <path id="Path_156644" data-name="Path 156644" d="M432.826,108.986c-1.6-.943-1.6-2.451.027-3.371a6.457,6.457,0,0,1,5.841.045c1.6.943,1.6,2.451-.027,3.371A6.444,6.444,0,0,1,432.826,108.986Z" transform="translate(-425.476 -83.619)" fill="#455a64"/>
          <path id="Path_156645" data-name="Path 156645" d="M428.512,57.89A10.39,10.39,0,0,0,418.05,68.2c-.059,8.242,6.729,9.661,6.706,12.987a1.776,1.776,0,0,0,1.038,1.468,5.605,5.605,0,0,0,5.066.041,1.785,1.785,0,0,0,1.06-1.455h0c.027-3.326,6.838-4.64,6.9-12.887A10.39,10.39,0,0,0,428.512,57.89Z" transform="translate(-418.049 -57.889)" fill="#c5a424"/>
          <path id="Path_156647" data-name="Path 156647" d="M435.587,108.372a1.166,1.166,0,0,1,0-2.2,4.214,4.214,0,0,1,3.811.032,1.163,1.163,0,0,1,0,2.2A4.2,4.2,0,0,1,435.587,108.372Z" transform="translate(-427.212 -84.052)" fill="#826c19"/>
          <path id="Path_156648" data-name="Path 156648" d="M435.865,93.179a.358.358,0,0,1-.353-.349,25.22,25.22,0,0,1,.775-5.927,12.557,12.557,0,0,1,.53-1.645,4.87,4.87,0,0,1-.906-.453,6.082,6.082,0,0,1-1.359-1.169,5.993,5.993,0,0,1-1.387,1.146,4.691,4.691,0,0,1-.906.453,12.378,12.378,0,0,1,.517,1.64,25.442,25.442,0,0,1,.684,5.941.353.353,0,0,1-.707,0,24.922,24.922,0,0,0-.662-5.755,11.591,11.591,0,0,0-.517-1.649,2.2,2.2,0,0,1-1.958-.589,1.128,1.128,0,0,1-.141-1.455.938.938,0,0,1,.961-.4c.557.118,1.092.689,1.55,1.627a3.919,3.919,0,0,0,.82-.39,5.36,5.36,0,0,0,1.328-1.142,2.6,2.6,0,0,1-.5-1.985.992.992,0,0,1,1.894,0,2.592,2.592,0,0,1-.53,1.976,5.328,5.328,0,0,0,1.31,1.142,3.625,3.625,0,0,0,.816.4c.453-.906,1.015-1.491,1.572-1.6a.952.952,0,0,1,.956.412,1.128,1.128,0,0,1-.163,1.45,2.216,2.216,0,0,1-1.971.562,11.843,11.843,0,0,0-.535,1.64,24.838,24.838,0,0,0-.752,5.746.353.353,0,0,1-.349.358Zm-5.628-9.543c-.059,0-.127,0-.2.127a.453.453,0,0,0,.1.562,1.418,1.418,0,0,0,1.124.385c-.372-.693-.734-1.024-.965-1.069Zm7.595,1.106a1.436,1.436,0,0,0,1.133-.367c.063-.073.272-.322.1-.562-.1-.136-.181-.14-.249-.127C438.579,83.749,438.212,84.071,437.832,84.741Zm-3.244-3.625a.236.236,0,0,0-.272.186.608.608,0,1,0,.539,0,.231.231,0,0,0-.267-.19Z" transform="translate(-424.187 -70.191)" fill="#fff"/>
        </g>
        <path id="Path_156649" data-name="Path 156649" d="M440.316,43.286a.607.607,0,0,1-.181.027.675.675,0,0,1-.675-.68V39.094a.671.671,0,0,1,.7-.675.68.68,0,0,1,.68.68v3.534a.675.675,0,0,1-.521.653Z" transform="translate(-420.809 -38.419)" fill="#b7971e"/>
        <path id="Path_156650" data-name="Path 156650" d="M421.523,48.3a.684.684,0,0,1-.766-.317l-1.767-3.063a.68.68,0,0,1,1.178-.68l1.763,3.063a.675.675,0,0,1-.249.929A.983.983,0,0,1,421.523,48.3Z" transform="translate(-409.565 -41.416)" fill="#b7971e"/>
        <path id="Path_156651" data-name="Path 156651" d="M407.711,62a.68.68,0,0,1-.521-.068l-3.059-1.772a.68.68,0,1,1,.68-1.174l3.059,1.754a.68.68,0,0,1,.249.929A.693.693,0,0,1,407.711,62Z" transform="translate(-401.281 -49.605)" fill="#b7971e"/>
        <path id="Path_156652" data-name="Path 156652" d="M402.7,80.789a.792.792,0,0,1-.181,0H398.98a.68.68,0,1,1,0-1.359h3.534a.68.68,0,0,1,.181,1.332Z" transform="translate(-398.3 -60.846)" fill="#b7971e"/>
        <path id="Path_156653" data-name="Path 156653" d="M477.115,80.872a.793.793,0,0,1-.181,0H473.4a.68.68,0,0,1,0-1.359h3.525a.686.686,0,0,1,.181,1.359Z" transform="translate(-438.998 -60.888)" fill="#b7971e"/>
        <path id="Path_156654" data-name="Path 156654" d="M469.118,62.109a.68.68,0,0,1-.53-1.242l3.063-1.767a.68.68,0,1,1,.68,1.178l-3.068,1.763a.539.539,0,0,1-.145.068Z" transform="translate(-436.551 -49.679)" fill="#b7971e"/>
        <path id="Path_156655" data-name="Path 156655" d="M456.977,48.368a.671.671,0,0,1-.517-.063.68.68,0,0,1-.249-.906l1.772-3.059a.68.68,0,0,1,1.178.68l-1.776,3.059a.675.675,0,0,1-.408.29Z" transform="translate(-429.925 -41.47)" fill="#b7971e"/>
      </g>
    </g>
    <g id="freepik--Puzzle--inject-27" transform="translate(47.946 126.496)">
      <g id="freepik--puzzle--inject-27-2" data-name="freepik--puzzle--inject-27">
        <path id="Path_156656" data-name="Path 156656" d="M287.164,278.347c-.566-.285-1.11-.571-1.649-.852l-.276-.141c-3.752-1.957-6.874-3.693-9.248-5.22h0c.335-.045.675-.086,1.006-.113a10.059,10.059,0,0,0,4.219-1.092,2.57,2.57,0,0,0,1.477-2.293h0V260.48a2.517,2.517,0,0,0-.068-.544,2.848,2.848,0,0,0-.131-.408,6.169,6.169,0,0,0-2.755-2.773,12.237,12.237,0,0,0-1.291-.639,13.7,13.7,0,0,0-5.605-1.078,7.623,7.623,0,0,0-3.513.857c-.085.049-.18.122-.27.185a3.956,3.956,0,0,0-.82.7,3.625,3.625,0,0,0-.807,1.55,4.261,4.261,0,0,1-.2.616,4.354,4.354,0,0,1-.77,1.21,5.661,5.661,0,0,1-4.291,1.736,15.081,15.081,0,0,1-6.679-1.935,117.149,117.149,0,0,1-11.451-7.055l-1.844-1.219-1.042.6c-1.754,1-3.457,1.948-5.093,2.859-7.187,3.988-12.38,6.874-12.289,9.063v8.156c.073,1.885,3.367,2.818,6.163,3.041l.222.027h0c-.208.063-.426.113-.639.168s-.412.109-.621.15-.43.086-.648.122-.453.063-.662.091-.39.045-.58.059c-.394.027-.779.041-1.16.032l-.322-.023a6.027,6.027,0,0,1-.87-.082,2.187,2.187,0,0,1-.39-.068,7.51,7.51,0,0,1-.748-.181c-.109-.032-.217-.059-.322-.1a5.47,5.47,0,0,1-.906-.4,5.6,5.6,0,0,1-.548-.372,3.848,3.848,0,0,1-.544-.517,3.625,3.625,0,0,1-.807-1.55,4.1,4.1,0,0,0-.526-1.228,5.4,5.4,0,0,0-4.74-2.329,8.61,8.61,0,0,0-1.124.059,13.984,13.984,0,0,0-3.625.992c-.87.349-1.781.775-2.746,1.273s-1.989,1.065-3.081,1.695l-1.029.607-2.143,1.269-1.115.666c-1.649.992-3.426,2.161-5.438,3.312v8.156c2.238,1.486,4.287,2.927,6.262,4.318,5.619,3.965,10.055,7.1,13.286,7.055a4.257,4.257,0,0,0,4.391-3.108,4.373,4.373,0,0,1,2.152-2.719c2.565-1.482,7.132-1.278,10.667.349h0c-.281.063-.589.118-.906.168l-.195.032c-.349.05-.711.1-1.11.127s-.933.1-1.4.177c-.313.05-.625.113-.906.186-1.649.4-3.022,1.106-3.063,2.175h0v8.156c-.077,1.9,4.7,4.182,11.328,7.341,2.084.992,4.432,2.116,6.865,3.34h0l.186-.122h0c2.8-1.6,5.438-2.991,7.812-4.223,5.483-2.864,9.443-4.93,9.371-6.679h0v-8.156c-.027-.68-.594-1.214-1.427-1.613a9.826,9.826,0,0,0-2.56-.748c-.453-.082-.942-.136-1.4-.172h0c-.4-.032-.766-.077-1.115-.131l-.2-.027c-.331-.054-.639-.109-.906-.177,3.539-1.622,8.1-1.812,10.662-.344a4.368,4.368,0,0,1,2.152,2.719,4.272,4.272,0,0,0,4.391,3.108c2.986.041,6.761-2.374,11.981-5.714,2.37-1.518,5.048-3.231,8.125-5.021v-8.156C288.51,279.036,287.83,278.691,287.164,278.347Z" transform="translate(-146.806 -251.666)" fill="#a9a9a9"/>
        <path id="Path_156657" data-name="Path 156657" d="M241.148,252.327c-1.754,1-3.457,1.948-5.093,2.859-7.187,3.988-12.375,6.874-12.289,9.063v8.156c.073,1.885,3.367,2.819,6.163,3.041l.222.027h0c-.208.063-.426.113-.639.168s-.412.109-.621.15-.43.086-.648.122-.453.063-.662.091-.39.045-.58.059c-.394.027-.779.041-1.16.032l-.322-.023a6.027,6.027,0,0,1-.87-.082,2.19,2.19,0,0,1-.39-.068,7.5,7.5,0,0,1-.748-.181c-.109-.032-.217-.059-.322-.1a5.475,5.475,0,0,1-.906-.4,5.6,5.6,0,0,1-.548-.372,3.847,3.847,0,0,1-.544-.517,3.625,3.625,0,0,1-.807-1.55,4.1,4.1,0,0,0-.526-1.228,5.4,5.4,0,0,0-4.74-2.329,8.61,8.61,0,0,0-1.124.059,13.982,13.982,0,0,0-3.625.992c-.87.349-1.781.775-2.746,1.273s-1.989,1.065-3.081,1.695l-1.029.607-2.143,1.269-1.115.666c-1.649.992-3.426,2.161-5.438,3.312v8.156c2.238,1.486,4.287,2.927,6.262,4.318,5.619,3.965,10.055,7.1,13.286,7.055a4.257,4.257,0,0,0,4.391-3.109,4.373,4.373,0,0,1,2.152-2.719c2.565-1.482,7.132-1.278,10.667.349h0c-.281.063-.589.118-.906.168l-.195.032c-.349.05-.711.1-1.11.127s-.933.1-1.4.177c-.313.05-.625.113-.906.186-1.649.4-3.022,1.106-3.063,2.175h0v8.156c-.077,1.9,4.7,4.182,11.328,7.341,2.084.992,4.432,2.116,6.865,3.34h0v-63.1Z" transform="translate(-146.806 -251.716)" opacity="0.1"/>
        <path id="Path_156658" data-name="Path 156658" d="M176.75,337.258c-2.021-.965-3.838-1.813-5.415-2.633a10,10,0,0,0,4.137-1.088,2.554,2.554,0,0,0,1.482-2.338h0v-7.821c.14-1.314-.879-2.828-2.95-4.019-3.276-1.894-7.948-2.266-10.422-.852a3.838,3.838,0,0,0-1.9,2.433c-.39,1.618-2,3.516-5.265,3.562-3.67.05-8.007-3.009-14.006-7.25-1.962-1.382-4-2.814-6.208-4.282q-2.916,1.672-5.655,3.172c-6.928,3.861-12.4,6.91-12.325,8.913v8.156c.063,1.554,2.941,2.338,5.388,2.533a16.061,16.061,0,0,1,2.238.335c-3.539,1.622-8.1,1.813-10.662.344a4.368,4.368,0,0,1-2.152-2.719,4.274,4.274,0,0,0-4.4-3.108c-3.4-.045-7.558,2.451-13.852,6.235-1.758,1.056-3.743,2.266-5.918,3.507V348.5c1.776.906,3.494,1.736,5.1,2.528,2.746,1.359,5.161,2.538,7.15,3.625l-.263.023a10.091,10.091,0,0,0-4.219,1.1,2.608,2.608,0,0,0-1.482,2.2h0v8.22h0c0,1.251,1.024,2.642,2.954,3.761,3.276,1.89,7.948,2.266,10.422.852a3.87,3.87,0,0,0,1.894-2.433c.39-1.618,2-3.516,5.265-3.562,3.756-.05,8.51,2.886,15.089,6.951,1.885,1.165,4.015,2.479,6.28,3.824l1.4-.807c8.61-4.962,15.406-8.886,15.325-11.3v-8.156c-.063-1.559-2.941-2.338-5.388-2.533a16.057,16.057,0,0,1-2.238-.335c3.539-1.622,8.1-1.813,10.662-.344a4.359,4.359,0,0,1,2.152,2.719,4.277,4.277,0,0,0,4.391,3.108c4.114.054,9.439-3.031,18.257-8.134l1.894-1.1v-8.156C181.128,339.351,178.808,338.241,176.75,337.258Z" transform="translate(-88.865 -285.184)" fill="#a9a9a9"/>
        <path id="Path_156659" data-name="Path 156659" d="M160.023,350.228a14.06,14.06,0,0,1-10.553,1.359h0a13.8,13.8,0,0,0,9.516-.847,16.112,16.112,0,0,0-2.238-.331c-2.447-.195-5.324-.974-5.388-2.533V339.72c.063,1.554,2.941,2.338,5.388,2.538a11.6,11.6,0,0,1,4.744,1.214C164.315,345.1,163.653,348.13,160.023,350.228Z" transform="translate(-122.006 -299.813)" fill="#a9a9a9"/>
        <path id="Path_156660" data-name="Path 156660" d="M138.653,409.382v8.156c-.217,0-.453-.027-.653-.023-3.263.045-4.871,1.944-5.261,3.557a3.865,3.865,0,0,1-1.9,2.433,5.741,5.741,0,0,1-1.151.485v-8.156a5.381,5.381,0,0,0,1.16-.489,3.861,3.861,0,0,0,1.9-2.438c.39-1.613,2-3.512,5.265-3.557a6.1,6.1,0,0,1,.639.032Z" transform="translate(-111.189 -337.891)" fill="#a9a9a9"/>
        <path id="Path_156661" data-name="Path 156661" d="M211.935,406.56v8.116c.1,2.415-6.715,6.344-15.325,11.3l-1.4.807v-8.156l1.4-.807C205.156,412.886,211.926,408.98,211.935,406.56Z" transform="translate(-147.019 -336.365)" fill="#a9a9a9"/>
        <path id="Path_156662" data-name="Path 156662" d="M257.109,342.11c.077-1.885,3.367-2.814,6.163-3.04a9.973,9.973,0,0,0,4.219-1.1,2.669,2.669,0,0,0,1.473-1.953V343.8h0a2.585,2.585,0,0,1-1.477,2.338,9.983,9.983,0,0,1-4.142,1.088C259.411,345.228,257.059,343.651,257.109,342.11Z" transform="translate(-180.87 -297.789)" fill="#ebebeb"/>
        <path id="Path_156663" data-name="Path 156663" d="M247.564,373.84V382l-1.894,1.1c-8.818,5.107-14.147,8.2-18.257,8.156a4.284,4.284,0,0,1-4.391-3.113,4.368,4.368,0,0,0-2.152-2.719c-2.565-1.477-7.123-1.278-10.662.344a9.032,9.032,0,0,1-2.492-.906c-2.814-1.622-2.152-4.649,1.477-6.747s8.872-2.479,11.686-.852a4.346,4.346,0,0,1,2.152,2.719,4.281,4.281,0,0,0,4.4,3.113c4.11.054,9.434-3.031,18.252-8.156Z" transform="translate(-152.904 -318.472)" fill="#a9a9a9"/>
        <path id="Path_156664" data-name="Path 156664" d="M181.621,341.66c-8.818,5.107-14.142,8.193-18.252,8.156a4.253,4.253,0,0,1-4.391-3.108,4.377,4.377,0,0,0-2.157-2.719c-2.814-1.627-8.057-1.242-11.686.852s-4.291,5.12-1.477,6.747a11.352,11.352,0,0,0,4.731,1.246c2.465.2,5.333.942,5.388,2.5.1,2.415-6.711,6.344-15.325,11.3l-1.4.807c-2.266-1.359-4.4-2.66-6.285-3.824-6.575-4.078-11.328-7-15.085-6.951-3.263.045-4.876,1.944-5.265,3.557a3.861,3.861,0,0,1-1.9,2.438c-2.461,1.418-7.132,1.038-10.422-.852s-3.942-4.59-1.477-6.013a10.231,10.231,0,0,1,4.214-1.1c2.8-.222,6.09-1.151,6.167-3.041.1-2.311-5.129-4.88-13.041-8.764-1.609-.793-3.326-1.636-5.1-2.533,2.175-1.26,4.16-2.451,5.918-3.507,6.294-3.784,10.449-6.28,13.852-6.235a4.258,4.258,0,0,1,4.4,3.108,4.368,4.368,0,0,0,2.152,2.719c2.814,1.622,8.057,1.242,11.686-.852s4.3-5.111,1.482-6.743a11.351,11.351,0,0,0-4.731-1.246c-2.465-.2-5.324-.979-5.388-2.533-.077-2,5.4-5.052,12.325-8.913,1.813-1.015,3.711-2.071,5.655-3.172,2.211,1.468,4.246,2.9,6.208,4.282,6,4.237,10.336,7.3,14.006,7.25,3.263-.045,4.876-1.944,5.265-3.562a3.838,3.838,0,0,1,1.9-2.433c2.46-1.423,7.132-1.042,10.422.852s3.938,4.59,1.477,6.009a10.163,10.163,0,0,1-4.219,1.1c-2.8.227-6.086,1.156-6.163,3.041-.086,2.157,4.581,4.386,11.646,7.753,2.057.983,4.377,2.093,6.774,3.294Z" transform="translate(-88.86 -285.195)" fill="#0b1b60"/>
        <path id="Path_156665" data-name="Path 156665" d="M136.209,313.378c2.107,1.4,4.046,2.764,6.013,4.151,6.013,4.246,10.359,7.309,14.124,7.309h.1c3.471-.045,5.193-2.1,5.614-3.838a3.494,3.494,0,0,1,1.726-2.2,7.477,7.477,0,0,1,3.688-.811,13.25,13.25,0,0,1,6.344,1.663c1.745,1.006,2.782,2.3,2.782,3.457a2.251,2.251,0,0,1-1.305,1.921,9.718,9.718,0,0,1-4.078,1.047c-3.086.249-6.412,1.269-6.5,3.389-.1,2.4,4.4,4.531,11.854,8.1,1.663.793,3.892,1.858,6.163,2.986l-1.31.761h-.036c-8.691,5.034-13.934,8.07-17.926,8.07h-.1a3.923,3.923,0,0,1-4.042-2.832,4.731,4.731,0,0,0-2.329-2.964,9.47,9.47,0,0,0-4.685-1.056,15.169,15.169,0,0,0-7.362,1.907c-2.167,1.251-3.4,2.878-3.4,4.464a3.409,3.409,0,0,0,1.926,2.918,11.6,11.6,0,0,0,4.885,1.291c2.4.19,4.984.956,5.052,2.184.086,2.2-6.969,6.262-15.144,10.97l-1.214.7c-2.121-1.26-4.078-2.479-6.095-3.716-6.579-4.078-11.328-7.005-15.18-7.005h-.1c-3.476.045-5.2,2.094-5.614,3.838a3.521,3.521,0,0,1-1.726,2.2,7.477,7.477,0,0,1-3.688.811,13.25,13.25,0,0,1-6.344-1.663c-1.745-1.006-2.782-2.3-2.782-3.462a2.245,2.245,0,0,1,1.305-1.917A9.677,9.677,0,0,1,100.892,355c3.086-.245,6.412-1.264,6.5-3.385.1-2.551-4.921-5.021-13.241-9.108-1.359-.662-2.9-1.423-4.5-2.229,2.007-1.169,3.843-2.266,5.356-3.172,6.19-3.716,10.277-6.172,13.558-6.172h.086a3.923,3.923,0,0,1,4.046,2.832,4.7,4.7,0,0,0,2.325,2.959,9.42,9.42,0,0,0,4.685,1.056,15.153,15.153,0,0,0,7.368-1.908c2.161-1.246,3.4-2.873,3.4-4.463a3.4,3.4,0,0,0-1.926-2.914,11.591,11.591,0,0,0-4.88-1.291c-2.4-.19-5.007-.961-5.057-2.189-.068-1.776,5.854-5.075,12.144-8.578,1.813-1.015,3.625-2.016,5.46-3.072m0-.43q-2.916,1.672-5.655,3.172c-6.928,3.861-12.4,6.91-12.325,8.913.063,1.554,2.941,2.338,5.388,2.533a11.277,11.277,0,0,1,4.731,1.26c2.814,1.622,2.152,4.649-1.477,6.747a14.854,14.854,0,0,1-7.182,1.858,9.158,9.158,0,0,1-4.5-1.006,4.368,4.368,0,0,1-2.152-2.719,4.274,4.274,0,0,0-4.4-3.108h-.091c-3.385,0-7.522,2.488-13.762,6.24-1.758,1.056-3.743,2.266-5.918,3.507,1.776.906,3.494,1.74,5.1,2.533,7.912,3.883,13.141,6.453,13.041,8.764-.077,1.89-3.371,2.818-6.167,3.04a10.086,10.086,0,0,0-4.214,1.1c-2.465,1.423-1.813,4.119,1.477,6.013a13.554,13.554,0,0,0,6.539,1.708,7.871,7.871,0,0,0,3.87-.856,3.861,3.861,0,0,0,1.9-2.438c.39-1.613,2-3.512,5.265-3.557h.1c3.743,0,8.469,2.918,14.99,6.951,1.885,1.165,4.015,2.479,6.285,3.824l1.4-.807c8.609-4.962,15.406-8.886,15.325-11.3-.063-1.559-2.941-2.338-5.388-2.533a11.3,11.3,0,0,1-4.731-1.246c-2.814-1.627-2.152-4.654,1.477-6.747a14.867,14.867,0,0,1,7.182-1.858,9.157,9.157,0,0,1,4.5,1.006,4.377,4.377,0,0,1,2.157,2.719,4.269,4.269,0,0,0,4.391,3.108h.109c4.078,0,9.407-3.077,18.125-8.156l1.9-1.1c-2.4-1.2-4.717-2.311-6.774-3.294-7.064-3.367-11.732-5.6-11.645-7.753.077-1.885,3.367-2.814,6.163-3.04a9.951,9.951,0,0,0,4.219-1.1c2.461-1.418,1.813-4.119-1.477-6.009a13.557,13.557,0,0,0-6.539-1.713,7.871,7.871,0,0,0-3.87.861,3.838,3.838,0,0,0-1.9,2.433c-.39,1.618-2,3.516-5.265,3.562h-.091c-3.648,0-7.962-3.045-13.916-7.25-1.962-1.382-4-2.814-6.208-4.282Z" transform="translate(-88.865 -285.156)" fill="#ebebeb"/>
        <path id="Path_156666" data-name="Path 156666" d="M194.79,279.106c1.989-1.151,3.766-2.32,5.438-3.312,1.545-.906,2.968-1.776,4.287-2.542,4.368-2.519,7.64-4.078,10.59-4.019,3.263.045,4.876,1.944,5.265,3.557a3.861,3.861,0,0,0,1.9,2.438c2.461,1.418,7.132,1.038,10.422-.856s3.942-4.586,1.477-6.009a10.163,10.163,0,0,0-4.219-1.1c-2.8-.222-6.086-1.155-6.163-3.041-.091-2.2,5.1-5.089,12.289-9.063,1.962-1.092,4-2.22,6.14-3.453h0l1.844,1.219c7.921,5.256,13.644,9.063,18.125,8.99,3.267-.045,4.88-1.944,5.265-3.562a3.865,3.865,0,0,1,1.9-2.433c2.461-1.423,7.132-1.042,10.422.852s3.938,4.59,1.473,6.013a10.181,10.181,0,0,1-4.219,1.092c-2.791.227-6.086,1.155-6.163,3.04-.1,2.6,6.942,6.715,18.37,12.5-3.072,1.79-5.75,3.5-8.125,5.021-5.22,3.34-8.99,5.755-11.976,5.714a4.257,4.257,0,0,1-4.391-3.108,4.377,4.377,0,0,0-2.157-2.719c-2.814-1.627-8.057-1.242-11.686.852s-4.291,5.125-1.477,6.747a11.352,11.352,0,0,0,4.731,1.246c2.465.2,5.324.979,5.388,2.533.072,1.749-3.888,3.815-9.366,6.679-2.361,1.233-5.021,2.628-7.812,4.223h0l-.181.122h0c-2.433-1.223-4.785-2.347-6.865-3.34-6.616-3.172-11.4-5.438-11.328-7.341.059-1.559,2.936-2.338,5.388-2.538a11.366,11.366,0,0,0,4.731-1.242c2.814-1.627,2.152-4.654-1.477-6.747s-8.872-2.479-11.686-.852a4.35,4.35,0,0,0-2.152,2.719,4.277,4.277,0,0,1-4.4,3.113c-3.226.041-7.667-3.09-13.286-7.055C199.077,282.034,197.028,280.588,194.79,279.106Z" transform="translate(-146.79 -251.683)" fill="#596dc2"/>
        <path id="Path_156667" data-name="Path 156667" d="M242.132,252.089,243.8,253.2c7.916,5.247,13.635,9.04,18.216,9.04h.109c3.48-.045,5.2-2.1,5.614-3.838a3.494,3.494,0,0,1,1.726-2.2,7.477,7.477,0,0,1,3.689-.811,13.249,13.249,0,0,1,6.344,1.663c1.745,1.006,2.782,2.3,2.782,3.457a2.246,2.246,0,0,1-1.3,1.921,9.7,9.7,0,0,1-4.078,1.047c-3.086.249-6.412,1.269-6.5,3.389-.113,2.773,6.493,6.706,17.971,12.534-2.846,1.677-5.342,3.272-7.558,4.69-5.134,3.285-8.841,5.66-11.709,5.66h-.068a3.922,3.922,0,0,1-4.042-2.832,4.717,4.717,0,0,0-2.325-2.959,9.452,9.452,0,0,0-4.69-1.06,15.17,15.17,0,0,0-7.362,1.907c-2.163,1.251-3.4,2.878-3.4,4.469a3.4,3.4,0,0,0,1.926,2.914,11.956,11.956,0,0,0,4.885,1.291c2.4.19,4.984.956,5.052,2.189.063,1.513-4.219,3.747-9.171,6.344-2.044,1.065-4.821,2.519-7.658,4.133h-.032l-.172.113h0c-2.456-1.233-4.889-2.393-6.688-3.249-5.995-2.864-11.17-5.333-11.106-7,.05-1.228,2.655-1.994,5.052-2.189a11.44,11.44,0,0,0,4.885-1.291,3.4,3.4,0,0,0,1.926-2.914c0-1.586-1.237-3.213-3.4-4.463a15.126,15.126,0,0,0-7.368-1.908,9.416,9.416,0,0,0-4.658,1.047,4.717,4.717,0,0,0-2.329,2.964,3.915,3.915,0,0,1-4.042,2.828h-.063c-3.1,0-7.477-3.081-13.009-6.983-1.731-1.223-3.675-2.6-5.782-4.006,1.006-.594,1.948-1.183,2.868-1.754.711-.453,1.387-.87,2.048-1.264,1.518-.906,2.954-1.772,4.278-2.538,4.25-2.451,7.454-3.974,10.3-3.974h.109c3.054.041,4.559,1.813,4.917,3.281a4.219,4.219,0,0,0,2.071,2.664,8.184,8.184,0,0,0,4.051.906,13.843,13.843,0,0,0,6.724-1.763c2-1.155,3.145-2.646,3.145-4.078a2.968,2.968,0,0,0-1.672-2.551,10.445,10.445,0,0,0-4.368-1.142c-2.859-.231-5.768-1.151-5.827-2.692-.082-1.98,5.293-4.984,12.1-8.745,1.813-.992,3.815-2.116,5.95-3.344m0-.426c-2.143,1.233-4.178,2.361-6.14,3.453-7.187,3.988-12.38,6.874-12.289,9.063.077,1.885,3.367,2.818,6.163,3.04a10.021,10.021,0,0,1,4.219,1.1c2.465,1.423,1.813,4.119-1.477,6.009a13.508,13.508,0,0,1-6.539,1.713,7.921,7.921,0,0,1-3.87-.856,3.861,3.861,0,0,1-1.9-2.438c-.39-1.613-2-3.512-5.265-3.557h-.113c-2.923,0-6.167,1.532-10.476,4.019-1.319.766-2.719,1.618-4.287,2.542-1.649.992-3.426,2.161-5.438,3.312,2.238,1.482,4.287,2.927,6.262,4.318,5.583,3.938,10,7.055,13.218,7.055h.068a4.261,4.261,0,0,0,4.4-3.113,4.35,4.35,0,0,1,2.152-2.719,9.149,9.149,0,0,1,4.5-1.01,14.827,14.827,0,0,1,7.187,1.862c3.625,2.093,4.291,5.12,1.477,6.747a11.368,11.368,0,0,1-4.731,1.242c-2.465.2-5.329.979-5.388,2.538-.077,1.9,4.7,4.182,11.328,7.341,2.08.992,4.432,2.116,6.865,3.34h0l.181-.122h0c2.791-1.6,5.438-2.991,7.812-4.223,5.478-2.864,9.439-4.93,9.366-6.679-.063-1.554-2.941-2.338-5.388-2.533a11.3,11.3,0,0,1-4.731-1.246c-2.814-1.622-2.152-4.649,1.477-6.747a14.882,14.882,0,0,1,7.182-1.858,9.158,9.158,0,0,1,4.5,1.006,4.377,4.377,0,0,1,2.157,2.719,4.273,4.273,0,0,0,4.391,3.108h.073c2.973,0,6.729-2.4,11.9-5.714,2.374-1.518,5.052-3.231,8.125-5.021-11.428-5.782-18.474-9.9-18.37-12.5.077-1.885,3.371-2.814,6.163-3.04a10.038,10.038,0,0,0,4.219-1.092c2.465-1.423,1.813-4.119-1.473-6.013A13.594,13.594,0,0,0,273.113,255a7.871,7.871,0,0,0-3.87.861,3.865,3.865,0,0,0-1.9,2.433c-.385,1.618-2,3.516-5.265,3.562h-.1c-4.472,0-10.168-3.779-18.026-8.99L242.1,251.65Z" transform="translate(-146.757 -251.65)" fill="#ebebeb"/>
      </g>
    </g>
    <g id="freepik--briefcase-2--inject-27" transform="translate(186.115 143.485)">
      <g id="freepik--Briefcase--inject-27">
        <path id="Path_156668" data-name="Path 156668" d="M393.78,305.051v20.731c0,1,.707,1.586,1.577,2.093l2.18,1.26a2.08,2.08,0,0,0,1.7.335,4.654,4.654,0,0,0,1.165-.476.14.14,0,0,0,.045-.023l.118-.068,22.258-12.855a5.252,5.252,0,0,0,2.628-4.531v-18.9a1.486,1.486,0,0,0-.68-1.169l-3.7-2.148a1.509,1.509,0,0,0-1.359,0l-25.253,14.582a1.359,1.359,0,0,0-.453.5A1.391,1.391,0,0,0,393.78,305.051Z" transform="translate(-393.78 -289.143)" fill="#37474f"/>
        <path id="Path_156669" data-name="Path 156669" d="M393.78,323.452v20.731c0,1,.707,1.586,1.577,2.093l2.18,1.26a2.08,2.08,0,0,0,1.7.335,4.653,4.653,0,0,0,1.165-.476h0c-.87.408-1.554-.045-1.554-1.074V326.782a2.093,2.093,0,0,1,.3-1.01l-5.166-2.982A1.391,1.391,0,0,0,393.78,323.452Z" transform="translate(-393.78 -307.543)" fill="#263238"/>
        <path id="Path_156670" data-name="Path 156670" d="M404.995,312.552a2.266,2.266,0,0,1,1.024-1.772L429.885,297c.943-.544,1.713-.1,1.713.992v17.672a5.257,5.257,0,0,1-2.628,4.554l-22.262,12.855c-.943.544-1.717.1-1.717-.992Z" transform="translate(-399.91 -293.314)" fill="#455a64"/>
        <path id="Path_156671" data-name="Path 156671" d="M424.687,291l-25.294,14.749a2.37,2.37,0,0,0-1.174,2.044v21.3l.385.222v-21.5a1.989,1.989,0,0,1,.983-1.713l25.484-14.858Z" transform="translate(-396.208 -290.159)" fill="#39709f"/>
        <path id="Path_156672" data-name="Path 156672" d="M398.533,325.5a2.4,2.4,0,0,0-.313,1.178v21.3l.385.222V326.678a1.993,1.993,0,0,1,.263-.983Z" transform="translate(-396.208 -309.025)" opacity="0.2"/>
        <path id="Path_156673" data-name="Path 156673" d="M399.245,306.85a1.953,1.953,0,0,1,.72-.73l25.484-14.858-.385-.222-25.294,14.749a2.388,2.388,0,0,0-.861.865" transform="translate(-396.585 -290.18)" opacity="0.2"/>
        <path id="Path_156674" data-name="Path 156674" d="M436.8,296.211v3.226l1.255.725V295.9c0-.222-.15-.308-.344-.2Z" transform="translate(-417.306 -292.705)" fill="#39709f"/>
        <path id="Path_156675" data-name="Path 156675" d="M436.8,296.211v3.226l1.255.725V295.9c0-.222-.15-.308-.344-.2Z" transform="translate(-417.306 -292.705)" opacity="0.4"/>
        <path id="Path_156676" data-name="Path 156676" d="M417.35,296.788v5.193l1.2.693.8-.453v-4.259a.77.77,0,0,1,.344-.594l6.1-3.539,1.269-.734c.195-.109.344-.023.344.2v4.259l.811-.453v-5.207a.351.351,0,0,0,0-.068.743.743,0,0,0-.34-.526l-.508-.3a.766.766,0,0,0-.689,0l-8.99,5.193A.757.757,0,0,0,417.35,296.788Z" transform="translate(-406.67 -290.115)" fill="#39709f"/>
        <path id="Path_156677" data-name="Path 156677" d="M420,298.362v5.193l.8-.453v-4.259a.77.77,0,0,1,.344-.594l6.1-3.539,1.269-.734c.195-.109.344-.023.344.2v4.259l.811-.453v-5.207a.349.349,0,0,0,0-.068c-.027-.168-.168-.227-.34-.131l-8.99,5.193a.766.766,0,0,0-.344.594Z" transform="translate(-408.119 -290.995)" opacity="0.2"/>
      </g>
    </g>
    <g id="freepik--briefcase-1--inject-27" transform="translate(24.696 143.456)">
      <g id="freepik--briefcase--inject-27-2" data-name="freepik--briefcase--inject-27">
        <path id="Path_156678" data-name="Path 156678" d="M58.192,302.211H57v-5.524a4.441,4.441,0,0,1,2.039-3.534l6.457-3.729a1.622,1.622,0,0,1,2.6,1.541l-.113,5.61-1.205-.023.113-5.614a.684.684,0,0,0-.186-.594c-.118-.073-.353-.023-.607.127l-6.471,3.725a3.235,3.235,0,0,0-1.436,2.492Z" transform="translate(-48.187 -289.078)" fill="#37474f"/>
        <path id="Path_156679" data-name="Path 156679" d="M69.913,316.784,68.622,292.99a2.1,2.1,0,0,0-.938-1.523l-.743-.43a.634.634,0,0,0-.657-.05h0L41.42,305.338,44.855,331.7,69.7,317.35h0a.6.6,0,0,0,.208-.566Z" transform="translate(-39.666 -290.084)" fill="#37474f"/>
        <path id="Path_156680" data-name="Path 156680" d="M38.379,346.762l3.752,2.166c.489.281.861.054.829-.508l-1.291-23.794a2.107,2.107,0,0,0-.938-1.527l-.743-.43a.571.571,0,0,0-.933.507l-1.5,22.059a1.84,1.84,0,0,0,.829,1.527Z" transform="translate(-37.55 -307.375)" fill="#263238"/>
        <path id="Path_156681" data-name="Path 156681" d="M67.056,350.726a.344.344,0,0,1-.34-.317l-.657-11.152a.34.34,0,0,1,.317-.358.344.344,0,0,1,.363.322l.653,11.124a.34.34,0,0,1-.317.358Z" transform="translate(-53.141 -316.324)" fill="#39709f"/>
        <path id="Path_156682" data-name="Path 156682" d="M88.076,338.606a.34.34,0,0,1-.34-.322l-.657-11.147a.335.335,0,0,1,.317-.358.34.34,0,0,1,.358.317l.648,11.147a.34.34,0,0,1-.317.363Z" transform="translate(-64.635 -309.695)" fill="#39709f"/>
        <path id="Path_156683" data-name="Path 156683" d="M47.069,318.3a1.812,1.812,0,0,1-2.719-1.459l-.512-9.516A2.1,2.1,0,0,0,42.9,305.8l-.739-.426a.662.662,0,0,0-.607-.082L66.336,290.98h0a.607.607,0,0,1,.653.045l.748.43a2.12,2.12,0,0,1,.938,1.527l.5,9.4a4.984,4.984,0,0,1-2.479,4.586Z" transform="translate(-39.737 -290.078)" fill="#455a64"/>
        <path id="Path_156684" data-name="Path 156684" d="M72.93,335.38l3.6-2.08.154,1.994-3.611,2.089Z" transform="translate(-56.898 -313.262)" fill="#39709f"/>
      </g>
    </g>
    <g id="freepik--Characters--inject-27" transform="translate(62.092 22.793)">
      <g id="freepik--characters--inject-27-2" data-name="freepik--characters--inject-27">
        <g id="freepik--Chartacter--inject-27" transform="translate(56.23)">
          <g id="freepik--Bottom--inject-27" transform="translate(12.926 54.692)">
            <path id="Path_156685" data-name="Path 156685" d="M304.85,276.949l.73-6.829-7.812.517s.118,3.707.227,5.8c.068,1.242-1.6,3.543-1.6,3.543s3.67,1.967,5.637,1.278a5.192,5.192,0,0,0,2.982-3.67C304.981,277.053,304.85,276.949,304.85,276.949Z" transform="translate(-285.653 -212.74)" fill="#b16668"/>
            <path id="Path_156686" data-name="Path 156686" d="M273.37,303.377a1.689,1.689,0,0,0,.331,1.813,8.694,8.694,0,0,0,6.018,1.391,10.906,10.906,0,0,0,5.859-2.071c1.219-.915,2.914-2.216,4.278-2.474a8.518,8.518,0,0,0,3.05-1.106c.408-.358.381-1.98.381-1.98Z" transform="translate(-272.992 -228.506)" fill="#263238"/>
            <path id="Path_156687" data-name="Path 156687" d="M291.92,285.16a.476.476,0,0,1,.453.385c.086.453.163,1.749.349,2.483a12.353,12.353,0,0,1,.231,3.942c-.177.829-2.243,1.359-3.562,1.813a16.965,16.965,0,0,0-4.291,2.442,12.485,12.485,0,0,1-6.344,2.093c-2.316-.054-4.9-.8-5.487-1.813-.716-1.251-1.233-2.719,2.22-4.133.657-.267,2.954-1.491,3.738-1.935,2.121-1.205,3.625-2.315,4.622-4.491a1.233,1.233,0,0,1,.5-.662,1.16,1.16,0,0,1,.671-.041,23.647,23.647,0,0,1,3.358.657c.517.24,1.106.453,1.088,1.015a1.739,1.739,0,0,1-.141.557c-.041.113-.077.258.027.331s.231,0,.322-.082a8.345,8.345,0,0,0,.943-1.02,3.1,3.1,0,0,1,.553-.508,5.046,5.046,0,0,0,.589-.349C291.951,285.658,291.892,285.418,291.92,285.16Z" transform="translate(-272.723 -220.965)" fill="#455a64"/>
            <path id="Path_156688" data-name="Path 156688" d="M285.068,304.554a21.869,21.869,0,0,1,1.89-1.273h0s-4.078,2.225-5.682,1.155a1.308,1.308,0,0,1-.494-1.754c.032-.258-3.648-2.161-4.663-2.293h0c-.29.141-.53.258-.68.317-3.453,1.427-2.936,2.882-2.22,4.133.585,1.015,2.456,1.813,5.438,1.88A12.929,12.929,0,0,0,285.068,304.554Z" transform="translate(-272.696 -229.293)" fill="#37474f"/>
            <path id="Path_156689" data-name="Path 156689" d="M289.556,293.593c-2.148.761-1.242,1.151-.648,1.242s4.219-1.813,6.43-3.394c2.311-1.649,3.779-3.471,4.64-4.078.317-.227.662-.5.97-.766-.05-.453-.086-.838-.127-1.051a.476.476,0,0,0-.453-.385c0,.258.032.5-.181.689a5.036,5.036,0,0,1-.589.349,3.1,3.1,0,0,0-.553.508,8.353,8.353,0,0,1-.942,1.02A27.483,27.483,0,0,1,289.556,293.593Z" transform="translate(-281.175 -220.965)" fill="#37474f"/>
            <path id="Path_156690" data-name="Path 156690" d="M284.085,302.74a.2.2,0,0,0,.131-.045.186.186,0,0,0,.036-.276c-.589-.7-3.417-2.383-4.984-2.266a.2.2,0,0,0,.041.39c1.468-.122,4.151,1.55,4.617,2.1A.222.222,0,0,0,284.085,302.74Z" transform="translate(-276.194 -229.161)" fill="#263238"/>
            <path id="Path_156691" data-name="Path 156691" d="M288.206,300.446a.2.2,0,0,0,.136-.041.186.186,0,0,0,.032-.276c-.589-.7-3.412-2.383-4.984-2.266a.195.195,0,0,0-.19.213.2.2,0,0,0,.227.177c1.468-.118,4.151,1.545,4.617,2.1A.217.217,0,0,0,288.206,300.446Z" transform="translate(-278.439 -227.908)" fill="#263238"/>
            <path id="Path_156692" data-name="Path 156692" d="M292.346,298.28a.222.222,0,0,0,.136-.045.186.186,0,0,0,.032-.276c-.589-.7-3.417-2.383-4.984-2.266a.195.195,0,0,0-.19.213.2.2,0,0,0,.227.181c1.468-.122,4.151,1.545,4.617,2.1A.222.222,0,0,0,292.346,298.28Z" transform="translate(-280.703 -226.722)" fill="#263238"/>
            <path id="Path_156693" data-name="Path 156693" d="M296.21,295.79a.213.213,0,0,0,.136-.045.19.19,0,0,0,.036-.276c-.594-.7-3.421-2.383-4.984-2.266a.2.2,0,0,0,.041.39c1.464-.118,4.146,1.55,4.617,2.1A.222.222,0,0,0,296.21,295.79Z" transform="translate(-282.827 -225.36)" fill="#263238"/>
            <path id="Path_156694" data-name="Path 156694" d="M299.525,293.291a.2.2,0,0,0,.131-.041.19.19,0,0,0,.041-.276,8.631,8.631,0,0,0-5.347-2.266.2.2,0,0,0-.19.213.208.208,0,0,0,.231.181,8.478,8.478,0,0,1,4.984,2.121.218.218,0,0,0,.15.068Z" transform="translate(-284.433 -223.994)" fill="#263238"/>
            <path id="Path_156695" data-name="Path 156695" d="M339.215,286.66l-1.015-6.616,8.043-.295-.376,6.258s.58,2.32,0,3.081-5.941,1.065-6.367.476S339.215,286.66,339.215,286.66Z" transform="translate(-308.518 -218.006)" fill="#b16668"/>
            <path id="Path_156696" data-name="Path 156696" d="M338.59,323.448a8.076,8.076,0,0,0,1.056,4.531,3.43,3.43,0,0,0,3.847,1.142c1.581-.376,3.625-1.359,4.164-3.095a9.853,9.853,0,0,0,.267-4.817Z" transform="translate(-308.731 -240.679)" fill="#263238"/>
            <path id="Path_156697" data-name="Path 156697" d="M346.067,293.56c.639.036.19,2.755.412,5.465.236,2.909,1.16,4.078,1.387,6.48.254,2.719.023,3.947-1.155,5.614s-5.116,3.362-6.883,1.033c-1.441-1.9-1.387-4.037-1.1-6.765a61.765,61.765,0,0,0,.521-6.942c0-2.044-.412-3.9.159-4.137.027.3.045.68.077.974,0,.227.027,1.332.385,1.332a3.958,3.958,0,0,0,.05-.77.875.875,0,0,1,.213-.662,2.932,2.932,0,0,1,1.074-.412c.639-.122,1.767-.24,2.415-.3.317-.027.639-.05.961-.05a2.686,2.686,0,0,1,.811.086.5.5,0,0,1,.331.272.78.78,0,0,1,0,.308,1.811,1.811,0,0,0,.05.562c0,.082.077.177.168.154a.159.159,0,0,0,.113-.168c.023-.326,0-.566,0-.947v-.6C346.058,293.909,346.072,293.759,346.067,293.56Z" transform="translate(-308.718 -225.558)" fill="#455a64"/>
            <path id="Path_156698" data-name="Path 156698" d="M347.765,318.21c.041.394.276,3-.557,3.48s-1.269-1.518-1.269-1.518a8.906,8.906,0,0,0-5.061.689c.127.421-.408,1.813-1.21,1.545s-.956-3.263-.956-3.3c-.267,2.615-.276,4.685,1.119,6.53,1.767,2.329,5.709.639,6.883-1.033s1.409-2.891,1.155-5.614A7.8,7.8,0,0,0,347.765,318.21Z" transform="translate(-308.721 -239.039)" fill="#37474f"/>
            <path id="Path_156699" data-name="Path 156699" d="M354.277,306.873c-.041.983,1.088.63,1.21-.761s-.562-4.69-.421-7.087c.159-3.294.227-5.438-.412-5.465v1.464a5.085,5.085,0,0,1,0,.589c-.1,2.016-.453,5.891-.376,7.744A27.686,27.686,0,0,1,354.277,306.873Z" transform="translate(-317.304 -225.558)" fill="#37474f"/>
            <path id="Path_156700" data-name="Path 156700" d="M341.776,308.272a27.587,27.587,0,0,1-.421-3.448c-.122-1.813-.82-5.515-1.146-7.495a4.186,4.186,0,0,1-.163-1.119c-.027-.276-.05-.621-.073-.906v-.063c-.412.181-.453,1.745-.317,2.569s.285,1.708.421,2.891c.426,2.338.131,5.75.421,7.1S341.935,309.233,341.776,308.272Z" transform="translate(-309.276 -226.477)" fill="#37474f"/>
            <path id="Path_156701" data-name="Path 156701" d="M343.225,322.873a.319.319,0,0,0,.086-.027,8.763,8.763,0,0,1,4.984-.539.258.258,0,0,0,.3-.154.19.19,0,0,0-.154-.254,9.208,9.208,0,0,0-5.315.58.213.213,0,0,0-.118.286A.236.236,0,0,0,343.225,322.873Z" transform="translate(-311.137 -240.969)" fill="#263238"/>
            <path id="Path_156702" data-name="Path 156702" d="M342.248,318.111h.082a10.794,10.794,0,0,1,5.546-.625.263.263,0,0,0,.295-.163.19.19,0,0,0-.163-.245,11.2,11.2,0,0,0-5.891.639.208.208,0,0,0-.127.281A.231.231,0,0,0,342.248,318.111Z" transform="translate(-310.581 -238.342)" fill="#263238"/>
            <path id="Path_156703" data-name="Path 156703" d="M347.839,312.867a.263.263,0,0,0,.208-.145.19.19,0,0,0-.136-.263,9.413,9.413,0,0,0-5.868.589.208.208,0,0,0-.118.285.249.249,0,0,0,.317.082,9.108,9.108,0,0,1,5.492-.557A.273.273,0,0,0,347.839,312.867Z" transform="translate(-310.544 -235.753)" fill="#263238"/>
            <path id="Path_156704" data-name="Path 156704" d="M347.533,308.588a.259.259,0,0,0,.208-.141.19.19,0,0,0-.127-.267,8.487,8.487,0,0,0-5.99.58.208.208,0,0,0-.1.29.254.254,0,0,0,.326.063,8.061,8.061,0,0,1,5.574-.535A.281.281,0,0,0,347.533,308.588Z" transform="translate(-310.324 -233.39)" fill="#263238"/>
            <path id="Path_156705" data-name="Path 156705" d="M347.3,303.845a.254.254,0,0,0,.208-.14.19.19,0,0,0-.127-.267,9,9,0,0,0-6.031.639.208.208,0,0,0-.1.29.24.24,0,0,0,.322.068,8.559,8.559,0,0,1,5.628-.6.263.263,0,0,0,.1.009Z" transform="translate(-310.173 -230.8)" fill="#263238"/>
            <path id="Path_156706" data-name="Path 156706" d="M321.6,144.9c1.5,15.86,1.305,37.411,1.305,37.411a60.788,60.788,0,0,1,.8,10.01c-.068,6.308-.689,15.352-.689,15.352a8.042,8.042,0,0,1-8.034.453s-2.053-11.451-3.321-20.622c-1.015-7.332-2.855-18.23-2.855-18.23l-1.88,10.563s.317,4.531.24,7.7c-.091,3.684-2.152,17.822-2.152,17.822s-4.11,2.764-7.758,0c0,0-1.083-20.663-1.26-25.09-.353-8.691-.29-25.557-.177-36.785Z" transform="translate(-285.294 -143.49)" fill="#37474f"/>
            <path id="Path_156707" data-name="Path 156707" d="M314.495,181.952l-1.967-12.806s-4.191-.526-6.4-2.5a8.46,8.46,0,0,0,5.415,3.557l1.939,11.781-.87,10.517Z" transform="translate(-290.98 -156.155)" fill="#263238"/>
            <path id="Path_156708" data-name="Path 156708" d="M345.955,285.1c-.97,1.1-4.885,1.93-7.853.575l-.363-2.474a10.6,10.6,0,0,0,8.41-.757Z" transform="translate(-308.266 -219.477)" fill="#263238"/>
            <path id="Path_156709" data-name="Path 156709" d="M306.628,277.765c-1.038,1.029-4.935,1.6-7.835.032l-.163-2.5a10.347,10.347,0,0,0,8.338-.1Z" transform="translate(-286.878 -215.518)" fill="#263238"/>
          </g>
          <g id="freepik--Top--inject-27">
            <path id="Path_156710" data-name="Path 156710" d="M260.741,97.155s-10.1,9.063-11.781,10.241-4.79,3.077-4.79,3.077l1.051.571s3.367,3.834,5.551,2.479a15.346,15.346,0,0,0,1.518-.992c.657-.521,1.124-1.051,1.627-1.477a20.179,20.179,0,0,1,2.678-1.849c4.984-3.027,8.075-5.333,9.969-6.5s2.152-2.316,3.548-4.7c2.37-4.078,4.984-10.069,4.984-10.069L272.323,75.74c-4.033,1.024-4.916,3.054-6.978,8.845C262.218,93.448,260.741,97.155,260.741,97.155Z" transform="translate(-244.17 -51.748)" fill="#b16668"/>
            <path id="Path_156711" data-name="Path 156711" d="M282.7,75.28c-2.719.716-4.531,2.1-5.836,5.56s-5.85,15.95-5.85,15.95l-7.794,7.028a7.387,7.387,0,0,1,2.352,1.962,10.322,10.322,0,0,1,1.459,3.172s3.675-2.035,7.382-4.481,3.879-2.492,5.342-4.8,6.108-12.135,6.108-12.135Z" transform="translate(-254.588 -51.496)" fill="#37474f"/>
            <path id="freepik--Chest--inject-27" d="M314.192,72.5c1.64.34,3.625.77,3.625.77,4.146,1.844,4.812,2.125,5.687,2.5a65.319,65.319,0,0,1-.834,14.459,90.8,90.8,0,0,0-.625,9.969c-.045,4.753,0,8.057,0,8.057s-4.028,4.214-15.61,3.344c-9.09-.684-10.617-4.078-10.617-4.078s-.145-12.094.1-18.8c.308-8.8,2.624-13.431,4.586-14.953l5.827-1.169Z" transform="translate(-272.391 -49.976)" fill="#455a64"/>
            <g id="freepik--Head--inject-27" transform="translate(28.652)">
              <path id="Path_156712" data-name="Path 156712" d="M324.983,29.018a3.38,3.38,0,0,0-1.781-1.7c-.335-1.935-2.791-4.25-7.531-4.5-3.888-.208-6.158,1.128-7.513,3.394a7.224,7.224,0,0,0-.453,5.2L321.3,36.059l-.127,2.4-.091,3.448a2.225,2.225,0,0,0,1.287-1.029,18.982,18.982,0,0,0,1.9-4.8C325.5,31.6,325.432,29.879,324.983,29.018Z" transform="translate(-307.407 -22.793)" fill="#263238"/>
              <path id="Path_156713" data-name="Path 156713" d="M324.316,44.338a1.877,1.877,0,0,1-2.6-.544l-.267,7.11c-1.908,2.551-5.252,1.663-7.943,4.844l-.816-.041a7.11,7.11,0,0,1-.068-5.3V48.774a10.981,10.981,0,0,1-1.545-.15c-1.581-.249-2.574-1.509-3.045-3.222a23.725,23.725,0,0,1,0-10.9,2.952,2.952,0,0,1,1.31-2.121c1.9-.938,7.7-1.21,9.18,1.1-.213,1.4.186,2.945,1.473,3.412.036,2.211.349,3.285,1.219,3.625.707.3,1.051-.793,1.541-1.3a1.989,1.989,0,0,1,3.1.711,3.244,3.244,0,0,1-1.536,4.409Z" transform="translate(-307.401 -27.659)" fill="#b16668"/>
              <path id="Path_156714" data-name="Path 156714" d="M318.925,63.839a14.069,14.069,0,0,0,5.143-.784,5.553,5.553,0,0,0,2.664-3.815c0,1.323-.58,3.666-2.433,4.64a12.065,12.065,0,0,1-5.379,1.056Z" transform="translate(-313.7 -42.725)" fill="#9a4a4d"/>
              <path id="Path_156715" data-name="Path 156715" d="M324.46,42.1l1.89.218a1,1,0,0,0-.865-1.078.906.906,0,0,0-1.024.861Z" transform="translate(-316.73 -32.877)" fill="#263238"/>
              <path id="Path_156716" data-name="Path 156716" d="M310.984,40.528l1.79-.707a.906.906,0,0,0-1.214-.557,1.01,1.01,0,0,0-.575,1.264Z" transform="translate(-309.33 -31.762)" fill="#263238"/>
              <path id="Path_156717" data-name="Path 156717" d="M326.02,46.133a.775.775,0,1,1-.747-.8.77.77,0,0,1,.747.8Z" transform="translate(-316.736 -35.118)" fill="#263238"/>
              <path id="Path_156718" data-name="Path 156718" d="M312.48,45.43a.775.775,0,1,1-.748-.8.707.707,0,0,1,.748.8Z" transform="translate(-309.331 -34.733)" fill="#263238"/>
              <path id="Path_156719" data-name="Path 156719" d="M317.079,43.64l-.639,4.935-2.61-.961A11.515,11.515,0,0,1,317.079,43.64Z" transform="translate(-310.917 -34.194)" fill="#9a4a4d"/>
              <path id="Path_156720" data-name="Path 156720" d="M321.486,57l-2.016.666a1.042,1.042,0,0,0,1.323.693A1.11,1.11,0,0,0,321.486,57Z" transform="translate(-314.001 -41.5)" fill="#9a4a4d"/>
              <path id="Path_156721" data-name="Path 156721" d="M322.454,57.752a1.228,1.228,0,0,1,.254,0,1.088,1.088,0,0,1-.734,1.015,1.1,1.1,0,0,1-.34.05A.974.974,0,0,1,322.454,57.752Z" transform="translate(-315.181 -41.907)" fill="#f28f8f"/>
            </g>
            <g id="freepik--Tie--inject-27" transform="translate(30.31 19.898)">
              <path id="Path_156722" data-name="Path 156722" d="M315.331,81.236a11.548,11.548,0,0,1-1.291-3.2L315.5,76.46l.517,3.756Z" transform="translate(-312.689 -72.04)" fill="#263238"/>
              <path id="Path_156723" data-name="Path 156723" d="M321.12,82.625l2.51-1.785,2.152,1.387-3.87,2.075Z" transform="translate(-316.561 -74.436)" fill="#263238"/>
              <path id="Path_156724" data-name="Path 156724" d="M315.913,112.593c.548-5.247-.512-19.571-.408-21.429l-1.3-.1c-.852,2.266-3.09,17.006-3.145,20.613-.023,1.735,1.686,4.8,2.266,4.912S315.8,113.712,315.913,112.593Z" transform="translate(-311.06 -80.025)" fill="#37474f"/>
              <path id="Path_156725" data-name="Path 156725" d="M317.76,91.4c.032-.109.073-.24.1-.326h0l1.3.1h0v.58A2.266,2.266,0,0,1,317.76,91.4Z" transform="translate(-314.724 -80.03)" fill="#263238"/>
              <path id="Path_156726" data-name="Path 156726" d="M318.807,84.722a5.69,5.69,0,0,0-1.228-.027,2.918,2.918,0,0,0-.689,1.033,4.432,4.432,0,0,0,.5,1.853,1.563,1.563,0,0,0,1.305.1,2.719,2.719,0,0,0,.906-1.273,2.46,2.46,0,0,0-.793-1.69Z" transform="translate(-314.248 -76.532)" fill="#37474f"/>
              <path id="Path_156727" data-name="Path 156727" d="M320.65,74.869l.213.027A8.059,8.059,0,0,1,322.4,73.6c.362-.172,1.74,2.406,1.994,3.077s.2.657,1.128.1a17.455,17.455,0,0,0,4.241-3.716,6.8,6.8,0,0,0,1.649-2.954,19.936,19.936,0,0,1-1.387-1.98c-.53-1.069-.612-1.486-1.205-1.423l-.036.974c-.145.906-1.088,1.183-2.406,2.22s-3.421,1.98-3.929,2.424a18.52,18.52,0,0,0-1.8,2.538Z" transform="translate(-316.304 -66.706)" fill="#37474f"/>
              <path id="Path_156728" data-name="Path 156728" d="M311.246,76.19c.122.376,1.436-2.465,2.012-2.374.276.032.938,1.622,1.418,2.474h.091a10.682,10.682,0,0,1-.3-2.692,19.884,19.884,0,0,1,.231-2.619V69.357a3.265,3.265,0,0,1-.53-.027c-.154.14-2.451,2.524-2.692,3.625A9.723,9.723,0,0,0,311.246,76.19Z" transform="translate(-311.137 -68.141)" fill="#37474f"/>
            </g>
            <path id="Path_156729" data-name="Path 156729" d="M361.523,99.38c.453,3.466.553,4.078.335,6.371a42.42,42.42,0,0,1-1,5.17c-.653,3.145-2.293,8.89-2.266,9.729a14.11,14.11,0,0,1,0,2.4,10.044,10.044,0,0,1-.662,2.773c-.24.612-.394,1.282-.671,1.876a6.97,6.97,0,0,1-.865,1.128c-.313.417-.426.947-.816,1.314a5.975,5.975,0,0,1-2.039,1.042c-.281.412-.752,1.282-1.065,1.668-.8.983-.983-.625-.956-1.169a8.341,8.341,0,0,1,.326-1.731,38.855,38.855,0,0,0,.988-4.3c.045-.258.353-1.323-.068-1.323a.517.517,0,0,0-.349.208,12.18,12.18,0,0,0-.743,1.092,6.575,6.575,0,0,1-.689.775,2.207,2.207,0,0,1-.689.539c-.272.118-1.278.195-1.319-.276a.453.453,0,0,1,.05-.218c.208-.489.453-.956.666-1.441a13.818,13.818,0,0,0,.589-1.482,12.231,12.231,0,0,1,1.813-4.2c1.7-2.352,2.062-16.236,2.062-16.236l-2.288-9.575a21.107,21.107,0,0,1-1.323-8.052c.15-4.531,1.849-5.759,1.849-5.759,3.525,1.414,5.438,2.519,6.366,5.764S361.223,97.055,361.523,99.38Z" transform="translate(-301.487 -53.914)" fill="#b16668"/>
            <path id="Path_156730" data-name="Path 156730" d="M363.326,101.711c-.1-.825-.616-5.129-1.894-11.433-1.21-5.986-1.523-6.579-2.746-7.957-.961-1.088-3.376-2.238-5.025-2.882,0,0-2.143,1.273-2.2,5.225a36.375,36.375,0,0,0,1.554,8.986l2.18,9.7-.381,9.751c1.681-.589,5.438.63,6.3,2.293,0,0,1.269-4.332,1.926-7.4A19.005,19.005,0,0,0,363.326,101.711Z" transform="translate(-302.842 -53.771)" fill="#37474f"/>
            <path id="Path_156731" data-name="Path 156731" d="M358.7,151.434l-.249,2.7a9.98,9.98,0,0,1,3.625.539,5.133,5.133,0,0,1,2.587,1.359l.711-2.673S363.312,151.171,358.7,151.434Z" transform="translate(-306.666 -93.13)" fill="#455a64"/>
          </g>
        </g>
        <g id="freepik--Character--inject-27" transform="translate(0 23.8)">
          <path id="freepik--Arm--inject-27" d="M131.231,128.47c-2.76.662-5.714,1.813-7.771,8.9-1.509,5.211-2.379,7.7-3.054,11.025a14.659,14.659,0,0,0-.19,5.234c.453,4.391,1.083,10.717,1.083,12.982a22.887,22.887,0,0,0,.974,7.169c.716,2.624,3.847,3.824,4.373,4.128.118.453.186,1.074.453,1.214.39.195,1.115-.612,1.069-1.323-.118-1.98-1.853-5.519-1.482-6.534s.807,1.572,1.55,2.266c.97.906,1.645.453,1.5-.063-.2-.775-.689-2.171-1.02-3.756-.4-1.944-1.155-2.5-1.5-4.078s.077-13.861.077-13.861l3.92-12.008Z" transform="translate(-120.078 -104.384)" fill="#ffbda7"/>
          <g id="freepik--bottom--inject-27-2" data-name="freepik--bottom--inject-27" transform="translate(4.346 48.999)">
            <g id="freepik--bottom--inject-27-3" data-name="freepik--bottom--inject-27" transform="translate(0 0.508)">
              <path id="Path_156732" data-name="Path 156732" d="M150.419,205.464c-.834,8.818-1.237,11.224-2.22,17.94-.453,3-1.264,7.78-2.184,13.222-.77,4.531-4.078,19.788-4.078,19.788a35.373,35.373,0,0,0-.453,7.934c.263,2.338.838,4.3,2.841,4.749-1.156.5-5.238,2.683-6.344-.3a17.383,17.383,0,0,1-.5-1.812c-.163-.648-.331-1.3-.494-1.944a11.2,11.2,0,0,0-1.047-2.932,8.406,8.406,0,0,0-.965-1.291,3.018,3.018,0,0,1-.453-.548c-.091-.177-.213-.326-.3-.5a2.855,2.855,0,0,1-.208-1.455c.072-.807,1.106-1.26,1.359-3.294.086-.689-.453-6.833-.788-14.4a66.48,66.48,0,0,1,.172-8.714,48.644,48.644,0,0,1,1.713-6.706l-.788-10.816-.145-7.98a25,25,0,0,1-.906-11.414A45.527,45.527,0,0,1,137.8,184.57h20.608Z" transform="translate(-132.036 -184.57)" fill="#ffbda7"/>
              <path id="Path_156733" data-name="Path 156733" d="M140.593,369.675s-.7.906-3.566-.8-3.507-3.349-3.507-3.349,1.649-6,3.317-4.2S140.593,369.675,140.593,369.675Z" transform="translate(-131.775 -281.047)"/>
              <path id="Path_156734" data-name="Path 156734" d="M132.393,344.272c.671-.245,2.229.675,3.086,1.649,1.124,1.287,1.223,2.818,1.631,4.663.453,1.967,1.359,4.713,2.266,5.438a1.728,1.728,0,0,0,1.74.086,2.561,2.561,0,0,1-.539-.4c.648,0,1.536-.122,2.1-.14,2.121-.068,3.408,1.029,3.34,2.166-.086.906-4.019,3.544-6.575,3.29-2.121-.208-2.891.05-3.625-3.2s-.929-5.052-2.152-3.081-2.266,6.634-2.266,6.634a1.581,1.581,0,0,1-1.731-.245s.322-3.018.322-4.953-.589-5.066-.136-7.332S131.736,344.494,132.393,344.272Z" transform="translate(-129.67 -271.884)" fill="#826c19"/>
              <path id="Path_156735" data-name="Path 156735" d="M142.46,184.59h21.007s3.906,11.2,3.879,27.473c0,8.859-.2,11.292-.553,18.071-.163,3.027-.544,7.862-.961,13.367-.349,4.586-2.216,20.078-2.216,20.078a35.569,35.569,0,0,0,.272,7.943c.471,2.306,1.228,4.205,3.263,4.468-1.1.6-4.984,3.172-6.344.285a18.025,18.025,0,0,1-.662-1.749l-.675-1.89a11.143,11.143,0,0,0-1.314-2.823,8.475,8.475,0,0,0-1.078-1.2,3.048,3.048,0,0,1-.494-.5c-.1-.163-.245-.3-.34-.453a2.859,2.859,0,0,1-.344-1.432c0-.811.988-1.359,1.065-3.408.027-.689-1.083-6.761-2.112-14.26a66.48,66.48,0,0,1-.63-8.691,48.252,48.252,0,0,1,1.088-6.838l-1.781-10.7" transform="translate(-136.664 -184.581)" fill="#ffbda7"/>
              <path id="Path_156736" data-name="Path 156736" d="M157.376,242.443l-1.813-14.894s-5.415-.906-6.067-6.149a6.939,6.939,0,0,0,4.314,7.314l2.438,13.762-.793,8.609Z" transform="translate(-140.501 -204.711)" fill="#f0997a"/>
              <path id="Path_156737" data-name="Path 156737" d="M181.177,386.066s-.616.97-3.625-.453-3.8-3.013-3.8-3.013,1.092-6.126,2.918-4.486S181.177,386.066,181.177,386.066Z" transform="translate(-153.776 -290.26)"/>
              <path id="Path_156738" data-name="Path 156738" d="M170.879,361.488c.639-.3,2.266.453,3.222,1.359,1.237,1.174,1.477,2.692,2.053,4.491.616,1.917,1.772,4.568,2.778,5.2a1.727,1.727,0,0,0,1.745-.073,2.976,2.976,0,0,1-.575-.344c.648-.05,1.523-.267,2.08-.34,2.107-.263,3.494.711,3.525,1.853,0,.906-3.67,3.9-6.24,3.883-2.134,0-2.873.313-3.9-2.859s-1.4-4.944-2.429-2.873-1.654,6.8-1.654,6.8a1.581,1.581,0,0,1-1.745-.086s.041-3.036-.136-4.962-1.051-4.984-.811-7.286S170.245,361.769,170.879,361.488Z" transform="translate(-151.041 -281.283)" fill="#826c19"/>
            </g>
            <path id="Path_156739" data-name="Path 156739" d="M162.713,204.235c-1.015-10.581-1.985-14.179-2.769-20.051l-22.865-.734c-.748,3.018-2.329,6.865-3.131,11.02-.716,3.72-.145,7.984.295,13.141.29,3.408-.653,17.536-.653,17.536s.6,2.2,9.6,3.729,14.015-.512,14.015-.512l1.151-11.9,1.246,11.732a7.464,7.464,0,0,0,3.67-1.359C163.27,226.846,163.4,211.472,162.713,204.235Z" transform="translate(-131.814 -183.45)" fill="#37474f"/>
          </g>
          <g id="freepik--top--inject-27-2" data-name="freepik--top--inject-27" transform="translate(7.343)">
            <path id="Path_156740" data-name="Path 156740" d="M164.471,137.966a15.63,15.63,0,0,0-5.324-7.169c-2.751-.856-7.477-2.189-7.477-2.189a5.57,5.57,0,0,1-5.3,1.106c-2.461-.63-2.664-1.894-2.664-1.894a31.334,31.334,0,0,0-3.421.254c-.875.136-2.855.879-3.675,4.477-1.219,5.329,1.323,11.156,1.527,15.216.1,2.071-.861,4.382.412,5.256,3.1,2.071,7.835,3.086,11.781,3.14,3.666.05,9.348-1.169,11.075-2.406.965-.734.145-3.625.906-6.956A7.923,7.923,0,0,0,164.471,137.966Z" transform="translate(-136.283 -104.029)" fill="#727997"/>
            <path id="Path_156741" data-name="Path 156741" d="M164.5,82.341a2.96,2.96,0,0,0,.177-2.95c-.412-.933-1.219-1.9-3.525-2.982C158.4,75.123,150.457,73.9,147.521,79.4c-.412.77,7.3,14.088,7.055,16.934,1.813-2.057,7.753-9.267,7.753-9.267,1.45-.684,2.32-1.255,2.574-2.655A3.448,3.448,0,0,0,164.5,82.341Z" transform="translate(-142.42 -75.316)" fill="#263238"/>
            <path id="Path_156742" data-name="Path 156742" d="M183.05,99.46s2.116,3.172,1.908,3.448a10.354,10.354,0,0,1-1.436,1.033Z" transform="translate(-161.858 -88.52)" fill="#f0997a"/>
            <path id="Path_156743" data-name="Path 156743" d="M160.578,85.637c1.359.58,2.556,1.559,3.086,4.472.14.761-.417,1.813-.1,2.841,1.332,4.314-.4,8.1-1.214,8.936-.553.566-3.539.906-5.129.548a15.382,15.382,0,0,1-8-5.32c-2.542-3.521-3.294-8.365-.7-10.422C152.168,83.8,159.123,85.021,160.578,85.637Z" transform="translate(-142.091 -80.528)" fill="#ffbda7"/>
            <path id="Path_156744" data-name="Path 156744" d="M161.2,119.1l-.571,3.824c-1.183,1.359-3.412,1.636-5.179,1.246-1.264-.281-2.538-1.065-2.782-2.035l.381-4.717Z" transform="translate(-145.245 -98.341)" fill="#ffbda7"/>
            <path id="Path_156745" data-name="Path 156745" d="M175.406,122.065a7.7,7.7,0,0,1-4.336.585l.159-1.119a10.789,10.789,0,0,0,2.012.517A7.341,7.341,0,0,0,175.406,122.065Z" transform="translate(-155.307 -100.589)" fill="#f0997a"/>
            <path id="Path_156746" data-name="Path 156746" d="M158.158,83.1a2.749,2.749,0,0,1-1.853,2.95,4.128,4.128,0,0,1,.453,2.225,2.38,2.38,0,0,1-1.423,2.13c-.571.218-.752-.027-.979-.48-.317-.639-.725-1.622-2.116-1.359-1.59.281-1.921,2.719-.906,4.255a2.506,2.506,0,0,0,1.844,1.269,1.491,1.491,0,0,0,1.255-.489,7.629,7.629,0,0,1-2.347,4.844s-3.571.734-6.013-.648c-1.1-1.205-1.953-2.451-3.3-4.246-3.122-4.151-2.886-11.723,2.089-13.322a13.086,13.086,0,0,1,5.438-.716C157.157,80.709,158.131,82.775,158.158,83.1Z" transform="translate(-138.707 -77.562)" fill="#263238"/>
            <path id="Path_156747" data-name="Path 156747" d="M154.351,103.135l-.082,19.426s-9.484,2.193-13.639-1.681V96.51s2.56,5.438,6.924,7.314S154.351,103.135,154.351,103.135Z" transform="translate(-138.66 -86.906)" fill="#263238"/>
            <g id="freepik--top--inject-27-3" data-name="freepik--top--inject-27" transform="translate(20.439 26.537)">
              <path id="Path_156748" data-name="Path 156748" d="M207.4,152.862c-2.959,1.686-7.046,4.119-9.43,5.216-3.05,1.4-3.9,1.015-6.543-1.976a90.081,90.081,0,0,1-6.344-7.409c-3.036-4.314-3.448-5.61-3.625-7.7-.489-5.61,1.636-7.11,1.636-7.11,4.613,1.359,5.374,3.5,7.93,7.6,3.571,5.746,5.592,8.9,5.592,8.9s8.329-3.2,9.248-3.734a8.656,8.656,0,0,0,2.655-3.4,22.474,22.474,0,0,0,1.6-3.1c.136-.453.267-.734.372-.788.3-.172.485-.1.734.136a1.477,1.477,0,0,1,.394.938,6.1,6.1,0,0,1-.122,1.645c-.077.453-.15.875-.222,1.314a.97.97,0,0,0,0,.521.942.942,0,0,0,.675.453,11.27,11.27,0,0,0,5.777-.19,3.06,3.06,0,0,0,.671-.236c.045.072,0,.213,0,.295a3.036,3.036,0,0,1-.77,1.545,15.991,15.991,0,0,0-1.251,1.291c-.2.3-.326.643-.521.947a4.178,4.178,0,0,1-.779.82c-1.4,1.2-3.1,2.633-4.722,2.909a9.1,9.1,0,0,0-2.982,1.115" transform="translate(-181.388 -133.88)" fill="#ffbda7"/>
            </g>
          </g>
        </g>
        <path id="Path_156749" data-name="Path 156749" d="M251.538,148.5c-1.056.73-2.089.675-3.534.7a8.922,8.922,0,0,0-1.391.082,2.615,2.615,0,0,0-.489.136,3.141,3.141,0,0,0-.539.381c-.761.535-1.754.834-2.266,1.64-.308.453-.412,1.051-.716,1.518a4.473,4.473,0,0,0-.39.58.63.63,0,0,0,.027.662.716.716,0,0,0,.276.181,1.627,1.627,0,0,0,1.16.036c.775-.263,1.233-1.047,1.885-1.541a4.558,4.558,0,0,1,1.686-.73,5.969,5.969,0,0,1,.834-.186,3.771,3.771,0,0,1,.675.059C249.707,152.1,251.538,148.5,251.538,148.5Z" transform="translate(-186.825 -91.538)" fill="#b16668"/>
        <path id="Path_156750" data-name="Path 156750" d="M245.38,166.3a1.849,1.849,0,0,0,.965-.671,5.725,5.725,0,0,0,.852-1.554,3.626,3.626,0,0,1,.177-.7,2.638,2.638,0,0,1,.707-.906c.272-.254.485-.548.775-.8.14-.118.394-.236.557-.073a2.32,2.32,0,0,1,.3-.684c.154-.213.58-.585.847-.34a.77.77,0,0,1,.154.245l.761,1.6a1.5,1.5,0,0,1,.15.412,1.3,1.3,0,0,1-.353.961,2.1,2.1,0,0,1-.453.426c-.208.14-.453.222-.662.363-.43.295-.675.829-1.146,1.056a9.587,9.587,0,0,1-.938.263c-.249.1-.453.267-.707.385A7.3,7.3,0,0,1,245.38,166.3Z" transform="translate(-188.602 -98.096)" fill="#b16668"/>
      </g>
    </g>
    <g id="freepik--speech-bubble--inject-27" transform="translate(102.554 31.206)">
      <g id="freepik--speech-bubble--inject-27-2" data-name="freepik--speech-bubble--inject-27">
        <g id="freepik--speech-bubble--inject-27-3" data-name="freepik--speech-bubble--inject-27">
          <path id="Path_156751" data-name="Path 156751" d="M236.92,56.291a12.538,12.538,0,0,1-3.394,8.61l-1.042.992a12.574,12.574,0,0,1-17.754-17.7l.992-1.047a12.579,12.579,0,0,1,21.2,9.153Z" transform="translate(-210.666 -42.656)" fill="#fe502d"/>
          <path id="Path_156752" data-name="Path 156752" d="M223.015,41.36a13.653,13.653,0,0,0-2.234,27.12l1.541,3.951a.793.793,0,0,0,1.477,0l1.527-3.96a13.653,13.653,0,0,0-2.311-27.111Zm12.611,13.635a12.538,12.538,0,0,1-3.394,8.61l-1.042.992a12.574,12.574,0,0,1-17.754-17.7l.992-1.047A12.579,12.579,0,0,1,235.626,55Z" transform="translate(-209.372 -41.36)" fill="#455a64"/>
        </g>
        <g id="freepik--Check--inject-27" transform="translate(6.057 7.18)">
          <path id="Path_156754" data-name="Path 156754" d="M228.657,70.48a1.813,1.813,0,0,1-1.323-.575l-4.105-4.386a1.813,1.813,0,1,1,2.646-2.479l2.669,2.85,6.312-8a1.819,1.819,0,0,1,2.846,2.266L230.08,69.8a1.813,1.813,0,0,1-1.359.684Z" transform="translate(-222.739 -57.206)" fill="#fff"/>
        </g>
      </g>
    </g>
  </g>
</svg>
