<svg xmlns="http://www.w3.org/2000/svg" width="371.563" height="279.574" viewBox="0 0 371.563 279.574">
  <g id="Group_99409" data-name="Group 99409" transform="translate(-185 -632.714)">
    <g id="Group_79816" data-name="Group 79816" transform="translate(-835 -504.934)">
      <g id="Group_79776" data-name="Group 79776" transform="translate(98.502)">
        <g id="Group_79644" data-name="Group 79644" transform="translate(921.498 1137.647)">
          <path id="Path_145968" data-name="Path 145968" d="M61.969,0A61.969,61.969,0,1,1,0,61.969,61.969,61.969,0,0,1,61.969,0Z" transform="translate(238.103 150.33)" fill="#fe502d" opacity="0.444" style="mix-blend-mode: multiply;isolation: isolate"/>
          <path id="Path_145969" data-name="Path 145969" d="M42.343,0A42.343,42.343,0,1,1,0,42.343,42.344,42.344,0,0,1,42.343,0Z" transform="translate(34.622 16.168)" fill="#fe502d" opacity="0.444" style="mix-blend-mode: multiply;isolation: isolate"/>
          <rect id="Rectangle_34812" data-name="Rectangle 34812" width="371.563" height="278.672" transform="translate(0 0.451)" fill="none"/>
          <path id="Path_145967" data-name="Path 145967" d="M139.787,0A139.787,139.787,0,1,1,0,139.787,139.787,139.787,0,0,1,139.787,0Z" transform="translate(45.995)" fill="#0d2380"/>
          <path id="Path_145971" data-name="Path 145971" d="M11.642,0A11.642,11.642,0,1,1,0,11.642,11.642,11.642,0,0,1,11.642,0Z" transform="translate(45.995 232.768)" fill="#fe502d" opacity="0.444" style="mix-blend-mode: multiply;isolation: isolate"/>
          <g id="Group_78276" data-name="Group 78276" transform="translate(267.348 193.764)">
            <g id="Group_53306" data-name="Group 53306" transform="translate(0)">
              <path id="Path_99200" data-name="Path 99200" d="M415.9,51.028a.842.842,0,1,1-.842-.8A.824.824,0,0,1,415.9,51.028Z" transform="translate(-414.214 -50.224)" fill="#fff"/>
              <path id="Path_99201" data-name="Path 99201" d="M424.343,51.028a.842.842,0,1,1-.841-.8A.823.823,0,0,1,424.343,51.028Z" transform="translate(-415.087 -50.224)" fill="#fff"/>
              <path id="Path_99202" data-name="Path 99202" d="M432.789,51.028a.842.842,0,1,1-.841-.8A.823.823,0,0,1,432.789,51.028Z" transform="translate(-415.96 -50.224)" fill="#fff"/>
              <path id="Path_99203" data-name="Path 99203" d="M441.236,51.028a.842.842,0,1,1-.842-.8A.824.824,0,0,1,441.236,51.028Z" transform="translate(-416.834 -50.224)" fill="#fff"/>
              <path id="Path_99204" data-name="Path 99204" d="M449.682,51.028a.842.842,0,1,1-.841-.8A.824.824,0,0,1,449.682,51.028Z" transform="translate(-417.707 -50.224)" fill="#fff"/>
              <path id="Path_99205" data-name="Path 99205" d="M458.128,51.028a.842.842,0,1,1-.841-.8A.823.823,0,0,1,458.128,51.028Z" transform="translate(-418.58 -50.224)" fill="#fff"/>
              <path id="Path_99206" data-name="Path 99206" d="M466.575,51.028a.842.842,0,1,1-.842-.8A.824.824,0,0,1,466.575,51.028Z" transform="translate(-419.453 -50.224)" fill="#fff"/>
              <path id="Path_99207" data-name="Path 99207" d="M475.021,51.028a.842.842,0,1,1-.841-.8A.823.823,0,0,1,475.021,51.028Z" transform="translate(-420.326 -50.224)" fill="#fff"/>
              <path id="Path_99208" data-name="Path 99208" d="M483.467,51.028a.842.842,0,1,1-.841-.8A.824.824,0,0,1,483.467,51.028Z" transform="translate(-421.199 -50.224)" fill="#fff"/>
              <path id="Path_99209" data-name="Path 99209" d="M491.914,51.028a.842.842,0,1,1-.842-.8A.824.824,0,0,1,491.914,51.028Z" transform="translate(-422.073 -50.224)" fill="#fff"/>
              <path id="Path_99210" data-name="Path 99210" d="M500.36,51.028a.842.842,0,1,1-.842-.8A.824.824,0,0,1,500.36,51.028Z" transform="translate(-422.946 -50.224)" fill="#fff"/>
            </g>
            <g id="Group_53307" data-name="Group 53307" transform="translate(0 6.438)">
              <path id="Path_99211" data-name="Path 99211" d="M415.9,58.536a.842.842,0,1,1-.842-.8A.824.824,0,0,1,415.9,58.536Z" transform="translate(-414.214 -57.732)" fill="#fff"/>
              <path id="Path_99212" data-name="Path 99212" d="M424.343,58.536a.842.842,0,1,1-.841-.8A.823.823,0,0,1,424.343,58.536Z" transform="translate(-415.087 -57.732)" fill="#fff"/>
              <path id="Path_99213" data-name="Path 99213" d="M432.789,58.536a.842.842,0,1,1-.841-.8A.823.823,0,0,1,432.789,58.536Z" transform="translate(-415.96 -57.732)" fill="#fff"/>
              <path id="Path_99214" data-name="Path 99214" d="M441.236,58.536a.842.842,0,1,1-.842-.8A.824.824,0,0,1,441.236,58.536Z" transform="translate(-416.834 -57.732)" fill="#fff"/>
              <path id="Path_99215" data-name="Path 99215" d="M449.682,58.536a.842.842,0,1,1-.841-.8A.824.824,0,0,1,449.682,58.536Z" transform="translate(-417.707 -57.732)" fill="#fff"/>
              <path id="Path_99216" data-name="Path 99216" d="M458.128,58.536a.842.842,0,1,1-.841-.8A.823.823,0,0,1,458.128,58.536Z" transform="translate(-418.58 -57.732)" fill="#fff"/>
              <path id="Path_99217" data-name="Path 99217" d="M466.575,58.536a.842.842,0,1,1-.842-.8A.824.824,0,0,1,466.575,58.536Z" transform="translate(-419.453 -57.732)" fill="#fff"/>
              <path id="Path_99218" data-name="Path 99218" d="M475.021,58.536a.842.842,0,1,1-.841-.8A.823.823,0,0,1,475.021,58.536Z" transform="translate(-420.326 -57.732)" fill="#fff"/>
              <path id="Path_99219" data-name="Path 99219" d="M483.467,58.536a.842.842,0,1,1-.841-.8A.824.824,0,0,1,483.467,58.536Z" transform="translate(-421.199 -57.732)" fill="#fff"/>
              <path id="Path_99220" data-name="Path 99220" d="M491.914,58.536a.842.842,0,1,1-.842-.8A.824.824,0,0,1,491.914,58.536Z" transform="translate(-422.073 -57.732)" fill="#fff"/>
              <path id="Path_99221" data-name="Path 99221" d="M500.36,58.536a.842.842,0,1,1-.842-.8A.824.824,0,0,1,500.36,58.536Z" transform="translate(-422.946 -57.732)" fill="#fff"/>
            </g>
            <g id="Group_53308" data-name="Group 53308" transform="translate(0 12.875)">
              <ellipse id="Ellipse_3955" data-name="Ellipse 3955" cx="0.841" cy="0.805" rx="0.841" ry="0.805" fill="#fff"/>
              <path id="Path_99222" data-name="Path 99222" d="M424.343,66.044a.842.842,0,1,1-.841-.8A.824.824,0,0,1,424.343,66.044Z" transform="translate(-415.087 -65.24)" fill="#fff"/>
              <ellipse id="Ellipse_3956" data-name="Ellipse 3956" cx="0.841" cy="0.805" rx="0.841" ry="0.805" transform="translate(15.146)" fill="#fff"/>
              <path id="Path_99223" data-name="Path 99223" d="M441.236,66.044a.842.842,0,1,1-.842-.8A.824.824,0,0,1,441.236,66.044Z" transform="translate(-416.833 -65.24)" fill="#fff"/>
              <path id="Path_99224" data-name="Path 99224" d="M449.682,66.044a.842.842,0,1,1-.841-.8A.824.824,0,0,1,449.682,66.044Z" transform="translate(-417.707 -65.24)" fill="#fff"/>
              <ellipse id="Ellipse_3957" data-name="Ellipse 3957" cx="0.841" cy="0.805" rx="0.841" ry="0.805" transform="translate(37.866)" fill="#fff"/>
              <path id="Path_99225" data-name="Path 99225" d="M466.575,66.044a.842.842,0,1,1-.842-.8A.825.825,0,0,1,466.575,66.044Z" transform="translate(-419.453 -65.24)" fill="#fff"/>
              <ellipse id="Ellipse_3958" data-name="Ellipse 3958" cx="0.841" cy="0.805" rx="0.841" ry="0.805" transform="translate(53.012)" fill="#fff"/>
              <ellipse id="Ellipse_3959" data-name="Ellipse 3959" cx="0.841" cy="0.805" rx="0.841" ry="0.805" transform="translate(60.585)" fill="#fff"/>
              <path id="Path_99226" data-name="Path 99226" d="M491.914,66.044a.842.842,0,1,1-.842-.8A.825.825,0,0,1,491.914,66.044Z" transform="translate(-422.073 -65.24)" fill="#fff"/>
              <path id="Path_99227" data-name="Path 99227" d="M500.36,66.044a.842.842,0,1,1-.842-.8A.824.824,0,0,1,500.36,66.044Z" transform="translate(-422.946 -65.24)" fill="#fff"/>
            </g>
            <g id="Group_53309" data-name="Group 53309" transform="translate(0 19.313)">
              <ellipse id="Ellipse_3960" data-name="Ellipse 3960" cx="0.841" cy="0.805" rx="0.841" ry="0.805" transform="translate(0 0)" fill="#fff"/>
              <path id="Path_99228" data-name="Path 99228" d="M424.343,73.552a.842.842,0,1,1-.841-.805A.823.823,0,0,1,424.343,73.552Z" transform="translate(-415.087 -72.747)" fill="#fff"/>
              <ellipse id="Ellipse_3961" data-name="Ellipse 3961" cx="0.841" cy="0.805" rx="0.841" ry="0.805" transform="translate(15.146 0)" fill="#fff"/>
              <path id="Path_99229" data-name="Path 99229" d="M441.236,73.552a.842.842,0,1,1-.842-.805A.824.824,0,0,1,441.236,73.552Z" transform="translate(-416.833 -72.747)" fill="#fff"/>
              <path id="Path_99230" data-name="Path 99230" d="M449.682,73.552a.842.842,0,1,1-.841-.805A.823.823,0,0,1,449.682,73.552Z" transform="translate(-417.707 -72.747)" fill="#fff"/>
              <ellipse id="Ellipse_3962" data-name="Ellipse 3962" cx="0.841" cy="0.805" rx="0.841" ry="0.805" transform="translate(37.866 0)" fill="#fff"/>
              <path id="Path_99231" data-name="Path 99231" d="M466.575,73.552a.842.842,0,1,1-.842-.805A.824.824,0,0,1,466.575,73.552Z" transform="translate(-419.453 -72.747)" fill="#fff"/>
              <ellipse id="Ellipse_3963" data-name="Ellipse 3963" cx="0.841" cy="0.805" rx="0.841" ry="0.805" transform="translate(53.012 0)" fill="#fff"/>
              <ellipse id="Ellipse_3964" data-name="Ellipse 3964" cx="0.841" cy="0.805" rx="0.841" ry="0.805" transform="translate(60.585 0)" fill="#fff"/>
              <path id="Path_99232" data-name="Path 99232" d="M491.914,73.552a.842.842,0,1,1-.842-.805A.824.824,0,0,1,491.914,73.552Z" transform="translate(-422.073 -72.747)" fill="#fff"/>
              <path id="Path_99233" data-name="Path 99233" d="M500.36,73.552a.842.842,0,1,1-.842-.805A.824.824,0,0,1,500.36,73.552Z" transform="translate(-422.946 -72.747)" fill="#fff"/>
            </g>
            <g id="Group_53310" data-name="Group 53310" transform="translate(0 25.75)">
              <path id="Path_99234" data-name="Path 99234" d="M415.9,81.06a.842.842,0,1,1-.842-.805A.824.824,0,0,1,415.9,81.06Z" transform="translate(-414.214 -80.255)" fill="#fff"/>
              <path id="Path_99235" data-name="Path 99235" d="M424.343,81.06a.842.842,0,1,1-.841-.805A.823.823,0,0,1,424.343,81.06Z" transform="translate(-415.087 -80.255)" fill="#fff"/>
              <path id="Path_99236" data-name="Path 99236" d="M432.789,81.06a.842.842,0,1,1-.841-.805A.823.823,0,0,1,432.789,81.06Z" transform="translate(-415.96 -80.255)" fill="#fff"/>
              <path id="Path_99237" data-name="Path 99237" d="M441.236,81.06a.842.842,0,1,1-.842-.805A.824.824,0,0,1,441.236,81.06Z" transform="translate(-416.834 -80.255)" fill="#fff"/>
              <path id="Path_99238" data-name="Path 99238" d="M449.682,81.06a.842.842,0,1,1-.841-.805A.823.823,0,0,1,449.682,81.06Z" transform="translate(-417.707 -80.255)" fill="#fff"/>
              <path id="Path_99239" data-name="Path 99239" d="M458.128,81.06a.842.842,0,1,1-.841-.805A.823.823,0,0,1,458.128,81.06Z" transform="translate(-418.58 -80.255)" fill="#fff"/>
              <path id="Path_99240" data-name="Path 99240" d="M466.575,81.06a.842.842,0,1,1-.842-.805A.824.824,0,0,1,466.575,81.06Z" transform="translate(-419.453 -80.255)" fill="#fff"/>
              <path id="Path_99241" data-name="Path 99241" d="M475.021,81.06a.842.842,0,1,1-.841-.805A.823.823,0,0,1,475.021,81.06Z" transform="translate(-420.326 -80.255)" fill="#fff"/>
              <path id="Path_99242" data-name="Path 99242" d="M483.467,81.06a.842.842,0,1,1-.841-.805A.823.823,0,0,1,483.467,81.06Z" transform="translate(-421.199 -80.255)" fill="#fff"/>
              <path id="Path_99243" data-name="Path 99243" d="M491.914,81.06a.842.842,0,1,1-.842-.805A.824.824,0,0,1,491.914,81.06Z" transform="translate(-422.073 -80.255)" fill="#fff"/>
              <path id="Path_99244" data-name="Path 99244" d="M500.36,81.06a.842.842,0,1,1-.842-.805A.824.824,0,0,1,500.36,81.06Z" transform="translate(-422.946 -80.255)" fill="#fff"/>
            </g>
            <g id="Group_53311" data-name="Group 53311" transform="translate(0 32.188)">
              <ellipse id="Ellipse_3965" data-name="Ellipse 3965" cx="0.841" cy="0.805" rx="0.841" ry="0.805" transform="translate(0 0)" fill="#fff"/>
              <path id="Path_99245" data-name="Path 99245" d="M424.343,88.568a.842.842,0,1,1-.841-.805A.823.823,0,0,1,424.343,88.568Z" transform="translate(-415.087 -87.763)" fill="#fff"/>
              <ellipse id="Ellipse_3966" data-name="Ellipse 3966" cx="0.841" cy="0.805" rx="0.841" ry="0.805" transform="translate(15.146 0)" fill="#fff"/>
              <path id="Path_99246" data-name="Path 99246" d="M441.236,88.568a.842.842,0,1,1-.842-.805A.824.824,0,0,1,441.236,88.568Z" transform="translate(-416.833 -87.763)" fill="#fff"/>
              <path id="Path_99247" data-name="Path 99247" d="M449.682,88.568a.842.842,0,1,1-.841-.805A.823.823,0,0,1,449.682,88.568Z" transform="translate(-417.707 -87.763)" fill="#fff"/>
              <ellipse id="Ellipse_3967" data-name="Ellipse 3967" cx="0.841" cy="0.805" rx="0.841" ry="0.805" transform="translate(37.866 0)" fill="#fff"/>
              <path id="Path_99248" data-name="Path 99248" d="M466.575,88.568a.842.842,0,1,1-.842-.805A.824.824,0,0,1,466.575,88.568Z" transform="translate(-419.453 -87.763)" fill="#fff"/>
              <ellipse id="Ellipse_3968" data-name="Ellipse 3968" cx="0.841" cy="0.805" rx="0.841" ry="0.805" transform="translate(53.012 0)" fill="#fff"/>
              <ellipse id="Ellipse_3969" data-name="Ellipse 3969" cx="0.841" cy="0.805" rx="0.841" ry="0.805" transform="translate(60.585 0)" fill="#fff"/>
              <path id="Path_99249" data-name="Path 99249" d="M491.914,88.568a.842.842,0,1,1-.842-.805A.824.824,0,0,1,491.914,88.568Z" transform="translate(-422.073 -87.763)" fill="#fff"/>
              <path id="Path_99250" data-name="Path 99250" d="M500.36,88.568a.842.842,0,1,1-.842-.805A.824.824,0,0,1,500.36,88.568Z" transform="translate(-422.946 -87.763)" fill="#fff"/>
            </g>
            <g id="Group_53312" data-name="Group 53312" transform="translate(0 38.626)">
              <ellipse id="Ellipse_3970" data-name="Ellipse 3970" cx="0.841" cy="0.805" rx="0.841" ry="0.805" fill="#fff"/>
              <path id="Path_99251" data-name="Path 99251" d="M424.343,96.075a.842.842,0,1,1-.841-.8A.823.823,0,0,1,424.343,96.075Z" transform="translate(-415.087 -95.271)" fill="#fff"/>
              <ellipse id="Ellipse_3971" data-name="Ellipse 3971" cx="0.841" cy="0.805" rx="0.841" ry="0.805" transform="translate(15.146)" fill="#fff"/>
              <path id="Path_99252" data-name="Path 99252" d="M441.236,96.075a.842.842,0,1,1-.842-.8A.824.824,0,0,1,441.236,96.075Z" transform="translate(-416.833 -95.271)" fill="#fff"/>
              <path id="Path_99253" data-name="Path 99253" d="M449.682,96.075a.842.842,0,1,1-.841-.8A.824.824,0,0,1,449.682,96.075Z" transform="translate(-417.707 -95.271)" fill="#fff"/>
              <ellipse id="Ellipse_3972" data-name="Ellipse 3972" cx="0.841" cy="0.805" rx="0.841" ry="0.805" transform="translate(37.866)" fill="#fff"/>
              <path id="Path_99254" data-name="Path 99254" d="M466.575,96.075a.842.842,0,1,1-.842-.8A.824.824,0,0,1,466.575,96.075Z" transform="translate(-419.453 -95.271)" fill="#fff"/>
              <ellipse id="Ellipse_3973" data-name="Ellipse 3973" cx="0.841" cy="0.805" rx="0.841" ry="0.805" transform="translate(53.012)" fill="#fff"/>
              <ellipse id="Ellipse_3974" data-name="Ellipse 3974" cx="0.841" cy="0.805" rx="0.841" ry="0.805" transform="translate(60.585)" fill="#fff"/>
              <path id="Path_99255" data-name="Path 99255" d="M491.914,96.075a.842.842,0,1,1-.842-.8A.824.824,0,0,1,491.914,96.075Z" transform="translate(-422.073 -95.271)" fill="#fff"/>
              <path id="Path_99256" data-name="Path 99256" d="M500.36,96.075a.842.842,0,1,1-.842-.8A.824.824,0,0,1,500.36,96.075Z" transform="translate(-422.946 -95.271)" fill="#fff"/>
            </g>
            <g id="Group_53313" data-name="Group 53313" transform="translate(0 45.063)">
              <path id="Path_99257" data-name="Path 99257" d="M415.9,103.583a.842.842,0,1,1-.842-.8A.824.824,0,0,1,415.9,103.583Z" transform="translate(-414.214 -102.779)" fill="#fff"/>
              <path id="Path_99258" data-name="Path 99258" d="M424.343,103.583a.842.842,0,1,1-.841-.8A.823.823,0,0,1,424.343,103.583Z" transform="translate(-415.087 -102.779)" fill="#fff"/>
              <path id="Path_99259" data-name="Path 99259" d="M432.789,103.583a.842.842,0,1,1-.841-.8A.823.823,0,0,1,432.789,103.583Z" transform="translate(-415.96 -102.779)" fill="#fff"/>
              <path id="Path_99260" data-name="Path 99260" d="M441.236,103.583a.842.842,0,1,1-.842-.8A.824.824,0,0,1,441.236,103.583Z" transform="translate(-416.834 -102.779)" fill="#fff"/>
              <path id="Path_99261" data-name="Path 99261" d="M449.682,103.583a.842.842,0,1,1-.841-.8A.824.824,0,0,1,449.682,103.583Z" transform="translate(-417.707 -102.779)" fill="#fff"/>
              <path id="Path_99262" data-name="Path 99262" d="M458.128,103.583a.842.842,0,1,1-.841-.8A.823.823,0,0,1,458.128,103.583Z" transform="translate(-418.58 -102.779)" fill="#fff"/>
              <path id="Path_99263" data-name="Path 99263" d="M466.575,103.583a.842.842,0,1,1-.842-.8A.824.824,0,0,1,466.575,103.583Z" transform="translate(-419.453 -102.779)" fill="#fff"/>
              <path id="Path_99264" data-name="Path 99264" d="M475.021,103.583a.842.842,0,1,1-.841-.8A.824.824,0,0,1,475.021,103.583Z" transform="translate(-420.326 -102.779)" fill="#fff"/>
              <path id="Path_99265" data-name="Path 99265" d="M483.467,103.583a.842.842,0,1,1-.841-.8A.824.824,0,0,1,483.467,103.583Z" transform="translate(-421.199 -102.779)" fill="#fff"/>
              <path id="Path_99266" data-name="Path 99266" d="M491.914,103.583a.842.842,0,1,1-.842-.8A.824.824,0,0,1,491.914,103.583Z" transform="translate(-422.073 -102.779)" fill="#fff"/>
              <path id="Path_99267" data-name="Path 99267" d="M500.36,103.583a.842.842,0,1,1-.842-.8A.824.824,0,0,1,500.36,103.583Z" transform="translate(-422.946 -102.779)" fill="#fff"/>
            </g>
            <g id="Group_53314" data-name="Group 53314" transform="translate(0 51.501)">
              <ellipse id="Ellipse_3975" data-name="Ellipse 3975" cx="0.841" cy="0.805" rx="0.841" ry="0.805" fill="#fff"/>
              <path id="Path_99268" data-name="Path 99268" d="M424.343,111.091a.842.842,0,1,1-.841-.8A.824.824,0,0,1,424.343,111.091Z" transform="translate(-415.087 -110.287)" fill="#fff"/>
              <ellipse id="Ellipse_3976" data-name="Ellipse 3976" cx="0.841" cy="0.805" rx="0.841" ry="0.805" transform="translate(15.146)" fill="#fff"/>
              <path id="Path_99269" data-name="Path 99269" d="M441.236,111.091a.842.842,0,1,1-.842-.8A.824.824,0,0,1,441.236,111.091Z" transform="translate(-416.833 -110.287)" fill="#fff"/>
              <path id="Path_99270" data-name="Path 99270" d="M449.682,111.091a.842.842,0,1,1-.841-.8A.824.824,0,0,1,449.682,111.091Z" transform="translate(-417.707 -110.287)" fill="#fff"/>
              <ellipse id="Ellipse_3977" data-name="Ellipse 3977" cx="0.841" cy="0.805" rx="0.841" ry="0.805" transform="translate(37.866)" fill="#fff"/>
              <path id="Path_99271" data-name="Path 99271" d="M466.575,111.091a.842.842,0,1,1-.842-.8A.825.825,0,0,1,466.575,111.091Z" transform="translate(-419.453 -110.287)" fill="#fff"/>
              <ellipse id="Ellipse_3978" data-name="Ellipse 3978" cx="0.841" cy="0.805" rx="0.841" ry="0.805" transform="translate(53.012)" fill="#fff"/>
              <ellipse id="Ellipse_3979" data-name="Ellipse 3979" cx="0.841" cy="0.805" rx="0.841" ry="0.805" transform="translate(60.585)" fill="#fff"/>
              <path id="Path_99272" data-name="Path 99272" d="M491.914,111.091a.842.842,0,1,1-.842-.8A.825.825,0,0,1,491.914,111.091Z" transform="translate(-422.073 -110.287)" fill="#fff"/>
              <path id="Path_99273" data-name="Path 99273" d="M500.36,111.091a.842.842,0,1,1-.842-.8A.824.824,0,0,1,500.36,111.091Z" transform="translate(-422.946 -110.287)" fill="#fff"/>
            </g>
            <g id="Group_53315" data-name="Group 53315" transform="translate(0 57.938)">
              <path id="Path_99274" data-name="Path 99274" d="M415.9,118.6a.842.842,0,1,1-.842-.805A.824.824,0,0,1,415.9,118.6Z" transform="translate(-414.214 -117.794)" fill="#fff"/>
              <path id="Path_99275" data-name="Path 99275" d="M424.343,118.6a.842.842,0,1,1-.841-.805A.824.824,0,0,1,424.343,118.6Z" transform="translate(-415.087 -117.794)" fill="#fff"/>
              <path id="Path_99276" data-name="Path 99276" d="M432.789,118.6a.842.842,0,1,1-.841-.805A.824.824,0,0,1,432.789,118.6Z" transform="translate(-415.96 -117.794)" fill="#fff"/>
              <path id="Path_99277" data-name="Path 99277" d="M441.236,118.6a.842.842,0,1,1-.842-.805A.824.824,0,0,1,441.236,118.6Z" transform="translate(-416.834 -117.794)" fill="#fff"/>
              <path id="Path_99278" data-name="Path 99278" d="M449.682,118.6a.842.842,0,1,1-.841-.805A.824.824,0,0,1,449.682,118.6Z" transform="translate(-417.707 -117.794)" fill="#fff"/>
              <path id="Path_99279" data-name="Path 99279" d="M458.128,118.6a.842.842,0,1,1-.841-.805A.824.824,0,0,1,458.128,118.6Z" transform="translate(-418.58 -117.794)" fill="#fff"/>
              <path id="Path_99280" data-name="Path 99280" d="M466.575,118.6a.842.842,0,1,1-.842-.805A.825.825,0,0,1,466.575,118.6Z" transform="translate(-419.453 -117.794)" fill="#fff"/>
              <path id="Path_99281" data-name="Path 99281" d="M475.021,118.6a.842.842,0,1,1-.841-.805A.824.824,0,0,1,475.021,118.6Z" transform="translate(-420.326 -117.794)" fill="#fff"/>
              <path id="Path_99282" data-name="Path 99282" d="M483.467,118.6a.842.842,0,1,1-.841-.805A.824.824,0,0,1,483.467,118.6Z" transform="translate(-421.199 -117.794)" fill="#fff"/>
              <path id="Path_99283" data-name="Path 99283" d="M491.914,118.6a.842.842,0,1,1-.842-.805A.825.825,0,0,1,491.914,118.6Z" transform="translate(-422.073 -117.794)" fill="#fff"/>
              <path id="Path_99284" data-name="Path 99284" d="M500.36,118.6a.842.842,0,1,1-.842-.805A.824.824,0,0,1,500.36,118.6Z" transform="translate(-422.946 -117.794)" fill="#fff"/>
            </g>
            <g id="Group_53316" data-name="Group 53316" transform="translate(0 64.376)">
              <ellipse id="Ellipse_3980" data-name="Ellipse 3980" cx="0.841" cy="0.805" rx="0.841" ry="0.805" transform="translate(0 0)" fill="#fff"/>
              <path id="Path_99285" data-name="Path 99285" d="M424.343,126.107a.842.842,0,1,1-.841-.805A.823.823,0,0,1,424.343,126.107Z" transform="translate(-415.087 -125.302)" fill="#fff"/>
              <ellipse id="Ellipse_3981" data-name="Ellipse 3981" cx="0.841" cy="0.805" rx="0.841" ry="0.805" transform="translate(15.146 0)" fill="#fff"/>
              <path id="Path_99286" data-name="Path 99286" d="M441.236,126.107a.842.842,0,1,1-.842-.805A.824.824,0,0,1,441.236,126.107Z" transform="translate(-416.833 -125.302)" fill="#fff"/>
              <path id="Path_99287" data-name="Path 99287" d="M449.682,126.107a.842.842,0,1,1-.841-.805A.823.823,0,0,1,449.682,126.107Z" transform="translate(-417.707 -125.302)" fill="#fff"/>
              <ellipse id="Ellipse_3982" data-name="Ellipse 3982" cx="0.841" cy="0.805" rx="0.841" ry="0.805" transform="translate(37.866 0)" fill="#fff"/>
              <path id="Path_99288" data-name="Path 99288" d="M466.575,126.107a.842.842,0,1,1-.842-.805A.824.824,0,0,1,466.575,126.107Z" transform="translate(-419.453 -125.302)" fill="#fff"/>
              <ellipse id="Ellipse_3983" data-name="Ellipse 3983" cx="0.841" cy="0.805" rx="0.841" ry="0.805" transform="translate(53.012 0)" fill="#fff"/>
              <ellipse id="Ellipse_3984" data-name="Ellipse 3984" cx="0.841" cy="0.805" rx="0.841" ry="0.805" transform="translate(60.585 0)" fill="#fff"/>
              <path id="Path_99289" data-name="Path 99289" d="M491.914,126.107a.842.842,0,1,1-.842-.805A.824.824,0,0,1,491.914,126.107Z" transform="translate(-422.073 -125.302)" fill="#fff"/>
              <path id="Path_99290" data-name="Path 99290" d="M500.36,126.107a.842.842,0,1,1-.842-.805A.824.824,0,0,1,500.36,126.107Z" transform="translate(-422.946 -125.302)" fill="#fff"/>
            </g>
            <g id="Group_53317" data-name="Group 53317" transform="translate(0 70.814)">
              <ellipse id="Ellipse_3985" data-name="Ellipse 3985" cx="0.841" cy="0.805" rx="0.841" ry="0.805" transform="translate(0 0)" fill="#fff"/>
              <path id="Path_99291" data-name="Path 99291" d="M424.343,133.615a.842.842,0,1,1-.841-.805A.823.823,0,0,1,424.343,133.615Z" transform="translate(-415.087 -132.81)" fill="#fff"/>
              <ellipse id="Ellipse_3986" data-name="Ellipse 3986" cx="0.841" cy="0.805" rx="0.841" ry="0.805" transform="translate(15.146 0)" fill="#fff"/>
              <path id="Path_99292" data-name="Path 99292" d="M441.236,133.615a.842.842,0,1,1-.842-.805A.824.824,0,0,1,441.236,133.615Z" transform="translate(-416.833 -132.81)" fill="#fff"/>
              <path id="Path_99293" data-name="Path 99293" d="M449.682,133.615a.842.842,0,1,1-.841-.805A.823.823,0,0,1,449.682,133.615Z" transform="translate(-417.707 -132.81)" fill="#fff"/>
              <ellipse id="Ellipse_3987" data-name="Ellipse 3987" cx="0.841" cy="0.805" rx="0.841" ry="0.805" transform="translate(37.866 0)" fill="#fff"/>
              <path id="Path_99294" data-name="Path 99294" d="M466.575,133.615a.842.842,0,1,1-.842-.805A.824.824,0,0,1,466.575,133.615Z" transform="translate(-419.453 -132.81)" fill="#fff"/>
              <ellipse id="Ellipse_3988" data-name="Ellipse 3988" cx="0.841" cy="0.805" rx="0.841" ry="0.805" transform="translate(53.012 0)" fill="#fff"/>
              <ellipse id="Ellipse_3989" data-name="Ellipse 3989" cx="0.841" cy="0.805" rx="0.841" ry="0.805" transform="translate(60.585 0)" fill="#fff"/>
              <path id="Path_99295" data-name="Path 99295" d="M491.914,133.615a.842.842,0,1,1-.842-.805A.824.824,0,0,1,491.914,133.615Z" transform="translate(-422.073 -132.81)" fill="#fff"/>
              <path id="Path_99296" data-name="Path 99296" d="M500.36,133.615a.842.842,0,1,1-.842-.805A.824.824,0,0,1,500.36,133.615Z" transform="translate(-422.946 -132.81)" fill="#fff"/>
            </g>
          </g>
          <line id="Line_138" data-name="Line 138" y2="164.629" transform="translate(12.166 65.357)" fill="none" stroke="#fff" stroke-width="1" stroke-dasharray="8"/>
        </g>
      </g>
    </g>
    <g id="Group_99410" data-name="Group 99410" transform="translate(192.911 605.794)">
      <g id="Group_99420" data-name="Group 99420" transform="translate(95.735 54.928)">
        <g id="Group_99412" data-name="Group 99412" transform="translate(63.386 125.822)" style="isolation: isolate">
          <g id="Group_99410-2" data-name="Group 99410" transform="translate(19.64 31.118)">
            <path id="Path_154646" data-name="Path 154646" d="M263.37,341.514l24.791-14.407-.01,3.448-24.791,14.407Z" transform="translate(-263.361 -327.107)" fill="#f4f4f4"/>
          </g>
          <path id="Path_154647" data-name="Path 154647" d="M239.555,324.4a10.8,10.8,0,0,1-4.083-4.7,8.343,8.343,0,0,1-.833-5.646l3.483-11.481-2.877-2.634-3.488,11.495c-.711,2.455-.229,5.718,1.314,8.966a17.122,17.122,0,0,0,6.473,7.448l11.532,6.657.01-3.448Z" transform="translate(-231.437 -285.537)" fill="#ddd"/>
          <g id="Group_99411" data-name="Group 99411" transform="translate(3.809)">
            <path id="Path_154648" data-name="Path 154648" d="M237.628,290.933l24.791-14.407,2.876,2.634L240.5,293.567Z" transform="translate(-237.628 -276.526)" fill="#58595b"/>
          </g>
          <path id="Path_154649" data-name="Path 154649" d="M266.224,302.635a10.806,10.806,0,0,1-4.083-4.7,8.338,8.338,0,0,1-.833-5.646l3.483-11.481L240,295.215,236.516,306.7a8.343,8.343,0,0,0,.833,5.646,10.8,10.8,0,0,0,4.083,4.7l11.532,6.658,24.791-14.407Z" transform="translate(-233.314 -278.174)" fill="#e6e7e8"/>
        </g>
        <path id="Path_154650" data-name="Path 154650" d="M277.166,224.431,137.708,304.947l.033,11.633c.007,2.41,1.713,3.38,3.809,2.17l131.866-76.132a8.336,8.336,0,0,0,3.784-6.554Z" transform="translate(-131.986 -130.658)" fill="#f4f4f4"/>
        <g id="Group_99413" data-name="Group 99413" transform="translate(76.857 136.627)">
          <path id="Path_154651" data-name="Path 154651" d="M255.741,294.419c1.333-.77,2.419-.151,2.423,1.381a5.306,5.306,0,0,1-2.408,4.169c-1.334.77-2.417.152-2.422-1.381A5.3,5.3,0,0,1,255.741,294.419Z" transform="translate(-253.334 -294.088)" fill="#bfbfbf"/>
        </g>
        <path id="Path_154652" data-name="Path 154652" d="M134.317,364.95l-.033-11.633-5.474-3.181.033,11.633a2.656,2.656,0,0,0,1.107,2.435l5.473,3.181A2.658,2.658,0,0,1,134.317,364.95Z" transform="translate(-128.562 -179.027)" fill="#ededed"/>
        <path id="Path_154653" data-name="Path 154653" d="M276.762,80.088h0V79.87c0-1.739-.895-2.728-2.177-2.69h-.014a3.249,3.249,0,0,0-1.553.482l-132,76.207a6.321,6.321,0,0,0-1.577,1.339,8.736,8.736,0,0,0-2.142,5.4l.249,87.683,139.458-80.516ZM144.45,236.318l-.217-76.449L269.852,87.343l.217,76.449Z" transform="translate(-131.83 -73.998)" fill="#414042"/>
        <path id="Path_154654" data-name="Path 154654" d="M274.185,93.7,148.567,166.226l.217,76.449L274.4,170.149Z" transform="translate(-136.164 -80.355)" fill="#e6e7e8"/>
        <path id="Path_154655" data-name="Path 154655" d="M272.23,75.444l-5.474-3.181a1.985,1.985,0,0,0-1.071-.254l.015.009-.026-.009a3.242,3.242,0,0,0-1.553.482L132.126,148.7a6.3,6.3,0,0,0-1.577,1.339,8.737,8.737,0,0,0-2.142,5.4l.249,87.683,5.474,3.181-.249-87.683a8.737,8.737,0,0,1,2.142-5.4,6.321,6.321,0,0,1,1.577-1.339l132-76.207a3.249,3.249,0,0,1,1.553-.482v-.006l.011.006A1.987,1.987,0,0,1,272.23,75.444Z" transform="translate(-128.407 -72.008)" fill="#ededed"/>
      </g>
      <g id="Group_99426" data-name="Group 99426" transform="translate(57.848 197.054)">
        <g id="Group_99425" data-name="Group 99425" style="isolation: isolate">
          <g id="Group_99421" data-name="Group 99421" transform="translate(0.103)">
            <path id="Path_154661" data-name="Path 154661" d="M134.112,322.466,100.662,341.9,66.991,322.464l33.449-19.439Z" transform="translate(-66.991 -303.026)" fill="#fde0ba"/>
          </g>
          <g id="Group_99422" data-name="Group 99422" transform="translate(33.672 19.441)">
            <path id="Path_154662" data-name="Path 154662" d="M155.107,334.625l-.1,36.4-33.449,19.439.1-36.4Z" transform="translate(-121.555 -334.625)" fill="#dbb288"/>
          </g>
          <g id="Group_99423" data-name="Group 99423" transform="translate(0 19.439)">
            <path id="Path_154663" data-name="Path 154663" d="M100.6,354.063l-.1,36.4-33.672-19.44.1-36.4Z" transform="translate(-66.823 -334.622)" fill="#f7d1af"/>
          </g>
          <path id="Path_154664" data-name="Path 154664" d="M89.313,318.547l33.672,19.44,8.536-4.961-33.672-19.44Z" transform="translate(-75.477 -307.089)" fill="#494949"/>
          <path id="Path_154665" data-name="Path 154665" d="M152.581,358.182v-13l-3.746,2.177-4.79,2.783v13Z" transform="translate(-96.537 -319.248)" fill="#3f3f3f"/>
          <g id="Group_99424" data-name="Group 99424" transform="translate(2.417 24.266)">
            <path id="Path_154666" data-name="Path 154666" d="M79.054,347.253l-.017,5.866-8.286-4.784.017-5.866Z" transform="translate(-70.751 -342.469)" fill="#fff"/>
          </g>
        </g>
      </g>
      <g id="Group_99432" data-name="Group 99432" transform="translate(43.498 164.628)">
        <g id="Group_99431" data-name="Group 99431" style="isolation: isolate">
          <g id="Group_99427" data-name="Group 99427" transform="translate(0.103)">
            <path id="Path_154667" data-name="Path 154667" d="M110.786,269.76,77.337,289.2l-33.672-19.44,33.449-19.439Z" transform="translate(-43.665 -250.319)" fill="#fde0ba"/>
          </g>
          <g id="Group_99428" data-name="Group 99428" transform="translate(33.672 19.44)">
            <path id="Path_154668" data-name="Path 154668" d="M131.782,281.919l-.1,36.4L98.229,337.757l.1-36.4Z" transform="translate(-98.229 -281.919)" fill="#dbb288"/>
          </g>
          <g id="Group_99429" data-name="Group 99429" transform="translate(0 19.439)">
            <path id="Path_154669" data-name="Path 154669" d="M77.273,301.356l-.1,36.4L43.5,318.315l.1-36.4Z" transform="translate(-43.498 -281.915)" fill="#f7d1af"/>
          </g>
          <path id="Path_154670" data-name="Path 154670" d="M65.988,265.841l33.672,19.44,8.536-4.961L74.524,260.88Z" transform="translate(-52.151 -254.383)" fill="#494949"/>
          <path id="Path_154671" data-name="Path 154671" d="M129.256,305.475v-13l-3.746,2.177-4.79,2.783v13Z" transform="translate(-73.212 -266.542)" fill="#3f3f3f"/>
          <g id="Group_99430" data-name="Group 99430" transform="translate(2.417 24.266)">
            <path id="Path_154672" data-name="Path 154672" d="M55.729,294.546l-.017,5.866-8.286-4.784.017-5.866Z" transform="translate(-47.426 -289.762)" fill="#fff"/>
          </g>
        </g>
      </g>
      <g id="Group_99438" data-name="Group 99438" transform="translate(225.685 121.21)">
        <g id="Group_99437" data-name="Group 99437" style="isolation: isolate">
          <g id="Group_99433" data-name="Group 99433" transform="translate(0.103)">
            <path id="Path_154673" data-name="Path 154673" d="M406.922,199.187l-33.449,19.439L339.8,199.185l33.449-19.439Z" transform="translate(-339.801 -179.746)" fill="#fde0ba"/>
          </g>
          <g id="Group_99434" data-name="Group 99434" transform="translate(33.672 19.44)">
            <path id="Path_154674" data-name="Path 154674" d="M427.918,211.346l-.1,36.4-33.449,19.439.1-36.4Z" transform="translate(-394.365 -211.346)" fill="#dbb288"/>
          </g>
          <g id="Group_99435" data-name="Group 99435" transform="translate(0 19.439)">
            <path id="Path_154675" data-name="Path 154675" d="M373.408,230.783l-.1,36.4-33.672-19.44.1-36.4Z" transform="translate(-339.633 -211.342)" fill="#f7d1af"/>
          </g>
          <path id="Path_154676" data-name="Path 154676" d="M362.124,195.268l33.672,19.44,8.536-4.961-33.672-19.44Z" transform="translate(-348.287 -183.81)" fill="#494949"/>
          <path id="Path_154677" data-name="Path 154677" d="M425.392,234.9v-13l-3.746,2.177-4.79,2.783v13Z" transform="translate(-369.347 -195.969)" fill="#3f3f3f"/>
          <g id="Group_99436" data-name="Group 99436" transform="translate(2.417 24.266)">
            <path id="Path_154678" data-name="Path 154678" d="M351.865,223.973l-.017,5.866-8.286-4.784.017-5.866Z" transform="translate(-343.562 -219.189)" fill="#fff"/>
          </g>
        </g>
      </g>
      <g id="Group_99475" data-name="Group 99475" transform="translate(118.939 215.089)">
        <g id="Group_99439" data-name="Group 99439" transform="translate(76.488 41.214)">
          <path id="Path_154679" data-name="Path 154679" d="M295.652,403.032c-.022-3.29-2.339-4.628-5.2-3.023Z" transform="translate(-290.451 -399.331)" fill="#939696"/>
        </g>
        <path id="Path_154680" data-name="Path 154680" d="M250.483,380a3.183,3.183,0,0,1,3.209-.314l22.783,13.24a3.182,3.182,0,0,0-3.209.315,9.909,9.909,0,0,0-4.5,7.786,3.16,3.16,0,0,0,1.316,2.895L247.3,390.679a3.16,3.16,0,0,1-1.316-2.895A9.911,9.911,0,0,1,250.483,380Z" transform="translate(-196.854 -350.44)" fill="#414142"/>
        <g id="Group_99443" data-name="Group 99443" transform="translate(24.945)">
          <path id="Path_154681" data-name="Path 154681" d="M272.539,382.643c2.9-1.677,5.267-.332,5.28,3l.979-.565.567-.327v0l7.1-4.1-.076-26.564L244.1,378.508l.076,26.564,23.115-13.345A11.56,11.56,0,0,1,272.539,382.643Z" transform="translate(-221.074 -340.711)" fill="#e2e2e2"/>
          <path id="Path_154682" data-name="Path 154682" d="M267.725,411.166l-23.51,13.574.007,2.292,23.115-13.345A8.942,8.942,0,0,1,267.725,411.166Z" transform="translate(-221.117 -362.672)" fill="#ed5e5a"/>
          <g id="Group_99440" data-name="Group 99440" transform="translate(0 24.414)">
            <path id="Path_154683" data-name="Path 154683" d="M229.7,385.407l-23.029-13.383.075,26.564,23.029,13.383Z" transform="translate(-206.671 -372.024)" fill="#eaeaea"/>
          </g>
          <g id="Group_99441" data-name="Group 99441">
            <path id="Path_154684" data-name="Path 154684" d="M271.985,345.724l-23.029-13.383-42.286,24.414L229.7,370.138Z" transform="translate(-206.671 -332.341)" fill="#f7f7f7"/>
          </g>
          <path id="Path_154685" data-name="Path 154685" d="M286.145,372.783l16.421-9.481.013,4.535-16.434,9.488Z" transform="translate(-237.251 -344.254)" fill="#ed5e5a"/>
          <path id="Path_154686" data-name="Path 154686" d="M304.907,372.622l-12.761,7.368v4.543l12.774-7.375Z" transform="translate(-239.56 -347.84)" fill="#ed5e5a"/>
          <path id="Path_154687" data-name="Path 154687" d="M240.984,431.345l1.988,1.155.007,2.3-1.994-1.159Z" transform="translate(-219.874 -370.436)" fill="#ef5a47"/>
          <g id="Group_99442" data-name="Group 99442" transform="translate(56.344 37.654)">
            <path id="Path_154688" data-name="Path 154688" d="M307.3,395.838l-.007-2.292-8.135,4.7-.9.522a5.017,5.017,0,0,1,.4,2.061l.979-.565.567-.327v0Z" transform="translate(-298.254 -393.546)" fill="#ed5e5a"/>
          </g>
        </g>
        <path id="Path_154689" data-name="Path 154689" d="M167.152,424.679l.752-.436v.87Z" transform="translate(-166.52 -367.703)" fill="#fff"/>
        <g id="Group_99444" data-name="Group 99444" transform="translate(13.604 53.473)">
          <path id="Path_154690" data-name="Path 154690" d="M211.02,432.5l-22.783-13.24a3.685,3.685,0,0,1,1.536,3.376l22.783,13.24A3.685,3.685,0,0,0,211.02,432.5Z" transform="translate(-188.237 -419.258)" fill="#912727"/>
        </g>
        <path id="Path_154691" data-name="Path 154691" d="M179.342,420.874a3.182,3.182,0,0,1,3.209-.315L205.334,433.8a3.181,3.181,0,0,0-3.209.314,9.908,9.908,0,0,0-4.5,7.787,3.159,3.159,0,0,0,1.316,2.894l-22.783-13.24a3.158,3.158,0,0,1-1.316-2.894A9.908,9.908,0,0,1,179.342,420.874Z" transform="translate(-169.48 -366.169)" fill="#414142"/>
        <g id="Group_99445" data-name="Group 99445" transform="translate(28.148 67.326)">
          <path id="Path_154692" data-name="Path 154692" d="M216.375,442.395a9.908,9.908,0,0,0-4.5,7.787c.008,2.865,2.035,4.018,4.526,2.58a9.906,9.906,0,0,0,4.5-7.788C220.891,442.111,218.866,440.957,216.375,442.395Z" transform="translate(-211.878 -441.776)" fill="#58595b"/>
        </g>
        <g id="Group_99446" data-name="Group 99446" transform="translate(29.614 69.212)">
          <path id="Path_154693" data-name="Path 154693" d="M217.3,445.259a6.688,6.688,0,0,0-3.035,5.256c0,1.934,1.374,2.712,3.055,1.741A6.687,6.687,0,0,0,220.35,447C220.345,445.067,218.978,444.288,217.3,445.259Z" transform="translate(-214.261 -444.841)" fill="#a5a7aa"/>
        </g>
        <g id="Group_99447" data-name="Group 99447" transform="translate(31.303 71.384)">
          <path id="Path_154694" data-name="Path 154694" d="M218.358,448.559a2.977,2.977,0,0,0-1.352,2.34c0,.861.612,1.208,1.36.775a2.976,2.976,0,0,0,1.351-2.341C219.715,448.473,219.106,448.126,218.358,448.559Z" transform="translate(-217.006 -448.372)" fill="#414142"/>
        </g>
        <path id="Path_154695" data-name="Path 154695" d="M191.157,428.5l-22.783-13.24,6.946-8.743,22.783,13.24Z" transform="translate(-166.99 -360.884)" fill="#f4675d"/>
        <g id="Group_99448" data-name="Group 99448" transform="translate(1.384 54.38)">
          <path id="Path_154696" data-name="Path 154696" d="M191.157,433.973l-22.783-13.24v10.417l22.783,13.24Z" transform="translate(-168.374 -420.733)" fill="#ef5a47"/>
        </g>
        <g id="Group_99449" data-name="Group 99449" transform="translate(11.306 25.92)">
          <path id="Path_154697" data-name="Path 154697" d="M219.754,387.713l-22.783-13.24-12.469,7.2,22.783,13.24Z" transform="translate(-184.501 -374.473)" fill="#f4675d"/>
        </g>
        <path id="Path_154698" data-name="Path 154698" d="M205.423,399.415l-22.783-13.24-2.977,12.517,22.783,13.24Z" transform="translate(-171.334 -353.055)" fill="#ef5a47"/>
        <path id="Path_154699" data-name="Path 154699" d="M204.73,401.767l-19.864-11.544-2.2,9.232L202.535,411Z" transform="translate(-172.491 -354.613)" fill="#e9faff"/>
        <path id="Path_154700" data-name="Path 154700" d="M205.407,424.454l6.945-8.743,2.976-12.517,12.469-7.2v25.942l-8.635,4.986c-.009-3.339-2.374-4.687-5.28-3.009A11.559,11.559,0,0,0,208.637,433l-3.23,1.865Z" transform="translate(-181.24 -356.834)" fill="#ed5e5a"/>
        <path id="Path_154701" data-name="Path 154701" d="M231.8,398.269v24.076l-7.148,4.127a3.611,3.611,0,0,0-3.6-3.213,5.564,5.564,0,0,0-2.765.83c-.129.074-.255.159-.381.241v-7.382l2.937-12.354Z" transform="translate(-186.049 -357.709)" fill="#f4675d"/>
        <path id="Path_154702" data-name="Path 154702" d="M222.769,406.171l9.346-5.4v7.772l-11.487,6.632Z" transform="translate(-187.096 -358.673)" fill="#e9faff"/>
        <g id="Group_99451" data-name="Group 99451" transform="translate(41.858 52.395)">
          <path id="Path_154703" data-name="Path 154703" d="M234.655,418.81l2.143-1.237a.335.335,0,0,1,.368-.021h0l.152.09-.057.039a.475.475,0,0,1,.031.173l-1.818,1.05-1.013.693-.136.164-.164-.1A1.085,1.085,0,0,1,234.655,418.81Z" transform="translate(-234.163 -417.506)" fill="#5a597f"/>
          <g id="Group_99450" data-name="Group 99450" transform="translate(0.164 0.097)">
            <path id="Path_154704" data-name="Path 154704" d="M234.922,418.969a1.085,1.085,0,0,0-.492.851l3.131-1.808c0-.311-.223-.438-.5-.281Z" transform="translate(-234.43 -417.664)" fill="#6e6b92"/>
          </g>
        </g>
        <g id="Group_99465" data-name="Group 99465" transform="translate(7.491 59.533)">
          <g id="Group_99452" data-name="Group 99452" transform="translate(6.395 4.354)">
            <path id="Path_154705" data-name="Path 154705" d="M188.7,436.185l-.008,2.766.334.193.008-2.766Z" transform="translate(-188.696 -436.185)" fill="#58595b"/>
          </g>
          <g id="Group_99453" data-name="Group 99453" transform="translate(8.037 5.302)">
            <path id="Path_154706" data-name="Path 154706" d="M191.372,437.726l-.008,2.766.335.193.008-2.766Z" transform="translate(-191.365 -437.726)" fill="#58595b"/>
          </g>
          <path id="Path_154707" data-name="Path 154707" d="M178.3,433.155l9.839,5.68.011-3.846-9.839-5.68Zm8.858,4.572.007-2.765.335.193-.008,2.765Zm-.821-.474.008-2.765.335.193-.008,2.766Zm-.821-.474.008-2.765.335.193-.008,2.766Zm-.821-.474.008-2.765.334.193-.007,2.765Zm-.821-.474.007-2.765.335.193-.008,2.765Zm-.821-.474.008-2.766.335.193-.008,2.766Zm-.821-.474.008-2.765.335.193-.008,2.765Zm-.821-.474.008-2.765.334.193-.007,2.765Zm-.823-.475.007-2.766.337.194-.008,2.765Zm-.821-.474.008-2.765.337.194-.008,2.765Zm-.821-.474.008-2.765.337.194-.008,2.766Z" transform="translate(-178.301 -429.185)" fill="#414042"/>
          <g id="Group_99454" data-name="Group 99454" transform="translate(0.647 1.035)">
            <path id="Path_154708" data-name="Path 154708" d="M179.361,430.791l-.008,2.766.336.194.008-2.766Z" transform="translate(-179.353 -430.791)" fill="#58595b"/>
          </g>
          <g id="Group_99455" data-name="Group 99455" transform="translate(1.468 1.509)">
            <path id="Path_154709" data-name="Path 154709" d="M180.7,431.561l-.008,2.766.336.194.008-2.766Z" transform="translate(-180.687 -431.561)" fill="#58595b"/>
          </g>
          <g id="Group_99456" data-name="Group 99456" transform="translate(2.289 1.983)">
            <path id="Path_154710" data-name="Path 154710" d="M182.029,432.332l-.008,2.766.336.194.008-2.766Z" transform="translate(-182.022 -432.332)" fill="#58595b"/>
          </g>
          <g id="Group_99457" data-name="Group 99457" transform="translate(3.112 2.458)">
            <path id="Path_154711" data-name="Path 154711" d="M183.367,433.1l-.008,2.766.334.193.008-2.766Z" transform="translate(-183.359 -433.104)" fill="#58595b"/>
          </g>
          <g id="Group_99458" data-name="Group 99458" transform="translate(3.933 2.932)">
            <path id="Path_154712" data-name="Path 154712" d="M184.7,433.874l-.008,2.766.334.193.008-2.766Z" transform="translate(-184.693 -433.874)" fill="#58595b"/>
          </g>
          <g id="Group_99459" data-name="Group 99459" transform="translate(4.753 3.406)">
            <path id="Path_154713" data-name="Path 154713" d="M186.035,434.644l-.008,2.766.335.193.008-2.766Z" transform="translate(-186.027 -434.644)" fill="#58595b"/>
          </g>
          <g id="Group_99460" data-name="Group 99460" transform="translate(5.574 3.88)">
            <path id="Path_154714" data-name="Path 154714" d="M187.37,435.415l-.008,2.766.334.193.008-2.766Z" transform="translate(-187.362 -435.415)" fill="#58595b"/>
          </g>
          <g id="Group_99461" data-name="Group 99461" transform="translate(7.216 4.828)">
            <path id="Path_154715" data-name="Path 154715" d="M190.038,436.955l-.008,2.766.334.193.008-2.766Z" transform="translate(-190.03 -436.955)" fill="#58595b"/>
          </g>
          <g id="Group_99462" data-name="Group 99462" transform="translate(8.858 5.776)">
            <path id="Path_154716" data-name="Path 154716" d="M192.707,438.5l-.008,2.766.334.193.008-2.766Z" transform="translate(-192.699 -438.496)" fill="#58595b"/>
          </g>
          <g id="Group_99463" data-name="Group 99463" transform="translate(0.011)">
            <path id="Path_154717" data-name="Path 154717" d="M188.157,434.912l.212-.123-9.839-5.68-.212.123Z" transform="translate(-178.318 -429.108)" fill="#808285"/>
          </g>
          <g id="Group_99464" data-name="Group 99464" transform="translate(9.839 5.68)">
            <path id="Path_154718" data-name="Path 154718" d="M194.293,442.31l.212-.123.011-3.846-.212.123Z" transform="translate(-194.293 -438.341)" fill="#58595b"/>
          </g>
        </g>
        <g id="Group_99466" data-name="Group 99466" transform="translate(0 60.361)">
          <path id="Path_154719" data-name="Path 154719" d="M190.282,445.789l.009,3.63-24.158-14.035-.009-3.63Z" transform="translate(-166.124 -430.955)" fill="#616263"/>
          <path id="Path_154720" data-name="Path 154720" d="M207.628,456.1l-2.227,1.294-.009-3.63,2.237-1.289Z" transform="translate(-181.234 -438.926)" fill="#58595b"/>
          <path id="Path_154721" data-name="Path 154721" d="M206.954,451.812l.674.406-2.237,1.289v-.795Z" transform="translate(-181.234 -438.672)" fill="#77787a"/>
          <path id="Path_154722" data-name="Path 154722" d="M167.511,432.054l-1.379-.8,1.379-.8Z" transform="translate(-166.127 -430.454)" fill="#808285"/>
          <path id="Path_154723" data-name="Path 154723" d="M191.024,445.792l-22.971-13.346.2-.684L191.024,445l.009,3.63h0Z" transform="translate(-166.866 -430.958)" fill="#808285"/>
        </g>
        <g id="Group_99467" data-name="Group 99467" transform="translate(20.68 68.151)">
          <path id="Path_154724" data-name="Path 154724" d="M203.226,446.936l-3.487-2.009V443.47l3.487,2.009Z" transform="translate(-199.739 -443.253)" fill="#f4f4f4"/>
          <path id="Path_154725" data-name="Path 154725" d="M205.407,445.44l1.628-.947.375.226-2,1.163Z" transform="translate(-201.92 -443.647)" fill="#fff"/>
          <path id="Path_154726" data-name="Path 154726" d="M203.226,444.911l-3.112-1.793-.375.226,3.487,2.009Z" transform="translate(-199.739 -443.117)" fill="#fff"/>
          <path id="Path_154727" data-name="Path 154727" d="M207.409,446.316l-2,1.154v-1.457l2-1.154Z" transform="translate(-201.92 -443.788)" fill="#ededed"/>
        </g>
        <path id="Path_154728" data-name="Path 154728" d="M170.639,428.418l-3.487-2.009v-1.457l3.487,2.009Z" transform="translate(-166.52 -367.976)" fill="#f4f4f4"/>
        <path id="Path_154729" data-name="Path 154729" d="M171.013,426.621l-3.453-1.991-.408.206,3.487,2.009Z" transform="translate(-166.52 -367.853)" fill="#fff"/>
        <path id="Path_154730" data-name="Path 154730" d="M173.194,427.866v1.457l-.375.216v-1.449Z" transform="translate(-168.7 -369.098)" fill="#ededed"/>
        <g id="Group_99470" data-name="Group 99470" transform="translate(6.289 66.219)">
          <path id="Path_154731" data-name="Path 154731" d="M176.356,440.337l9.492,5.48-.009,3.2-9.492-5.48Z" transform="translate(-176.347 -440.115)" fill="#ef5a47"/>
          <g id="Group_99468" data-name="Group 99468" transform="translate(0.009)">
            <path id="Path_154732" data-name="Path 154732" d="M185.854,445.678l.382-.222-9.492-5.48-.382.222Z" transform="translate(-176.361 -439.976)" fill="#f4675d"/>
          </g>
          <g id="Group_99469" data-name="Group 99469" transform="translate(9.492 5.48)">
            <path id="Path_154733" data-name="Path 154733" d="M191.776,452.3l.382-.222.009-3.2-.382.222Z" transform="translate(-191.776 -448.884)" fill="#ed5e5a"/>
          </g>
        </g>
        <path id="Path_154734" data-name="Path 154734" d="M190.65,406.954l10.068-4.657-6.079-3.533-10.068,4.657Z" transform="translate(-173.222 -357.899)" fill="#fff"/>
        <path id="Path_154735" data-name="Path 154735" d="M198.6,411.576l10.068-4.657-2.735-1.59-10.068,4.657Z" transform="translate(-177.569 -360.426)" fill="#fff"/>
        <g id="Group_99471" data-name="Group 99471" transform="translate(76.802 44.388)">
          <path id="Path_154736" data-name="Path 154736" d="M292.314,404.677a2.979,2.979,0,0,0-1.352,2.34c0,.861.612,1.208,1.361.776a2.978,2.978,0,0,0,1.351-2.341C293.671,404.591,293.063,404.244,292.314,404.677Z" transform="translate(-290.962 -404.491)" fill="#414142"/>
        </g>
        <g id="Group_99472" data-name="Group 99472" transform="translate(71.915 42.179)">
          <path id="Path_154737" data-name="Path 154737" d="M287.516,401.519a9.909,9.909,0,0,0-4.5,7.786c.008,2.865,2.035,4.018,4.527,2.58a9.9,9.9,0,0,0,4.495-7.787C292.033,401.235,290.007,400.081,287.516,401.519Z" transform="translate(-283.019 -400.9)" fill="#58595b"/>
        </g>
        <g id="Group_99473" data-name="Group 99473" transform="translate(73.382 44.064)">
          <path id="Path_154738" data-name="Path 154738" d="M288.437,404.383a6.688,6.688,0,0,0-3.035,5.256c.006,1.934,1.374,2.712,3.055,1.741a6.684,6.684,0,0,0,3.034-5.257C291.486,404.191,290.119,403.411,288.437,404.383Z" transform="translate(-285.402 -403.965)" fill="#a5a7aa"/>
        </g>
        <g id="Group_99474" data-name="Group 99474" transform="translate(75.07 46.237)">
          <path id="Path_154739" data-name="Path 154739" d="M289.5,407.682a2.979,2.979,0,0,0-1.352,2.341c0,.861.612,1.208,1.361.775a2.978,2.978,0,0,0,1.351-2.341C290.856,407.6,290.248,407.25,289.5,407.682Z" transform="translate(-288.147 -407.496)" fill="#414142"/>
        </g>
      </g>
      <g id="Group_99486" data-name="Group 99486" transform="translate(102.21 27.619)">
        <g id="Group_99476" data-name="Group 99476" transform="translate(82.366 22.246)">
          <path id="Path_154740" data-name="Path 154740" d="M274.932,70.289l-2.121-1.232,9.14-5.277,2.121,1.232Z" transform="translate(-272.812 -63.779)" fill="#f7f7f7"/>
        </g>
        <path id="Path_154741" data-name="Path 154741" d="M309.294,30.054c1.736-1,3.147-.2,3.153,1.793l.049,17.328a6.9,6.9,0,0,1-3.133,5.426l-15.081,8.707c-1.732,1-3.147.2-3.153-1.8l-.022-7.682-.006-1.96-.022-7.686a6.906,6.906,0,0,1,3.132-5.422Z" transform="translate(-197.476 -28.39)" fill="#f7f7f7"/>
        <g id="Group_99477" data-name="Group 99477" transform="translate(101.452 21.972)">
          <path id="Path_154742" data-name="Path 154742" d="M304.8,68.321a2.114,2.114,0,0,0-.961,1.665c0,.613.433.864.967.556a2.129,2.129,0,0,0,.965-1.672C305.767,68.257,305.331,68.012,304.8,68.321Z" transform="translate(-303.836 -65.202)" fill="#d1d3d4"/>
          <path id="Path_154743" data-name="Path 154743" d="M313.2,63.468a2.113,2.113,0,0,0-.961,1.665c0,.614.433.864.967.556a2.13,2.13,0,0,0,.965-1.672C314.173,63.4,313.737,63.159,313.2,63.468Z" transform="translate(-307.07 -63.334)" fill="#d1d3d4"/>
        </g>
        <path id="Path_154744" data-name="Path 154744" d="M309.555,44.409l-9.471,5.468-.206-.664c-.237-.739-.926-.929-1.721-.47l-1.3.75a1.149,1.149,0,0,0-.52.9c0,.332.236.466.524.3l1.3-.75c.33-.191.619-.114.716.2l1.8,5.715-.665,2.966a.517.517,0,0,0,.086.485.341.341,0,0,0,.42,0l7.73-4.463a1.141,1.141,0,0,0,.521-.9c0-.331-.236-.465-.524-.3L301.211,57.7l.357-1.582,6.831-3.944a2,2,0,0,0,.87-1.316l.965-5.881C310.325,44.434,310,44.155,309.555,44.409Zm-6.471,8.941c-.292.169-.531.033-.532-.3l-.006-2.114a1.166,1.166,0,0,1,.528-.915c.292-.169.531-.033.532.3l.006,2.114A1.167,1.167,0,0,1,303.084,53.35Zm2.152-1.242c-.292.169-.532.032-.532-.3L304.7,49.69a1.169,1.169,0,0,1,.528-.915c.292-.169.531-.033.532.3l.006,2.115A1.17,1.17,0,0,1,305.236,52.108Zm2.151-1.242c-.292.169-.531.032-.532-.3l-.006-2.115a1.167,1.167,0,0,1,.528-.915c.292-.169.532-.033.532.3l.006,2.115A1.17,1.17,0,0,1,307.388,50.866Z" transform="translate(-199.499 -34.043)" fill="#d1d3d4"/>
        <g id="Group_99478" data-name="Group 99478" transform="translate(91.484)">
          <path id="Path_154745" data-name="Path 154745" d="M289.82,75.879,289.8,68.2l-2.121-1.232.022,7.682a2.2,2.2,0,0,0,.917,2.015l2.121,1.232A2.2,2.2,0,0,1,289.82,75.879Z" transform="translate(-287.651 -42.759)" fill="#ededed"/>
          <path id="Path_154746" data-name="Path 154746" d="M308.084,27.831a2.217,2.217,0,0,0-2.238.22l-15.081,8.707a6.906,6.906,0,0,0-3.132,5.421l.022,7.687,2.121,1.232-.022-7.686a6.906,6.906,0,0,1,3.132-5.422l15.081-8.707a2.219,2.219,0,0,1,2.238-.22Z" transform="translate(-287.634 -27.619)" fill="#ededed"/>
        </g>
        <g id="Group_99479" data-name="Group 99479" transform="translate(84.486 23.478)">
          <path id="Path_154747" data-name="Path 154747" d="M276.259,71.059l9.14-5.277.006,1.96-9.14,5.277Z" transform="translate(-276.259 -65.782)" fill="#f7f7f7"/>
        </g>
        <path id="Path_154748" data-name="Path 154748" d="M259.707,58.684c1.733-1,3.147-.2,3.153,1.792l.022,7.687.006,1.96.022,7.682a6.907,6.907,0,0,1-3.133,5.426L244.7,91.937c-1.737,1-3.147.2-3.153-1.8l-.022-7.682-.006-1.96-.022-7.687a6.9,6.9,0,0,1,3.133-5.421Z" transform="translate(-178.396 -39.407)" fill="#f7f7f7"/>
        <g id="Group_99480" data-name="Group 99480" transform="translate(67.058 26.68)">
          <path id="Path_154749" data-name="Path 154749" d="M265.579,73.562l.715-.413-.006-2.163-6.236,3.6.013,4.587,5.521-3.188Z" transform="translate(-252.594 -70.986)" fill="#d1d3d4"/>
          <path id="Path_154750" data-name="Path 154750" d="M253.939,78.2l-6.009,3.469.006,2.163.715-.413.007,2.424,5.294-3.057Z" transform="translate(-247.93 -73.761)" fill="#d1d3d4"/>
          <path id="Path_154751" data-name="Path 154751" d="M260.081,85.006l.01,3.505,5.521-3.188-.01-3.505Z" transform="translate(-252.605 -75.154)" fill="#d1d3d4"/>
          <path id="Path_154752" data-name="Path 154752" d="M249.12,91.416l.01,3.505,5.294-3.057-.01-3.505Z" transform="translate(-248.388 -77.671)" fill="#d1d3d4"/>
        </g>
        <path id="Path_154753" data-name="Path 154753" d="M258.5,56.462a2.218,2.218,0,0,0-2.238.218l-15.08,8.707a6.9,6.9,0,0,0-3.133,5.421l.022,7.687.006,1.96.022,7.682a2.2,2.2,0,0,0,.917,2.017l2.121,1.232a2.2,2.2,0,0,1-.917-2.016l-.022-7.682-.006-1.96-.022-7.687a6.9,6.9,0,0,1,3.133-5.421l15.08-8.707a2.219,2.219,0,0,1,2.237-.218Z" transform="translate(-177.069 -38.636)" fill="#ededed"/>
        <g id="Group_99484" data-name="Group 99484" transform="translate(51.744 39.859)" style="isolation: isolate">
          <g id="Group_99481" data-name="Group 99481" transform="translate(2.121 1.232)">
            <path id="Path_154754" data-name="Path 154754" d="M226.491,101.715l-.006-1.96,9.256-5.344.006,1.96Z" transform="translate(-226.485 -94.411)" fill="#f7f7f7"/>
          </g>
          <g id="Group_99482" data-name="Group 99482" transform="translate(0 5.344)">
            <path id="Path_154755" data-name="Path 154755" d="M225.164,104.286l-2.121-1.232-.006-1.96,2.121,1.232Z" transform="translate(-223.038 -101.094)" fill="#f7f7f7"/>
          </g>
          <g id="Group_99483" data-name="Group 99483">
            <path id="Path_154756" data-name="Path 154756" d="M225.159,98.984l-2.121-1.232,9.256-5.344,2.121,1.232Z" transform="translate(-223.038 -92.408)" fill="#f7f7f7"/>
          </g>
        </g>
        <path id="Path_154757" data-name="Path 154757" d="M209.933,87.42c1.737-1,3.147-.2,3.154,1.792l.022,7.687.006,1.96.022,7.682A6.9,6.9,0,0,1,210,111.966l-15.081,8.707c-1.732,1-3.147.2-3.153-1.8l-.022-7.682-.006-1.96-.022-7.687a6.908,6.908,0,0,1,3.133-5.421Z" transform="translate(-159.243 -50.463)" fill="#f7f7f7"/>
        <path id="Path_154758" data-name="Path 154758" d="M210.151,111.219a2.5,2.5,0,0,0-2-2.762c-1.221-.414-1.553-.885-1.556-1.83a1.881,1.881,0,0,1,.9-1.826c.572-.33.9-.164.907.781v.547l1.71-.987v-.415c0-1.792-.665-2.548-1.949-2.111l0-.98-1.479.854,0,.981a5.4,5.4,0,0,0-1.9,4.332,2.493,2.493,0,0,0,2,2.765c1.221.4,1.553.885,1.556,1.83a1.9,1.9,0,0,1-.934,1.826c-.576.333-.939.2-.941-.743l0-1.042-1.71.987,0,.909c.006,1.793.666,2.565,1.965,2.121l0,.962,1.48-.854,0-.963A5.451,5.451,0,0,0,210.151,111.219Z" transform="translate(-164.259 -56.099)" fill="#d1d3d4"/>
        <path id="Path_154759" data-name="Path 154759" d="M208.724,85.2a2.217,2.217,0,0,0-2.238.22l-15.081,8.707a6.907,6.907,0,0,0-3.133,5.421l.022,7.687.006,1.96.022,7.682a2.2,2.2,0,0,0,.917,2.015l2.121,1.232a2.2,2.2,0,0,1-.917-2.015l-.022-7.682-.006-1.96-.022-7.686a6.908,6.908,0,0,1,3.133-5.421l15.08-8.707a2.219,2.219,0,0,1,2.238-.22Z" transform="translate(-157.917 -49.693)" fill="#ededed"/>
        <path id="Path_154760" data-name="Path 154760" d="M184.8,122.377l-2.121-1.232-8.994,5.193.006,1.96,2.121,1.232,8.994-5.193Z" transform="translate(-152.305 -63.606)" fill="#f7f7f7"/>
        <g id="Group_99485" data-name="Group 99485" transform="translate(16.133 71.644)">
          <path id="Path_154761" data-name="Path 154761" d="M167.278,146.63l-2.121-1.232c.318-.551.316-1.142,0-1.325l2.121,1.232C167.595,145.487,167.6,146.079,167.278,146.63Z" transform="translate(-165.154 -144.073)" fill="#f7f7f7"/>
        </g>
        <path id="Path_154762" data-name="Path 154762" d="M159.377,113.687a2.213,2.213,0,0,0-2.233.218l-15.08,8.707a6.9,6.9,0,0,0-3.133,5.421l.049,17.328a2.2,2.2,0,0,0,.916,2.017l2.121,1.232a2.2,2.2,0,0,1-.916-2.016l-.049-17.329a6.9,6.9,0,0,1,3.133-5.421l15.08-8.707a2.213,2.213,0,0,1,2.233-.218Z" transform="translate(-138.931 -60.655)" fill="#ededed"/>
        <path id="Path_154763" data-name="Path 154763" d="M160.591,115.909c1.732-1,3.143-.2,3.149,1.795l.022,7.686.006,1.961.022,7.682a6.9,6.9,0,0,1-3.128,5.424l-15.08,8.707c-1.737,1-3.147.2-3.153-1.8l-.049-17.329a6.9,6.9,0,0,1,3.133-5.421Z" transform="translate(-140.257 -61.426)" fill="#f7f7f7"/>
        <path id="Path_154764" data-name="Path 154764" d="M161.84,141.141l-3.008-1.71c1.113-2.551.932-5.065-.539-5.9a3.032,3.032,0,0,0-3.017.306,8.669,8.669,0,0,0-3.011,3.174c-1.654,2.866-1.645,5.974.02,6.927a3.04,3.04,0,0,0,3.02-.308,8.066,8.066,0,0,0,2.379-2.21l3.008,1.71a.58.58,0,0,0,.577-.058,1.657,1.657,0,0,0,.575-.607C162.162,141.915,162.16,141.323,161.84,141.141Zm-4.684-1.342a5.341,5.341,0,0,1-1.857,1.958,1.883,1.883,0,0,1-1.865.191c-1.029-.586-1.035-2.507-.012-4.278a5.364,5.364,0,0,1,1.86-1.96,1.875,1.875,0,0,1,1.863-.189C158.174,136.108,158.179,138.028,157.156,139.8Z" transform="translate(-143.586 -68.265)" fill="#d1d3d4"/>
      </g>
      <g id="Group_99492" data-name="Group 99492" transform="translate(206.895 211.974)">
        <path id="Path_154765" data-name="Path 154765" d="M326.113,327.279l-16.975,9.865L342.5,356.409l16.976-9.865Z" transform="translate(-309.109 -327.279)" fill="#728406"/>
        <path id="Path_154766" data-name="Path 154766" d="M357.753,347.06,330.968,331.6a4.358,4.358,0,0,1-3.955,0l-10.435,6.064a1.21,1.21,0,0,1,.013,2.29l26.785,15.464a4.353,4.353,0,0,1,3.954,0l10.435-6.064A1.21,1.21,0,0,1,357.753,347.06Z" transform="translate(-311.972 -328.94)" fill="#89a004"/>
        <g id="Group_99487" data-name="Group 99487" transform="translate(12.898 7.458)">
          <path id="Path_154767" data-name="Path 154767" d="M333.936,339.788a.985.985,0,0,1,.011,1.864,3.55,3.55,0,0,1-3.219,0,.985.985,0,0,1-.01-1.864A3.545,3.545,0,0,1,333.936,339.788Z" transform="translate(-330.056 -339.402)" fill="#728406"/>
        </g>
        <path id="Path_154768" data-name="Path 154768" d="M350.648,345.149a11.716,11.716,0,0,0-10.63,0c-2.927,1.7-2.911,4.458.031,6.157a11.72,11.72,0,0,0,10.633,0C353.609,349.608,353.594,346.85,350.648,345.149Z" transform="translate(-320.15 -333.665)" fill="#728406"/>
        <g id="Group_99488" data-name="Group 99488" transform="translate(32.951 19.036)">
          <path id="Path_154769" data-name="Path 154769" d="M366.53,358.606a.985.985,0,0,1,.01,1.864,3.549,3.549,0,0,1-3.218,0,.985.985,0,0,1-.01-1.864A3.545,3.545,0,0,1,366.53,358.606Z" transform="translate(-362.65 -358.22)" fill="#728406"/>
        </g>
        <g id="Group_99489" data-name="Group 99489" transform="translate(21.648 12.502)">
          <path id="Path_154770" data-name="Path 154770" d="M351.386,348.014l-.362.211a.716.716,0,0,1,.281.492.918.918,0,0,1-.516.8l-.962-.383a.754.754,0,0,0,.342-.426c.019-.093-.048-.182-.2-.268a.844.844,0,0,0-.56-.088,1.478,1.478,0,0,0-.508.181.887.887,0,0,0-.45.648,1.561,1.561,0,0,0,.018.417,2.164,2.164,0,0,1,.054.429,1.484,1.484,0,0,1-.137.631,1.413,1.413,0,0,1-.537.612,2.8,2.8,0,0,1-1.529.415,2.626,2.626,0,0,1-.933-.19l-.394.229-.715-.413.41-.238a.661.661,0,0,1-.185-.8,1.8,1.8,0,0,1,.67-.693l.871.435c-.3.214-.444.395-.451.554a.292.292,0,0,0,.169.279l.025.014a1.254,1.254,0,0,0,1.17-.066.719.719,0,0,0,.377-.583c-.013-.188-.03-.469-.052-.848a1.5,1.5,0,0,1,.113-.717,1.439,1.439,0,0,1,.612-.61,2.883,2.883,0,0,1,.992-.34,2.609,2.609,0,0,1,1.308.109l.364-.211Z" transform="translate(-344.279 -347.601)" fill="#fff"/>
        </g>
        <g id="Group_99490" data-name="Group 99490" transform="translate(33.368 19.265)">
          <path id="Path_154771" data-name="Path 154771" d="M380.332,358.593l-.028,10.03-16.975,9.865.028-10.03Z" transform="translate(-363.328 -358.593)" fill="#6d7204"/>
        </g>
        <g id="Group_99491" data-name="Group 99491" transform="translate(0 9.865)">
          <path id="Path_154772" data-name="Path 154772" d="M342.487,362.579l-.028,10.03-33.368-19.265.028-10.03Z" transform="translate(-309.091 -343.314)" fill="#747f05"/>
        </g>
      </g>
      <g id="Group_99496" data-name="Group 99496" transform="translate(238.255 193.898)">
        <path id="Path_154773" data-name="Path 154773" d="M393.212,297.9l-33.147,19.263,17.087,9.865L410.3,307.761Z" transform="translate(-360.065 -297.896)" fill="#728406"/>
        <path id="Path_154774" data-name="Path 154774" d="M408.575,308.279l-10.507-6.066a4.353,4.353,0,0,1-3.947,0L367.506,317.68a1.208,1.208,0,0,1,.013,2.286l10.507,6.066a4.349,4.349,0,0,1,3.947,0l26.615-15.466A1.208,1.208,0,0,1,408.575,308.279Z" transform="translate(-362.928 -299.557)" fill="#89a004"/>
        <g id="Group_99493" data-name="Group 99493" transform="translate(32.804 7.456)">
          <path id="Path_154775" data-name="Path 154775" d="M417.266,310.4a.985.985,0,0,1,.01,1.864,3.545,3.545,0,0,1-3.218,0,.985.985,0,0,1-.01-1.864A3.549,3.549,0,0,1,417.266,310.4Z" transform="translate(-413.386 -310.016)" fill="#728406"/>
        </g>
        <path id="Path_154776" data-name="Path 154776" d="M401.488,315.765a11.721,11.721,0,0,0-10.634,0c-2.927,1.7-2.911,4.459.035,6.16a11.716,11.716,0,0,0,10.633,0C404.449,320.224,404.433,317.466,401.488,315.765Zm-2.437,5.144-.413-.238a2.837,2.837,0,0,1-1.369.1,3.976,3.976,0,0,1-1.2-.392l.745-.5a2.4,2.4,0,0,0,.961.261.851.851,0,0,0,.5-.111.311.311,0,0,0,.17-.413.644.644,0,0,0-.291-.263,2.166,2.166,0,0,0-1-.22c-.333.007-.818.016-1.468.025a7.448,7.448,0,0,1-1.242-.066,3.029,3.029,0,0,1-1.051-.359,1.381,1.381,0,0,1-.591-.576.607.607,0,0,1,.18-.755l-.365-.211.714-.415.365.211a2.566,2.566,0,0,1,.845-.159,2.965,2.965,0,0,1,1.4.3l-.663.554a2.113,2.113,0,0,0-.741-.2.812.812,0,0,0-.461.113c-.156.091-.2.2-.143.324a.71.71,0,0,0,.315.3,2.561,2.561,0,0,0,1.114.263c.176.007.415,0,.724-.011.356-.02.6-.03.736-.027a7.3,7.3,0,0,1,1.093.079,3.419,3.419,0,0,1,1.055.315l.057.032c.456.263.678.549.664.855a.772.772,0,0,1-.318.54l.393.226Z" transform="translate(-371.071 -304.281)" fill="#728406"/>
        <g id="Group_99494" data-name="Group 99494" transform="translate(21.545 12.498)">
          <path id="Path_154777" data-name="Path 154777" d="M401.494,320.305c.456.263.677.549.664.854a.772.772,0,0,1-.318.54l.393.226-.714.415-.413-.238a2.838,2.838,0,0,1-1.369.1,3.967,3.967,0,0,1-1.2-.392l.744-.5a2.4,2.4,0,0,0,.961.261.851.851,0,0,0,.5-.111.311.311,0,0,0,.17-.413.644.644,0,0,0-.291-.263,2.169,2.169,0,0,0-1-.22c-.333.007-.818.016-1.468.025a7.452,7.452,0,0,1-1.242-.066,3.029,3.029,0,0,1-1.051-.359,1.382,1.382,0,0,1-.591-.576.607.607,0,0,1,.18-.755l-.365-.211.714-.415.365.211a2.565,2.565,0,0,1,.845-.159,2.979,2.979,0,0,1,1.4.3l-.663.554a2.113,2.113,0,0,0-.741-.2.812.812,0,0,0-.461.113c-.156.091-.2.2-.143.325a.712.712,0,0,0,.315.295,2.561,2.561,0,0,0,1.114.263c.176.007.415,0,.724-.011.356-.02.6-.03.736-.027a7.3,7.3,0,0,1,1.093.079,3.419,3.419,0,0,1,1.055.315Z" transform="translate(-395.085 -318.211)" fill="#fff"/>
        </g>
        <g id="Group_99495" data-name="Group 99495" transform="translate(12.878 19.035)">
          <path id="Path_154778" data-name="Path 154778" d="M384.877,329.223a.985.985,0,0,1,.01,1.864,3.545,3.545,0,0,1-3.218,0,.985.985,0,0,1-.01-1.864A3.545,3.545,0,0,1,384.877,329.223Z" transform="translate(-380.998 -328.837)" fill="#728406"/>
        </g>
      </g>
    </g>
  </g>
</svg>
