<svg xmlns="http://www.w3.org/2000/svg" xmlns:xlink="http://www.w3.org/1999/xlink" width="399.144" height="225" viewBox="0 0 399.144 225">
  <defs>
    <clipPath id="clip-path">
      <path id="Path_153311" data-name="Path 153311" d="M563.711,277.129a37.082,37.082,0,1,0,37.082,37.082A37.082,37.082,0,0,0,563.711,277.129Zm0,56.726a19.644,19.644,0,1,1,19.644-19.644A19.644,19.644,0,0,1,563.711,333.855Z" transform="translate(-526.629 -277.129)" fill="none"/>
    </clipPath>
  </defs>
  <g id="Group_98232" data-name="Group 98232" transform="translate(-389.633 -220.549)">
    <g id="Group_98289" data-name="Group 98289" transform="translate(389.633 220.549)">
      <g id="Group_98240" data-name="Group 98240" transform="translate(224.519 6.019)">
        <g id="Group_98235" data-name="Group 98235">
          <path id="Path_153298" data-name="Path 153298" d="M2053.008,315.942a49.428,49.428,0,0,0,.309-5.491c0-.98-.032-1.952-.089-2.917l-9.073-2.935a39.894,39.894,0,0,0-3.212-10.871l6.016-7.4a49,49,0,0,0-4.766-6.927l-9.074,2.961a40.31,40.31,0,0,0-8.983-6.9l.516-9.534a48.552,48.552,0,0,0-7.921-2.807l-5.6,7.732a40.342,40.342,0,0,0-11.327-.3l-5.188-8.018a48.528,48.528,0,0,0-8.059,2.382l.012,9.548a40.241,40.241,0,0,0-9.336,6.422l-8.9-3.435a49.1,49.1,0,0,0-5.127,6.666l5.618,7.712a39.88,39.88,0,0,0-3.787,10.685l-9.214,2.452a49.425,49.425,0,0,0-.309,5.491c0,.98.032,1.952.089,2.917l9.073,2.935a39.878,39.878,0,0,0,3.213,10.871l-6.016,7.4a49.013,49.013,0,0,0,4.766,6.927l9.074-2.961a40.317,40.317,0,0,0,8.983,6.9l-.516,9.533a48.527,48.527,0,0,0,7.921,2.807l5.6-7.732a40.339,40.339,0,0,0,11.327.3l5.188,8.018a48.532,48.532,0,0,0,8.059-2.382l-.012-9.548a40.255,40.255,0,0,0,9.336-6.422l8.9,3.435a49.1,49.1,0,0,0,5.127-6.666l-5.618-7.712a39.889,39.889,0,0,0,3.787-10.685Zm-48.6,13.69a19.181,19.181,0,1,1,19.181-19.181A19.181,19.181,0,0,1,2004.413,329.632Z" transform="translate(-1955.509 -262.53)" fill="#3357f0"/>
          <g id="Group_98232-2" data-name="Group 98232" transform="translate(74.348 36.416)">
            <path id="Path_153299" data-name="Path 153299" d="M2474.755,549.886a.717.717,0,0,1-.551-1.175,32.451,32.451,0,0,0,5.718-31.255.717.717,0,1,1,1.356-.467,33.885,33.885,0,0,1-5.971,32.639A.715.715,0,0,1,2474.755,549.886Z" transform="translate(-2474.039 -516.505)" fill="#fff"/>
          </g>
          <g id="Group_98233" data-name="Group 98233" transform="translate(60.171 16.067)">
            <path id="Path_153300" data-name="Path 153300" d="M2387.281,383.047a.714.714,0,0,1-.491-.2,32.2,32.2,0,0,0-11.153-6.871.717.717,0,1,1,.489-1.348,33.634,33.634,0,0,1,11.646,7.175.717.717,0,0,1-.491,1.239Z" transform="translate(-2375.164 -374.59)" fill="#fff"/>
          </g>
          <g id="Group_98234" data-name="Group 98234" transform="translate(40.747 14.091)">
            <path id="Path_153301" data-name="Path 153301" d="M2240.41,363.247a.717.717,0,0,1-.175-1.412,33.956,33.956,0,0,1,8.3-1.027.717.717,0,0,1,0,1.434,32.522,32.522,0,0,0-7.954.984A.723.723,0,0,1,2240.41,363.247Z" transform="translate(-2239.694 -360.808)" fill="#fff"/>
          </g>
        </g>
        <g id="Group_98239" data-name="Group 98239" transform="translate(94.359 28.919)">
          <path id="Path_153302" data-name="Path 153302" d="M2681.135,501.213a34.2,34.2,0,0,0,.214-3.8c0-.678-.022-1.352-.062-2.02L2675,493.356a27.622,27.622,0,0,0-2.225-7.529l4.167-5.128a33.937,33.937,0,0,0-3.3-4.8l-6.285,2.051a27.923,27.923,0,0,0-6.222-4.783l.357-6.6a33.613,33.613,0,0,0-5.486-1.944l-3.881,5.355a27.941,27.941,0,0,0-7.846-.205l-3.593-5.554a33.629,33.629,0,0,0-5.582,1.65l.008,6.613a27.869,27.869,0,0,0-6.466,4.448l-6.166-2.379a33.988,33.988,0,0,0-3.551,4.617l3.891,5.342a27.63,27.63,0,0,0-2.623,7.4l-6.382,1.7a34.257,34.257,0,0,0-.214,3.8c0,.678.022,1.352.062,2.021l6.284,2.033a27.623,27.623,0,0,0,2.225,7.529l-4.167,5.128a33.916,33.916,0,0,0,3.3,4.8l6.285-2.051a27.929,27.929,0,0,0,6.222,4.783l-.357,6.6a33.634,33.634,0,0,0,5.486,1.945l3.881-5.356a27.941,27.941,0,0,0,7.846.205l3.593,5.554a33.628,33.628,0,0,0,5.582-1.65l-.008-6.613a27.869,27.869,0,0,0,6.466-4.448l6.166,2.379a34.006,34.006,0,0,0,3.551-4.617l-3.891-5.342a27.624,27.624,0,0,0,2.623-7.4Zm-33.659,9.482a13.286,13.286,0,1,1,13.286-13.286A13.285,13.285,0,0,1,2647.476,510.7Z" transform="translate(-2613.603 -464.218)" fill="#9ec8ff"/>
          <g id="Group_98236" data-name="Group 98236" transform="translate(51.276 25.003)">
            <path id="Path_153303" data-name="Path 153303" d="M2971.938,662.156a.717.717,0,0,1-.551-1.175,22.256,22.256,0,0,0,3.921-21.436.717.717,0,0,1,1.356-.467,23.69,23.69,0,0,1-4.174,22.82A.716.716,0,0,1,2971.938,662.156Z" transform="translate(-2971.221 -638.594)" fill="#fff"/>
          </g>
          <g id="Group_98237" data-name="Group 98237" transform="translate(41.457 10.909)">
            <path id="Path_153304" data-name="Path 153304" d="M2911.349,546.6a.714.714,0,0,1-.491-.195,22.088,22.088,0,0,0-7.649-4.713.717.717,0,1,1,.489-1.348,23.516,23.516,0,0,1,8.143,5.017.717.717,0,0,1-.492,1.239Z" transform="translate(-2902.736 -540.299)" fill="#fff"/>
          </g>
          <g id="Group_98238" data-name="Group 98238" transform="translate(28.003 9.54)">
            <path id="Path_153305" data-name="Path 153305" d="M2809.621,532.883a.717.717,0,0,1-.175-1.412,23.748,23.748,0,0,1,5.806-.718.717.717,0,1,1,0,1.434,22.3,22.3,0,0,0-5.455.675A.722.722,0,0,1,2809.621,532.883Z" transform="translate(-2808.905 -530.753)" fill="#fff"/>
          </g>
        </g>
      </g>
      <g id="Group_98242" data-name="Group 98242" transform="translate(19.643 8.113)">
        <g id="Group_98241" data-name="Group 98241" clip-path="url(#clip-path)">
          <path id="Path_153306" data-name="Path 153306" d="M782.549,556.248l-33.515-20.495-6.062,38.815A39.329,39.329,0,0,0,782.549,556.248Z" transform="translate(-711.952 -498.671)" fill="#a2dff2"/>
          <path id="Path_153307" data-name="Path 153307" d="M818.8,445.275c.09-.148.208-.351.2-.344a39.288,39.288,0,0,0,.87-38.672c-11.86,6.214-4.8,2.439-34.624,18.567C818.823,445.355,813.61,442.189,818.8,445.275Z" transform="translate(-748.171 -387.744)" fill="#9cd499"/>
          <path id="Path_153308" data-name="Path 153308" d="M528.3,287.729,565.146,301.3l34.561-18.688C583.541,252.719,540.026,256.3,528.3,287.729Z" transform="translate(-528.064 -264.222)" fill="#3357f0"/>
          <path id="Path_153309" data-name="Path 153309" d="M544.327,493.464l6.062-38.815-36.842-13.575C504.786,464.562,520.336,489.682,544.327,493.464Z" transform="translate(-513.307 -417.567)" fill="#f39892"/>
          <path id="Path_153310" data-name="Path 153310" d="M577.992,313.564a40.748,40.748,0,0,0,1.017-38.2l.022-.012-.62-1.147-.039-.069-.507-.943-.019.01a40.115,40.115,0,0,0-16.194-15.708,40.919,40.919,0,0,0-56.537,20.779l-.022-.008-.454,1.216-.457,1.226.022.008a40.084,40.084,0,0,0,3.435,33.118,40.627,40.627,0,0,0,27.516,19.556l0,.023,1.284.2,1.291.2,0-.023a40.624,40.624,0,0,0,38.938-18.072l.026.015.255-.418.007,0,.409-.685c.064-.1.14-.234.183-.308l.027-.046.02-.035.413-.675Zm-3.93-35.439,2.708-1.417a38.135,38.135,0,0,1-.978,35.461s-.248-.146-.248-.146c-1.369-.811-1.964-1.164-4.693-2.828l-25.534-15.614,21.2-11.462C569.625,280.445,570.9,279.778,574.062,278.125Zm-66.5,1.049a38.009,38.009,0,0,1,67.919-4.866l-10.207,5.519c-2.107,1.134-5.053,2.728-9.985,5.4l-12.228,6.615-.315.17-1.026-.628-.056.358-16.141-5.948Zm2.33,33.345a37.487,37.487,0,0,1-3.241-30.9l24.268,8.942,10.332,3.807-5.693,36.448A38.034,38.034,0,0,1,509.89,312.519Zm28.243,18.7,5.557-35.577,14.46,8.844c5.83,3.566,9.165,5.606,11.265,6.887l4.992,3.053A37.831,37.831,0,0,1,538.133,331.22Z" transform="translate(-505.621 -256.43)" fill="#e7f3fe"/>
        </g>
      </g>
      <g id="Group_98250" data-name="Group 98250" transform="translate(53.057 0)">
        <circle id="Ellipse_4704" data-name="Ellipse 4704" cx="106.39" cy="106.39" r="106.39" fill="#2e5b9a"/>
        <circle id="Ellipse_4705" data-name="Ellipse 4705" cx="85.936" cy="85.936" r="85.936" transform="translate(20.315 21.569)" fill="#232e4f"/>
        <circle id="Ellipse_4706" data-name="Ellipse 4706" cx="81.618" cy="81.618" r="81.618" transform="translate(24.772 23.379)" fill="#fff"/>
        <g id="Group_98243" data-name="Group 98243" transform="translate(103.522 84.386)">
          <path id="Path_153312" data-name="Path 153312" d="M1484.544,832.562a2.868,2.868,0,0,1-1.43-5.355l30.915-17.743a2.868,2.868,0,0,1,2.855,4.975l-30.915,17.743A2.855,2.855,0,0,1,1484.544,832.562Z" transform="translate(-1481.673 -809.083)" fill="#3e6bab"/>
        </g>
        <g id="Group_98244" data-name="Group 98244" transform="translate(80.516 61.129)">
          <path id="Path_153313" data-name="Path 153313" d="M1347.1,692.9a2.15,2.15,0,0,1-1.871-1.088L1321.5,650.1a2.151,2.151,0,0,1,3.739-2.126l23.723,41.717a2.151,2.151,0,0,1-1.868,3.214Z" transform="translate(-1321.223 -646.883)" fill="#ff2f05"/>
        </g>
        <g id="Group_98249" data-name="Group 98249" transform="translate(35.922 33.405)">
          <path id="Path_153314" data-name="Path 153314" d="M1482.044,929.253a3.947,3.947,0,1,1-3.947-3.947A3.946,3.946,0,0,1,1482.044,929.253Z" transform="translate(-1407.629 -857.661)" fill="#212d51"/>
          <g id="Group_98245" data-name="Group 98245" transform="translate(58.962)">
            <path id="Path_153315" data-name="Path 153315" d="M1428.735,471.154h-3.721V458.82h-3.589v-2.628l7.31-1.126Z" transform="translate(-1421.425 -454.844)" fill="#212d51"/>
            <path id="Path_153316" data-name="Path 153316" d="M1518.188,469.834h-11.253V467.4l5.168-5.433a10.884,10.884,0,0,0,1.447-2.01,3.415,3.415,0,0,0,.464-1.535,2.21,2.21,0,0,0-.469-1.48,1.746,1.746,0,0,0-1.408-.552,1.51,1.51,0,0,0-1.32.712,3.183,3.183,0,0,0-.48,1.817h-3.644l-.022-.066a5.025,5.025,0,0,1,1.458-3.782,5.345,5.345,0,0,1,4.009-1.552,6.063,6.063,0,0,1,4.135,1.3,4.5,4.5,0,0,1,1.485,3.567,4.7,4.7,0,0,1-.79,2.694,34.094,34.094,0,0,1-2.91,3.478l-2.175,2.33.033.066h6.272Z" transform="translate(-1494.446 -453.524)" fill="#212d51"/>
          </g>
          <g id="Group_98246" data-name="Group 98246" transform="translate(64.837 123.781)">
            <path id="Path_153317" data-name="Path 153317" d="M1469.079,1316.818a8.036,8.036,0,0,1,1.69.16,10.629,10.629,0,0,1,1.634.514l-.619,2.717q-.773-.232-1.353-.348a6.828,6.828,0,0,0-1.331-.116,2.662,2.662,0,0,0-2.126.933,3.955,3.955,0,0,0-.767,2.722l.033.055a3.218,3.218,0,0,1,1.292-.861,5.093,5.093,0,0,1,1.833-.309,3.994,3.994,0,0,1,3.352,1.552,6.308,6.308,0,0,1,1.2,3.97,5.385,5.385,0,0,1-1.585,3.97,5.481,5.481,0,0,1-4.047,1.585,5.568,5.568,0,0,1-4.263-1.734,6.672,6.672,0,0,1-1.623-4.749v-3.235a6.353,6.353,0,0,1,6.681-6.825Zm-.74,8.337a3.8,3.8,0,0,0-1.331.209,2.1,2.1,0,0,0-.878.583v.946a5.142,5.142,0,0,0,.569,2.667,1.769,1.769,0,0,0,1.585.929,1.591,1.591,0,0,0,1.369-.792,3.758,3.758,0,0,0,.017-3.822A1.568,1.568,0,0,0,1468.339,1325.155Z" transform="translate(-1462.398 -1316.818)" fill="#212d51"/>
          </g>
          <g id="Group_98247" data-name="Group 98247" transform="translate(0 61.891)">
            <path id="Path_153318" data-name="Path 153318" d="M1015.095,898.842a2.386,2.386,0,0,0,1.844-.8,3.168,3.168,0,0,0,.729-2.214v-.707a3.583,3.583,0,0,1-1.259,1,3.543,3.543,0,0,1-1.524.337,4.241,4.241,0,0,1-3.44-1.485,6.132,6.132,0,0,1-1.242-4.058,5.733,5.733,0,0,1,1.568-4.069,5.29,5.29,0,0,1,4.042-1.673,5.139,5.139,0,0,1,4,1.756,6.969,6.969,0,0,1,1.574,4.826v3.821a5.829,5.829,0,0,1-1.789,4.461,6.326,6.326,0,0,1-4.506,1.678,8.548,8.548,0,0,1-1.717-.182,9.429,9.429,0,0,1-1.7-.513l.387-2.661a10.03,10.03,0,0,0,1.463.37A9.489,9.489,0,0,0,1015.095,898.842Zm.607-5.069a2.786,2.786,0,0,0,1.132-.221,2.293,2.293,0,0,0,.834-.607v-1.656a4.559,4.559,0,0,0-.525-2.413,1.55,1.55,0,0,0-1.342-.834,1.525,1.525,0,0,0-1.364.872,3.932,3.932,0,0,0-.5,2,4.2,4.2,0,0,0,.442,2.093A1.434,1.434,0,0,0,1015.7,893.773Z" transform="translate(-1010.203 -885.171)" fill="#212d51"/>
          </g>
          <g id="Group_98248" data-name="Group 98248" transform="translate(129.329 61.891)">
            <path id="Path_153319" data-name="Path 153319" d="M1915.978,891.885h1.756a2.093,2.093,0,0,0,1.546-.541,2.031,2.031,0,0,0,.541-1.5,1.8,1.8,0,0,0-.486-1.281,1.843,1.843,0,0,0-1.413-.519,2.059,2.059,0,0,0-1.281.42,1.3,1.3,0,0,0-.552,1.082h-3.622l-.022-.066a3.557,3.557,0,0,1,1.513-3.114,6.175,6.175,0,0,1,3.832-1.193,6.72,6.72,0,0,1,4.185,1.2,4.023,4.023,0,0,1,1.568,3.4,3.326,3.326,0,0,1-.679,2.015,4.551,4.551,0,0,1-1.817,1.441,4.325,4.325,0,0,1,2.021,1.441,3.733,3.733,0,0,1,.729,2.313,4.1,4.1,0,0,1-1.69,3.473,7.011,7.011,0,0,1-4.318,1.264,6.726,6.726,0,0,1-3.959-1.187,3.814,3.814,0,0,1-1.64-3.44l.022-.066h3.644a1.653,1.653,0,0,0,.6,1.3,2.149,2.149,0,0,0,1.463.525,2.191,2.191,0,0,0,1.568-.552,1.832,1.832,0,0,0,.585-1.391,2.153,2.153,0,0,0-.613-1.706,2.544,2.544,0,0,0-1.728-.536h-1.756Z" transform="translate(-1912.189 -885.171)" fill="#212d51"/>
          </g>
        </g>
      </g>
      <g id="Group_98283" data-name="Group 98283" transform="translate(184.328 103.927)">
        <g id="Group_98258" data-name="Group 98258" transform="translate(51.659)">
          <g id="Group_98251" data-name="Group 98251" transform="translate(94.145)">
            <path id="Path_153320" data-name="Path 153320" d="M2704.114,969.425a12.027,12.027,0,1,1,12.027-12.027A12.04,12.04,0,0,1,2704.114,969.425Zm0-21.186a9.159,9.159,0,1,0,9.159,9.159A9.169,9.169,0,0,0,2704.114,948.24Z" transform="translate(-2692.088 -945.372)" fill="#9bd6e8"/>
          </g>
          <g id="Group_98252" data-name="Group 98252" transform="translate(79.06)">
            <path id="Path_153321" data-name="Path 153321" d="M2598.908,969.425a12.027,12.027,0,1,1,12.027-12.027A12.04,12.04,0,0,1,2598.908,969.425Zm0-21.186a9.159,9.159,0,1,0,9.159,9.159A9.169,9.169,0,0,0,2598.908,948.24Z" transform="translate(-2586.881 -945.372)" fill="#9bd6e8"/>
          </g>
          <g id="Group_98253" data-name="Group 98253" transform="translate(62.698)">
            <path id="Path_153322" data-name="Path 153322" d="M2484.8,969.425a12.027,12.027,0,1,1,12.027-12.027A12.04,12.04,0,0,1,2484.8,969.425Zm0-21.186a9.159,9.159,0,1,0,9.159,9.159A9.169,9.169,0,0,0,2484.8,948.24Z" transform="translate(-2472.769 -945.372)" fill="#9bd6e8"/>
          </g>
          <g id="Group_98254" data-name="Group 98254" transform="translate(47.614)">
            <path id="Path_153323" data-name="Path 153323" d="M2379.589,969.425a12.027,12.027,0,1,1,12.026-12.027A12.04,12.04,0,0,1,2379.589,969.425Zm0-21.186a9.159,9.159,0,1,0,9.159,9.159A9.169,9.169,0,0,0,2379.589,948.24Z" transform="translate(-2367.562 -945.372)" fill="#9bd6e8"/>
          </g>
          <g id="Group_98255" data-name="Group 98255" transform="translate(31.94)">
            <path id="Path_153324" data-name="Path 153324" d="M2270.277,969.425A12.027,12.027,0,1,1,2282.3,957.4,12.04,12.04,0,0,1,2270.277,969.425Zm0-21.186a9.159,9.159,0,1,0,9.159,9.159A9.169,9.169,0,0,0,2270.277,948.24Z" transform="translate(-2258.25 -945.372)" fill="#9bd6e8"/>
          </g>
          <g id="Group_98256" data-name="Group 98256" transform="translate(16.855)">
            <path id="Path_153325" data-name="Path 153325" d="M2165.07,969.425A12.027,12.027,0,1,1,2177.1,957.4,12.04,12.04,0,0,1,2165.07,969.425Zm0-21.186a9.159,9.159,0,1,0,9.159,9.159A9.169,9.169,0,0,0,2165.07,948.24Z" transform="translate(-2153.043 -945.372)" fill="#9bd6e8"/>
          </g>
          <g id="Group_98257" data-name="Group 98257">
            <path id="Path_153326" data-name="Path 153326" d="M2047.515,969.425a12.027,12.027,0,1,1,12.027-12.027A12.04,12.04,0,0,1,2047.515,969.425Zm0-21.186a9.159,9.159,0,1,0,9.159,9.159A9.169,9.169,0,0,0,2047.515,948.24Z" transform="translate(-2035.488 -945.372)" fill="#9bd6e8"/>
          </g>
        </g>
        <path id="Path_153327" data-name="Path 153327" d="M1845.226,1132.954H1678.071a2.789,2.789,0,0,1-2.811-3.46l18.161-96.784a4.369,4.369,0,0,1,4.109-3.46h167.155a2.789,2.789,0,0,1,2.811,3.46l-18.161,96.784A4.369,4.369,0,0,1,1845.226,1132.954Z" transform="translate(-1675.199 -1017.223)" fill="#212d51"/>
        <path id="Path_153328" data-name="Path 153328" d="M1867.036,1132.954H1699.882a2.789,2.789,0,0,1-2.811-3.46l18.161-96.784a4.37,4.37,0,0,1,4.109-3.46H1886.5a2.789,2.789,0,0,1,2.811,3.46l-18.161,96.784A4.369,4.369,0,0,1,1867.036,1132.954Z" transform="translate(-1693.883 -1017.223)" fill="#2e5b9a"/>
        <path id="Path_153329" data-name="Path 153329" d="M1992.814,1132.954H1825.659a4.307,4.307,0,0,1-4.07-3.46l-17.066-96.784a2.824,2.824,0,0,1,2.85-3.46h167.155a4.307,4.307,0,0,1,4.07,3.46l17.066,96.784A2.824,2.824,0,0,1,1992.814,1132.954Z" transform="translate(-1785.934 -1017.223)" fill="#212d51"/>
        <path id="Path_153330" data-name="Path 153330" d="M2017.116,1132.954H1849.962a4.307,4.307,0,0,1-4.07-3.46l-17.066-96.784a2.824,2.824,0,0,1,2.85-3.46H1998.83a4.307,4.307,0,0,1,4.07,3.46l17.066,96.784A2.824,2.824,0,0,1,2017.116,1132.954Z" transform="translate(-1806.752 -1017.223)" fill="#3e6bab"/>
        <path id="Path_153331" data-name="Path 153331" d="M2804.005,1077.769c.576,1.609.073,2.914-1.125,2.914s-2.636-1.3-3.213-2.914-.073-2.914,1.125-2.914S2803.429,1076.16,2804.005,1077.769Z" transform="translate(-2638.234 -1056.289)" fill="#212d51"/>
        <path id="Path_153332" data-name="Path 153332" d="M2697.247,1077.769c.576,1.609.073,2.914-1.125,2.914s-2.636-1.3-3.212-2.914-.073-2.914,1.125-2.914S2696.671,1076.16,2697.247,1077.769Z" transform="translate(-2546.783 -1056.289)" fill="#212d51"/>
        <path id="Path_153333" data-name="Path 153333" d="M2578.719,1077.769c.576,1.609.073,2.914-1.125,2.914s-2.636-1.3-3.212-2.914-.073-2.914,1.125-2.914S2578.143,1076.16,2578.719,1077.769Z" transform="translate(-2445.251 -1056.289)" fill="#212d51"/>
        <path id="Path_153334" data-name="Path 153334" d="M2471.961,1077.769c.576,1.609.073,2.914-1.125,2.914s-2.636-1.3-3.212-2.914-.073-2.914,1.125-2.914S2471.385,1076.16,2471.961,1077.769Z" transform="translate(-2353.8 -1056.289)" fill="#212d51"/>
        <path id="Path_153335" data-name="Path 153335" d="M2368.776,1079.676c.576,1.609.073,2.914-1.125,2.914s-2.636-1.3-3.213-2.914-.073-2.914,1.125-2.914S2368.2,1078.067,2368.776,1079.676Z" transform="translate(-2265.409 -1057.923)" fill="#212d51"/>
        <path id="Path_153336" data-name="Path 153336" d="M2267.576,1079.676c.576,1.609.073,2.914-1.125,2.914s-2.636-1.3-3.213-2.914-.073-2.914,1.125-2.914S2267,1078.067,2267.576,1079.676Z" transform="translate(-2178.72 -1057.923)" fill="#212d51"/>
        <path id="Path_153337" data-name="Path 153337" d="M2154.812,1079.676c.576,1.609.073,2.914-1.125,2.914s-2.636-1.3-3.213-2.914-.073-2.914,1.125-2.914S2154.236,1078.067,2154.812,1079.676Z" transform="translate(-2082.124 -1057.923)" fill="#212d51"/>
        <g id="Group_98266" data-name="Group 98266" transform="translate(63.621)">
          <g id="Group_98259" data-name="Group 98259" transform="translate(92.776)">
            <path id="Path_153338" data-name="Path 153338" d="M2772.458,968.143a1.434,1.434,0,0,1-.687-2.693,9.16,9.16,0,0,0-4.372-17.209,1.434,1.434,0,1,1,0-2.868,12.028,12.028,0,0,1,5.743,22.6A1.43,1.43,0,0,1,2772.458,968.143Z" transform="translate(-2765.965 -945.372)" fill="#9bd6e8"/>
          </g>
          <g id="Group_98260" data-name="Group 98260" transform="translate(78.197 0.012)">
            <path id="Path_153339" data-name="Path 153339" d="M2670.21,968.249a1.434,1.434,0,0,1-.678-2.7,9.161,9.161,0,0,0-3.879-17.229,1.434,1.434,0,0,1,.135-2.864,12.028,12.028,0,0,1,5.1,22.621A1.429,1.429,0,0,1,2670.21,968.249Z" transform="translate(-2664.287 -945.457)" fill="#9bd6e8"/>
          </g>
          <g id="Group_98261" data-name="Group 98261" transform="translate(61.825 0.011)">
            <path id="Path_153340" data-name="Path 153340" d="M2555.547,968.488a1.434,1.434,0,0,1-.612-2.731,9.161,9.161,0,0,0-3.466-17.441,1.434,1.434,0,1,1,.132-2.864,12.028,12.028,0,0,1,4.556,22.9A1.429,1.429,0,0,1,2555.547,968.488Z" transform="translate(-2550.1 -945.45)" fill="#9bd6e8"/>
          </g>
          <g id="Group_98262" data-name="Group 98262" transform="translate(46.739 0.011)">
            <path id="Path_153341" data-name="Path 153341" d="M2450.029,968.625a1.434,1.434,0,0,1-.57-2.75,9.161,9.161,0,0,0-3.2-17.56,1.434,1.434,0,0,1,.132-2.865,12.029,12.029,0,0,1,4.212,23.056A1.429,1.429,0,0,1,2450.029,968.625Z" transform="translate(-2444.886 -945.449)" fill="#9bd6e8"/>
          </g>
          <g id="Group_98263" data-name="Group 98263" transform="translate(31.123 0.014)">
            <path id="Path_153342" data-name="Path 153342" d="M2341.637,968.373a1.434,1.434,0,0,1-.649-2.713,9.161,9.161,0,0,0-3.655-17.323,1.434,1.434,0,0,1,.147-2.864,12.029,12.029,0,0,1,4.8,22.745A1.429,1.429,0,0,1,2341.637,968.373Z" transform="translate(-2335.973 -945.471)" fill="#9bd6e8"/>
          </g>
          <g id="Group_98264" data-name="Group 98264" transform="translate(16.488 0.046)">
            <path id="Path_153343" data-name="Path 153343" d="M2239.62,968.295a1.434,1.434,0,0,1-.717-2.676,9.161,9.161,0,0,0-3.7-17.061,1.434,1.434,0,1,1,.268-2.855,12.028,12.028,0,0,1,4.86,22.4A1.426,1.426,0,0,1,2239.62,968.295Z" transform="translate(-2233.906 -945.696)" fill="#9bd6e8"/>
          </g>
          <g id="Group_98265" data-name="Group 98265" transform="translate(0 0.088)">
            <path id="Path_153344" data-name="Path 153344" d="M2124.782,968.219a1.434,1.434,0,0,1-.788-2.633,9.161,9.161,0,0,0-3.832-16.747,1.434,1.434,0,1,1,.367-2.844,12.029,12.029,0,0,1,5.038,21.989A1.427,1.427,0,0,1,2124.782,968.219Z" transform="translate(-2118.912 -945.983)" fill="#9bd6e8"/>
          </g>
        </g>
        <path id="Path_153345" data-name="Path 153345" d="M2060.681,1229.41H1903.305a3.752,3.752,0,0,1-3.546-3.015l-13.722-77.82a2.46,2.46,0,0,1,2.483-3.014H2045.9a3.752,3.752,0,0,1,3.546,3.014l13.722,77.82A2.46,2.46,0,0,1,2060.681,1229.41Z" transform="translate(-1855.767 -1116.857)" fill="#fff"/>
        <g id="Group_98278" data-name="Group 98278" transform="translate(36.301 33.775)">
          <g id="Group_98267" data-name="Group 98267">
            <path id="Path_153346" data-name="Path 153346" d="M2093.442,1254.636H1941.373l-.021-.118-12.976-73.588h152.069l.021.118Zm-151.828-.287H2093.1l-12.9-73.133H1928.719Z" transform="translate(-1928.377 -1180.93)" fill="#9ec8ff"/>
          </g>
          <g id="Group_98268" data-name="Group 98268" transform="translate(10.528 58.736)">
            <rect id="Rectangle_35010" data-name="Rectangle 35010" width="151.778" height="0.287" fill="#9ec8ff"/>
          </g>
          <g id="Group_98269" data-name="Group 98269" transform="translate(7.938 44.052)">
            <rect id="Rectangle_35011" data-name="Rectangle 35011" width="151.778" height="0.287" fill="#9ec8ff"/>
          </g>
          <g id="Group_98270" data-name="Group 98270" transform="translate(5.349 29.368)">
            <rect id="Rectangle_35012" data-name="Rectangle 35012" width="151.778" height="0.287" fill="#9ec8ff"/>
          </g>
          <g id="Group_98271" data-name="Group 98271" transform="translate(2.76 14.684)">
            <rect id="Rectangle_35013" data-name="Rectangle 35013" width="151.778" height="0.287" fill="#9ec8ff"/>
          </g>
          <g id="Group_98272" data-name="Group 98272" transform="translate(130.125 0.118)">
            <rect id="Rectangle_35014" data-name="Rectangle 35014" width="0.287" height="74.552" transform="matrix(0.985, -0.174, 0.174, 0.985, 0, 0.05)" fill="#9ec8ff"/>
          </g>
          <g id="Group_98273" data-name="Group 98273" transform="translate(108.442 0.118)">
            <rect id="Rectangle_35015" data-name="Rectangle 35015" width="0.287" height="74.552" transform="matrix(0.985, -0.174, 0.174, 0.985, 0, 0.05)" fill="#9ec8ff"/>
          </g>
          <g id="Group_98274" data-name="Group 98274" transform="translate(86.76 0.118)">
            <rect id="Rectangle_35016" data-name="Rectangle 35016" width="0.287" height="74.552" transform="translate(0 0.05) rotate(-10)" fill="#9ec8ff"/>
          </g>
          <g id="Group_98275" data-name="Group 98275" transform="translate(65.077 0.118)">
            <rect id="Rectangle_35017" data-name="Rectangle 35017" width="0.287" height="74.552" transform="matrix(0.985, -0.174, 0.174, 0.985, 0, 0.05)" fill="#9ec8ff"/>
          </g>
          <g id="Group_98276" data-name="Group 98276" transform="translate(43.395 0.118)">
            <rect id="Rectangle_35018" data-name="Rectangle 35018" width="0.287" height="74.552" transform="matrix(0.985, -0.174, 0.174, 0.985, 0, 0.05)" fill="#9ec8ff"/>
          </g>
          <g id="Group_98277" data-name="Group 98277" transform="translate(21.712 0.118)">
            <rect id="Rectangle_35019" data-name="Rectangle 35019" width="0.287" height="74.552" transform="matrix(0.985, -0.174, 0.174, 0.985, 0, 0.05)" fill="#9ec8ff"/>
          </g>
        </g>
        <path id="Path_153347" data-name="Path 153347" d="M2904.232,1204.306h-5.1a4.42,4.42,0,0,1-4.163-3.539,2.9,2.9,0,0,1,2.915-3.539h5.1a4.42,4.42,0,0,1,4.163,3.539A2.9,2.9,0,0,1,2904.232,1204.306Z" transform="translate(-2720.026 -1161.115)" fill="#f39892"/>
        <path id="Path_153348" data-name="Path 153348" d="M2940.744,1410.964h-8.807a2.107,2.107,0,0,1-1.985-1.687l-.653-3.7a1.38,1.38,0,0,1,1.39-1.687h8.807a2.108,2.108,0,0,1,1.985,1.687l.653,3.7A1.38,1.38,0,0,1,2940.744,1410.964Z" transform="translate(-2749.46 -1338.142)" fill="#f39892"/>
        <path id="Path_153349" data-name="Path 153349" d="M2135.206,1309.286h-11.976a3.006,3.006,0,0,1-2.832-2.407l-.994-5.638a1.97,1.97,0,0,1,1.983-2.407h11.976a3.006,3.006,0,0,1,2.832,2.407l.994,5.638A1.97,1.97,0,0,1,2135.206,1309.286Z" transform="translate(-2055.68 -1248.153)" fill="#9ec8ff"/>
        <path id="Path_153350" data-name="Path 153350" d="M2148.288,1316.611h-8.6a2.16,2.16,0,0,1-2.034-1.729l-.714-4.05a1.415,1.415,0,0,1,1.424-1.729h8.6a2.16,2.16,0,0,1,2.034,1.729l.714,4.05A1.415,1.415,0,0,1,2148.288,1316.611Z" transform="translate(-2070.709 -1256.949)" fill="#fff"/>
        <path id="Path_153351" data-name="Path 153351" d="M2795.456,1615.83h-11.976a3.006,3.006,0,0,1-2.832-2.407l-.994-5.638a1.97,1.97,0,0,1,1.983-2.407h11.976a3.006,3.006,0,0,1,2.832,2.407l.994,5.638A1.97,1.97,0,0,1,2795.456,1615.83Z" transform="translate(-2621.262 -1510.744)" fill="#9ec8ff"/>
        <path id="Path_153352" data-name="Path 153352" d="M2808.538,1623.154h-8.6a2.159,2.159,0,0,1-2.034-1.729l-.714-4.05a1.415,1.415,0,0,1,1.424-1.729h8.6a2.16,2.16,0,0,1,2.034,1.729l.714,4.05A1.415,1.415,0,0,1,2808.538,1623.154Z" transform="translate(-2636.29 -1519.54)" fill="#fff"/>
        <path id="Path_153353" data-name="Path 153353" d="M2469.464,1306.3h-9.383a1.439,1.439,0,0,1-1.355-1.152.943.943,0,0,1,.949-1.152h9.383a1.439,1.439,0,0,1,1.355,1.152A.943.943,0,0,1,2469.464,1306.3Z" transform="translate(-2346.366 -1252.579)" fill="#9ec8ff"/>
        <path id="Path_153354" data-name="Path 153354" d="M2473.918,1331.563h-9.384a1.439,1.439,0,0,1-1.355-1.152.943.943,0,0,1,.949-1.152h9.383a1.439,1.439,0,0,1,1.355,1.152A.943.943,0,0,1,2473.918,1331.563Z" transform="translate(-2350.181 -1274.215)" fill="#9ec8ff"/>
        <path id="Path_153355" data-name="Path 153355" d="M2378.551,1611.126h-9.383a1.439,1.439,0,0,1-1.355-1.152.943.943,0,0,1,.949-1.152h9.383a1.439,1.439,0,0,1,1.356,1.152A.943.943,0,0,1,2378.551,1611.126Z" transform="translate(-2268.488 -1513.694)" fill="#9ec8ff"/>
        <path id="Path_153356" data-name="Path 153356" d="M2383,1636.384h-9.383a1.439,1.439,0,0,1-1.355-1.152.943.943,0,0,1,.949-1.152h9.383a1.439,1.439,0,0,1,1.355,1.152A.943.943,0,0,1,2383,1636.384Z" transform="translate(-2272.304 -1535.33)" fill="#9ec8ff"/>
        <path id="Path_153357" data-name="Path 153357" d="M2005.58,1419.967H1996.2a1.439,1.439,0,0,1-1.355-1.152.943.943,0,0,1,.949-1.152h9.383a1.439,1.439,0,0,1,1.355,1.152A.943.943,0,0,1,2005.58,1419.967Z" transform="translate(-1948.995 -1349.944)" fill="#9ec8ff"/>
        <path id="Path_153358" data-name="Path 153358" d="M2010.034,1445.225h-9.383a1.439,1.439,0,0,1-1.356-1.152.943.943,0,0,1,.949-1.152h9.383a1.439,1.439,0,0,1,1.355,1.152A.943.943,0,0,1,2010.034,1445.225Z" transform="translate(-1952.81 -1371.58)" fill="#9ec8ff"/>
        <g id="Group_98280" data-name="Group 98280" transform="translate(68.643 80.395)">
          <path id="Path_153359" data-name="Path 153359" d="M2171.545,1516.692h-13.9a2.73,2.73,0,0,1-2.572-2.186l-1.1-6.241a1.789,1.789,0,0,1,1.8-2.186h13.9a2.73,2.73,0,0,1,2.572,2.186l1.1,6.241A1.788,1.788,0,0,1,2171.545,1516.692Z" transform="translate(-2153.939 -1506.078)" fill="#ff2f05"/>
          <g id="Group_98279" data-name="Group 98279" transform="translate(5.765 2.05)">
            <path id="Path_153360" data-name="Path 153360" d="M2197.551,1526.383a.286.286,0,0,1-.2-.078l-3.121-2.954a.287.287,0,1,1,.394-.417l2.9,2.746,4.4-5.2a.287.287,0,0,1,.438.37l-4.6,5.436a.288.288,0,0,1-.2.1Z" transform="translate(-2194.144 -1520.374)" fill="#fff"/>
          </g>
        </g>
        <g id="Group_98282" data-name="Group 98282" transform="translate(125.704 35.702)">
          <path id="Path_153361" data-name="Path 153361" d="M2569.509,1204.982h-13.9a2.73,2.73,0,0,1-2.572-2.187l-1.1-6.241a1.789,1.789,0,0,1,1.8-2.186h13.9a2.73,2.73,0,0,1,2.572,2.186l1.1,6.241A1.789,1.789,0,0,1,2569.509,1204.982Z" transform="translate(-2551.903 -1194.368)" fill="#ff2f05"/>
          <g id="Group_98281" data-name="Group 98281" transform="translate(5.765 2.05)">
            <path id="Path_153362" data-name="Path 153362" d="M2595.515,1214.673a.287.287,0,0,1-.2-.079l-3.121-2.954a.287.287,0,0,1,.394-.416l2.9,2.746,4.4-5.2a.287.287,0,1,1,.438.37l-4.6,5.436a.287.287,0,0,1-.2.1Z" transform="translate(-2592.108 -1208.663)" fill="#fff"/>
          </g>
        </g>
        <path id="Path_153363" data-name="Path 153363" d="M2645.732,1511a4.03,4.03,0,0,1-4.068,4.939,6.148,6.148,0,0,1-5.81-4.939,4.03,4.03,0,0,1,4.068-4.938A6.147,6.147,0,0,1,2645.732,1511Z" transform="translate(-2498.048 -1425.672)" fill="#9ec8ff"/>
        <path id="Path_153364" data-name="Path 153364" d="M2218.218,1616.055a4.03,4.03,0,0,1-4.068,4.939,6.147,6.147,0,0,1-5.809-4.939,4.03,4.03,0,0,1,4.068-4.938A6.147,6.147,0,0,1,2218.218,1616.055Z" transform="translate(-2131.832 -1515.661)" fill="#9ec8ff"/>
      </g>
      <g id="Group_98285" data-name="Group 98285" transform="translate(2.151 81.186)">
        <path id="Path_153365" data-name="Path 153365" d="M427.228,831.427H449.82a22.593,22.593,0,1,1-22.593-22.593Z" transform="translate(-404.635 -805.671)" fill="#3357f0"/>
        <g id="Group_98284" data-name="Group 98284" transform="translate(26.377)">
          <path id="Path_153366" data-name="Path 153366" d="M611.188,809.364a22.593,22.593,0,0,0-22.593-22.593v22.593Z" transform="translate(-588.595 -786.771)" fill="#f39892"/>
        </g>
      </g>
      <g id="Group_98288" data-name="Group 98288" transform="translate(0 113.803)">
        <rect id="Rectangle_35020" data-name="Rectangle 35020" width="13.973" height="29.489" transform="translate(6.022 69.915)" fill="#9ec8ff"/>
        <rect id="Rectangle_35021" data-name="Rectangle 35021" width="13.973" height="60.301" transform="translate(49.213 39.102)" fill="#9ec8ff"/>
        <rect id="Rectangle_35022" data-name="Rectangle 35022" width="13.973" height="31.013" transform="translate(70.809 68.391)" fill="#9ec8ff"/>
        <rect id="Rectangle_35023" data-name="Rectangle 35023" width="13.973" height="39.791" transform="translate(92.405 59.612)" fill="#9ec8ff"/>
        <rect id="Rectangle_35024" data-name="Rectangle 35024" width="13.973" height="48.959" transform="translate(27.617 50.444)" fill="#9ec8ff"/>
        <rect id="Rectangle_35025" data-name="Rectangle 35025" width="13.973" height="75.221" transform="translate(114.073 24.183)" fill="#9ec8ff"/>
        <rect id="Rectangle_35026" data-name="Rectangle 35026" width="12.544" height="29.489" transform="translate(7.419 71.312)" fill="#5d9ef5"/>
        <rect id="Rectangle_35027" data-name="Rectangle 35027" width="12.544" height="60.301" transform="translate(50.611 40.5)" fill="#5d9ef5"/>
        <rect id="Rectangle_35028" data-name="Rectangle 35028" width="12.544" height="31.013" transform="translate(72.206 69.788)" fill="#5d9ef5"/>
        <rect id="Rectangle_35029" data-name="Rectangle 35029" width="12.545" height="39.791" transform="translate(93.802 61.01)" fill="#5d9ef5"/>
        <rect id="Rectangle_35030" data-name="Rectangle 35030" width="12.544" height="48.959" transform="translate(29.015 51.842)" fill="#5d9ef5"/>
        <rect id="Rectangle_35031" data-name="Rectangle 35031" width="12.544" height="75.221" transform="translate(115.47 25.58)" fill="#5d9ef5"/>
        <g id="Group_98286" data-name="Group 98286" transform="translate(0 1.128)">
          <path id="Path_153367" data-name="Path 153367" d="M391.786,1082.833a2.151,2.151,0,0,1-1.229-3.917l54.732-38.016a2.15,2.15,0,0,1,2.836.339l20.114,22.683,43.088-41.209a2.151,2.151,0,0,1,2.973,3.109l-44.7,42.752a2.151,2.151,0,0,1-3.1-.127l-20.328-22.924-53.163,36.926A2.141,2.141,0,0,1,391.786,1082.833Z" transform="translate(-389.633 -1022.117)" fill="#ff2f05"/>
        </g>
        <g id="Group_98287" data-name="Group 98287" transform="translate(111.273)">
          <path id="Path_153368" data-name="Path 153368" d="M1176.86,1028.97a2.153,2.153,0,0,1-2.109-2.582l1.545-7.553-8.241.834a2.151,2.151,0,0,1-.433-4.28l11.151-1.128a2.15,2.15,0,0,1,2.323,2.571l-2.131,10.418A2.151,2.151,0,0,1,1176.86,1028.97Z" transform="translate(-1165.688 -1014.25)" fill="#ff2f05"/>
        </g>
      </g>
    </g>
    <g id="Group_98292" data-name="Group 98292" transform="translate(707.621 308.782)">
      <path id="Path_153369" data-name="Path 153369" d="M2845.973,843.549c3.854-7.711,13.938-11.208,16.8-2.619s3.854,9.135,7.883,12.729c13.98,12.468-7.28,19.941-14.763,23.217s-10.475-10.606-11.045-21.638C2844.4,846.618,2844.845,845.805,2845.973,843.549Z" transform="translate(-2810.654 -835.918)" fill="#303c60"/>
      <path id="Path_153370" data-name="Path 153370" d="M2878.68,1700.463c.754,3.065-.735,5.5-2.728,7.268-1.621,1.441-6.6,2.053-6.364,2.774s6.124.949,8.1.649,2.522-1.261,4.988-1.26c1.616,0,1.917-1.314,1.2-2.939s-.972-2.523-.321-3.98S2878.68,1700.463,2878.68,1700.463Z" transform="translate(-2831.986 -1576.502)" fill="#4476bd"/>
      <path id="Path_153371" data-name="Path 153371" d="M3105.795,1687.141c-.12,3.182-.489,5.553.291,7.028,3.014,2.521,5.52,5.386,4.563,5.583-4.563.943-6.3-1.792-8.886-2.57-3.168-.954.3-4.935-.941-10.041-.69-2.839,4.783-2.158,4.783-2.158Z" transform="translate(-3029.7 -1563.181)" fill="#4476bd"/>
      <path id="Path_153372" data-name="Path 153372" d="M2939.7,1193.976c-2,16.811-5.639,29.238-6.044,37.208s-2.026,39.349-2.026,39.349,4.458-.312,4.863-.987,8.375-18.371,7.969-29.312,7.96-27.578,7.96-27.578l-2.017-16.323Z" transform="translate(-2885.141 -1142.637)" fill="#f37168"/>
      <path id="Path_153373" data-name="Path 153373" d="M2966.945,1245.019l-3.131,1.31c-.851,5.331-1.795,10.124-2.624,14.375,4.982,3.221,7.556,13.952,8.658,20.512.562-7.341,4.025-16.211,6.175-21.116Z" transform="translate(-2910.461 -1186.361)" fill="#d54a41"/>
      <path id="Path_153374" data-name="Path 153374" d="M3022.335,1182.156s6.747,8.606,6.536,18.371c-.322,14.864-1.943,19.107.877,34.693,1.1,6.087-2.431,26-2.431,26s-3.018.237-4.639-.571c.135-1.463-1.95-25.262-6.012-36.2-1.967-5.3-4.731-20.136-6.217-28.645s-1.756-10.266-1.216-10.266S3022.335,1182.156,3022.335,1182.156Z" transform="translate(-2951.396 -1132.511)" fill="#f37168"/>
      <path id="Path_153375" data-name="Path 153375" d="M2618.238,1305.584l-9.322,1.075a1.439,1.439,0,0,1-1.479-.989.943.943,0,0,1,.811-1.254l9.322-1.075a1.439,1.439,0,0,1,1.479.989A.943.943,0,0,1,2618.238,1305.584Z" transform="translate(-2607.39 -1236.315)" fill="#85baff"/>
      <path id="Path_153376" data-name="Path 153376" d="M2625.556,1330.166l-9.321,1.075a1.439,1.439,0,0,1-1.479-.989.943.943,0,0,1,.811-1.254l9.322-1.075a1.439,1.439,0,0,1,1.479.989A.943.943,0,0,1,2625.556,1330.166Z" transform="translate(-2613.659 -1257.372)" fill="#85baff"/>
      <path id="Path_153377" data-name="Path 153377" d="M2661.367,1282.471a15.78,15.78,0,0,1-6.455.932c-1.976-.14-3.28,1.025-4.445,1.49s-1.63,1.2.326.932a24.3,24.3,0,0,1,2.9-.267,7.4,7.4,0,0,1,2.063.781,8.591,8.591,0,0,1,1.028.9,1.8,1.8,0,0,1,.058,2.271c-.534.691-.88,1.454-1.431,1.725-1.033.509-.06,1.122.97.509a10.115,10.115,0,0,0,2.282-2.236c1.066-1.184,2.05-3.1,3.028-3.946S2661.367,1282.471,2661.367,1282.471Z" transform="translate(-2643.428 -1218.443)" fill="#f09959"/>
      <path id="Path_153378" data-name="Path 153378" d="M2752.4,1050.182c-4.532,9.319-8.817,19.286-14.5,23.944a117.8,117.8,0,0,1-14.756,9.63s1.249,3.5,1.807,3.6,14.067-4.686,17.979-7.28,12.18-11.368,12.18-11.368Z" transform="translate(-2706.549 -1019.46)" fill="#a2dff2"/>
      <path id="Path_153379" data-name="Path 153379" d="M2915.322,1055.187c3.722-3.353,7.381-8.874,7.267-9.456-.153-.78-5.647-15.187-5.647-15.187-1.189,2.8-2.217,5.265-3.1,7.421C2914.389,1044.494,2916.833,1050.937,2915.322,1055.187Z" transform="translate(-2869.899 -1002.638)" fill="#96cfe0"/>
      <path id="Path_153380" data-name="Path 153380" d="M2931.488,963.628s10.082,1.2,14.681,8.1,2.464,18.251,3.589,23.49-14.142,11.744-16.072,6.4c-1.85-5.125-9.683-14.594-10.463-17.445-1.831-6.688,4.8-18.085,4.8-18.085Z" transform="translate(-2877.664 -945.317)" fill="#a2dff2"/>
      <path id="Path_153381" data-name="Path 153381" d="M2910.206,901.435l7.746,9.979a104.635,104.635,0,0,0-6.9,14.116c-1.486-4.928.662-11.661.662-11.661l-6.626-9.672Z" transform="translate(-2862.405 -892.041)" fill="#f09959"/>
      <path id="Path_153382" data-name="Path 153382" d="M2913.818,906.089l-3.613-4.654-5.115,2.763,6.626,9.672s-.115.529-.269,1.352A13.851,13.851,0,0,0,2913.818,906.089Z" transform="translate(-2862.405 -892.041)" fill="#e38540"/>
      <path id="Path_153383" data-name="Path 153383" d="M2868.242,884c.31,3.954-2.8,7.316-5.793,7.55s-4.725-2.747-5.035-6.7,1.863-7.349,4.853-7.583S2867.932,880.051,2868.242,884Z" transform="translate(-2821.54 -871.33)" fill="#f09959"/>
      <path id="Path_153384" data-name="Path 153384" d="M2962.652,1113.985c1.262,8-3.423,25.1-3.423,25.1s2.794.635,11.169-.176,12.068-9.169,13.328-9.4,1.908,7.779,2.53,8.412.717-10.118-.909-14.344c-2.882-7.492-2.317-10.67-1.24-15.209C2986.022,1100.3,2962.652,1113.985,2962.652,1113.985Z" transform="translate(-2908.781 -1067.12)" fill="#a2dff2"/>
      <path id="Path_153385" data-name="Path 153385" d="M3018.678,1017.7a14.977,14.977,0,0,0-.681-2.608c-2.882-7.492-2.317-10.67-1.24-15.209.085-.358-6.689-11.242-6.689-11.242l-8.8-9.463c-8.45,13.718,1.755,20.212.963,25.525s-4.882,9.355-4.882,9.355l.288,1.885a4.787,4.787,0,0,0,5.384,4.022c3.65-.506,8.438-1.524,10.569-3.5C3015.647,1014.552,3017.473,1016.033,3018.678,1017.7Z" transform="translate(-2941.431 -958.638)" fill="#96cfe0"/>
      <path id="Path_153386" data-name="Path 153386" d="M2966.943,1231.487s-3.674,1.728-4.094,2.047-.461,1.636-.461,1.636-1.884,2.288-.925,2.824,2.759,2,4.62.865c1.143-.7,1.334-5.358,2.131-5.53S2966.943,1231.487,2966.943,1231.487Z" transform="translate(-2910.462 -1174.769)" fill="#f09959"/>
      <path id="Path_153387" data-name="Path 153387" d="M3000.908,974.315c4.146-.578,9.138,6.224,11.527,12.452s5.3,15.163,5.3,15.163-5.929,6.548-12.421,9.263c-5.663,2.368-8.581,3.413-8.581,3.413l-1.762-3.164,12.708-10.658s-6.83-8.9-8.587-16.18S2997.757,974.754,3000.908,974.315Z" transform="translate(-2939.403 -954.442)" fill="#a2dff2"/>
      <path id="Path_153388" data-name="Path 153388" d="M2852.459,871.6c2.767,6.98,10.816,3.462,12.917,2.211s2.627,15.885,7.249,15.215c3.394-.491,1.612-4.688,4.937-6.418a3.946,3.946,0,0,1,4.378.491,5.1,5.1,0,0,0-2.339-2.034c-1.571-.64-7.8-4.832-10.31-9.224s-9.138-5.425-10.809-4.928-5.008,3.809-5.008,3.809Z" transform="translate(-2817.32 -862.371)" fill="#303c60"/>
      <g id="Group_98290" data-name="Group 98290" transform="translate(48.215 10.906)">
        <path id="Path_153389" data-name="Path 153389" d="M2950.579,929.593c-3.072,0-4.41-6.035-5.953-12.985-.307-1.385-.625-2.818-.958-4.195a.349.349,0,1,1,.679-.164c.335,1.383.653,2.819.961,4.208,1.4,6.287,2.838,12.783,5.513,12.421,1.618-.223,1.93-3.741,1.683-6.96a.349.349,0,1,1,.7-.054c.169,2.2.284,7.352-2.284,7.706A2.484,2.484,0,0,1,2950.579,929.593Z" transform="translate(-2943.658 -911.982)" fill="#303c60"/>
      </g>
      <g id="Group_98291" data-name="Group 98291" transform="translate(47.707 11.09)">
        <path id="Path_153390" data-name="Path 153390" d="M2947.668,932.527a1.954,1.954,0,0,1-.885-.223c-3.941-1.986-6.555-17.959-6.665-18.638a.349.349,0,0,1,.69-.111c.729,4.528,3.281,16.609,6.29,18.125a1.187,1.187,0,0,0,1.148,0c1.324-.686,1.45-2.931,1.56-4.912.112-2,.217-3.891,1.523-4.311a.349.349,0,1,1,.214.665c-.849.273-.941,1.93-1.039,3.685-.121,2.167-.258,4.624-1.937,5.493A1.938,1.938,0,0,1,2947.668,932.527Z" transform="translate(-2940.114 -913.262)" fill="#303c60"/>
      </g>
      <path id="Path_153391" data-name="Path 153391" d="M2932.365,911.3c-.311.958-1.125,1.553-1.819,1.328a1.635,1.635,0,0,1-.694-2.143c.311-.958,1.125-1.553,1.819-1.328A1.635,1.635,0,0,1,2932.365,911.3Z" transform="translate(-2883.513 -898.614)" fill="#f09959"/>
    </g>
    <g id="Group_98293" data-name="Group 98293" transform="translate(487.553 365.463)">
      <path id="Path_153392" data-name="Path 153392" d="M1113.058,1602.2s-26.653-18.513-37.928-7.839c-9,8.523,6.977,18.537,27.42,15.844,14.389-1.9,16.02.857,18.541.8,18.755-1.437,44.026-7.048,31.728-15.864-16.754-12.009-28.086.722-33.924,3.891Z" transform="translate(-1072.561 -1538.63)" fill="#232e4f"/>
      <path id="Path_153393" data-name="Path 153393" d="M1173.495,1603.006c-7.005-1.446-33.693,8.451-33.693,8.451s-23.24-7.005-28.8-7.672-8.117,1.445-8.117,1.445,2.623-2.956,5.671-3.225,7.45-1,7.45-1,44.479-2.113,50.372-.778S1173.495,1603.006,1173.495,1603.006Z" transform="translate(-1098.537 -1546.94)" fill="#1b243d"/>
      <path id="Path_153394" data-name="Path 153394" d="M1226.021,1371c-1.057.167-17.487,7.334-17.688,10.336s4.5,27.358,13.6,30.527,19.269,0,19.269,0,10.674-26.352,7.505-31.356-17.513-9.507-17.513-9.507Z" transform="translate(-1188.86 -1350.957)" fill="#ffd24f"/>
      <path id="Path_153395" data-name="Path 153395" d="M1146.231,1403.152c-15.7,8.411-19.551,23.6-15.4,26.943,2.909,2.345,13.877,7.533,23.384,7.2a155.074,155.074,0,0,1,18.435.562s16.309-3.318,19.561-8.206-5.771-20.764-13.862-25.353S1146.231,1403.152,1146.231,1403.152Z" transform="translate(-1121.146 -1377.44)" fill="#ffd24f"/>
      <path id="Path_153396" data-name="Path 153396" d="M1328.311,1310.752a3.959,3.959,0,0,1-3.948-3.948v-13.286a3.948,3.948,0,1,1,7.9,0V1306.8A3.959,3.959,0,0,1,1328.311,1310.752Z" transform="translate(-1288.259 -1281.206)" fill="#f09959"/>
      <path id="Path_153397" data-name="Path 153397" d="M1328.311,1289.57a3.959,3.959,0,0,0-3.948,3.948v10.865c2.328,1.945,4.581.926,7.9-1.643v-9.222A3.959,3.959,0,0,0,1328.311,1289.57Z" transform="translate(-1288.259 -1281.206)" fill="#e38540"/>
      <path id="Path_153398" data-name="Path 153398" d="M1395.34,1301.295c-.649,1.324-1.7,2.058-2.353,1.64s-.653-1.831,0-3.155,1.7-2.059,2.353-1.64S1395.989,1299.97,1395.34,1301.295Z" transform="translate(-1346.624 -1288.446)" fill="#f09959"/>
      <path id="Path_153399" data-name="Path 153399" d="M1289.4,1302.843c.75,1.2.894,2.661.322,3.252s-1.645.094-2.395-1.111-.894-2.661-.322-3.252S1288.648,1301.637,1289.4,1302.843Z" transform="translate(-1255.956 -1291.41)" fill="#f09959"/>
      <path id="Path_153400" data-name="Path 153400" d="M1319.362,1268.028c0,4.828-3.039,8.742-6.789,8.742s-6.789-3.914-6.789-8.742,3.04-8.742,6.789-8.742S1319.362,1263.2,1319.362,1268.028Z" transform="translate(-1272.344 -1255.264)" fill="#f09959"/>
      <path id="Path_153401" data-name="Path 153401" d="M1429.007,1471.152c4.448,2.372,8.324,11.361,8.324,11.361s-10.008,1.557-12.083,3.113.3-.593,1.483-4.893S1429.007,1471.152,1429.007,1471.152Z" transform="translate(-1373.975 -1436.752)" fill="#edc055"/>
      <path id="Path_153402" data-name="Path 153402" d="M1179.734,1466.634c1.038,4.744,6,17.99,6,17.99s-4.6-5.24-9.489-5.536-6.7-.371-6.672.815c.006.234.815-5.263,4.6-8.673A57,57,0,0,1,1179.734,1466.634Z" transform="translate(-1155.667 -1432.882)" fill="#edc055"/>
      <path id="Path_153403" data-name="Path 153403" d="M1255.306,1533.012h-26.857a2.215,2.215,0,0,1-2.185-1.849l-3.238-19.328a2.215,2.215,0,0,1,2.185-2.581h33.334a2.215,2.215,0,0,1,2.185,2.581l-3.238,19.328A2.215,2.215,0,0,1,1255.306,1533.012Z" transform="translate(-1201.425 -1469.391)" fill="#2a66c6"/>
      <path id="Path_153404" data-name="Path 153404" d="M1255.306,1538.133h-26.857a2.193,2.193,0,0,1-2.185-1.782l-3.238-18.63a2.161,2.161,0,0,1,2.185-2.488h33.334a2.161,2.161,0,0,1,2.185,2.488l-3.238,18.63A2.193,2.193,0,0,1,1255.306,1538.133Z" transform="translate(-1201.425 -1474.512)" fill="#63acc2"/>
      <path id="Path_153405" data-name="Path 153405" d="M1249.475,1714.166c-.161-.028-17.346-4.329-21.182-1.16s12.843,3.223,15.845,2.529S1249.475,1714.166,1249.475,1714.166Z" transform="translate(-1205.476 -1642.931)" fill="#1b243d"/>
      <path id="Path_153406" data-name="Path 153406" d="M1406.181,1719.539a13.141,13.141,0,0,1,8.506-2.265c4.837.5,9.006,1.555,4.837,2.862a30.655,30.655,0,0,1-10.507,1.307A3.631,3.631,0,0,1,1406.181,1719.539Z" transform="translate(-1358.346 -1647.533)" fill="#1b243d"/>
      <path id="Path_153407" data-name="Path 153407" d="M1322.52,1231.675c-4.41,1.338-2.875,13.753,2.167,13.344s5.246-5.777,4.889-9.254S1327.07,1230.295,1322.52,1231.675Z" transform="translate(-1284.458 -1231.234)" fill="#0f2d5c"/>
      <path id="Path_153408" data-name="Path 153408" d="M1297.8,1245.627c-1.227-1.176-2.914,2.525-2.25,4.151s-.265,2.573.634,4.323-1.657-1.112-2.015-3.208-.562-5.726-1.073-7.362.026-4.473,2.3-5.061,2.808-1.636,3.678-1.687a18.839,18.839,0,0,1,7.055,1.482,5.317,5.317,0,0,1,3.016,5.368c-.153,2.556-.818,9.1-1.431,10.174s-.931.819-.747.205.849-4.3.338-5.625-.256-4.6-1.585-4.857-1.022,2.011-2.607,2.181A45.815,45.815,0,0,1,1297.8,1245.627Z" transform="translate(-1261.327 -1235.983)" fill="#0f2d5c"/>
    </g>
  </g>
</svg>
