<svg xmlns="http://www.w3.org/2000/svg" width="371.563" height="279.574" viewBox="0 0 371.563 279.574">
  <g id="Group_100029" data-name="Group 100029" transform="translate(-1020 -1137.647)">
    <g id="Group_79776" data-name="Group 79776" transform="translate(98.502)">
      <g id="Group_79644" data-name="Group 79644" transform="translate(921.498 1137.647)">
        <path id="Path_145968" data-name="Path 145968" d="M61.969,0A61.969,61.969,0,1,1,0,61.969,61.969,61.969,0,0,1,61.969,0Z" transform="translate(238.103 150.33)" fill="#fe502d" opacity="0.444" style="mix-blend-mode: multiply;isolation: isolate"/>
        <path id="Path_145969" data-name="Path 145969" d="M42.343,0A42.343,42.343,0,1,1,0,42.343,42.344,42.344,0,0,1,42.343,0Z" transform="translate(34.622 16.168)" fill="#fe502d" opacity="0.444" style="mix-blend-mode: multiply;isolation: isolate"/>
        <rect id="Rectangle_34812" data-name="Rectangle 34812" width="371.563" height="278.672" transform="translate(0 0.451)" fill="none"/>
        <path id="Path_145967" data-name="Path 145967" d="M139.787,0A139.787,139.787,0,1,1,0,139.787,139.787,139.787,0,0,1,139.787,0Z" transform="translate(45.995)" fill="#0d2380"/>
        <path id="Path_145971" data-name="Path 145971" d="M11.642,0A11.642,11.642,0,1,1,0,11.642,11.642,11.642,0,0,1,11.642,0Z" transform="translate(45.995 232.768)" fill="#fe502d" opacity="0.444" style="mix-blend-mode: multiply;isolation: isolate"/>
        <g id="Group_78276" data-name="Group 78276" transform="translate(267.348 193.764)">
          <g id="Group_53306" data-name="Group 53306" transform="translate(0)">
            <path id="Path_99200" data-name="Path 99200" d="M415.9,51.028a.842.842,0,1,1-.842-.8A.824.824,0,0,1,415.9,51.028Z" transform="translate(-414.214 -50.224)" fill="#fff"/>
            <path id="Path_99201" data-name="Path 99201" d="M424.343,51.028a.842.842,0,1,1-.841-.8A.823.823,0,0,1,424.343,51.028Z" transform="translate(-415.087 -50.224)" fill="#fff"/>
            <path id="Path_99202" data-name="Path 99202" d="M432.789,51.028a.842.842,0,1,1-.841-.8A.823.823,0,0,1,432.789,51.028Z" transform="translate(-415.96 -50.224)" fill="#fff"/>
            <path id="Path_99203" data-name="Path 99203" d="M441.236,51.028a.842.842,0,1,1-.842-.8A.824.824,0,0,1,441.236,51.028Z" transform="translate(-416.834 -50.224)" fill="#fff"/>
            <path id="Path_99204" data-name="Path 99204" d="M449.682,51.028a.842.842,0,1,1-.841-.8A.824.824,0,0,1,449.682,51.028Z" transform="translate(-417.707 -50.224)" fill="#fff"/>
            <path id="Path_99205" data-name="Path 99205" d="M458.128,51.028a.842.842,0,1,1-.841-.8A.823.823,0,0,1,458.128,51.028Z" transform="translate(-418.58 -50.224)" fill="#fff"/>
            <path id="Path_99206" data-name="Path 99206" d="M466.575,51.028a.842.842,0,1,1-.842-.8A.824.824,0,0,1,466.575,51.028Z" transform="translate(-419.453 -50.224)" fill="#fff"/>
            <path id="Path_99207" data-name="Path 99207" d="M475.021,51.028a.842.842,0,1,1-.841-.8A.823.823,0,0,1,475.021,51.028Z" transform="translate(-420.326 -50.224)" fill="#fff"/>
            <path id="Path_99208" data-name="Path 99208" d="M483.467,51.028a.842.842,0,1,1-.841-.8A.824.824,0,0,1,483.467,51.028Z" transform="translate(-421.199 -50.224)" fill="#fff"/>
            <path id="Path_99209" data-name="Path 99209" d="M491.914,51.028a.842.842,0,1,1-.842-.8A.824.824,0,0,1,491.914,51.028Z" transform="translate(-422.073 -50.224)" fill="#fff"/>
            <path id="Path_99210" data-name="Path 99210" d="M500.36,51.028a.842.842,0,1,1-.842-.8A.824.824,0,0,1,500.36,51.028Z" transform="translate(-422.946 -50.224)" fill="#fff"/>
          </g>
          <g id="Group_53307" data-name="Group 53307" transform="translate(0 6.438)">
            <path id="Path_99211" data-name="Path 99211" d="M415.9,58.536a.842.842,0,1,1-.842-.8A.824.824,0,0,1,415.9,58.536Z" transform="translate(-414.214 -57.732)" fill="#fff"/>
            <path id="Path_99212" data-name="Path 99212" d="M424.343,58.536a.842.842,0,1,1-.841-.8A.823.823,0,0,1,424.343,58.536Z" transform="translate(-415.087 -57.732)" fill="#fff"/>
            <path id="Path_99213" data-name="Path 99213" d="M432.789,58.536a.842.842,0,1,1-.841-.8A.823.823,0,0,1,432.789,58.536Z" transform="translate(-415.96 -57.732)" fill="#fff"/>
            <path id="Path_99214" data-name="Path 99214" d="M441.236,58.536a.842.842,0,1,1-.842-.8A.824.824,0,0,1,441.236,58.536Z" transform="translate(-416.834 -57.732)" fill="#fff"/>
            <path id="Path_99215" data-name="Path 99215" d="M449.682,58.536a.842.842,0,1,1-.841-.8A.824.824,0,0,1,449.682,58.536Z" transform="translate(-417.707 -57.732)" fill="#fff"/>
            <path id="Path_99216" data-name="Path 99216" d="M458.128,58.536a.842.842,0,1,1-.841-.8A.823.823,0,0,1,458.128,58.536Z" transform="translate(-418.58 -57.732)" fill="#fff"/>
            <path id="Path_99217" data-name="Path 99217" d="M466.575,58.536a.842.842,0,1,1-.842-.8A.824.824,0,0,1,466.575,58.536Z" transform="translate(-419.453 -57.732)" fill="#fff"/>
            <path id="Path_99218" data-name="Path 99218" d="M475.021,58.536a.842.842,0,1,1-.841-.8A.823.823,0,0,1,475.021,58.536Z" transform="translate(-420.326 -57.732)" fill="#fff"/>
            <path id="Path_99219" data-name="Path 99219" d="M483.467,58.536a.842.842,0,1,1-.841-.8A.824.824,0,0,1,483.467,58.536Z" transform="translate(-421.199 -57.732)" fill="#fff"/>
            <path id="Path_99220" data-name="Path 99220" d="M491.914,58.536a.842.842,0,1,1-.842-.8A.824.824,0,0,1,491.914,58.536Z" transform="translate(-422.073 -57.732)" fill="#fff"/>
            <path id="Path_99221" data-name="Path 99221" d="M500.36,58.536a.842.842,0,1,1-.842-.8A.824.824,0,0,1,500.36,58.536Z" transform="translate(-422.946 -57.732)" fill="#fff"/>
          </g>
          <g id="Group_53308" data-name="Group 53308" transform="translate(0 12.875)">
            <ellipse id="Ellipse_3955" data-name="Ellipse 3955" cx="0.841" cy="0.805" rx="0.841" ry="0.805" fill="#fff"/>
            <path id="Path_99222" data-name="Path 99222" d="M424.343,66.044a.842.842,0,1,1-.841-.8A.824.824,0,0,1,424.343,66.044Z" transform="translate(-415.087 -65.24)" fill="#fff"/>
            <ellipse id="Ellipse_3956" data-name="Ellipse 3956" cx="0.841" cy="0.805" rx="0.841" ry="0.805" transform="translate(15.146)" fill="#fff"/>
            <path id="Path_99223" data-name="Path 99223" d="M441.236,66.044a.842.842,0,1,1-.842-.8A.824.824,0,0,1,441.236,66.044Z" transform="translate(-416.833 -65.24)" fill="#fff"/>
            <path id="Path_99224" data-name="Path 99224" d="M449.682,66.044a.842.842,0,1,1-.841-.8A.824.824,0,0,1,449.682,66.044Z" transform="translate(-417.707 -65.24)" fill="#fff"/>
            <ellipse id="Ellipse_3957" data-name="Ellipse 3957" cx="0.841" cy="0.805" rx="0.841" ry="0.805" transform="translate(37.866)" fill="#fff"/>
            <path id="Path_99225" data-name="Path 99225" d="M466.575,66.044a.842.842,0,1,1-.842-.8A.825.825,0,0,1,466.575,66.044Z" transform="translate(-419.453 -65.24)" fill="#fff"/>
            <ellipse id="Ellipse_3958" data-name="Ellipse 3958" cx="0.841" cy="0.805" rx="0.841" ry="0.805" transform="translate(53.012)" fill="#fff"/>
            <ellipse id="Ellipse_3959" data-name="Ellipse 3959" cx="0.841" cy="0.805" rx="0.841" ry="0.805" transform="translate(60.585)" fill="#fff"/>
            <path id="Path_99226" data-name="Path 99226" d="M491.914,66.044a.842.842,0,1,1-.842-.8A.825.825,0,0,1,491.914,66.044Z" transform="translate(-422.073 -65.24)" fill="#fff"/>
            <path id="Path_99227" data-name="Path 99227" d="M500.36,66.044a.842.842,0,1,1-.842-.8A.824.824,0,0,1,500.36,66.044Z" transform="translate(-422.946 -65.24)" fill="#fff"/>
          </g>
          <g id="Group_53309" data-name="Group 53309" transform="translate(0 19.313)">
            <ellipse id="Ellipse_3960" data-name="Ellipse 3960" cx="0.841" cy="0.805" rx="0.841" ry="0.805" transform="translate(0 0)" fill="#fff"/>
            <path id="Path_99228" data-name="Path 99228" d="M424.343,73.552a.842.842,0,1,1-.841-.805A.823.823,0,0,1,424.343,73.552Z" transform="translate(-415.087 -72.747)" fill="#fff"/>
            <ellipse id="Ellipse_3961" data-name="Ellipse 3961" cx="0.841" cy="0.805" rx="0.841" ry="0.805" transform="translate(15.146 0)" fill="#fff"/>
            <path id="Path_99229" data-name="Path 99229" d="M441.236,73.552a.842.842,0,1,1-.842-.805A.824.824,0,0,1,441.236,73.552Z" transform="translate(-416.833 -72.747)" fill="#fff"/>
            <path id="Path_99230" data-name="Path 99230" d="M449.682,73.552a.842.842,0,1,1-.841-.805A.823.823,0,0,1,449.682,73.552Z" transform="translate(-417.707 -72.747)" fill="#fff"/>
            <ellipse id="Ellipse_3962" data-name="Ellipse 3962" cx="0.841" cy="0.805" rx="0.841" ry="0.805" transform="translate(37.866 0)" fill="#fff"/>
            <path id="Path_99231" data-name="Path 99231" d="M466.575,73.552a.842.842,0,1,1-.842-.805A.824.824,0,0,1,466.575,73.552Z" transform="translate(-419.453 -72.747)" fill="#fff"/>
            <ellipse id="Ellipse_3963" data-name="Ellipse 3963" cx="0.841" cy="0.805" rx="0.841" ry="0.805" transform="translate(53.012 0)" fill="#fff"/>
            <ellipse id="Ellipse_3964" data-name="Ellipse 3964" cx="0.841" cy="0.805" rx="0.841" ry="0.805" transform="translate(60.585 0)" fill="#fff"/>
            <path id="Path_99232" data-name="Path 99232" d="M491.914,73.552a.842.842,0,1,1-.842-.805A.824.824,0,0,1,491.914,73.552Z" transform="translate(-422.073 -72.747)" fill="#fff"/>
            <path id="Path_99233" data-name="Path 99233" d="M500.36,73.552a.842.842,0,1,1-.842-.805A.824.824,0,0,1,500.36,73.552Z" transform="translate(-422.946 -72.747)" fill="#fff"/>
          </g>
          <g id="Group_53310" data-name="Group 53310" transform="translate(0 25.75)">
            <path id="Path_99234" data-name="Path 99234" d="M415.9,81.06a.842.842,0,1,1-.842-.805A.824.824,0,0,1,415.9,81.06Z" transform="translate(-414.214 -80.255)" fill="#fff"/>
            <path id="Path_99235" data-name="Path 99235" d="M424.343,81.06a.842.842,0,1,1-.841-.805A.823.823,0,0,1,424.343,81.06Z" transform="translate(-415.087 -80.255)" fill="#fff"/>
            <path id="Path_99236" data-name="Path 99236" d="M432.789,81.06a.842.842,0,1,1-.841-.805A.823.823,0,0,1,432.789,81.06Z" transform="translate(-415.96 -80.255)" fill="#fff"/>
            <path id="Path_99237" data-name="Path 99237" d="M441.236,81.06a.842.842,0,1,1-.842-.805A.824.824,0,0,1,441.236,81.06Z" transform="translate(-416.834 -80.255)" fill="#fff"/>
            <path id="Path_99238" data-name="Path 99238" d="M449.682,81.06a.842.842,0,1,1-.841-.805A.823.823,0,0,1,449.682,81.06Z" transform="translate(-417.707 -80.255)" fill="#fff"/>
            <path id="Path_99239" data-name="Path 99239" d="M458.128,81.06a.842.842,0,1,1-.841-.805A.823.823,0,0,1,458.128,81.06Z" transform="translate(-418.58 -80.255)" fill="#fff"/>
            <path id="Path_99240" data-name="Path 99240" d="M466.575,81.06a.842.842,0,1,1-.842-.805A.824.824,0,0,1,466.575,81.06Z" transform="translate(-419.453 -80.255)" fill="#fff"/>
            <path id="Path_99241" data-name="Path 99241" d="M475.021,81.06a.842.842,0,1,1-.841-.805A.823.823,0,0,1,475.021,81.06Z" transform="translate(-420.326 -80.255)" fill="#fff"/>
            <path id="Path_99242" data-name="Path 99242" d="M483.467,81.06a.842.842,0,1,1-.841-.805A.823.823,0,0,1,483.467,81.06Z" transform="translate(-421.199 -80.255)" fill="#fff"/>
            <path id="Path_99243" data-name="Path 99243" d="M491.914,81.06a.842.842,0,1,1-.842-.805A.824.824,0,0,1,491.914,81.06Z" transform="translate(-422.073 -80.255)" fill="#fff"/>
            <path id="Path_99244" data-name="Path 99244" d="M500.36,81.06a.842.842,0,1,1-.842-.805A.824.824,0,0,1,500.36,81.06Z" transform="translate(-422.946 -80.255)" fill="#fff"/>
          </g>
          <g id="Group_53311" data-name="Group 53311" transform="translate(0 32.188)">
            <ellipse id="Ellipse_3965" data-name="Ellipse 3965" cx="0.841" cy="0.805" rx="0.841" ry="0.805" transform="translate(0 0)" fill="#fff"/>
            <path id="Path_99245" data-name="Path 99245" d="M424.343,88.568a.842.842,0,1,1-.841-.805A.823.823,0,0,1,424.343,88.568Z" transform="translate(-415.087 -87.763)" fill="#fff"/>
            <ellipse id="Ellipse_3966" data-name="Ellipse 3966" cx="0.841" cy="0.805" rx="0.841" ry="0.805" transform="translate(15.146 0)" fill="#fff"/>
            <path id="Path_99246" data-name="Path 99246" d="M441.236,88.568a.842.842,0,1,1-.842-.805A.824.824,0,0,1,441.236,88.568Z" transform="translate(-416.833 -87.763)" fill="#fff"/>
            <path id="Path_99247" data-name="Path 99247" d="M449.682,88.568a.842.842,0,1,1-.841-.805A.823.823,0,0,1,449.682,88.568Z" transform="translate(-417.707 -87.763)" fill="#fff"/>
            <ellipse id="Ellipse_3967" data-name="Ellipse 3967" cx="0.841" cy="0.805" rx="0.841" ry="0.805" transform="translate(37.866 0)" fill="#fff"/>
            <path id="Path_99248" data-name="Path 99248" d="M466.575,88.568a.842.842,0,1,1-.842-.805A.824.824,0,0,1,466.575,88.568Z" transform="translate(-419.453 -87.763)" fill="#fff"/>
            <ellipse id="Ellipse_3968" data-name="Ellipse 3968" cx="0.841" cy="0.805" rx="0.841" ry="0.805" transform="translate(53.012 0)" fill="#fff"/>
            <ellipse id="Ellipse_3969" data-name="Ellipse 3969" cx="0.841" cy="0.805" rx="0.841" ry="0.805" transform="translate(60.585 0)" fill="#fff"/>
            <path id="Path_99249" data-name="Path 99249" d="M491.914,88.568a.842.842,0,1,1-.842-.805A.824.824,0,0,1,491.914,88.568Z" transform="translate(-422.073 -87.763)" fill="#fff"/>
            <path id="Path_99250" data-name="Path 99250" d="M500.36,88.568a.842.842,0,1,1-.842-.805A.824.824,0,0,1,500.36,88.568Z" transform="translate(-422.946 -87.763)" fill="#fff"/>
          </g>
          <g id="Group_53312" data-name="Group 53312" transform="translate(0 38.626)">
            <ellipse id="Ellipse_3970" data-name="Ellipse 3970" cx="0.841" cy="0.805" rx="0.841" ry="0.805" fill="#fff"/>
            <path id="Path_99251" data-name="Path 99251" d="M424.343,96.075a.842.842,0,1,1-.841-.8A.823.823,0,0,1,424.343,96.075Z" transform="translate(-415.087 -95.271)" fill="#fff"/>
            <ellipse id="Ellipse_3971" data-name="Ellipse 3971" cx="0.841" cy="0.805" rx="0.841" ry="0.805" transform="translate(15.146)" fill="#fff"/>
            <path id="Path_99252" data-name="Path 99252" d="M441.236,96.075a.842.842,0,1,1-.842-.8A.824.824,0,0,1,441.236,96.075Z" transform="translate(-416.833 -95.271)" fill="#fff"/>
            <path id="Path_99253" data-name="Path 99253" d="M449.682,96.075a.842.842,0,1,1-.841-.8A.824.824,0,0,1,449.682,96.075Z" transform="translate(-417.707 -95.271)" fill="#fff"/>
            <ellipse id="Ellipse_3972" data-name="Ellipse 3972" cx="0.841" cy="0.805" rx="0.841" ry="0.805" transform="translate(37.866)" fill="#fff"/>
            <path id="Path_99254" data-name="Path 99254" d="M466.575,96.075a.842.842,0,1,1-.842-.8A.824.824,0,0,1,466.575,96.075Z" transform="translate(-419.453 -95.271)" fill="#fff"/>
            <ellipse id="Ellipse_3973" data-name="Ellipse 3973" cx="0.841" cy="0.805" rx="0.841" ry="0.805" transform="translate(53.012)" fill="#fff"/>
            <ellipse id="Ellipse_3974" data-name="Ellipse 3974" cx="0.841" cy="0.805" rx="0.841" ry="0.805" transform="translate(60.585)" fill="#fff"/>
            <path id="Path_99255" data-name="Path 99255" d="M491.914,96.075a.842.842,0,1,1-.842-.8A.824.824,0,0,1,491.914,96.075Z" transform="translate(-422.073 -95.271)" fill="#fff"/>
            <path id="Path_99256" data-name="Path 99256" d="M500.36,96.075a.842.842,0,1,1-.842-.8A.824.824,0,0,1,500.36,96.075Z" transform="translate(-422.946 -95.271)" fill="#fff"/>
          </g>
          <g id="Group_53313" data-name="Group 53313" transform="translate(0 45.063)">
            <path id="Path_99257" data-name="Path 99257" d="M415.9,103.583a.842.842,0,1,1-.842-.8A.824.824,0,0,1,415.9,103.583Z" transform="translate(-414.214 -102.779)" fill="#fff"/>
            <path id="Path_99258" data-name="Path 99258" d="M424.343,103.583a.842.842,0,1,1-.841-.8A.823.823,0,0,1,424.343,103.583Z" transform="translate(-415.087 -102.779)" fill="#fff"/>
            <path id="Path_99259" data-name="Path 99259" d="M432.789,103.583a.842.842,0,1,1-.841-.8A.823.823,0,0,1,432.789,103.583Z" transform="translate(-415.96 -102.779)" fill="#fff"/>
            <path id="Path_99260" data-name="Path 99260" d="M441.236,103.583a.842.842,0,1,1-.842-.8A.824.824,0,0,1,441.236,103.583Z" transform="translate(-416.834 -102.779)" fill="#fff"/>
            <path id="Path_99261" data-name="Path 99261" d="M449.682,103.583a.842.842,0,1,1-.841-.8A.824.824,0,0,1,449.682,103.583Z" transform="translate(-417.707 -102.779)" fill="#fff"/>
            <path id="Path_99262" data-name="Path 99262" d="M458.128,103.583a.842.842,0,1,1-.841-.8A.823.823,0,0,1,458.128,103.583Z" transform="translate(-418.58 -102.779)" fill="#fff"/>
            <path id="Path_99263" data-name="Path 99263" d="M466.575,103.583a.842.842,0,1,1-.842-.8A.824.824,0,0,1,466.575,103.583Z" transform="translate(-419.453 -102.779)" fill="#fff"/>
            <path id="Path_99264" data-name="Path 99264" d="M475.021,103.583a.842.842,0,1,1-.841-.8A.824.824,0,0,1,475.021,103.583Z" transform="translate(-420.326 -102.779)" fill="#fff"/>
            <path id="Path_99265" data-name="Path 99265" d="M483.467,103.583a.842.842,0,1,1-.841-.8A.824.824,0,0,1,483.467,103.583Z" transform="translate(-421.199 -102.779)" fill="#fff"/>
            <path id="Path_99266" data-name="Path 99266" d="M491.914,103.583a.842.842,0,1,1-.842-.8A.824.824,0,0,1,491.914,103.583Z" transform="translate(-422.073 -102.779)" fill="#fff"/>
            <path id="Path_99267" data-name="Path 99267" d="M500.36,103.583a.842.842,0,1,1-.842-.8A.824.824,0,0,1,500.36,103.583Z" transform="translate(-422.946 -102.779)" fill="#fff"/>
          </g>
          <g id="Group_53314" data-name="Group 53314" transform="translate(0 51.501)">
            <ellipse id="Ellipse_3975" data-name="Ellipse 3975" cx="0.841" cy="0.805" rx="0.841" ry="0.805" fill="#fff"/>
            <path id="Path_99268" data-name="Path 99268" d="M424.343,111.091a.842.842,0,1,1-.841-.8A.824.824,0,0,1,424.343,111.091Z" transform="translate(-415.087 -110.287)" fill="#fff"/>
            <ellipse id="Ellipse_3976" data-name="Ellipse 3976" cx="0.841" cy="0.805" rx="0.841" ry="0.805" transform="translate(15.146)" fill="#fff"/>
            <path id="Path_99269" data-name="Path 99269" d="M441.236,111.091a.842.842,0,1,1-.842-.8A.824.824,0,0,1,441.236,111.091Z" transform="translate(-416.833 -110.287)" fill="#fff"/>
            <path id="Path_99270" data-name="Path 99270" d="M449.682,111.091a.842.842,0,1,1-.841-.8A.824.824,0,0,1,449.682,111.091Z" transform="translate(-417.707 -110.287)" fill="#fff"/>
            <ellipse id="Ellipse_3977" data-name="Ellipse 3977" cx="0.841" cy="0.805" rx="0.841" ry="0.805" transform="translate(37.866)" fill="#fff"/>
            <path id="Path_99271" data-name="Path 99271" d="M466.575,111.091a.842.842,0,1,1-.842-.8A.825.825,0,0,1,466.575,111.091Z" transform="translate(-419.453 -110.287)" fill="#fff"/>
            <ellipse id="Ellipse_3978" data-name="Ellipse 3978" cx="0.841" cy="0.805" rx="0.841" ry="0.805" transform="translate(53.012)" fill="#fff"/>
            <ellipse id="Ellipse_3979" data-name="Ellipse 3979" cx="0.841" cy="0.805" rx="0.841" ry="0.805" transform="translate(60.585)" fill="#fff"/>
            <path id="Path_99272" data-name="Path 99272" d="M491.914,111.091a.842.842,0,1,1-.842-.8A.825.825,0,0,1,491.914,111.091Z" transform="translate(-422.073 -110.287)" fill="#fff"/>
            <path id="Path_99273" data-name="Path 99273" d="M500.36,111.091a.842.842,0,1,1-.842-.8A.824.824,0,0,1,500.36,111.091Z" transform="translate(-422.946 -110.287)" fill="#fff"/>
          </g>
          <g id="Group_53315" data-name="Group 53315" transform="translate(0 57.938)">
            <path id="Path_99274" data-name="Path 99274" d="M415.9,118.6a.842.842,0,1,1-.842-.805A.824.824,0,0,1,415.9,118.6Z" transform="translate(-414.214 -117.794)" fill="#fff"/>
            <path id="Path_99275" data-name="Path 99275" d="M424.343,118.6a.842.842,0,1,1-.841-.805A.824.824,0,0,1,424.343,118.6Z" transform="translate(-415.087 -117.794)" fill="#fff"/>
            <path id="Path_99276" data-name="Path 99276" d="M432.789,118.6a.842.842,0,1,1-.841-.805A.824.824,0,0,1,432.789,118.6Z" transform="translate(-415.96 -117.794)" fill="#fff"/>
            <path id="Path_99277" data-name="Path 99277" d="M441.236,118.6a.842.842,0,1,1-.842-.805A.824.824,0,0,1,441.236,118.6Z" transform="translate(-416.834 -117.794)" fill="#fff"/>
            <path id="Path_99278" data-name="Path 99278" d="M449.682,118.6a.842.842,0,1,1-.841-.805A.824.824,0,0,1,449.682,118.6Z" transform="translate(-417.707 -117.794)" fill="#fff"/>
            <path id="Path_99279" data-name="Path 99279" d="M458.128,118.6a.842.842,0,1,1-.841-.805A.824.824,0,0,1,458.128,118.6Z" transform="translate(-418.58 -117.794)" fill="#fff"/>
            <path id="Path_99280" data-name="Path 99280" d="M466.575,118.6a.842.842,0,1,1-.842-.805A.825.825,0,0,1,466.575,118.6Z" transform="translate(-419.453 -117.794)" fill="#fff"/>
            <path id="Path_99281" data-name="Path 99281" d="M475.021,118.6a.842.842,0,1,1-.841-.805A.824.824,0,0,1,475.021,118.6Z" transform="translate(-420.326 -117.794)" fill="#fff"/>
            <path id="Path_99282" data-name="Path 99282" d="M483.467,118.6a.842.842,0,1,1-.841-.805A.824.824,0,0,1,483.467,118.6Z" transform="translate(-421.199 -117.794)" fill="#fff"/>
            <path id="Path_99283" data-name="Path 99283" d="M491.914,118.6a.842.842,0,1,1-.842-.805A.825.825,0,0,1,491.914,118.6Z" transform="translate(-422.073 -117.794)" fill="#fff"/>
            <path id="Path_99284" data-name="Path 99284" d="M500.36,118.6a.842.842,0,1,1-.842-.805A.824.824,0,0,1,500.36,118.6Z" transform="translate(-422.946 -117.794)" fill="#fff"/>
          </g>
          <g id="Group_53316" data-name="Group 53316" transform="translate(0 64.376)">
            <ellipse id="Ellipse_3980" data-name="Ellipse 3980" cx="0.841" cy="0.805" rx="0.841" ry="0.805" transform="translate(0 0)" fill="#fff"/>
            <path id="Path_99285" data-name="Path 99285" d="M424.343,126.107a.842.842,0,1,1-.841-.805A.823.823,0,0,1,424.343,126.107Z" transform="translate(-415.087 -125.302)" fill="#fff"/>
            <ellipse id="Ellipse_3981" data-name="Ellipse 3981" cx="0.841" cy="0.805" rx="0.841" ry="0.805" transform="translate(15.146 0)" fill="#fff"/>
            <path id="Path_99286" data-name="Path 99286" d="M441.236,126.107a.842.842,0,1,1-.842-.805A.824.824,0,0,1,441.236,126.107Z" transform="translate(-416.833 -125.302)" fill="#fff"/>
            <path id="Path_99287" data-name="Path 99287" d="M449.682,126.107a.842.842,0,1,1-.841-.805A.823.823,0,0,1,449.682,126.107Z" transform="translate(-417.707 -125.302)" fill="#fff"/>
            <ellipse id="Ellipse_3982" data-name="Ellipse 3982" cx="0.841" cy="0.805" rx="0.841" ry="0.805" transform="translate(37.866 0)" fill="#fff"/>
            <path id="Path_99288" data-name="Path 99288" d="M466.575,126.107a.842.842,0,1,1-.842-.805A.824.824,0,0,1,466.575,126.107Z" transform="translate(-419.453 -125.302)" fill="#fff"/>
            <ellipse id="Ellipse_3983" data-name="Ellipse 3983" cx="0.841" cy="0.805" rx="0.841" ry="0.805" transform="translate(53.012 0)" fill="#fff"/>
            <ellipse id="Ellipse_3984" data-name="Ellipse 3984" cx="0.841" cy="0.805" rx="0.841" ry="0.805" transform="translate(60.585 0)" fill="#fff"/>
            <path id="Path_99289" data-name="Path 99289" d="M491.914,126.107a.842.842,0,1,1-.842-.805A.824.824,0,0,1,491.914,126.107Z" transform="translate(-422.073 -125.302)" fill="#fff"/>
            <path id="Path_99290" data-name="Path 99290" d="M500.36,126.107a.842.842,0,1,1-.842-.805A.824.824,0,0,1,500.36,126.107Z" transform="translate(-422.946 -125.302)" fill="#fff"/>
          </g>
          <g id="Group_53317" data-name="Group 53317" transform="translate(0 70.814)">
            <ellipse id="Ellipse_3985" data-name="Ellipse 3985" cx="0.841" cy="0.805" rx="0.841" ry="0.805" transform="translate(0 0)" fill="#fff"/>
            <path id="Path_99291" data-name="Path 99291" d="M424.343,133.615a.842.842,0,1,1-.841-.805A.823.823,0,0,1,424.343,133.615Z" transform="translate(-415.087 -132.81)" fill="#fff"/>
            <ellipse id="Ellipse_3986" data-name="Ellipse 3986" cx="0.841" cy="0.805" rx="0.841" ry="0.805" transform="translate(15.146 0)" fill="#fff"/>
            <path id="Path_99292" data-name="Path 99292" d="M441.236,133.615a.842.842,0,1,1-.842-.805A.824.824,0,0,1,441.236,133.615Z" transform="translate(-416.833 -132.81)" fill="#fff"/>
            <path id="Path_99293" data-name="Path 99293" d="M449.682,133.615a.842.842,0,1,1-.841-.805A.823.823,0,0,1,449.682,133.615Z" transform="translate(-417.707 -132.81)" fill="#fff"/>
            <ellipse id="Ellipse_3987" data-name="Ellipse 3987" cx="0.841" cy="0.805" rx="0.841" ry="0.805" transform="translate(37.866 0)" fill="#fff"/>
            <path id="Path_99294" data-name="Path 99294" d="M466.575,133.615a.842.842,0,1,1-.842-.805A.824.824,0,0,1,466.575,133.615Z" transform="translate(-419.453 -132.81)" fill="#fff"/>
            <ellipse id="Ellipse_3988" data-name="Ellipse 3988" cx="0.841" cy="0.805" rx="0.841" ry="0.805" transform="translate(53.012 0)" fill="#fff"/>
            <ellipse id="Ellipse_3989" data-name="Ellipse 3989" cx="0.841" cy="0.805" rx="0.841" ry="0.805" transform="translate(60.585 0)" fill="#fff"/>
            <path id="Path_99295" data-name="Path 99295" d="M491.914,133.615a.842.842,0,1,1-.842-.805A.824.824,0,0,1,491.914,133.615Z" transform="translate(-422.073 -132.81)" fill="#fff"/>
            <path id="Path_99296" data-name="Path 99296" d="M500.36,133.615a.842.842,0,1,1-.842-.805A.824.824,0,0,1,500.36,133.615Z" transform="translate(-422.946 -132.81)" fill="#fff"/>
          </g>
        </g>
        <line id="Line_138" data-name="Line 138" y2="164.629" transform="translate(12.166 65.357)" fill="none" stroke="#fff" stroke-width="1" stroke-dasharray="8"/>
      </g>
    </g>
    <g id="Organizing_projects-amico" data-name="Organizing projects-amico" transform="translate(1054.806 1084.336)">
      <g id="freepik--Floor--inject-1--inject-51" transform="translate(27.898 124.375)" opacity="0.18">
        <ellipse id="freepik--floor--inject-1--inject-51-2" data-name="freepik--floor--inject-1--inject-51" cx="135.612" cy="85.684" rx="135.612" ry="85.684" fill="#095aff"/>
      </g>
      <g id="freepik--Shadows--inject-1--inject-51" transform="translate(30.328 129.405)" opacity="0.25">
        <path id="freepik--Shadow--inject-1--inject-51" d="M280.451,396.03c-8.428,4.862-8.428,12.751,0,17.618s22.087,4.862,30.509,0,8.428-12.757,0-17.618S288.873,391.162,280.451,396.03Z" transform="translate(-125.929 -250.42)" fill="#095aff"/>
        <ellipse id="freepik--shadow--inject-1--inject-51-2" data-name="freepik--shadow--inject-1--inject-51" cx="17.276" cy="9.977" rx="17.276" ry="9.977" transform="translate(207.003 113.99)" fill="#095aff"/>
        <path id="freepik--shadow--inject-1--inject-51-3" data-name="freepik--shadow--inject-1--inject-51" d="M134.837,348.938l-4.125-2.38a1.445,1.445,0,0,1,0-2.716l55.731-32.057a5.166,5.166,0,0,1,4.7,0l4.119,2.374c1.3.749,1.3,1.968,0,2.716l-55.731,32.064A5.191,5.191,0,0,1,134.837,348.938Z" transform="translate(-73.187 -220.769)" fill="#095aff"/>
        <path id="freepik--shadow--inject-1--inject-51-4" data-name="freepik--shadow--inject-1--inject-51" d="M51.448,327.651l-10.256-5.928a.85.85,0,0,1,0-1.606l136.3-78.7a3.066,3.066,0,0,1,2.78,0l10.263,5.96a.85.85,0,0,1,0,1.606l-136.308,78.7a3.1,3.1,0,0,1-2.78-.032Z" transform="translate(-40.622 -195.148)" fill="#095aff"/>
        <path id="freepik--shadow--inject-1--inject-51-5" data-name="freepik--shadow--inject-1--inject-51" d="M273.683,241.068,256.9,231.377a.85.85,0,0,1,0-1.606l47.2-27.253a3.078,3.078,0,0,1,2.786,0l16.774,9.7a.85.85,0,0,1,0,1.606l-47.2,27.253a3.1,3.1,0,0,1-2.78-.013Z" transform="translate(-119.427 -180.936)" fill="#095aff"/>
        <path id="freepik--shadow--inject-1--inject-51-6" data-name="freepik--shadow--inject-1--inject-51" d="M280.955,192.629l26.605,15.359a3.941,3.941,0,0,0,3.573,0l36.748-21.433a1.088,1.088,0,0,0,0-2.063l-26.6-15.359a3.941,3.941,0,0,0-3.573,0l-36.754,21.433A1.09,1.09,0,0,0,280.955,192.629Z" transform="translate(-128.153 -168.705)" fill="#095aff"/>
      </g>
      <g id="freepik--Board--inject-1--inject-51" transform="translate(39.117 61.13)">
        <path id="Path_158921" data-name="Path 158921" d="M68.02,258.492l54.258-31.324,72.334-41.759V78.34L68.02,151.429Z" transform="translate(-59.42 -67.417)" fill="#095aff"/>
        <path id="Path_158922" data-name="Path 158922" d="M59.89,143.308l5.16,2.977L191.642,73.2l5.16-8.936Z" transform="translate(-56.45 -62.273)" fill="#095aff"/>
        <path id="Path_158923" data-name="Path 158923" d="M272.64,183.208V64.22l-5.16,8.962V180.251Z" transform="translate(-132.289 -62.259)" fill="#095aff"/>
        <path id="Path_158924" data-name="Path 158924" d="M59.89,188.81l5.16,2.977V298.849l-5.16,8.942Z" transform="translate(-56.45 -107.775)" fill="#095aff"/>
        <path id="Path_158925" data-name="Path 158925" d="M65.05,320.122,191.642,247.04l5.16,2.977L59.89,329.065Z" transform="translate(-56.45 -129.048)" fill="#095aff"/>
        <g id="Group_100031" data-name="Group 100031" transform="translate(3.44 1.987)" opacity="0.5">
          <path id="Path_158926" data-name="Path 158926" d="M59.89,143.308l5.16,2.977L191.642,73.2l5.16-8.936Z" transform="translate(-59.89 -64.26)" fill="#095aff"/>
        </g>
        <g id="Group_100032" data-name="Group 100032" transform="translate(3.44 117.992)" opacity="0.5">
          <path id="Path_158927" data-name="Path 158927" d="M65.05,320.122,191.642,247.04l5.16,2.977L59.89,329.065Z" transform="translate(-59.89 -247.04)" fill="#095aff"/>
        </g>
        <path id="Path_158928" data-name="Path 158928" d="M194.821,63.117l-3.44-1.987L54.47,140.178l3.44,1.987Z" transform="translate(-54.47 -61.13)" fill="#095aff"/>
        <path id="Path_158929" data-name="Path 158929" d="M54.47,185.68l3.44,1.987V306.648l-3.44-1.987Z" transform="translate(-54.47 -106.632)" fill="#095aff"/>
        <g id="Group_100033" data-name="Group 100033" transform="translate(8.6 10.923)" opacity="0.1">
          <path id="Path_158930" data-name="Path 158930" d="M194.612,78.34l-1.72,1V184.413L68.02,256.505v1.987l126.592-73.082Z" transform="translate(-68.02 -78.34)" fill="#095aff"/>
        </g>
        <path id="Path_158931" data-name="Path 158931" d="M100.126,175.63,71.87,191.941l.006,40.143,28.249-16.311Z" transform="translate(-60.827 -102.96)" fill="#095aff" opacity="0.1"/>
        <path id="Path_158932" data-name="Path 158932" d="M73.59,192.921l28.249-16.311,2.177,1.257L75.761,194.178Z" transform="translate(-61.455 -103.318)" fill="#095aff"/>
        <path id="Path_158933" data-name="Path 158933" d="M73.59,202.31v40.143l2.171,1.257V203.567Z" transform="translate(-61.455 -112.707)" fill="#095aff"/>
        <path id="Path_158934" data-name="Path 158934" d="M105.266,178.59,77.01,194.9v40.143l28.256-16.311Z" transform="translate(-62.705 -104.041)" fill="#095aff"/>
        <path id="Path_158935" data-name="Path 158935" d="M80.44,198.318l23.9-13.8v30.109l-23.9,13.8Z" transform="translate(-63.958 -106.208)" fill="#095aff"/>
        <path id="Path_158936" data-name="Path 158936" d="M80.44,198.318l23.9-13.8v30.109l-23.9,13.8Z" transform="translate(-63.958 -106.208)" fill="#095aff" opacity="0.75"/>
        <path id="Path_158937" data-name="Path 158937" d="M80.44,228.878l9.311-13.81,9.99,6.569-3.173-3.51,3.123-4.887,4.652,3.516v8.365l-23.9,13.8Z" transform="translate(-63.958 -116.7)" fill="#095aff"/>
        <path id="Path_158938" data-name="Path 158938" d="M104.747,200.629a4.811,4.811,0,0,0-2.177,3.764c0,1.39.977,1.948,2.177,1.269a4.8,4.8,0,0,0,2.171-3.764C106.943,200.5,105.972,199.938,104.747,200.629Z" transform="translate(-72.042 -111.985)" fill="#095aff"/>
        <path id="Path_158939" data-name="Path 158939" d="M100.148,197.026l-.051.051a.393.393,0,0,1-.133.1c-.1.063-.152,0-.248-.057l-.743-.438c-.3-.178-.635-.387-1.047-.635s-.787-.476-1.187-.73c-.121-.083.1-.476.235-.413l1.225.635,1.066.6.749.425c.089.057.178.063.178.184a.806.806,0,0,1,0,.165Z" transform="translate(-69.9 -110)" fill="#095aff"/>
        <path id="Path_158940" data-name="Path 158940" d="M101.627,197.488c-.578,1-1.517,1.536-2.5,1l-.057-.032h0a1.085,1.085,0,0,1-.413-.958,3.313,3.313,0,0,1,1.485-2.615,1.1,1.1,0,0,1,1-.133l.057.032.089.057A1.841,1.841,0,0,1,101.627,197.488Z" transform="translate(-70.611 -109.922)" fill="#095aff"/>
        <path id="Path_158941" data-name="Path 158941" d="M103.517,200.067l1.111-1.9a11.057,11.057,0,0,1-2.342-1.625l-.044-.038v-.038h0a.635.635,0,0,0-.736,0,2.158,2.158,0,0,0-.977,1.695.679.679,0,0,0,.286.635h0a.476.476,0,0,0,.184.057,10.251,10.251,0,0,1,2.52,1.219Z" transform="translate(-71.294 -110.528)" fill="#095aff"/>
        <path id="Path_158942" data-name="Path 158942" d="M106.772,199.114a1.174,1.174,0,0,0-1.168-1.174,1.116,1.116,0,0,0-.419.083h-.044a1.609,1.609,0,0,0-.184.089,2.615,2.615,0,0,0-1.187,2.05,1.066,1.066,0,0,0,.038.3,1.168,1.168,0,0,0,2.323-.2v-.108a1.168,1.168,0,0,0,.641-1.035Z" transform="translate(-72.481 -111.111)" fill="#095aff"/>
        <path id="Path_158943" data-name="Path 158943" d="M105.977,198.758c.635-.374,1.181-.07,1.181.685a2.628,2.628,0,0,1-1.181,2.056c-.635.374-1.187.07-1.187-.685A2.621,2.621,0,0,1,105.977,198.758Z" transform="translate(-72.853 -111.351)" fill="#095aff"/>
        <path id="Path_158944" data-name="Path 158944" d="M130.19,150.419,206.249,106.5v65.251L130.19,215.664Z" transform="translate(-82.133 -77.705)" fill="#095aff" opacity="0.1"/>
        <path id="Path_158945" data-name="Path 158945" d="M135.22,153.309l76.065-43.919v65.244L135.22,218.554Z" transform="translate(-83.97 -78.761)" fill="#095aff"/>
        <path id="Path_158946" data-name="Path 158946" d="M131.79,176.61v65.244l2.177,1.257V177.867Z" transform="translate(-82.717 -103.318)" fill="#095aff"/>
        <path id="Path_158947" data-name="Path 158947" d="M210.032,108.67l-2.177-1.25L131.79,151.333l2.177,1.257Z" transform="translate(-82.717 -78.041)" fill="#095aff"/>
        <g id="Group_100034" data-name="Group 100034" transform="translate(49.073 29.379)" opacity="0.8">
          <path id="Path_158948" data-name="Path 158948" d="M210.032,108.67l-2.177-1.25L131.79,151.333l2.177,1.257Z" transform="translate(-131.79 -107.42)" fill="#095aff"/>
        </g>
        <path id="Path_158949" data-name="Path 158949" d="M131.79,176.61l2.177,1.257v12.547l-2.177-1.257Z" transform="translate(-82.717 -103.318)" fill="#095aff"/>
        <g id="Group_100035" data-name="Group 100035" transform="translate(49.073 73.292)" opacity="0.5">
          <path id="Path_158950" data-name="Path 158950" d="M131.79,176.61l2.177,1.257v12.547l-2.177-1.257Z" transform="translate(-131.79 -176.61)" fill="#095aff"/>
        </g>
        <path id="Path_158951" data-name="Path 158951" d="M135.22,165.857l76.065-43.919V109.39L135.22,153.309Z" transform="translate(-83.97 -78.761)" fill="#095aff"/>
        <g id="Group_100036" data-name="Group 100036" transform="translate(51.25 30.629)" opacity="0.65">
          <path id="Path_158952" data-name="Path 158952" d="M135.22,165.857l76.065-43.919V109.39L135.22,153.309Z" transform="translate(-135.22 -109.39)" fill="#095aff"/>
        </g>
        <path id="Path_158953" data-name="Path 158953" d="M186.26,152.654l-1.987,1.142a.1.1,0,0,1-.121,0,.209.209,0,0,1-.044-.152v-.635a.469.469,0,0,1,.044-.2.413.413,0,0,1,.121-.146l2.634-1.523a.1.1,0,0,1,.121,0,.19.19,0,0,1,.044.146v3.941a4.607,4.607,0,0,1-.432,2.069,3.174,3.174,0,0,1-1.269,1.333,1.656,1.656,0,0,1-.743.26.717.717,0,0,1-.514-.146,1,1,0,0,1-.3-.476,2.7,2.7,0,0,1-.121-.73.419.419,0,0,1,.044-.209.311.311,0,0,1,.121-.133l.489-.286a.114.114,0,0,1,.1,0c.032,0,.051.044.063.1a1.225,1.225,0,0,0,.082.317.521.521,0,0,0,.165.216.413.413,0,0,0,.254.07.85.85,0,0,0,.362-.133,1.542,1.542,0,0,0,.635-.7,2.494,2.494,0,0,0,.228-1.111Z" transform="translate(-101.677 -94.004)" fill="#095aff"/>
        <path id="Path_158954" data-name="Path 158954" d="M190.315,152.161a.482.482,0,0,1,.051-.2.292.292,0,0,1,.114-.14l.457-.267a.089.089,0,0,1,.114,0,.209.209,0,0,1,.051.152v2.367a1.612,1.612,0,0,0,.152.806c.108.165.273.178.508.038a1.111,1.111,0,0,0,.489-.635,2.71,2.71,0,0,0,.171-1v-2.367a.5.5,0,0,1,.051-.2.292.292,0,0,1,.114-.14l.457-.267a.089.089,0,0,1,.114,0,.184.184,0,0,1,.051.152V154.8a.426.426,0,0,1-.051.209.324.324,0,0,1-.114.14l-.457.267a.089.089,0,0,1-.114,0,.184.184,0,0,1-.051-.146v-.216a4.719,4.719,0,0,1-.343.59,1.637,1.637,0,0,1-.5.457,1.041,1.041,0,0,1-.635.178.571.571,0,0,1-.387-.254,1.466,1.466,0,0,1-.2-.578,4.442,4.442,0,0,1-.063-.8Z" transform="translate(-104.089 -93.702)" fill="#095aff"/>
        <path id="Path_158955" data-name="Path 158955" d="M199.161,151.621a.489.489,0,0,1-.044.2.292.292,0,0,1-.114.14l-.463.267a.089.089,0,0,1-.114,0,.209.209,0,0,1-.051-.152v-2.361a1.473,1.473,0,0,0-.165-.8c-.114-.159-.292-.165-.527,0a1.219,1.219,0,0,0-.5.635,2.5,2.5,0,0,0-.184,1v2.336a.5.5,0,0,1-.051.2.292.292,0,0,1-.114.14l-.463.267a.089.089,0,0,1-.114,0,.209.209,0,0,1-.044-.152v-4.341a.451.451,0,0,1,.044-.2.311.311,0,0,1,.114-.146l.463-.267a.089.089,0,0,1,.114,0,.19.19,0,0,1,.051.146v.216a3.51,3.51,0,0,1,.368-.635,1.669,1.669,0,0,1,.5-.444,1.028,1.028,0,0,1,.635-.184.59.59,0,0,1,.4.248,1.314,1.314,0,0,1,.216.571,4.323,4.323,0,0,1,.063.793Z" transform="translate(-106.251 -92.679)" fill="#095aff"/>
        <path id="Path_158956" data-name="Path 158956" d="M201.878,147.964a5.319,5.319,0,0,1,.108-1.041,4.557,4.557,0,0,1,.292-.971,3.68,3.68,0,0,1,.47-.806,2.081,2.081,0,0,1,.635-.552,1.015,1.015,0,0,1,.635-.165.723.723,0,0,1,.47.241,1.441,1.441,0,0,1,.3.584,3.1,3.1,0,0,1,.108.844v.419a.507.507,0,0,1-.051.209.292.292,0,0,1-.114.14l-2.025,1.168a.838.838,0,0,0,.057.343.356.356,0,0,0,.159.184.368.368,0,0,0,.222.044.768.768,0,0,0,.26-.1,1.655,1.655,0,0,0,.317-.241,1.552,1.552,0,0,0,.14-.3,1.5,1.5,0,0,1,.108-.165.635.635,0,0,1,.121-.1l.482-.279a.089.089,0,0,1,.114,0,.184.184,0,0,1,.051.152,1.74,1.74,0,0,1-.1.387,2.717,2.717,0,0,1-.267.552,3.579,3.579,0,0,1-.432.59,2.456,2.456,0,0,1-.6.482,1.06,1.06,0,0,1-.635.171.635.635,0,0,1-.47-.248,1.46,1.46,0,0,1-.292-.635A3.854,3.854,0,0,1,201.878,147.964Zm1.485-2.253a1.149,1.149,0,0,0-.3.254,1.764,1.764,0,0,0-.209.324,1.855,1.855,0,0,0-.133.355,2.369,2.369,0,0,1-.057.33l1.371-.793a1.945,1.945,0,0,0-.044-.267.5.5,0,0,0-.108-.216.266.266,0,0,0-.2-.089.571.571,0,0,0-.317.1Z" transform="translate(-108.321 -91.56)" fill="#095aff"/>
        <path id="Path_158957" data-name="Path 158957" d="M143.35,200.455c0,.7.52.958,1.161.59l5.712-3.294a2.481,2.481,0,0,0,1.161-1.9c0-.692-.52-.952-1.161-.584l-5.712,3.288a2.494,2.494,0,0,0-1.161,1.9Z" transform="translate(-86.94 -110.072)" fill="#095aff"/>
        <path id="Path_158958" data-name="Path 158958" d="M158.51,191.7c0,.692.52.958,1.155.584L165.377,189a2.482,2.482,0,0,0,1.161-1.9c0-.692-.52-.958-1.161-.584l-5.712,3.288A2.482,2.482,0,0,0,158.51,191.7Z" transform="translate(-92.479 -106.874)" fill="#095aff"/>
        <path id="Path_158959" data-name="Path 158959" d="M173.67,182.913c0,.692.514.952,1.155.584l5.712-3.288a2.475,2.475,0,0,0,1.155-1.9c0-.692-.514-.958-1.155-.59l-5.712,3.294A2.494,2.494,0,0,0,173.67,182.913Z" transform="translate(-98.017 -103.661)" fill="#095aff"/>
        <path id="Path_158960" data-name="Path 158960" d="M188.83,174.2c0,.692.514.952,1.155.584L195.7,171.5a2.5,2.5,0,0,0,1.155-1.9c0-.7-.514-.958-1.155-.59l-5.712,3.294a2.475,2.475,0,0,0-1.155,1.9Z" transform="translate(-103.555 -100.478)" fill="#095aff"/>
        <path id="Path_158961" data-name="Path 158961" d="M204,165.452c0,.692.52.952,1.161.584l5.712-3.294a2.482,2.482,0,0,0,1.161-1.9c0-.692-.52-.952-1.161-.584l-5.712,3.294A2.475,2.475,0,0,0,204,165.452Z" transform="translate(-109.098 -97.282)" fill="#095aff"/>
        <path id="Path_158962" data-name="Path 158962" d="M219.14,156.7c0,.7.52.958,1.161.59l5.712-3.294a2.482,2.482,0,0,0,1.161-1.9c0-.692-.52-.952-1.161-.584l-5.712,3.288A2.494,2.494,0,0,0,219.14,156.7Z" transform="translate(-114.629 -94.085)" fill="#095aff"/>
        <path id="Path_158963" data-name="Path 158963" d="M234.3,147.914c0,.692.52.958,1.155.584l5.712-3.288a2.482,2.482,0,0,0,1.161-1.9c0-.692-.52-.958-1.161-.584l-5.712,3.288a2.494,2.494,0,0,0-1.155,1.9Z" transform="translate(-120.167 -90.876)" fill="#095aff"/>
        <path id="Path_158964" data-name="Path 158964" d="M248.067,188.132a.267.267,0,0,1-.267-.267V152.737a.267.267,0,1,1,.533,0v35.129a.267.267,0,0,1-.267.267Z" transform="translate(-125.099 -94.499)" fill="#095aff"/>
        <path id="Path_158965" data-name="Path 158965" d="M232.9,196.909a.267.267,0,0,1-.267-.267V161.507a.273.273,0,0,1,.539,0v35.135a.267.267,0,0,1-.273.267Z" transform="translate(-119.557 -97.716)" fill="#095aff"/>
        <path id="Path_158966" data-name="Path 158966" d="M217.737,205.642a.267.267,0,0,1-.267-.267V170.247a.267.267,0,1,1,.533,0v35.129A.267.267,0,0,1,217.737,205.642Z" transform="translate(-114.019 -100.896)" fill="#095aff"/>
        <path id="Path_158967" data-name="Path 158967" d="M202.573,214.419a.267.267,0,0,1-.273-.267V179.017a.273.273,0,0,1,.539,0v35.135A.267.267,0,0,1,202.573,214.419Z" transform="translate(-108.476 -104.113)" fill="#095aff"/>
        <path id="Path_158968" data-name="Path 158968" d="M187.407,223.152a.267.267,0,0,1-.267-.267V187.757a.267.267,0,1,1,.533,0v35.129A.267.267,0,0,1,187.407,223.152Z" transform="translate(-102.938 -107.293)" fill="#095aff"/>
        <path id="Path_158969" data-name="Path 158969" d="M172.254,231.909a.267.267,0,0,1-.254-.279V196.507a.267.267,0,1,1,.533,0v35.123a.267.267,0,0,1-.279.279Z" transform="translate(-97.407 -110.49)" fill="#095aff"/>
        <path id="Path_158970" data-name="Path 158970" d="M157.077,240.659a.267.267,0,0,1-.267-.267V205.263a.267.267,0,1,1,.533,0v35.129a.267.267,0,0,1-.267.267Z" transform="translate(-91.858 -113.686)" fill="#095aff"/>
        <path id="Path_158971" data-name="Path 158971" d="M141.917,249.45a.267.267,0,0,1-.267-.267V214.017a.267.267,0,0,1,.533,0v35.135a.267.267,0,0,1-.267.3Z" transform="translate(-86.319 -116.886)" fill="#095aff"/>
        <path id="Path_158972" data-name="Path 158972" d="M141.915,205.732a.264.264,0,0,1-.133-.5l67.364-38.9a.26.26,0,0,1,.362.1.267.267,0,0,1-.1.368l-67.364,38.9A.342.342,0,0,1,141.915,205.732Z" transform="translate(-86.318 -99.552)" fill="#095aff"/>
        <path id="Path_158973" data-name="Path 158973" d="M141.912,219.572a.267.267,0,0,1-.133-.5l67.364-38.893a.26.26,0,0,1,.362.1.267.267,0,0,1-.1.368l-67.364,38.893a.267.267,0,0,1-.133.038Z" transform="translate(-86.315 -104.608)" fill="#095aff"/>
        <path id="Path_158974" data-name="Path 158974" d="M141.912,233.4a.267.267,0,0,1-.133-.5l67.364-38.918a.26.26,0,0,1,.362.1.267.267,0,0,1-.1.368L142.046,233.36a.267.267,0,0,1-.133.038Z" transform="translate(-86.315 -109.649)" fill="#095aff"/>
        <path id="Path_158975" data-name="Path 158975" d="M141.917,227.062a.248.248,0,0,1-.133-.038.26.26,0,0,1-.133-.228V191.629a.26.26,0,0,1,.133-.228l67.364-38.9a.286.286,0,0,1,.267,0,.279.279,0,0,1,.133.235v35.129a.279.279,0,0,1-.133.235L142.05,226.992A.248.248,0,0,1,141.917,227.062Zm.267-35.25V226.3l66.837-38.588V153.2Z" transform="translate(-86.319 -94.498)" fill="#095aff"/>
        <path id="Path_158976" data-name="Path 158976" d="M176.24,222.953l.539,1.161a.133.133,0,0,0,.178.07l1.225-.47c.19-.07.267.2.127.463l-.882,1.656a.489.489,0,0,0-.063.317l.2,1.5c.038.241-.165.552-.343.533l-1.085-.14a.292.292,0,0,0-.222.127l-1.092,1.4c-.171.222-.374.146-.343-.133l.209-1.739a.26.26,0,0,0-.07-.241l-.882-.635c-.14-.1-.063-.463.133-.635l1.219-.939a.571.571,0,0,0,.178-.273l.546-1.79C175.9,222.915,176.151,222.769,176.24,222.953Z" transform="translate(-98.016 -120.218)" fill="#095aff"/>
        <path id="Path_158977" data-name="Path 158977" d="M227.854,181.526a2.649,2.649,0,0,0-1.561-2.539c-1.346-.476-2.469.59-3.307,1.485-.216.235.178.349.355.184.863-.819,2.456-1.631,3.383-.539s.444,2.691,0,3.871c-.781,1.967-2.767,3.859-5.077,3.694-5-.374.413-9.184,3.376-9.679.235-.038.406-.413.083-.47-1.491-.241-2.539,1.092-3.491,2.094a11.475,11.475,0,0,0-2.393,3.808c-1,2.659.476,5.921,3.719,4.887A6.953,6.953,0,0,0,227.854,181.526Z" transform="translate(-114.547 -103.645)" fill="#095aff"/>
        <path id="Path_158978" data-name="Path 158978" d="M156.376,245.347a7.985,7.985,0,0,0-1.047-1.212c-.14-.165-.489.032-.406.235.2.489.635.755.882,1.187l.14.222a7.071,7.071,0,0,0-2.463-.819,8.574,8.574,0,0,0-5.046.463c-.159.051-.1.2.044.222a1.955,1.955,0,0,0,.73-.133,9.9,9.9,0,0,1,2.634-.19,8.494,8.494,0,0,1,3.706.958,2.427,2.427,0,0,0-2.355.571c-.063.076-.07.216.057.235.559.07,1.028-.14,1.587-.121a6.2,6.2,0,0,1,1.9.33c.241.083.419-.171.406-.387a3.63,3.63,0,0,0-.774-1.561Z" transform="translate(-88.765 -127.964)" fill="#095aff"/>
        <path id="Path_158979" data-name="Path 158979" d="M251.245,120.775l-.057.051a.5.5,0,0,1-.133.1c-.1.063-.152,0-.241-.057l-.749-.438-1.047-.635c-.381-.235-.787-.476-1.187-.736-.121-.076.1-.476.235-.406l1.225.635c.394.209.755.419,1.066.6l.749.425c.089.057.178.063.178.178a.532.532,0,0,1,0,.171Z" transform="translate(-125.097 -82.143)" fill="#095aff"/>
        <path id="Path_158980" data-name="Path 158980" d="M252.717,121.223c-.578,1-1.511,1.536-2.5,1h-.057a1.066,1.066,0,0,1-.413-.952,3.313,3.313,0,0,1,1.5-2.6,1.1,1.1,0,0,1,1-.133h.057l.089.057C253.295,119.173,253.288,120.24,252.717,121.223Z" transform="translate(-125.808 -82.077)" fill="#095aff"/>
        <path id="Path_158981" data-name="Path 158981" d="M254.607,123.789l1.111-1.9a10.708,10.708,0,0,1-2.342-1.618l-.044-.044h0a.635.635,0,0,0-.736,0,2.152,2.152,0,0,0-.977,1.688.685.685,0,0,0,.286.635h0a.634.634,0,0,0,.184.057,10.085,10.085,0,0,1,2.52,1.187Z" transform="translate(-126.492 -82.675)" fill="#095aff"/>
        <path id="Path_158982" data-name="Path 158982" d="M257.862,122.818a1.168,1.168,0,0,0-1.168-1.168,1.269,1.269,0,0,0-.419.076h-.044l-.184.082a2.634,2.634,0,0,0-1.187,2.056,1.1,1.1,0,0,0,.038.3,1.168,1.168,0,0,0,2.323-.2c0-.038,0-.076,0-.108a1.18,1.18,0,0,0,.641-1.035Z" transform="translate(-127.678 -83.24)" fill="#095aff"/>
        <path id="Path_158983" data-name="Path 158983" d="M257.067,122.466c.635-.381,1.18-.07,1.18.685a2.628,2.628,0,0,1-1.18,2.056c-.635.374-1.187.07-1.187-.685A2.6,2.6,0,0,1,257.067,122.466Z" transform="translate(-128.051 -83.478)" fill="#095aff"/>
        <path id="Path_158984" data-name="Path 158984" d="M144.485,182.025l-.051.044a.634.634,0,0,1-.133.108c-.1.063-.152,0-.248-.063l-.743-.438c-.311-.178-.666-.387-1.047-.635l-1.193-.73c-.121-.082.1-.476.235-.406.425.216.838.451,1.231.635s.755.413,1.066.59l.749.425c.082.063.178.063.171.184a.507.507,0,0,1,0,.165Z" transform="translate(-86.095 -104.519)" fill="#095aff"/>
        <path id="Path_158985" data-name="Path 158985" d="M145.942,182.506a1.862,1.862,0,0,1-2.539,1h-.057a1.066,1.066,0,0,1-.419-.958,3.319,3.319,0,0,1,1.5-2.6,1.1,1.1,0,0,1,1.009-.133h.051a.452.452,0,0,1,.089.063C146.519,180.456,146.506,181.529,145.942,182.506Z" transform="translate(-86.784 -104.467)" fill="#095aff"/>
        <path id="Path_158986" data-name="Path 158986" d="M147.835,185.056l1.111-1.9a11.2,11.2,0,0,1-2.342-1.618.292.292,0,0,0-.044-.044l-.038-.038h0a.635.635,0,0,0-.743,0,2.177,2.177,0,0,0-.971,1.695.679.679,0,0,0,.286.635h0a.419.419,0,0,0,.184.057A10.249,10.249,0,0,1,147.835,185.056Z" transform="translate(-87.471 -105.043)" fill="#095aff"/>
        <path id="Path_158987" data-name="Path 158987" d="M151.112,184.1a1.174,1.174,0,0,0-1.174-1.174,1.111,1.111,0,0,0-.413.083h-.044a1.216,1.216,0,0,0-.184.089,2.608,2.608,0,0,0-1.187,2.056,1.372,1.372,0,0,0,.032.292,1.168,1.168,0,0,0,2.323-.2.7.7,0,0,0,0-.114A1.162,1.162,0,0,0,151.112,184.1Z" transform="translate(-88.679 -105.627)" fill="#095aff"/>
        <path id="Path_158988" data-name="Path 158988" d="M150.317,183.748c.635-.374,1.187-.07,1.187.685a2.628,2.628,0,0,1-1.187,2.056c-.635.381-1.187.07-1.187-.685a2.634,2.634,0,0,1,1.187-2.056Z" transform="translate(-89.052 -105.867)" fill="#095aff"/>
        <path id="Path_158989" data-name="Path 158989" d="M75.3,278.757v32.622l27.024-15.607V263.15Z" transform="translate(-62.08 -134.934)" fill="#095aff" opacity="0.1"/>
        <path id="Path_158990" data-name="Path 158990" d="M106.055,300.577S90.1,309.513,88.094,310.624s-3.313-2.113-3.326-4.068c-2.006,1.269-6.118,2.082-6.347-.476L77,287.5l27.024-15.607Z" transform="translate(-62.701 -138.127)" fill="#095aff"/>
        <path id="Path_158991" data-name="Path 158991" d="M104.034,269.008,77.01,284.614v-5.008L104.034,264Z" transform="translate(-62.705 -135.244)" fill="#095aff"/>
        <path id="Path_158992" data-name="Path 158992" d="M80.61,326.321l7.4,3.269-2.3-6.029Z" transform="translate(-64.02 -157.003)" fill="#095aff"/>
        <path id="Path_158993" data-name="Path 158993" d="M92.666,296.093c-.2.762-.635,1.066-.927.6a3.751,3.751,0,0,1-.178-1.574c0-1.307-.038-2.589-.038-3.9,0-.406-.349-.057-.355.3v3.529c-.26-.933-1.384.2-1.853,1.079s-1.136,2.989-.317,3.205c.7.19,1.79-1.193,2.317-2.412a1.269,1.269,0,0,0,.267.584c.457.463,1.339-.52,1.346-1.536C92.907,295.731,92.7,295.9,92.666,296.093Zm-1.637.051a2.755,2.755,0,0,1-.178.819,4.443,4.443,0,0,1-.635,1.111,2.024,2.024,0,0,1-.571.552.349.349,0,0,1-.508-.108,1.9,1.9,0,0,1,.063-1.269,3.884,3.884,0,0,1,.971-1.752c.374-.3.692-.336.806.19a1.555,1.555,0,0,1,.038.438Z" transform="translate(-66.943 -145.124)" fill="#095aff"/>
        <path id="Path_158994" data-name="Path 158994" d="M107.405,286.511c-.2.762-.635,1.066-.927.635a3.852,3.852,0,0,1-.184-1.574c0-1.307-.038-2.589-.038-3.9,0-.406-.349-.057-.349.3V285.5c-.26-.933-1.384.2-1.853,1.079s-1.136,2.989-.324,3.205c.711.19,1.8-1.193,2.323-2.412a1.269,1.269,0,0,0,.267.584c.457.463,1.339-.52,1.345-1.536C107.653,286.168,107.45,286.333,107.405,286.511Zm-1.637.051a3.212,3.212,0,0,1-.178.819,4.271,4.271,0,0,1-.635,1.111,2,2,0,0,1-.565.552.349.349,0,0,1-.508-.108,1.9,1.9,0,0,1,.057-1.269,3.891,3.891,0,0,1,.977-1.752c.374-.3.685-.336.806.19a1.555,1.555,0,0,1,.044.457Z" transform="translate(-72.327 -141.635)" fill="#095aff"/>
        <path id="Path_158995" data-name="Path 158995" d="M97.188,295.055c-.317.552-.489,1.155-.946,1.466a.932.932,0,0,1-.489.171c-.324,0-.324-.47-.311-.939a1.98,1.98,0,0,0,.92-.965,3.008,3.008,0,0,0,.387-1.568c-.108-1.39-1.219.254-1.485,1.168a5.674,5.674,0,0,0-.178,1.123l-.051.044c-.083.083-.178.349-.044.324h.083v.571c0,.584.178.908.539.927a1.5,1.5,0,0,0,1.187-.825,2.919,2.919,0,0,0,.6-1.5C97.385,294.9,97.258,294.941,97.188,295.055Zm-1.663-.381c.07-.324.711-1.872.889-1.117s-.457,1.307-.958,1.688a3.045,3.045,0,0,1,.07-.571Z" transform="translate(-69.25 -145.723)" fill="#095aff"/>
        <path id="Path_158996" data-name="Path 158996" d="M102.214,292.643a.743.743,0,0,1-.216-.184h0l-.051.063c-.343.374-.635.355-.724-.07a6.263,6.263,0,0,1-.1-1.656v-.2h0v-.083c0-.273-.19-.178-.3,0-.311-1.422-2.589,2.4-2.126,3.929.248.831,1.054.33,1.58-.3a3.172,3.172,0,0,0,.59-1.168.952.952,0,0,0,.355.6c.317.184.787-.33,1.054-.92Zm-1.574-.3a3.446,3.446,0,0,1-.635,1.358c-.19.248-.635.5-.806.381a.508.508,0,0,1-.127-.425,3.322,3.322,0,0,1,.1-.584,5.713,5.713,0,0,1,.533-1.415c.235-.4.679-.857.933-.635S100.71,291.977,100.64,292.339Z" transform="translate(-70.607 -144.816)" fill="#095aff"/>
        <path id="Path_158997" data-name="Path 158997" d="M105.294,302.193c-.324.546-.5,1.155-.946,1.46a.946.946,0,0,1-.489.171c-.33,0-.33-.47-.317-.933a2.031,2.031,0,0,0,.927-.952,3.136,3.136,0,0,0,.387-1.568c-.114-1.39-1.225.254-1.485,1.174a5.26,5.26,0,0,0-.184,1.117l-.044.044c-.089.082-.184.349-.051.324h.083v.571c0,.584.171.908.533.933a1.542,1.542,0,0,0,1.206-.85,2.837,2.837,0,0,0,.59-1.5C105.485,302.04,105.358,302.072,105.294,302.193Zm-1.669-.387c.076-.324.717-1.866.889-1.117s-.457,1.307-.958,1.688a3.686,3.686,0,0,1,.089-.571Z" transform="translate(-72.209 -148.335)" fill="#095aff"/>
        <path id="Path_158998" data-name="Path 158998" d="M95.749,308.152h-.083c-.127.121-.241.279-.368.406s-.273.2-.374.133-.133-.33-.146-.565v-2.653c0-.432.032-.863.063-1.3a4.1,4.1,0,0,0-.07-1.193c0-.089-.165,0-.171.127a36.989,36.989,0,0,0-.2,5.509c0,.5.19.9.552.73.241-.108.85-.692.806-1.155A.127.127,0,0,0,95.749,308.152Z" transform="translate(-69.049 -149.471)" fill="#095aff"/>
        <path id="Path_158999" data-name="Path 158999" d="M97.881,308.46c-.209.044-.3.152-.374-.133a4.183,4.183,0,0,1,0-1.022,11.461,11.461,0,0,0,.076-1.9c0-.146-.2.057-.222.184a14.439,14.439,0,0,0-.216,3.04c.044.584.533.812.8.044C97.957,308.581,97.951,308.447,97.881,308.46Z" transform="translate(-70.057 -150.351)" fill="#095aff"/>
        <path id="Path_159000" data-name="Path 159000" d="M98.051,302.049c-.063-.07-.216.057-.286.2a.56.56,0,0,0-.1.108.914.914,0,0,0-.133.679.057.057,0,0,0,.076.051.679.679,0,0,0,.425-.476C98.1,302.429,98.146,302.138,98.051,302.049Z" transform="translate(-70.195 -149.137)" fill="#095aff"/>
        <path id="Path_159001" data-name="Path 159001" d="M101.34,305.376v-1.809c0-.47.051-1.13-.311-1.1-.717.063-1.085,1.568-1.32,2.869a14.354,14.354,0,0,0-.1-1.663c0-.2-.228.032-.241.216a27.581,27.581,0,0,0,.063,3.173c0,.3.267.038.317-.2.152-.717.222-1.409.393-2.139a6.143,6.143,0,0,1,.33-1.155c.438-.889.533-.222.533.286v1.371a3.916,3.916,0,0,0,.057,1.238.094.094,0,0,0,.133.076.463.463,0,0,0,.165-.286,1.6,1.6,0,0,0,0-.343Z" transform="translate(-70.863 -149.298)" fill="#095aff"/>
        <path id="Path_159002" data-name="Path 159002" d="M105.493,314.543c-.044-.533-.044-.952-.317-1.225s-.59-.032-.914.051c.3-.635.939-1.339.882-2.037-.063-.8-1.352.374-1.688.635-.044,0-.089.076-.121.152s0,0,0,.032c-.038.114-.038.235,0,.228h0a5.413,5.413,0,0,0,.85-.438c.076-.044.457-.381.508-.33s-.209.635-.222.635a6.981,6.981,0,0,0-.7,1.409c0,.14,0,.336.07.343s.3-.121.432-.114c.711.044.806.241.844,1.066a2.862,2.862,0,0,1-.755,2.171c-.317.33-.635.406-.876.241s-.165-.559.184-1.155c.1-.114.152-.432,0-.387a1.447,1.447,0,0,0-.755,1.606c.228,1,1.028.857,1.688.051A3.808,3.808,0,0,0,105.493,314.543Z" transform="translate(-72.154 -152.435)" fill="#095aff"/>
        <path id="Path_159003" data-name="Path 159003" d="M100.707,319.77a.209.209,0,0,0-.1-.1c-.165-.1-.489.146-.635.228a11.351,11.351,0,0,1-1.46.87,11.8,11.8,0,0,1,.463-1.384c.292-.711.584-1.4.844-2.132s.774-1.853.406-2.431-1.085.2-1.326.489a3.4,3.4,0,0,0-.6,1.041,1.689,1.689,0,0,0-.184.444c0,.165.133.267.279.152a.483.483,0,0,0,.127-.171c.076-.133.146-.267.209-.406a3.25,3.25,0,0,1,.26-.539,2.537,2.537,0,0,1,.4-.425c.133-.127.368-.267.514-.083a.766.766,0,0,1,.038.635,10.747,10.747,0,0,1-.578,1.644c-.248.635-.539,1.269-.806,1.9a15.609,15.609,0,0,0-.476,1.574c-.076.222,0,.438.114.406a4.381,4.381,0,0,0,.9-.438,14.243,14.243,0,0,1,1.314-.749.755.755,0,0,0,.165-.07.4.4,0,0,0,.121-.457Z" transform="translate(-70.395 -153.734)" fill="#095aff"/>
      </g>
      <g id="freepik--Cabinet--inject-1--inject-51" transform="translate(185.758 80.633)">
        <g id="freepik--cabinet--inject-1--inject-51-2" data-name="freepik--cabinet--inject-1--inject-51" transform="translate(0 0)">
          <path id="Path_159004" data-name="Path 159004" d="M309.663,188.931l-24.137-13.937-.006-51.764,24.143,13.937Z" transform="translate(-285.52 -103.32)" fill="#095aff"/>
          <path id="Path_159005" data-name="Path 159005" d="M309.663,172.44l-24.143,5.807.006,14.724,24.137,13.937Z" transform="translate(-285.52 -121.298)" fill="#095aff" opacity="0.25"/>
          <path id="Path_159006" data-name="Path 159006" d="M323.56,133.73l34.482-19.91v51.764l-34.482,19.91Z" transform="translate(-299.417 -99.883)" fill="#095aff"/>
          <path id="Path_159007" data-name="Path 159007" d="M344.145,105.8l-34.482,19.91L285.52,111.77l34.488-19.91Z" transform="translate(-285.52 -91.86)" fill="#095aff"/>
          <path id="Path_159008" data-name="Path 159008" d="M346.364,142.522l4.69-2.71c.635-.355,1.1-.19,1.1.355a2.221,2.221,0,0,1-1.1,1.637l-4.69,2.7c-.635.355-1.1.19-1.1-.355A2.2,2.2,0,0,1,346.364,142.522Z" transform="translate(-307.345 -109.309)" fill="#095aff"/>
          <path id="Path_159009" data-name="Path 159009" d="M327.99,177.384l27.589-15.924.635.362-.641,18.805.635.368-27.583,15.93-.635-.368Z" transform="translate(-301.035 -117.287)" fill="#095aff"/>
          <path id="Path_159010" data-name="Path 159010" d="M328.99,177.96l27.589-15.93-.006,19.173-27.583,15.93Z" transform="translate(-301.401 -117.495)" fill="#095aff"/>
          <path id="Path_159011" data-name="Path 159011" d="M345.364,180.744l4.69-2.71c.635-.349,1.1-.19,1.1.362a2.2,2.2,0,0,1-1.1,1.631l-4.69,2.71c-.635.349-1.1.19-1.1-.362A2.209,2.209,0,0,1,345.364,180.744Z" transform="translate(-306.979 -123.274)" fill="#095aff"/>
          <path id="Path_159012" data-name="Path 159012" d="M327.99,139.81l27.589-15.93.635.368-.641,18.805.635.368-27.583,15.924-.635-.368Z" transform="translate(-301.035 -103.558)" fill="#095aff"/>
          <path id="Path_159013" data-name="Path 159013" d="M328.99,140.384l27.589-15.924-.006,19.173L328.99,159.557Z" transform="translate(-301.401 -103.77)" fill="#095aff"/>
          <path id="Path_159014" data-name="Path 159014" d="M323.56,170.707l11.265-6.505a.724.724,0,0,1,.692-.063h0l-.914-.539a1.834,1.834,0,0,0-.736-.343.437.437,0,0,0-.152,0h-.051q-.117.048-.228.108l-9.876,5.712Z" transform="translate(-299.417 -117.941)" fill="#095aff" opacity="0.25"/>
          <path id="Path_159015" data-name="Path 159015" d="M345.364,143.172l4.69-2.71c.635-.355,1.1-.19,1.1.355a2.221,2.221,0,0,1-1.1,1.637l-4.69,2.723c-.635.355-1.1.19-1.1-.355a2.2,2.2,0,0,1,1.1-1.65Z" transform="translate(-306.979 -109.547)" fill="#095aff"/>
        </g>
      </g>
      <g id="freepik--Folder--inject-1--inject-51" transform="translate(176.225 120.869)">
        <path id="Path_159016" data-name="Path 159016" d="M325.991,196.049l-42.9,24.752-2.609,1.5-.121.063a1.267,1.267,0,0,1-.216.083,1.1,1.1,0,0,1-.273.076.933.933,0,0,1-.184.032h-.267a1.371,1.371,0,0,1-.685-.152,2.539,2.539,0,0,1-.977-1.549l-7.229-37.522a1.694,1.694,0,0,1,0-.254,1.118,1.118,0,0,1,0-.2h0a1.629,1.629,0,0,1,.07-.3c.038-.1.083-.2.127-.292a1.657,1.657,0,0,1,.108-.178,2.067,2.067,0,0,1,.146-.184,1.049,1.049,0,0,1,.152-.14,1.658,1.658,0,0,1,.171-.121l45.506-26.275.121-.063.133-.057h.057a.38.38,0,0,1,.165,0,1.9,1.9,0,0,1,.806.381l1.009.59h0a.634.634,0,0,1,.209.146.94.94,0,0,1,.184.311.238.238,0,0,0,.038.159l7.229,37.56a1.7,1.7,0,0,1-.768,1.637Z" transform="translate(-270.508 -155.256)" fill="#095aff"/>
        <path id="Path_159017" data-name="Path 159017" d="M325.991,196.049l-42.9,24.752-2.609,1.5-.121.063a1.267,1.267,0,0,1-.216.083,1.1,1.1,0,0,1-.273.076.933.933,0,0,1-.184.032h-.267a1.371,1.371,0,0,1-.685-.152,2.539,2.539,0,0,1-.977-1.549l-7.229-37.522a1.694,1.694,0,0,1,0-.254,1.118,1.118,0,0,1,0-.2h0a1.629,1.629,0,0,1,.07-.3c.038-.1.083-.2.127-.292a1.657,1.657,0,0,1,.108-.178,2.067,2.067,0,0,1,.146-.184,1.049,1.049,0,0,1,.152-.14,1.658,1.658,0,0,1,.171-.121l45.506-26.275.121-.063.133-.057h.057a.38.38,0,0,1,.165,0,1.9,1.9,0,0,1,.806.381l1.009.59h0a.634.634,0,0,1,.209.146.94.94,0,0,1,.184.311.238.238,0,0,0,.038.159l7.229,37.56a1.7,1.7,0,0,1-.768,1.637Z" transform="translate(-270.508 -155.256)" fill="#095aff"/>
        <path id="Path_159018" data-name="Path 159018" d="M280.337,237.922a1.9,1.9,0,0,1-1.625.057,2.539,2.539,0,0,1-.977-1.549l-7.216-37.541a1.65,1.65,0,0,1,.19-1.06l1.536.882a1.657,1.657,0,0,0-.2,1.06l7.229,37.56a.749.749,0,0,0,1.06.59Z" transform="translate(-270.499 -170.809)" fill="#095aff" opacity="0.45"/>
        <path id="Path_159019" data-name="Path 159019" d="M318.2,155.615l1.009.59h0a.812.812,0,0,0-.762.07L272.937,182.55a1.492,1.492,0,0,0-.571.635l-1.536-.882a1.661,1.661,0,0,1,.108-.178,2.065,2.065,0,0,1,.146-.184,1.421,1.421,0,0,1,.324-.26l45.506-26.275.254-.121h.057a.381.381,0,0,1,.165,0,1.9,1.9,0,0,1,.806.33Z" transform="translate(-270.62 -155.263)" fill="#095aff" opacity="0.25"/>
        <path id="Path_159020" data-name="Path 159020" d="M280.159,222.279l-7.229-37.56a1.707,1.707,0,0,1,.768-1.676L319.2,156.768a.755.755,0,0,1,1.193.546l7.229,37.56a1.688,1.688,0,0,1-.762,1.676l-45.512,26.275a.755.755,0,0,1-1.193-.546Z" transform="translate(-271.381 -155.756)" fill="#095aff"/>
        <path id="Path_159021" data-name="Path 159021" d="M280.159,222.279l-7.229-37.56a1.707,1.707,0,0,1,.768-1.676L319.2,156.768a.755.755,0,0,1,1.193.546l7.229,37.56a1.688,1.688,0,0,1-.762,1.676l-45.512,26.275a.755.755,0,0,1-1.193-.546Z" transform="translate(-271.381 -155.756)" fill="#095aff" opacity="0.35"/>
        <path id="Path_159022" data-name="Path 159022" d="M284.329,229.949a1.4,1.4,0,0,1-1.168.044,1.834,1.834,0,0,1-.7-1.123l-5.2-27.018a1.2,1.2,0,0,1,.14-.762l1.1.635a1.2,1.2,0,0,0-.14.762l5.2,27.024a.539.539,0,0,0,.774.438Z" transform="translate(-272.962 -172)" fill="#095aff"/>
        <path id="Path_159023" data-name="Path 159023" d="M320.344,162.724l.73.425h0a.571.571,0,0,0-.546.051l-41.5,23.965a1.117,1.117,0,0,0-.413.444l-1.1-.635.076-.127.108-.133a1.078,1.078,0,0,1,.228-.184l41.5-23.972.178-.089h.165a1.592,1.592,0,0,1,.578.254Z" transform="translate(-273.06 -157.891)" fill="#095aff"/>
        <path id="Path_159024" data-name="Path 159024" d="M284.19,215.765l-5.2-27.024a1.212,1.212,0,0,1,.552-1.206l41.5-23.972a.546.546,0,0,1,.857.393l5.2,27.024a1.212,1.212,0,0,1-.552,1.206l-41.5,23.972a.546.546,0,0,1-.857-.393Z" transform="translate(-273.597 -158.254)" fill="#095aff"/>
        <path id="Path_159025" data-name="Path 159025" d="M332.4,162.3a.73.73,0,0,0-.286-.635.209.209,0,0,0-.07-.038l-1.472-.863h0a.717.717,0,0,0-.717.07l-29.5,17.009-.844-3.478a.926.926,0,0,0-.425-.558h0l-1.536-.889h0a.9.9,0,0,0-.933,0l-12.56,7.267a2.253,2.253,0,0,0-1.022,1.764V223.8a.717.717,0,0,0,.273.635h0l1.58.92h0a.736.736,0,0,0,.7-.089L331.4,198.817a2.247,2.247,0,0,0,1.015-1.764Z" transform="translate(-275.079 -157.244)" fill="#095aff"/>
        <path id="Path_159026" data-name="Path 159026" d="M299.224,180.764a.914.914,0,0,0-.914.044l-12.547,7.242a2.2,2.2,0,0,0-.724.762l-1.53-.889a2,2,0,0,1,.724-.762l12.547-7.235a.914.914,0,0,1,.933,0h0Z" transform="translate(-275.252 -164.222)" fill="#095aff" opacity="0.1"/>
        <path id="Path_159027" data-name="Path 159027" d="M342.016,161.606a.755.755,0,0,0-.666.1l-29.525,17.035a.895.895,0,0,1-1.365-.539l-.14-.374,29.5-17.009a.889.889,0,0,1,.451-.133.521.521,0,0,1,.267.063h0Z" transform="translate(-285.047 -157.237)" fill="#095aff" opacity="0.1"/>
        <path id="Path_159028" data-name="Path 159028" d="M333.268,162.794v34.761a2.24,2.24,0,0,1-1.022,1.764l-45.925,26.517a.6.6,0,0,1-.9-.52V183.338a2.037,2.037,0,0,1,.3-1,2.081,2.081,0,0,1,.717-.762l12.547-7.248a.927.927,0,0,1,.92-.044h0a.965.965,0,0,1,.425.565l.857,3.459.14.374a.889.889,0,0,0,1.358.546l29.531-17.035a.755.755,0,0,1,.666-.1h.038A.73.73,0,0,1,333.268,162.794Z" transform="translate(-275.95 -157.739)" fill="#095aff"/>
        <path id="Path_159029" data-name="Path 159029" d="M333.268,162.794v34.761a2.24,2.24,0,0,1-1.022,1.764l-45.925,26.517a.6.6,0,0,1-.9-.52V183.338a2.037,2.037,0,0,1,.3-1,2.081,2.081,0,0,1,.717-.762l12.547-7.248a.927.927,0,0,1,.92-.044h0a.965.965,0,0,1,.425.565l.857,3.459.14.374a.889.889,0,0,0,1.358.546l29.531-17.035a.755.755,0,0,1,.666-.1h.038A.73.73,0,0,1,333.268,162.794Z" transform="translate(-275.95 -157.739)" fill="#095aff" opacity="0.2"/>
        <path id="Path_159030" data-name="Path 159030" d="M284.907,237.027h-.044l-1.58-.914a.755.755,0,0,1-.273-.635V193.6a2.056,2.056,0,0,1,.3-1l1.53.889h0a2.076,2.076,0,0,0-.3,1v41.977a.59.59,0,0,0,.368.559Z" transform="translate(-275.069 -168.899)" fill="#095aff" opacity="0.45"/>
      </g>
      <g id="freepik--Marker--inject-1--inject-51" transform="translate(86.673 213.005)">
        <path id="Path_159031" data-name="Path 159031" d="M202.867,307.956a8.885,8.885,0,0,0-4.017-6.981,2.833,2.833,0,0,0-2.818-.292h0l-40.3,23.28,5.712,9.831,40.276-23.267h0A2.726,2.726,0,0,0,202.867,307.956Z" transform="translate(-139.019 -300.427)" fill="#095aff"/>
        <path id="Path_159032" data-name="Path 159032" d="M201.723,304.007a8.213,8.213,0,0,0-2.843-3,2.833,2.833,0,0,0-2.818-.292h0l-40.3,23.28,2.856,4.912L201.774,304Z" transform="translate(-139.03 -300.438)" fill="#095aff"/>
        <path id="Path_159033" data-name="Path 159033" d="M157.872,327.263,200.8,302.511a7.091,7.091,0,0,0-1.549-1.269c-.114-.063-.222-.121-.336-.171L156.78,325.4Z" transform="translate(-139.403 -300.662)" fill="#095aff"/>
        <path id="Path_159034" data-name="Path 159034" d="M157.907,337.687a8.885,8.885,0,0,1,4.017,6.981c0,2.539-1.8,3.6-4.017,2.323a8.885,8.885,0,0,1-4.017-6.981C153.89,337.439,155.686,336.417,157.907,337.687Z" transform="translate(-138.347 -313.84)" fill="#095aff"/>
        <path id="Path_159035" data-name="Path 159035" d="M219.865,313.116a2.816,2.816,0,0,0,1.174-2.6,8.885,8.885,0,0,0-4.017-6.981,2.822,2.822,0,0,0-2.812-.292l1.142-.635a2.841,2.841,0,0,1,2.812.3,8.885,8.885,0,0,1,4.024,6.981,2.832,2.832,0,0,1-1.174,2.6Z" transform="translate(-160.383 -301.131)" fill="#095aff"/>
        <path id="Path_159036" data-name="Path 159036" d="M154.031,344.585a9.6,9.6,0,0,0-4.347-7.527,3.047,3.047,0,0,0-3.072-.3l-15.232,8.8,6.2,10.612,15.181-8.765A3.045,3.045,0,0,0,154.031,344.585Z" transform="translate(-130.123 -313.592)" fill="#095aff"/>
        <path id="Path_159037" data-name="Path 159037" d="M153.2,338.875l-15.232,8.777a7.616,7.616,0,0,0-1.79-1.472l15.232-8.79a7.794,7.794,0,0,1,1.79,1.485Z" transform="translate(-131.877 -313.931)" fill="#095aff" opacity="0.3"/>
        <path id="Path_159038" data-name="Path 159038" d="M157.6,347.357a3.071,3.071,0,0,1-1.269,2.818l-15.175,8.765h0a3.081,3.081,0,0,0,1.269-2.793,8.315,8.315,0,0,0-.774-3.313l15.232-8.784a8.327,8.327,0,0,1,.717,3.307Z" transform="translate(-133.696 -316.364)" fill="#095aff" opacity="0.05"/>
        <path id="Path_159039" data-name="Path 159039" d="M133.748,350.9a9.6,9.6,0,0,1,4.348,7.527c0,2.767-1.948,3.891-4.348,2.507A9.6,9.6,0,0,1,129.4,353.4C129.4,350.63,131.348,349.507,133.748,350.9Z" transform="translate(-129.4 -318.647)" fill="#095aff"/>
        <path id="Path_159040" data-name="Path 159040" d="M133.748,350.9a9.6,9.6,0,0,1,4.348,7.527c0,2.767-1.948,3.891-4.348,2.507A9.6,9.6,0,0,1,129.4,353.4C129.4,350.63,131.348,349.507,133.748,350.9Z" transform="translate(-129.4 -318.647)" fill="#095aff" opacity="0.1"/>
        <path id="Path_159041" data-name="Path 159041" d="M134.635,353.782c-1.549-.889-2.805-.165-2.805,1.625a6.182,6.182,0,0,0,2.805,4.849c1.549.895,2.805.165,2.805-1.618A6.194,6.194,0,0,0,134.635,353.782Zm0,5.5a4.341,4.341,0,0,1-1.961-3.4c0-1.269.882-1.758,1.961-1.13a4.322,4.322,0,0,1,1.961,3.4c0,1.276-.85,1.777-1.961,1.155Z" transform="translate(-130.288 -319.78)" fill="#095aff" opacity="0.2"/>
        <path id="Path_159042" data-name="Path 159042" d="M147.612,356.18l-1.092.628,1.092.622,1.085-.622Z" transform="translate(-135.654 -320.795)" fill="#095aff"/>
        <path id="Path_159043" data-name="Path 159043" d="M161.962,347.982l-1.092-.635a.977.977,0,0,0-.977.089h0l-11.653,6.721v3.77l11.653-6.728a3.078,3.078,0,0,0,1.39-2.405v-.14l.127.076Z" transform="translate(-136.283 -317.535)" fill="#095aff"/>
        <path id="Path_159044" data-name="Path 159044" d="M163,349.242v.559a3.078,3.078,0,0,1-1.39,2.405L150,358.933v-3.77l11.646-6.721h0C162.389,348,163,348.36,163,349.242Z" transform="translate(-136.926 -317.9)" fill="#095aff"/>
        <path id="Path_159045" data-name="Path 159045" d="M163,349.242v.559a3.078,3.078,0,0,1-1.39,2.405L150,358.933v-3.77l11.646-6.721h0C162.389,348,163,348.36,163,349.242Z" transform="translate(-136.926 -317.9)" fill="#095aff" opacity="0.05"/>
        <path id="Path_159046" data-name="Path 159046" d="M146.52,360.934V357.17l2.171,1.25.006,3.77Z" transform="translate(-135.654 -321.157)" fill="#095aff"/>
        <path id="Path_159047" data-name="Path 159047" d="M146.52,360.934V357.17l2.171,1.25.006,3.77Z" transform="translate(-135.654 -321.157)" fill="#095aff" opacity="0.1"/>
      </g>
      <g id="freepik--character-2--inject-1--inject-51" transform="translate(227.995 152.886)">
        <g id="freepik--character-boy--inject-1--inject-51" transform="translate(0 0)">
          <path id="Path_159048" data-name="Path 159048" d="M371.192,251.493c-.635.635-2.069,1.142-11.5,1.828a8.993,8.993,0,0,1-4.049-.533,6.836,6.836,0,0,1-3.142-2.5,2.411,2.411,0,0,1-.394-.825,1.174,1.174,0,0,1,.121-.889,1.269,1.269,0,0,1,.755-.482,2.729,2.729,0,0,1,1.764.19c.876.336,1.542.457,1.472.279s-.59-.336-1.13-.952-.679-1.46-.33-1.726.292-.2.914.311a20.734,20.734,0,0,1,2.164,1.58,4.894,4.894,0,0,0,1.9,1.327c.946.374,1.841.26,4.443-.159,2.266-.362,3.173-.489,4.227-1.1,1.174-1.783,4-9.3,5.23-11.367a5,5,0,0,1,3.935-2.247,25.387,25.387,0,0,1-1.333,7.9A55.811,55.811,0,0,1,371.192,251.493Z" transform="translate(-352.069 -216.124)" fill="#095aff"/>
          <path id="Path_159049" data-name="Path 159049" d="M388.319,233.841a4.811,4.811,0,0,0-3.173.559c-1.428.895-2.361,2.539-3.269,4.646-1.1,2.539-2.437,5.915-2.437,5.915a7.743,7.743,0,0,0,4.754,2.158l4.259-7.077Z" transform="translate(-362.069 -215.958)" fill="#095aff"/>
          <g id="freepik--character-boy--inject-1--inject-51-2" data-name="freepik--character-boy--inject-1--inject-51" transform="translate(13.704)">
            <rect id="Rectangle_37479" data-name="Rectangle 37479" width="3.675" height="6.29" transform="translate(18.938 92.756)" fill="#095aff"/>
            <path id="Path_159050" data-name="Path 159050" d="M391.052,350.518l-3.668.127-.184-6.658,3.852-.127Z" transform="translate(-378.608 -256.175)" fill="#095aff"/>
            <path id="Path_159051" data-name="Path 159051" d="M401.183,274.967c0,3.5-.635,23.914-.635,23.914.082,1.009,1.054,2.805,1.13,6.442.114,5.268-1.9,19.751-1.9,19.751a4.836,4.836,0,0,1-4.094.076s-1.663-19.624-2.323-24.841c-.578-4.557-1.549-16.933-1.549-16.933l-1.733,14.87a20.842,20.842,0,0,1,.457,5.839c-.171,2.412-.85,17.365-.85,17.365a5.02,5.02,0,0,1-4.246.324s-2.589-21.312-2.628-23.527c-.051-2.539.958-28.306.958-28.306Z" transform="translate(-377.003 -229.17)" fill="#095aff"/>
            <path id="Path_159052" data-name="Path 159052" d="M401.183,274.967c0,3.5-.635,23.914-.635,23.914.082,1.009,1.054,2.805,1.13,6.442.114,5.268-1.9,19.751-1.9,19.751a4.836,4.836,0,0,1-4.094.076s-1.663-19.624-2.323-24.841c-.578-4.557-1.549-16.933-1.549-16.933l-1.733,14.87a20.842,20.842,0,0,1,.457,5.839c-.171,2.412-.85,17.365-.85,17.365a5.02,5.02,0,0,1-4.246.324s-2.589-21.312-2.628-23.527c-.051-2.539.958-28.306.958-28.306Z" transform="translate(-377.003 -229.17)" fill="#095aff" opacity="0.5"/>
            <path id="Path_159053" data-name="Path 159053" d="M399.258,235.938a3.364,3.364,0,0,1,1.771,1.847,8.523,8.523,0,0,1,.54,3.173v7.2l.108,13.595a16.419,16.419,0,0,1-17.606-1.142s.317-17.5.317-20.36v-.393a6.524,6.524,0,0,1,8.194-5.871l3.332.857,3.338,1.1Z" transform="translate(-377.464 -215.953)" fill="#095aff"/>
            <circle id="Ellipse_4800" data-name="Ellipse 4800" cx="5.052" cy="5.052" r="5.052" transform="translate(5.733 3.867) rotate(-22.5)" fill="#095aff"/>
            <circle id="Ellipse_4801" data-name="Ellipse 4801" cx="5.052" cy="5.052" r="5.052" transform="translate(5.733 3.867) rotate(-22.5)" fill="#095aff" opacity="0.5"/>
            <path id="Path_159054" data-name="Path 159054" d="M405.6,221.75a44.905,44.905,0,0,1-1.142,4.481,1.745,1.745,0,0,1-1.009.806l.057-2.7Z" transform="translate(-384.544 -211.565)" fill="#095aff"/>
            <path id="Path_159055" data-name="Path 159055" d="M405.6,221.75a44.905,44.905,0,0,1-1.142,4.481,1.745,1.745,0,0,1-1.009.806l.057-2.7Z" transform="translate(-384.544 -211.565)" fill="#095aff" opacity="0.5"/>
            <path id="Path_159056" data-name="Path 159056" d="M404.924,213.073a1.9,1.9,0,0,1,1.568.552c.679.685.3,2.843-.539,4.95l-1.542.178Z" transform="translate(-384.895 -208.391)" fill="#095aff"/>
            <path id="Path_159057" data-name="Path 159057" d="M404.924,213.073a1.9,1.9,0,0,1,1.568.552c.679.685.3,2.843-.539,4.95l-1.542.178Z" transform="translate(-384.895 -208.391)" fill="#095aff"/>
            <path id="Path_159058" data-name="Path 159058" d="M397.349,217.353c.311.184.755-.406,1.136-.806a1.339,1.339,0,0,1,2.247.368,2.8,2.8,0,0,1-1.53,3.4c-1.688.533-1.942-.552-1.942-.552l-.127,6.277h0c-2.094,2.691-7.921,2.463-5.5-.349v-1.853a10.617,10.617,0,0,1-2.272.121,3.066,3.066,0,0,1-2.4-2.539c-.635-2.158-.838-3.9-.324-8.143.565-4.652,5.972-4.7,8.885-2.862S397.349,217.353,397.349,217.353Z" transform="translate(-378.297 -207.009)" fill="#095aff"/>
            <path id="Path_159059" data-name="Path 159059" d="M396.7,216.883c.159,0,.749-.977,1.136-1.326.533-.482-.159-4.874-.159-4.874a2.075,2.075,0,0,0-.514-2.221c-.73-.806-1.523-1.314-3.63-1.428a42.659,42.659,0,0,0-4.309.2,8.965,8.965,0,0,1-4.043-.7c-.914-.254-1.016,3.04,1.269,4.138a7.1,7.1,0,0,0,2.723.724,28.64,28.64,0,0,0,5.484-.108c.571-.076.692.482,1,2C395.958,214.618,396.18,216.877,396.7,216.883Z" transform="translate(-377.649 -206.001)" fill="#095aff"/>
            <path id="Path_159060" data-name="Path 159060" d="M396.7,216.883c.159,0,.749-.977,1.136-1.326.533-.482-.159-4.874-.159-4.874a2.075,2.075,0,0,0-.514-2.221c-.73-.806-1.523-1.314-3.63-1.428a42.659,42.659,0,0,0-4.309.2,8.965,8.965,0,0,1-4.043-.7c-.914-.254-1.016,3.04,1.269,4.138a7.1,7.1,0,0,0,2.723.724,28.64,28.64,0,0,0,5.484-.108c.571-.076.692.482,1,2C395.958,214.618,396.18,216.877,396.7,216.883Z" transform="translate(-377.649 -206.001)" fill="#095aff"/>
            <path id="Path_159061" data-name="Path 159061" d="M405.151,212.7l1.866-1.009a1.028,1.028,0,0,0-1.415-.463,1.111,1.111,0,0,0-.451,1.472Z" transform="translate(-385.122 -207.677)" fill="#095aff"/>
            <path id="Path_159062" data-name="Path 159062" d="M405.151,212.7l1.866-1.009a1.028,1.028,0,0,0-1.415-.463,1.111,1.111,0,0,0-.451,1.472Z" transform="translate(-385.122 -207.677)" fill="#095aff"/>
            <path id="Path_159063" data-name="Path 159063" d="M394.69,230.859a21.21,21.21,0,0,0,3.738-1.073,3.1,3.1,0,0,0,1.339-1.326,4.347,4.347,0,0,1-.755,1.568c-.711.9-4.322,1.568-4.322,1.568Z" transform="translate(-381.344 -214.017)" fill="#095aff"/>
            <path id="Path_159064" data-name="Path 159064" d="M394.9,220.608a.559.559,0,1,0,.559-.578A.571.571,0,0,0,394.9,220.608Z" transform="translate(-381.421 -210.937)" fill="#095aff"/>
            <path id="Path_159065" data-name="Path 159065" d="M395.83,217.417l1.187.635a.7.7,0,0,0-.273-.946.666.666,0,0,0-.914.311Z" transform="translate(-381.76 -209.841)" fill="#095aff"/>
            <path id="Path_159066" data-name="Path 159066" d="M394.359,227l-1.269.476a.673.673,0,0,0,.863.419A.717.717,0,0,0,394.359,227Z" transform="translate(-380.759 -213.483)" fill="#095aff"/>
            <path id="Path_159067" data-name="Path 159067" d="M387.284,217.722l1.079-.838a.635.635,0,0,0-.939-.14A.717.717,0,0,0,387.284,217.722Z" transform="translate(-378.59 -209.682)" fill="#095aff"/>
            <path id="Path_159068" data-name="Path 159068" d="M387.88,220.358a.558.558,0,1,0,.559-.578.565.565,0,0,0-.559.578Z" transform="translate(-378.856 -210.845)" fill="#095aff"/>
            <path id="Path_159069" data-name="Path 159069" d="M391.233,219.86l-.184,3.345-1.739-.6Z" transform="translate(-379.378 -210.875)" fill="#095aff"/>
            <path id="Path_159070" data-name="Path 159070" d="M400.155,358.6v-.52c-.349.152-1.168,3.269-2.628,4.6-1.155,1.06-2.735,2.279-3.142,3.459s2.2,1.9,3.288,1.707c1.269-.222,3.44-1.1,3.986-1.9s.8-2.031,1.269-2.634,1.466-1.269,1.707-1.967a4.442,4.442,0,0,0-.209-1.9c-.171-.635-.355-1.365-.578-1.3v.4a2.92,2.92,0,0,1-1.834.635C401.456,359.121,400.148,359.013,400.155,358.6Z" transform="translate(-381.217 -261.37)" fill="#095aff"/>
            <path id="Path_159071" data-name="Path 159071" d="M382.4,352.62c-.19,0-.349.279-.768.73a7.831,7.831,0,0,1-2.164,1.555c-1.377.692-4.049,1.752-5.261,2.3-.755.336-.717,1.269.063,1.771a7.169,7.169,0,0,0,4.931.387c1.238-.273,2.843-1.415,3.859-1.352s2.926.044,3.675-.47.451-1.625.235-2.577-.52-2.653-.863-2.583v.393c-.438.666-2.716.939-3.687.444Z" transform="translate(-373.661 -259.287)" fill="#095aff"/>
            <path id="Path_159072" data-name="Path 159072" d="M394.055,289.422a13.562,13.562,0,0,1-5.115-2.932,10.551,10.551,0,0,0,3.922,3.567l-.394,12.985Z" transform="translate(-379.243 -235.216)" fill="#095aff" opacity="0.15"/>
          </g>
        </g>
        <path id="Path_159073" data-name="Path 159073" d="M415.694,255.566c-2.355-13.791-4.766-17.98-8.714-18.126-1.219,1.32-1.111,5.49.584,8.1,0,0,3.63,8.765,4.132,11.837a42.993,42.993,0,0,1,.755,8.4,1.669,1.669,0,0,1-.5,1.066,8.79,8.79,0,0,0-1.346,2.278c-.406.679-.831.92-.723,1.079a.9.9,0,0,0,1.212.152,4.609,4.609,0,0,0,.971-.838,9.231,9.231,0,0,1-.857,2.424c-.927,1.834-.768,2.805,1.8,2.259,1.612-.336,2.672-1.612,3.1-5.42a29.6,29.6,0,0,0,.248-4.221,82.893,82.893,0,0,0-.66-8.993Z" transform="translate(-371.832 -217.297)" fill="#095aff"/>
        <path id="Path_159074" data-name="Path 159074" d="M405.7,236.53c1.2.216,4.284.324,5.864,3.51a61.482,61.482,0,0,1,3.173,9.317,7.5,7.5,0,0,1-5.712,2.05l-1.9-5.509C405.327,243.556,404.876,238.288,405.7,236.53Z" transform="translate(-371.517 -216.965)" fill="#095aff"/>
      </g>
      <g id="freepik--character-1--inject-1--inject-51" transform="translate(164.881 184.155)">
        <path id="Path_159075" data-name="Path 159075" d="M318.437,286.54c1.479.083,2.2,1.066,3.7,4.785s4.113,10.079,3.624,11.462c-.343.965-9.7,4-9.7,4l-2.367-3.142,7.058-3.173-3.687-8.156Z" transform="translate(-274.934 -266.503)" fill="#095aff"/>
        <path id="Path_159076" data-name="Path 159076" d="M285.825,305.46l-9.622.673-.324.438,8.244,16.235,9.152-1.523Z" transform="translate(-261.121 -273.415)" fill="#095aff"/>
        <path id="Path_159077" data-name="Path 159077" d="M285.825,305.46l-9.622.673-.324.438,8.244,16.235,9.152-1.523Z" transform="translate(-261.121 -273.415)" fill="#095aff" opacity="0.3"/>
        <path id="Path_159078" data-name="Path 159078" d="M286.342,304.77l-9.952,1.111,8.251,16.235,9.152-1.523Z" transform="translate(-261.308 -273.163)" fill="#095aff"/>
        <path id="Path_159079" data-name="Path 159079" d="M287.166,307.2l-8.346.933,6.88,13.284,7.68-1.282Z" transform="translate(-262.195 -274.051)" fill="#095aff"/>
        <path id="Path_159080" data-name="Path 159080" d="M286.711,307.545l-.343-.666a1.9,1.9,0,0,0-1.733-.527l-1.479.152c-.768.083-1.269.444-1.047.812l.343.666Z" transform="translate(-263.378 -273.736)" fill="#095aff" opacity="0.15"/>
        <path id="Path_159081" data-name="Path 159081" d="M285.165,303.546a.8.8,0,0,0-.787-.336l-.571.076a2.577,2.577,0,0,0-2.094-1.4c-1.352.044-.635,1.656-.635,1.656l-.635.089c-.336.051-.52.279-.419.5l.184.406,5.122-.571Z" transform="translate(-262.625 -272.111)" fill="#095aff"/>
        <path id="Path_159082" data-name="Path 159082" d="M285.4,305.131c-.482.032-.666.076-.375.635s.635,1.136.635,1.136l-2.266.254s-.413-.819-.578-1.136a.774.774,0,0,0-.762-.514l-.216-.273,3.592-.343Z" transform="translate(-263.299 -273.207)" fill="#095aff"/>
        <path id="Path_159083" data-name="Path 159083" d="M286.911,307.685l-.343-.666c-.184-.368-.965-.6-1.733-.527l-1.472.152c-.768.083-1.238.444-1.047.812l.343.666Z" transform="translate(-263.457 -273.787)" fill="#095aff"/>
        <path id="Path_159084" data-name="Path 159084" d="M294.924,315.4s.26-1.479-.184-1.987-2.259-.438-3.173-.831-.825.673-.355,1.022C292.252,314.358,294.3,314.719,294.924,315.4Z" transform="translate(-266.596 -275.985)" fill="#095aff"/>
        <g id="freepik--Character--inject-1--inject-51">
          <path id="Path_159085" data-name="Path 159085" d="M298.556,413.33a19.034,19.034,0,0,1,.514,1.9,5.121,5.121,0,0,1,.1,2.418c-.248.514-1.212.876-2.7.863a8.691,8.691,0,0,0-3.516,1.225,9.265,9.265,0,0,1-4.443.7c-1.333-.159-2.71-.933-2.926-1.479s-.4-1.307,3.205-2.463c0,0,4.36-1.422,5.883-3.1Z" transform="translate(-264.63 -312.823)" fill="#095aff"/>
          <path id="Path_159086" data-name="Path 159086" d="M299.989,413.433l-.685-.083-3.173.063c-1.523,1.676-5.852,3.085-5.883,3.1l-.578.19c-.635.508-.1,1.365,1.4,1.5s6.118-1.428,7.146-1.9A3.059,3.059,0,0,0,299.989,413.433Z" transform="translate(-266.063 -312.831)" fill="#095aff"/>
          <path id="Path_159087" data-name="Path 159087" d="M303.858,411.33v1.364c0,.5-.584,1.238-2.094,1.181-1.066-.038-1.809-.324-1.764-1.2v-1.269Z" transform="translate(-269.932 -312.093)" fill="#095aff"/>
          <path id="Path_159088" data-name="Path 159088" d="M317.609,401.4c.273.108.33.635.343,1.682,0,.787.146,2.171-.787,2.424a2.884,2.884,0,0,1-2.856-.692c-.717-.946-1.193-1.777-2.221-2.939a8,8,0,0,1-2.183-3.345c-.3-1.269,0-1.783.85-2.126s1.637-.057,2.824.933a5.825,5.825,0,0,0,1.06.559C315.419,398.133,317.336,401.281,317.609,401.4Z" transform="translate(-273.509 -306.588)" fill="#095aff"/>
          <path id="Path_159089" data-name="Path 159089" d="M320.121,402.053l-.038,1.269s-.857,1.676-3.237,0c-.057-.121-.267-2.6-.267-2.6Z" transform="translate(-275.99 -308.217)" fill="#095aff"/>
          <path id="Path_159090" data-name="Path 159090" d="M315.5,398.45a5.829,5.829,0,0,1-1.06-.559h0c-.958-.3-2.983.051-2.069,1.447a10.714,10.714,0,0,0,2.856,2.926c1.073.533,1.453-.127,1.453-.127l-.381-3A2.381,2.381,0,0,0,315.5,398.45Z" transform="translate(-274.366 -307.146)" fill="#095aff"/>
          <path id="Path_159091" data-name="Path 159091" d="M314.086,354.525a30.254,30.254,0,0,0-1.39-6.626s.819-5.661,1.453-11.075c1.491-12.738.5-12.941-1.3-17.371,0,0-16.33-2.1-17.016,4.69-.85,8.46-.463,24.86-.324,27.856a104.059,104.059,0,0,0,1.269,10.643c.673,4.785,1.32,15.232,1.32,15.232a4.125,4.125,0,0,0,4.2-.216s2.044-12.858,2-16.317a29.348,29.348,0,0,0-1.111-7.572s1.39-13.785,1.745-15.975c0,0,.393,4.392.539,7.394s.952,5.883,1.669,11.469c.635,4.843,1.656,14.959,1.656,14.959a4.552,4.552,0,0,0,3.637.673S314.556,358.727,314.086,354.525Z" transform="translate(-268.216 -278.415)" fill="#095aff"/>
          <path id="Path_159092" data-name="Path 159092" d="M310.48,344.22l.889-5.712a12.426,12.426,0,0,0,5.046-1.758,6.792,6.792,0,0,1-4.049,2.374l-.92,6.613-.368,6.9Z" transform="translate(-273.762 -284.846)" fill="#095aff" opacity="0.1"/>
          <path id="Path_159093" data-name="Path 159093" d="M306.56,280.917l.6,6.347,5.572-.355-.444-7.039Z" transform="translate(-272.33 -264.067)" fill="#095aff"/>
          <path id="Path_159094" data-name="Path 159094" d="M313.72,288.547c-.565-1.682-1.72-2.666-4.271-2.7H308.5c-.178.939-2.926,1.695-5.636.736-.387.1-1.434.292-2.025.374l-1.269.19c-1.974.635-2.85,4.075-3.04,9.52s-1,17.079-1,17.079,4.252,2.278,10.961,1.4a13.4,13.4,0,0,0,8.13-3.884,41.679,41.679,0,0,0-3.1-8.72C314.646,294.831,314.557,291.023,313.72,288.547Z" transform="translate(-268.3 -266.251)" fill="#095aff"/>
          <path id="Path_159095" data-name="Path 159095" d="M307.51,319.778a22.981,22.981,0,0,0,3.326-.2,13,13,0,0,0,8.124-3.916,41.959,41.959,0,0,0-3.1-8.689,35.585,35.585,0,0,0,2.628-9.057c-.26,1.631-2.666,7.933-5.814,9.825a5.592,5.592,0,0,1,3.294,2.361C317.487,312.187,316.243,319.334,307.51,319.778Z" transform="translate(-272.677 -270.661)" fill="#095aff"/>
          <path id="Path_159096" data-name="Path 159096" d="M301.374,264.439s-2.107-2.539-.457-4.957c1.948-2.888,5.376-3.859,9.615-2.6a8.589,8.589,0,0,1,5.331,7.616c.121,3.129-8.663,5.2-8.524,7.349Z" transform="translate(-270.037 -255.471)" fill="#095aff"/>
          <path id="Path_159097" data-name="Path 159097" d="M299.421,270.54s-1.238,1.866-1.079,2.069a2.989,2.989,0,0,0,.946.406Z" transform="translate(-269.322 -260.658)" fill="#095aff"/>
          <path id="Path_159098" data-name="Path 159098" d="M303.718,260.938c-1.2.635-3.275,1.771-3.808,6.188-.546,4.544.463,6.118,1.085,6.715.412.4,2.57.546,3.694.2a11.743,11.743,0,0,0,5.883-4.284c1.682-2.761,2.031-6.429.089-7.87a7.241,7.241,0,0,0-6.943-.946Z" transform="translate(-269.843 -256.972)" fill="#095aff"/>
          <path id="Path_159099" data-name="Path 159099" d="M305.195,260.567s-1.047,4.144.209,6.759c0,0,.736-1.618,2.126-1.155s1.269,2.336.165,3.288a2.075,2.075,0,0,1-2.164.457,3.724,3.724,0,0,0,1.993,3.173,6.836,6.836,0,0,0,7.8-1.993c3.357-3.592,2.919-10.021-2.025-11.665A8.5,8.5,0,0,0,305.195,260.567Z" transform="translate(-271.681 -256.41)" fill="#095aff"/>
          <path id="Path_159100" data-name="Path 159100" d="M330.267,265.93l-.051.057a.521.521,0,0,1-.114.121c-.1.076-.152,0-.254,0l-.793-.324-1.123-.476c-.413-.178-.85-.362-1.269-.559-.133-.057.032-.482.171-.432.451.159.895.33,1.314.482l1.136.444.8.317c.1.044.19.032.2.152a.77.77,0,0,1,0,.171Z" transform="translate(-279.655 -258.383)" fill="#095aff"/>
          <path id="Path_159101" data-name="Path 159101" d="M330.273,258.4v.076a.726.726,0,0,1,0,.165c0,.121-.1.114-.2.159l-.8.33-1.13.457c-.413.159-.857.343-1.269.508-.133.044-.317-.368-.184-.438.432-.2.87-.393,1.269-.578s.787-.343,1.117-.482l.793-.343c.1,0,.159-.1.248,0a.728.728,0,0,1,.121.121Z" transform="translate(-279.668 -256.153)" fill="#095aff"/>
          <path id="Path_159102" data-name="Path 159102" d="M324.12,259.324a4.354,4.354,0,1,1-1.277-3.081,4.36,4.36,0,0,1,1.277,3.081Z" transform="translate(-275.559 -254.97)" fill="#095aff"/>
          <path id="Path_159103" data-name="Path 159103" d="M299.752,257.629c-1.841,1.9-1.948,7.286,3.4,8.619l3.5-9.584C304.607,255.35,301.4,255.985,299.752,257.629Z" transform="translate(-269.425 -255.331)" fill="#095aff"/>
          <path id="Path_159104" data-name="Path 159104" d="M304.508,273.33a1.056,1.056,0,1,1,.717-1.987Z" transform="translate(-271.325 -260.929)" fill="#095aff"/>
          <path id="Path_159105" data-name="Path 159105" d="M313.606,258.4v.076a.483.483,0,0,0,0,.165c0,.121.1.114.2.159l.793.33,1.13.457c.419.159.857.343,1.307.508.133.044.317-.368.178-.438-.432-.2-.863-.393-1.269-.578s-.793-.343-1.117-.482l-.793-.343c-.1,0-.159-.1-.254,0a.694.694,0,0,0-.114.121Z" transform="translate(-274.901 -256.153)" fill="#095aff"/>
          <path id="Path_159106" data-name="Path 159106" d="M313.595,265.93l.044.057a.438.438,0,0,0,.121.121c.089.076.146,0,.248,0l.8-.324,1.123-.476,1.269-.559c.127-.057-.038-.482-.178-.432-.451.159-.895.33-1.307.482l-1.142.444-.8.317c-.1.044-.184.032-.2.152a.513.513,0,0,0,0,.171Z" transform="translate(-274.89 -258.383)" fill="#095aff"/>
          <path id="Path_159107" data-name="Path 159107" d="M284.28,283.181s-.876-.121-4.151.755-10.986,2.64-10.986,2.64-9.063-4.36-9.457-4.836-.171-1.434-.064-1.967.286-1.7.406-2.031c.209-.578-.635-.425-1.149.114s-.724,1.593-.977,1.777-2.158-2.018-3.084-3.072-1.358-1.8-1.974-1.365c-.451.317-.165.946.5,1.853a11.422,11.422,0,0,1,.857,1.2c.076.159-.165.292-.267.381s-.5.419-.52.673a2.261,2.261,0,0,1,0,.413c-.083.3-.457.438-.565.736s0,.451-.032.679a2.876,2.876,0,0,1-.133.413,1.009,1.009,0,0,0,.3.781,7.284,7.284,0,0,0,2.386,1.542c.711.393,1.441.565,2.259.927s10.263,7.1,11.964,6.943c1.9-.165,13.645-2.266,13.645-2.266C286.292,287.376,284.28,283.181,284.28,283.181Z" transform="translate(-252.626 -262.313)" fill="#095aff"/>
        </g>
      </g>
    </g>
  </g>
</svg>
