<svg xmlns="http://www.w3.org/2000/svg" width="124.783" height="120" viewBox="0 0 124.783 120">
  <g id="Group_99406" data-name="Group 99406" transform="translate(-114 -211.372)">
    <path id="Path_154637" data-name="Path 154637" d="M238.783,273.805c-.686,2.753-2.441,4.882-4.1,7.069-1.548,2.035-3.031,4.121-4.618,6.125a7.668,7.668,0,0,0-1.689,4.954c0,3.492-.063,6.984-.114,10.475-.076,5.209-2.572,8.534-7.544,10.067-3.486,1.075-6.968,2.161-10.463,3.205a6.73,6.73,0,0,0-3.606,2.538q-3.366,4.553-6.8,9.059a9.978,9.978,0,0,1-11.4,3.509c-3.574-1.2-7.144-2.409-10.7-3.662a6.717,6.717,0,0,0-4.405-.07q-5.451,1.714-10.925,3.359a9.534,9.534,0,0,1-11.132-3.809c-2.141-3.009-4.285-6.017-6.365-9.068a7.621,7.621,0,0,0-4.1-3.051c-3.352-1.094-6.678-2.267-10.014-3.406-4.936-1.685-7.3-5.087-7.189-10.3.074-3.613.074-7.227.167-10.84a6.974,6.974,0,0,0-1.4-4.426c-1.666-2.3-3.257-4.656-4.919-6.96A18.62,18.62,0,0,1,114,272.1v-2.925a16.463,16.463,0,0,1,3.57-6.552c1.789-2.311,3.486-4.694,5.278-7a7.18,7.18,0,0,0,1.551-4.509q.04-5.422.129-10.843.117-7.638,7.413-9.9c3.523-1.1,7.041-2.206,10.573-3.27a6.753,6.753,0,0,0,3.615-2.528c2.2-2.971,4.419-5.922,6.643-8.873,3.069-4.073,6.966-5.257,11.824-3.605q4.318,1.469,8.631,2.949c1.353.467,1.95,1.381,1.615,2.413-.361,1.114-1.394,1.5-2.807,1.027-2.958-1-5.909-2.017-8.866-3.016a5.964,5.964,0,0,0-7.314,2.227c-2.28,3.01-4.555,6.023-6.8,9.062a10.326,10.326,0,0,1-5.472,3.851c-3.491,1.061-6.972,2.153-10.463,3.216-3.42,1.041-4.893,2.987-4.944,6.6-.05,3.574-.1,7.148-.126,10.722a10.793,10.793,0,0,1-2.349,6.761c-2.215,2.854-4.351,5.771-6.515,8.664-2.023,2.7-2.054,5.148-.1,7.94,2.073,2.959,4.128,5.931,6.243,8.86a10.58,10.58,0,0,1,2.107,6.711c-.1,3.654-.107,7.31-.168,10.965-.057,3.4,1.329,5.427,4.529,6.533,3.563,1.232,7.128,2.459,10.7,3.657a9.876,9.876,0,0,1,5.083,3.782q3.325,4.733,6.662,9.458a5.956,5.956,0,0,0,7.143,2.453c3.57-1.079,7.139-2.163,10.691-3.3a10.442,10.442,0,0,1,6.915.077c3.437,1.223,6.9,2.362,10.36,3.535,3.349,1.137,5.633.435,7.779-2.412,2.1-2.788,4.237-5.553,6.271-8.39a11.187,11.187,0,0,1,6.228-4.391c3.467-1,6.9-2.1,10.35-3.171a6.039,6.039,0,0,0,4.6-6.125q.105-5.482.13-10.965a11.024,11.024,0,0,1,2.417-6.985c2.224-2.847,4.354-5.768,6.513-8.665a5.99,5.99,0,0,0,.12-7.744c-2.1-2.993-4.175-6-6.314-8.959a10.578,10.578,0,0,1-2.118-6.708c.106-3.653.107-7.31.169-10.965.058-3.4-1.326-5.429-4.519-6.532-3.486-1.2-6.969-2.423-10.47-3.583a10.405,10.405,0,0,1-5.461-4.059c-2.127-3.07-4.287-6.117-6.447-9.163-1.907-2.691-4.265-3.475-7.439-2.5-3.062.94-6.121,1.889-9.186,2.819-1.293.393-2.279,0-2.627-1-.381-1.1.175-2.034,1.519-2.456,3.287-1.034,6.569-2.089,9.877-3.053a9.435,9.435,0,0,1,10.474,3.588c2.291,3.152,4.522,6.349,6.735,9.556a7.221,7.221,0,0,0,3.822,2.845c3.54,1.173,7.067,2.39,10.588,3.62a9.562,9.562,0,0,1,6.792,9.73c-.052,3.7-.067,7.392-.172,11.086a7.238,7.238,0,0,0,1.442,4.659c1.557,2.13,3.033,4.318,4.567,6.465s3.122,4.235,3.778,6.852Z" fill="#fe502d"/>
    <path id="Path_154638" data-name="Path 154638" d="M224.332,296.845c-10.154,0-20.308.013-30.461-.023a1.638,1.638,0,0,0-1.744,1.082,36.4,36.4,0,0,0-3.418,11.49,6.733,6.733,0,0,1-.115.721,1.791,1.791,0,0,1-2.058,1.609,1.665,1.665,0,0,1-1.5-2.107c.706-3.279,1.154-6.693,2.419-9.759,5.853-14.18,16.448-22.885,31.631-25.042,14.567-2.069,26.8,3.155,35.972,14.568,18.978,23.623,5.537,56.749-22.427,63.182-21.58,4.964-43.847-10.256-47.333-32.155-.1-.641-.2-1.284-.261-1.929-.125-1.383.413-2.221,1.492-2.374,1.111-.159,1.878.586,2.142,1.979.392,2.069.7,4.167,1.289,6.181.565,1.935,1.465,3.771,2.169,5.669a1.546,1.546,0,0,0,1.746,1.073q25.04-.044,50.079-.021c3.615,0,7.23-.023,10.844.018a1.458,1.458,0,0,0,1.584-.941c5.077-10.776,5.044-21.532,0-32.307a1.468,1.468,0,0,0-1.593-.928Q239.563,296.866,224.332,296.845Zm-1.914,37.85h-12c.6,1.452,1.1,2.812,1.7,4.121,1.62,3.491,3.6,6.743,6.78,9.048a31.185,31.185,0,0,0,3.516,1.91Zm3.809.018v14.726c4.4-.549,11.427-9.444,11.713-14.726ZM222.4,278.378c-4.547.783-11.491,9.593-11.7,14.743h11.7Zm3.8,14.762h12c-.594-1.448-1.092-2.812-1.7-4.122-1.611-3.451-3.554-6.685-6.7-8.975a32.8,32.8,0,0,0-3.6-1.982Zm-12.713,54.9a38.1,38.1,0,0,1-6.5-12.331,1.339,1.339,0,0,0-1.552-1.092c-2.837.056-5.675.021-8.513.021h-1.983A35.12,35.12,0,0,0,213.485,348.045Zm-18.531-54.856c3.831,0,7.358.021,10.885-.033a1.4,1.4,0,0,0,.979-.74c.575-1.292.918-2.7,1.571-3.944,1.549-2.956,3.226-5.845,4.822-8.708A35.772,35.772,0,0,0,194.954,293.188Zm58.665,41.455c-3.847,0-7.376-.022-10.9.037-.326.006-.787.461-.943.814-.916,2.075-1.62,4.253-2.665,6.256-1.144,2.193-2.58,4.233-3.926,6.4A36.258,36.258,0,0,0,253.618,334.644Zm-18.478-54.829a41.341,41.341,0,0,1,6.746,12.834c.091.265.666.513,1.019.518,3.324.039,6.648.024,9.972.018a3.867,3.867,0,0,0,.64-.129A35.281,35.281,0,0,0,235.141,279.814Z" transform="translate(-47.92 -42.528)" fill="#fe502d"/>
    <path id="Path_154639" data-name="Path 154639" d="M208.886,345.337c-23.47-.139-42.535-15.712-47.227-37.671a47.181,47.181,0,0,1,91.478-22.819,77.182,77.182,0,0,1,1.714,8.7,1.835,1.835,0,0,1-1.5,2.372c-1.168.165-1.959-.534-2.113-1.941a43.118,43.118,0,0,0-14.367-28.184c-24.583-22.2-64.117-9.622-71.423,22.7a43.527,43.527,0,1,0,85.263,17.476c.231-1.235.356-2.489.526-3.736.18-1.32.94-2.047,2.028-1.93a1.89,1.89,0,0,1,1.608,2.31,46.4,46.4,0,0,1-12.392,27.328,46.963,46.963,0,0,1-27.8,14.853C212.405,345.15,210.082,345.228,208.886,345.337Z" transform="translate(-31.496 -26.727)" fill="#fe502d"/>
    <path id="Path_154640" data-name="Path 154640" d="M325.7,383.956a11.266,11.266,0,1,1,11.32-11.272A11.32,11.32,0,0,1,325.7,383.956Zm.1-18.877a7.61,7.61,0,1,0,7.563,7.621A7.64,7.64,0,0,0,325.8,365.079Z" transform="translate(-135.298 -101.291)" fill="#fe502d"/>
    <path id="Path_154641" data-name="Path 154641" d="M261.494,383.877a10.486,10.486,0,0,1-7.43-3.116,1.851,1.851,0,0,1-.245-2.7,1.82,1.82,0,0,1,2.785.1,6.758,6.758,0,0,0,5.767,1.99,4.814,4.814,0,0,0,2.19-.925,2.18,2.18,0,0,0-.067-3.772,13.163,13.163,0,0,0-2.484-1.249c-1.339-.576-2.711-1.074-4.054-1.641a5.554,5.554,0,0,1-1.217-9.745c3.388-2.564,8.406-1.552,11.358,1.037a1.621,1.621,0,0,1,.149,2.323,1.728,1.728,0,0,1-2.38.483,12.314,12.314,0,0,0-3.052-1.421,6.686,6.686,0,0,0-3.4.291,2.928,2.928,0,0,0-1.312,1.949c-.2.877.527,1.425,1.366,1.75,1.775.687,3.552,1.377,5.29,2.151,2.476,1.1,4.323,2.788,4.469,5.7.18,3.567-2.971,6.578-7,6.794C261.982,383.888,261.738,383.877,261.494,383.877Z" transform="translate(-94.062 -101.231)" fill="#fe502d"/>
    <path id="Path_154642" data-name="Path 154642" d="M228.026,372.547q0-4.326,0-8.652c0-1.639.64-2.474,1.858-2.457,1.178.016,1.793.823,1.794,2.389q.005,8.9,0,17.791c0,1.529-.663,2.351-1.845,2.336s-1.8-.843-1.806-2.389Q228.019,377.055,228.026,372.547Z" transform="translate(-76.971 -101.3)" fill="#fe502d"/>
  </g>
</svg>
