<svg xmlns="http://www.w3.org/2000/svg" width="137.457" height="175.919" viewBox="0 0 137.457 175.919">
  <g id="Going_up-amico" data-name="Going up-amico" transform="translate(-45.353 -36.93)">
    <g id="freepik--Shadows--inject-134" transform="translate(49.379 135.814)" opacity="0.19">
      <path id="freepik--shadow--inject-134" d="M193.5,351.305,91.57,292.46l31.5-18.19L225,333.12Z" transform="translate(-91.57 -274.27)" fill="#0d2380"/>
    </g>
    <g id="freepik--Stairs--inject-134" transform="translate(45.353 36.93)">
      <g id="freepik--Strairs--inject-134" transform="translate(0 0)">
        <path id="Path_156286" data-name="Path 156286" d="M103.607,139.213,99.9,137.07v38.518l31.508,18.19v14.98l31.5,18.19,0,14.98,31.5,18.19v10.7l3.7,2.138,0-14.98-31.508-18.19V224.809l-31.5-18.19v-14.98l-31.508-18.19Z" transform="translate(-92.172 -99.174)" fill="#7098b7"/>
        <path id="Path_156287" data-name="Path 156287" d="M103.607,139.213,99.9,137.07v38.518l31.508,18.19v14.98l31.5,18.19,0,14.98,31.5,18.19v10.7l3.7,2.138,0-14.98-31.508-18.19V224.809l-31.5-18.19v-14.98l-31.508-18.19Z" transform="translate(-92.172 -99.174)" opacity="0.25"/>
        <path id="Path_156288" data-name="Path 156288" d="M128.3,69.569,109.53,54.407a2.089,2.089,0,0,0-.3-.2l-3.7-2.138a1.778,1.778,0,0,0-2.52.8L82.77,92.6c-.311.609-.329,1.009-.107,1.142s3.485,2,3.707,2.138.547.04,1.045-.249l40.678-23.484A1.459,1.459,0,0,0,128.3,69.569Z" transform="translate(-82.514 -51.819)" fill="#7098b7"/>
        <path id="Path_156289" data-name="Path 156289" d="M132.726,74.82,92.048,98.3c-1.089.631-1.511.231-.938-.889l20.257-39.727a1.778,1.778,0,0,1,2.809-.6l18.768,15.163A1.457,1.457,0,0,1,132.726,74.82Z" transform="translate(-87.146 -54.496)" fill="#7098b7"/>
        <path id="Path_156290" data-name="Path 156290" d="M105.55,52.067c.1.053,2.9,1.68,3.592,2.076a1.751,1.751,0,0,0-2.387.871L86.493,94.736c-.3.6-.329,1-.111,1.138-.32-.191-3.516-2.023-3.7-2.134s-.2-.529.107-1.142l20.243-39.731a1.778,1.778,0,0,1,2.516-.8Z" transform="translate(-82.534 -51.822)" fill="#fff" opacity="0.3"/>
        <path id="Path_156291" data-name="Path 156291" d="M108.24,115.678v36.38l29.654-17.118V98.56Z" transform="translate(-96.804 -77.783)" fill="#7098b7"/>
        <path id="Path_156292" data-name="Path 156292" d="M108.24,197.518l31.508,18.19L169.4,198.59l-31.5-18.19Z" transform="translate(-96.804 -123.243)" fill="#7098b7"/>
        <path id="Path_156293" data-name="Path 156293" d="M108.24,197.518l31.508,18.19L169.4,198.59l-31.5-18.19Z" transform="translate(-96.804 -123.243)" fill="#fff" opacity="0.3"/>
        <path id="Path_156294" data-name="Path 156294" d="M208.77,221.32V236.3l-29.65,17.123v-14.98Z" transform="translate(-136.177 -145.973)" fill="#7098b7"/>
        <path id="Path_156295" data-name="Path 156295" d="M179.12,272.138l31.5,18.19,29.649-17.123-31.5-18.185Z" transform="translate(-136.177 -164.693)" fill="#7098b7"/>
        <path id="Path_156296" data-name="Path 156296" d="M179.12,272.138l31.5,18.19,29.649-17.123-31.5-18.185Z" transform="translate(-136.177 -164.693)" fill="#fff" opacity="0.3"/>
        <path id="Path_156297" data-name="Path 156297" d="M279.64,295.93v14.98l-29.65,17.118V313.053Z" transform="translate(-175.543 -187.418)" fill="#7098b7"/>
        <path id="Path_156298" data-name="Path 156298" d="M249.99,346.748l31.508,18.19,29.649-17.118L279.64,329.63Z" transform="translate(-175.543 -206.137)" fill="#7098b7"/>
        <path id="Path_156299" data-name="Path 156299" d="M249.99,346.748l31.508,18.19,29.649-17.118L279.64,329.63Z" transform="translate(-175.543 -206.137)" fill="#fff" opacity="0.3"/>
        <path id="Path_156300" data-name="Path 156300" d="M350.514,370.55v14.98L320.86,402.649l0-14.98Z" transform="translate(-214.91 -228.868)" fill="#7098b7"/>
      </g>
    </g>
    <g id="freepik--Character--inject-134" transform="translate(107.959 41.893)">
      <path id="freepik--shadow--inject-134-2" data-name="freepik--shadow--inject-134" d="M266.38,293.468c-3.6-.151-8.664,0-11,1.067-1.729.782-2.529,1.6-1.636,3.218.493.889,1.414,1.334,2.054,2.045a1.04,1.04,0,0,1-.156,1.658c-.845.649-1.711,1.262-2.534,1.938-2.818,2.32.578,2.223,1.4,2.223a33.021,33.021,0,0,0,8.353-1.334c1.871-.578,2.485-.827,2.485-.827v14.976s2.263,1.489,5.054,3c6.5,3.529,9.042,5.139,12.064,5.583,2.952.445,5.432-.569,5.477-3.609.062-4.521-1.614-6.419-2.867-7.557-1.449-1.3-5.739-5.539-5.739-5.539V295.366S274.933,293.824,266.38,293.468Z" transform="translate(-239.27 -190.986)" opacity="0.25"/>
      <g id="freepik--character--inject-134-2" data-name="freepik--character--inject-134" transform="translate(0)">
        <path id="Path_156301" data-name="Path 156301" d="M226.308,63.04c.969-.445,1.48,1.863,2.085,3.556.556,1.56,1.431,3.556,1.778,3.65.5.133.209-1.849.845-2.667s1.058-.48,1,.445a22.651,22.651,0,0,1-.2,4.516,2.707,2.707,0,0,0,.2,2.307,109.74,109.74,0,0,0,7.2,10.3s5.583,2.249,8.993,3.209c2.538.711,5.174,1.565,7.232,2.383.2.778-.853,8.215-4.276,7.246-.613-2.138-8.4-4.036-13.176-5.939-2.9-1.156-3.614-1.529-4.33-2.743a77.028,77.028,0,0,1-3.756-7.2c-1.707-3.454-2.187-4.143-2.472-4.445-.889-.969-1.751-1.587-2.307-2.365a10.46,10.46,0,0,1-1.707-3.218,1.187,1.187,0,0,1,.08-.978c.1-.142.249-.24.351-.378a6.162,6.162,0,0,1,.445-.747c.262-.258.8-.222,1.045-.5.107-.12.24-.6.387-.68a2.667,2.667,0,0,1,.742-.2c.147-.04.578-.027.578-.236a22.672,22.672,0,0,0-.573-2.472C226.157,64.6,225.761,63.289,226.308,63.04Z" transform="translate(-223.353 -62.985)" fill="#b16668"/>
        <path id="Path_156302" data-name="Path 156302" d="M264.656,113.185c-.471-.178-1.218-.6-2.156-.889s-8.446-2.623-10.588-3.387-3.387-1.262-3.387-1.262l-3.112-3.916a4.143,4.143,0,0,1-1.991,1.778,9.077,9.077,0,0,1-3.472.889s.751,1.663,1.827,4c.929,2.036,1.018,2.552,2.632,3.258,1.854.818,6.748,2.614,8.993,3.467,2.743,1.04,5.97,2.289,6.459,3.294C259.865,120.448,264.421,116.234,264.656,113.185Z" transform="translate(-232.572 -85.618)" fill="#b7971e"/>
        <path id="Path_156304" data-name="Path 156304" d="M244.121,100.667a4.33,4.33,0,0,1-2.445,2.223,8.535,8.535,0,0,1-2.907.742l-1.289-2.667a10.736,10.736,0,0,0,3.2-1.165,4.156,4.156,0,0,0,1.56-1.8Z" transform="translate(-231.2 -82.435)" fill="#7098b7"/>
        <path id="Path_156305" data-name="Path 156305" d="M244.121,100.667a4.33,4.33,0,0,1-2.445,2.223,8.535,8.535,0,0,1-2.907.742l-1.289-2.667a10.736,10.736,0,0,0,3.2-1.165,4.156,4.156,0,0,0,1.56-1.8Z" transform="translate(-231.2 -82.435)" fill="#fff" opacity="0.85"/>
        <path id="Path_156306" data-name="Path 156306" d="M232.833,77.39c.231,1.049.765,2.134.369,2.614a.984.984,0,0,0-1.654.711.787.787,0,0,1-.813,0,.809.809,0,0,1-1.045.538c.231.249.84.56,1.138-.044,0,0,.929.231,1.2-.52a2.069,2.069,0,0,0,.476,1.929,3.009,3.009,0,0,1,0-1.978,1.236,1.236,0,0,0,1.116-.582C233.949,79.408,232.833,77.39,232.833,77.39Z" transform="translate(-226.873 -70.986)" fill="#9a4a4d"/>
        <path id="Path_156307" data-name="Path 156307" d="M308.962,77.773a2.123,2.123,0,0,1-.151.445c-.129.293-.413.525-.493.836-.178.7.7,1.511.96,2.1.471,1.071-.5,1.978-1.2,2.64a1.3,1.3,0,0,0-.4,1.271.578.578,0,0,0,.8.338.631.631,0,0,1-.556.307,1.1,1.1,0,0,1-1.174-.831c-.036.253.089.516.076.782a.925.925,0,0,1-.64.889c-.329.12-.689.16-1.018.3-.4.164-.52.422-.769.76a2.093,2.093,0,0,1-1.934.8,2.823,2.823,0,0,1-2.1-1.178,8.88,8.88,0,0,1-.618-.747c-.613-.858-1.436-1.534-2.08-2.383a24.079,24.079,0,0,1-1.778-2.787,34.273,34.273,0,0,1-1.734-3.787,2.019,2.019,0,0,0-.356-.711,1.827,1.827,0,0,0-.618-.4c-.853-.347-1.845-.485-2.312-1.387a1.467,1.467,0,0,1,.516-2.036c.271-.138.569-.5.285-.778-.2-.2-.52-.222-.689-.471-.276-.445.12-1.271.671-1.187-.445.2-.178.645.222.7a.858.858,0,0,0,.849-.4.889.889,0,0,1,.525-.342c.244-.049.445.1.689.12.636.053.938-1.049,1.365-1.382a2.743,2.743,0,0,1,2.867-.311,3.281,3.281,0,0,1,1.022.987c.178.222.471.613.747.693a1.778,1.778,0,0,0,1.12-.129,3.032,3.032,0,0,1,2.178-.249,2.463,2.463,0,0,1,1.582.889,2.907,2.907,0,0,1,.342,1.431,1.134,1.134,0,0,0,.982,1.147.951.951,0,0,0,.889-.289.493.493,0,0,0,.053-.591.978.978,0,0,1,.569,1.169,1.334,1.334,0,0,1-1.174.889,3.294,3.294,0,0,1,1.916.8,2.223,2.223,0,0,1,.636,1.382,2.819,2.819,0,0,1-.071.707Z" transform="translate(-260.737 -66.141)" fill="#263238"/>
        <path id="Path_156308" data-name="Path 156308" d="M317.983,323.27c.12.925.382,2,.551,3.9a27.736,27.736,0,0,0,.733,6.717c.591,2.867.4,4-1.458,6.272-1.983,2.449-3.885,1.831-5-1.067-.947-2.476-.822-3.6-.693-6.1s.142-3.236.133-5.228c0-1.756.2-2.943.16-4.29Z" transform="translate(-272.612 -207.568)" fill="#37474f"/>
        <path id="Path_156309" data-name="Path 156309" d="M311.86,243.716c.036,1.649,0,4.165.2,6.61.16,1.831.622,3.641.578,4.939a.676.676,0,0,1-.934.6,6.135,6.135,0,0,0-4.232.049.676.676,0,0,1-.92-.591c-.325-3.556-.271-11.558-.271-11.558-.622-5.93-2.165-16.043-2.36-18.225-.293-3.209-.969-7.263-1.2-9.779s-1.729-20-1.729-20l11.558-16.2a18.893,18.893,0,0,0,1.867,6.246c2.343,5.072,1.689,9.122.969,13.722-.6,3.836-2.254,21.075-2.254,21.075s-.08,3.556.093,7.672C313.447,233.808,311.771,240.027,311.86,243.716Z" transform="translate(-266.484 -127.734)" fill="#b16668"/>
        <path id="Path_156310" data-name="Path 156310" d="M283.2,179.53c-7.05,1.556-13.7,1.938-17.865.387-.133,2.138-3.556,6.1-7.815,12.447-4.876,7.206-7.659,11.6-7.659,11.6-1.778,3.263-2.427,4.09-.716,8.05,1.849,4.281,7.41,12.54,7.908,15.518a12.85,12.85,0,0,1-.671,4.09,15.871,15.871,0,0,1-1.894,4.245s-2.058,2.454-1.56,2.667a18.757,18.757,0,0,0,7.112-.289c2.009-.733,2.138-2.48,2.667-5.69s.889-8.041.889-8.041a2.045,2.045,0,0,1-.831-.733,6.422,6.422,0,0,1-1.3-3.209c-.329-1.876-.938-5.863-1.631-8.152a14.993,14.993,0,0,0-1.578-3.614L271.9,196.631Z" transform="translate(-237.122 -127.723)" fill="#b16668"/>
        <path id="Path_156311" data-name="Path 156311" d="M285.017,291.5c-.093.747-.685,1.622-.889,2.792a20.487,20.487,0,0,0-.378,4.045v1.894h-.511v-3.449c0-1.053-.1-1.823-.6-1.934C282.616,294.834,282.532,291.5,285.017,291.5Z" transform="translate(-256.28 -189.92)" fill="#263238"/>
        <path id="Path_156312" data-name="Path 156312" d="M267.406,280.14a28.094,28.094,0,0,0,2.085,2.836,3.165,3.165,0,0,1,.471,1.414,1.52,1.52,0,0,1-.391,1.151,16.582,16.582,0,0,0-1.5,1.849,14.585,14.585,0,0,0-1.894,4.3c-.249,1.4-.373,2.636-1.525,3.387a25.012,25.012,0,0,1-6.583,1.778c-2.623.316-3.369-.916-2.445-1.978s2.507-2.885,2.8-3.112a4.828,4.828,0,0,1,2.463.209c1.507.551,2.023,1.382,3.529.525,1.36-.773,1.778-3.4,1.454-7.112C265.5,281.154,267.406,280.14,267.406,280.14Z" transform="translate(-241.069 -183.61)" fill="#37474f"/>
        <path id="Path_156313" data-name="Path 156313" d="M282.789,178.32c.991,2.378,1.929,3.685,3.183,7.032,1.129,3.014.769,7.49-.542,15.292s-1.876,19.257-1.876,19.257a113.419,113.419,0,0,1-.511,12.842,7.393,7.393,0,0,1-4.165,1.067,6.936,6.936,0,0,1-3.841-.813s-1.28-8.579-1.68-11.838c-.525-4.281-.751-6.694-1.24-11.958-.627-6.712-1.249-11.975-1.249-11.975l-12.8,11.037a15.634,15.634,0,0,1,1.414,4.143c.445,2.4.685,3.605.685,3.605a11.015,11.015,0,0,1-4.023,2.667,6.223,6.223,0,0,1-3.658,0s-3.921-6.423-4.948-8.89-.213-3.556.822-5.6,11.317-17.016,13.282-19.808a18.556,18.556,0,0,0,2.983-5.37s.965.631,5.974.578A97.751,97.751,0,0,0,282.789,178.32Z" transform="translate(-236.524 -127.051)" fill="#455a64"/>
        <path id="Path_156314" data-name="Path 156314" d="M267.547,245.68a5.65,5.65,0,0,1-3.427,1.3s2.707.445,3.787-.542Z" transform="translate(-245.998 -164.468)" fill="#37474f"/>
        <path id="Path_156315" data-name="Path 156315" d="M286.755,211.546l-.156-2.365a8.255,8.255,0,0,1-4.93-5.081s-.049,2.9,3.214,5.512c0,0,.551,1.111-.956,2.765s-8.268,8.735-8.268,8.735Z" transform="translate(-252.409 -141.371)" fill="#37474f"/>
        <path id="Path_156316" data-name="Path 156316" d="M302.3,138.722c-3.805-2.138-3.818-9.162-3.232-12.6l-4.178-.445L286.8,125a50.137,50.137,0,0,0-5.419,6.419c-1.689,2.223-2.8,5.779.947,8.721l.5,3.427c.311,2.84-1.156,4.97,0,5.841,1.142,1.271,8.046,4.445,17.963-.556.738-.5.289-1.076.445-4.285A58.13,58.13,0,0,1,302.3,138.722Z" transform="translate(-254.716 -97.433)" fill="#c5a424"/>
        <path id="Path_156318" data-name="Path 156318" d="M302.628,94.771c.445-1.809,1.831-4.356,2.125-7.072s.249-5.036-2.454-6.992a8.828,8.828,0,0,0-6.717-1.569A7.44,7.44,0,0,0,293,80.471Z" transform="translate(-262.041 -71.885)" fill="#7098b7"/>
        <path id="Path_156319" data-name="Path 156319" d="M286.812,86.571c-.485-1.125-.307-4.445,2.636-4.73a8.325,8.325,0,0,1,7.41,1.125,7.7,7.7,0,0,1,3.112,6.392l-.822,4.73-.062,1.6Z" transform="translate(-258.488 -73.228)" fill="#263238"/>
        <path id="Path_156320" data-name="Path 156320" d="M288.257,85.74c-.636.351-1.88,1.431-1.96,7.432-.071,5.085,1.462,6.4,2.245,6.788s2.32.227,3.823,0l-.116,3.663s-1.827,1.778-.889,3.441c.191.338-.685,4.263-.3,4.387s1.72-3.783,2.258-3.872a6.3,6.3,0,0,0,2.729-.765c2.343-1.574,2.64-2.8,2.64-2.8l.3-7.557s.845.92,2.378-.378c1.267-1.076,1.751-2.943.831-4a2.1,2.1,0,0,0-3.427.582c-2.854,0-1.778-7.112-4.752-6.1C290.716,87.718,288.529,87.7,288.257,85.74Z" transform="translate(-258.316 -75.625)" fill="#b16668"/>
        <path id="Path_156321" data-name="Path 156321" d="M313.035,100l-.049,2.151a1.013,1.013,0,0,1-1.018-1.062A1.111,1.111,0,0,1,313.035,100Z" transform="translate(-272.577 -83.546)" fill="#263238"/>
        <path id="Path_156322" data-name="Path 156322" d="M290.127,98.407a.613.613,0,1,1-.627-.627.631.631,0,0,1,.627.627Z" transform="translate(-259.763 -82.313)" fill="#263238"/>
        <path id="Path_156323" data-name="Path 156323" d="M301.467,98.627a.613.613,0,1,1-.609-.627.627.627,0,0,1,.609.627Z" transform="translate(-266.062 -82.435)" fill="#263238"/>
        <path id="Path_156324" data-name="Path 156324" d="M298,109.29l-1.7.5a.862.862,0,0,0,1.071.667A.969.969,0,0,0,298,109.29Z" transform="translate(-263.874 -88.706)" fill="#9a4a4d"/>
        <path id="Path_156325" data-name="Path 156325" d="M287.868,94.145l1.276-.849a.707.707,0,0,0-1.022-.258.853.853,0,0,0-.253,1.107Z" transform="translate(-259.131 -79.611)" fill="#263238"/>
        <path id="Path_156326" data-name="Path 156326" d="M302.5,94.366l-1.276-.84a.711.711,0,0,1,1.027-.258A.845.845,0,0,1,302.5,94.366Z" transform="translate(-266.607 -79.739)" fill="#263238"/>
        <path id="Path_156327" data-name="Path 156327" d="M293.556,98l-.116,4.165-1.92-.7Z" transform="translate(-261.218 -82.435)" fill="#9a4a4d"/>
        <path id="Path_156328" data-name="Path 156328" d="M299.967,114.886c1.574-.156,4.739-1.191,5.392-2.316a3.485,3.485,0,0,1-1.2,1.658,16.813,16.813,0,0,1-4.223,1.685Z" transform="translate(-265.896 -90.528)" fill="#9a4a4d"/>
        <path id="Path_156329" data-name="Path 156329" d="M324.028,198.073a.378.378,0,0,0-.387,0h0l-12.971,7.495.747,10.744,12.971-7.49c.333-.151.569-.827.569-1.778v-6.152C324.957,199.634,324.539,198.371,324.028,198.073Z" transform="translate(-271.856 -137.994)" fill="#3357f0"/>
        <path id="Path_156330" data-name="Path 156330" d="M322.923,205.5c.324-.191.818.187.445,1.814s-1.476,5.6-1.285,6.574.351,1.382,1.138.191,2.067-9.984,2.067-9.984Z" transform="translate(-278.183 -141.371)" opacity="0.3"/>
        <path id="Path_156331" data-name="Path 156331" d="M310.379,214.921c.511.3.925,1.556.925,2.818v6.139c0,1.258-.413,2.04-.925,1.743s-.929-1.556-.929-2.814v-6.143C309.45,215.405,309.868,214.623,310.379,214.921Z" transform="translate(-271.178 -147.347)" fill="#0d2380"/>
        <path id="Path_156333" data-name="Path 156333" d="M313.62,213.779c0,.858,4.805-.36,6.486-1.334s6.49-4.814,6.49-5.885v.538a17.284,17.284,0,0,1-6.2,5.512c-4.53,2.6-6.774,1.454-6.774,1.454Z" transform="translate(-273.495 -142.738)" opacity="0.3"/>
        <path id="Path_156334" data-name="Path 156334" d="M327.611,217.452c.324-.187.587.12.587.68a1.689,1.689,0,0,1-.587,1.334c-.32.187-.582-.116-.582-.676A1.707,1.707,0,0,1,327.611,217.452Z" transform="translate(-280.943 -148.757)" fill="#fafafa"/>
        <path id="Path_156335" data-name="Path 156335" d="M321.391,127.79c3.338.489,5.334,1.365,6.406,4.125s4.152,12.153,4.787,14.109.445,2.832-.387,4.765q-.8,1.818-1.569,3.645c-.689,1.614-2.031,4.143-2.267,4.779a6.357,6.357,0,0,0-.28,2.223,13.153,13.153,0,0,1-.08,2.174,9.091,9.091,0,0,1-.693,2.489c-.24.551-.4,1.151-.676,1.68a6.112,6.112,0,0,1-.827,1c-.3.369-.422.845-.791,1.169a5.9,5.9,0,0,1-1.907.889c-.271.365-.733,1.138-1.031,1.476-.765.889-.889-.6-.845-1.089a7.269,7.269,0,0,1,.351-1.56,35.167,35.167,0,0,0,1.036-3.867c.089-.445.653-3.374-.507-2.854l-2.111,1.2c.089-.862.76-1.8,2.44-3.938s3.832-12.233,3.832-12.233l-3.178-8a14.3,14.3,0,0,1-2.543-7.09C320.36,128.915,321.391,127.79,321.391,127.79Z" transform="translate(-277.038 -98.983)" fill="#b16668"/>
        <path id="Path_156336" data-name="Path 156336" d="M321.847,127.53c1.654.191,3.938.445,5.219,1.943s1.44,2.1,3.192,7.263,3.014,9.064,3.161,9.779.445,1.84-.889,4.356a5.624,5.624,0,0,0-2.8-1.494,7.037,7.037,0,0,0-3.289-.316l.213-1.249-3.583-8.112a14.193,14.193,0,0,1-2.249-7.624C320.838,128.561,321.847,127.53,321.847,127.53Z" transform="translate(-277.494 -98.838)" fill="#b7971e"/>
        <path id="Path_156338" data-name="Path 156338" d="M332.533,175.854,331.76,179a8.024,8.024,0,0,1,5.463,1.92l1.4-3.258s-.271-.742-2.667-1.485S332.533,175.854,332.533,175.854Z" transform="translate(-283.571 -125.616)" fill="#7098b7"/>
        <path id="Path_156339" data-name="Path 156339" d="M332.533,175.854,331.76,179a8.024,8.024,0,0,1,5.463,1.92l1.4-3.258s-.271-.742-2.667-1.485S332.533,175.854,332.533,175.854Z" transform="translate(-283.571 -125.616)" fill="#fff" opacity="0.85"/>
      </g>
    </g>
  </g>
</svg>
