<svg xmlns="http://www.w3.org/2000/svg" width="119.981" height="120" viewBox="0 0 119.981 120">
  <g id="Group_99942" data-name="Group 99942" transform="translate(-119.953 -209.83)">
    <path id="Path_155938" data-name="Path 155938" d="M124.123,264.031a57.308,57.308,0,0,1,4.1-15.959,21.349,21.349,0,1,1,29.951-29.945,57.277,57.277,0,0,1,15.963-4.1c0-.794-.027-1.476.006-2.156a1.885,1.885,0,0,1,1.977-1.988q3.807-.057,7.616,0a1.892,1.892,0,0,1,2,1.971c.036.68.006,1.363.006,2.072,2.233.411,4.431.68,6.553,1.239,2.873.756,5.7,1.705,8.519,2.638a1.257,1.257,0,0,0,1.632-.357c5.862-6.58,13.179-9.059,21.68-6.788,8.609,2.3,13.886,8.175,15.441,16.927,1.386,7.8-1.217,14.442-7.153,19.724-.484.431-.811.719-.5,1.482a52.661,52.661,0,0,1,3.715,14.445,6.887,6.887,0,0,0,.2.8c.716,0,1.436-.034,2.151.008a1.863,1.863,0,0,1,1.918,1.922q.064,3.867,0,7.736a1.871,1.871,0,0,1-1.917,1.924c-.68.041-1.365.007-2.15.007-.312,1.8-.491,3.6-.95,5.325-.868,3.258-1.862,6.485-2.886,9.7a1.3,1.3,0,0,0,.406,1.718,21.227,21.227,0,0,1-14.985,37.379,20.849,20.849,0,0,1-14.935-7.438c-.415-.478-.69-.848-1.473-.522a52.37,52.37,0,0,1-14.445,3.72,7.753,7.753,0,0,0-.822.193c0,.671.022,1.346,0,2.018a1.914,1.914,0,0,1-2.029,2.066q-3.747.054-7.5,0a1.934,1.934,0,0,1-2.074-2.144c-.019-.64,0-1.281,0-1.926-2.143-.375-4.237-.6-6.248-1.129-2.988-.792-5.925-1.782-8.865-2.744a1.179,1.179,0,0,0-1.537.324c-5.888,6.623-13.239,9.124-21.784,6.82-8.439-2.276-13.685-8.021-15.325-16.621-1.488-7.8,1.01-14.47,6.887-19.8a1.616,1.616,0,0,0,.492-2.2,51.869,51.869,0,0,1-3.475-13.642c-.036-.317-.114-.629-.2-1.088-.679,0-1.349.02-2.017,0a1.936,1.936,0,0,1-2.095-2.124c-.027-2.417-.024-4.835,0-7.252.013-1.5.729-2.19,2.241-2.223C122.811,264.02,123.412,264.031,124.123,264.031Zm7.471,25.437c9.114-3.842,17.487-2.99,24.5,3.9,7.164,7.046,8.1,15.543,4.216,24.789a49.116,49.116,0,0,0,13.686,3.491,1.925,1.925,0,0,0,.128-.43c.008-8.579.066-17.159-.031-25.737-.021-1.828-.44-3.467-2.8-4.269-1.917-.652-3.278-.742-4.9.447-1.42,1.042-2.073.852-3.363-.433q-2.14-2.132-4.272-4.274c-1.611-1.615-1.738-2.037-.437-3.937.948-1.385,1.366-2.618.309-4.12a13.227,13.227,0,0,1-.756-1.9,1.3,1.3,0,0,0-.71-.679,18.4,18.4,0,0,0-3.776-.657c-7.976-.058-15.953-.03-23.93-.03H128.1A50.275,50.275,0,0,0,131.594,289.468Zm-3.478-25.633c.189.121.223.161.257.161,8.661.012,17.322.073,25.982-.011a3.96,3.96,0,0,0,4.224-2.866c.69-1.947.673-3.292-.5-4.893-.978-1.331-.8-2.019.345-3.177q2.383-2.4,4.786-4.785c1.1-1.091,1.739-1.157,3.107-.359.626.365,1.238.753,1.865,1.115.731.421,5.06-1.1,5.258-1.916a16.831,16.831,0,0,0,.671-3.774c.06-7.975.031-15.95.031-23.926v-1.293c-3.107-.079-11.644,2.119-13.789,3.508,3.686,8.588,3.043,16.75-3.337,23.725-7.078,7.738-15.813,8.856-25.423,4.874A49.652,49.652,0,0,0,128.116,263.835ZM228.28,250.181c-8.512,3.689-16.525,3.134-23.431-2.9-8.094-7.075-9.346-15.964-5.3-25.81a50.085,50.085,0,0,0-13.684-3.451,3.261,3.261,0,0,0-.106.542c0,8.539-.057,17.079.034,25.617.02,1.905.53,3.524,2.915,4.315,1.839.611,3.122.714,4.684-.415s2.137-.964,3.549.442q2.141,2.132,4.274,4.271c1.484,1.484,1.641,2.03.424,3.751-1.028,1.454-1.424,2.76-.324,4.331a11.1,11.1,0,0,1,.7,1.791c.118.258.357.585.6.642a16.83,16.83,0,0,0,3.65.7c8.057.061,16.114.031,24.171.031h1.36A50.264,50.264,0,0,0,228.28,250.181Zm3.382,25.56a1.307,1.307,0,0,0-.334-.091c-8.581-.007-17.164-.068-25.744.036-1.816.022-3.427.46-4.271,2.8a4.712,4.712,0,0,0,.539,5c.92,1.262.745,1.981-.35,3.089-1.415,1.434-2.846,2.851-4.271,4.275-1.81,1.81-2.14,1.929-4.217.523-1.329-.9-2.491-1.229-3.906-.271a13.39,13.39,0,0,1-1.9.761c-.292.136-.678.381-.742.645a16.26,16.26,0,0,0-.691,3.65c-.06,8.056-.031,16.113-.031,24.169v1.342a49.932,49.932,0,0,0,13.818-3.5c-3.906-9.314-2.943-17.87,4.356-24.935,7.028-6.8,15.376-7.583,24.26-3.819C229.605,287.1,231.785,278.554,231.661,275.741ZM182.281,293a16.123,16.123,0,0,0,.523-1.973,2.934,2.934,0,0,1,2.508-2.674,15.459,15.459,0,0,0,3.989-1.667,3.008,3.008,0,0,1,3.566.106c1.8,1.175,1.836,1.124,3.374-.416,1.768-1.771,1.8-1.789.467-3.959a2.7,2.7,0,0,1-.074-2.932,35.863,35.863,0,0,0,1.93-4.663A2.656,2.656,0,0,1,200.7,272.8c.816-.158,1.616-.4,2.414-.6v-4.714c-.77-.2-1.5-.431-2.242-.56a2.67,2.67,0,0,1-2.34-2.248,9.131,9.131,0,0,0-1.151-3.027,4.374,4.374,0,0,1,.208-5.9,1.055,1.055,0,0,0,.039-1.013c-.913-1.057-1.91-2.043-2.862-3.037-.888.534-1.6.918-2.26,1.368a2.606,2.606,0,0,1-2.931.06,31.333,31.333,0,0,0-4.548-1.894,2.715,2.715,0,0,1-2.135-2.17c-.158-.814-.4-1.612-.595-2.4h-4.709c-.191.739-.427,1.428-.54,2.137a2.866,2.866,0,0,1-2.4,2.491,19.22,19.22,0,0,0-4.1,1.711,2.892,2.892,0,0,1-3.353-.038c-1.954-1.277-1.993-1.217-3.674.455-1.666,1.657-1.713,1.687-.443,3.667a2.854,2.854,0,0,1,.093,3.246,27.821,27.821,0,0,0-1.834,4.442,2.666,2.666,0,0,1-2.078,2.079c-.847.176-1.679.429-2.469.636v4.695c.837.212,1.61.442,2.4.6a2.581,2.581,0,0,1,2.156,2.142,9.042,9.042,0,0,0,1.08,2.926c1.465,2.133,1.579,4.1-.15,6.115a1.044,1.044,0,0,0,.033,1c.879,1.038,1.838,2.008,2.77,3,.961-.569,1.732-.994,2.471-1.471a2.365,2.365,0,0,1,2.5-.111c1.709.791,3.456,1.5,5.219,2.169a2.334,2.334,0,0,1,1.637,1.75c.207.893.457,1.777.7,2.689ZM133.74,233.452c-3.116-5.222-2.713-10,1.081-13.4a9.637,9.637,0,0,1,12.345-.416,9.41,9.41,0,0,1,3.478,5.37,9.543,9.543,0,0,1-1.78,8.2,37.63,37.63,0,0,1,3.589,4.053,36.118,36.118,0,0,1,2.294,4.757c5.794-6.56,5.084-17.322-1.583-23.585a17.4,17.4,0,0,0-24.316.471,17.224,17.224,0,0,0-.916,23.267A14.059,14.059,0,0,1,133.74,233.452Zm20.995,85.91c5.078-5.63,5.854-16.277-1.341-23.316a17.394,17.394,0,0,0-24.658.358c-7.008,7.294-5.759,17.808-.79,23.126a14.011,14.011,0,0,1,5.805-8.713c-3.185-5.082-2.714-10.119,1.189-13.492a9.679,9.679,0,0,1,12.542-.06c3.948,3.331,4.433,8.287,1.393,13.357a35.853,35.853,0,0,1,3.529,3.957A36.836,36.836,0,0,1,154.734,319.362Zm77.222.2a17.356,17.356,0,0,0-26.086-22.884c-6.809,7.366-5.36,17.756-.528,22.843a14.009,14.009,0,0,1,5.8-8.707c-3.181-5.011-2.74-10.009,1.106-13.414a9.669,9.669,0,0,1,12.541-.2c4.012,3.3,4.521,8.23,1.349,13.649A13.981,13.981,0,0,1,231.956,319.561Zm-.015-77.343a17.358,17.358,0,1,0-26.657-22.24c-6.472,7.726-4.257,17.866.079,22.115a13.892,13.892,0,0,1,5.756-8.637c-3.135-5.512-2.65-10.314,1.34-13.621a9.676,9.676,0,0,1,12.358,0c3.983,3.3,4.461,8.033,1.341,13.623A13.98,13.98,0,0,1,231.941,242.218Zm-90.569,6.34a17.8,17.8,0,0,0,8.736-2.428,1.385,1.385,0,0,0,.827-1.423,9.581,9.581,0,0,0-4.794-8.287,1.858,1.858,0,0,0-1.416-.132,9.675,9.675,0,0,1-6.958,0,1.865,1.865,0,0,0-1.416.132,9.628,9.628,0,0,0-4.785,7.8,1.868,1.868,0,0,0,1.126,2.1A18.478,18.478,0,0,0,141.372,248.558Zm77.254,0a17.916,17.916,0,0,0,8.871-2.429,1.385,1.385,0,0,0,.829-1.421,9.584,9.584,0,0,0-4.792-8.289,1.857,1.857,0,0,0-1.416-.135,9.678,9.678,0,0,1-6.959,0,1.859,1.859,0,0,0-1.416.129,9.568,9.568,0,0,0-4.795,8.286,1.385,1.385,0,0,0,.824,1.422A17.853,17.853,0,0,0,218.626,248.56Zm-77.445,77.379a17.02,17.02,0,0,0,8.977-2.513,1.786,1.786,0,0,0,.727-1.3,9.318,9.318,0,0,0-4.613-8.241,2.138,2.138,0,0,0-1.625-.175,9.853,9.853,0,0,1-6.849-.022,2,2,0,0,0-1.518.161,9.532,9.532,0,0,0-4.719,8.2,1.386,1.386,0,0,0,.793,1.438A17.888,17.888,0,0,0,141.181,325.938Zm77.322,0a17.072,17.072,0,0,0,9.017-2.493,1.785,1.785,0,0,0,.756-1.286,9.318,9.318,0,0,0-4.684-8.32,2,2,0,0,0-1.519-.15,9.788,9.788,0,0,1-6.848.008,2.006,2.006,0,0,0-1.521.13,9.309,9.309,0,0,0-4.7,8.308,1.786,1.786,0,0,0,.741,1.291A16.819,16.819,0,0,0,218.5,325.938ZM181.8,242.692V213.829h-3.729v28.863ZM123.89,271.686h28.868V267.96H123.89Zm83.194,0h28.868v-3.721H207.084Zm-25.292,54.2V297.016h-3.721v28.863Zm-34.747-98.632a5.8,5.8,0,1,0-5.706,5.826A5.823,5.823,0,0,0,147.045,227.248Zm71.489,5.825a5.8,5.8,0,1,0-5.693-5.965A5.821,5.821,0,0,0,218.534,233.073ZM141.24,310.452a5.8,5.8,0,1,0-5.791-5.868A5.819,5.819,0,0,0,141.24,310.452Zm83.2-5.762a5.8,5.8,0,1,0-5.77,5.762A5.822,5.822,0,0,0,224.437,304.69Z" fill="#fe502d"/>
    <path id="Path_155939" data-name="Path 155939" d="M258.036,363.357a15.477,15.477,0,1,1,15.484,15.552A15.493,15.493,0,0,1,258.036,363.357Zm3.87.049a11.606,11.606,0,1,0,11.636-11.573A11.629,11.629,0,0,0,261.906,363.405Z" transform="translate(-93.571 -93.605)" fill="#fe502d"/>
  </g>
</svg>
