<svg xmlns="http://www.w3.org/2000/svg" width="150.209" height="194.525" viewBox="0 0 150.209 194.525">
  <g id="Business_deal-amico" data-name="Business deal-amico" transform="translate(-85.44 -29.73)">
    <g id="freepik--Shadows--inject-11" transform="translate(24.651 126.553)" opacity="0.22">
      <ellipse id="freepik--Shadow--inject-11" cx="30.184" cy="17.426" rx="30.184" ry="17.426" transform="translate(134.022 61.262)" fill="#0d2380"/>
      <ellipse id="freepik--shadow--inject-11-2" data-name="freepik--shadow--inject-11" cx="30.474" cy="17.595" rx="30.474" ry="17.595" transform="translate(60.789 62.512)" fill="#0d2380"/>
      <path id="freepik--shadow--inject-11-3" data-name="freepik--shadow--inject-11" d="M415.205,374.291l8.206-4.726a.8.8,0,0,0,0-1.516l-26.965-15.568a2.9,2.9,0,0,0-2.631,0l-8.182,4.726a.8.8,0,0,0,0,1.516l26.926,15.568A2.9,2.9,0,0,0,415.205,374.291Z" transform="translate(-212.957 -293.344)" fill="#0d2380"/>
    </g>
    <g id="freepik--Briefcase--inject-11" transform="translate(196.967 158.579)">
      <g id="freepik--briefcase--inject-11-2" data-name="freepik--briefcase--inject-11">
        <path id="Path_156755" data-name="Path 156755" d="M420.749,314.349v22.306a3.944,3.944,0,0,1-1.757,3.056l-2.1,1.216a3.862,3.862,0,0,1-2.481.362,3.152,3.152,0,0,1-1.023-.333.161.161,0,0,1-.048-.029l-.13-.072-24.759-14.3a5.841,5.841,0,0,1-2.925-5.064V300.524a1.67,1.67,0,0,1,.753-1.3l4.137-2.385a1.636,1.636,0,0,1,1.5,0L420,313.05a1.525,1.525,0,0,1,.531.56,1.554,1.554,0,0,1,.222.739Z" transform="translate(-385.496 -296.655)" fill="#6892c8"/>
        <path id="Path_156756" data-name="Path 156756" d="M450.606,332.519v22.306a3.944,3.944,0,0,1-1.757,3.056l-2.1,1.216a3.862,3.862,0,0,1-2.481.362,3.153,3.153,0,0,1-1.023-.333h0c.965.449,1.728-.053,1.728-1.192v-21.7a2.322,2.322,0,0,0-.333-1.125l5.73-3.326a1.554,1.554,0,0,1,.241.739Z" transform="translate(-415.353 -314.825)" opacity="0.2"/>
        <path id="Path_156757" data-name="Path 156757" d="M415.085,322.187a2.525,2.525,0,0,0-1.134-1.969L387.4,304.892c-1.052-.608-1.931-.111-1.931,1.1v19.637a5.841,5.841,0,0,0,2.925,5.064l24.759,14.3c1.047.6,1.907.111,1.907-1.1Z" transform="translate(-385.47 -300.781)" opacity="0.3"/>
        <path id="Path_156758" data-name="Path 156758" d="M385.52,307.972a4.827,4.827,0,0,0,2.177,3.77l25.236,14.568c1.2.7,2.177.126,2.177-1.255V317.6a1.192,1.192,0,0,1,.6-1.038l3.862-2.225L390.41,297l-4.291,2.462a1.2,1.2,0,0,0-.6,1.038Z" transform="translate(-385.496 -296.833)" fill="#6892c8" opacity="0.6"/>
        <path id="Path_156759" data-name="Path 156759" d="M390.565,297l-4.291,2.462a1.255,1.255,0,0,0-.454.483l29.615,17.035a1.168,1.168,0,0,1,.43-.425l3.862-2.225Z" transform="translate(-385.651 -296.833)" fill="#6892c8"/>
        <path id="Path_156760" data-name="Path 156760" d="M410.916,336.641l3.924,2.269a2.413,2.413,0,0,1,1.1,1.887v.893c0,.7-.483.965-1.081.632l-3.949-2.283a2.414,2.414,0,0,1-1.091-1.887v-.879C409.825,336.578,410.312,336.294,410.916,336.641Z" transform="translate(-398.066 -317.262)" fill="#37474f"/>
        <path id="Path_156761" data-name="Path 156761" d="M413.636,304.14v3.1l-1.8,1.038v-4.735c0-.246.174-.343.381-.222Z" transform="translate(-399.111 -300.078)" fill="#263238"/>
        <path id="Path_156762" data-name="Path 156762" d="M422.068,304.9v5.793l-1.332.772-.9-.517v-4.74a.84.84,0,0,0-.381-.661l-6.792-3.92-1.414-.816c-.208-.121-.381-.024-.381.222v4.735l-.869-.541V299.38a.855.855,0,0,1,.381-.589l.565-.328a.859.859,0,0,1,.768,0l10,5.793A.85.85,0,0,1,422.068,304.9Z" transform="translate(-398.159 -297.543)" fill="#455a64"/>
        <path id="Path_156763" data-name="Path 156763" d="M420.755,306.537v5.793l-.9-.516v-4.74a.84.84,0,0,0-.381-.661l-6.792-3.92-1.414-.816c-.208-.121-.381-.024-.381.222v4.735l-.888-.541v-5.846c.034-.188.193-.256.381-.145l10,5.793a.855.855,0,0,1,.377.642Z" transform="translate(-398.159 -298.411)" fill="#37474f"/>
      </g>
    </g>
    <g id="freepik--Characters--inject-11" transform="translate(94.79 50.651)">
      <g id="freepik--characters--inject-11-2" data-name="freepik--characters--inject-11">
        <g id="freepik--Character--inject-11" transform="translate(1.91)">
          <path id="Path_156903" data-name="Path 156903" d="M226.66,175.767h0c-2.172-5.165-5.836-14.317-6.058-16.07-.338-2.65,0-16.335.43-20.921s1.776-6.758,4.731-7.777a6.623,6.623,0,0,1,3.963,3.953c1.081,3.075.449,7.352.449,7.352l-1.332,17.378,3.4,12.889a6.179,6.179,0,0,0,2.061,3.225,21.9,21.9,0,0,1,2.138,1.786,38.832,38.832,0,0,0,2.6,3.1c1.052.946.71,1.115,0,1.4s-1.931-.415-2.9-1.347c-.319-.294-.613-.536-.869-.734a20.361,20.361,0,0,0,3.273,6.343c1.226,1.492,1.578,2.771-.193,3.326a7.041,7.041,0,0,1-6.406-.666c-1.9-1.361-2.9-4.074-3.553-6.309S227.6,177.91,226.66,175.767Z" transform="translate(-199.849 -103.036)" fill="#ffa8a7"/>
          <path id="Path_156904" data-name="Path 156904" d="M228.445,158.238l.256-4.914s1.448-15.37,1.448-18.343c0-3.336-.912-4.827-2.138-5.406a18.966,18.966,0,0,0-5.208-1.284c-3.789,2.37-3.587,13.3-3.7,19.869s-.405,9.847.579,11.9,6.2,14.279,6.2,14.279a9.418,9.418,0,0,0,5.7-2.814Z" transform="translate(-199.075 -101.634)" fill="#37474f"/>
          <path id="Path_156905" data-name="Path 156905" d="M181.97,380.879h5.923l1.183-10.489H181.97Z" transform="translate(-179.936 -226.869)" fill="#ffa8a7"/>
          <path id="Path_156906" data-name="Path 156906" d="M221.5,358.219l6.309.208-.111-10.861-7.139-.135Z" transform="translate(-199.898 -214.992)" fill="#ffa8a7"/>
          <path id="Path_156907" data-name="Path 156907" d="M179.853,214.02c-.116,5.749-1.332,45.264-1.332,45.264a84.413,84.413,0,0,0-.753,9.374c-.159,7.6,1.448,25.647,1.448,25.647.352,1.641,6.478,2.307,7.289.825,0,0,3.35-26.178,4.3-33.7.825-6.57,3.379-27.274,3.379-27.274l2.288,20.318a65.887,65.887,0,0,0,.164,7.386c.246,3.48,1.994,24.015,1.994,24.015.029,1.279,6.4,2.336,7.472.449,0,0,2.018-29.972,2.076-33.168.072-3.64-.434-39.549-.434-39.549Z" transform="translate(-177.757 -145.769)" fill="#37474f"/>
          <path id="Path_156908" data-name="Path 156908" d="M186.7,384.906l.1-.893c.328,0,.483.367.6,1.154a17.156,17.156,0,0,0,1.574,4.827,24.113,24.113,0,0,0,3.577,5.426,21.4,21.4,0,0,1,1.9,2.192c.372.661.483,2.491-.13,2.9-2.312,1.54-5.826,1.583-8.308.854a4.764,4.764,0,0,1-3.611-4.05c-.4-2.264-.613-3.664-1.767-5.373a11.688,11.688,0,0,1-1.39-1.834c-.517-1.26-.1-2.674.227-3.929.285-1.081.589-2.274.965-2.172v.666a6.22,6.22,0,0,0,3.379,1.038C184.723,385.756,186.726,385.592,186.7,384.906Z" transform="translate(-178.403 -233.907)" fill="#263238"/>
          <path id="Path_156909" data-name="Path 156909" d="M226.858,366.111c.154.106.512.517,1.149,1.105a22.012,22.012,0,0,0,2.042,1.578,37.392,37.392,0,0,0,4.547,2.853c1.878,1.033,3.572,1.661,5.793,2.674a1.9,1.9,0,0,1,.628.415,1.236,1.236,0,0,1,.27.56,2.327,2.327,0,0,1-.936,2.245,6.236,6.236,0,0,1-2.346,1,12.068,12.068,0,0,1-5.851.174,16.586,16.586,0,0,1-4.7-2.172,10.62,10.62,0,0,0-4.021-1.728c-1.26-.183-2.814-.121-3.905-.874-1.216-.835-.729-2.626-.386-4.161.376-1.68.459-4.238,1.221-4.18l.058.666c.068.729,1.825,1.057,3.181,1.062,1.125,0,3.249-.294,3.244-.825Z" transform="translate(-198.961 -224.39)" fill="#263238"/>
          <path id="Path_156910" data-name="Path 156910" d="M212.782,233.461a19.26,19.26,0,0,0,6.468-4.151s-1.033,3.012-5.266,5.489l.28,26.255-2.134-18.773Z" transform="translate(-195.538 -153.89)" opacity="0.3"/>
          <path id="Path_156911" data-name="Path 156911" d="M189.424,127.333c-1.076.256-4.484,1.173-7.241,2.153a7.723,7.723,0,0,0-3.49,2.669c-2.013,2.94-.2,9.456,1.279,21.722-.111,7.936-.338,16.335-.338,16.335,3.645,2.655,20.66,4.46,28.336-1.144,0,0,.256-28.311-.251-32.183-.965-7.4-3.862-9.389-9.862-9.736Z" transform="translate(-177.779 -101.045)" fill="#263238"/>
          <path id="Path_156912" data-name="Path 156912" d="M219.911,145.168c.541,1.854,3.553,14.091,3.331,18.7-.169,3.6-1.521,5.353-2.245,6.121s-1.974,1.173-2.776-.092a10.494,10.494,0,0,1-1.665-4.533c-.251-2.462,1.105-10.977.729-19.743a1.883,1.883,0,0,1,2.626-.449Z" transform="translate(-197.811 -110.186)" fill="#fe502d"/>
          <path id="Path_156913" data-name="Path 156913" d="M218.146,136.478c1.26,1.081-.121,4.18-.121,4.18a3.582,3.582,0,0,0-2.626.449s-2.515-1.072-2.52-2.935c0-1.694,1.8-1.149,3.08-1.371C217.316,136.565,218,135.571,218.146,136.478Z" transform="translate(-195.926 -105.676)" fill="#fe502d"/>
          <path id="Path_156914" data-name="Path 156914" d="M218.026,141.453c-.208-.724-1.2-.656-1.984-.908a2.124,2.124,0,0,1-1.067-.917c-.405-.7,0-1.868.57-1.989h0c-1.221.087-2.669-.188-2.665,1.327,0,1.863,2.52,2.935,2.52,2.935a3.582,3.582,0,0,1,2.626-.449Z" transform="translate(-195.925 -106.471)" opacity="0.2"/>
          <path id="Path_156915" data-name="Path 156915" d="M205.6,83.338a7.752,7.752,0,1,0,7.564-7.941A7.752,7.752,0,0,0,205.6,83.338Z" transform="translate(-192.157 -74.273)" fill="#263238"/>
          <path id="Path_156916" data-name="Path 156916" d="M194.17,103.54a64.92,64.92,0,0,0,1.931,6.83,2.674,2.674,0,0,0,1.574,1.207l-.208-4.147Z" transform="translate(-186.247 -88.832)" fill="#263238"/>
          <path id="Path_156917" data-name="Path 156917" d="M193.889,85.983a2.9,2.9,0,0,0-2.414.9c-1.009,1.086-.352,4.378,1.014,7.588l2.375.217Z" transform="translate(-184.6 -79.742)" fill="#263238"/>
          <path id="Path_156918" data-name="Path 156918" d="M194.728,90.51c-.483.294-1.168-.6-1.767-1.2a2.063,2.063,0,0,0-3.437.642c-.908,2.027.965,4.731,2.471,5.165,2.612.753,2.959-.917,2.959-.917l.444,10.581h0c1.849,2.254,5.793,1.641,7.941,1.2,1.723-.348,2.167-.83.483-2.7l-.077-3.031a16.455,16.455,0,0,0,3.5.1c1.9-.343,3.065-1.873,3.587-3.949.8-3.176.994-6.715.2-12.517-.965-7.13-9.345-7-13.762-4.069S194.728,90.51,194.728,90.51Z" transform="translate(-183.721 -75.579)" fill="#ffa8a7"/>
          <path id="Path_156919" data-name="Path 156919" d="M198.294,88.778c-.237,0-1.178-1.448-1.781-2-.84-.71.048-7.468.048-7.468a3.278,3.278,0,0,1,.483-3.654c1.1-1.26,2.621-2.8,7.723-2.322,3.635.338,7.608,1.376,10.76-.265a5.431,5.431,0,0,1-1.752,5.793,10.952,10.952,0,0,1-4.161,1.212,44.794,44.794,0,0,1-8.414.043c-.883-.1-1.052.758-1.472,3.1C199.361,85.268,199.1,88.744,198.294,88.778Z" transform="translate(-187.272 -73.07)" fill="#263238"/>
          <path id="Path_156920" data-name="Path 156920" d="M193.92,84.442,191,82.994a1.588,1.588,0,0,1,2.158-.772A1.714,1.714,0,0,1,193.92,84.442Z" transform="translate(-184.607 -77.718)" fill="#263238"/>
          <path id="Path_156921" data-name="Path 156921" d="M210.737,120.385a33.1,33.1,0,0,1-5.793-1.511,4.957,4.957,0,0,1-2.1-1.984,6.7,6.7,0,0,0,1.226,2.37c1.125,1.366,6.69,2.341,6.69,2.341Z" transform="translate(-190.732 -95.737)" fill="#f28f8f"/>
          <path id="Path_156922" data-name="Path 156922" d="M216.633,101.52a.854.854,0,1,1-.806-.932.874.874,0,0,1,.806.932Z" transform="translate(-196.985 -87.304)" fill="#263238"/>
          <path id="Path_156923" data-name="Path 156923" d="M215.086,96.586l-1.873.912a1.1,1.1,0,0,1,.483-1.448,1.018,1.018,0,0,1,1.39.536Z" transform="translate(-196.042 -84.904)" fill="#263238"/>
          <path id="Path_156924" data-name="Path 156924" d="M217.2,113.69l2.66.729a1.356,1.356,0,0,1-1.665,1.014A1.448,1.448,0,0,1,217.2,113.69Z" transform="translate(-198.139 -94.082)" fill="#f28f8f"/>
          <path id="Path_156925" data-name="Path 156925" d="M230.924,96.367l-1.984-.681a1.009,1.009,0,0,1,1.3-.676,1.1,1.1,0,0,1,.685,1.356Z" transform="translate(-204.233 -84.391)" fill="#263238"/>
          <path id="Path_156926" data-name="Path 156926" d="M230.8,100.933a.854.854,0,1,1-.932-.806.864.864,0,0,1,.932.806Z" transform="translate(-204.312 -87.065)" fill="#263238"/>
          <path id="Path_156927" data-name="Path 156927" d="M224.16,100.94l.309,5.126,2.674-.927Z" transform="translate(-201.76 -87.487)" fill="#f28f8f"/>
          <path id="Path_156928" data-name="Path 156928" d="M207.732,129.374c-2.365-.483-7.545-1.931-8.086-4.682l-.072-1.5c-.917,0-1.337,1.028-1.791,2.5-.188,3.862,3.891,7.4,7.989,8.346a6.25,6.25,0,0,1,.589-3.056,7.092,7.092,0,0,1,1.371-1.6Z" transform="translate(-188.113 -98.996)" fill="#37474f"/>
          <path id="Path_156929" data-name="Path 156929" d="M218.8,125a4.045,4.045,0,0,1,1.651.965c3.07,3.176,1.318,7.337,1.318,7.337s-.135-1.82-1.028-2.414a4.475,4.475,0,0,0-2.336-.579,2.31,2.31,0,0,0,.483-2.7Z" transform="translate(-198.781 -99.932)" fill="#37474f"/>
        </g>
        <g id="freepik--character--inject-11-2" data-name="freepik--character--inject-11" transform="translate(51.539 1.203)">
          <path id="Path_156930" data-name="Path 156930" d="M307.3,140.587c-1.825,5.31-4.1,14.6-4.1,14.6l-17.054,6.869.483,2.24-4.05-1.665-2,2.09s2.216,5.18,5.17,4.518a19.4,19.4,0,0,0,2.071-.521c.932-.328,1.656-.739,2.38-1.023,1.072-.415,2.163-.753,3.587-1.178,5.575-1.661,11.5-3.215,13.241-3.746,2.674-.821,2.708-1.381,3.818-4.446,1.6-4.422,4.7-14.844,4.7-14.844V133.67C312.009,133.709,309.258,134.853,307.3,140.587Z" transform="translate(-280.57 -105.62)" fill="#b16668"/>
          <g id="freepik--character--inject-11-3" data-name="freepik--character--inject-11" transform="translate(22.296)">
            <path id="Path_156931" data-name="Path 156931" d="M393.522,369.9a48.067,48.067,0,0,1,.888,4.875c.236,1.839.381,3.2.917,6.348.483,2.867.859,5.059-1.168,7.212-1.781,1.9-4.924,2.626-5.957.483-1.183-2.462-1.028-6.464-.869-8.954s.126-3.22.145-5.2c0-1.747.1-2.462.2-3.968C389.593,370.566,391.611,370.05,393.522,369.9Z" transform="translate(-358.037 -227.818)" fill="#37474f"/>
            <path id="Path_156932" data-name="Path 156932" d="M355.221,381.03l-.656-.1c-.043-2.066.077-3.949-.434-4.924l.937-2.529Z" transform="translate(-340.917 -229.67)" fill="#263238"/>
            <path id="Path_156933" data-name="Path 156933" d="M357.842,369.66c-.15,1.414-.965,2.862-1.009,5.648a24.251,24.251,0,0,0,.072,3.562l-.681.183-.154-7.55Z" transform="translate(-341.921 -227.694)" fill="#263238"/>
            <path id="Path_156934" data-name="Path 156934" d="M327.5,379.439s.029.825.386,1.1,1.105,1.086,4.735.874,4.9-1.11,6.145-2.245,1.564-4.1,1.752-5.508a10.3,10.3,0,0,1,2.544-5.508,2.413,2.413,0,0,0,.106-1.41,4.57,4.57,0,0,0-4.3,3.157c-1.3,3.326-2.317,7.183-5.252,8.1A50.789,50.789,0,0,1,327.5,379.439Z" transform="translate(-327.142 -226.182)" fill="#263238"/>
            <path id="Path_156935" data-name="Path 156935" d="M362.44,276.422c0-2.346,0-5.46.217-9.587.246-4.827.28-8.559.261-13.651a71.648,71.648,0,0,0-1.583-14.66c1.448-14.844,1.974-30.184.222-35.822-1.5-4.827-3.036-6.454-4.388-8.824-.7-1.226-1.994-3.046-1.994-4.687a30.334,30.334,0,0,1-10.726,2.085c-6.884.063-9.287-1.805-9.287-1.805s-3.1,35.962-2.457,47.7c.386,6.946.941,17.228,1.149,22.282.159,3.9.608,8.964.57,11.1a18.044,18.044,0,0,1-1.076,5.488,39.609,39.609,0,0,1-2.254,5.556,5.661,5.661,0,0,1-.835,1.313,15.036,15.036,0,0,1-1.54,1.5c-1.11.965-1.665,1.448-1.569,2.317s.758,1.245,1.506,1.448a12.418,12.418,0,0,0,5.59,0c1.786-.314,3.78-1.159,4.542-2.862a6.943,6.943,0,0,0,.425-1.564,22.49,22.49,0,0,1,1.366-5.184,11.436,11.436,0,0,1,.975-1.994,5.03,5.03,0,0,0,1.13-2.259,5.343,5.343,0,0,0-1.183-2.771h0c-.618-.927-.449-1.569-.232-4.484.483-6.314,1.752-10.856,2.834-18.527a35.358,35.358,0,0,0-.227-11.1c.734-5.025,2-10.3,2.751-13.767,1.212,7.241,1.989,9.91,2.65,15.4.912,7.612,5.194,23.547,5.875,27.645s1.11,6.845,1.448,10.176c.275,2.9.483,8.689.854,11.339.579,4.233,4.938,2.94,5.643-.792C363.531,284.922,362.479,279.661,362.44,276.422Z" transform="translate(-326.955 -134.34)" fill="#b16668"/>
            <path id="Path_156936" data-name="Path 156936" d="M340.353,195.021c-.4,4.982-2.206,25.1-2.558,31.415-.285,5.073-.14,11.064,0,15.2,3.34,2.167,17.011,6.068,24.073-4.19,1.448,3.49,3.171,5.387,5.218,4.209,0,0,1.5-14.67,1.564-24.136s-1.072-13.975-3.379-17.378-3.939-5.793-3.939-5.793Z" transform="translate(-332.383 -137.009)" fill="#37474f"/>
            <path id="Path_156937" data-name="Path 156937" d="M342.467,360.355c-.517-.912-.99-1.168-1.487-1.955a3.891,3.891,0,0,0-1.173,1.931c-.222.724-.8,4.291-1.68,7.125a5.383,5.383,0,0,1-3.282,3.838,6.14,6.14,0,0,1-2.993.338h0c-1.887-.256-1.448-1.617-1.448-1.617-.434.6-2.235,2.071-3.3,3.152a1.642,1.642,0,0,0,.14,2.138c.526.454,1.757,1.361,6.275.7,4.007-.579,4.943-2.414,5.31-3.263a19.522,19.522,0,0,0,.83-3.756,11.891,11.891,0,0,1,1.4-3.982c.092-.154.179-.3.265-.425h0a15.371,15.371,0,0,1,.965-1.27c.28-.338.483-.483.579-.821a3.06,3.06,0,0,0-.406-2.138Z" transform="translate(-326.758 -221.869)" fill="#37474f"/>
            <path id="Path_156938" data-name="Path 156938" d="M338.728,151.535c.106,1.994,1,9.215,1,9.215,8.143,5.513,20.009-.28,20.009-.28l2.22-15.027a9.157,9.157,0,0,1-.883-11.262l-6.459-.415-6.913-.034-3.534-.063c-2.486,1.825-6.782,6.493-7.579,8.539S335.108,147.273,338.728,151.535Z" transform="translate(-331.516 -105.62)" fill="#c5a424"/>
            <path id="Path_156940" data-name="Path 156940" d="M358.25,165.629c.7.912,3.978,2.037,6.666.845a6.082,6.082,0,0,0,3.741-4.924,5.353,5.353,0,0,1-3.379,5.836C361.132,169.076,358.462,166.536,358.25,165.629Z" transform="translate(-343.048 -120.042)" fill="#263238" opacity="0.1"/>
            <path id="Path_156941" data-name="Path 156941" d="M343.905,97.621s12.184,4.75,12.184,2.626c2.283-4.233,6.9-5.6,6.9-13,0-7.723-6.42-11.508-12.84-11.508h0a11.667,11.667,0,0,0-10.007,5.595c-3.664.965-2.727,6.024.941,6.932Z" transform="translate(-332.478 -75.654)" fill="#263238"/>
            <path id="Path_156942" data-name="Path 156942" d="M374.932,121.473a4.7,4.7,0,1,1,6.242-.7A4.448,4.448,0,0,1,374.932,121.473Z" transform="translate(-351.003 -95.195)" fill="#263238"/>
            <path id="Path_156943" data-name="Path 156943" d="M359.16,110.608v-9.384a2.228,2.228,0,0,0,2.978-.1c1.588-1.163,2.254-3.659,1.139-4.948-.787-.912-3.229-1.414-4.18.55a13.638,13.638,0,0,1-6.521-2.756c-3.693-2.621-4.566-4.933-6.83-5.194-1.062.811-2.1,3.2-1.984,9.5.082,4.663,2.167,6.888,3.234,7.69.869.652,1.979.743,3.862.434v4.422s-5.556,6.184-1.081,5.908A11.461,11.461,0,0,0,359.16,110.608Z" transform="translate(-335.549 -82.4)" fill="#b16668"/>
            <path id="Path_156944" data-name="Path 156944" d="M373.564,102.508V105.1h0a1.829,1.829,0,0,1-1.844-1.81v-2.5Z" transform="translate(-350.016 -88.612)" fill="#263238"/>
            <path id="Path_156945" data-name="Path 156945" d="M359.69,103.524a.859.859,0,1,0,.277-.6.854.854,0,0,0-.277.6Z" transform="translate(-343.793 -89.599)" fill="#263238"/>
            <path id="Path_156946" data-name="Path 156946" d="M344.86,98.06l1.863-1.047a1.043,1.043,0,0,0-1.448-.415A1.091,1.091,0,0,0,344.86,98.06Z" transform="translate(-336.054 -86.37)" fill="#263238"/>
            <path id="Path_156947" data-name="Path 156947" d="M358.5,114.65l-2.375.845a1.231,1.231,0,0,0,1.588.772,1.284,1.284,0,0,0,.787-1.617Z" transform="translate(-341.952 -95.782)" fill="#9a4a4d"/>
            <path id="Path_156948" data-name="Path 156948" d="M346.208,103.11a.859.859,0,0,0,.806.908.874.874,0,0,0,.9-.83.859.859,0,0,0-.811-.908A.869.869,0,0,0,346.208,103.11Z" transform="translate(-336.819 -89.382)" fill="#263238"/>
            <path id="Path_156949" data-name="Path 156949" d="M351.948,103.14l-.125,4.571-2.452-.743Z" transform="translate(-338.455 -89.828)" fill="#9a4a4d"/>
            <path id="Path_156950" data-name="Path 156950" d="M358.449,122.093c1.979-.251,6.058-1.4,6.69-2.983a4.089,4.089,0,0,1-1.448,2.018c-1.216,1.023-5.262,2.177-5.262,2.177Z" transform="translate(-343.142 -98.089)" fill="#9a4a4d"/>
            <path id="Path_156951" data-name="Path 156951" d="M352.306,75.933c-4.093-.936-5.725.251-9.867-.188a8.24,8.24,0,0,0-4.388.314,3.757,3.757,0,0,0-1.878,3.92c.294,3.109,3.645,3.905,3.645,3.905s2.843-6.4,6.618-6.348A9.776,9.776,0,0,0,352.306,75.933Z" transform="translate(-331.616 -75.562)" fill="#263238"/>
          </g>
          <path id="Path_156952" data-name="Path 156952" d="M343.342,186.891l-.072,4a14.629,14.629,0,0,0,7.472,2.341c4.837.323,11.629-1.583,13.516-3a6.609,6.609,0,0,1-.512-3.862,24.034,24.034,0,0,1-11.986,2.679C344.984,188.721,343.342,186.891,343.342,186.891Z" transform="translate(-313.004 -132.881)" fill="#263238"/>
          <path id="Path_156953" data-name="Path 156953" d="M395.6,175.782h0c.55-5.011,1.337-14.414,1.086-15.978-.386-2.37-4.475-15.93-5.884-20.062-1.347-3.91-3.379-5.1-6.84-5.1,0,0-2.414,1.081-2.414,4.924A15.824,15.824,0,0,0,383,145.487l6.073,17.238.357,11.976a5.57,5.57,0,0,1-.965,3.3,19.615,19.615,0,0,0-1.385,2.085c-.579,1.2-.792,2.254-1.448,3.336s-.328,1.144.348,1.212,1.54-.845,2.163-1.931c.2-.333.386-.618.56-.854a18.2,18.2,0,0,1-1.2,6.3c-.676,1.6-.652,2.79,1.018,2.814a7.577,7.577,0,0,0,5.875-2.467c1.289-1.661,1.448-4.248,1.448-6.343S395.341,177.867,395.6,175.782Z" transform="translate(-332.805 -106.122)" fill="#b16668"/>
        </g>
        <path id="Path_156954" data-name="Path 156954" d="M257.031,197.936c-.661-.106-1.868-.261-2.665-.328-2.283-.193-5.257-.372-5.257-.372l.71-7.217,4.32.618a12.1,12.1,0,0,0,4.007-.1c1.743-.3,3.254-1.521,5.025-1.521a2.5,2.5,0,0,1,1.989,1.3,10.457,10.457,0,0,1,1,1.356c1.3,2.167,3.254,5,4,5.416a1.575,1.575,0,0,0,1.376.237c.99,1.68-2.558,2.163-4.089,2.558a10.388,10.388,0,0,1-4.982-.092C261.231,199.4,257.693,198.042,257.031,197.936Z" transform="translate(-212.757 -133.049)" fill="#ffa8a7"/>
        <path id="Path_156955" data-name="Path 156955" d="M180.1,132a11.43,11.43,0,0,0-4.639,2.756c-1.931,1.931-2.027,5.18-1.057,8.443s9.379,17.836,10.62,20.067c1.617,2.9,2.568,2.9,5.31,3.205,3.432.41,24.03,1.757,24.03,1.757,1.2-.237,1.849-6.246.647-7.342l-21.7-3.379-7.3-15.9S184.034,132.555,180.1,132Z" transform="translate(-173.801 -103.553)" fill="#37474f"/>
        <path id="Path_156956" data-name="Path 156956" d="M284.974,189.526c-1.376.386-2.443-.048-3.968-.555-1.6-.526-1.994-.6-3.22-.212-1.139.362-2.452.623-2.92,1.3-.14.208-.6,1.627-.965,2.679.029.521,1.274.7,1.82-.053.483-.647.57-1.028.777-1.265a14.033,14.033,0,0,1,2.486,0l5.711,2.549Z" transform="translate(-225.58 -132.787)" fill="#b16668"/>
        <path id="Path_156957" data-name="Path 156957" d="M264.756,206.49a2.008,2.008,0,0,1,1.665-.84,11.877,11.877,0,0,1,2.148.111c.642.077,1.289.125,1.931.2.328.043.652.087.965.15.212.039.483.188.483.449a2.689,2.689,0,0,1,.84-.212,1.1,1.1,0,0,1,.806.256c.483.439.15,1.115-.159,1.545a2.467,2.467,0,0,1-1.448,1.052,8.689,8.689,0,0,1-3.345-.164C267.565,208.759,263.732,207.543,264.756,206.49Z" transform="translate(-220.761 -141.647)" fill="#b16668"/>
      </g>
    </g>
    <g id="freepik--speech-bubble--inject-11" transform="translate(131.086 29.73)">
      <g id="freepik--speech-bubble--inject-11-2" data-name="freepik--speech-bubble--inject-11">
        <ellipse id="Ellipse_4740" data-name="Ellipse 4740" cx="17.016" cy="14.901" rx="17.016" ry="14.901" transform="translate(1.901)" fill="#6892c8"/>
        <path id="Path_156958" data-name="Path 156958" d="M254.479,77.77a8.782,8.782,0,0,1-5.339,6.488.212.212,0,0,0,0,.405,9.172,9.172,0,0,0,9.654-2.848Z" transform="translate(-248.991 -54.58)" fill="#6892c8"/>
        <path id="Path_156959" data-name="Path 156959" d="M311.381,77.77a8.779,8.779,0,0,0,5.344,6.488.212.212,0,0,1,0,.405,9.172,9.172,0,0,1-9.654-2.848Z" transform="translate(-279.034 -54.58)" fill="#6892c8"/>
        <path id="Path_156960" data-name="Path 156960" d="M264.956,54.57a3.7,3.7,0,0,1,1.255.2,2.949,2.949,0,0,1,.965.574,2.679,2.679,0,0,1,.666.879,3.075,3.075,0,0,1,.261,1.125v1.414a3.124,3.124,0,0,1-.256,1.125,2.688,2.688,0,0,1-.637.879,2.9,2.9,0,0,1-.965.574,3.626,3.626,0,0,1-1.245.2H262.31a.261.261,0,0,1-.193-.082.256.256,0,0,1-.077-.188V54.835a.256.256,0,0,1,.077-.188.261.261,0,0,1,.193-.077Zm1.3,2.737c-.039-.763-.483-1.144-1.356-1.144h-1.014v3.789h1.067c.835,0,1.27-.386,1.3-1.149V57.7a2.642,2.642,0,0,0,0-.391Z" transform="translate(-255.741 -42.579)" fill="#fafafa"/>
        <path id="Path_156961" data-name="Path 156961" d="M281.971,59.952a.256.256,0,0,1,.188.077.261.261,0,0,1,.082.188v1.057a.28.28,0,0,1-.27.27h-4.726a.261.261,0,0,1-.188-.082.256.256,0,0,1-.077-.188V54.835a.266.266,0,0,1,.266-.265h4.649a.265.265,0,0,1,.266.265v1.057a.256.256,0,0,1-.077.188.261.261,0,0,1-.188.082h-3.07v1.076h2.848a.265.265,0,0,1,.27.27v1.057a.256.256,0,0,1-.077.188.266.266,0,0,1-.193.077h-2.848v1.12Z" transform="translate(-263.469 -42.579)" fill="#fafafa"/>
        <path id="Path_156962" data-name="Path 156962" d="M293.328,54.569a.4.4,0,0,1,.3.106.585.585,0,0,1,.145.222l2.172,6.275a.4.4,0,0,1,.043.15.217.217,0,0,1-.068.154.2.2,0,0,1-.13.058h-1.255a.4.4,0,0,1-.285-.087.338.338,0,0,1-.1-.164l-.29-.816h-2.65l-.28.825a.352.352,0,0,1-.106.164.386.386,0,0,1-.285.087h-1.255a.212.212,0,0,1-.217-.217.377.377,0,0,1,.039-.15l2.172-6.275a.584.584,0,0,1,.145-.222.4.4,0,0,1,.3-.106Zm-1.612,4.344h1.612l-.806-2.414Z" transform="translate(-269.723 -42.578)" fill="#fafafa"/>
        <path id="Path_156963" data-name="Path 156963" d="M309.965,59.952a.265.265,0,0,1,.265.266v1.057a.256.256,0,0,1-.077.188.261.261,0,0,1-.188.082H305.35a.27.27,0,0,1-.193-.082.256.256,0,0,1-.077-.188V54.835a.256.256,0,0,1,.077-.188.265.265,0,0,1,.193-.077h1.3a.256.256,0,0,1,.188.077.261.261,0,0,1,.082.188v5.117Z" transform="translate(-278.005 -42.579)" fill="#fafafa"/>
      </g>
    </g>
  </g>
</svg>
