<svg xmlns="http://www.w3.org/2000/svg" width="157.22" height="201.006" viewBox="0 0 157.22 201.006">
  <g id="Personal_site-amico" data-name="Personal site-amico" transform="translate(-46.491 -44.338)">
    <g id="freepik--Shadows--inject-4" transform="translate(46.491 186.752)" opacity="0.12">
      <path id="Path_156005" data-name="Path 156005" d="M72.69,357.785l4.768,2.581a3.107,3.107,0,0,0,3.028-.047l67.2-38.975a1.546,1.546,0,0,0-.037-2.7l-6.308-3.406L72.648,355.067a1.577,1.577,0,0,0,.042,2.718Z" transform="translate(-71.892 -315.24)" fill="#0d2380"/>
      <path id="Path_156006" data-name="Path 156006" d="M318.089,375.468c-9.867-5.693-25.812-5.693-35.611,0s-9.752,14.935.116,20.634,25.812,5.693,35.611,0S327.957,381.166,318.089,375.468Z" transform="translate(-168.302 -341.781)" fill="#0d2380"/>
    </g>
    <g id="freepik--Device--inject-4" transform="translate(46.927 44.338)">
      <path id="Path_156055" data-name="Path 156055" d="M147.261,48.949h0c-.463-1.609-3.727-4.668-6.976-4.6a2.713,2.713,0,0,0-.915.179L76.244,80.438A6.109,6.109,0,0,0,73.19,85.7V222.273c0,3.475,4.011,6.8,7.775,5.2h0a1.377,1.377,0,0,0,.242-.1l63.163-36.011a6.04,6.04,0,0,0,3.049-5.257V49.606a1.493,1.493,0,0,0-.158-.657Z" transform="translate(-72.943 -44.343)" fill="#727997"/>
      <path id="Path_156056" data-name="Path 156056" d="M147.261,48.949h0c-.463-1.609-3.727-4.668-6.976-4.6a2.713,2.713,0,0,0-.915.179L76.244,80.438A6.109,6.109,0,0,0,73.19,85.7V222.273c0,3.475,4.011,6.8,7.775,5.2h0a1.377,1.377,0,0,0,.242-.1l63.163-36.011a6.04,6.04,0,0,0,3.049-5.257V49.606a1.493,1.493,0,0,0-.158-.657Z" transform="translate(-73.19 -44.343)" opacity="0.3"/>
      <path id="Path_156057" data-name="Path 156057" d="M89.93,117.806a3.018,3.018,0,0,1,1.53-2.628l58.626-33.356a1.509,1.509,0,0,1,2.255,1.314V193.27a3.023,3.023,0,0,1-1.525,2.628L92.191,229.3a1.514,1.514,0,0,1-2.261-1.314Z" transform="translate(-80.883 -62.023)" fill="#0d2380"/>
      <path id="Path_156058" data-name="Path 156058" d="M73.18,120.628V257.206c0,3.475,4.011,6.8,7.775,5.2h0a1.5,1.5,0,0,1-1.987-1.414V124.4a6.019,6.019,0,0,1,1.02-3.333L73.806,118A6.009,6.009,0,0,0,73.18,120.628Z" transform="translate(-72.938 -79.276)" opacity="0.3"/>
      <path id="Path_156059" data-name="Path 156059" d="M140.85,44.339a2.712,2.712,0,0,0-.915.179L76.8,80.434a5.993,5.993,0,0,0-2.434,2.629l6.182,3.091a6.019,6.019,0,0,1,2.034-1.94l63.137-35.921a1.5,1.5,0,0,1,2.1.652h0C147.364,47.314,144.094,44.271,140.85,44.339Z" transform="translate(-73.503 -44.338)" fill="#fff" opacity="0.1"/>
      <path id="Path_156060" data-name="Path 156060" d="M152.195,94.659c.447-.258.815-.058.815.452a1.782,1.782,0,0,1-.81,1.393l-12.385,7.155c-.442.258-.8.042-.8-.468a1.766,1.766,0,0,1,.8-1.383Z" transform="translate(-104.161 -68.152)" fill="#263238"/>
      <path id="Path_156061" data-name="Path 156061" d="M133.75,111.752c.442-.252.8-.053.8.457a1.777,1.777,0,0,1-.8,1.393c-.447.258-.81.047-.815-.463A1.772,1.772,0,0,1,133.75,111.752Z" transform="translate(-101.282 -76.26)" fill="#263238"/>
      <path id="Path_156062" data-name="Path 156062" d="M148.118,92.575c.888-.526,1.6-.105,1.6.915a3.538,3.538,0,0,1-1.577,2.781c-.883.526-1.619.089-1.624-.925a3.554,3.554,0,0,1,1.6-2.77Z" transform="translate(-107.723 -67.109)" fill="#263238"/>
      <path id="Path_156063" data-name="Path 156063" d="M146.606,336.941c1.8-1.051,3.259-.21,3.265,1.861a7.213,7.213,0,0,1-3.244,5.667c-1.8,1.051-3.3.189-3.307-1.882A7.218,7.218,0,0,1,146.606,336.941Z" transform="translate(-106.205 -182.904)" fill="#263238"/>
    </g>
    <g id="freepik--Screen--inject-4" transform="translate(65.3 69.382)">
      <path id="Path_156064" data-name="Path 156064" d="M172.862,94.092h0l-3.412-1.808h0a1.482,1.482,0,0,0-1.64-.11l-58.616,33.382a3.033,3.033,0,0,0-1.525,2.628V238.365a1.488,1.488,0,0,0,.962,1.393h0l3.438,1.845h0l.058.026a1.493,1.493,0,0,0,1.44,0l58.626-33.408a3.023,3.023,0,0,0,1.525-2.629V95.464a1.483,1.483,0,0,0-.857-1.372Z" transform="translate(-107.67 -91.977)" fill="#7e7350"/>
      <path id="Path_156065" data-name="Path 156065" d="M173.724,99.312V95.464a1.482,1.482,0,0,0-.862-1.372h0l-3.412-1.808h0a1.482,1.482,0,0,0-1.64-.11l-58.616,33.382a3.033,3.033,0,0,0-1.525,2.628v5.052l3.648,2.1Z" transform="translate(-107.67 -91.977)" fill="#fff" opacity="0.3"/>
      <path id="Path_156066" data-name="Path 156066" d="M172.862,94.092h0l-3.412-1.808h0a1.482,1.482,0,0,0-1.64-.11l-58.616,33.382a3.033,3.033,0,0,0-1.525,2.628V238.365a1.488,1.488,0,0,0,.962,1.393h0l3.438,1.845h0l.058.026a1.493,1.493,0,0,0,1.44,0l58.626-33.408a3.023,3.023,0,0,0,1.525-2.629V95.464a1.483,1.483,0,0,0-.857-1.372Z" transform="translate(-107.67 -91.977)" fill="#fff" opacity="0.5"/>
      <path id="Path_156067" data-name="Path 156067" d="M107.67,159.674V269.856a1.488,1.488,0,0,0,.962,1.393h0l3.438,1.845a1.5,1.5,0,0,1-.747-1.3V161.619a3.076,3.076,0,0,1,.237-1.178l-3.585-2.071A3.039,3.039,0,0,0,107.67,159.674Z" transform="translate(-107.67 -123.467)" fill="#7e7350" opacity="0.3"/>
      <path id="Path_156068" data-name="Path 156068" d="M169.731,92.313h0a1.483,1.483,0,0,0-1.64-.11l-58.626,33.366a3.007,3.007,0,0,0-1.225,1.325l3.585,2.071a3.018,3.018,0,0,1,1.288-1.446l58.61-33.356a1.472,1.472,0,0,1,1.393-.037h0Z" transform="translate(-107.94 -91.991)" fill="#fff" opacity="0.4"/>
      <path id="Path_156069" data-name="Path 156069" d="M136,161.1c7.733-4.463,14.02-.883,14.047,8s-6.224,19.709-13.957,24.182-14.02.883-14.047-8S128.264,165.56,136,161.1Z" transform="translate(-114.486 -123.849)" fill="#b0c0d2"/>
      <path id="Path_156070" data-name="Path 156070" d="M151.369,169.753a3.748,3.748,0,0,0,1.051-4.942,2.029,2.029,0,0,0,.988-.931,1.088,1.088,0,0,0-1.414-1.451,1.535,1.535,0,0,0-.61-1.787,1.451,1.451,0,0,0-1.8.331.983.983,0,0,0-.668-.962,1.977,1.977,0,0,0-1.241.079c-.4.137-.778.336-1.183.463a8.969,8.969,0,0,1-2.1.273,4.3,4.3,0,0,0-2.05.526,1.835,1.835,0,0,0-.8,2.1,1.178,1.178,0,0,0-.852-.452,1.141,1.141,0,0,0-.873.373c.447.273.878.573,1.325.846a1.2,1.2,0,0,0-1.362.526,2.66,2.66,0,0,0-.242,1.435,19.066,19.066,0,0,0,.988,5.5,4.5,4.5,0,0,0,1.887,2.492Z" transform="translate(-122.776 -124.215)" fill="#37474f"/>
      <path id="Path_156071" data-name="Path 156071" d="M159.29,192l2.1,1.808,1.12,6.424a34.411,34.411,0,0,0,2.429-4.311C163.99,193.446,163.217,192,159.29,192Z" transform="translate(-132.153 -139.418)" fill="#ebebeb"/>
      <path id="Path_156072" data-name="Path 156072" d="M142.708,208.789a28.1,28.1,0,0,0,9.415-9.636c-.2-3.48-.715-7.223-3.88-7.223l-9.4.063-1.919.205L136,210.713A12.269,12.269,0,0,0,142.708,208.789Z" transform="translate(-121.107 -139.384)" fill="#7e7350"/>
      <g id="Group_99965" data-name="Group 99965" transform="translate(14.893 52.546)" opacity="0.4">
        <path id="Path_156073" data-name="Path 156073" d="M142.708,208.789a28.1,28.1,0,0,0,9.415-9.636c-.2-3.48-.715-7.223-3.88-7.223l-9.4.063-1.919.205L136,210.713A12.269,12.269,0,0,0,142.708,208.789Z" transform="translate(-136 -191.93)" fill="#0d2380"/>
      </g>
      <path id="Path_156074" data-name="Path 156074" d="M151.888,193.97c.878,2.8.326,6.7,0,8.453-2.229-3.065-4.311-6.135-4.968-7.36l3.107-1.5Z" transform="translate(-126.286 -140.157)" fill="#ebebeb"/>
      <path id="Path_156075" data-name="Path 156075" d="M153.9,199.059l.768-.179a25.518,25.518,0,0,1,.93,3c-.095,1.235-.268,2.339-.4,3.07-.442-.6-.873-1.2-1.288-1.787a20.5,20.5,0,0,0-.011-4.1Z" transform="translate(-129.597 -142.681)" fill="#455a64"/>
      <path id="Path_156076" data-name="Path 156076" d="M153.93,199.222v-.163l.768-.179.042.11a1,1,0,0,1-.436.231A.91.91,0,0,1,153.93,199.222Z" transform="translate(-129.611 -142.681)" opacity="0.2"/>
      <path id="Path_156077" data-name="Path 156077" d="M151.3,195.049l-.6-.389-1.4.767a3.217,3.217,0,0,0,1.661.657Z" transform="translate(-127.41 -140.679)" fill="#455a64"/>
      <path id="Path_156078" data-name="Path 156078" d="M154.88,194.75l.184-.41.71.442a1.272,1.272,0,0,1-.457.673Z" transform="translate(-130.062 -140.527)" fill="#455a64"/>
      <path id="Path_156079" data-name="Path 156079" d="M151.3,195.049l-.6-.389-1.4.767a3.217,3.217,0,0,0,1.661.657Z" transform="translate(-127.41 -140.679)" opacity="0.2"/>
      <path id="Path_156080" data-name="Path 156080" d="M154.88,194.75l.184-.41.71.442a1.272,1.272,0,0,1-.457.673Z" transform="translate(-130.062 -140.527)" opacity="0.2"/>
      <path id="Path_156081" data-name="Path 156081" d="M152.45,196.289a3.491,3.491,0,0,1,.347-1.051l.93-.147a1.55,1.55,0,0,1,.252,1.977,1.65,1.65,0,0,1-.768.179,1.982,1.982,0,0,1-.762-.957Z" transform="translate(-128.909 -140.883)" fill="#455a64"/>
      <path id="Path_156082" data-name="Path 156082" d="M147.882,191.365c-1.472-.026-2.376,1.151-3.727,1.551l-2.755-2.97,1.051-1.577a2.838,2.838,0,0,1,.815-.789h0v.578a.994.994,0,0,0,.489.825Z" transform="translate(-123.668 -137.321)" fill="#e0e0e0"/>
      <path id="Path_156083" data-name="Path 156083" d="M153.73,192.489c.825-.252,2.05.773,2.05.773-.431-2.376-1.724-3.312-2.045-3.312Z" transform="translate(-129.516 -138.445)" fill="#e0e0e0"/>
      <path id="Path_156084" data-name="Path 156084" d="M133.038,192.47l-1.272.205a3.759,3.759,0,0,0-3.075,2.954,44.879,44.879,0,0,0-.831,10.824l5.835-2.665C134.294,199.22,135.493,195.461,133.038,192.47Z" transform="translate(-117.225 -139.64)" fill="#ebebeb"/>
      <path id="Path_156085" data-name="Path 156085" d="M133.132,215.756v-.526a.316.316,0,0,1,.116-.242.336.336,0,0,0,.116-.258v-.841a.41.41,0,0,0-.421-.41c-2.629.037-5.194,1.288-5.893,2.765a2.2,2.2,0,0,0,0,1.425c-.457.594-.237.9,0,1.33a7.835,7.835,0,0,0,.757.626C129.526,216.907,133.132,215.756,133.132,215.756Z" transform="translate(-116.735 -149.605)" fill="#e0e0e0"/>
      <path id="Path_156086" data-name="Path 156086" d="M130.573,216.69a8.937,8.937,0,0,0-3.328,2.523,2.372,2.372,0,0,1-.105-.484A5.877,5.877,0,0,1,130.573,216.69Z" transform="translate(-116.905 -151.128)" opacity="0.2"/>
      <path id="Path_156087" data-name="Path 156087" d="M134.733,216.09a.3.3,0,0,1-.095.158.316.316,0,0,0-.116.242v.042a8.758,8.758,0,0,0-4.863,2.46C130.89,217.231,133.55,216.327,134.733,216.09Z" transform="translate(-118.1 -150.843)" opacity="0.2"/>
      <path id="Path_156088" data-name="Path 156088" d="M139.3,219.48a24.639,24.639,0,0,0,5.993-5.01c-3.38,0-8.09.21-11.176,1.277v.463a10.81,10.81,0,0,0-5.3,3.89C131.37,221.967,135.123,221.909,139.3,219.48Z" transform="translate(-117.701 -150.075)" fill="#ffa8a7"/>
      <path id="Path_156089" data-name="Path 156089" d="M136.495,217.323l.058-.573-.294.095v.463a12.145,12.145,0,0,0-2.4,1.141,3.528,3.528,0,0,0-.526,1.051,4.452,4.452,0,0,1,2.981-1.777,35.717,35.717,0,0,1,6.161,2.224c.231-.152.463-.31.689-.473A63.47,63.47,0,0,0,136.495,217.323Z" transform="translate(-119.84 -151.156)" opacity="0.2"/>
      <path id="Path_156090" data-name="Path 156090" d="M146.626,185.275h-.042a2.4,2.4,0,0,1-1.235-1.577c-.079-.342-.147-.683-.2-1.025s-.279,0-.279,0,0,.757.037,1.656c0,.473,0,.988.032,1.456a.994.994,0,0,0,.489.825l4.1,2.392v-2.918A7.475,7.475,0,0,1,146.626,185.275Z" transform="translate(-125.314 -134.922)" fill="#ffa8a7"/>
      <path id="Path_156091" data-name="Path 156091" d="M146.31,186.77Z" transform="translate(-125.997 -136.937)" fill="#ffa8a7"/>
      <path id="Path_156092" data-name="Path 156092" d="M146.626,186.7a2.833,2.833,0,0,1-.526-1.051,2.476,2.476,0,0,0,1.051,1.088h.042a7.475,7.475,0,0,0,2.907.773v.747a7.311,7.311,0,0,1-1.719-.363,3.854,3.854,0,0,1-1.756-1.193Z" transform="translate(-125.897 -136.406)" opacity="0.2"/>
      <path id="Path_156093" data-name="Path 156093" d="M150.8,169.709a19.536,19.536,0,0,1-.494,7.607,5.963,5.963,0,0,1-.6,1.577,2.55,2.55,0,0,1-1.235,1.093,3.89,3.89,0,0,1-2.04,0,10.341,10.341,0,0,1-3.6-1.1,3.531,3.531,0,0,1-1.824-3.086,2.15,2.15,0,0,1-2.061.116,2.182,2.182,0,0,1-1.13-1.751,1.346,1.346,0,0,1,2.25-1.272,4.52,4.52,0,0,1,.836.978,1.472,1.472,0,0,0,.415.447.526.526,0,0,0,.578,0,.752.752,0,0,0,.163-.626l-.074-1.577a.636.636,0,0,1,.352-.589,1.577,1.577,0,0,0,.715-.825,3.233,3.233,0,0,0,.2-.957.394.394,0,0,1,.526-.331,11.712,11.712,0,0,0,7.018.3Z" transform="translate(-121.952 -128.692)" fill="#ffa8a7"/>
      <path id="Path_156094" data-name="Path 156094" d="M155.629,177.35l1.43,2.408-1.709.321Z" transform="translate(-130.285 -132.469)" fill="#f28f8f"/>
      <path id="Path_156095" data-name="Path 156095" d="M152.185,184.12l1.293.631a.841.841,0,0,1-.983.279A.752.752,0,0,1,152.185,184.12Z" transform="translate(-128.76 -135.68)" fill="#f28f8f"/>
      <path id="Path_156096" data-name="Path 156096" d="M152.185,184.12l1.293.631a.841.841,0,0,1-.983.279A.752.752,0,0,1,152.185,184.12Z" transform="translate(-128.76 -135.68)" opacity="0.3"/>
      <path id="Path_156097" data-name="Path 156097" d="M152.955,185.275a.73.73,0,0,1-.452-.042.694.694,0,0,1-.347-.683.815.815,0,0,1,.526.179A.8.8,0,0,1,152.955,185.275Z" transform="translate(-128.767 -135.884)" fill="#f28f8f"/>
      <path id="Path_156098" data-name="Path 156098" d="M151.178,177.134a.489.489,0,1,0,.526-.436A.484.484,0,0,0,151.178,177.134Z" transform="translate(-128.304 -132.159)" fill="#263238"/>
      <path id="Path_156099" data-name="Path 156099" d="M159,177.6a.489.489,0,1,0,.536-.436.489.489,0,0,0-.536.436Z" transform="translate(-132.013 -132.381)" fill="#263238"/>
      <path id="Path_156100" data-name="Path 156100" d="M160.27,174.328l1.009.857a.694.694,0,0,0-.137-.783A.825.825,0,0,0,160.27,174.328Z" transform="translate(-132.618 -130.992)" fill="#263238"/>
      <path id="Path_156101" data-name="Path 156101" d="M151.277,173.336l-1.157.641a.689.689,0,0,1,.289-.746.831.831,0,0,1,.867.105Z" transform="translate(-127.794 -130.479)" fill="#263238"/>
      <path id="Path_156102" data-name="Path 156102" d="M191.607,171.67l.005,1.356-6.077,3.506-.005-1.356Z" transform="translate(-144.599 -129.775)" fill="#fff"/>
      <path id="Path_156103" data-name="Path 156103" d="M194.832,184.02l.005,1.356-9.252,5.341-.005-1.356Z" transform="translate(-144.623 -135.633)" fill="#fff"/>
      <path id="Path_156104" data-name="Path 156104" d="M197.851,175.42l.005,1.356-12.291,7.1-.005-1.356Z" transform="translate(-144.613 -131.554)" fill="#fff"/>
      <path id="Path_156105" data-name="Path 156105" d="M202.621,154.29l.005,1.356-17.1,9.878-.005-1.362Z" transform="translate(-144.594 -121.532)" fill="#fff"/>
      <path id="Path_156106" data-name="Path 156106" d="M206,145.25l.005,1.362-20.5,11.828-.005-1.356Z" transform="translate(-144.585 -117.244)" fill="#fff"/>
      <path id="Path_156107" data-name="Path 156107" d="M201.719,140.13l.011,2.718-16.244,9.379-.005-2.718Z" transform="translate(-144.575 -114.816)" fill="#fff"/>
      <path id="Path_156108" data-name="Path 156108" d="M120.91,231.589v65.25l24.061-13.71V217.71Z" transform="translate(-113.95 -151.612)" fill="#7e7350"/>
      <path id="Path_156109" data-name="Path 156109" d="M199.785,182.89,169.61,200.3v65.434l30.175-17.2Z" transform="translate(-137.048 -135.097)" fill="#7e7350"/>
      <g id="Group_99966" data-name="Group 99966" transform="translate(6.96 47.793)" opacity="0.7">
        <path id="Path_156110" data-name="Path 156110" d="M120.91,231.589v65.25l24.061-13.71V217.71Z" transform="translate(-120.91 -199.405)" fill="#fff"/>
        <path id="Path_156111" data-name="Path 156111" d="M199.785,182.89,169.61,200.3v65.434l30.175-17.2Z" transform="translate(-144.008 -182.89)" fill="#fff"/>
      </g>
      <path id="Path_156112" data-name="Path 156112" d="M191.658,291.12v1.172l-14.273,8.238-.005-1.167Z" transform="translate(-140.733 -186.43)" fill="#7e7350"/>
      <path id="Path_156113" data-name="Path 156113" d="M199.476,278.39l.005,1.178-22.106,12.759-.005-1.172Z" transform="translate(-140.729 -180.392)" fill="#7e7350"/>
      <path id="Path_156114" data-name="Path 156114" d="M187.753,287.13V288.3l-10.388,6-.005-1.167Z" transform="translate(-140.724 -184.538)" fill="#7e7350"/>
      <path id="Path_156115" data-name="Path 156115" d="M199.456,270.15l.005,1.172-22.106,12.759-.005-1.172Z" transform="translate(-140.719 -176.484)" fill="#7e7350"/>
      <path id="Path_156116" data-name="Path 156116" d="M199.446,266.02l.005,1.172L177.34,279.956v-1.172Z" transform="translate(-140.714 -174.525)" fill="#7e7350"/>
      <path id="Path_156117" data-name="Path 156117" d="M182.646,274.42V275.6l-5.331,3.081-.005-1.178Z" transform="translate(-140.7 -178.509)" fill="#7e7350"/>
      <path id="Path_156118" data-name="Path 156118" d="M199.406,251.88v1.172l-22.1,12.764-.005-1.172Z" transform="translate(-140.695 -167.818)" fill="#7e7350"/>
      <path id="Path_156119" data-name="Path 156119" d="M199.4,247.76v1.172L177.29,261.7v-1.172Z" transform="translate(-140.691 -165.864)" fill="#7e7350"/>
      <path id="Path_156120" data-name="Path 156120" d="M199.38,243.64l.005,1.172L177.28,257.571V256.4Z" transform="translate(-140.686 -163.91)" fill="#7e7350"/>
      <path id="Path_156121" data-name="Path 156121" d="M191.523,242.27l.005,1.172-14.278,8.243v-1.172Z" transform="translate(-140.672 -163.261)" fill="#7e7350"/>
      <path id="Path_156122" data-name="Path 156122" d="M199.34,229.54l.005,1.178L177.24,243.482V242.3Z" transform="translate(-140.667 -157.223)" fill="#7e7350"/>
      <path id="Path_156123" data-name="Path 156123" d="M199.326,225.42l.005,1.172-22.106,12.764-.005-1.172Z" transform="translate(-140.657 -155.269)" fill="#7e7350"/>
      <path id="Path_156124" data-name="Path 156124" d="M199.306,217.17l.005,1.178-22.106,12.764-.005-1.178Z" transform="translate(-140.648 -151.356)" fill="#7e7350"/>
      <path id="Path_156125" data-name="Path 156125" d="M199.316,221.3l.005,1.172-22.106,12.764-.005-1.172Z" transform="translate(-140.653 -153.314)" fill="#7e7350"/>
      <path id="Path_156126" data-name="Path 156126" d="M195.97,202.75v1.172l-18.815,10.866-.005-1.172Z" transform="translate(-140.624 -144.516)" fill="#7e7350"/>
      <path id="Path_156127" data-name="Path 156127" d="M197.315,209.54l.005,1.178-20.145,11.628-.005-1.178Z" transform="translate(-140.634 -147.737)" fill="#7e7350"/>
      <path id="Path_156128" data-name="Path 156128" d="M190.418,212.98v1.172l-13.253,7.654-.005-1.172Z" transform="translate(-140.629 -149.368)" fill="#7e7350"/>
      <path id="Path_156129" data-name="Path 156129" d="M199.246,195.02v1.172L177.14,208.956v-1.172Z" transform="translate(-140.62 -140.85)" fill="#7e7350"/>
      <path id="Path_156130" data-name="Path 156130" d="M199.536,299.17l.005,1.167L177.435,313.1l-.005-1.172Z" transform="translate(-140.757 -190.248)" fill="#7e7350"/>
      <path id="Path_156131" data-name="Path 156131" d="M187.833,316.15v1.172l-10.388,6-.005-1.172Z" transform="translate(-140.762 -198.302)" fill="#7e7350"/>
      <path id="Path_156132" data-name="Path 156132" d="M193.964,301.15l.005,1.172-16.544,9.552-.005-1.172Z" transform="translate(-140.752 -191.187)" fill="#7e7350"/>
      <path id="Path_156133" data-name="Path 156133" d="M199.516,290.92l.005,1.172-22.106,12.764-.005-1.178Z" transform="translate(-140.748 -186.335)" fill="#7e7350"/>
      <g id="Group_99967" data-name="Group 99967" transform="translate(36.626 91.495)" opacity="0.1">
        <path id="Path_156134" data-name="Path 156134" d="M191.658,291.12v1.172l-14.273,8.238-.005-1.167Z" transform="translate(-177.359 -277.925)" fill="#fff"/>
        <path id="Path_156135" data-name="Path 156135" d="M199.476,278.39l.005,1.178-22.106,12.759-.005-1.172Z" transform="translate(-177.354 -271.887)" fill="#fff"/>
        <path id="Path_156136" data-name="Path 156136" d="M187.753,287.13V288.3l-10.388,6-.005-1.167Z" transform="translate(-177.349 -276.032)" fill="#fff"/>
        <path id="Path_156137" data-name="Path 156137" d="M199.456,270.15l.005,1.172-22.106,12.759-.005-1.172Z" transform="translate(-177.345 -267.979)" fill="#fff"/>
        <path id="Path_156138" data-name="Path 156138" d="M199.446,266.02l.005,1.172L177.34,279.956v-1.172Z" transform="translate(-177.34 -266.02)" fill="#fff"/>
      </g>
      <g id="Group_99968" data-name="Group 99968" transform="translate(36.594 79.73)" opacity="0.4">
        <path id="Path_156139" data-name="Path 156139" d="M182.646,274.42V275.6l-5.331,3.081-.005-1.178Z" transform="translate(-177.294 -258.239)" fill="#fff"/>
        <path id="Path_156140" data-name="Path 156140" d="M199.406,251.88v1.172l-22.1,12.764-.005-1.172Z" transform="translate(-177.289 -247.548)" fill="#fff"/>
        <path id="Path_156141" data-name="Path 156141" d="M199.4,247.76v1.172L177.29,261.7v-1.172Z" transform="translate(-177.285 -245.594)" fill="#fff"/>
        <path id="Path_156142" data-name="Path 156142" d="M199.38,243.64l.005,1.172L177.28,257.571V256.4Z" transform="translate(-177.28 -243.64)" fill="#fff"/>
      </g>
      <g id="Group_99969" data-name="Group 99969" transform="translate(36.552 65.814)" opacity="0.1">
        <path id="Path_156143" data-name="Path 156143" d="M191.523,242.27l.005,1.172-14.278,8.243v-1.172Z" transform="translate(-177.224 -229.075)" fill="#fff"/>
        <path id="Path_156144" data-name="Path 156144" d="M199.34,229.54l.005,1.178L177.24,243.482V242.3Z" transform="translate(-177.219 -223.037)" fill="#fff"/>
        <path id="Path_156145" data-name="Path 156145" d="M199.326,225.42l.005,1.172-22.106,12.764-.005-1.172Z" transform="translate(-177.209 -221.083)" fill="#fff"/>
        <path id="Path_156146" data-name="Path 156146" d="M199.306,217.17l.005,1.178-22.106,12.764-.005-1.178Z" transform="translate(-177.2 -217.17)" fill="#fff"/>
        <path id="Path_156147" data-name="Path 156147" d="M199.316,221.3l.005,1.172-22.106,12.764-.005-1.172Z" transform="translate(-177.205 -219.129)" fill="#fff"/>
      </g>
      <g id="Group_99970" data-name="Group 99970" transform="translate(36.52 54.17)" opacity="0.4">
        <path id="Path_156148" data-name="Path 156148" d="M195.97,202.75v1.172l-18.815,10.866-.005-1.172Z" transform="translate(-177.145 -198.686)" fill="#fff"/>
        <path id="Path_156149" data-name="Path 156149" d="M197.315,209.54l.005,1.178-20.145,11.628-.005-1.178Z" transform="translate(-177.154 -201.907)" fill="#fff"/>
        <path id="Path_156150" data-name="Path 156150" d="M190.418,212.98v1.172l-13.253,7.654-.005-1.172Z" transform="translate(-177.149 -203.538)" fill="#fff"/>
        <path id="Path_156151" data-name="Path 156151" d="M199.246,195.02v1.172L177.14,208.956v-1.172Z" transform="translate(-177.14 -195.02)" fill="#fff"/>
      </g>
      <g id="Group_99971" data-name="Group 99971" transform="translate(36.662 104.585)" opacity="0.4">
        <path id="Path_156152" data-name="Path 156152" d="M199.536,299.17l.005,1.167L177.435,313.1l-.005-1.172Z" transform="translate(-177.419 -294.833)" fill="#fff"/>
        <path id="Path_156153" data-name="Path 156153" d="M187.833,316.15v1.172l-10.388,6-.005-1.172Z" transform="translate(-177.424 -302.887)" fill="#fff"/>
        <path id="Path_156154" data-name="Path 156154" d="M193.964,301.15l.005,1.172-16.544,9.552-.005-1.172Z" transform="translate(-177.415 -295.772)" fill="#fff"/>
        <path id="Path_156155" data-name="Path 156155" d="M199.516,290.92l.005,1.172-22.106,12.764-.005-1.178Z" transform="translate(-177.41 -290.92)" fill="#fff"/>
      </g>
      <path id="Path_156156" data-name="Path 156156" d="M141.563,234.34l.005,2.261-14.982,8.632-.005-2.261Z" transform="translate(-116.639 -159.499)" fill="#7e7350"/>
      <path id="Path_156157" data-name="Path 156157" d="M139.5,244.82l.005,1.13-12.9,7.428v-1.13Z" transform="translate(-116.653 -164.47)" fill="#fff"/>
      <path id="Path_156158" data-name="Path 156158" d="M157.42,323.06l.005,2.261-5.53,3.191-.005-2.255Z" transform="translate(-128.643 -201.579)" fill="#7e7350"/>
      <path id="Path_156159" data-name="Path 156159" d="M134.758,288.64l.005,2.261-8.043,4.626-.01-2.255Z" transform="translate(-116.701 -185.254)" fill="#7e7350"/>
      <path id="Path_156160" data-name="Path 156160" d="M154,277.05l.005,2.261-8.974,5.178-.005-2.255Z" transform="translate(-125.39 -179.757)" fill="#7e7350"/>
      <path id="Path_156161" data-name="Path 156161" d="M140.884,268.68l.005,1.125-14.21,8.185v-1.125Z" transform="translate(-116.686 -175.787)" fill="#fff"/>
      <path id="Path_156162" data-name="Path 156162" d="M139.715,320.86v1.125l-12.89,7.428-.005-1.125Z" transform="translate(-116.753 -200.536)" fill="#fff"/>
      <path id="Path_156163" data-name="Path 156163" d="M141.792,314.6v1.13l-14.982,8.632v-1.13Z" transform="translate(-116.748 -197.567)" fill="#fff"/>
      <path id="Path_156164" data-name="Path 156164" d="M145.4,306.65l.005,1.13L126.8,318.5v-1.13Z" transform="translate(-116.743 -193.796)" fill="#fff"/>
      <path id="Path_156165" data-name="Path 156165" d="M141.763,302.44l.005,2.261-14.983,8.632-.005-2.255Z" transform="translate(-116.734 -191.799)" fill="#7e7350"/>
      <path id="Path_156166" data-name="Path 156166" d="M143.078,291.7l.005,1.13-16.334,9.41v-1.125Z" transform="translate(-116.72 -186.705)" fill="#fff"/>
      <path id="Path_156167" data-name="Path 156167" d="M140.035,291.07l.005,1.125-13.3,7.665v-1.13Z" transform="translate(-116.715 -186.406)" fill="#fff"/>
      <path id="Path_156168" data-name="Path 156168" d="M142.288,271.11l.005,1.136-15.6,8.99V280.1Z" transform="translate(-116.691 -176.939)" fill="#fff"/>
      <path id="Path_156169" data-name="Path 156169" d="M144.044,261.23v1.13L126.67,272.375v-1.13Z" transform="translate(-116.682 -172.253)" fill="#fff"/>
      <path id="Path_156170" data-name="Path 156170" d="M141.622,255.67l.005,2.255-14.982,8.632-.005-2.255Z" transform="translate(-116.667 -169.616)" fill="#7e7350"/>
      <path id="Path_156171" data-name="Path 156171" d="M135.2,253.52v1.13l-8.585,4.936v-1.125Z" transform="translate(-116.658 -168.596)" fill="#fff"/>
      <path id="Path_156172" data-name="Path 156172" d="M143.287,337.73l.005,1.13-16.407,9.457-.005-1.13Z" transform="translate(-116.781 -208.537)" fill="#fff"/>
      <path id="Path_156173" data-name="Path 156173" d="M140.733,336.55v1.136l-13.863,7.986v-1.13Z" transform="translate(-116.777 -207.977)" fill="#fff"/>
      <path id="Path_156174" data-name="Path 156174" d="M137.885,331.47l.005,2.255-11.04,6.361-.011-2.255Z" transform="translate(-116.762 -205.568)" fill="#7e7350"/>
    </g>
    <g id="freepik--Character--inject-4" transform="translate(139.935 108.63)">
      <path id="Path_156175" data-name="Path 156175" d="M292.176,386.781a4.946,4.946,0,0,0,3.717,1.367,11.234,11.234,0,0,0,3.938-.994c1.256-.526,2.833-1.961,4.206-1.935a33.5,33.5,0,0,0,3.98-.273,20.706,20.706,0,0,0-.568-5.388l-6.35-.168a15.707,15.707,0,0,1-7.57,5.036,2.219,2.219,0,0,0-1.577,1.667.114.114,0,0,1,0,.042,2.691,2.691,0,0,0,.226.647Z" transform="translate(-269.709 -267.544)" fill="#37474f"/>
      <path id="Path_156176" data-name="Path 156176" d="M303.982,390.233c-1.362-.026-2.939,1.419-4.206,1.935a11.235,11.235,0,0,1-3.938.994,4.947,4.947,0,0,1-3.717-1.367,2.692,2.692,0,0,1-.221-.647.116.116,0,0,0,0-.042,2.1,2.1,0,0,0,0,.846,2.69,2.69,0,0,0,.221.647,4.947,4.947,0,0,0,3.717,1.367,11.223,11.223,0,0,0,3.938-.988c1.256-.526,2.833-1.966,4.206-1.94a29.652,29.652,0,0,0,3.916-.226c.032-.284.047-.568.063-.852A33.483,33.483,0,0,1,303.982,390.233Z" transform="translate(-269.665 -272.558)" fill="#263238"/>
      <path id="Path_156177" data-name="Path 156177" d="M343.605,396.879a9.732,9.732,0,0,1-.205,2.066,4.794,4.794,0,0,1-1.887,3.012,6.1,6.1,0,0,1-3,.8,6.7,6.7,0,0,1-2.744-.284,3.086,3.086,0,0,1-1.609-1.314.089.089,0,0,0,0,.037,2.87,2.87,0,0,0,1.85,1.924,6.619,6.619,0,0,0,2.744.284,6.029,6.029,0,0,0,3-.8,4.789,4.789,0,0,0,1.893-3.012,10.472,10.472,0,0,0,.205-2.066,3.491,3.491,0,0,1,1.1-2.529,6.093,6.093,0,0,0,.484-.494,1.225,1.225,0,0,0,.294-.9,1.321,1.321,0,0,0-.037-.378c-.252.294-.841.994-.988,1.13A3.517,3.517,0,0,0,343.605,396.879Z" transform="translate(-289.727 -274.104)" fill="#263238"/>
      <path id="Path_156178" data-name="Path 156178" d="M338.363,386.48a7.555,7.555,0,0,1-.526,4.206,15.933,15.933,0,0,1-2.218,3.648,10.968,10.968,0,0,0-1.162,1.693,3.012,3.012,0,0,0-.326,1.95,3.086,3.086,0,0,0,1.609,1.314,6.7,6.7,0,0,0,2.744.284,6.1,6.1,0,0,0,3-.8,4.8,4.8,0,0,0,1.887-3.012,9.735,9.735,0,0,0,.2-2.066,3.517,3.517,0,0,1,1.109-2.529c.147-.137.736-.836.988-1.13a7.707,7.707,0,0,0-1.02-2.923Z" transform="translate(-289.695 -270.907)" fill="#37474f"/>
      <path id="Path_156179" data-name="Path 156179" d="M307.5,273.5s-1.609,21.091-1.467,26.958.731,29.056.731,29.056c3.286,1.919,8.033.489,8.033.489.384-18.51,2.129-22.49.946-29.266.836-5.031,1.992-16.749,1.992-16.749,1.635,14.094,2.823,21.359,2.823,21.359l3.911,28.214c3.212,1.677,7.265,0,7.265,0,0-16.081.347-22.884-1.325-33.5-.089-16.344-.92-26.285-.92-26.285Z" transform="translate(-276.384 -217.321)" fill="#455a64"/>
      <path id="Path_156180" data-name="Path 156180" d="M316.22,283.86c1.12,2.749,4.637,2.749,4.637,2.749l.626,3.123-.231,11.108c.673-5.4,1.319-11.939,1.319-11.939l-.436-3.344A9.284,9.284,0,0,1,316.22,283.86Z" transform="translate(-281.22 -222.235)" opacity="0.2"/>
      <path id="Path_156181" data-name="Path 156181" d="M270.128,214.883l-2.518,2.261-6.971-7.475a5.751,5.751,0,0,1-1.383-2.576l-.394-1.656a4.5,4.5,0,0,0-.494-1.235c-.342-.589-.7-1.178-1.015-1.756a.972.972,0,0,0-.4-.457.584.584,0,0,0-.647.158.983.983,0,0,0-.226.668,2.969,2.969,0,0,0,.131.7c.095.357.189.715.289,1.051a1.471,1.471,0,0,1,.068.452.478.478,0,0,1-.205.394c-.3.184-4.595-3.811-5.315-5.636-.195-.494-1.735-.205-.8,1.787a1.388,1.388,0,0,0-.489,1.13c-.032.526-.058,1.088-.089,1.63a6.061,6.061,0,0,0,.063,1.577,4.91,4.91,0,0,0,1.172,2.061,9.878,9.878,0,0,0,3.506,2.5,5.814,5.814,0,0,1,2.476,2.1l6.666,10.051a4.779,4.779,0,0,0,6.987,1.051l3.522-2.849Z" transform="translate(-249.643 -182.255)" fill="#ffa8a7"/>
      <path id="Path_156182" data-name="Path 156182" d="M300.111,210.857c-3.422-.194-4.321,1.577-6.482,3.606s-6.23,5.925-6.23,5.925a8.143,8.143,0,0,0,4.521,6.387l7.533-5.557Z" transform="translate(-267.551 -187.602)" fill="#455a64"/>
      <path id="Path_156183" data-name="Path 156183" d="M330.177,244.971s-12.753,4.663-23.131-1.151c0,0,.631-7.423.815-11.749s-1.3-12.68-1.525-14.919.074-6.114,2.713-6.7c4.894-1.051,14.094,0,14.094,0l5.494,6.072A113.013,113.013,0,0,1,330.177,244.971Z" transform="translate(-276.505 -187.194)" fill="#7e7350"/>
      <path id="Path_156184" data-name="Path 156184" d="M330.177,244.971s-12.753,4.663-23.131-1.151c0,0,.631-7.423.815-11.749s-1.3-12.68-1.525-14.919.074-6.114,2.713-6.7c4.894-1.051,14.094,0,14.094,0l5.494,6.072A113.013,113.013,0,0,1,330.177,244.971Z" transform="translate(-276.505 -187.194)" fill="#ffca00" opacity="0.3"/>
      <g id="Group_99972" data-name="Group 99972" transform="translate(8.073 41.275)">
        <path id="Path_156185" data-name="Path 156185" d="M278.269,258.892h0v-.079h0v-.053h0l-5.073-9.7v-.026h0v-.158h0v-.058h0a.451.451,0,0,0-.074-.068h-.179l-5.919-3.422h-.4a.11.11,0,0,0-.089.037l-.72.8h0c-.058.047-.063.142,0,.3l5.073,9.7a3.334,3.334,0,0,0,1.13,1.1l5.919,3.417c.3.173.489.184.526.058v.053h0l.72-.8a.085.085,0,0,0,0-.037v-.032ZM265,245.15h.042Zm6.792,3.922.163.142h0Zm.368.368.068.079h0Zm5.4,10.262a.493.493,0,0,0-.058-.189.893.893,0,0,1,.063.173h0Z" transform="translate(-265 -245.15)" fill="#455a64"/>
      </g>
      <path id="Path_156186" data-name="Path 156186" d="M284.952,262.416h0v-.079h0v-.053h0l-5.073-9.7-.789.746,5.078,9.71a.891.891,0,0,1,.063.173h0a.126.126,0,0,1-.026.105h0l.72-.8a.087.087,0,0,0,0-.037v-.031Z" transform="translate(-263.61 -207.399)" fill="#fff" opacity="0.15"/>
      <path id="Path_156187" data-name="Path 156187" d="M273.771,249.076h0v-.158h0v-.058h0a.447.447,0,0,0-.074-.068h-.179L267.6,245.37h-.4a.11.11,0,0,0-.089.037l-.72.8c.032-.037.089-.042.173-.026h0a1.213,1.213,0,0,1,.326.142l5.919,3.417a3.761,3.761,0,0,1,.336.226h0c.11.089.221.184.326.284h0a3.55,3.55,0,0,1,.273.3h0a2.211,2.211,0,0,1,.189.284l.72-.8Z" transform="translate(-257.586 -203.979)" fill="#fff" opacity="0.2"/>
      <path id="Path_156188" data-name="Path 156188" d="M278.172,263.3a6.612,6.612,0,0,1-3.2-6.051s3.743,1.961,5.42.915l-.862-1.645a10.241,10.241,0,0,1,6.5,2.287,47.9,47.9,0,0,0,10.393-3.012,21.259,21.259,0,0,1,3-1.051,5.441,5.441,0,0,1,3.154.084,3.154,3.154,0,0,1,2.034,2.276,3.37,3.37,0,0,1-1.162,2.954,8.312,8.312,0,0,1-2.9,1.577C296.245,263.151,280.169,264.56,278.172,263.3Z" transform="translate(-261.64 -208.334)" fill="#ffa8a7"/>
      <path id="Path_156189" data-name="Path 156189" d="M301.255,180.2a5.189,5.189,0,0,1-1.44-6.834,2.823,2.823,0,0,1-1.367-1.283,1.509,1.509,0,0,1,1.961-2.013,2.1,2.1,0,0,1,.841-2.471,2,2,0,0,1,2.487.463,1.346,1.346,0,0,1,.92-1.33,2.739,2.739,0,0,1,1.724.105c.526.189,1.051.468,1.635.641a12.707,12.707,0,0,0,2.933.378,5.909,5.909,0,0,1,2.834.752,2.517,2.517,0,0,1,1.115,2.876,1.635,1.635,0,0,1,1.178-.626,1.577,1.577,0,0,1,1.209.526c-.615.384-1.214.794-1.829,1.178a1.666,1.666,0,0,1,1.882.752,3.743,3.743,0,0,1,.331,1.987,26.45,26.45,0,0,1-1.367,7.612,5.144,5.144,0,0,1-2.234,3.2Z" transform="translate(-272.727 -166.635)" fill="#37474f"/>
      <path id="Path_156190" data-name="Path 156190" d="M316.279,199.967l.268,3.033a1.178,1.178,0,0,1-.168.673,1.719,1.719,0,0,0,.263,1.982,2.255,2.255,0,0,0,1.356.457,6.54,6.54,0,0,0,5.015-1.935,1.4,1.4,0,0,0,.4-1.051l-.2-7.7Z" transform="translate(-281.2 -180.292)" fill="#ffa8a7"/>
      <path id="Path_156191" data-name="Path 156191" d="M322.708,196.21l-6.308,4.127.237,2.692a9.979,9.979,0,0,0,4.116-1.714,5.651,5.651,0,0,0,1.956-5.1Z" transform="translate(-281.306 -180.662)" opacity="0.3"/>
      <path id="Path_156192" data-name="Path 156192" d="M303.04,180.076a27.122,27.122,0,0,0,.678,10.514,8.227,8.227,0,0,0,.836,2.161,3.506,3.506,0,0,0,1.708,1.519,5.408,5.408,0,0,0,2.823,0,14.119,14.119,0,0,0,4.973-1.524,4.828,4.828,0,0,0,2.529-4.274,2.975,2.975,0,0,0,2.849.158,3.007,3.007,0,0,0,1.577-2.413,1.867,1.867,0,0,0-3.112-1.766,6.22,6.22,0,0,0-1.162,1.351,2.041,2.041,0,0,1-.578.62.694.694,0,0,1-.794,0,1.051,1.051,0,0,1-.226-.867l.1-2.2a.878.878,0,0,0-.489-.82,2.166,2.166,0,0,1-.988-1.136,4.548,4.548,0,0,1-.279-1.325.526.526,0,0,0-.741-.463A16.239,16.239,0,0,1,303.04,180.076Z" transform="translate(-274.859 -172.766)" fill="#ffa8a7"/>
      <path id="Path_156193" data-name="Path 156193" d="M310.677,190.7l-1.977,3.333,2.36.447Z" transform="translate(-277.654 -178.049)" fill="#f28f8f"/>
      <path id="Path_156194" data-name="Path 156194" d="M315.9,200.07l-1.793.873a1.167,1.167,0,0,0,1.362.389A1.051,1.051,0,0,0,315.9,200.07Z" transform="translate(-280.219 -182.493)" fill="#f28f8f"/>
      <path id="Path_156195" data-name="Path 156195" d="M315.9,200.07l-1.793.873a1.167,1.167,0,0,0,1.362.389A1.051,1.051,0,0,0,315.9,200.07Z" transform="translate(-280.219 -182.493)" opacity="0.3"/>
      <path id="Path_156196" data-name="Path 156196" d="M315.51,201.674a1.051,1.051,0,0,0,.626-.058.962.962,0,0,0,.478-.946,1.12,1.12,0,0,0-.71.247,1.14,1.14,0,0,0-.394.757Z" transform="translate(-280.883 -182.778)" fill="#f28f8f"/>
      <path id="Path_156197" data-name="Path 156197" d="M317.778,190.449a.678.678,0,0,1-.6.746.689.689,0,0,1-.747-.61.679.679,0,0,1,1.351-.137Z" transform="translate(-281.317 -177.64)" fill="#263238"/>
      <path id="Path_156198" data-name="Path 156198" d="M306.93,191.071a.673.673,0,1,1-.244-.457A.678.678,0,0,1,306.93,191.071Z" transform="translate(-276.172 -177.936)" fill="#263238"/>
      <path id="Path_156199" data-name="Path 156199" d="M305.05,186.524l-1.393,1.183a.967.967,0,0,1,.184-1.088A1.151,1.151,0,0,1,305.05,186.524Z" transform="translate(-275.218 -176.008)" fill="#263238"/>
      <path id="Path_156200" data-name="Path 156200" d="M317.37,185.144l1.577.883a.973.973,0,0,0-.4-1.051A1.136,1.136,0,0,0,317.37,185.144Z" transform="translate(-281.766 -175.289)" fill="#263238"/>
      <path id="Path_156201" data-name="Path 156201" d="M323.094,241.84l-3.054,7.886,3.37,5.257c4.91-2.229,3.9-1.577,7.3-9.8Z" transform="translate(-283.032 -202.305)" fill="#ffa8a7"/>
      <path id="Path_156202" data-name="Path 156202" d="M332.106,210.87c-3.68,4.353-5.063,11.834-6.966,16.644,2.129,4.027,8.059,3.638,8.059,3.638C338.624,219.875,340.922,211.327,332.106,210.87Z" transform="translate(-285.451 -187.616)" fill="#455a64"/>
    </g>
  </g>
</svg>
