<svg xmlns="http://www.w3.org/2000/svg" width="120.041" height="120" viewBox="0 0 120.041 120">
  <g id="Group_98026" data-name="Group 98026" transform="translate(-559.58 -140.42)">
    <path id="Path_152962" data-name="Path 152962" d="M678.2,260.42H644.908a2.983,2.983,0,0,1-1.346-2.878c.051-3.275.02-6.551.014-9.827,0-.41-.046-.82-.069-1.213h-21.83v3.843c.417.021.76.05,1.1.054,1.938.026,2.335.314,2.952,2.148.521,1.55,1.05,3.1,1.563,4.649.544,1.645.323,2.253-1.141,3.224H613.027c-1.466-.97-1.685-1.579-1.141-3.228.548-1.667,1.1-3.333,1.662-4.994a2.207,2.207,0,0,1,2.518-1.795c.486-.009.972,0,1.421,0v-4H567.024c-3.089,0-3.449-.354-3.449-3.393V173.182q0-8.436-.013-16.871c0-.393-.047-.986-.294-1.147a9.33,9.33,0,0,1-3.688-5.362V146.99c2.265-5.424,4.006-6.563,10.039-6.563h97.244c1.641,0,3.281-.023,4.921.011a7.9,7.9,0,0,1,7.4,5.483,7.784,7.784,0,0,1-2.727,8.778,1.991,1.991,0,0,0-.867,1.838q.033,32.27.017,64.541v1.315c.4.018.66.037.925.041,2.614.038,3.069.492,3.069,3.07,0,10.737-.014,21.474.02,32.211A2.729,2.729,0,0,1,678.2,260.42Zm-34.616-18.071c0-2.432-.043-4.736.018-7.036a2.031,2.031,0,0,0-1.495-2.185c-5.959-2.425-11.891-4.917-17.841-7.367a4.972,4.972,0,0,1-3-2.939A4.778,4.778,0,0,1,622.3,217.6a5.065,5.065,0,0,1,5.683-1.346q6.8,2.345,13.608,4.676c1.511.516,3.018,1.364,4.553,1.428,4.582.191,9.176.068,13.509.068a26.085,26.085,0,0,1-3.8-2.258c-5.218-4.344-5.7-13.374-1.087-18.487,4.025-4.456,10.143-4.306,13.955.342a14.13,14.13,0,0,1,2.82,6.661V156.473H567.658v85.876Zm-23.985-89.94h50.965c.469,0,.939.016,1.406-.019a3.957,3.957,0,0,0,3.494-4.944c-.542-2.021-2.046-3.024-4.555-3.024q-51.316,0-102.634,0a10,10,0,0,0-1.054.024,3.981,3.981,0,0,0-3.21,5.731,4.063,4.063,0,0,0,4.036,2.245Q593.818,152.391,619.594,152.409Zm27.994,103.919h27.945v-29.9h-1.458q-13.828,0-27.657-.013a6.205,6.205,0,0,1-1.947-.285c-4.8-1.619-9.592-3.279-14.386-4.927-1.143-.393-2.287-.78-3.427-1.181-.755-.266-1.435-.045-1.59.681-.081.38.412.945.754,1.33.21.237.624.293.949.428l17.511,7.244a5.262,5.262,0,0,1,3.306,4.888q0,10.136,0,20.269Zm8.031-46.272a9.232,9.232,0,0,0,2.18,6.537,4.857,4.857,0,0,0,7.494.117c3.114-3.233,3.049-9.551-.131-12.707a4.83,4.83,0,0,0-7.09-.024A8.477,8.477,0,0,0,655.619,210.056Zm15.993,12.334v-9.772c-1.125,4.678-3.419,8.262-8.577,9.772Zm-48.963,34c-.237-1.941-.29-1.99-2.088-1.99h-1.99c-1.75,0-1.9.144-1.992,1.99Z" fill="#fe502d"/>
    <path id="Path_152965" data-name="Path 152965" d="M612.209,204.43c.94,1.509,1.9,2.93,2.723,4.423a4.943,4.943,0,0,1,.636,2.18c.071,2.967.037,5.936.027,8.9-.007,1.77-.725,2.489-2.5,2.5-3.116.011-6.232,0-9.418,0v-3.953h7.9c0-2.545.311-5.007-.11-7.337-.278-1.541-1.6-2.892-2.411-4.242-2.214.867-4.29,1.867-6.472,2.505a25.98,25.98,0,1,1-4.944-50.892,25.015,25.015,0,0,1,14.4,5.873,1.419,1.419,0,0,0,1.844.255,19.066,19.066,0,0,1,10.931-2.235c2.172.17,4.369.03,6.654.03v3.994h-1.569c-2.383,0-4.778.147-7.146-.04-2.521-.2-4.636.764-6.873,1.793a26.048,26.048,0,0,1-3.679,36.244Zm-3.623-37.587a21.78,21.78,0,0,0-25.112-.795,22.02,22.02,0,0,0-8.838,25.08c3.329,10.3,12.634,14.868,18.943,15.08v-1.267q0-9.837,0-19.675c0-2.24.613-2.857,2.843-2.858q9.84,0,19.68,0h1.382a22.436,22.436,0,0,0-4.738-11.73,1.3,1.3,0,0,0-1.84-.49c-3.792,1.638-7.615,3.206-11.429,4.794-1.023.425-2.054.829-3.132,1.263l-1.516-3.659Zm-1.82,36.473-4.874-7.822,3.4-2.1,4.717,7.52c4.085-3.187,7.836-10.645,7.3-14.427H597.634v19.826A21.475,21.475,0,0,0,606.766,203.316Z" fill="#fe502d"/>
    <path id="Path_152966" data-name="Path 152966" d="M601.52,228.489v3.87H569.7v-3.87Z" fill="#fe502d"/>
    <path id="Path_152967" data-name="Path 152967" d="M601.51,236.507v3.866H569.7v-3.866Z" fill="#fe502d"/>
    <path id="Path_152968" data-name="Path 152968" d="M601.5,220.5v3.817H569.676V220.5Z" fill="#fe502d"/>
    <path id="Path_152969" data-name="Path 152969" d="M601.518,212.482v3.85H569.7v-3.85Z" fill="#fe502d"/>
    <path id="Path_152970" data-name="Path 152970" d="M637.658,166.338v-3.822h29.887v3.822Z" fill="#fe502d"/>
    <path id="Path_152971" data-name="Path 152971" d="M637.66,174.326v-3.831h29.89v3.831Z" fill="#fe502d"/>
    <path id="Path_152972" data-name="Path 152972" d="M637.67,182.343V178.48h29.859v3.863Z" fill="#fe502d"/>
    <path id="Path_152973" data-name="Path 152973" d="M667.551,186.49v3.831H637.673V186.49Z" fill="#fe502d"/>
    <path id="Path_152974" data-name="Path 152974" d="M643.517,206.518v3.85h-17.8v-3.85Z" fill="#fe502d"/>
    <path id="Path_152975" data-name="Path 152975" d="M625.668,204.353v-3.848H643.5v3.848Z" fill="#fe502d"/>
    <path id="Path_152976" data-name="Path 152976" d="M625.677,194.484h17.837v3.852H625.677Z" fill="#fe502d"/>
    <path id="Path_152977" data-name="Path 152977" d="M619.533,234.356h-13.9v-3.843h13.9Z" fill="#fe502d"/>
    <path id="Path_152978" data-name="Path 152978" d="M619.5,228.359H605.649v-3.853H619.5Z" fill="#fe502d"/>
    <path id="Path_152979" data-name="Path 152979" d="M619.556,236.52v3.823H605.675V236.52Z" fill="#fe502d"/>
    <path id="Path_152980" data-name="Path 152980" d="M673.516,244.531v3.823h-3.868v-3.823Z" fill="#fe502d"/>
    <path id="Path_152981" data-name="Path 152981" d="M667.53,254.341H663.7v-3.873h3.83Z" fill="#fe502d"/>
    <path id="Path_152982" data-name="Path 152982" d="M673.493,254.339h-3.826v-3.825h3.826Z" fill="#fe502d"/>
  </g>
</svg>
